<svg id="Capa_1" data-name="Capa 1" xmlns="http://www.w3.org/2000/svg" viewBox="0 0 889.18 309.43"><defs><style>.cls-1{fill:#fff;}</style></defs><path class="cls-1" d="M514.44,171.14a15,15,0,0,1,8-2.21,18.37,18.37,0,0,1,11.82,4.24,13.21,13.21,0,0,1,5.28,10.72,14.62,14.62,0,0,1-1.64,6.46L489.89,291a16.91,16.91,0,0,1-7.09,7.67,20.76,20.76,0,0,1-20.37,0,16.85,16.85,0,0,1-7.09-7.67l-48-100.64a14.44,14.44,0,0,1-1.45-6.46q0-6.28,5.45-10.62a19.11,19.11,0,0,1,12.18-4.34,15.56,15.56,0,0,1,8.1,2.21,14.42,14.42,0,0,1,5.73,6.65l35.82,78.67,35.64-78.67A14.48,14.48,0,0,1,514.44,171.14Z"/><path class="cls-1" d="M555.45,296.8Q551,292.27,551,284.51V185.57q0-7.57,4.46-12.11c3-3,7-4.53,12.09-4.53s9.33,1.51,12.36,4.53,4.55,7.06,4.55,12.11v98.94q0,7.75-4.55,12.29c-3,3-7.15,4.53-12.36,4.53S558.41,299.83,555.45,296.8Z"/><path class="cls-1" d="M610.82,297.2q-4-4.12-4-11.83V184.89q0-7.71,4-11.84t11.45-4.13H659q21.27,0,36.64,8a55.4,55.4,0,0,1,23.55,22.81q8.19,14.85,8.18,35.32,0,20.66-8.09,35.59a54.16,54.16,0,0,1-23.46,22.82q-15.36,7.88-36.82,7.88H622.27Q614.81,301.33,610.82,297.2Zm45.82-23.66q18.74,0,28.1-9.49t9.37-29q0-19.54-9.37-28.93t-28.1-9.39H640.28v76.82Z"/><path class="cls-1" d="M867,286.68a13.34,13.34,0,0,1-4.82,10.39,16.14,16.14,0,0,1-11,4.26,13.8,13.8,0,0,1-7.63-2.22,14.87,14.87,0,0,1-5.46-6.68L830,273.7H771l-8.37,18.73a14.7,14.7,0,0,1-5.54,6.68,14.33,14.33,0,0,1-7.73,2.22,16.8,16.8,0,0,1-11.18-4.26,13.16,13.16,0,0,1-5-10.39,16.27,16.27,0,0,1,1.64-6.86l48-100.51a17.11,17.11,0,0,1,7-7.7,20.8,20.8,0,0,1,20.46,0,17,17,0,0,1,7.09,7.7l48,100.51A16.25,16.25,0,0,1,867,286.68Zm-48.37-38.57-18.18-41.35L782.3,248.11Z"/><path class="cls-1" d="M421.76,70.52A28,28,0,0,1,410.4,58.88a37.3,37.3,0,0,1-4-17.74,37.13,37.13,0,0,1,4-17.65,28,28,0,0,1,11.36-11.64A37.68,37.68,0,0,1,459.5,14a7.28,7.28,0,0,1,2.27,2.4,7,7,0,0,1,.69,3.33,7.45,7.45,0,0,1-1.62,4.85,4.9,4.9,0,0,1-3.92,2,7.24,7.24,0,0,1-2.5-.41,15.79,15.79,0,0,1-2.59-1.34A26.25,26.25,0,0,0,445.74,22a21.27,21.27,0,0,0-5.92-.83q-8.22,0-12.24,4.95t-4,15q0,10.17,4,15.1t12.24,4.95a16.42,16.42,0,0,0,5.36-.88,71.25,71.25,0,0,0,6.65-2.73c1.3-.67,2.25-1.13,2.87-1.38a5.86,5.86,0,0,1,2.22-.37,4.88,4.88,0,0,1,3.92,2,7.42,7.42,0,0,1,1.62,4.85,7.1,7.1,0,0,1-.69,3.28,7,7,0,0,1-2.27,2.44,37.74,37.74,0,0,1-37.74,2.13Z"/><path class="cls-1" d="M478.21,70.47A28,28,0,0,1,466.9,58.83a37.36,37.36,0,0,1-4-17.69,37.36,37.36,0,0,1,4-17.69,27.75,27.75,0,0,1,11.31-11.6,38.91,38.91,0,0,1,34.65,0,27.48,27.48,0,0,1,11.27,11.6,37.71,37.71,0,0,1,3.93,17.69,37.47,37.47,0,0,1-4,17.69,28,28,0,0,1-11.32,11.64,38.38,38.38,0,0,1-34.56,0Zm28.88-14.13q4.16-5.22,4.15-15.2T507,26a14,14,0,0,0-11.5-5.18q-7.4,0-11.55,5.13t-4.16,15.2c0,6.72,1.39,11.79,4.16,15.25s6.62,5.17,11.55,5.17S504.31,59.82,507.09,56.34Z"/><path class="cls-1" d="M535.54,72.52a8.28,8.28,0,0,1-2-6V16.25a8.41,8.41,0,0,1,2.26-6.16,8.22,8.22,0,0,1,6.15-2.31,8.5,8.5,0,0,1,6.28,2.31,8.32,8.32,0,0,1,2.31,6.16V60.57h21.25q8,0,8,7.05c0,2.39-.66,4.14-2,5.27s-3.34,1.69-6,1.69h-30.4A7.8,7.8,0,0,1,535.54,72.52Z"/><path class="cls-1" d="M591.58,70.47a28,28,0,0,1-11.32-11.64,37.36,37.36,0,0,1-4-17.69,37.36,37.36,0,0,1,4-17.69,27.77,27.77,0,0,1,11.32-11.6,38.91,38.91,0,0,1,34.65,0,27.54,27.54,0,0,1,11.27,11.6,37.83,37.83,0,0,1,3.92,17.69,37.36,37.36,0,0,1-4,17.69,28,28,0,0,1-11.32,11.64,38.36,38.36,0,0,1-34.55,0Zm28.87-14.13q4.15-5.22,4.16-15.2T620.4,26a14,14,0,0,0-11.5-5.18q-7.39,0-11.55,5.13t-4.16,15.2c0,6.72,1.39,11.79,4.16,15.25s6.62,5.17,11.55,5.17S617.68,59.82,620.45,56.34Z"/><path class="cls-1" d="M710.44,10.12a8.41,8.41,0,0,1,2.22,6.06V67a7.6,7.6,0,0,1-2,5.6,7.22,7.22,0,0,1-5.35,2,7.29,7.29,0,0,1-5.32-2,7.54,7.54,0,0,1-2.07-5.6V39.51l-10.54,19.6A12.17,12.17,0,0,1,684,63.36a7.55,7.55,0,0,1-8.32,0,12.18,12.18,0,0,1-3.33-4.25l-10.44-19V67a7.53,7.53,0,0,1-2.08,5.55,7.95,7.95,0,0,1-10.71,0,7.51,7.51,0,0,1-2.08-5.6V16.18a8.31,8.31,0,0,1,2.26-6.06,8.07,8.07,0,0,1,10.3-.89A11.25,11.25,0,0,1,663,13.38l17,32.29L697,13.38q2.87-5.6,7.76-5.6A7.54,7.54,0,0,1,710.44,10.12Z"/><path class="cls-1" d="M772.53,45.89a17.32,17.32,0,0,1,3,10.4,16.68,16.68,0,0,1-2.81,9.63,18.32,18.32,0,0,1-8,6.4,30.38,30.38,0,0,1-12.24,2.28H727.9a7.75,7.75,0,0,1-5.82-2.09,8.23,8.23,0,0,1-2-6V15.77a8.23,8.23,0,0,1,2-6A7.75,7.75,0,0,1,727.9,7.7h23.65q10.26,0,16.31,4.7a15.2,15.2,0,0,1,6,12.66,15.72,15.72,0,0,1-2.68,9.07,15.25,15.25,0,0,1-7.48,5.74A16.6,16.6,0,0,1,772.53,45.89ZM736.59,34h12.1q4.8,0,7-1.52a5.45,5.45,0,0,0,2.22-4.84,5.92,5.92,0,0,0-2.22-5.13q-2.22-1.61-7-1.61h-12.1Zm21,25.76c1.44-1.11,2.17-2.93,2.17-5.46s-.73-4.35-2.17-5.45-3.87-1.66-7.26-1.66H736.59V61.41h13.76Q755.44,61.41,757.61,59.75Z"/><path class="cls-1" d="M781.9,72.31a8.45,8.45,0,0,1-2.26-6.21v-50A8.33,8.33,0,0,1,781.9,10a8.25,8.25,0,0,1,6.15-2.29A8.53,8.53,0,0,1,794.33,10a8.24,8.24,0,0,1,2.31,6.12v50a8.36,8.36,0,0,1-2.31,6.21,8.53,8.53,0,0,1-6.28,2.29A8.25,8.25,0,0,1,781.9,72.31Z"/><path class="cls-1" d="M867.05,67.2a6.76,6.76,0,0,1-2.45,5.25A8.27,8.27,0,0,1,859,74.6a7,7,0,0,1-3.88-1.12,7.61,7.61,0,0,1-2.78-3.38l-4.15-9.46H818.26L814,70.1a7.49,7.49,0,0,1-2.82,3.38,7.26,7.26,0,0,1-3.92,1.12,8.57,8.57,0,0,1-5.68-2.15A6.64,6.64,0,0,1,799,67.2a8.1,8.1,0,0,1,.84-3.47L824.27,13a8.65,8.65,0,0,1,3.55-3.89,10.62,10.62,0,0,1,10.4,0,8.59,8.59,0,0,1,3.6,3.89l24.39,50.78A8.1,8.1,0,0,1,867.05,67.2ZM842.47,47.71l-9.24-20.9L824,47.71Z"/><path class="cls-1" d="M408.07,144.75a2.53,2.53,0,0,1-.67-1.85V104.82a2.29,2.29,0,0,1,.7-1.75,2.53,2.53,0,0,1,1.85-.67h14.36q6.72,0,10.45,3.27t3.73,9.28q0,6-3.76,9.34t-10.42,3.34H412.37V142.9a2.53,2.53,0,0,1-.67,1.85,2.7,2.7,0,0,1-3.63,0Zm15.75-21.25q9.76,0,9.76-8.55t-9.76-8.43H412.37v17Z"/><path class="cls-1" d="M452.09,142.84a17.43,17.43,0,0,1-6.75-7.47A25.69,25.69,0,0,1,443,124a26.31,26.31,0,0,1,2.34-11.5A16.94,16.94,0,0,1,452,105a22.08,22.08,0,0,1,20.79,0,17,17,0,0,1,6.73,7.46,26.31,26.31,0,0,1,2.33,11.44,26,26,0,0,1-2.36,11.44,17.36,17.36,0,0,1-6.76,7.5,21.69,21.69,0,0,1-20.67,0ZM473,136.77q3.79-4.5,3.79-12.87T473,111.06q-3.75-4.49-10.6-4.48t-10.58,4.51q-3.78,4.51-3.79,12.81t3.79,12.84q3.79,4.55,10.58,4.54T473,136.77Z"/><path class="cls-1" d="M497.66,144.75a2.51,2.51,0,0,1-.69-1.85V106.65h-13a2.48,2.48,0,0,1-1.7-.55,2,2,0,0,1-.6-1.58,2,2,0,0,1,.6-1.57,2.43,2.43,0,0,1,1.7-.55H515a2.41,2.41,0,0,1,1.69.55,2,2,0,0,1,.61,1.57,2,2,0,0,1-.61,1.58,2.45,2.45,0,0,1-1.69.55H502V142.9a2.53,2.53,0,0,1-.67,1.85,2.37,2.37,0,0,1-1.82.7A2.5,2.5,0,0,1,497.66,144.75Z"/><path class="cls-1" d="M522.09,144.78a2.34,2.34,0,0,1-.7-1.77V104.84a2.34,2.34,0,0,1,.7-1.77,2.53,2.53,0,0,1,1.84-.67H546.6a2.43,2.43,0,0,1,1.7.55,2,2,0,0,1,.6,1.52,2,2,0,0,1-.6,1.53,2.43,2.43,0,0,1-1.7.55H526.3v15h19.09a2.41,2.41,0,0,1,1.69.55,2.22,2.22,0,0,1,0,3.06,2.45,2.45,0,0,1-1.69.55H526.3V141.3h20.3a2.57,2.57,0,0,1,1.7.51,2.29,2.29,0,0,1,0,3.09,2.43,2.43,0,0,1-1.7.55H523.93A2.57,2.57,0,0,1,522.09,144.78Z"/><path class="cls-1" d="M588.77,103.09a2.67,2.67,0,0,1,.61,1.84v38a2.63,2.63,0,0,1-.63,1.84,2.34,2.34,0,0,1-1.79.69,2.52,2.52,0,0,1-2-1L559.81,111v31.91a2.59,2.59,0,0,1-.64,1.84,2.23,2.23,0,0,1-1.73.69,2.13,2.13,0,0,1-1.69-.69,2.67,2.67,0,0,1-.61-1.84v-38a2.59,2.59,0,0,1,.64-1.84,2.31,2.31,0,0,1,1.79-.69,2.61,2.61,0,0,1,2.06,1l25.08,33.42V104.93a2.64,2.64,0,0,1,.64-1.84,2.24,2.24,0,0,1,1.73-.69A2.12,2.12,0,0,1,588.77,103.09Z"/><path class="cls-1" d="M606.05,142.87a17.35,17.35,0,0,1-6.82-7.47,25.72,25.72,0,0,1-2.39-11.5,25.61,25.61,0,0,1,2.39-11.44,17.27,17.27,0,0,1,6.82-7.46,20.25,20.25,0,0,1,10.48-2.6,22.86,22.86,0,0,1,7.67,1.28,18.68,18.68,0,0,1,6.27,3.68,2.78,2.78,0,0,1,1,2.09,2.28,2.28,0,0,1-.49,1.46,1.41,1.41,0,0,1-1.15.63,3.48,3.48,0,0,1-1.76-.66,22.42,22.42,0,0,0-5.6-3.34,16.19,16.19,0,0,0-5.79-1q-7,0-10.82,4.51t-3.78,12.81q0,8.37,3.78,12.87t10.82,4.51a16.49,16.49,0,0,0,5.76-.95A22.26,22.26,0,0,0,628,137a3.58,3.58,0,0,1,1.76-.66,1.43,1.43,0,0,1,1.15.6,2.27,2.27,0,0,1,.49,1.49,2.81,2.81,0,0,1-1,2.1,18.82,18.82,0,0,1-6.27,3.67,22.62,22.62,0,0,1-7.67,1.28A20.34,20.34,0,0,1,606.05,142.87Z"/><path class="cls-1" d="M638.59,144.76a2.53,2.53,0,0,1-.67-1.84v-38a2.53,2.53,0,0,1,.67-1.84,2.73,2.73,0,0,1,3.63,0,2.53,2.53,0,0,1,.67,1.84v38a2.53,2.53,0,0,1-.67,1.84,2.73,2.73,0,0,1-3.63,0Z"/><path class="cls-1" d="M689,143.34a1.92,1.92,0,0,1-.7,1.51,2.48,2.48,0,0,1-1.67.6,2.15,2.15,0,0,1-2.12-1.44l-4.3-9.74H657.31L653,144a2.15,2.15,0,0,1-2.12,1.44,2.52,2.52,0,0,1-1.7-.63,2,2,0,0,1-.72-1.53,2.14,2.14,0,0,1,.24-1L666,104.09a2.54,2.54,0,0,1,1.09-1.27,3.08,3.08,0,0,1,1.57-.42,3,3,0,0,1,1.64.45,2.74,2.74,0,0,1,1.09,1.24l17.33,38.23A2.17,2.17,0,0,1,689,143.34Zm-10.61-13.16-9.63-21.59-9.58,21.59Z"/><path class="cls-1" d="M709.28,144.79a2.34,2.34,0,0,1-.7-1.77V104.84a2.34,2.34,0,0,1,.7-1.77,2.53,2.53,0,0,1,1.84-.67h11.82q10.24,0,15.85,5.59t5.6,15.91q0,10.32-5.63,15.94t-15.82,5.62H711.12A2.53,2.53,0,0,1,709.28,144.79Zm13.36-3.6q16.61,0,16.6-17.29t-16.6-17.22h-9.09v34.51Z"/><path class="cls-1" d="M752.54,144.79a2.37,2.37,0,0,1-.69-1.77V104.84a2.37,2.37,0,0,1,.69-1.77,2.55,2.55,0,0,1,1.85-.67h22.67a2.41,2.41,0,0,1,1.69.55,2.22,2.22,0,0,1,0,3.06,2.45,2.45,0,0,1-1.69.55h-20.3v15h19.08a2.42,2.42,0,0,1,1.7.55,2.21,2.21,0,0,1,0,3.05,2.42,2.42,0,0,1-1.7.55H756.76v15.64h20.3a2.49,2.49,0,0,1,1.69.52,2.25,2.25,0,0,1,0,3.08,2.41,2.41,0,0,1-1.69.55H754.39A2.55,2.55,0,0,1,752.54,144.79Z"/><path class="cls-1" d="M800.42,144.82a2.11,2.11,0,0,1-.7-1.66V105a2.53,2.53,0,0,1,.67-1.85,2.7,2.7,0,0,1,3.63,0,2.53,2.53,0,0,1,.67,1.85v36.27h19.57a2.48,2.48,0,0,1,1.7.54,2.38,2.38,0,0,1,0,3.16,2.48,2.48,0,0,1-1.7.54H802.14A2.43,2.43,0,0,1,800.42,144.82Z"/><path class="cls-1" d="M867,143.34a1.91,1.91,0,0,1-.69,1.51,2.48,2.48,0,0,1-1.67.6,2.15,2.15,0,0,1-2.12-1.44l-4.3-9.74H835.41L831.05,144a2.15,2.15,0,0,1-2.12,1.44,2.52,2.52,0,0,1-1.7-.63,2,2,0,0,1-.73-1.53,2,2,0,0,1,.25-1l17.33-38.23a2.54,2.54,0,0,1,1.09-1.27,3.08,3.08,0,0,1,1.57-.42,3,3,0,0,1,1.64.45,2.74,2.74,0,0,1,1.09,1.24l17.33,38.23A2.28,2.28,0,0,1,867,143.34Zm-10.6-13.16-9.63-21.59-9.58,21.59Z"/><path class="cls-1" d="M236.57,154.32c-3.2,45.47,34.28,75.71,72.25,97.2a4.25,4.25,0,0,0,6.35-3.69V229.9a6.05,6.05,0,0,0-3.9-5.66c-25.52-9.69-44.2-35.48-42.81-61.77,1.31-24.66,18.91-48.3,43.24-57.17a5.31,5.31,0,0,0,3.47-5v-16a3.25,3.25,0,0,0-5.07-2.71C297.4,90.21,283.84,97.7,271,106.16,253.44,117.72,238.07,133,236.57,154.32Z"/><path class="cls-1" d="M174.39,136.06c-7.3,12.67-12,27.37-10.42,41.93,1.51,13.94,9.29,26.82,18.34,37.59,19.75,23.52,45.56,43.55,71.82,60.16a387,387,0,0,0,47.27,25.43,16.91,16.91,0,0,0,1.72.44,5,5,0,0,0,1.59.1l3.78-.38a6.67,6.67,0,0,0,6.68-6.67h0a7.44,7.44,0,0,0-4.11-6.66l-.14-.07c-24.1-12.24-47.95-25.94-67.4-44.4-33.48-31.76-52.3-81.85-29.38-124.15,19.8-36.53,64.12-48,93.3-75.42q.48-.45,1-.84a19,19,0,0,0,6.77-14.75V11.78a4,4,0,0,0-4.05-4h0a8.5,8.5,0,0,0-5.34,1.88Q273.62,35.44,243.05,63C218.64,85.06,190.76,107.66,174.39,136.06Z"/><path class="cls-1" d="M146.79,220.88c-20.62-31.6-18.83-68.22-.36-100.34,22.65-39.39,63.36-70.91,95.74-99.41,3.86-3.4,7.6-6.16,11.57-9.19a2.34,2.34,0,0,0-1.41-4.21h-184A46.16,46.16,0,0,0,22.13,53.89V255.18a46.16,46.16,0,0,0,46.16,46.15H228.41a2.34,2.34,0,0,0,1.32-4.29c-1.79-1.18-3.57-2.39-5.33-3.61C195.55,273.5,165.78,250,146.79,220.88Z"/><path class="cls-1" d="M300.78,161.92c.05-.3.13-.59.19-.89C301,160.53,301,160.57,300.78,161.92Z"/><path class="cls-1" d="M300.93,168.11c-.06-.32-.15-.63-.2-1C300.91,168.4,300.94,168.49,300.93,168.11Z"/><circle class="cls-1" cx="317.98" cy="162.36" r="22.23"/></svg>