<svg xmlns="http://www.w3.org/2000/svg" viewBox="0 0 196 329"><defs><style>.cls-1{fill:#253d45;}.cls-13,.cls-2{fill:#385b64;}.cls-3,.cls-5,.cls-6,.cls-7,.cls-9{fill:none;}.cls-10,.cls-13,.cls-3,.cls-5,.cls-6,.cls-9{stroke:#253d45;}.cls-10,.cls-3,.cls-5,.cls-6,.cls-7{stroke-miterlimit:10;}.cls-4{fill:#fff;}.cls-5{stroke-linecap:round;}.cls-6{stroke-width:0.75px;}.cls-7{stroke:#385b64;}.cls-8{fill:#2f4d55;}.cls-13,.cls-9{stroke-linejoin:bevel;}.cls-10{fill:#1c3238;}.cls-11{fill:#263238;}.cls-12{fill:#ff725e;}.cls-14{fill:#fffffe;}</style></defs><g id="CAJON"><polygon class="cls-1" points="5.86 7.5 41.86 7.5 42.86 321.5 5.86 320.5 5.86 7.5"/><polygon class="cls-2" points="41.86 7.5 139.86 7.5 139.86 320.5 42.86 321.5 41.86 7.5"/><rect class="cls-3" x="46.79" y="27.71" width="88" height="62"/><rect class="cls-1" x="73.79" y="65.71" width="36" height="8"/><rect class="cls-4" x="82.79" y="38.71" width="22" height="18"/><path class="cls-5" d="M83.57,56.28a16.59,16.59,0,0,0,2.13-2.59l5.19-7.24c.2-.29.48-.61.83-.57s.49.31.65.56l2.32,3.66a2,2,0,0,0,.86.88c1.39.54,2.63-2.11,4-1.43a2,2,0,0,1,.73.84,11.39,11.39,0,0,0,3.8,3.73"/><circle class="cls-6" cx="96.79" cy="44.71" r="2.5"/><rect class="cls-3" x="47.5" y="94.71" width="87.29" height="60"/><rect class="cls-4" x="81.73" y="179.37" width="22.17" height="16.13"/><path class="cls-7" d="M86.12,183.58h4.54"/><path class="cls-7" d="M88.26,188.62c0-1.56,0-3.12,0-4.68"/><path class="cls-7" d="M92.82,187.36h7.34"/><path class="cls-7" d="M86.77,191.11h13.57"/><path class="cls-7" d="M92.89,183.9h7"/><rect class="cls-8" x="71.79" y="202.71" width="41" height="6"/><rect class="cls-4" x="81.73" y="109.37" width="22.17" height="16.13"/><path class="cls-7" d="M86.12,113.58h4.54"/><path class="cls-7" d="M88.26,118.62c0-1.56,0-3.12,0-4.68"/><path class="cls-7" d="M92.82,117.36h7.34"/><path class="cls-7" d="M86.77,121.11h13.57"/><path class="cls-7" d="M92.89,113.9h7"/><rect class="cls-8" x="71.79" y="132.71" width="41" height="6"/><rect class="cls-9" x="47.29" y="230.21" width="87" height="63"/><rect class="cls-3" x="47.29" y="163.21" width="87.21" height="61"/><rect class="cls-10" x="47.29" y="230.21" width="87" height="63"/><rect class="cls-11" x="82.37" y="208.71" width="70" height="43.38" rx="7.87" transform="translate(-107.42 102.6) rotate(-33.38)"/><circle class="cls-12" cx="117.69" cy="230.9" r="5.33"/><path class="cls-4" d="M117.48,232.91l-1.73-2.63a.2.2,0,0,1,.15-.31l3.22-.23a.21.21,0,0,1,.19.3l-1.49,2.85A.2.2,0,0,1,117.48,232.91Z"/><path class="cls-4" d="M100.68,261.41l.06.1-.44.29,0-.08.09-.38a.22.22,0,0,0,0-.17.11.11,0,0,0-.17,0,.19.19,0,0,0-.1.15h-.12a.35.35,0,0,1,.16-.24c.13-.09.26-.08.33,0a.25.25,0,0,1,0,.25l0,.26Z"/><path class="cls-4" d="M100.54,261.08a.08.08,0,0,1,0-.12.07.07,0,0,1,.11,0,.08.08,0,0,1,0,.12A.08.08,0,0,1,100.54,261.08Zm.22.32a.08.08,0,0,1,0-.12.09.09,0,0,1,.09.15A.08.08,0,0,1,100.76,261.4Z"/><path class="cls-4" d="M100.82,260.59l.4.6-.11.07-.34-.5-.12.08-.06-.09Z"/><path class="cls-4" d="M101.78,260.63l-.11.07.09.13-.11.07-.09-.13-.32.21,0-.07,0-.58.11-.08,0,.55.2-.13-.08-.12.1-.07.08.12.1-.07Z"/><rect class="cls-4" x="98.19" y="244.81" width="54.21" height="0.25" transform="translate(-114.1 109.36) rotate(-33.38)"/><rect class="cls-12" x="101.2" y="254.83" width="16.94" height="0.66" transform="translate(-122.31 102.45) rotate(-33.38)"/><path class="cls-12" d="M117.23,250.25a.82.82,0,0,1-.23,1.14.83.83,0,1,1-.91-1.38A.82.82,0,0,1,117.23,250.25Z"/><path class="cls-4" d="M149.07,229.26a.25.25,0,0,1-.09.34.32.32,0,0,1-.46-.13.35.35,0,0,1,.08-.51.35.35,0,0,1,.19-.06V229a.2.2,0,0,0-.13,0,.22.22,0,0,0,0,.33h0a.25.25,0,0,1,.12-.17A.23.23,0,0,1,149.07,229.26Zm-.11.08c0-.07-.11-.07-.18,0a.13.13,0,0,0-.06.19.13.13,0,0,0,.19,0A.11.11,0,0,0,149,229.34Z"/><path class="cls-4" d="M149,229a.08.08,0,0,1,0-.12.08.08,0,0,1,.11,0,.08.08,0,0,1-.13.09Zm.21.32a.07.07,0,0,1,0-.11.08.08,0,0,1,.12,0,.09.09,0,0,1,0,.12A.09.09,0,0,1,149.2,229.34Z"/><path class="cls-4" d="M149.26,229a.3.3,0,1,1,.49-.33.33.33,0,0,1,0,.48C149.57,229.21,149.39,229.17,149.26,229Zm.38-.25c-.09-.15-.19-.18-.27-.12s-.1.15,0,.3.19.17.27.12S149.74,228.86,149.64,228.72Z"/><path class="cls-4" d="M149.83,228.59a.31.31,0,0,1,0-.47c.14-.09.32-.05.45.15a.32.32,0,0,1-.05.47C150.14,228.83,150,228.79,149.83,228.59Zm.39-.25c-.1-.14-.2-.17-.28-.12s-.09.16,0,.3.2.17.28.12S150.31,228.48,150.22,228.34Z"/><polygon class="cls-4" points="151.27 227.59 151.06 227.73 150.67 227.13 151.26 226.74 151.4 226.95 151.01 227.21 151.27 227.59"/><polygon class="cls-4" points="152.17 228.12 151.57 228.51 151.18 227.91 151.39 227.78 151.64 228.16 152.03 227.91 152.17 228.12"/><polygon class="cls-4" points="153.12 227.49 152.52 227.88 152.38 227.68 152.77 227.42 152.52 227.03 152.72 226.9 153.12 227.49"/><polygon class="cls-4" points="152.6 226.71 152.4 226.85 152.14 226.46 151.75 226.72 151.62 226.51 152.21 226.12 152.6 226.71"/><path class="cls-4" d="M126.31,203.58l.3-.24.89-.63.06,0,0,.06,1,1.56.12.17-.2,0-.28-.06-.69-.14.1-.06-.28,1,0,.17-.09-.14c-.31-.49-.56-.9-.73-1.18a2,2,0,0,1-.24-.43,3.63,3.63,0,0,1,.33.43c.19.27.46.64.76,1.09l-.13,0,.25-1,0-.07h.08l.7.14.27.06-.09.13c-.37-.58-.72-1.11-1-1.57l.1,0-.9.55A3.28,3.28,0,0,1,126.31,203.58Z"/><path class="cls-4" d="M131,200.79s0,.2-.06.58-.1,1-.19,1.61l0,.22-.12-.18-.52-.78-.05-.07.06,0-.89-.18-.21,0,.18-.11c.54-.35,1-.63,1.34-.82l.49-.28s-.21.16-.52.38-.73.52-1.23.85l0-.15.9.17h0l0,0,0,.08.51.78-.15,0c.09-.61.2-1.13.27-1.52S131,200.81,131,200.79Z"/><path class="cls-4" d="M131,200.79a1.84,1.84,0,0,1-.38.71c-.24.37-.47.65-.51.62s.12-.34.37-.71S130.93,200.77,131,200.79Z"/><path class="cls-4" d="M133.05,199.14a.52.52,0,0,1,.21-.14,1.08,1.08,0,0,1,.73,0,1.11,1.11,0,0,1,.72.78,1.13,1.13,0,0,1-.47,1.21,1.11,1.11,0,0,1-1.29-.05,1.07,1.07,0,0,1-.43-1,1,1,0,0,1,.31-.65.52.52,0,0,1,.22-.15s-.07.07-.18.19a1.08,1.08,0,0,0-.23.62,1,1,0,0,0,.4.84,1,1,0,1,0,.91-1.7,1.09,1.09,0,0,0-.66,0C133.13,199.11,133.05,199.16,133.05,199.14Z"/><path class="cls-4" d="M134.16,200.19c0,.05-.29,0-.63,0h0l0,0h0c-.19-.3-.32-.56-.28-.58s.23.19.42.48h0l-.06,0C133.9,200.05,134.17,200.14,134.16,200.19Z"/><path class="cls-4" d="M112.66,214.28s-6,4-13.37,8.91S85.85,232,85.82,232s6-4,13.37-8.91S112.63,214.24,112.66,214.28Z"/><circle class="cls-4" cx="83.5" cy="233.49" r="1.27"/><rect class="cls-11" x="118.44" y="207.38" width="70" height="43.38" rx="7.87" transform="translate(-95.45 110.45) rotate(-30.7)"/><circle class="cls-12" cx="153.74" cy="229.58" r="5.33"/><path class="cls-4" d="M153.43,231.58l-1.61-2.71a.2.2,0,0,1,.17-.3l3.23-.07a.2.2,0,0,1,.17.3l-1.62,2.77A.19.19,0,0,1,153.43,231.58Z"/><path class="cls-4" d="M135.31,259.27l.06.09-.45.27,0-.08.11-.37a.22.22,0,0,0,0-.17c0-.06-.09-.07-.16,0a.19.19,0,0,0-.11.15l-.12,0a.35.35,0,0,1,.18-.24.21.21,0,0,1,.32.05c0,.06,0,.12,0,.25l-.07.26Z"/><path class="cls-4" d="M135.19,258.92a.08.08,0,0,1,0-.11.08.08,0,0,1,.12,0,.08.08,0,0,1,0,.11A.08.08,0,0,1,135.19,258.92Zm.2.34a.09.09,0,0,1,0-.12.09.09,0,1,1,0,.12Z"/><path class="cls-4" d="M135.5,258.46l.36.61-.11.07-.31-.52-.13.08-.06-.1Z"/><path class="cls-4" d="M136.45,258.53l-.11.07.08.14-.11.06-.08-.14-.34.2,0-.08.07-.57.12-.07-.06.54.2-.12-.07-.12.11-.06.07.12.11-.06Z"/><rect class="cls-4" x="133.57" y="243.83" width="54.21" height="0.25" transform="translate(-102.04 116.23) rotate(-30.7)"/><rect class="cls-12" x="136.12" y="253.11" width="16.94" height="0.66" transform="translate(-109.13 109.34) rotate(-30.7)"/><path class="cls-12" d="M152.37,248.89a.82.82,0,1,1-1.13-.29A.83.83,0,0,1,152.37,248.89Z"/><path class="cls-4" d="M185.15,229.41a.24.24,0,0,1-.1.34c-.17.1-.33.05-.45-.15a.34.34,0,0,1,.11-.51.45.45,0,0,1,.18-.05v.11a.2.2,0,0,0-.13,0,.21.21,0,0,0-.07.32h0a.28.28,0,0,1,.13-.16A.22.22,0,0,1,185.15,229.41Zm-.1.07a.14.14,0,0,0-.19,0c-.07.05-.1.12-.06.18a.13.13,0,0,0,.19,0A.13.13,0,0,0,185.05,229.48Z"/><path class="cls-4" d="M185.08,229.17a.09.09,0,1,1,.15-.09.09.09,0,0,1,0,.12A.1.1,0,0,1,185.08,229.17Zm.2.33a.08.08,0,0,1,0-.11.1.1,0,0,1,.12,0,.08.08,0,0,1,0,.11A.08.08,0,0,1,185.28,229.5Z"/><path class="cls-4" d="M185.36,229.14c-.12-.21-.08-.39.07-.47s.32,0,.44.16a.32.32,0,0,1-.07.47C185.66,229.39,185.48,229.34,185.36,229.14Zm.4-.24c-.09-.15-.19-.18-.28-.13s-.1.15,0,.3.19.18.27.13S185.84,229.05,185.76,228.9Z"/><path class="cls-4" d="M186,228.78c-.12-.2-.08-.38.07-.46s.32,0,.44.16a.32.32,0,0,1-.07.47C186.25,229,186.07,229,186,228.78Zm.4-.23c-.09-.15-.19-.18-.28-.13s-.1.15,0,.3.19.18.27.13S186.43,228.7,186.35,228.55Z"/><polygon class="cls-4" points="187.43 227.85 187.22 227.98 186.85 227.37 187.47 227 187.59 227.22 187.19 227.45 187.43 227.85"/><polygon class="cls-4" points="188.31 228.41 187.69 228.78 187.33 228.17 187.54 228.04 187.78 228.44 188.18 228.2 188.31 228.41"/><polygon class="cls-4" points="189.28 227.84 188.67 228.2 188.54 227.99 188.94 227.75 188.7 227.35 188.92 227.22 189.28 227.84"/><polygon class="cls-4" points="188.81 227.03 188.59 227.16 188.36 226.76 187.96 227 187.83 226.79 188.44 226.42 188.81 227.03"/><path class="cls-4" d="M163.63,202.7s.09-.08.31-.22.52-.35.92-.59l.06,0,0,.06c.29.47.62,1,1,1.6l.11.18-.2-.05-.27-.07-.69-.18.1,0-.32,1-.05.16-.08-.14c-.29-.5-.52-.92-.68-1.21a2.37,2.37,0,0,1-.21-.44s.12.17.3.44l.72,1.13-.14,0,.3-1,0-.08.07,0,.69.17.27.07-.09.13-.95-1.62.1,0-.92.51Z"/><path class="cls-4" d="M168.41,200.13s0,.2-.08.58-.15.95-.27,1.6l0,.21-.11-.19c-.15-.25-.32-.51-.48-.79l-.05-.08.06,0-.89-.21-.2,0,.18-.1c.55-.32,1.05-.58,1.38-.75a3.74,3.74,0,0,1,.5-.26l-.54.35c-.32.21-.75.49-1.26.8l0-.15.88.2h0l0,0,.05.08.47.8-.15,0c.12-.61.25-1.12.34-1.51S168.4,200.15,168.41,200.13Z"/><path class="cls-4" d="M168.41,200.13s-.15.34-.41.69a2.2,2.2,0,0,1-.54.6s.14-.34.4-.7S168.37,200.1,168.41,200.13Z"/><path class="cls-4" d="M170.56,198.58a.53.53,0,0,1,.23-.13,1,1,0,0,1,.72,0,1.15,1.15,0,0,1,.69.82,1.12,1.12,0,0,1-1.82,1.07,1.09,1.09,0,0,1,0-1.63c.13-.11.23-.14.23-.13s-.07.06-.18.18a1,1,0,0,0-.26.6,1,1,0,0,0,1.46.94,1,1,0,0,0,.46-1,1,1,0,0,0-.58-.73,1,1,0,0,0-.65-.06A2.31,2.31,0,0,1,170.56,198.58Z"/><path class="cls-4" d="M171.63,199.68a1.37,1.37,0,0,1-.63-.07h0l0,0h0c-.18-.3-.29-.56-.25-.59s.22.2.4.5h0l-.05,0C171.37,199.53,171.64,199.63,171.63,199.68Z"/><path class="cls-4" d="M149.48,212.75s-6.14,3.74-13.77,8.27-13.83,8.17-13.86,8.13,6.14-3.74,13.78-8.28S149.46,212.7,149.48,212.75Z"/><circle class="cls-4" cx="119.46" cy="230.57" r="1.27"/><rect class="cls-11" x="51.71" y="223.02" width="70" height="43.38" rx="7.87" transform="translate(-130.34 102.26) rotate(-37.21)"/><circle class="cls-12" cx="87.07" cy="245.18" r="5.33"/><path class="cls-4" d="M87,247.2l-1.9-2.5a.2.2,0,0,1,.13-.32l3.2-.44a.2.2,0,0,1,.21.28l-1.3,2.94A.2.2,0,0,1,87,247.2Z"/><path class="cls-4" d="M72.13,276.77l.07.09-.42.32,0-.07.06-.39c0-.1,0-.14,0-.17s-.09-.05-.16,0a.19.19,0,0,0-.09.16h-.12a.33.33,0,0,1,.15-.26c.12-.09.25-.09.32,0a.27.27,0,0,1,0,.25l0,.26Z"/><path class="cls-4" d="M72,276.44a.08.08,0,0,1,0-.12.09.09,0,0,1,.12,0,.08.08,0,0,1,0,.12A.08.08,0,0,1,72,276.44Zm.24.31a.08.08,0,0,1,0-.12.08.08,0,0,1,.11,0,.09.09,0,0,1,0,.12A.08.08,0,0,1,72.21,276.75Z"/><path class="cls-4" d="M72.22,275.94l.43.57-.1.08-.37-.48-.12.09-.06-.09Z"/><path class="cls-4" d="M73.18,275.91l-.1.08.09.13-.1.08-.1-.13-.31.23,0-.07v-.58l.11-.09v.56l.19-.15-.09-.11.1-.08.09.12.1-.08Z"/><rect class="cls-4" x="68.49" y="258.56" width="54.21" height="0.25" transform="translate(-136.98 110.48) rotate(-37.21)"/><rect class="cls-12" x="72.21" y="269.6" width="16.94" height="0.66" transform="translate(-146.82 103.75) rotate(-37.21)"/><path class="cls-12" d="M87.9,264.52a.82.82,0,1,1-1.31,1,.82.82,0,0,1,1.31-1Z"/><path class="cls-4" d="M118.27,241.46a.24.24,0,0,1-.07.34.3.3,0,0,1-.46-.09.34.34,0,0,1,.05-.52.44.44,0,0,1,.17-.08l0,.11a.31.31,0,0,0-.13.06.21.21,0,0,0,0,.33h0a.25.25,0,0,1,.11-.18A.23.23,0,0,1,118.27,241.46Zm-.1.08a.13.13,0,0,0-.19,0,.13.13,0,0,0,0,.19c0,.05.11.06.19,0A.12.12,0,0,0,118.17,241.54Z"/><path class="cls-4" d="M118.17,241.22a.08.08,0,0,1,.13-.1.09.09,0,0,1,0,.12A.08.08,0,0,1,118.17,241.22Zm.24.31a.06.06,0,0,1,0-.11.08.08,0,0,1,.12,0,.08.08,0,0,1,0,.12A.07.07,0,0,1,118.41,241.53Z"/><path class="cls-4" d="M118.44,241.16c-.14-.19-.12-.37,0-.47s.32-.08.46.11a.31.31,0,0,1,0,.47A.32.32,0,0,1,118.44,241.16Zm.37-.28c-.11-.14-.21-.16-.29-.1s-.08.16,0,.3.21.16.29.1S118.91,241,118.81,240.88Z"/><path class="cls-4" d="M119,240.74a.31.31,0,0,1,0-.47.37.37,0,0,1,.44.59C119.31,241,119.13,240.93,119,240.74Zm.37-.28c-.1-.13-.2-.16-.28-.1s-.08.17,0,.3.21.16.28.1S119.46,240.6,119.35,240.46Z"/><polygon class="cls-4" points="120.35 239.65 120.16 239.8 119.72 239.23 120.29 238.8 120.44 239 120.07 239.28 120.35 239.65"/><polygon class="cls-4" points="121.28 240.11 120.72 240.54 120.29 239.97 120.48 239.82 120.76 240.19 121.14 239.91 121.28 240.11"/><polygon class="cls-4" points="122.19 239.42 121.62 239.85 121.47 239.66 121.84 239.38 121.56 239 121.76 238.85 122.19 239.42"/><polygon class="cls-4" points="121.63 238.68 121.43 238.83 121.15 238.46 120.78 238.74 120.63 238.54 121.19 238.11 121.63 238.68"/><path class="cls-4" d="M93.85,217.35s.09-.09.28-.25.49-.41.85-.69l0,0,0,0,1.14,1.48.13.17-.21,0-.27,0-.7-.1.09-.06-.21,1,0,.17-.1-.14c-.34-.46-.62-.85-.8-1.12a2,2,0,0,1-.27-.42l.35.41c.22.26.51.61.84,1l-.13,0,.19-1v-.08h.08l.7.09.28,0-.08.14L95,216.5l.09,0-.85.61A2.54,2.54,0,0,1,93.85,217.35Z"/><path class="cls-4" d="M98.31,214.26a5.24,5.24,0,0,1,0,.59c0,.38,0,1-.08,1.62l0,.21-.13-.17-.56-.74-.06-.07.06,0-.91-.11-.2,0,.16-.12c.52-.39,1-.7,1.29-.91l.47-.31s-.2.17-.49.41-.69.57-1.17.94l0-.15.91.1h0l0,0,0,.07.56.74-.15,0c.06-.61.13-1.14.18-1.53S98.3,214.28,98.31,214.26Z"/><path class="cls-4" d="M98.31,214.26a3.91,3.91,0,0,1-.8,1.39,1.86,1.86,0,0,1,.32-.74A2,2,0,0,1,98.31,214.26Z"/><path class="cls-4" d="M100.27,212.48a.53.53,0,0,1,.21-.16,1,1,0,0,1,.72-.07,1.08,1.08,0,0,1,.77.73,1.12,1.12,0,0,1-.38,1.23,1.15,1.15,0,0,1-1.3,0,1.09,1.09,0,0,1-.49-.94,1,1,0,0,1,.26-.67c.12-.13.21-.17.21-.16s-.06.07-.16.2a1,1,0,0,0-.19.63,1,1,0,0,0,.46.81,1,1,0,0,0,1.44-1.1,1,1,0,0,0-.65-.66,1.1,1.1,0,0,0-.66,0C100.36,212.43,100.28,212.49,100.27,212.48Z"/><path class="cls-4" d="M101.46,213.45a1.46,1.46,0,0,1-.64,0h0l0,0h0c-.21-.28-.35-.53-.32-.56s.24.18.46.46h0l-.06,0C101.19,213.33,101.46,213.4,101.46,213.45Z"/><path class="cls-4" d="M80.94,228.94s-5.68,4.42-12.75,9.79-12.82,9.68-12.84,9.65S61,244,68.09,238.59,80.91,228.9,80.94,228.94Z"/><circle class="cls-4" cx="53.13" cy="250.06" r="1.27"/><rect class="cls-1" x="47.29" y="247.21" width="55" height="47"/><rect class="cls-13" x="101.95" y="234.21" width="88.69" height="61"/><rect class="cls-8" x="128.79" y="276.71" width="41" height="6"/><rect class="cls-1" x="130.79" y="275.71" width="36" height="7"/><rect class="cls-14" x="137.79" y="252.71" width="24" height="17"/><polygon class="cls-1" points="147.79 258.21 147.79 264.21 152.29 261.21 147.79 258.21"/></g></svg>