<svg id="ilustracion_recuerda" data-name="ilustracion recuerda" xmlns="http://www.w3.org/2000/svg" viewBox="0 0 196 329"><defs><style>.cls-1{fill:#253d45;}.cls-13,.cls-2{fill:#385b64;}.cls-10,.cls-14,.cls-16,.cls-3,.cls-5,.cls-6{fill:none;}.cls-13,.cls-16,.cls-3,.cls-5,.cls-6{stroke:#253d45;}.cls-10,.cls-14,.cls-3,.cls-5,.cls-6,.cls-8,.cls-9{stroke-miterlimit:10;}.cls-4{fill:#fff;}.cls-5{stroke-linecap:round;}.cls-6{stroke-width:0.75px;}.cls-7{fill:#1c3238;}.cls-8{fill:#ecedea;}.cls-10,.cls-8,.cls-9{stroke:#d1d4d3;}.cls-9{fill:#f6f6f6;}.cls-11{fill:#e47663;}.cls-12{fill:#ff735d;}.cls-13,.cls-16{stroke-linejoin:bevel;}.cls-14{stroke:#385b64;}.cls-15{fill:#2f4d55;}.cls-17{fill:#fffffe;}</style></defs><polygon class="cls-1" points="8.07 7.79 44.07 7.79 45.07 321.79 8.07 320.79 8.07 7.79"/><polygon class="cls-2" points="44.07 7.79 142.07 7.79 142.07 320.79 45.07 321.79 44.07 7.79"/><rect class="cls-3" x="49" y="28" width="88" height="62"/><rect class="cls-1" x="76" y="66" width="36" height="8"/><rect class="cls-4" x="85" y="39" width="22" height="18"/><path class="cls-5" d="M85.78,56.56A16.51,16.51,0,0,0,87.91,54l5.19-7.24c.2-.29.48-.61.83-.57s.49.31.65.55l2.32,3.66a1.93,1.93,0,0,0,.86.88c1.38.55,2.63-2.11,4-1.43a2.14,2.14,0,0,1,.73.84,11.21,11.21,0,0,0,3.8,3.73"/><circle class="cls-6" cx="99" cy="45" r="2.5"/><rect class="cls-7" x="48" y="95" width="89" height="60"/><path class="cls-8" d="M95.36,132.8l-28.72,7.09a5.63,5.63,0,0,1-6.77-4.2L49.6,94.13a5.63,5.63,0,0,1,4-6.87l20-5L91.46,93.86l7.93,32.06A5.64,5.64,0,0,1,95.36,132.8Z"/><path class="cls-9" d="M73.15,82.77l2.66,10.77a4,4,0,0,0,4.83,3l10.51-2.6a.38.38,0,0,0,.1-.7L73.7,82.35A.37.37,0,0,0,73.15,82.77Z"/><path class="cls-10" d="M58.41,97.82C64.15,96.4,68,95.39,73.78,94"/><path class="cls-10" d="M61.83,110.25l22.91-5.71"/><line class="cls-10" x1="64.27" y1="116.52" x2="87.02" y2="110.89"/><line class="cls-10" x1="88.55" y1="117.78" x2="71.61" y2="121.97"/><line class="cls-10" x1="90.69" y1="123.6" x2="67.78" y2="129.27"/><line class="cls-10" x1="59.6" y1="104.31" x2="84.06" y2="98.26"/><rect class="cls-11" x="50.52" y="119.16" width="28.04" height="11.76" rx="4.09" transform="translate(-28.12 19.14) rotate(-13.89)"/><rect class="cls-12" x="50.08" y="118.68" width="27.74" height="11.76" rx="4.09" transform="translate(-28.03 18.99) rotate(-13.89)"/><path class="cls-4" d="M59.15,127.21l.43,1.74-1.2.3-1.23-5,1.94-.48a2,2,0,0,1,1.46.1,1.63,1.63,0,0,1,.76,1.07,1.87,1.87,0,0,1,0,.88,1.44,1.44,0,0,1-.48.72,2.12,2.12,0,0,1-.94.45Zm.94-1.93c-.11-.44-.41-.6-.89-.48l-.61.15.32,1.3.61-.16Q60.24,125.91,60.09,125.28Z"/><path class="cls-4" d="M66.58,126a2.2,2.2,0,0,1-.68,1.1,2.91,2.91,0,0,1-1.3.66l-1.87.46-1.23-5,1.87-.46a3,3,0,0,1,1.46,0,2.17,2.17,0,0,1,1.11.65,2.62,2.62,0,0,1,.64,1.21A2.69,2.69,0,0,1,66.58,126Zm-1.35.07a1.65,1.65,0,0,0-.52-2.1,1.6,1.6,0,0,0-1.18-.1L63,124l.7,2.84.57-.14A1.59,1.59,0,0,0,65.23,126Z"/><path class="cls-4" d="M69.89,121.13l.23,1-2,.5.27,1.09,1.58-.39.22.91-1.57.39.5,2-1.21.3-1.22-5Z"/><path class="cls-8" d="M112.9,133.4l-28.84-6.56A5.64,5.64,0,0,1,79.9,120l9.5-41.75A5.63,5.63,0,0,1,96.09,74l20.09,4.57,10.74,18.33-7.33,32.21A5.63,5.63,0,0,1,112.9,133.4Z"/><path class="cls-9" d="M115.54,78.73l-2.46,10.82a4,4,0,0,0,3,4.85l10.56,2.4a.38.38,0,0,0,.4-.58L116.22,78.61A.37.37,0,0,0,115.54,78.73Z"/><path class="cls-10" d="M95.61,85.55c5.77,1.31,9.7,2.16,15.47,3.47"/><path class="cls-10" d="M93.09,98.19l23,5.2"/><line class="cls-10" x1="92.45" y1="104.89" x2="115.3" y2="110.09"/><line class="cls-10" x1="113.56" y1="116.93" x2="96.55" y2="113.06"/><line class="cls-10" x1="112.87" y1="123.09" x2="89.85" y2="117.86"/><line class="cls-10" x1="93.76" y1="91.88" x2="118.33" y2="97.48"/><rect class="cls-11" x="74.83" y="106.74" width="28.04" height="11.76" rx="4.09" transform="translate(27.2 -16.91) rotate(12.82)"/><rect class="cls-12" x="74.68" y="106.05" width="27.74" height="11.76" rx="4.09" transform="translate(27.04 -16.86) rotate(12.82)"/><path class="cls-4" d="M83.07,112.14l-.4,1.75-1.21-.28,1.14-5,2,.45a1.89,1.89,0,0,1,1.25.75,1.57,1.57,0,0,1,.2,1.29,1.62,1.62,0,0,1-.4.78,1.43,1.43,0,0,1-.74.44,2.34,2.34,0,0,1-1,0Zm1.7-1.31c.1-.43-.09-.71-.58-.82l-.61-.14-.29,1.3.61.14Q84.62,111.48,84.77,110.83Z"/><path class="cls-4" d="M90.28,114.35a2.29,2.29,0,0,1-1.11.68,2.88,2.88,0,0,1-1.46,0l-1.88-.43,1.13-5,1.89.43a3.11,3.11,0,0,1,1.32.62,2.33,2.33,0,0,1,.7,1.08,2.75,2.75,0,0,1,0,1.37A2.85,2.85,0,0,1,90.28,114.35ZM89,113.81a1.44,1.44,0,0,0,.64-1,1.41,1.41,0,0,0-.16-1.14,1.59,1.59,0,0,0-1-.62l-.57-.13-.65,2.85.57.13A1.54,1.54,0,0,0,89,113.81Z"/><path class="cls-4" d="M95.39,111.53l-.22,1-2-.46-.24,1.09,1.58.36-.21.92L92.67,114l-.46,2L91,115.78l1.14-5Z"/><path class="cls-8" d="M154.54,125.57l-29.36,3.59a5.64,5.64,0,0,1-6.22-5l-5.19-42.5a5.62,5.62,0,0,1,4.83-6.33l20.45-2.5,16.31,13.61,4,32.78A5.64,5.64,0,0,1,154.54,125.57Z"/><path class="cls-9" d="M138.51,73.23l1.35,11a4,4,0,0,0,4.43,3.55L155,86.49a.39.39,0,0,0,.19-.68L139.11,72.89A.37.37,0,0,0,138.51,73.23Z"/><path class="cls-10" d="M122.07,86.4c5.87-.72,9.86-1.25,15.73-2"/><path class="cls-10" d="M124,99.15l23.43-2.9"/><line class="cls-10" x1="125.64" y1="105.67" x2="148.9" y2="102.82"/><line class="cls-10" x1="149.58" y1="109.84" x2="132.27" y2="111.96"/><line class="cls-10" x1="151.02" y1="115.88" x2="127.59" y2="118.74"/><line class="cls-10" x1="122.47" y1="92.98" x2="147.49" y2="89.93"/><rect class="cls-11" x="110.85" y="108.28" width="28.04" height="11.76" rx="4.09" transform="translate(-12.93 16) rotate(-6.97)"/><rect class="cls-12" x="110.48" y="107.73" width="27.74" height="11.76" rx="4.09" transform="translate(-12.87 15.93) rotate(-6.97)"/><path class="cls-4" d="M119.26,115.66l.22,1.78-1.23.15-.62-5.08,2-.24a2,2,0,0,1,1.44.28,1.61,1.61,0,0,1,.62,1.15,1.67,1.67,0,0,1-.11.87,1.43,1.43,0,0,1-.56.66,2.19,2.19,0,0,1-1,.34Zm1.17-1.8c-.06-.45-.33-.64-.82-.58l-.63.08.16,1.32.63-.08C120.26,114.54,120.48,114.29,120.43,113.86Z"/><path class="cls-4" d="M126.8,115.31a2.34,2.34,0,0,1-.81,1,2.91,2.91,0,0,1-1.37.49l-1.92.24-.62-5.08,1.92-.23a3,3,0,0,1,1.45.14,2.22,2.22,0,0,1,1,.78,2.68,2.68,0,0,1,.48,1.28A2.71,2.71,0,0,1,126.8,115.31Zm-1.35-.1a1.42,1.42,0,0,0,.26-1.12,1.38,1.38,0,0,0-.53-1,1.55,1.55,0,0,0-1.16-.24l-.58.07.35,2.9.59-.07A1.56,1.56,0,0,0,125.45,115.21Z"/><path class="cls-4" d="M130.66,110.92l.12,1-2.09.25.14,1.12,1.61-.2.11.93-1.61.2.25,2.06-1.22.15-.63-5.08Z"/><path class="cls-8" d="M175.6,129.52l-28.77-6.85a5.64,5.64,0,0,1-4.1-6.83l9.91-41.66a5.63,5.63,0,0,1,6.73-4.26l20,4.77L190,93.12l-7.64,32.13A5.64,5.64,0,0,1,175.6,129.52Z"/><path class="cls-9" d="M178.77,74.87l-2.56,10.8a4,4,0,0,0,2.92,4.87l10.54,2.51a.38.38,0,0,0,.4-.58L179.46,74.76A.38.38,0,0,0,178.77,74.87Z"/><path class="cls-10" d="M158.78,81.5c5.75,1.37,9.68,2.25,15.43,3.62"/><path class="cls-10" d="M156.13,94.12l23,5.42"/><line class="cls-10" x1="155.43" y1="100.81" x2="178.23" y2="106.23"/><line class="cls-10" x1="176.43" y1="113.05" x2="159.46" y2="109.01"/><line class="cls-10" x1="175.67" y1="119.21" x2="152.71" y2="113.75"/><line class="cls-10" x1="156.87" y1="87.81" x2="181.39" y2="93.64"/><rect class="cls-11" x="137.74" y="102.62" width="28.04" height="11.76" rx="4.09" transform="translate(29.21 -32.16) rotate(13.37)"/><rect class="cls-12" x="137.59" y="101.93" width="27.74" height="11.76" rx="4.09" transform="translate(29.04 -32.11) rotate(13.37)"/><path class="cls-4" d="M146,108l-.42,1.75-1.2-.29,1.18-5,2,.46a1.94,1.94,0,0,1,1.25.76,1.6,1.6,0,0,1,.18,1.3,1.71,1.71,0,0,1-.4.78,1.54,1.54,0,0,1-.76.42,2.31,2.31,0,0,1-1,0Zm1.72-1.28c.1-.44-.09-.72-.57-.83l-.62-.15-.3,1.3.61.14C147.3,107.26,147.59,107.1,147.7,106.68Z"/><path class="cls-4" d="M153.17,110.25a2.26,2.26,0,0,1-1.12.67,3,3,0,0,1-1.45,0l-1.88-.45,1.18-5,1.88.45a3,3,0,0,1,1.31.64,2.24,2.24,0,0,1,.69,1.08,2.76,2.76,0,0,1,0,1.37A2.86,2.86,0,0,1,153.17,110.25Zm-1.24-.56a1.66,1.66,0,0,0,.5-2.1,1.56,1.56,0,0,0-1-.63l-.57-.14-.67,2.85.57.13A1.5,1.5,0,0,0,151.93,109.69Z"/><path class="cls-4" d="M158.31,107.48l-.23,1-2-.49-.26,1.09,1.57.38-.21.91-1.58-.37-.48,2-1.2-.28,1.18-5Z"/><rect class="cls-1" x="48.5" y="107.5" width="55" height="47"/><rect class="cls-13" x="103.16" y="94.5" width="88.69" height="61"/><rect class="cls-4" x="139.94" y="112.65" width="22.17" height="16.13"/><path class="cls-14" d="M144.33,116.86h4.54"/><path class="cls-14" d="M146.47,121.9c0-1.56,0-3.12,0-4.68"/><path class="cls-14" d="M151,120.64h7.34"/><path class="cls-14" d="M145,124.39h13.57"/><path class="cls-14" d="M151.1,117.19h7"/><rect class="cls-4" x="83.94" y="179.65" width="22.17" height="16.13"/><path class="cls-14" d="M88.33,183.86h4.54"/><path class="cls-14" d="M90.47,188.9c0-1.56,0-3.12,0-4.68"/><path class="cls-14" d="M95,187.64h7.34"/><path class="cls-14" d="M89,191.39h13.57"/><path class="cls-14" d="M95.1,184.19h7"/><rect class="cls-15" x="132" y="136" width="41" height="6"/><rect class="cls-15" x="74" y="203" width="41" height="6"/><rect class="cls-15" x="75" y="270" width="41" height="6"/><rect class="cls-16" x="49.5" y="163.5" width="86" height="62"/><rect class="cls-16" x="49.5" y="230.5" width="87" height="63"/><rect class="cls-1" x="77" y="269" width="36" height="7"/><rect class="cls-17" x="84" y="246" width="24" height="17"/><polygon class="cls-1" points="94 251.5 94 257.5 98.5 254.5 94 251.5"/><rect class="cls-3" x="49.5" y="163.5" width="86" height="61"/><rect class="cls-3" x="49.5" y="230.5" width="87" height="63"/></svg>