<svg xmlns="http://www.w3.org/2000/svg" viewBox="0 0 147 329"><defs><style>.cls-1{fill:#253d45;}.cls-2{fill:#385b64;}.cls-3,.cls-5,.cls-6,.cls-7{fill:none;stroke-miterlimit:10;}.cls-3,.cls-5,.cls-6{stroke:#253d45;}.cls-4{fill:#fff;}.cls-5{stroke-linecap:round;}.cls-6{stroke-width:0.75px;}.cls-7{stroke:#385b64;}.cls-8{fill:#2f4d55;}.cls-9{fill:#fffffe;}</style></defs><g id="CAJON"><polygon class="cls-1" points="5.86 7.5 41.86 7.5 42.86 321.5 5.86 320.5 5.86 7.5"/><polygon class="cls-2" points="41.86 7.5 139.86 7.5 139.86 320.5 42.86 321.5 41.86 7.5"/><rect class="cls-3" x="46.79" y="27.71" width="86.71" height="62"/><rect class="cls-1" x="73.79" y="65.71" width="36" height="8"/><rect class="cls-4" x="82.79" y="38.71" width="22" height="18"/><path class="cls-5" d="M83.57,56.28a16.59,16.59,0,0,0,2.13-2.59l5.19-7.24c.2-.29.48-.61.83-.57s.49.31.65.56l2.32,3.66a2,2,0,0,0,.86.88c1.39.54,2.63-2.11,4-1.43a2,2,0,0,1,.73.84,11.39,11.39,0,0,0,3.8,3.73"/><circle class="cls-6" cx="96.79" cy="44.71" r="2.5"/><rect class="cls-4" x="81.73" y="179.37" width="22.17" height="16.13"/><path class="cls-7" d="M86.12,183.58h4.54"/><path class="cls-7" d="M88.26,188.62c0-1.56,0-3.12,0-4.68"/><path class="cls-7" d="M92.82,187.36h7.34"/><path class="cls-7" d="M86.77,191.11h13.57"/><path class="cls-7" d="M92.89,183.9h7"/><rect class="cls-8" x="71.79" y="202.71" width="41" height="6"/><rect class="cls-8" x="72.79" y="269.71" width="41" height="6"/><rect class="cls-1" x="74.79" y="268.71" width="36" height="7"/><rect class="cls-9" x="81.79" y="245.71" width="24" height="17"/><polygon class="cls-1" points="91.79 251.21 91.79 257.21 96.29 254.21 91.79 251.21"/><rect class="cls-3" x="47.29" y="163.21" width="86" height="61"/><rect class="cls-3" x="47.29" y="230.21" width="85.21" height="63"/><rect class="cls-3" x="46.5" y="95.71" width="87" height="60"/><rect class="cls-4" x="80.73" y="110.37" width="22.17" height="16.13"/><path class="cls-7" d="M85.12,114.58h4.54"/><path class="cls-7" d="M87.26,119.62c0-1.56,0-3.12,0-4.68"/><path class="cls-7" d="M91.82,118.36h7.34"/><path class="cls-7" d="M85.77,122.11H99.34"/><path class="cls-7" d="M91.89,114.9h7"/><rect class="cls-8" x="70.79" y="133.71" width="41" height="6"/></g></svg>