<svg xmlns="http://www.w3.org/2000/svg" xmlns:xlink="http://www.w3.org/1999/xlink" viewBox="0 0 768 700"><defs><style>.cls-1,.cls-3,.cls-6,.cls-7,.cls-8,.cls-9{fill:none;}.cls-2,.cls-4,.cls-5{fill:#302541;}.cls-2,.cls-3,.cls-4,.cls-5,.cls-6,.cls-7,.cls-8,.cls-9{stroke:#302541;}.cls-2,.cls-3,.cls-5,.cls-6,.cls-8{stroke-linecap:round;}.cls-2,.cls-3,.cls-5,.cls-8{stroke-linejoin:round;}.cls-3,.cls-5,.cls-6,.cls-9{stroke-width:2px;}.cls-4,.cls-6,.cls-7,.cls-9{stroke-miterlimit:10;}.cls-10{fill:#9facda;}.cls-11{opacity:0.42;fill:url(#motivo_espororicosis);}</style><pattern id="motivo_espororicosis" data-name="motivo espororicosis" width="756.13" height="457.37" patternTransform="translate(234.76 -1.5) scale(0.97 1)" patternUnits="userSpaceOnUse" viewBox="0 0 756.13 457.37"><rect class="cls-1" width="756.13" height="457.37"/><path class="cls-2" d="M148.1,65.61a11.76,11.76,0,0,1-3-2.06,10.31,10.31,0,0,1-2.26-5.43,9.27,9.27,0,0,1-.09-3.67A3.67,3.67,0,0,1,145,51.71a4.07,4.07,0,0,1,2.86.28,7.08,7.08,0,0,1,3.18,2.8,11,11,0,0,1,1.09,2.71c.63,2.25,1.49,5.68.87,8C152.23,68.37,150,66.63,148.1,65.61Z"/><path class="cls-2" d="M159.13,54.53c-1.32,1-1.67,2.86-1.77,4.53a24.88,24.88,0,0,0,.27,5.17,4.68,4.68,0,0,0,1.66,3.34,1.57,1.57,0,0,0,1,.28,2,2,0,0,0,.79-.31c2.45-1.39,4.87-3.25,5.71-5.93C168.14,57.31,163.76,50.91,159.13,54.53Z"/><path class="cls-2" d="M176.39,61.51a3.77,3.77,0,0,1,4.7.4,11.36,11.36,0,0,1,3.74,3.24,3.94,3.94,0,0,1,0,4.64c-1,1.08-2.6,1.26-4.06,1.36a16.69,16.69,0,0,1-5.42-.21c-2-.53-5.45-2.26-5.56-4.7C169.63,63.51,174.42,62.43,176.39,61.51Z"/><path class="cls-2" d="M128.36,69.56c-1.34.09-2.83.39-3.55,1.51a4,4,0,0,0-.4,2.66,6.87,6.87,0,0,0,2.55,5,8.13,8.13,0,0,0,3.49,1.1c3,.43,11.75.92,8.82-4.35A11.11,11.11,0,0,0,128.36,69.56Z"/><path class="cls-2" d="M148.91,91a9.16,9.16,0,0,1-.13,1.57c-.19.79-.7,1.49-.83,2.29-.29,1.71,1.2,3.17,2.62,4.17A6,6,0,0,0,154,100.4a.92.92,0,0,0,.52-.14,1.09,1.09,0,0,0,.31-.54,5.22,5.22,0,0,0,.38-2.2,5.93,5.93,0,0,0-1.81-3,3.76,3.76,0,0,1-1.25-3.15,5.68,5.68,0,0,1,1.28-2c1.29-1.7.49-3.19-1.51-2.66C150.13,87.23,149,89.26,148.91,91Z"/><path class="cls-2" d="M160.49,91.05a14.42,14.42,0,0,0,7.57,1.65,4.21,4.21,0,0,0,3.31-1.17,3,3,0,0,0-.77-4c-2.31-1.85-7-1.28-9.76-1.14C157.73,86.57,158,89.62,160.49,91.05Z"/><path class="cls-2" d="M154.71,71.47c1.75-.37,3.11,1.65,4.88,2,1.95.35,3.6-1.43,5.51-2a6.23,6.23,0,0,1,4.86,1,5.79,5.79,0,0,1,2.3,2.43,4.06,4.06,0,0,1-3.38,5.71c-1.43.12-2.82-.52-4.25-.57-2.37-.08-4.68,1.46-7,1s-3.61-2.67-4.55-4.61C152.29,74.79,152.5,71.94,154.71,71.47Z"/><path class="cls-2" d="M138.26,17.3c1.68-.09,3.51,0,4.82,1a6.84,6.84,0,0,1,2,3.71c.43,1.66.7,3.55-.23,5-1.05,1.64-3.22,2.08-5.15,2.37a7.28,7.28,0,0,1-3.77-.12c-1.61-.67-2.8-3.16-4.54-3-3.54.36-8.55,5.88-1.42-2.47.6-.71,1.29-.92,1.81-1.5A18.32,18.32,0,0,0,133.24,20,5.58,5.58,0,0,1,138.26,17.3Z"/><path class="cls-3" d="M84.64,10.33c4.89-2.05,10.69.17,15.71-1.53,2.72-.92,5.18-3,8.06-2.84,3.54.18,6,3.63,7.16,7s1.56,7.06,3.62,10c2.43,3.42,6.8,5.16,8.92,8.78,2,3.42,1.55,7.7,2.59,11.52,1.39,5.12,5.38,9.18,7.1,14.19,1.31,3.83,1.29,8.19,3.54,11.55,1.47,2.21,3.84,3.84,4.72,6.34s.05,5.24.18,7.88,2.15,5.7,4.72,5.08"/><path class="cls-3" d="M138.5,78c4.38-1.67,9.72,1.38,13.83-.87"/><path class="cls-2" d="M104.69,21.23a4.72,4.72,0,0,0,1.2,3.68,4.5,4.5,0,0,0,2.39,1c5.22.81,10.27-4.34,7-9.41C111.85,11.07,104.79,16.24,104.69,21.23Z"/><path class="cls-2" d="M79.91,14.91a10.21,10.21,0,0,1-4.38-1.1,5.17,5.17,0,0,1-2.67-3.49,2.49,2.49,0,0,1,.24-1.7A2.53,2.53,0,0,1,76,7.78a11.52,11.52,0,0,1,2.82,1.57c1.26.79,7.6,1.75,8,2.81C87.56,14.53,81.1,15,79.91,14.91Z"/><path class="cls-3" d="M150,98.45c-8,7.64-23.43,9.42-34.13,12.14-12.27,3.12-23.24,11-35.84,12.13"/><path class="cls-3" d="M153.51,101.28c3.17,2.52,2.56,7.61,4.92,10.9,1.7,2.37,4.64,3.42,7.16,4.9,6.34,3.74,10.22,10.57,12.84,17.46s4.3,14.16,7.71,20.69c2.78,5.33,7.81,10.66,4.3,16.44-3.06,5-9.15,10.68-13.74,14.34-4.92,3.93-10.64,6.72-16.44,9.16A175.33,175.33,0,0,1,29.1,196.6,65.87,65.87,0,0,0,18,192.81c-4-.81-8.38-.66-12,1.28"/><path class="cls-3" d="M229.22,89.84c-.15,11.88.37,27.44.23,39.32a62.6,62.6,0,0,1-.83,11.28c-.93,4.76-3,9.41-2.62,14.24.11,1.51.42,3.2-.52,4.39a5,5,0,0,1-2.52,1.41c-9.16,3-21.39,5.44-30.75,7.69"/><path class="cls-3" d="M41.47,115c-1.55,3.08-3.13,6.24-3.57,9.66-.32,2.4-.06,4.88-.63,7.24-.61,2.56-2.15,4.78-3.17,7.21-2,4.8-1.94,10.19-1.82,15.39"/><path class="cls-3" d="M330,80.31c-2.44,11.06-4.52,22.9-.49,33.49,1.89,5,5.14,10,3.86,15.19-1.07,4.29-5.17,8.36-3.38,12.39"/><path class="cls-3" d="M494.31,41.64c-1.55-.33-.46,9.44-.07,11a110,110,0,0,1,3.23,28.57c-.1,5.51-.62,11,0,16.52,1.17,10.25,6.31,20.39,3.92,30.42"/><path class="cls-3" d="M559,138c2.4-6,7.49-10.44,12.4-14.64l8.4-7.18c8.21-7,16.5-14.1,26-19.32,2.93-1.63,13.95-2.81,16-.12"/><path class="cls-3" d="M374.6,168.11c.85,6.08-4.32,11.14-6.82,16.75-3.74,8.4-1.44,18.45-4.7,27-2.74,7.24-9,12.43-13.82,18.49S341,245,344.75,251.76"/><path class="cls-3" d="M392.75,148.37c9.68-2,21.69,4.29,31.53,3.3,9.21-.92,17.28-6.25,25.63-10.25,15.61-7.48,32.91-10.51,50-13.46"/><path class="cls-3" d="M635.46,146.65c-12.3.53-26.35,2.07-38.65,2.6-6.54.28-13.18.56-19.55-.95-9.85-2.34-18.34-8.78-28.17-11.16-13.45-3.26-34.53-1.95-46.17-9.43"/><path class="cls-3" d="M606.44,6.89c4,11,8.1,22.15,8.74,33.82.41,7.55-.63,15.15.16,22.67a93.17,93.17,0,0,0,3.5,15.68l11,38.9c1.42,5,2.85,10.39,1.3,15.38-1.11,3.59-3.64,6.54-5.62,9.74-11.8,19.12-5.71,51.92-9,74.14"/><path class="cls-3" d="M227.55,155.09a276.2,276.2,0,0,1,40.85-9.26c20.24-3,40.72-3.72,61.16-4.45,9.28-.34,18.72-.65,27.69,1.75"/><path class="cls-3" d="M617.44,39.24c7.22-6.33,18.82-6.37,25-13.68,4.48-5.27,4.42-7.55,11-4,4.75,2.56,10.24,4.26,14.08,8.22a42.48,42.48,0,0,1,4.56,6.3,57.46,57.46,0,0,0,10.45,11.73c7.86,6.7,17.64,11.36,23.83,19.64"/><path class="cls-3" d="M667.26,4.8a19.46,19.46,0,0,0-7.57.15c-2.44.72-4.7,2.7-4.93,5.23-.12,1.31.27,2.79-.51,3.86s-2.73,1.16-3.8,2.17c-.52.5-.81,1.2-1.32,1.71s-2.87,3.61-3.34,3.07"/><path class="cls-3" d="M709.71,101.41a114.3,114.3,0,0,0-22.16-1.8,34.08,34.08,0,0,0-7.13.7,43.14,43.14,0,0,0-6.57,2.33,241.94,241.94,0,0,1-41.94,12.87"/><path class="cls-3" d="M530.46,237.88c4.6,1.09,12.31,2.18,16.91,3.27,7.6,1.79,15.31,3.6,23.12,3.44,5.33-.11,10.72-1.14,16-.18a74.75,74.75,0,0,1,8.36,2.47c7.82,2.42,11.92,2.74,20,1.33"/><path class="cls-3" d="M620,255.09c1.64,9.2.49,24.61,2.25,33.78a85,85,0,0,0,4.39,14c1.77,4.69,3.63,13,5.41,17.68"/><path class="cls-3" d="M698.69,303.91A105.5,105.5,0,0,0,673.07,313c-5.39,2.76-10.54,6-16.11,8.35s-11.69,3.86-17.67,2.92"/><path class="cls-3" d="M637.18,336c2.8,5.19,3.85,16.24,3.89,22.13,0,5.26-1.09,10.49-.85,15.75.5,11.23,7,21.16,12.54,30.95s10.43,21.14,7.45,32"/><path class="cls-3" d="M702.6,432.4c-3.67-2.8-10.71-7.57-15-9.21s-9.2-2.16-13.55-.62c-3.5,1.23-6.69,3.76-10.4,3.7"/><path class="cls-3" d="M616.53,324c-12.94-.95-23.55.73-36.33,3-5.64,1-11.25,2.27-17,2.74-5,.41-10,.19-15,.48-6.36.37-12.75,1.55-19.06.68-4.08-.57-8-2-12.07-2.68-9-1.53-18.64.44-27-3.15-4.44-1.91-8.12-5.24-12.41-7.48-7.77-4.07-16.92-4.27-25.69-4.24q-11.28,0-22.55.38c-6.19.19-12.62.51-18.11,3.39"/><path class="cls-3" d="M534.36,331.06a12.19,12.19,0,0,1,1,10.3,8.18,8.18,0,0,0-.73,2.57c0,.9-1.6,5.72-.72,5.84"/><path class="cls-3" d="M325.62,337.72c-11.19,5.32-28,8.7-40.36,8.79-.18,5.94,6.13,10,7.75,15.74,1.49,5.26-1.23,10.68-2.2,16.06-.51,2.82-.54,5.71-.86,8.56-.28,2.43-.78,4.83-1.3,7.22a372.53,372.53,0,0,1-13.08,45.76"/><path class="cls-3" d="M112.24,298.6c13.41,2.61,24.76,11.48,37.79,15.62s27.1,3.38,40,7.76c5,1.72,9.78,4.18,14.77,6,6.42,2.36,13.17,3.63,19.88,4.9l33.17,6.26c8.26,1.55,20.69,3.41,28.2,7.18"/><path class="cls-3" d="M94.1,299.91c-19.06-.06-37.81-4.37-56.38-8.67L8.49,284.48"/><path class="cls-3" d="M31.25,213.31c-3.83,23.67,4,52.92-1.71,76.21"/><path class="cls-3" d="M65.92,217.47c-9.23,13.8-13.06,30.81-12.35,47.41s5.75,32.79,13,47.72c2.42,5,5.14,10,5.79,15.51,1.38,11.69-6.65,22.19-10,33.49-4.85,16.63.68,35-4.58,51.55-1.89,5.9-5.07,12.46-2,17.86"/><path class="cls-3" d="M64.25,334.93c3.15-.77,6.45,0,9.65.58s6.71.8,9.48-.89c1.23-.74,2.21-1.82,3.37-2.66,4.19-3.06,11.64-3.36,16.81-2.85"/><path class="cls-3" d="M34.18,362.68c4.14-2.53,11.93,4.45,14.46-3.6,1.91-6.07,9.42-1.36,15.33,1"/><path class="cls-3" d="M104.47,329a12.28,12.28,0,0,1,8.33,8c.8,2.52.9,5.51,2.92,7.22"/><path class="cls-3" d="M110.44,299.85c8,5.77,24.62,26.42,26.38,36.08.54,3,.75,6,2,8.78,1.31,2.94,3.66,5.27,5.77,7.71,5.84,6.78,10,14.81,14.1,22.76,4,7.66,8,15.53,9.05,24.09.66,5.29.16,10.69.9,16,1.63,11.62,10.26,22.83,21,27.49"/><path class="cls-3" d="M177.58,370.43c-4.6-.22-14.34,1.93-18.94,1.72"/><path class="cls-3" d="M162.08,194.85c2-.25,5.4,2.51,6.49,4.18a15.11,15.11,0,0,1,1.84,5.64c.74,4,1.31,8.33-.52,12a17.88,17.88,0,0,0-1.78,3.62c-.31,1.31.17,3,1.47,3.36"/><path class="cls-3" d="M192.32,321.21a16,16,0,0,1,10-12.73c2.44-.91,5.67-1.86,5.83-4.46"/><path class="cls-2" d="M23.62,108.92a13.2,13.2,0,0,1-6.4-1.55A6.64,6.64,0,0,1,13.8,102a3.61,3.61,0,0,1,.74-2.36c1-1.18,2.73-1.33,4.26-1.16,2.38.27,4.86,1.21,6.16,3.22.73,1.13,1,2.5,1.79,3.61.92,1.36,2.71,1.78,3.55,3C29.08,109.48,25.28,109,23.62,108.92Z"/><path class="cls-2" d="M18.25,116c-1.38,1.14-2.08,3.31-1,4.75a4,4,0,0,0,2.13,1.37,8.54,8.54,0,0,0,8.47-2.08c.91-.91,1.6-2,2.57-2.85.66-.57,2.31-1.13,2.62-2,.46-1.38-.67-1.48-1.91-1.65C27.5,113,21.09,113.67,18.25,116Z"/><path class="cls-4" d="M24.69,94.81a15.06,15.06,0,0,1-4.12-6.64A20.14,20.14,0,0,1,20,84.54a1.93,1.93,0,0,1,0-.72,1.45,1.45,0,0,1,.5-.65,4.11,4.11,0,0,1,4.23-.3,9.24,9.24,0,0,1,3.29,3c1.8,2.39,4.7,7.21,3.63,10.38C30.34,100.31,26.38,96.48,24.69,94.81Z"/><path class="cls-4" d="M36.66,80.79a9.54,9.54,0,0,1,.39-3.91,4.43,4.43,0,0,1,2.65-2.76c2.09-.67,4.27.76,5.77,2.36a11.34,11.34,0,0,1,2.94,5A6.19,6.19,0,0,1,47.24,87c-1.56,1.76-4.45,2.59-4.82,4.91-.34,2.09,1.75,4,1.39,6.12a2.11,2.11,0,0,1-2.62-.69,6.05,6.05,0,0,1-1-2.76C39.32,89.89,37,85.55,36.66,80.79Z"/><path class="cls-2" d="M50.87,87.63a2.24,2.24,0,0,1,.67-.73,2.21,2.21,0,0,1,1.08-.22c2.35-.06,5,.13,6.6,1.83a8.48,8.48,0,0,1,1.39,2.22A10.07,10.07,0,0,1,61.7,94a4.07,4.07,0,0,1-1,3.24,6.18,6.18,0,0,1-3.15,1.35c-2.49.53-7.79,2.62-9.64-.25S49.22,90.09,50.87,87.63Z"/><path class="cls-5" d="M63.3,120.41a1.54,1.54,0,0,0,0-1.25C62.87,118,60.05,117,59,116.59a29.93,29.93,0,0,0-9.82-1.89,4.36,4.36,0,0,0-2.78.58,3,3,0,0,0-1,2.87,7.59,7.59,0,0,0,1.26,2.92,8.49,8.49,0,0,0,2.29,2.62,9.86,9.86,0,0,0,4.22,1.24,10.62,10.62,0,0,0,3.51.08c2.67-.55,4.17-3,6.58-4a10.29,10.29,0,0,1,7.33.15c1.14.53,2.07,1.43,3.23,1.92a10.17,10.17,0,0,0,4.08.5"/><path class="cls-2" d="M74.78,111.44a24.37,24.37,0,0,0,.13-4.59,10.12,10.12,0,0,0-2.21-4.16A3.41,3.41,0,0,0,70.37,101c-1.13,0-2,1-2.4,2.09-1,2.49-.52,5.28,0,7.91.5,2.79,1.28,6,3.81,7.26,2,1,2.32,3.79,5.28,3.36a4.22,4.22,0,0,0,3.24-3c.49-1.8-.15-2.39-1.71-2.91C76.14,114.93,74.75,114.41,74.78,111.44Z"/><path class="cls-2" d="M70,118.25c-1.53.19-6.12-4.66-7.07-5.88A5.42,5.42,0,0,1,62,108c.43-2,1.85-3.89,1.19-5.78a.83.83,0,0,0-.29-.46,1,1,0,0,0-.62-.11,15.85,15.85,0,0,0-6.39,1,7.92,7.92,0,0,0-3.29,2.86,4.6,4.6,0,0,0-.81,2.06c-.22,2.22,1.76,4,3.69,5.11a48.22,48.22,0,0,0,7.42,3.19l6.24,2.29"/><path class="cls-2" d="M64.83,121.69l-15.66,6.42a4.32,4.32,0,0,0-1.47.85c-1,1-.79,2.54-.4,3.84a4.43,4.43,0,0,0,1.91,2.82,4.65,4.65,0,0,0,2.54.31,28,28,0,0,0,7.56-1.69,4.94,4.94,0,0,0,2.26-1.42,5.4,5.4,0,0,0,.79-2.92l.27-3.83c.07-1,0-2.95.69-3.74"/><path class="cls-2" d="M78.6,125.13c-2.22.06-8.45,2.6-9.71,4.42a3.38,3.38,0,0,1-.7.85,2.86,2.86,0,0,1-1.45.36,5.31,5.31,0,0,0-3.95,1.67,6,6,0,0,0-.72,3.94l.15,3.16a4.21,4.21,0,0,0,.18,1.23,2.73,2.73,0,0,0,3.14,1.44,6.6,6.6,0,0,0,3.12-2,13.54,13.54,0,0,1,2.84-2.46c1-.57,2.31-.82,3.08-1.72a4.3,4.3,0,0,0,.71-3.24,13.94,13.94,0,0,1-.23-3.4,4.54,4.54,0,0,1,2.86-3.54"/><path class="cls-2" d="M64.83,144.07c-.2-.13-5.43-5.09-5.65-5-2.17.67-4.43,1.64-5.64,3.57a6,6,0,0,0-.45,5.25,7,7,0,0,0,3.74,3.8,10.8,10.8,0,0,0,2.86.71,7.88,7.88,0,0,0,4.51-.6A5.2,5.2,0,0,0,66.85,148c.23-1.58-.88-2.83-2-3.94"/><path class="cls-2" d="M75.15,138.9a68.45,68.45,0,0,0-6,8.83,8.39,8.39,0,0,0-.71,1.82,6.87,6.87,0,0,0,.1,3,8.14,8.14,0,0,0,2.82,4.83,4.79,4.79,0,0,0,5.35.4c1.77-1.16,2.27-3.51,2.58-5.61.45-3,.7-6.47-1.4-8.66-.71-.75-1.64-1.27-2.34-2a2.44,2.44,0,0,1-.52-2.84"/><path class="cls-3" d="M39.29,112.82l-3.87-7.58a59.06,59.06,0,0,1-3.15-6.87"/><path class="cls-3" d="M38.74,90.28A4,4,0,0,0,34,93.16"/><path class="cls-3" d="M42.37,113.49a2.73,2.73,0,0,0,1.77.87,3.4,3.4,0,0,0,2.54-.4,3.62,3.62,0,0,0,1.21-3.21,28.81,28.81,0,0,1-.3-3.57,2.36,2.36,0,0,1,.3-1.08c.41-.63,1.23-.85,1.79-1.35a2.25,2.25,0,0,0,.68-2.18c-2.28-1.51-4.82-3.06-7.1-4.58-2-1.32-4.14-2.87-4.67-5.2"/><path class="cls-2" d="M10,183a5.11,5.11,0,0,1-1.94-.32c-.91-.41-1.51-1.33-2.4-1.79a3.77,3.77,0,0,1-1-.57,2.14,2.14,0,0,1-.49-.9,12.51,12.51,0,0,1-.57-5.29.64.64,0,0,1,.15-.41.66.66,0,0,1,.48-.13l7.09,0a2.61,2.61,0,0,1,1.33.24c1.36.83,3.52,5.5,3.41,7.17C15.83,183.85,12.07,183,10,183Z"/><path class="cls-2" d="M6.37,166.35a10.78,10.78,0,0,1-.71-4.63c0-1.52.07-3.2,1.12-4.3a4.46,4.46,0,0,1,3.4-1.14c2.7.1,5.14,1.57,7.38,3.07a8,8,0,0,1,3.23,3.22,5.9,5.9,0,0,1-.21,4.6,16.48,16.48,0,0,1-2.92,4.92c-1.43,1.38-2.06.77-3.67-.13C11.31,170.46,7.77,169.34,6.37,166.35Z"/><path class="cls-2" d="M31.45,156.44c1.06-3.25-1.76-8.06-3.45-10.79a3.43,3.43,0,0,0-1.29-1.4,3.45,3.45,0,0,0-1.5-.22,11.71,11.71,0,0,0-2.51.2,6.66,6.66,0,0,0-4.82,5c-1.15,5,3.35,10.64,8.52,10.42,2.61-.11,4.35-1.93,6.64-2.86,3.05-1.24,6.85-1.35,10.1-1.33a6.11,6.11,0,0,1,2.72.47A4.15,4.15,0,0,1,47.75,158c1.08,2.56,0,5.66-2,7.57a13.17,13.17,0,0,1-7.56,3.13,12.26,12.26,0,0,1-7-.89,6.29,6.29,0,0,1-3.63-5.74c.07-1-.68-1.4-.46-2.37"/><path class="cls-2" d="M20.94,175.15A18.56,18.56,0,0,0,22.51,178a2.87,2.87,0,0,1,0,3.05,2.71,2.71,0,0,0,4-.49c.28-.47.4-1,.66-1.5a1.51,1.51,0,0,1,1.28-.9c.59,0,1,.59,1.33,1.09l2,3.09a3.07,3.07,0,0,0,1.46,1.41c1,.31,2-.46,2.62-1.31a7.16,7.16,0,0,0,.24-7.73c-1.61-2.57-6.31-5.69-9.36-6S19.62,171.86,20.94,175.15Z"/><path class="cls-2" d="M44.36,169.44A2.6,2.6,0,0,0,45.53,174a13,13,0,0,0,8.32-1.28,7.71,7.71,0,0,0,1.75-1.24,10.52,10.52,0,0,0,2.2-4.23,1.29,1.29,0,0,0,.11-.67c-.09-.47-.64-.7-1.11-.82a22.49,22.49,0,0,0-6.69-.72,2.55,2.55,0,0,0-1.72.8A45,45,0,0,1,44.36,169.44Z"/><path class="cls-2" d="M41,183.93a1.75,1.75,0,0,0,1.32,1,6.23,6.23,0,0,1,1.67.51,2.58,2.58,0,0,1,1.11,1.87,7.68,7.68,0,0,1-.13,2.24,4.51,4.51,0,0,0,3.68.12c1.46-.79,1.8-2.72,1.79-4.38C50.42,178.63,39.28,178.5,41,183.93Z"/><path class="cls-6" d="M25.44,185c.15,1.57.24,3.34-.83,4.5s-3.25,1.34-4.24,2.71"/><path class="cls-3" d="M33,198.29c-4.67,2.82-12.74,13.58-12.67,19,0,2.33.4,5.13-1.44,6.57-.71.56-1.67.79-2.29,1.46a4.49,4.49,0,0,0-.88,2.86,121.35,121.35,0,0,0,.2,18.68c.2,2.33.46,4.75-.39,6.92A18.4,18.4,0,0,1,12.78,258a19.33,19.33,0,0,0-3.38,6.58c-1.33,5.06.27,10.53-.93,15.62a4.91,4.91,0,0,0-.23,2,1.37,1.37,0,0,0,1.4,1.18"/><path class="cls-3" d="M55.86,432.61l.81.18c.42,1.42-.38,2.87-1,4.21a4.14,4.14,0,0,0-.53,2.39,1.63,1.63,0,0,0,1.71,1.44"/><path class="cls-2" d="M57,437.23c-.11.39.52.61.87.41s.56-.61.91-.83a1.64,1.64,0,0,1,1.71.14,13.89,13.89,0,0,1,1.38,1.18c2.13,1.74,5.53,1.2,7.55-.67a10.79,10.79,0,0,0,3-7.48c.08-1.58-.16-3.38-1.44-4.31a5.32,5.32,0,0,0-2.75-.77,11.56,11.56,0,0,0-3.85.18,4.6,4.6,0,0,0-3,2.25c-.63,1.28-.41,2.82-.79,4.2a10.08,10.08,0,0,1-2.49,3.8"/><path class="cls-2" d="M64.47,396.88a16.08,16.08,0,0,0-.09,7.3,7.25,7.25,0,0,0,4.72,5.23,6.22,6.22,0,0,0,6.24-2.08,7.71,7.71,0,0,0,1.47-6.55,13.51,13.51,0,0,0-2.72-5.16c-1.09-1.41-2.36-3.54-3.78-4.6-.67-.5-.9-.59-1.47-.2-.13.09-.34.85-.6,1.07s-.92.26-1.28.47C65.38,393.26,64.79,395.2,64.47,396.88Z"/><path class="cls-5" d="M113.77,343a26.51,26.51,0,0,0-1.31,2.61,11,11,0,0,0-.53,7.33,7.84,7.84,0,0,0,5,5.22,7.26,7.26,0,0,0,7.53-2.38,8.25,8.25,0,0,0,1.26-7.9,5.81,5.81,0,0,0-1.41-2.25,8,8,0,0,0-2.44-1.41q-3.25-1.41-6.62-2.58"/><path class="cls-2" d="M101.65,283.15a24.52,24.52,0,0,1-5.11-1.77c-2.53-1.39-4.4-4.24-4-7.1a7.9,7.9,0,0,1,4-5.45,11.71,11.71,0,0,1,17.6,8.85c.25,2.36.52,9.06-2.43,9.41C109.14,287.41,104.33,283.91,101.65,283.15Z"/><path class="cls-2" d="M116.47,281.78c-.33-3.26-1.08-13.31.55-16.14a10.48,10.48,0,0,1,6-4.47,7.84,7.84,0,0,1,3.74-.44c3,.5,4.91,3.36,6.1,6.12a13.43,13.43,0,0,1,1.24,4.46c.23,3.84-2.3,7.51-5.71,9.3a16.46,16.46,0,0,1-11.24,1"/><path class="cls-2" d="M110.44,298.13c.24-1.29-3.11-4.51-4.27-5.13l-10-5.35c-1-.51-1.95-1-2.95-1.49-1.93-.87-4.76-1.19-5.65.72-.66,1.4.28,3,1.44,4.06,1.54,1.37,3.49,2.22,5.06,3.54s2.81,3.47,2.14,5.42c-.83,2.41-4.21,3.67-4.12,6.22a2.68,2.68,0,0,0,3.21,2.39,6.71,6.71,0,0,0-4.83,6.05c0,2.77,2.59,5.4,5.33,5a5.75,5.75,0,0,0,4.22-3.63,15.36,15.36,0,0,0,.88-5.73l-4.43,0"/><path class="cls-2" d="M105.28,305c-1.59,3.33-.38,11.6-.71,15.26a4.23,4.23,0,0,0,.23,2.18c.52,1.08,1.8,1.53,3,1.83,1.89.5,4,.84,5.7-.18a6,6,0,0,0,1.86-2,7.64,7.64,0,0,0,1.39-4.52c-.17-2.82-7.58-5.57-9.71-7.44"/><path class="cls-2" d="M114.81,293.77a3,3,0,0,0,4.49-.74,5.55,5.55,0,0,0,.45-2,13.75,13.75,0,0,0,0-3.79c-1.58-8.9-9.85,2-5,6.6"/><path class="cls-5" d="M129.38,318.79c2.12,0,7.94.17,9.87-.73,1.47-.7,3.36-1.61,4.55-.49a4.14,4.14,0,0,1,.89,1.89,17.81,17.81,0,0,0,4.74,7.88,9,9,0,0,0,4,2.44,4.61,4.61,0,0,0,4.4-1.07c1.78-1.87,1.07-5-.47-7.09a5.5,5.5,0,0,0-2.22-1.9,7.12,7.12,0,0,0-2.56-.4l-8-.28"/><path class="cls-2" d="M167.27,359.84l-.16-1.32a12.41,12.41,0,0,1-.07-3.75,4.18,4.18,0,0,1,2-3,3.19,3.19,0,0,1,3.93,1,5.61,5.61,0,0,1,.76,2.88,26.16,26.16,0,0,1,0,2.8,2.4,2.4,0,0,1-1.2,2.3C170.2,362.56,167.76,363.94,167.27,359.84Z"/><path class="cls-2" d="M177.13,353a8.25,8.25,0,0,1,1.16-5.22c1.07-1.46,3.36-2.15,4.75-1a4.92,4.92,0,0,1,1.33,3.33c.3,2.64.13,5.69-2.29,7.33C178.93,359.57,177.22,355.71,177.13,353Z"/><path class="cls-2" d="M175.42,370a4.39,4.39,0,0,1-1.3-3.94,1.37,1.37,0,0,1,.21-.7,1.33,1.33,0,0,1,1-.38c2.55-.17,5.36.56,7.52-.81S185.73,360,188,359a6.49,6.49,0,0,1,4.48.23A11.1,11.1,0,0,1,198.3,363a2.62,2.62,0,0,1,.53,1.19,3,3,0,0,1-1.26,2.42c-3.24,2.92-7,3.38-11.19,3.22C183.08,369.65,178.32,372.24,175.42,370Z"/><path class="cls-2" d="M208.65,363.09a7.23,7.23,0,0,1,4.4,7.67,4,4,0,0,1-3.41,3.52,13.19,13.19,0,0,1-3.44.19,5.28,5.28,0,0,1-2.43-.47,4.19,4.19,0,0,1-1.24-1.17c-1.53-2-3.15-5.87-1.77-8.34S206.38,362.22,208.65,363.09Z"/><path class="cls-2" d="M193.79,380.13a2.45,2.45,0,0,1-1.21.46c-2.66.46-10.88-2.78-6.13-5.49a5.64,5.64,0,0,1,5.91.29C193.48,376.22,195.19,378.84,193.79,380.13Z"/><path class="cls-2" d="M176.84,386.6a5.17,5.17,0,0,0,.45,2.53,5.89,5.89,0,0,0,1.43,1.56,4.88,4.88,0,0,0,2.22,1.29,3.12,3.12,0,0,0,2.51-.86,6.73,6.73,0,0,0,1.49-2.28,6.08,6.08,0,0,0-3.73-8.25C177.25,379.32,176.86,383.75,176.84,386.6Z"/><path class="cls-3" d="M180.08,378.76a3.24,3.24,0,0,0,.92-2.91,8.45,8.45,0,0,0-2.21-3.45c.89-.68,4,2.28,4.57,3"/><path class="cls-4" d="M190.49,443.59c-.32-1.58-1.4-7.5,0-8.29a3.93,3.93,0,0,1,2.52-.14l2.53.43a2,2,0,0,1,.49.13,1.47,1.47,0,0,1,.53.52c1.12,1.73.43,4.21-1.13,5.55a8.42,8.42,0,0,1-5.8,1.69"/><path class="cls-4" d="M192,281.53a6.25,6.25,0,0,0-3.05,1.83,3.73,3.73,0,0,0-1.31,3.37,4.32,4.32,0,0,0,1.67,2.08c2.54,2,8.73,3.85,9.46-1.28.27-1.92-1.47-2.6-2.58-3.79C194.89,282.37,194.2,281.07,192,281.53Z"/><path class="cls-4" d="M208.57,282.05a10.85,10.85,0,0,0-1.14,0,4.25,4.25,0,0,1-2.38-1.14l-2.65-2.07a2,2,0,0,0-1.37-.58,1.7,1.7,0,0,0-.87.47,5.56,5.56,0,0,0-1.88,3.06c-.45,2.2,2.32,7.06,4.82,7C205.24,288.69,210.73,282.34,208.57,282.05Z"/><path class="cls-4" d="M210.17,271.69a3.9,3.9,0,0,1,3.07-3.49c1.59-.28,3.14.57,4.54,1.39a5.41,5.41,0,0,1,2.7,2.63,5.34,5.34,0,0,1,.17,1.74l0,2a2.71,2.71,0,0,1-.11.9,2.42,2.42,0,0,1-2.39,1.26C214.9,278.12,209.84,275.43,210.17,271.69Z"/><path class="cls-4" d="M203,299.68a11.87,11.87,0,0,1-.52,1.08,2.83,2.83,0,0,0,4.32,3.38,5.5,5.5,0,0,0,1-1.14c.56-.78,1.09-1.58,1.6-2.4a3.24,3.24,0,0,0,.67-2.06,3.3,3.3,0,0,0-.87-1.55c-1.21-1.42-4.08-5.46-6.26-4.52C200,293.73,203.61,297.61,203,299.68Z"/><path class="cls-4" d="M207.7,304.15c-.44,2.72-1,10.2.36,12.6a5.37,5.37,0,0,0,2.15,2.32,7.06,7.06,0,0,0,2.37.54c1.85.2,3.91.34,5.38-.8a5.38,5.38,0,0,0,1.65-2.58,9.56,9.56,0,0,0-.07-6.16,4.37,4.37,0,0,0-1.06-1.77,5.62,5.62,0,0,0-1.42-.88l-7.93-3.9"/><path class="cls-4" d="M217.83,304.21a1.43,1.43,0,0,0,.2.71,1.72,1.72,0,0,0,.33.33l2.37,2a9.19,9.19,0,0,0,2.28,1.55,5.23,5.23,0,0,0,5.36-1.11,7.39,7.39,0,0,0,2.24-5.17,3.08,3.08,0,0,0-.15-1.21,2.84,2.84,0,0,0-.79-1.06,10.3,10.3,0,0,0-8.73-2.14C218.25,298.74,217.56,301.62,217.83,304.21Z"/><path class="cls-4" d="M254.92,277.83a15.49,15.49,0,0,0-2,6.82,9.71,9.71,0,0,0,.48,5.3c1.12,2.29,3.69,3.42,6.09,4.25a19.07,19.07,0,0,0,7.05,1.38,7.73,7.73,0,0,0,6.21-3.14,8.29,8.29,0,0,0,1.17-4.63,13.78,13.78,0,0,0-3.8-9.3C266.22,274.49,258.54,272.28,254.92,277.83Z"/><path class="cls-4" d="M277.3,242.51a7.16,7.16,0,0,0,1.05,4.71c1.65,2.18,4.85,2.23,7.58,2.07,1.82-.1,3.77-.25,5.18-1.39,1.81-1.47,2.16-4.05,2.37-6.37a5.77,5.77,0,0,0-2.77-6.75C283.49,229.46,277.75,233.75,277.3,242.51Z"/><path class="cls-2" d="M285.16,398.83c-1.72-1.72-5.61-.87-6.89-.35-1.88.78-4,1.79-4.53,3.74a6.45,6.45,0,0,0-.19,1.58c-.06,2.32.15,4.93,1.89,6.46,2,1.75,5.31,1.17,7.26-.64s2.81-4.5,3.29-7.12a6.23,6.23,0,0,0,.1-2.43,2.4,2.4,0,0,0-1.45-1.84"/><path class="cls-2" d="M290,409.65c1.9,2.64,4,5.41,7,6.54a15.91,15.91,0,0,0,5.46.72,8.32,8.32,0,0,0,4.77-1,6.47,6.47,0,0,0,2-2.5,11.8,11.8,0,0,0,1.46-5.68,4.32,4.32,0,0,0-.55-2.23,5,5,0,0,0-1.33-1.3,14.1,14.1,0,0,0-7.83-2.8,9.65,9.65,0,0,0-7.51,3.2c-.72.84-3.84,4.27-4.91,4.51"/><path class="cls-2" d="M292.05,383.34c-5.64,2.43-4.24,13.63,2.88,10.67a18.86,18.86,0,0,1,5.08-1.38c1-.11,2.18-.4,2.52-1.35a2.29,2.29,0,0,0-.89-2.29,13.15,13.15,0,0,0-3.72-2,37.57,37.57,0,0,1-6.19-3.39"/><path class="cls-2" d="M311.55,390.87l4.22-.07a13.09,13.09,0,0,1,2.8.15c3.72.75,6.1,4.61,6.56,8.37a7,7,0,0,1-.08,2.58,5.77,5.77,0,0,1-3.44,3.7,10.9,10.9,0,0,1-5.14.61c-3.67-.31-7.56-1.93-9.17-5.25-.48-1-.73-2.08-1.16-3.1a11.55,11.55,0,0,1-1.08-2.92C304.67,391.83,309.3,390.91,311.55,390.87Z"/><path class="cls-2" d="M327,338.23a6.17,6.17,0,0,1-4.14-2.81,9.19,9.19,0,0,1-.84-3c-.23-1.38-.32-3.1.86-3.86a3.71,3.71,0,0,1,1.78-.42,7.6,7.6,0,0,1,3.88.44c1.41.71,2.09,2.1,2.89,3.36s2.75,2.66,3.15,3.79C335.87,339.36,328.79,338.63,327,338.23Z"/><path class="cls-2" d="M335.67,327.59a6.44,6.44,0,0,1-2.35-2.4,5.64,5.64,0,0,1-.4-1.63,21.48,21.48,0,0,1-.17-3.49,2.36,2.36,0,0,1,.18-1,2.09,2.09,0,0,1,1.06-.85,9.14,9.14,0,0,1,5.48-.4c2,.39,4,1.31,5,3.11a6.21,6.21,0,0,1,.33,4.21,34.86,34.86,0,0,1-1.39,4.07,4.09,4.09,0,0,0,0,3.11C340.69,331.43,338,329.22,335.67,327.59Z"/><path class="cls-2" d="M349.12,330.13l-1-5.43a4.7,4.7,0,0,0-.52-1.68,13.63,13.63,0,0,0-1.05-1.25,6.82,6.82,0,0,1-1.12-3.64,3.73,3.73,0,0,1,.52-2.75,3.09,3.09,0,0,1,2.63-.84,7.3,7.3,0,0,1,5.28,2.91,4.7,4.7,0,0,1,1,3.08,4.38,4.38,0,0,1-1.9,3.11,9.13,9.13,0,0,1-3.47,1.38"/><path class="cls-2" d="M353.49,325.45a6.68,6.68,0,0,1,4.24-4.89,3.62,3.62,0,0,1,1.6-.11,4.83,4.83,0,0,1,1.59.71,9,9,0,0,1,2.85,2.64,4.58,4.58,0,0,1,.66,3.74c-.51,1.71-2.17,2.79-3.8,3.51s-5.52,2.52-6.94,1.13C352.42,331,353.11,326.9,353.49,325.45Z"/><path class="cls-2" d="M349.25,336.5a12.49,12.49,0,0,1-1.79,2.79l-1.6,2.06a1.87,1.87,0,0,1-.51.5,1.64,1.64,0,0,1-.83.15,7.45,7.45,0,0,1-4.09-1.13,5.33,5.33,0,0,1-2.37-3.45,1,1,0,0,1,.19-1,1.14,1.14,0,0,1,.44-.22l6-2.08C347.1,333.32,350.85,332.6,349.25,336.5Z"/><path class="cls-2" d="M331.47,347.34a20.69,20.69,0,0,0-4.35,3.18,7,7,0,0,0-2.12,4.82,3.35,3.35,0,0,0,1.07,2.54,4.88,4.88,0,0,0,2.52.83,10,10,0,0,0,3.49.06c2.5-.55,4.16-2.85,5.59-5s3.12-4.41,5.63-4.92c-.42-1-1.71-1.05-2.76-1.09C337.06,347.65,334.62,345.43,331.47,347.34Z"/><path class="cls-2" d="M345.47,349.3a12.48,12.48,0,0,0-4,8.93,7.55,7.55,0,0,0,.27,2.17,5.29,5.29,0,0,0,5.14,3.6,5.58,5.58,0,0,0,5-3.88,7.6,7.6,0,0,0,.15-3.42,12,12,0,0,0-2.78-6,24.71,24.71,0,0,1-2.82-3.24,12.2,12.2,0,0,1-1.25-5.32"/><path class="cls-2" d="M351.45,340.6l-.49,2.1a.72.72,0,0,0,0,.54.73.73,0,0,0,.33.27l4.36,2.24a14.29,14.29,0,0,0,2.57,1.12,7.27,7.27,0,0,0,2.63.24c6.3-.61,4.38-6.7.44-9.12C358.12,336,352.39,336.53,351.45,340.6Z"/><path class="cls-2" d="M357.32,360.53a4.86,4.86,0,0,0,4.73,2.6,2.25,2.25,0,0,0,1.08-.45,3.61,3.61,0,0,0,.73-.92,8.9,8.9,0,0,0,1.56-3.62,7.44,7.44,0,0,0-.78-3.71,4.8,4.8,0,0,0-1.78-2.4c-1.84-1-5.87-2-6.88.38S356.32,358.53,357.32,360.53Z"/><path class="cls-2" d="M394.47,309.69a11.67,11.67,0,0,0,1.7-4.69c.3-1.49.59-3.13-.14-4.47a5.33,5.33,0,0,0-3.81-2.28,8.43,8.43,0,0,0-5.77.68,4.94,4.94,0,0,0-2.57,4.94,7,7,0,0,0,2.29,3.56C388.5,309.69,391.63,313.51,394.47,309.69Z"/><path class="cls-2" d="M381.22,321.7a7.4,7.4,0,0,1,2.72-.75c3.6,0,2.14,3.85,1.15,6.18a15.37,15.37,0,0,0-1.21,6.66,5.85,5.85,0,0,1-.21,2.54,4.51,4.51,0,0,1-1.78,1.79c-2.3,1.53-5,2.81-7.74,2.42-8.74-1.24-9.38-13.3-1.43-16,1.47-.5,3-.7,4.54-1.11A37.39,37.39,0,0,0,381.22,321.7Z"/><path class="cls-2" d="M377.72,311.52c-1.59-1-3.57-1-5.44-.9a4.17,4.17,0,0,0-2,.41c-1.21.7-1.41,2.33-1.43,3.73,0,1.89.15,4.06,1.67,5.21a5.65,5.65,0,0,0,3.13.88,7.27,7.27,0,0,0,3.92-.66C380.41,318.61,380.46,313.2,377.72,311.52Z"/><path class="cls-2" d="M390.15,325.33a25.66,25.66,0,0,0-.64,2.62,37.43,37.43,0,0,1-2.39,5.44c-.8,1.82-1.29,3.94-.5,5.76a5.24,5.24,0,0,0,4.28,3,7,7,0,0,0,5.05-1.71,8.45,8.45,0,0,0,2.83-7.75c-.49-2.87-2.4-5.11-3.81-7.57-.38-.67-1.17-3.13-2-3.18C391.93,321.84,390.43,324.55,390.15,325.33Z"/><path class="cls-7" d="M397.25,317.27c-.21-2,1.34-3.85,3.18-4.66a14.53,14.53,0,0,1,5.95-.78c2.51,0,4.52,3.49,7,3.51"/><path class="cls-2" d="M414.09,318.06c.41,2.51-1.18,5-3.35,6.37a13.69,13.69,0,0,1-7.36,1.62,14,14,0,0,1-6.1-1.2,3.12,3.12,0,0,1-1.31-1.07c-.32-.54-.19-1.22-.37-1.81-2.46-7.91,11.44-16.45,16.94-4"/><path class="cls-2" d="M429.76,304.15c1.92-.3,3.33-3.55,2.66-5.38a5.87,5.87,0,0,0-4.47-3.36,4.24,4.24,0,0,0-3.47.57c-1.07.88-1.3,2.39-1.45,3.76a1.9,1.9,0,0,0,.12,1.16,1.72,1.72,0,0,0,.78.62c1.54.74,4.15,2.94,5.83,2.63"/><path class="cls-2" d="M438.3,295.17a3.5,3.5,0,0,1,1.12-2.54,3.64,3.64,0,0,1,2.29-.45l2.67.06a1.35,1.35,0,0,1,.72.14,1.28,1.28,0,0,1,.47.77c.8,2.67-.17,8.23-3.3,9.32C438.23,303.87,438,297.72,438.3,295.17Z"/><path class="cls-8" d="M431.48,304.15c.75-.42,3.71.55,4.21,1.25,1.07,1.52-.45,4.2,1.08,5.26"/><path class="cls-2" d="M455.18,326c-2-2.63-2.83-6.22.94-6.91,2-.37,6.3-.42,7.86,1.25C468,324.68,459,331,455.18,326Z"/><path class="cls-2" d="M475.55,299.72c.06.09.12.19.19.28a3.54,3.54,0,0,0,1.11,1,3.65,3.65,0,0,0,3.16,0,7.52,7.52,0,0,0,2.53-2c2-2.36.35-6.4-2.6-7.15C475.86,290.79,473.66,296.72,475.55,299.72Z"/><path class="cls-2" d="M481.07,304.44a4.71,4.71,0,0,0-6.29,2.14,1.21,1.21,0,0,0-.15.72,1.35,1.35,0,0,0,.62.78,10.46,10.46,0,0,0,3.61,1.76,1.89,1.89,0,0,0,1.81-.2,2.09,2.09,0,0,0,.47-1.07l.48-2.11a2.05,2.05,0,0,0,0-1.25c-.17-.39-.72-.63-1-.35"/><path class="cls-2" d="M464.19,314.48c.84-.67.86-4.6.43-5.59a5.23,5.23,0,0,0-2.22-2.27c-.92-.56-1.92-1-2.8-1.62a8.91,8.91,0,0,1-3.44-8.33,3.16,3.16,0,0,1,.28-1,2.29,2.29,0,0,1,2.73-.85,5.07,5.07,0,0,1,2.32,2,9.84,9.84,0,0,1,1.81,4.41,6.18,6.18,0,0,1-1.19,4.55"/><path class="cls-2" d="M467.33,300.32l1.67-1.94a8.1,8.1,0,0,0,1.42-2,8.41,8.41,0,0,0,.45-3.12,6.21,6.21,0,0,0-.87-4,3.47,3.47,0,0,0-2.7-1.24,4.62,4.62,0,0,0-2.83,1,4.8,4.8,0,0,0-1.6,2.2,7.17,7.17,0,0,0,.52,4.8c.59,1.52,1,3,1.47,4.57S466.53,301.25,467.33,300.32Z"/><path class="cls-2" d="M513.19,353.44a22.18,22.18,0,0,0,1.8-5.54,11.15,11.15,0,0,0,.43-3.8,3.94,3.94,0,0,0-1.94-3.13,5.63,5.63,0,0,0-3.92.06c-2.65.71-5.49,1.79-6.82,4.18a11.26,11.26,0,0,0-.94,5.59c0,2.44,1,6,3.69,6.81C508.66,358.55,511.81,356,513.19,353.44Z"/><path class="cls-2" d="M509.25,362.57a5.13,5.13,0,0,0-2.67,4.25,6.49,6.49,0,0,0,1.85,4.76,4.48,4.48,0,0,0,1.4,1.05,4.83,4.83,0,0,0,2,.38,8.52,8.52,0,0,0,5.08-1.69,4.38,4.38,0,0,0,1.2-1.3,5.53,5.53,0,0,0,.4-2.86,3.72,3.72,0,0,0-.89-2.81C515.46,362.48,512,361.19,509.25,362.57Z"/><path class="cls-2" d="M528.09,355.28l-.42.33c-1.45,1.19-7,3.84-8.71,2.12a3.3,3.3,0,0,1-1.82-2.43,4.39,4.39,0,0,1,2.63-4.28,13,13,0,0,1,5.26-1l8.9-.36a32.19,32.19,0,0,1-2.81,3.34,6.72,6.72,0,0,0-2.32,2.7c-.84,2.3-1.13,6.18,2,6.16l4.84,0a4.08,4.08,0,0,0,2.17-.41,4,4,0,0,0,1.16-1.32,5.33,5.33,0,0,0,1-2.43c.1-1.49-1.44-2.46-2-3.82-1.46-3.25-6-.83-6.62-1.53"/><path class="cls-2" d="M555.7,350.87a7.56,7.56,0,0,0,1.78-4.27.82.82,0,0,0-.08-.6.84.84,0,0,0-.44-.29c-2.61-.95-8.57-.18-8.85,3.5C547.8,353.26,553.71,353.06,555.7,350.87Z"/><path class="cls-2" d="M533,369.34a2.46,2.46,0,0,0-.75.86,2.28,2.28,0,0,0-.13.68,43.33,43.33,0,0,0-.14,4.7,2,2,0,0,0,.47,1.48,1.74,1.74,0,0,0,.92.33,6.41,6.41,0,0,0,6.83-4.65,3.44,3.44,0,0,0-.12-2.35,4.54,4.54,0,0,0-.89-1.16c-.77-.83-1.83-2.55-2.93-2.43C535.33,366.89,533.63,368.78,533,369.34Z"/><path class="cls-2" d="M547.06,374.83a3.39,3.39,0,0,0,3.87-.95,7,7,0,0,0,1.53-3.93c.36-3-3.6-9-6.9-6C543.15,366.14,544.28,373.41,547.06,374.83Z"/><path class="cls-2" d="M563.05,364.8a8.88,8.88,0,0,0,1.19,1.57c1.07,1,2.63,1.05,4.06,1.08a4.31,4.31,0,0,0,3.22-.8c1.35-1.34,1.3-5.22.27-6.75s-4.11-2.69-6-2.73c-1.71,0-5.88,1-6.79,2.56C558,361.47,562,363.19,563.05,364.8Z"/><path class="cls-2" d="M548.29,386.78a3.86,3.86,0,0,0,2.64.44c1.49-.46,2-2.26,2.28-3.79.5-2.74-3.34-5-5.8-3.8C543.84,381.34,545.45,385.54,548.29,386.78Z"/><path class="cls-2" d="M528.22,386.73a4.87,4.87,0,0,0-.39,2.24,4.62,4.62,0,0,0,.31,2.22,4.12,4.12,0,0,0,1.82,1.63,18.28,18.28,0,0,0,8.82,2.31,4.65,4.65,0,0,0,2.45-.51c3.76-2.31-.54-7.41-3-8.74S529.73,383.8,528.22,386.73Z"/><path class="cls-2" d="M601.85,341.22a3.36,3.36,0,0,0,.7,1.63,3.25,3.25,0,0,0,1.17.78c5.92,2.64,13.74-4.86,10-10.83C609.74,326.31,600.81,335.76,601.85,341.22Z"/><path class="cls-5" d="M616.53,344.61c-.78,0-5.36.05-6,.44-2.11,1.21-2.12,4.2-1.86,6.63A3.33,3.33,0,0,0,609,353a3.41,3.41,0,0,0,2.4,1.28c2.61.57,5.7,1,7.64-.82,1.35-1.3,1.66-3.32,1.87-5.18a2,2,0,0,0-.15-1.3c-.41-.64-1.35-.57-2.09-.77-1.59-.42-2.38-2.39-2-4a6.48,6.48,0,0,1,3.11-3.69c1.4-.86,3-1.46,4.34-2.36"/><path class="cls-2" d="M650.33,340a12.09,12.09,0,0,1,2.5,7.57,6.35,6.35,0,0,1-1,3.84,5.51,5.51,0,0,1-3.36,1.89,16.21,16.21,0,0,1-3.94.08,2.18,2.18,0,0,1-1.18-.29,2.14,2.14,0,0,1-.66-.9,28.15,28.15,0,0,1-1.56-4.7c-.59-2.23-1.25-4.45-1.78-6.69-.33-1.34-.49-2.54.71-3.47C643.2,334.81,648.17,337.27,650.33,340Z"/><path class="cls-2" d="M638.28,313.94c0,1.23.21,2.67,1.27,3.29a3.4,3.4,0,0,0,1.25.36,13.06,13.06,0,0,0,13.13-7.22,4.67,4.67,0,0,0,.55-2.39c-.23-2.42-3-4-4.88-5a5.88,5.88,0,0,0-5.63-.45C639,304.34,638.16,309.21,638.28,313.94Z"/><path class="cls-2" d="M620.64,308.79c0-2-.06-4.24-1.54-5.56a5.67,5.67,0,0,0-4.63-.91,9.08,9.08,0,0,0-4.53,1.9,5.44,5.44,0,0,0-2,4.37,6.62,6.62,0,0,0,1.38,3.34,5.71,5.71,0,0,0,2,1.85,16.29,16.29,0,0,0,2.69.78c1.53.47,5,3.35,6.25,1.56C621.33,314.58,620.62,310.58,620.64,308.79Z"/><path class="cls-2" d="M614.44,317a3.37,3.37,0,0,0-2.43,2.36,1,1,0,0,0,0,.67,1.38,1.38,0,0,0,.59.53,8.07,8.07,0,0,1,3.79,5.89A10.3,10.3,0,0,0,617,330c1.1,2.14,4.32,2.56,5.22,4.79.25.64.27,1.35.51,2a4.14,4.14,0,0,0,3.51,2.46,9.44,9.44,0,0,0,4.4-.8,3.41,3.41,0,0,1,1.94-.34,5.22,5.22,0,0,1,1.1.51,3.68,3.68,0,0,0,4.27-.86,6,6,0,0,0,1-4.61,19.7,19.7,0,0,1-.29-4.84c.27-1.66,1.21-3.24,1-4.92-.3-2.41-2.81-3.87-5.12-4.62s-4.91-1.29-6.44-3.19a9.34,9.34,0,0,0-1-1.24c-1.27-1.11-3.23-.62-4.77.07"/><path class="cls-2" d="M651.54,437l-1.17,2.42c-.65,1.34-1.31,2.91-.7,4.27.33.76,1,1.37,1.13,2.18.17,1.26-1.13,2.43-.81,3.66a2.72,2.72,0,0,0,1.07,1.35,13.33,13.33,0,0,0,3.82,2.06,6.05,6.05,0,0,0,4.69,0,6.23,6.23,0,0,0,2.72-4.05c1.1-4.09-.24-7.87-2.51-11.29C657.94,434.78,653.26,433.41,651.54,437Z"/><path class="cls-2" d="M676.08,441.72a6.24,6.24,0,0,0-.42,2.37,5,5,0,0,0,1.3,2.74,6.77,6.77,0,0,0,5,2.71,6,6,0,0,0,4.65-2.55,12.09,12.09,0,0,0,2-5.07c.84-4.33-2.61-5.18-6.1-6.19C678.37,434.53,677.51,438.86,676.08,441.72Z"/><path class="cls-2" d="M646.69,437l-4-2.52a6,6,0,0,0-3.56-1.27,5.66,5.66,0,0,0-2.84,1.43,6.08,6.08,0,0,0-2,2.28c-.8,2,.52,4.23.06,6.31-.29,1.32-1.29,2.56-1,3.88a3,3,0,0,0,1.2,1.65c2.33,1.72,5.69,1.21,8.19-.24a6.68,6.68,0,0,0,2.52-2.31c1.07-1.82.72-4.09.63-6.2a3.06,3.06,0,0,1,.09-1.09,2.23,2.23,0,0,1,1.68-1.37,6.66,6.66,0,0,1,2.27,0"/><path class="cls-2" d="M701.2,436.32l-1,3.14a8,8,0,0,0-.45,2.36,5.12,5.12,0,0,0,3,4.23,12.07,12.07,0,0,0,5.3,1,7.24,7.24,0,0,0,2.74-.36,6.86,6.86,0,0,0,3.28-3.49c1.71-3.27,2.62-7.11,1.7-10.68a2.72,2.72,0,0,0-1-1.69,3,3,0,0,0-1.36-.33c-2.33-.19-6.08-1.25-8.29-.32S701.84,434.22,701.2,436.32Z"/><path class="cls-2" d="M703.36,411.69c.53-.39.9-1,1.46-1.3a3,3,0,0,1,3.57.77,7.83,7.83,0,0,1,1.6,3.58,4.93,4.93,0,0,0,1.18,2.56c.59.53,1.41.73,2,1.27,2.94,2.8-2.13,6.33-4.37,7.18a13.62,13.62,0,0,1-8.15.61c-5.15-1.45-7.1-7.72-6-12.57C695.72,409.24,700.55,413.77,703.36,411.69Z"/><path class="cls-2" d="M710.11,395.57a6.1,6.1,0,0,1,4.17,1.57c3.22,3.43,2.51,13.36-3.76,9.88C706.74,404.92,703.27,395.16,710.11,395.57Z"/><path class="cls-2" d="M732.72,409.16a25.58,25.58,0,0,0,16.35-5.6,4.71,4.71,0,0,0,1-1.1,4.46,4.46,0,0,0,.5-1.77,12.2,12.2,0,0,0-5-11.07,7.26,7.26,0,0,0-6-1.38,8.35,8.35,0,0,0-4.35,3.72c-2,3-3.51,6.79-3.26,10.4s.79,6.19-2.63,8.48a20.55,20.55,0,0,1-4.36,2c-2.07.77-4.54,2.67-5.84.34-1.18-2.09-1.2-5.55-1.2-7.88.13-3.16,1.44-6.43,4.08-8.16a4.07,4.07,0,0,1,1.93-.72,3.78,3.78,0,0,1,3.33,2.1,11.07,11.07,0,0,1,1,4,2.88,2.88,0,0,1,2.86.52"/><path class="cls-2" d="M718.48,428.74a12.51,12.51,0,0,1,6.27-2.54,4.86,4.86,0,0,1,3.87.91c1.07,1,1.26,2.6,1.37,4.05l.71,8.77a2,2,0,0,1-.21,1.36,1.88,1.88,0,0,1-1.38.6,13,13,0,0,1-8.7-2.16,4.72,4.72,0,0,1-1.42-1.36c-.7-1.17-3.48-6.83,0-10.28"/><path class="cls-2" d="M713.79,428.09c.22-1.65,0-6.88,4.07-9.13a9,9,0,0,1,4.83-1,1,1,0,0,1,.56.15.85.85,0,0,1,.24.38c.92,2.23-.4,4.83-2.25,6.39s-5.42,1.94-7.45,3.24"/><path class="cls-2" d="M732.72,435c-3.93-1.39-1.11-9.32,4.89-7.89,1.39.33,3,.38,3.73,1.62.82,1.46,0,3.33-1.23,4.51a8.77,8.77,0,0,1-6.38,2.48c-.31,0-.7-.1-.75-.41"/><path class="cls-2" d="M741.33,426.37c-3.73,3.67-19.62-2.15-16-8.69.85-1.54,1.41-3.31,2.88-4.29a10.37,10.37,0,0,1,5.36-1.34.69.69,0,0,1,.4.06.6.6,0,0,1,.25.35,4.25,4.25,0,0,1-.69,3.52,14.41,14.41,0,0,0-1.79,3.23l4.45,0a5.64,5.64,0,0,1,2.62.43,3.78,3.78,0,0,1,1.75,2.51,11.08,11.08,0,0,1,.14,3.15"/><path class="cls-2" d="M741.42,365.38a7.48,7.48,0,0,0-2.45,1.43,12.5,12.5,0,0,0-2.93,2.78,8.11,8.11,0,0,0-1.15,2.92A11.62,11.62,0,0,0,739.47,384c2.72,1.92,6.73,2.45,9.3.31a8.53,8.53,0,0,0,2.15-3,17.33,17.33,0,0,0,.64-13.42C750.09,364.41,744.63,364.46,741.42,365.38Z"/><path class="cls-2" d="M699.15,303.29c1.16.2,4.54,2.86,5.37,3.7a1.81,1.81,0,0,1,.32,2.47c-1.3,2.34-4.25,3.21-6,5.22a7.86,7.86,0,0,0-1.47,7.06,12.17,12.17,0,0,0,4.12,6.13,3,3,0,0,0,1.58.8,3.14,3.14,0,0,0,1.91-.77c1.33-.91,2.75-2,3.11-3.52a5.74,5.74,0,0,0-.33-3,78,78,0,0,1-2.56-12"/><path class="cls-2" d="M711.74,333.53a4,4,0,0,0,2.94,1.89,4.08,4.08,0,0,0,3.27-1.8,6.78,6.78,0,0,0,1.29-5.09c-.41-2.59-2.21-4.61-3.26-6.94-.68-1.52-.81-5.65-2.88-2.94-1.32,1.73-1.8,5.66-2.2,7.81C710.46,328.83,710.34,331.44,711.74,333.53Z"/><path class="cls-2" d="M721,328.09a2.94,2.94,0,0,0,.14,1.35,3.23,3.23,0,0,0,1,1.13,17.12,17.12,0,0,0,4.84,3.18,5.82,5.82,0,0,0,5.54-.53c1.8-1.4,2.18-3.92,2.43-6.19.19-1.67.23-3.69-1.14-4.66a4.77,4.77,0,0,0-3-.56,35.77,35.77,0,0,1-4.14.1c-1-.09-2.59-1.25-3.42-1.19C721.32,320.86,721.08,326.42,721,328.09Z"/><path class="cls-2" d="M738.89,325.16a5.65,5.65,0,0,0,6.32,1.52,7,7,0,0,0,4.11-5.23,4.48,4.48,0,0,0,0-1.86,5,5,0,0,0-.77-1.52,11.24,11.24,0,0,0-5.57-4.14c-1.61-.54-5.48-1.39-6.89-.08s-.21,3.46.3,4.82C737.16,320.77,737.45,323.39,738.89,325.16Z"/><path class="cls-2" d="M683.64,301.58a7.87,7.87,0,0,1-5.28-2.53,10.89,10.89,0,0,1-1.92-4.77,2.93,2.93,0,0,1,0-1.58,2.42,2.42,0,0,1,1-1.13c2.22-1.57,5.14-1.56,7.86-1.5,1.82,0,3.81.15,5.15,1.38,1.5,1.38,3.14,6,2.27,8C691.55,302,685.93,301.82,683.64,301.58Z"/><path class="cls-2" d="M688.06,285a7.42,7.42,0,0,1-1-4.42,5.25,5.25,0,0,1,3.58-4.17,3.78,3.78,0,0,1,3.77.77,5,5,0,0,1,1,1.87,19.24,19.24,0,0,1,1,6.39c0,1,.58,4.65-.3,5.39C694,292.79,688.89,286.65,688.06,285Z"/><path class="cls-2" d="M698.59,287.35a5.8,5.8,0,0,1,1.43-3.94,3.81,3.81,0,0,1,3.91-1.1c1.71.6,2.57,2.53,2.82,4.33a5.71,5.71,0,0,1-4.26,6.37C699.24,294,698.56,289.88,698.59,287.35Z"/><path class="cls-2" d="M713.41,279.83c1.48-1.16,3.65-.86,5.37-.11a4.61,4.61,0,0,1,2,1.38c2.49,3.37.68,11.75-4.63,10.38C711.82,290.37,709.85,282.64,713.41,279.83Z"/><path class="cls-2" d="M722.1,297.32a8,8,0,0,1-.71-3.64,2.74,2.74,0,0,1,2.35-2.51c1,0,2.22.7,3,0,.53-.45.5-1.25.62-1.93a4.85,4.85,0,0,1,4.24-3.58c4-.56,8,3.14,8,7.2a3.93,3.93,0,0,1-1.13,3c-1.37,1.18-3.46.67-5.23,1.06-2.06.46-3.86,2.22-6,1.93-1-.14-1.88-.75-2.87-.92a5.75,5.75,0,0,0-3.64.91,17.76,17.76,0,0,0-8.39,10.64,7.49,7.49,0,0,1,3.31-4.36,13.35,13.35,0,0,1,5.12-2,11,11,0,0,1,2.68-.24,10.06,10.06,0,0,1,4.15,1.29A6.08,6.08,0,0,1,730,306.2c1,1.63.66,3.78,0,5.58a7.72,7.72,0,0,1-2.72,3.86,7.07,7.07,0,0,1-4,1c-4.1,0-11.39-4.81-13.77-8.15"/><path class="cls-3" d="M706.41,309.49c.42.19.86-.22,1.09-.61a10.44,10.44,0,0,0,1.13-3.77c.25-1.58.43-3.38-.6-4.61-.83-1-2.25-1.31-3.11-2.27-1.12-1.23-1-3.11-.85-4.76"/><path class="cls-2" d="M706,282.64c.69-2.82,1.15-8.17-.52-10.53a4.68,4.68,0,0,1-.74-1.25,3.81,3.81,0,0,1-.07-1.58,11.1,11.1,0,0,0-.3-4.94,4,4,0,0,0-3.71-2.83,4.89,4.89,0,0,0-3.09,1.76,8.31,8.31,0,0,0-1.27,1.69c-1.39,2.52-.87,5.74.58,8.22a25.2,25.2,0,0,0,5.88,6.23"/><path class="cls-2" d="M708.27,260.21a2.77,2.77,0,0,1,3.17-3.58c1-.05,2.11-.09,3.16-.1a6.79,6.79,0,0,1,2.16.21,5.31,5.31,0,0,1,1.84,1.16,8.18,8.18,0,0,1,2.57,4c1,4-3.39,8.19-7.2,8.62C709.15,271,708.46,263.51,708.27,260.21Z"/><path class="cls-2" d="M724.11,283.5c-3,1.24-8.7-7.24-6.85-9.62.64-.83.89-2,1.9-2.3.45-.12.93-.09,1.39-.17a8.23,8.23,0,0,0,3.11-1.77,2.79,2.79,0,0,1,1.38-.57c1,0,1.76.86,2.19,1.76a12.23,12.23,0,0,1,1,4.44,7,7,0,0,1-.23,2.78c-.45,1.33-1.6,2.68-1,3.94.18.36.49.64.69,1a.91.91,0,0,1-.07,1.12,1.08,1.08,0,0,1-.56.2,12,12,0,0,1-2.75.1"/><path class="cls-2" d="M646.36,228.65a2.7,2.7,0,0,0-1.6.59c-.9.91-.09,2.49,1,3.19s2.44,1.06,3.14,2.13c1,1.58,0,3.76-1.44,5a8.36,8.36,0,1,1-9.46-13.7,7,7,0,0,0,1.5-.94,5.1,5.1,0,0,0,1.15-2.65l1.59-7.24c.63-2.9,1.78-6.34,4.68-7a5.89,5.89,0,0,1,4.48,1.22,11.44,11.44,0,0,1,4.36,5.93c.71,2.24.78,4.8,2.26,6.63,2.08,2.57,5.89,2.57,9.19,2.74,3,.16,6.15.71,8.53,2.56s3.74,5.31,2.37,8a5.7,5.7,0,0,1-4.91,3,6.77,6.77,0,0,1-5.24-2.54c-.88-1.08-1.44-2.38-2.25-3.5C661.1,225.67,652.82,227.78,646.36,228.65Z"/><path class="cls-2" d="M635.28,215.25c.3-1.09.49-2.5-.46-3.12a2.49,2.49,0,0,0-2.34.17c-3.2,1.5-9.43,7.31-5.06,10.63C633,227.12,634.31,218.75,635.28,215.25Z"/><path class="cls-2" d="M618.58,214.11a5.09,5.09,0,0,0-.32-1.4,3.26,3.26,0,0,0-3.65-1.67,5.25,5.25,0,0,0-3.28,2.67,5,5,0,0,0-.13,5.12,5.68,5.68,0,0,0,1.56,1.45,15,15,0,0,0,4.34,2,1.12,1.12,0,0,0,.65.05C620.38,221.51,618.82,215.85,618.58,214.11Z"/><path class="cls-2" d="M610.05,221.19a2.65,2.65,0,0,0-.87-1.54,2.32,2.32,0,0,0-1.17-.31,10.56,10.56,0,0,0-9.21,4.58,3.28,3.28,0,0,0-.68,2.21,3.42,3.42,0,0,0,1.66,2.09c2.62,1.81,7.59,4,10.88,3.11,2.23-.63,2-.82,1.37-3.17S610.71,223.51,610.05,221.19Z"/><path class="cls-2" d="M604.22,237a6.53,6.53,0,0,0-2.66,2.1,3.65,3.65,0,0,0-.49,3.27c.72,1.89,3.07,2.5,5.09,2.6a6.84,6.84,0,0,0,2.85-.33,4.85,4.85,0,0,0,2.79-3.46C613,235.7,608.25,235.14,604.22,237Z"/><path class="cls-2" d="M617.18,244.54c-.72,1.28-1.12,2.77-2.07,3.9-1.23,1.47-3.42,2.53-3.35,4.45a4.11,4.11,0,0,0,1.1,2.28c1,1.23,2.32,2.48,3.89,2.34a3.59,3.59,0,0,0,2.59-1.81,10.73,10.73,0,0,0,1.09-3.09,26.36,26.36,0,0,0,.94-5.83C621.41,243.39,619.64,240.19,617.18,244.54Z"/><path class="cls-2" d="M624.4,256.19a3.6,3.6,0,0,0,.61,2.4,3.26,3.26,0,0,0,1.21.79,11.68,11.68,0,0,0,4.62.95,3.86,3.86,0,0,0,1.9-.38c2.24-1.27,1.14-5.09,3-6.86,1.28-1.21,3.42-.94,4.83-2a3.86,3.86,0,0,0,1.32-3.68,7,7,0,0,0-1.91-3.57,8.15,8.15,0,0,0-2.76-2.08c-3.26-1.43-8.05.32-10.5,2.77C624.06,247.2,624.38,252.73,624.4,256.19Z"/><path class="cls-3" d="M618.79,224.31a4.69,4.69,0,0,1,1.09,4.69"/><path class="cls-3" d="M625.12,224.12c-.07-.29-.51-.34-.74-.14a1.25,1.25,0,0,0-.33.81,15.19,15.19,0,0,0-.14,3"/><path class="cls-2" d="M618,238.37a2.62,2.62,0,0,0,.63,1.64,2.89,2.89,0,0,0,1,.54l.79.3a2.93,2.93,0,0,0,3.91-2.09c.2-.92.39-1.84.58-2.76l1.52-7.34c.12-.6-6,.86-6.74,1.5C617.65,231.88,617.72,236,618,238.37Z"/><path class="cls-2" d="M529,244.16c.72,1.16,2.13,1.67,3.14,2.59a5.09,5.09,0,0,1-.59,7.62,9.51,9.51,0,0,0-1.59,1c-1.22,1.19-.91,3.16-.75,4.85.24,2.43-.09,5.07-1.66,6.94s-4.68,2.57-6.52,1a6.2,6.2,0,0,1-1.74-3.71,7.71,7.71,0,0,1,.89-5.82,23.42,23.42,0,0,1,2.51-2.47,10.4,10.4,0,0,0,2.69-7.09,22.33,22.33,0,0,0-1.42-7.59,10.7,10.7,0,0,1-.86-4.11c.18-2.79,4.53-6.37,7.08-3.83C532.94,236.33,526.84,240.73,529,244.16Z"/><path class="cls-2" d="M509.73,242.39a12.71,12.71,0,0,0-5.37,5.56,6,6,0,0,1-1.4,2,12.22,12.22,0,0,0-1.3.93c-1.08,1.15-.23,3.07.91,4.15a9.68,9.68,0,0,0,14-.7,19.44,19.44,0,0,0,2.39-3.84l1.54-3C524.33,240.1,514.37,240.12,509.73,242.39Z"/><path class="cls-2" d="M500.87,242.35a12.07,12.07,0,0,1-6.34,0,7.17,7.17,0,0,1-4.67-4.08,5.2,5.2,0,0,1,1.41-5.83,7.71,7.71,0,0,1,2.08-1.06c3-1.13,6.37-1.74,9.46-.84,2.55.73,6.41,3.66,5.94,6.76S503.28,241.74,500.87,242.35Z"/><path class="cls-2" d="M508.5,223.14a5.41,5.41,0,0,1,.27-2,6,6,0,0,1,1.2-1.74c.89-1,1.91-2.1,3.25-2.27a2.82,2.82,0,0,1,2.62,4.49c-.41.54-1,1-1.1,1.67a1.89,1.89,0,0,0,.81,1.53c2.26,2,4.3,2.52,4.48,5.9.1,1.91-.39,5.21-2.58,5.87C511.72,238.36,508.54,226.82,508.5,223.14Z"/><path class="cls-2" d="M519.52,220.85a13.64,13.64,0,0,0,.09-2.85,9.45,9.45,0,0,0-.71-1.64,9.85,9.85,0,0,1-.51-3.9,3.21,3.21,0,0,1,.22-1.38,2.55,2.55,0,0,1,2.29-1.16c2.38-.08,4.58,1.25,6.34,2.84a5.94,5.94,0,0,1,2,3c.41,2-.93,4.05-.34,6a25.63,25.63,0,0,1,1.1,2.54c.67,3.48-2.23,5.52-5,3.8C522.85,226.74,519.52,223.56,519.52,220.85Z"/><path class="cls-2" d="M534.45,219.94a7.06,7.06,0,0,0-.17-1.65c-.42-1.59-1.87-2.68-2.67-4.11a11.14,11.14,0,0,1-.93-5.59,3.18,3.18,0,0,1,.38-1.83c.62-.9,2-.92,3-.63A7.76,7.76,0,0,1,538.93,217a3.32,3.32,0,0,0-.51,1.49c0,1,1,1.56,1.69,2.19,2.78,2.46,2.84,8.92-1.59,9.71C533.21,231.34,534.52,222.9,534.45,219.94Z"/><path class="cls-2" d="M358.28,410.72a9.08,9.08,0,0,0-3,.66,7.39,7.39,0,0,0-2.91,2.72c-2.93,4.45-2.8,10.52-.34,15.25a22.23,22.23,0,0,0,12,10,13.91,13.91,0,0,0,6.63,1.06c3.71-.48,6.84-3.25,8.56-6.57C388.45,416.11,374,409.36,358.28,410.72Z"/><path class="cls-2" d="M636.25,146.09c-2.81,3.54-1.92,8.69-.41,12.95,1.44,4,3.68,8.26,7.67,9.83,3.12,1.23,6.81.59,9.78,2.15,2.48,1.3,4,3.89,5.13,6.45s2.05,5.29,3.87,7.43,4.86,3.55,7.46,2.5c3-1.2,4-4.86,4.26-8a5.67,5.67,0,0,0-.28-2.84,5.76,5.76,0,0,0-2-2.07c-4.06-3-8.83-5.82-10.81-10.73-1.86-4.62-1.61-9.8-4.22-14.24C653.15,143.32,641.29,139.74,636.25,146.09Z"/><path class="cls-5" d="M577,150.38c.54,2.25.94,5-.78,6.55-.54.48-1.23.77-1.81,1.21a6.66,6.66,0,0,0-2.21,3.6,11.52,11.52,0,0,0,1.24,9.57,8.55,8.55,0,0,0,8.64,3.66,24.23,24.23,0,0,0,2.56-14.07,1.8,1.8,0,0,0-.46-1.18,2.09,2.09,0,0,0-1.23-.36,10.65,10.65,0,0,1-6.84-3.37"/><path class="cls-5" d="M568.52,146l-3.88,5.28a3.3,3.3,0,0,1-1.19,1.16,5.38,5.38,0,0,1-1.66.25c-2.81.29-4.72,3.1-5.36,5.86-.54,2.3-.24,5.15,1.78,6.38s4.7.15,6-1.74a10.56,10.56,0,0,0,1.38-6.64c-.07-1.47-.85-3.4-2.29-3.11"/><path class="cls-5" d="M553,138.52a5.23,5.23,0,0,0-5.75,5.12,5.68,5.68,0,0,0,5.86,5.24c2.75-.17,5-2.3,6.38-4.69a3.59,3.59,0,0,0,.59-1.77,2.71,2.71,0,0,0-1.77-2.3,8.14,8.14,0,0,0-3-.44"/><path class="cls-5" d="M522.39,152.33a3.54,3.54,0,0,0,.68,1.59c.85,1,2.42,1.05,3.72.76A12,12,0,0,0,536,143c-.1-3.18-7.72-2.93-9.65-1.56C523.22,143.57,521.63,148.82,522.39,152.33Z"/><path class="cls-5" d="M614.81,62.3c-6.13-2.24-15.11-5.77-21.23-8a33.55,33.55,0,0,1-6.74-3c-3.12-2-5.56-5.09-9-6.55-1.6-.68-3.37-1-4.8-2-2.83-1.93-3.49-5.71-4.31-9a18.87,18.87,0,0,0-3.92-8.27c-2.06-2.28-5.24-3.75-8.26-3.11s-5.42,3.38-6.36,6.39a19.91,19.91,0,0,0-.11,9.37c.48,2.57,1.48,5.49,4,6.36a7.47,7.47,0,0,0,4.16-.12,48.88,48.88,0,0,0,12.1-4.57"/><path class="cls-4" d="M557.23,62a7.44,7.44,0,0,0,3.43,4,10.25,10.25,0,0,0,4,.75c2.7.14,5.76.14,7.67-1.78a7.78,7.78,0,0,0,1.76-5.63,7.37,7.37,0,0,0-.43-2.67c-1.31-3.27-8.21-9.65-11.89-8.69C556.19,49.41,555.4,57.63,557.23,62Z"/><path class="cls-4" d="M587.26,52c-1.47-.58-5,2.58-5.53,4.08a17,17,0,0,0-1.22,6.33,7.89,7.89,0,0,0,2.57,5.75C585.22,69.91,588.24,70,591,70c2.1,0,4.37,0,6-1.28s2.26-3.21,2.85-5.1a1.83,1.83,0,0,0-.65-2.37c-1.44-1.39-1.94-4.48-3.39-5.87"/><path class="cls-4" d="M586.76,21.79c-1.86,2.51-2.48,5.71-2.81,8.81-.21,1.92-.28,4,.88,5.56a5.36,5.36,0,0,0,1.88,1.49,8.81,8.81,0,0,0,9.15-1.17A11.66,11.66,0,0,0,600,28a9.68,9.68,0,0,0-1.1-5.27C596.08,17.8,590.22,17.14,586.76,21.79Z"/><path class="cls-9" d="M595.87,19.27c3.65-1.87,10-8,10.33-12"/><path class="cls-3" d="M595.87,19.27c-3.87.13-12.07-4.14-15.64-5.63-3.77-1.56-7.15-4.88-11.2-4.41-2.52.3-4.68,2.06-7.19,2.37-5.24.66-9.22-4.95-14.42-5.88"/><path class="cls-2" d="M506.3,52.61c1.92.86,4.39,1.26,6-.12a5.66,5.66,0,0,0,1.24-1.77,8,8,0,0,0,.93-3.5A4.1,4.1,0,0,0,513,44a4.86,4.86,0,0,0-1.63-.8c-2.23-.7-8.22-.93-9.26,2-.35,1,.58,3.39.95,4.34A5.59,5.59,0,0,0,506.3,52.61Z"/><path class="cls-2" d="M499.05,28.13a3.07,3.07,0,0,0-1.52-.83,6.27,6.27,0,0,0-5.73,1.39,8.22,8.22,0,0,0-2.37,4.59,12.13,12.13,0,0,0,2,9.17.52.52,0,0,0,.27.24.61.61,0,0,0,.41-.09,16.43,16.43,0,0,0,6.39-5.88C499.75,34.78,500.79,30,499.05,28.13Z"/><path class="cls-2" d="M488.29,37.34c3.5-.48,8.44-13.73,3.22-15a7.42,7.42,0,0,0-1.15-.28c-1.59-.15-3.37-.24-4.56.82a5.44,5.44,0,0,0-1.32,2.28c-1.2,3.24-2,7-.24,10,.59,1,2.88,2.06,4.05,2.2"/><path class="cls-2" d="M481.4,25.29c-.68-1.23-1.11-2.84-2.51-2.77a2.84,2.84,0,0,0-1.5.64c-2.15,1.63-2.79,4.59-2.86,7.29a9.37,9.37,0,0,0,.58,4.25c5.24,11,9.3,3,6.29-9.41"/><path class="cls-2" d="M479.68,40.78c1.93-4.42-5.86-12.17-9.84-7.76-.18.2-.54,0-.78.13a1.46,1.46,0,0,0-.61.75,6.59,6.59,0,0,0,2.21,7.94A9,9,0,0,0,473,43a8.62,8.62,0,0,0,3.82.48c1.29-.18,2.19-1.52,2.83-2.65"/><path class="cls-2" d="M478,46c.55-4.79-11.85-12.84-13.76-5.77-.4,1.49-1.6,2.94-.89,4.32a4.9,4.9,0,0,0,2.11,1.8c2.95,1.65,6,3.34,9.35,3.71a2.85,2.85,0,0,0,2.47-.59c1-1.06.38-2.06.72-3.47"/><path class="cls-2" d="M478,51.11c-1.46-.44-7.37.64-8.85,1a5.57,5.57,0,0,0-3.52,3.14,12.27,12.27,0,0,0-.92,4.76,8.69,8.69,0,0,0,1.23,5.44c1.72,2.35,5.35,2.69,7.87,1.24a10.11,10.11,0,0,0,4.48-7.16,29.46,29.46,0,0,0-.21-8.69c2.84-.71,10.86-.46,13.69.27"/><path class="cls-2" d="M476.24,23.57c-5.17-3.44-8.8-1.36-10.22.09a4.93,4.93,0,0,0-1,5.65c2.66,4.59,7.53,2.6,9.54,2.87"/><path class="cls-2" d="M484.84,21.85c.32,2.45-11.84,0-12.3-6.1a6.18,6.18,0,0,1,.18-2.35,4.23,4.23,0,0,1,2.21-2.4,8,8,0,0,1,3.24-.71A10.91,10.91,0,0,1,484.7,12,7.41,7.41,0,0,1,488,17.7a3.84,3.84,0,0,1-.8,2.62,5.51,5.51,0,0,1-1.8,1.2"/><path class="cls-2" d="M492.4,13a7.68,7.68,0,0,1,.38-3.06,5.64,5.64,0,0,1,5.09-3.33,7.87,7.87,0,0,1,5.93,2.69,11.4,11.4,0,0,1,2.65,6.07,8.91,8.91,0,0,1-.3,4.17,5,5,0,0,1-2.74,3.05c-1.56.62-3.31.22-5,.2a6.17,6.17,0,0,0-2.16.33A1.79,1.79,0,0,1,494,21.72C493.44,18.81,492.51,16.07,492.4,13Z"/><path class="cls-2" d="M506.66,18.33a8.62,8.62,0,0,1,4.59-4.41,18.41,18.41,0,0,1,7.28-1.83,4.74,4.74,0,0,1,3.35.82,4.66,4.66,0,0,1,1.27,2.36,18.63,18.63,0,0,1,.72,5.25,2.34,2.34,0,0,1-.17,1,2.1,2.1,0,0,1-1.84.88c-3.56.21-6.9-1.07-8.52,3-1.07,2.71-1.35,5.74-4.72,6.4-2.25.44-4.45-.58-4.93-2.91-.41-2,.45-3.48,1.31-5.11C505.94,22,506,20.2,506.66,18.33Z"/><path class="cls-2" d="M514.11,25.29c1.4,2.49,2.94,5.18,1.53,7.67l3.87.09a1.51,1.51,0,0,1,.7.14,1.26,1.26,0,0,1,.45.76,6.3,6.3,0,0,1-6.52,7.92c-2.5-.17-4.76-1.82-7.26-1.78-1.61,0-3.36.71-4.74-.12a3.8,3.8,0,0,1-1.54-3.11v0a4.55,4.55,0,0,1,3.74-4.67l.12,0"/><path class="cls-2" d="M521.85,33.68a4.94,4.94,0,0,1,2.74-1,5.28,5.28,0,0,1,4.34,2.42,11.35,11.35,0,0,1,1.66,4.86,6.42,6.42,0,0,1-.41,4.07,6,6,0,0,1-2,1.94,8.94,8.94,0,0,1-7.7,1c-6-2-3.13-14.44,2.26-13.05"/><path class="cls-2" d="M421.1,88.55c.86-2.76-1.17-5.76-3.8-7s-5.65-1.08-8.53-.86a4.23,4.23,0,0,0-2.43.71,4.27,4.27,0,0,0-1.15,3c-.54,4.77-.72,10.46,3.14,13.36a7.22,7.22,0,0,0,5.1,1.3c6.36-.71,8.47-7.57,6.11-12.26"/><path class="cls-2" d="M418.49,124a12.63,12.63,0,0,0-.78,5.74,8.1,8.1,0,0,0,1,4.47c1.45,2.13,4.45,2.35,7,2.37,2,0,4.18-.05,5.65-1.39a7.07,7.07,0,0,0,1.83-3.88c.87-4.2,1.76-9.77-2.74-11.71C426.64,117.94,420.21,120.31,418.49,124Z"/><path class="cls-2" d="M372.18,119.11a5,5,0,0,0-3.61-.8h-.25a4.3,4.3,0,0,0-1.63.32,2,2,0,0,0-.89,1.09C361.81,130.33,378.42,124.59,372.18,119.11Z"/><path class="cls-2" d="M380.26,124a2,2,0,0,1,1.12.14,1.7,1.7,0,0,1,.71.89,11.47,11.47,0,0,1,.64,4.85c-.05,5-7.22,4.24-9.56,1.17C369.43,126.16,376.78,124.29,380.26,124Z"/><path class="cls-2" d="M387,128.34c1.53-1.73,3.85-3.29,6.08-1.86a4.57,4.57,0,0,1,1.9,3.08c.28,1.65.37,4-1,5.36a6.9,6.9,0,0,1-2.79,1.41,6.65,6.65,0,0,1-4.16.1C382,134.81,384.72,130.85,387,128.34Z"/><path class="cls-2" d="M377.36,148.57a4.61,4.61,0,0,1-3.39,3,7.7,7.7,0,0,1-4.61-.49,4.48,4.48,0,0,1-2.66-2.22c-.47-1.16-.14-2.62-.94-3.58a2,2,0,0,1-.52-.73c-.1-.46.31-.85.55-1.26.56-.94.26-2.17.63-3.2.63-1.72,2.81-2.2,4.64-2.32,1.27-.09,2.72-.07,3.59.86,1,1.08.77,2.89,1.69,4.05a.65.65,0,0,1,1,.31A16.52,16.52,0,0,1,377.36,148.57Z"/><path class="cls-2" d="M368.65,136.32c.71-.95,0-4.41-.59-5.44a7.13,7.13,0,0,0-2.55-2.42,19.94,19.94,0,0,0-5.78-2.5,6.7,6.7,0,0,0-3-.18,5.17,5.17,0,0,0-3.71,5.4,6.19,6.19,0,0,0,1.5,3.63,8.25,8.25,0,0,0,4.74,2.47,24.63,24.63,0,0,0,5.43.21"/><path class="cls-2" d="M391.9,140.57a5.17,5.17,0,0,1,1.13,3.51,9.93,9.93,0,0,1,0,1.22,3.59,3.59,0,0,1-.69,2.13,4.36,4.36,0,0,1-2.57,1.33C377,151.55,386.87,135.71,391.9,140.57Z"/><path class="cls-2" d="M387,164a5.31,5.31,0,0,0,1.46,1.56,2,2,0,0,0,2,.17c2.73-4.12,2.22-10.37-3.26-11C381.06,153.94,385.15,161.26,387,164Z"/><path class="cls-2" d="M371.17,161c.29,2.33,1.82,4.3,3.49,6a2.45,2.45,0,0,0,1.08.72,2.15,2.15,0,0,0,2.08-1.12,9,9,0,0,0,1.35-3.77c.42-2.61-.08-7.85-3.81-7.95C372.68,154.8,370.87,158.77,371.17,161Z"/><path class="cls-2" d="M356,170.87a3.82,3.82,0,0,0,3.55,2.64c4.4-.36,7.46-8.61,2.28-10.2C357.24,161.91,354.74,167.06,356,170.87Z"/><path class="cls-2" d="M355.65,157.06c-.25,1.05,0,2.4,1,2.8a2.76,2.76,0,0,0,1.18.12c2-.09,4.26-.54,5.12-2.32a6,6,0,0,0,.43-2.07C363.79,149.43,356.56,153.26,355.65,157.06Z"/><path class="cls-2" d="M353.54,148.59a3.55,3.55,0,0,1-1.72-.36c-1-.57-1.18-1.86-1.17-3a4.12,4.12,0,0,1,.42-2c.82-1.41,2.87-1.59,4.36-.93a20.63,20.63,0,0,1,3.91,2.9c1.41,1.08,3.73,1.57,1.63,3C359.36,149.33,355.38,148.68,353.54,148.59Z"/><path class="cls-5" d="M245.67,151.44a48.37,48.37,0,0,1-.09,6.14,2.88,2.88,0,0,1-.67,1.92,3.19,3.19,0,0,1-1.85.63,12.94,12.94,0,0,0-8.19,4.56,10.21,10.21,0,0,0-1.94,9c.61,2.13,2.41,4.19,4.61,4.05a6.68,6.68,0,0,0,2.62-.92,18,18,0,0,0,5-3.48,9.7,9.7,0,0,0-.33-13"/><path class="cls-2" d="M249.17,180.87c1.12,1.37,3.21,1.62,4.61,2.29a6.49,6.49,0,0,0,6.57-.27c6.9-4.92.68-13.4-5.41-14.34S245.51,176.37,249.17,180.87Z"/><path class="cls-2" d="M213.46,95.34c-2.58-.76-5.17-3.16-4.45-5.75a1.75,1.75,0,0,1,.84-1.16,2.29,2.29,0,0,1,1.07-.15c2.68.08,11.08.11,11.83,4S216,96.08,213.46,95.34Z"/><path class="cls-2" d="M211.14,76.93a20,20,0,0,0-8.74-2.68c-1.45-.09-3.28,0-3.82,1.39-.43,1.06.22,2.34-.28,3.35-.21.43-.6.78-.62,1.25s.61,1,1.14,1.29l3.25,1.69c1.83,1,4,1.91,5.87,1,2.28-1.06,2.64-4.08,2.7-6.59"/><path class="cls-2" d="M214.3,73.74a15.29,15.29,0,0,1-3.75-5.8,3.43,3.43,0,0,1-.24-2A3.31,3.31,0,0,1,212,64.11a10,10,0,0,1,5.79-1.26,2.45,2.45,0,0,1,1.22.36,2.86,2.86,0,0,1,.93,2.14c.25,1.84,1.45,5.2.11,6.75s-4.1.13-5.51,2.71l-1.91,3.51c-.69,1.26-1.32,3-.29,4,1.42,1.37,4.23-.39,5.61,1a4.18,4.18,0,0,1,.72,1.35,8.76,8.76,0,0,0,9.06,5.18,1.61,1.61,0,0,0,1.22-.6,1.83,1.83,0,0,0,.19-.93,5.62,5.62,0,0,0-.64-3.4c-1-1.5-3.34-1.77-4.23-3.36s0-3.47-.27-5.2a4,4,0,0,0-4.75-3"/><path class="cls-2" d="M231,53.78a5.21,5.21,0,0,1,4.79-.72c6.37,2.72,6.5,18.83-1.88,19.69C223.64,73.81,224.64,57.92,231,53.78Z"/><path class="cls-2" d="M257,90.2a7.11,7.11,0,0,0,3-4.08c1.71-6.34-3.91-7.16-8.57-5.52a84.68,84.68,0,0,1-12.93,3.54c-3.59.7-6.32,2.76-6.53,6.82,8,1.76,15.58-.29,23.52.08,5.59.26,10.26,8.87,5.62,13.47a7.7,7.7,0,0,1-2.73,1.58c-2.66,1-5.78,1.26-8.21-.19-3.62-2.16-13.19-10,4-15.2"/><path class="cls-2" d="M254.18,80.38c.54-1.84.15-5.34.08-7.26a3.54,3.54,0,0,0-.47-1.87c-.73-1-2.24-1.13-3.52-1.06a11,11,0,0,0-4.73,1.06c-4.41,2.44-3.41,14.29-8.58,14.29"/><path class="cls-2" d="M97.53,159.56c-2.57-1.13-3.83.93-5.64,3.07a6.76,6.76,0,0,0-.51,7.83c2.2,3.4,7,4,11,3.46a4.64,4.64,0,0,0,1.51-.41,3.87,3.87,0,0,0,1.54-1.71c2.65-5-1.56-12.11-7.22-12.19"/><path class="cls-2" d="M323,194c-4.61-2.18-6.09.89-8.72,5.26a18.68,18.68,0,0,0-2.34,9.93,6.44,6.44,0,0,0,4.61,6.14l3.24.94c1.41.41,3.11.76,4.21-.22a4.38,4.38,0,0,0,1-1.86c1.19-3.24,2.38-6.56,2.42-10s-1.28-7.11-4.18-9"/><path class="cls-2" d="M331.29,243.5a13.65,13.65,0,0,0,1.49,7.92,11.45,11.45,0,0,0,6.15,5.2,3.09,3.09,0,0,0,2.61,0,3.56,3.56,0,0,0,1.24-2.18c.88-3.19,1.69-6.56.93-9.78C342,237.65,332.18,234.14,331.29,243.5Z"/><path class="cls-2" d="M320.82,247.66a21.08,21.08,0,0,0-5.9,5,6.16,6.16,0,0,0-1.81,3.19c-.3,2.54,2.38,4.43,4.87,5a6.41,6.41,0,0,0,2.85.14,8.23,8.23,0,0,0,3.83-2.63c2.25-2.28,7.56-6.42,5.4-10.06C328.27,245.27,323.34,246.36,320.82,247.66Z"/><path class="cls-2" d="M331.9,277.55a6.92,6.92,0,0,0,3.15,4.52c1.55,1.08,3.32,1.8,4.95,2.76a3.05,3.05,0,0,1,1.05.9,2.76,2.76,0,0,1,.29,1.63,9.06,9.06,0,0,1-14.88,6.38,3.13,3.13,0,0,1-1.35-2.44,6.66,6.66,0,0,1,.43-1.49c.54-1.73-.11-3.64.39-5.38,1.5-5.24,7.68-7.94,9.39-13.31,1.51-4.73-1-11.69-5.66-14.17-3.32-1.79-5.65.22-6.61,3.57-.74,2.55,1.29,2.35-1.49,4.07-1.5.93-3.79.44-5.41,1.33-2.69,1.48-3.4,5-3.38,8.07a3.57,3.57,0,0,0,.31,1.68,3.75,3.75,0,0,0,1.83,1.38c3.48,1.62,7.48,3.26,11,1.79a14.18,14.18,0,0,0,3.7-2.61c.94-.83,2-1.6,2.9-2.38,1.52-1.27,6.08-2.09,6.51-4,.37-1.69-.81-3.31-1-5a9.33,9.33,0,0,1,.54-3.83c1.44-5,3.47-5.69,7.09-3.41,1.56,1,2.11,1.77,4,2.46,2.57.94,5.12.64,7.2,2.82a12.59,12.59,0,0,1,2.52,5.3,9.46,9.46,0,0,1,.53,3.05c-.13,2.95-2.8,5-4.33,7.56a35.18,35.18,0,0,1-2.33,4.16c-1,1.25-2.72,2.13-4.18,1.5a5.1,5.1,0,0,1-2.24-2.86l-2.15-4.78c-.29-.65-2.12.68-2.67,1.13a10.18,10.18,0,0,0-1.3,1.68,3.89,3.89,0,0,1-3.86,1.32C335.43,280.56,332.19,279,331.9,277.55Z"/><path class="cls-2" d="M337.67,294.69c1.33,1.24,5.43,4.32,6.09,6,.55,1.44.94,3.14,2.27,3.92a5.27,5.27,0,0,0,1.79.56c2.51.46,5.22.83,7.5-.31,2.79-1.4,4.1-4.65,4.68-7.71a29.49,29.49,0,0,0,.5-6.95,6.57,6.57,0,0,0-.57-2.74c-1.3-2.51-16.24-7.43-21.4,8.07"/><path class="cls-2" d="M364.35,268c-10.33-3.45-16.54-18.15-3-14.85,1.91.46,4-.09,5.71.92,2.68,1.62,3.56,5,4.22,8.06a3.77,3.77,0,0,1,.1,1.7,3.32,3.32,0,0,1-1.15,1.6,13.12,13.12,0,0,1-6.12,3"/><path class="cls-2" d="M365.53,267.82a.39.39,0,0,1,.36-.15c3.26.46,6.55,1.62,8.8,4s3.17,6.43,1.37,9.27a9.4,9.4,0,0,1-1.65,1.86,44.94,44.94,0,0,1-3.84,3,10.37,10.37,0,0,1-4.64,2.05,4.24,4.24,0,0,1-4.31-2.14c-.83-1.89.06-4.67-1.69-5.76a3.81,3.81,0,0,0-1.53-.44c-1.37-.19-2.75-.33-4.14-.43a1.07,1.07,0,0,1,.21-1.07,3.31,3.31,0,0,1,.89-.73,12.22,12.22,0,0,0,4.36-4c.37-.66.62-1.38,1-2.05a3.88,3.88,0,0,1,1.46-1.69,14.67,14.67,0,0,1,1.72-.62A4.48,4.48,0,0,0,365.53,267.82Z"/><path class="cls-2" d="M377.14,270.37a3.28,3.28,0,0,0,4.19-.92,6.28,6.28,0,0,0,.8-1.88l2.35-7.82a2,2,0,0,0,0-1.48,1.85,1.85,0,0,0-.85-.68c-11.76-5.94-17.59,4.64-7.28,12.14"/><path class="cls-2" d="M318.73,39.58a15,15,0,0,1-.24-4.95,5.79,5.79,0,0,1,2.54-4.1c2.26-1.34,5.24-.38,7.32,1.23a12.87,12.87,0,0,1,5.07,10.51c-.16,3.94-2.87,9.35-7.55,8.73C320.84,50.33,319.43,43.63,318.73,39.58Z"/><path class="cls-2" d="M335.38,48.72a10.29,10.29,0,0,1,7.11-5.59,1.47,1.47,0,0,1,.75,0,1.45,1.45,0,0,1,.61.68,16,16,0,0,1,1.35,3.32,8.59,8.59,0,0,1,.34,3.26,8,8,0,0,1-4.34,5.79c-1.83,1-5.89,3-7.2.88C332.85,55.17,334.49,50.48,335.38,48.72Z"/><path class="cls-2" d="M344.85,57.08c.95-.39,1.23-1.55,1.67-2.47a5.39,5.39,0,0,1,9.47-.52,10,10,0,0,1,1.15,4.49,1.38,1.38,0,0,1-.08.78,1.45,1.45,0,0,1-.89.59,43.51,43.51,0,0,1-6.93,1.69"/><path class="cls-2" d="M345.05,60.07c1.09,1.29.27,3.39,1.1,4.86.23.41.57.74.81,1.13,3.13,5-8.08,9.14-10.42,3.35C334.91,65.36,340.88,55.13,345.05,60.07Z"/><path class="cls-2" d="M354.11,72.26a7.24,7.24,0,0,1,4.68,2.61c1.29,1.44,2.22,3.43,1.68,5.27a5,5,0,0,1-4.73,3.2c-2.76.08-8.81-2.06-9.35-5.19C345.77,74.56,351.25,72,354.11,72.26Z"/><path class="cls-2" d="M339.66,81.66a7.09,7.09,0,0,0-4.25-.66,1,1,0,0,0-.59.27.79.79,0,0,0-.15.42c-.27,2.16,1.46,4,3.06,5.47s3.48,3,5.5,2.42a6.2,6.2,0,0,0,1.77-.91A3.38,3.38,0,0,0,346.57,87c.34-1.23-.74-2.37-1.78-3.1a20.5,20.5,0,0,0-6-2.89"/><path class="cls-2" d="M298.06,85.65a3.79,3.79,0,0,1-1.25-1.3,4,4,0,0,1-.29-1.62c-.06-1.66,0-3.65,1.47-4.49a4.41,4.41,0,0,1,1.76-.45,10.58,10.58,0,0,1,4.34.38c2.7.93,9.26,5.07,7.29,8.62C308.74,91.56,301,87.81,298.06,85.65Z"/><path class="cls-2" d="M308.21,76.19a4.55,4.55,0,0,1-.86-2.57c0-1.16.76-2.22.79-3.38.05-1.93-1.77-3.51-1.76-5.44a1.89,1.89,0,0,1,.35-1.16,2.6,2.6,0,0,1,1.51-.76,22.64,22.64,0,0,1,5.91-.63,6.06,6.06,0,0,1,2.83.6,5.53,5.53,0,0,1,1.64,1.52,7.15,7.15,0,0,1,1.82,4.83,11.38,11.38,0,0,1-.61,2.48c-.74,2.43.06,8.15-2.79,9.22S309.63,78.36,308.21,76.19Z"/><path class="cls-2" d="M317.77,50.36a3.81,3.81,0,0,0-1.19-1,4.18,4.18,0,0,0-1.47-.36,11.77,11.77,0,0,0-5.13.64,5.17,5.17,0,0,0-2.79,2,6.46,6.46,0,0,0-.55,3.6,4.49,4.49,0,0,0,.24,1.55c1,2.56,7.7,4.41,10.1,3.16C320.29,58.25,319.83,52.83,317.77,50.36Z"/><path class="cls-2" d="M328.32,79.49a38.52,38.52,0,0,1-7.12-.24l4.57-.19a10.27,10.27,0,0,0,2.82-.39c2.2-.76,3.58-2.89,4.78-4.88a3.22,3.22,0,0,0,.52-1.26,3.58,3.58,0,0,0-.27-1.47,10.53,10.53,0,0,1-.36-4.39,11.06,11.06,0,0,0,.25-2.74A7.11,7.11,0,0,0,332,60.85c-1.38-2-2.87-4.06-5.07-5s-5.32-.38-6.2,1.87c-.7,1.8.23,3.77,1,5.52s1.47,3.93.37,5.51c-.34.48-.81.85-1.17,1.3-1.22,1.5-1.13,3.64-.94,5.56a3.89,3.89,0,0,0,.55,1.9,1.36,1.36,0,0,0,1.75.48"/><path class="cls-2" d="M711,54.13A2.9,2.9,0,0,1,709,55.19a9.85,9.85,0,0,1-7.87-1.82,6,6,0,0,1-2.24-3.11A3.36,3.36,0,0,1,700,46.75a5.66,5.66,0,0,1,1.59-.7,7.71,7.71,0,0,1,4.4-.48,5.11,5.11,0,0,1,3.23,3.72c.43,1.66,3,3.56,2.84,5.26"/><path class="cls-2" d="M719.94,47.08a1.21,1.21,0,0,1,.9.2,1.28,1.28,0,0,1,.3.92c.17,3.32-2.9,13.29-8.12,8.65C708.85,53.15,716.45,47.31,719.94,47.08Z"/><path class="cls-2" d="M729.58,64a2.21,2.21,0,0,1,1.32.5,2.63,2.63,0,0,1,.52,2L731.34,70a2.39,2.39,0,0,1-.27,1.27,2.42,2.42,0,0,1-1.9.79q-5.79.57-11.53,1.35a8.06,8.06,0,0,1-7.94-3.7l-1.77-2.85c-2.44-3.93.42-3.46,3-4.46,1.53-.59,3.74-2.54,5.3-2.72,2.85-.33,3.07,1.92,5.09,3.22C724,64.66,726.51,63.63,729.58,64Z"/><path class="cls-2" d="M706.9,76.93c.35.85-1.56,1.89-1.52,2.8a2.4,2.4,0,0,1-.39,1.64,2.87,2.87,0,0,1-2.22.71c-1.58,0-3.37,0-4.46-1.15a5.57,5.57,0,0,1-1.06-2l-.78-2.09c-.6-1.59-1.09-3.67.22-4.75a2.94,2.94,0,0,1,2.58-.42,14,14,0,0,1,2.48,1.08,15.09,15.09,0,0,0,6.54,1.43c-1.28.63-.11,2.1-1.39,2.73"/><path class="cls-4" d="M707.68,86.22c.8,1.46,2.76,1.71,4.42,1.78l3.79.16c1.74.08,3.65.1,5-1,1.77-1.4,1.86-4,1.81-6.25a5.42,5.42,0,0,0-.59-2.8,4.07,4.07,0,0,0-1.68-1.33c-2.48-1.18-7.5-2-10.11-.66S706.38,83.87,707.68,86.22Z"/><path class="cls-2" d="M723.09,79.62A8.73,8.73,0,0,1,727.71,78a1.61,1.61,0,0,1,.95.18,1.69,1.69,0,0,1,.55,1,34.45,34.45,0,0,1,1,4.93,2.19,2.19,0,0,1,0,1,1.53,1.53,0,0,1-.67.81c-4.15,2.31-10.65-2.33-7.11-5.54"/><path class="cls-4" d="M698.83,83.72a2.77,2.77,0,0,0-1.31.18,2.58,2.58,0,0,0-.85.76,5.24,5.24,0,0,0-1.28,3.42A5,5,0,0,0,697,91.35a14.56,14.56,0,0,0,3.09,2.11,9.1,9.1,0,0,0,3.4,1.29,3.23,3.23,0,0,0,3.16-1.42,4.87,4.87,0,0,0,.43-1.86C707.56,86.3,703.79,84,698.83,83.72Z"/><path class="cls-4" d="M711.74,105.32c5.44-1.3,3-10.16-2-9.65C704.17,96.24,706.23,106.63,711.74,105.32Z"/><path class="cls-2" d="M731.48,83.08,732.7,83a4.69,4.69,0,0,1,2.47.27,3.19,3.19,0,0,1,1.52,2.08,9.68,9.68,0,0,1,.17,2.64,1.77,1.77,0,0,1-.15.79,1.54,1.54,0,0,1-.7.58c-2.63,1.27-6-.32-8.62,1a4.34,4.34,0,0,1-1.79.71c-1,0-1.68-1-2.17-1.86a3.14,3.14,0,0,1-.58-2.26"/><path class="cls-2" d="M737.32,90.11a.59.59,0,0,1,.88.11,1.74,1.74,0,0,1,.26,1l.1,1.78a6.32,6.32,0,0,1-.28,2.91c-.83,1.92-3.3,2.53-5.37,2.26s-4-1.16-6.11-1.28a13.85,13.85,0,0,1-3.16-.2,7.47,7.47,0,0,1-2.14-1.18c-2.1-1.46-2.55-8.23-.83-9.95"/><path class="cls-2" d="M733.91,103.44a6,6,0,0,1,5.19,3.65,11,11,0,0,1,.54,4.24,2.87,2.87,0,0,1-.61,2.11,2.61,2.61,0,0,1-1.43.56c-1.35.22-10-2.64-4.88-9.53"/><path class="cls-2" d="M708.62,106.2c.48-13.46,23.75-16.52,24,.36,0,2.09.58,4.38-.66,6.06a6.81,6.81,0,0,1-3,2.07,17.43,17.43,0,0,1-12.1.74c-3.91-1.34-7.23-4.72-7.85-8.81"/><path class="cls-2" d="M731.25,116.49c1.35,1.63,1.49,3.91,1.57,6,0,1.31,0,2.85-1.05,3.65a4.13,4.13,0,0,1-2.46.58,5.78,5.78,0,0,1-2.42-.27,5.85,5.85,0,0,1-2.51-2.73c-.74-1.26-3.71-8.94,6.62-7.22"/><path class="cls-2" d="M717.36,118.63a21.58,21.58,0,0,1-.75,9.48,2.41,2.41,0,0,1-.66,1.2,2.52,2.52,0,0,1-1.63.37h-3.38a3.45,3.45,0,0,1-1.5-.23,3.34,3.34,0,0,1-1.4-1.85,22.45,22.45,0,0,1-2.22-7.93c-.33-9,9.28-7.63,11.41-1.41"/><path class="cls-2" d="M703.16,112.41c-.11.71-.12,1.44-.27,2.15a5.46,5.46,0,0,1-6.87,4.15,4.17,4.17,0,0,1-1.65-.87,5.54,5.54,0,0,1-1.48-3.46,16.36,16.36,0,0,1-.15-2.71,3.43,3.43,0,0,1,.35-1.68,3.55,3.55,0,0,1,1.52-1.24,16.2,16.2,0,0,1,8.55-2C707.2,107.22,703.56,110,703.16,112.41Z"/><path class="cls-2" d="M111.24,299.53a11.87,11.87,0,0,0-3.42.47,4,4,0,0,0-2.52,2.21,18,18,0,0,0-.4,3.22c-.28,1.51-4.21,5.06-5.65,5.61"/><path class="cls-2" d="M114.75,293.83a31.9,31.9,0,0,0-5.53.19"/><path class="cls-5" d="M106.13,292.72a11,11,0,0,1,.08-3.39,3.92,3.92,0,0,1,1.91-2.7"/></pattern></defs><g id="cintilla_esporotricosis" data-name="cintilla esporotricosis"><rect class="cls-10" width="768" height="700"/><rect class="cls-11" width="768" height="700"/></g></svg>