<svg xmlns="http://www.w3.org/2000/svg" xmlns:xlink="http://www.w3.org/1999/xlink" viewBox="0 0 2560 699"><defs><style>.cls-1{fill:none;}.cls-2{fill:#3527a2;}.cls-13,.cls-17,.cls-2,.cls-23,.cls-28,.cls-31,.cls-32,.cls-36,.cls-37,.cls-38{stroke:#180982;stroke-linecap:round;stroke-linejoin:round;stroke-width:2px;}.cls-3{fill:#4933b5;}.cls-4{fill:#180982;}.cls-5{fill:#513bc1;}.cls-6{fill:#6c40d2;}.cls-7{fill:#6544cc;}.cls-8{fill:#6037c8;}.cls-9{fill:#6742cd;}.cls-10{fill:#6842d3;}.cls-11{fill:#7345da;}.cls-12{fill:#6037ca;}.cls-13{fill:#6a3cd6;}.cls-14{fill:#5c42c7;}.cls-15{fill:#7943d8;}.cls-16{fill:#8953ea;}.cls-17{fill:#7945df;}.cls-18{fill:#7746dd;}.cls-19{fill:#6c37d0;}.cls-20{fill:#6044c7;}.cls-21{fill:#6f43d6;}.cls-22{fill:#5831c2;}.cls-23{fill:#7a55e9;}.cls-24{fill:#593cc5;}.cls-25{fill:#6647cc;}.cls-26{fill:#7044d7;}.cls-27{fill:#4830ba;}.cls-28{fill:#8a4de0;}.cls-29{fill:#693dd6;}.cls-30{fill:#7548d6;}.cls-31{fill:#8549ea;}.cls-32{fill:#854fe3;}.cls-33{fill:#7a44db;}.cls-34{fill:#5533c9;}.cls-35{fill:#8847e9;}.cls-36{fill:#452fb0;}.cls-37{fill:#5d31c1;}.cls-38{fill:#773ed9;}.cls-39{fill:#9452ef;}.cls-40{fill:#8c4beb;}.cls-41{fill:url(#CANDIDA_AURIS);}</style><pattern id="CANDIDA_AURIS" data-name="CANDIDA AURIS" width="920.83" height="589.7" patternUnits="userSpaceOnUse" viewBox="0 0 920.83 589.7"><rect class="cls-1" width="920.83" height="589.7"/><path class="cls-2" d="M-36.06,545.79c-1.86-2.83-1.33-6.72.41-9.62s4.48-5,7.16-7.1a31.26,31.26,0,0,1,8.06-5,21.31,21.31,0,0,1,6.68-1.16c13.56-.41,27.12,8.73,31,21.75a21.33,21.33,0,0,1,.94,7.05,24.55,24.55,0,0,1-2,8C13,567.32,7.4,574.23-.22,577.41s-17.3,2-22.92-4.11"/><path class="cls-3" d="M-12.5,481a29,29,0,0,1-13.15-3.55c-14.48-7.5-23.57-23.22-22.6-39.12a1,1,0,0,1,.59-.86,1,1,0,0,1,.41-.08,1,1,0,0,1,.63.22c1.27,1,2.59,2,3.83,2.82a15.88,15.88,0,0,0,9,2.89,12.17,12.17,0,0,0,8.89-3.59,13.18,13.18,0,0,0,3.36-10c-.21-5.12-3-10.39-7.63-14.45a18.82,18.82,0,0,0-3.06-2.21,1,1,0,0,1-.51-.87,1,1,0,0,1,.51-.88,23.7,23.7,0,0,1,11.45-3.08c.43,0,.87,0,1.3,0,5.58.37,10.69,2.82,15.37,5.43a60.44,60.44,0,0,1,11,7.52c12.12,10.88,15.37,29.39,7.41,42.15-2.56,4.14-6.3,7.89-11.74,11.81A30.11,30.11,0,0,1-8,480.48,19.67,19.67,0,0,1-12.5,481Z"/><path class="cls-4" d="M-20.81,409.28a22.62,22.62,0,0,0-11,3,20.54,20.54,0,0,1,3.23,2.33c4.41,3.86,7.73,9.3,8,15.16.38,9.38-6,14.58-13.24,14.58a17,17,0,0,1-9.54-3.06c-1.33-.92-2.64-1.86-3.89-2.87-.93,15.23,7.91,30.84,22.07,38.17A27.9,27.9,0,0,0-12.5,480a18.73,18.73,0,0,0,4.28-.48,29,29,0,0,0,10.14-5.1c4.44-3.18,8.61-6.88,11.48-11.52,8-12.75,4-30.83-7.22-40.87a58.77,58.77,0,0,0-10.81-7.4c-4.67-2.6-9.63-4.95-14.94-5.3-.41,0-.83,0-1.24,0m0-2c.45,0,.91,0,1.37.05,5.78.37,11,2.88,15.79,5.55a60.81,60.81,0,0,1,11.16,7.65C20,431.72,23.31,450.79,15.1,464,12.46,468.2,8.65,472,3.08,476c-2.8,2-6.56,4.43-10.84,5.42a21.13,21.13,0,0,1-4.74.53,30,30,0,0,1-13.6-3.66c-14.84-7.68-24.14-23.79-23.15-40.07a2,2,0,0,1,1.19-1.71,1.9,1.9,0,0,1,.81-.17,2,2,0,0,1,1.26.44c1.25,1,2.61,2,3.76,2.78a14.93,14.93,0,0,0,8.41,2.71A11.17,11.17,0,0,0-25.65,439a12.22,12.22,0,0,0,3.08-9.21c-.2-4.85-2.85-9.86-7.27-13.72A17.94,17.94,0,0,0-32.75,414a2,2,0,0,1-1-1.75,2,2,0,0,1,1-1.74,24.58,24.58,0,0,1,11.93-3.21Z"/><path class="cls-5" d="M75.31,466.93c-7.44,0-14.39-3.71-17.7-9.45a24.3,24.3,0,0,1-2.85-9.84c-1.35-13.53,4.9-28.07,15.91-37a18.81,18.81,0,0,1,12.09-4.5c6.23,0,13.13,3.09,20.51,9.21,3.72,3.07,5.77,6.12,6.26,9.32.42,2.76-.33,5.44-1.2,8.16-2.16,6.76-5,14.57-10,21.18C93,461,86,465.53,78.66,466.67A21.84,21.84,0,0,1,75.31,466.93Z"/><path class="cls-4" d="M82.76,407.1a17.7,17.7,0,0,0-11.45,4.27C60.76,420,54.4,433.9,55.76,447.54A23.49,23.49,0,0,0,58.48,457c3.33,5.78,10.12,8.95,16.83,8.95a20.11,20.11,0,0,0,3.2-.25c7.64-1.18,14.33-6.14,19-12.32s7.52-13.5,9.88-20.87c.8-2.5,1.56-5.12,1.16-7.71-.54-3.54-3.14-6.42-5.9-8.7-6.09-5-13-9-19.88-9m0-2c6.46,0,13.58,3.17,21.15,9.44,3.92,3.24,6.08,6.49,6.61,9.94.45,3-.36,5.89-1.23,8.62-2.19,6.84-5.12,14.74-10.2,21.47-5.48,7.26-12.68,11.91-20.28,13.09a22.54,22.54,0,0,1-3.5.27c-7.79,0-15.08-3.91-18.56-9.95a25,25,0,0,1-3-10.24c-1.41-14.07,4.83-28.6,16.27-37.92a19.81,19.81,0,0,1,12.72-4.72Z"/><path class="cls-6" d="M63.57,583.84c-7.52,0-14.6-3.13-18.94-8.38-5.62-6.81-6.05-17.26-1-23.8,3.09-4,7.52-6.11,11.8-8.16l.57-.27a47.17,47.17,0,0,0,5.09-3.11A33.63,33.63,0,0,1,68,536.21a10.1,10.1,0,0,1,3.39-.57c6.56,0,13.54,5.93,16.49,11.66A24.74,24.74,0,0,1,87,570.59a27.41,27.41,0,0,1-19.49,12.95,26.27,26.27,0,0,1-4,.3Z"/><path class="cls-4" d="M71.38,536.64a9.18,9.18,0,0,0-3.06.51c-3.67,1.28-8.11,5.16-11.88,7-4.4,2.11-8.93,4.17-12,8.14-5,6.43-4.21,16.29,1,22.55,4.36,5.29,11.29,8,18.17,8a25.78,25.78,0,0,0,3.83-.28,26.59,26.59,0,0,0,18.78-12.48,23.63,23.63,0,0,0,.8-22.32c-2.7-5.24-9.32-11.12-15.6-11.12m0-2c6.94,0,14.29,6.21,17.38,12.2a25.74,25.74,0,0,1-.86,24.25,28.39,28.39,0,0,1-20.2,13.44,27,27,0,0,1-4.13.31c-7.82,0-15.19-3.27-19.71-8.74-6-7.27-6.44-18-1-25.05,3.23-4.18,7.77-6.35,12.15-8.45l.58-.28a45.52,45.52,0,0,0,5-3,34.37,34.37,0,0,1,7.11-4,11.3,11.3,0,0,1,3.72-.62Z"/><path class="cls-7" d="M118.78,486.17a15.15,15.15,0,0,1-5.18-.88c-6-2.16-9.77-7.84-12.65-13.12-2.16-4-4.15-8.26-4-12.78.09-4.25,2.1-8.71,5.65-12.53,5.74-6.2,12.8-9.76,19.36-9.76a18.67,18.67,0,0,1,3.65.36c3.56.72,6.81,3.2,9.94,7.59a33.57,33.57,0,0,1,6.2,14.56,22.12,22.12,0,0,1-3.27,15.54,24.8,24.8,0,0,1-5,5.25c-4.64,3.72-9.83,5.77-14.62,5.77Z"/><path class="cls-4" d="M121.91,438.1c-7.18,0-13.89,4.32-18.63,9.44-3,3.26-5.28,7.43-5.38,11.87s1.85,8.46,3.93,12.28c2.86,5.25,6.49,10.64,12.11,12.66a14.15,14.15,0,0,0,4.84.82c5,0,10-2.36,14-5.55a23.85,23.85,0,0,0,4.84-5,21,21,0,0,0,3.1-14.82,32.75,32.75,0,0,0-6-14.13c-2.33-3.27-5.38-6.4-9.32-7.19a17.69,17.69,0,0,0-3.45-.34m0-2a19.87,19.87,0,0,1,3.85.38c3.81.77,7.27,3.38,10.55,8a34.45,34.45,0,0,1,6.38,15,23.14,23.14,0,0,1-3.43,16.24,25.83,25.83,0,0,1-5.23,5.47c-4.82,3.86-10.23,6-15.25,6a16.13,16.13,0,0,1-5.52-.94c-6.32-2.27-10.21-8.14-13.18-13.58-2.24-4.09-4.29-8.52-4.18-13.28.1-4.5,2.2-9.19,5.91-13.19,5.94-6.41,13.26-10.08,20.1-10.08Z"/><path class="cls-8" d="M81.18,538.2A17.15,17.15,0,0,1,73,535.74a23.23,23.23,0,0,1-9.2-8.45,14.36,14.36,0,0,1-1.23-12.5c2.35-5.74,10.11-10.41,17.3-10.41a11.4,11.4,0,0,1,9.21,4,60.11,60.11,0,0,1,7.13,11.08,11.1,11.1,0,0,1,1.51,5.71c-.26,3.31-2.81,5.64-5.39,7.74s-5.76,4.69-9.63,5.21a10.41,10.41,0,0,1-1.48.1Z"/><path class="cls-4" d="M79.83,505.38c-6.61,0-14.13,4.31-16.38,9.79a13.45,13.45,0,0,0,1.18,11.62,22.4,22.4,0,0,0,8.81,8.07,16.51,16.51,0,0,0,7.74,2.34,10.05,10.05,0,0,0,1.34-.09c3.49-.47,6.41-2.77,9.14-5,2.3-1.87,4.79-4.08,5-7a10,10,0,0,0-1.41-5.18,58.34,58.34,0,0,0-7-10.9,10.46,10.46,0,0,0-8.43-3.61m0-2a12.35,12.35,0,0,1,10,4.35A60.59,60.59,0,0,1,97.06,519a11.89,11.89,0,0,1,1.62,6.23c-.3,3.7-3.13,6.29-5.76,8.43s-6,4.88-10.13,5.44a12.32,12.32,0,0,1-1.61.1,18.07,18.07,0,0,1-8.7-2.59,24.1,24.1,0,0,1-9.58-8.81,15.39,15.39,0,0,1-1.3-13.39c2.49-6.08,10.67-11,18.23-11Z"/><path class="cls-9" d="M127.28,446.9a8.17,8.17,0,0,1-6.59-3.17c-2-2.65-2.6-6.56-1.51-10.75a25.54,25.54,0,0,1,6.28-10.84c2-2.1,3.78-3.12,5.6-3.12a4.3,4.3,0,0,1,.62,0c2.2.29,3.69,2,5,3.69l5.82,7.44a4.19,4.19,0,0,1,1.06,2.31,4.13,4.13,0,0,1-.86,2.4c-2.06,3.15-4.4,6.72-7.74,9.15A13.29,13.29,0,0,1,127.28,446.9Z"/><path class="cls-4" d="M131.06,420c-1.87,0-3.55,1.39-4.87,2.8a24.8,24.8,0,0,0-6,10.41c-1.91,7.36,1.65,12.67,7.13,12.67a12.32,12.32,0,0,0,7.13-2.66c3.15-2.29,5.35-5.63,7.48-8.89a3.19,3.19,0,0,0,.7-1.81,3.25,3.25,0,0,0-.85-1.73l-5.81-7.44c-1.16-1.48-2.51-3.08-4.38-3.32a3.91,3.91,0,0,0-.49,0m0-2a4.65,4.65,0,0,1,.75.05c2.79.36,4.61,2.68,5.69,4.07l2.95,3.77,2.87,3.67a5.09,5.09,0,0,1,1.27,2.87,5,5,0,0,1-1,3c-2.1,3.23-4.49,6.88-8,9.42a14.31,14.31,0,0,1-8.3,3,9.12,9.12,0,0,1-7.38-3.56c-2.24-2.89-2.85-7.12-1.69-11.61a26.55,26.55,0,0,1,6.52-11.27c2.15-2.32,4.22-3.44,6.33-3.44Z"/><path class="cls-10" d="M116.55,522a21.59,21.59,0,0,1-7.57-1.39A27.78,27.78,0,0,1,96.07,510a12,12,0,0,1-2.13-4.74c-.43-2.63.49-5.52,2.73-8.58,3.69-5,10.5-10.44,16.73-10.44a10,10,0,0,1,3.11.48c7.49,2.44,12.85,10.84,14.84,18.09a14.88,14.88,0,0,1,.34,8,12.16,12.16,0,0,1-6,6.92,18.87,18.87,0,0,1-9.11,2.27Z"/><path class="cls-4" d="M113.4,487.22c-6.08,0-12.65,5.57-15.92,10-1.67,2.28-3,5.05-2.56,7.83a11.31,11.31,0,0,0,2,4.34,26.76,26.76,0,0,0,12.44,10.24,20.69,20.69,0,0,0,7.22,1.32,17.85,17.85,0,0,0,8.62-2.14,11.29,11.29,0,0,0,5.56-6.33,13.65,13.65,0,0,0-.35-7.46c-1.9-6.92-6.95-15.05-14.18-17.4a8.9,8.9,0,0,0-2.8-.43m0-2a11.07,11.07,0,0,1,3.42.53c8.38,2.72,13.58,11.82,15.49,18.77a15.9,15.9,0,0,1,.34,8.56,13.19,13.19,0,0,1-6.51,7.51,19.85,19.85,0,0,1-9.59,2.39,22.61,22.61,0,0,1-7.92-1.45,28.89,28.89,0,0,1-13.39-11A12.9,12.9,0,0,1,93,505.4c-.47-2.91.51-6,2.92-9.33,3.83-5.23,10.95-10.85,17.53-10.85Z"/><path class="cls-11" d="M106.38,583.35a7.89,7.89,0,0,1-.84-.05,10,10,0,0,1-4-1.4,12.66,12.66,0,0,1-5.51-6.28,9.83,9.83,0,0,1,.58-8.44c2.65-4.48,6.81-7.15,11.13-7.15,4.91,0,8.84,3.35,10.51,9,1,3.2,1,7.56-1.82,10.2a12.77,12.77,0,0,1-3.11,2c-2,1-4.37,2.2-7,2.2Z"/><path class="cls-4" d="M107.76,561c-3.74,0-7.67,2.28-10.27,6.66a8.89,8.89,0,0,0-.51,7.57,11.7,11.7,0,0,0,5.09,5.78,9.21,9.21,0,0,0,3.58,1.27c.24,0,.49,0,.73,0,2.27,0,4.46-1.05,6.51-2.08a11.76,11.76,0,0,0,2.88-1.81c2.38-2.24,2.48-6.05,1.54-9.18-1.66-5.57-5.49-8.24-9.55-8.24m0-2c5.29,0,9.69,3.7,11.47,9.67,1,3.48,1,8.26-2.09,11.2a13.72,13.72,0,0,1-3.35,2.15c-2,1-4.59,2.29-7.41,2.29-.31,0-.63,0-.94,0a11.18,11.18,0,0,1-4.38-1.53,13.68,13.68,0,0,1-6-6.8,10.83,10.83,0,0,1,.66-9.3c2.83-4.78,7.32-7.64,12-7.64Z"/><path class="cls-12" d="M108.19,558.34a12.5,12.5,0,0,1-3.91-.62,15.68,15.68,0,0,1-9.55-10A16.68,16.68,0,0,1,97,533.33a10.44,10.44,0,0,1,8.57-4.61c.33,0,.66,0,1,0a15,15,0,0,1,11.52,6.82A16.46,16.46,0,0,1,119.62,550a13.83,13.83,0,0,1-2.09,4A11.81,11.81,0,0,1,108.19,558.34Z"/><path class="cls-4" d="M105.6,529.72c-8.31,0-12.25,10.61-9.92,17.66a14.65,14.65,0,0,0,8.92,9.39,11.47,11.47,0,0,0,3.59.57,10.81,10.81,0,0,0,8.55-3.93,13,13,0,0,0,1.93-3.71c3.24-9.22-2-19-12.16-19.94-.31,0-.61,0-.91,0m0-2a10.24,10.24,0,0,1,1.1,0A15.92,15.92,0,0,1,119,535a17.45,17.45,0,0,1,1.59,15.33,14.77,14.77,0,0,1-2.24,4.26,12.78,12.78,0,0,1-10.13,4.71,13.51,13.51,0,0,1-4.22-.67A16.7,16.7,0,0,1,93.78,548a17.76,17.76,0,0,1,2.44-15.27,11.42,11.42,0,0,1,9.38-5Z"/><path class="cls-13" d="M116.39,521.46a26.48,26.48,0,0,0,5.11,13,11.54,11.54,0,0,0,3.18,3.09c3.29,2,7.71,1,10.77-1.29A9.78,9.78,0,0,0,137.7,534c2.05-3,1.66-7,1-10.64q-.53-2.68-1.22-5.33a12.56,12.56,0,0,0-1.55-3.94,4.71,4.71,0,0,0-3.45-2.22"/><path class="cls-14" d="M150.35,496.52a10,10,0,0,1-3.9-1.27,14.2,14.2,0,0,1-7.85-15.84c1-4.73,7.67-10.13,12.48-10.13h.33a9.18,9.18,0,0,1,3.21.93,20.93,20.93,0,0,1,7.47,5.12,11.06,11.06,0,0,1,2.85,8.84c-.77,4.61-4.91,7.66-8.74,10.16-1.42.93-3.38,2.2-5.57,2.2Z"/><path class="cls-4" d="M151.08,470.28c-4.39,0-10.6,5.14-11.5,9.34a13.28,13.28,0,0,0,7.31,14.74,9.46,9.46,0,0,0,3.51,1.17h.23c1.82,0,3.49-1,5-2,3.62-2.37,7.58-5.22,8.29-9.49a10,10,0,0,0-2.61-8,20.45,20.45,0,0,0-7.13-4.87,8.07,8.07,0,0,0-2.85-.84h-.28m0-2h.38a9.57,9.57,0,0,1,3.56,1,21.71,21.71,0,0,1,7.83,5.38,12,12,0,0,1,3.07,9.65c-.83,5-5.17,8.22-9.17,10.83-1.53,1-3.63,2.37-6.12,2.37h-.33a10.9,10.9,0,0,1-4.29-1.37,15.36,15.36,0,0,1-8.38-16.95c1.11-5.2,8.15-10.92,13.45-10.92Z"/><path class="cls-15" d="M163.66,607a20.17,20.17,0,0,1-5.74-.78c-4.85-1.42-9.24-4.94-13.43-10.77-5.11-7.1-8.1-14.77-8.65-22.18-.48-6.45,1.3-20.84,9.9-24.18a15.18,15.18,0,0,1,5.51-.9c8.67,0,20.41,5,26,8.58,9.56,6.11,17.45,18.72,14.05,31-2.68,9.7-12.15,17.31-23.55,18.92a29.11,29.11,0,0,1-4.06.3Z"/><path class="cls-4" d="M151.25,549.19a14.27,14.27,0,0,0-5.15.83c-7.61,3-9.8,16-9.26,23.18.58,7.83,3.87,15.29,8.46,21.67,3.29,4.57,7.5,8.81,12.9,10.39a19.34,19.34,0,0,0,5.46.74,28.61,28.61,0,0,0,3.92-.29c10.17-1.44,20-8.3,22.73-18.2,3.13-11.31-3.74-23.58-13.62-29.9-5.47-3.5-17-8.42-25.44-8.42m0-2c8.87,0,20.84,5.11,26.51,8.73,9.86,6.31,18,19.37,14.48,32.12-2.79,10.09-12.59,18-24.38,19.65a31.15,31.15,0,0,1-4.2.31,21.42,21.42,0,0,1-6-.82c-5.07-1.49-9.64-5.13-14-11.14-5.22-7.25-8.27-15.1-8.84-22.69-.59-7.93,1.75-21.77,10.53-25.19a16.14,16.14,0,0,1,5.88-1Z"/><path class="cls-16" d="M870.69,542.05a22.47,22.47,0,0,1-3.08-.3c-.64-.09-1.25-.18-1.78-.22-2.22-.14-3.64-.8-4.61-2.14a9,9,0,0,1-1.29-3,25.53,25.53,0,0,1,2.2-18.47c2.34-4.33,5.73-7.33,9.54-8.45a11.08,11.08,0,0,1,3.11-.44,9.86,9.86,0,0,1,8.77,4.72,12.1,12.1,0,0,1,1.31,5.73,23.4,23.4,0,0,1-1.67,9.1,36.5,36.5,0,0,1-8.52,12.16A5.47,5.47,0,0,1,870.69,542.05Z"/><path class="cls-4" d="M874.78,510a10,10,0,0,0-2.83.4c-3.93,1.16-7,4.36-8.94,8a24.55,24.55,0,0,0-2.11,17.73,8.1,8.1,0,0,0,1.13,2.73c.78,1.08,1.93,1.6,3.86,1.73,1.4.09,3.17.51,4.8.51A4.57,4.57,0,0,0,874,540a35.62,35.62,0,0,0,8.28-11.82,22.13,22.13,0,0,0,1.6-8.7,11.21,11.21,0,0,0-1.19-5.26,8.89,8.89,0,0,0-7.89-4.21m0-2a10.83,10.83,0,0,1,9.64,5.24,13.1,13.1,0,0,1,1.44,6.19,24.26,24.26,0,0,1-1.75,9.49,37.69,37.69,0,0,1-8.75,12.52,6.45,6.45,0,0,1-4.67,1.63,23.14,23.14,0,0,1-3.22-.31c-.63-.09-1.22-.18-1.71-.21a6.74,6.74,0,0,1-5.35-2.55,9.79,9.79,0,0,1-1.45-3.39,26.52,26.52,0,0,1,2.29-19.19c2.47-4.57,6.07-7.74,10.13-8.94a12,12,0,0,1,3.4-.48Z"/><path class="cls-2" d="M884.77,545.79c-1.87-2.83-1.34-6.72.4-9.62s4.49-5,7.17-7.1a31.09,31.09,0,0,1,8.06-5,21.31,21.31,0,0,1,6.68-1.16c13.56-.41,27.12,8.73,30.94,21.75a21.6,21.6,0,0,1,1,7.05,24.57,24.57,0,0,1-2,8c-3.13,7.65-8.76,14.56-16.39,17.74s-17.3,2-22.92-4.11"/><path class="cls-17" d="M821.56,567.18a12.4,12.4,0,0,1-8.9-20.28,19.1,19.1,0,0,1,5-4c2.46-1.49,5.3-2.76,8.14-2.26a10.09,10.09,0,0,1,4.1,1.88c3.21,2.3,7.5,7.44,6.2,11.17"/><path class="cls-18" d="M793.2,566.27a12.41,12.41,0,0,1-6.11-1.51,15.24,15.24,0,0,1-4.46-4.06,9.4,9.4,0,0,1-2.25-4.92c-.22-3,1.74-5.45,3.68-7.47a22.06,22.06,0,0,1,5.12-4.21,10.73,10.73,0,0,1,5.14-1.42,8.37,8.37,0,0,1,1.67.16c3,.64,5.32,2.93,7.33,5.3a18.92,18.92,0,0,1,3.5,5.48,7.42,7.42,0,0,1-.2,6.29c-1.78,3.36-6.22,5.05-9.62,5.89A16.07,16.07,0,0,1,793.2,566.27Z"/><path class="cls-4" d="M794.32,543.68a9.71,9.71,0,0,0-4.65,1.29,21.49,21.49,0,0,0-4.89,4c-1.79,1.86-3.59,4.13-3.4,6.7a8.37,8.37,0,0,0,2,4.38,14.4,14.4,0,0,0,4.16,3.81,11.41,11.41,0,0,0,5.62,1.38,15.22,15.22,0,0,0,3.56-.44c5.4-1.33,11.51-4.38,9.12-10.87a17.87,17.87,0,0,0-3.33-5.17c-1.84-2.18-4-4.39-6.76-5a7.32,7.32,0,0,0-1.47-.14m0-2a9.56,9.56,0,0,1,1.87.18c3.35.7,5.77,3.12,7.89,5.64a19.69,19.69,0,0,1,3.68,5.77,8.43,8.43,0,0,1-.25,7.11c-2,3.68-6.67,5.51-10.27,6.39a17.05,17.05,0,0,1-4,.5,13.46,13.46,0,0,1-6.6-1.64,16.28,16.28,0,0,1-4.76-4.32,10.24,10.24,0,0,1-2.46-5.46c-.25-3.4,2-6.19,4-8.23a23.1,23.1,0,0,1,5.36-4.4,11.7,11.7,0,0,1,5.62-1.54Z"/><path class="cls-19" d="M802.44,542.17a12.57,12.57,0,0,1-4.63-1.08,20.17,20.17,0,0,1-9.22-7A12.48,12.48,0,0,1,787,522.57a15,15,0,0,1,3.11-4.56,18.41,18.41,0,0,1,4.91-3.93,13.22,13.22,0,0,1,6.07-1.45,13.19,13.19,0,0,1,13.18,15.06c-.6,4.31-5.58,14.25-11.53,14.47Z"/><path class="cls-4" d="M801.09,513.63a12.1,12.1,0,0,0-5.6,1.34,17.41,17.41,0,0,0-4.65,3.72,14.21,14.21,0,0,0-2.91,4.26,11.51,11.51,0,0,0,1.48,10.6,19.11,19.11,0,0,0,8.78,6.61,11.26,11.26,0,0,0,4.25,1h.26c5-.19,10-9.2,10.58-13.61a12.18,12.18,0,0,0-12.19-13.92m0-2a14.42,14.42,0,0,1,8.28,2.57,14.59,14.59,0,0,1,5.89,13.63c-.72,5.13-6.14,15.09-12.48,15.33h-.34a13.55,13.55,0,0,1-5-1.15,21.11,21.11,0,0,1-9.67-7.35,13.52,13.52,0,0,1-1.69-12.48,16.67,16.67,0,0,1,3.3-4.86,19.67,19.67,0,0,1,5.19-4.14,14.26,14.26,0,0,1,6.53-1.56Z"/><path class="cls-20" d="M860.57,488.09c-3,0-5.94-2.23-8.49-4.32-3.79-3.1-5.76-6.91-5.4-10.43.31-3,2.18-5.47,3.9-7.55a25.3,25.3,0,0,1,6-5.62,11.75,11.75,0,0,1,6-1.81,9.12,9.12,0,0,1,2.35.31,13.28,13.28,0,0,1,5.26,3.27,15.73,15.73,0,0,1,3.95,5.24c1.6,3.87.72,8.76-2.29,12.77-1.8,2.4-6.24,7.16-10.15,8A5.4,5.4,0,0,1,860.57,488.09Z"/><path class="cls-4" d="M862.6,459.36a10.72,10.72,0,0,0-5.5,1.66,24.2,24.2,0,0,0-5.75,5.41c-1.71,2.06-3.4,4.35-3.67,7-.39,3.74,2.13,7.18,5,9.56,2,1.62,5.06,4.09,7.86,4.09a4.23,4.23,0,0,0,.94-.1c3.38-.74,7.58-5,9.56-7.65,2.51-3.34,3.76-7.92,2.16-11.78a14.47,14.47,0,0,0-3.7-4.89,12.09,12.09,0,0,0-4.84-3,7.85,7.85,0,0,0-2.09-.28m0-2a9.92,9.92,0,0,1,2.62.35,14.11,14.11,0,0,1,5.67,3.5,16.55,16.55,0,0,1,4.19,5.59c1.74,4.19.81,9.46-2.41,13.75-2,2.68-6.55,7.48-10.73,8.39a6.19,6.19,0,0,1-1.37.15c-3.31,0-6.45-2.35-9.13-4.55-4.05-3.32-6.15-7.44-5.75-11.3.33-3.28,2.3-5.9,4.12-8.09a26.41,26.41,0,0,1,6.25-5.84,12.69,12.69,0,0,1,6.54-1.95Z"/><path class="cls-21" d="M756.46,557.93a23.85,23.85,0,0,1-6.32-.85,42,42,0,0,1-7.11-2.85,22.77,22.77,0,0,1-5-3.09,22,22,0,0,1-4.1-5.17,36.66,36.66,0,0,1-4.36-9.31,17.69,17.69,0,0,1,.05-10.48,18.79,18.79,0,0,1,4.37-6.81,28.79,28.79,0,0,1,8.63-6.21c4.2-2,8.68-2.57,13-3.12l3.18-.43a13,13,0,0,1,1.9-.14,18.72,18.72,0,0,1,13.39,6c2.08,2.45,3.14,5.59,4,8.33,1.52,5.06,2.84,11,1.11,16.4a27.59,27.59,0,0,1-3.1,6.17,31.81,31.81,0,0,1-3.72,5.05,21.66,21.66,0,0,1-15.86,6.48Z"/><path class="cls-4" d="M760.67,510.47a12.44,12.44,0,0,0-1.75.12c-5.44.81-10.87,1.08-15.93,3.48a28,28,0,0,0-8.33,6,18.1,18.1,0,0,0-4.15,6.45,16.8,16.8,0,0,0,0,9.88,35.29,35.29,0,0,0,4.25,9.05,20.89,20.89,0,0,0,3.91,4.95,22.2,22.2,0,0,0,4.83,2.94,41.24,41.24,0,0,0,6.94,2.79,22.8,22.8,0,0,0,6.05.81,20.73,20.73,0,0,0,15.13-6.16,31.58,31.58,0,0,0,3.61-4.9,26.23,26.23,0,0,0,3-5.94c1.63-5.11.44-10.67-1.11-15.81a21.91,21.91,0,0,0-3.77-8,17.82,17.82,0,0,0-12.63-5.67m0-2a19.78,19.78,0,0,1,14.15,6.38,23.49,23.49,0,0,1,4.16,8.69c1.57,5.2,2.93,11.29,1.11,17a28.26,28.26,0,0,1-3.2,6.39,33.52,33.52,0,0,1-3.84,5.21,22.71,22.71,0,0,1-16.59,6.79,24.65,24.65,0,0,1-6.59-.89,43.34,43.34,0,0,1-7.28-2.91,23.53,23.53,0,0,1-5.26-3.23,22.92,22.92,0,0,1-4.3-5.41,37.41,37.41,0,0,1-4.48-9.57,18.64,18.64,0,0,1,.07-11.06,19.68,19.68,0,0,1,4.59-7.18,29.82,29.82,0,0,1,8.93-6.42c4.35-2.06,8.91-2.65,13.32-3.22,1-.13,2.11-.27,3.16-.42a13.64,13.64,0,0,1,2-.15Z"/><path class="cls-22" d="M775,513.88c-3.58,0-8.17-.38-11.85-3.38a30,30,0,0,1-7.71-9.46,14.26,14.26,0,0,1-.54-11.38,15.36,15.36,0,0,1,7.84-7.74,34.28,34.28,0,0,1,10.48-2.69,28.37,28.37,0,0,1,3.54-.28,12.27,12.27,0,0,1,3.56.48,16,16,0,0,1,6.06,3.9c5.18,4.8,8.06,9.79,8.57,14.81a8.56,8.56,0,0,1-.58,4.51,10.42,10.42,0,0,1-2.22,2.9,54.4,54.4,0,0,1-6.34,5.41,15.11,15.11,0,0,1-3.63,2.1,17.33,17.33,0,0,1-5.66.8Z"/><path class="cls-4" d="M776.8,480a28,28,0,0,0-3.42.27,33.27,33.27,0,0,0-10.17,2.6,14.53,14.53,0,0,0-7.35,7.22,13.21,13.21,0,0,0,.52,10.57,29.32,29.32,0,0,0,7.45,9.11c3.21,2.63,7.23,3.16,11.21,3.16l1.49,0a16.6,16.6,0,0,0,5.35-.74,14.32,14.32,0,0,0,3.38-2,53.41,53.41,0,0,0,6.22-5.32,9.25,9.25,0,0,0,2-2.61,7.62,7.62,0,0,0,.49-4c-.56-5.56-4.15-10.38-8.25-14.18a14.92,14.92,0,0,0-5.67-3.67,11.27,11.27,0,0,0-3.27-.44m0-2a13.18,13.18,0,0,1,3.85.52,17.13,17.13,0,0,1,6.46,4.12c5.36,5,8.34,10.18,8.87,15.45a9.57,9.57,0,0,1-.66,5,11.15,11.15,0,0,1-2.43,3.19,55.51,55.51,0,0,1-6.45,5.51,16.11,16.11,0,0,1-3.87,2.23,18.3,18.3,0,0,1-6,.86l-1.55,0c-3.75,0-8.55-.41-12.48-3.61a31.32,31.32,0,0,1-8-9.8,15.13,15.13,0,0,1-.56-12.19,16.47,16.47,0,0,1,8.34-8.27,35.49,35.49,0,0,1,10.78-2.78,30.22,30.22,0,0,1,3.67-.28Z"/><path class="cls-23" d="M813.67,504.18a26.44,26.44,0,0,1-16.51-16.1c-1.23-3.49,0-7.36-2.44-10.14-2.81-3.2-5.18-7-5.61-11.3a14.38,14.38,0,0,1,23.82-12.22c3.72,3.29,5.53,8,8.46,11.92,2.57,3.43,7.18,4.53,10.36,7.32,4.15,3.64,7.33,8.57,8.1,14s-1.18,11.42-5.55,14.79"/><path class="cls-24" d="M797.89,441.32a21.88,21.88,0,0,1-11-2.83c-7.56-4.41-11-13.2-13-19.43a23.09,23.09,0,0,1-1.35-7.2c0-.68,0-1.39,0-2.13,0-4.33,0-9.23,2.35-12.65,4.22-6.1,8.75-9.94,15.72-15.54a40.66,40.66,0,0,0,3.83-3.66c2.46-2.59,4.79-5,8.83-6.21a19.7,19.7,0,0,1,5.62-.82,16,16,0,0,1,8.95,2.57,26.8,26.8,0,0,1,5.51,5.49c3.09,3.75,6.93,8.42,9,13.79a31.35,31.35,0,0,1-.18,21.74,43.75,43.75,0,0,1-12.69,17.7,37.4,37.4,0,0,1-15.26,8.4,26,26,0,0,1-6.3.78Z"/><path class="cls-4" d="M808.86,371.85a18.83,18.83,0,0,0-5.33.78c-5.71,1.67-7.87,6.11-12.33,9.69-7.34,5.9-11.5,9.52-15.52,15.33-2.57,3.72-2.1,9.7-2.18,14.23a22,22,0,0,0,1.3,6.88c2.33,7.38,5.89,15,12.58,18.87a20.91,20.91,0,0,0,10.51,2.69,25.21,25.21,0,0,0,6.06-.75,36.53,36.53,0,0,0,14.85-8.19,42.65,42.65,0,0,0,12.4-17.28,30.23,30.23,0,0,0,.19-21c-1.95-5-5.41-9.34-8.84-13.52a26,26,0,0,0-5.3-5.29,14.92,14.92,0,0,0-8.39-2.4m0-2a16.93,16.93,0,0,1,9.5,2.74,27.57,27.57,0,0,1,5.73,5.68c3.14,3.81,7,8.56,9.17,14.07a32.42,32.42,0,0,1-.18,22.45,44.81,44.81,0,0,1-13,18.11,38.48,38.48,0,0,1-15.68,8.61,27.43,27.43,0,0,1-6.54.81,22.84,22.84,0,0,1-11.52-3c-7.87-4.58-11.46-13.6-13.47-20a24,24,0,0,1-1.4-7.52c0-.68,0-1.39,0-2.12,0-4.47,0-9.55,2.53-13.22,4.29-6.22,8.88-10.1,15.91-15.75a38.51,38.51,0,0,0,3.73-3.57c2.45-2.57,5-5.22,9.28-6.48a20.9,20.9,0,0,1,5.9-.86Z"/><path class="cls-3" d="M908.33,481a29,29,0,0,1-13.15-3.55c-14.49-7.5-23.57-23.22-22.61-39.12a1,1,0,0,1,.6-.86,1,1,0,0,1,.4-.08,1,1,0,0,1,.63.22c1.27,1,2.59,2,3.83,2.82a15.91,15.91,0,0,0,9,2.89,12.19,12.19,0,0,0,8.89-3.59,13.21,13.21,0,0,0,3.35-10c-.2-5.12-3-10.39-7.62-14.45a18.86,18.86,0,0,0-3.07-2.21,1,1,0,0,1,0-1.75A23.66,23.66,0,0,1,900,408.28c.44,0,.87,0,1.31,0,5.58.37,10.68,2.82,15.36,5.43a60.83,60.83,0,0,1,11,7.52c12.11,10.88,15.36,29.39,7.41,42.15-2.57,4.14-6.3,7.89-11.75,11.81a30,30,0,0,1-10.5,5.25A19.58,19.58,0,0,1,908.33,481Z"/><path class="cls-4" d="M900,409.28a22.58,22.58,0,0,0-11,3,21,21,0,0,1,3.23,2.33c4.41,3.86,7.73,9.3,8,15.16.37,9.38-6,14.58-13.24,14.58a17,17,0,0,1-9.55-3.06c-1.33-.92-2.64-1.86-3.89-2.87-.92,15.23,7.91,30.84,22.07,38.17A27.94,27.94,0,0,0,908.33,480a18.79,18.79,0,0,0,4.28-.48,29.12,29.12,0,0,0,10.14-5.1c4.43-3.18,8.6-6.88,11.48-11.52,7.95-12.75,3.95-30.83-7.23-40.87a59,59,0,0,0-10.8-7.4c-4.68-2.6-9.63-4.95-14.94-5.3-.42,0-.83,0-1.25,0m0-2c.46,0,.92,0,1.38.05,5.77.37,11,2.88,15.78,5.55a60.85,60.85,0,0,1,11.17,7.65c12.46,11.19,15.79,30.26,7.59,43.42-2.64,4.25-6.46,8.09-12,12.09-2.8,2-6.57,4.43-10.85,5.42a21,21,0,0,1-4.73.53,30,30,0,0,1-13.61-3.66c-14.83-7.68-24.13-23.79-23.14-40.07a2,2,0,0,1,1.19-1.71,1.89,1.89,0,0,1,.8-.17,2,2,0,0,1,1.26.44c1.26,1,2.61,2,3.76,2.78a15,15,0,0,0,8.42,2.71,11.17,11.17,0,0,0,8.17-3.29,12.21,12.21,0,0,0,3.07-9.21c-.19-4.85-2.85-9.86-7.26-13.72a18.41,18.41,0,0,0-2.92-2.11,2,2,0,0,1,0-3.49A24.61,24.61,0,0,1,900,407.28Z"/><path class="cls-25" d="M839,466.53c-1.47,0-3-.13-4.3-.24-3.84-.32-8.19-.69-11.83-2.92a23.58,23.58,0,0,1-6-5.85c-5.83-7.45-8.16-15.32-6.54-22.15,4.47-18.89,20.15-19.54,20.31-19.55l9.77-.35a1,1,0,0,1,.57.17l12.13,8.4.18.16c1.64,1.89,6.45,8.09,6.91,11.74.86,6.73,1.34,12.73-1.5,18a24.61,24.61,0,0,1-6.56,7.23c-2.48,2-5.51,4.15-9.09,5A17.9,17.9,0,0,1,839,466.53Z"/><path class="cls-4" d="M840.36,416.47l-9.75.35s-15,.42-19.36,18.78c-1.78,7.55,1.58,15.2,6.36,21.3a22.83,22.83,0,0,0,5.73,5.62c3.37,2.06,7.46,2.45,11.4,2.78,1.39.11,2.81.23,4.21.23a17.59,17.59,0,0,0,3.83-.38c3.25-.74,6.09-2.68,8.69-4.77a23.74,23.74,0,0,0,6.3-6.92c2.81-5.21,2.14-11.53,1.39-17.39-.4-3.12-4.61-8.85-6.67-11.21l-12.13-8.39m0-2a2,2,0,0,1,1.14.35l12.12,8.4a1.65,1.65,0,0,1,.37.33c.07.07,6.56,7.62,7.15,12.26.68,5.33,1.61,12.63-1.61,18.6a25.72,25.72,0,0,1-6.81,7.53c-2.58,2.07-5.72,4.3-9.5,5.16a19.22,19.22,0,0,1-4.27.43c-1.51,0-3-.13-4.38-.24-3.76-.32-8.43-.71-12.28-3.07a24.42,24.42,0,0,1-6.26-6.09c-6-7.69-8.41-15.86-6.72-23,4.64-19.63,21.08-20.31,21.23-20.32l9.75-.35Z"/><path class="cls-26" d="M845.94,428.62a5.52,5.52,0,0,1-5.75-4.51c-1.58-6.47,3.88-19.09,11.63-23.14a6.77,6.77,0,0,1,3.06-.91,3.81,3.81,0,0,1,.59,0c2.32.34,3.65,2.62,4.37,3.85,2.39,4.09,4.82,8.84,3.37,13.48-1.39,4.44-5.67,6.9-9.93,9a17.07,17.07,0,0,1-7.34,2.16Z"/><path class="cls-4" d="M854.89,401.06a5.81,5.81,0,0,0-2.6.8c-9.62,5-16.53,25.76-6.35,25.76a16.2,16.2,0,0,0,6.9-2.05c3.88-1.95,8.12-4.3,9.42-8.44,1.34-4.3-1-8.79-3.28-12.68-.87-1.48-2-3.11-3.65-3.36l-.44,0m0-2a4.48,4.48,0,0,1,.73.05c2.79.41,4.28,3,5.08,4.33,2.5,4.28,5,9.26,3.47,14.29-1.51,4.82-6.18,7.49-10.44,9.63a18.14,18.14,0,0,1-7.79,2.26,6.51,6.51,0,0,1-6.72-5.27c-1.82-7.43,4.65-20.36,12.14-24.26a7.73,7.73,0,0,1,3.53-1Z"/><path class="cls-27" d="M887,445.31a17.9,17.9,0,0,1-10.11-3.24c-1.28-.88-2.64-1.84-4-2.92a25.19,25.19,0,0,1-5.88-6.28c-2.81-4.39-3.33-9.56-1.34-13.49a15.87,15.87,0,0,1,4.21-5c4-3.34,8.44-5.17,12.42-5.17a12.8,12.8,0,0,1,2.57.25,14.83,14.83,0,0,1,4.66,1.88,21.43,21.43,0,0,1,3.35,2.43c5.07,4.42,8.09,10.21,8.32,15.88a15.15,15.15,0,0,1-3.91,11.41A14.11,14.11,0,0,1,887,445.31Z"/><path class="cls-4" d="M882.35,410.25c-4.25,0-8.44,2.17-11.78,4.94a15,15,0,0,0-4,4.65c-2,3.91-1.07,8.81,1.29,12.49a24.87,24.87,0,0,0,5.67,6.05c1.25,1,2.56,1.95,3.89,2.87a17,17,0,0,0,9.55,3.06c7.25,0,13.61-5.2,13.24-14.58-.23-5.86-3.55-11.3-8-15.16a21,21,0,0,0-3.23-2.33,13.72,13.72,0,0,0-4.33-1.76,12,12,0,0,0-2.38-.23m0-2a14.32,14.32,0,0,1,2.78.27,15.93,15.93,0,0,1,4.94,2,22.68,22.68,0,0,1,3.53,2.55c5.26,4.6,8.41,10.65,8.65,16.59a16.13,16.13,0,0,1-4.19,12.14,15.1,15.1,0,0,1-11,4.52,18.88,18.88,0,0,1-10.68-3.42c-1.22-.84-2.66-1.85-4-2.95a26.06,26.06,0,0,1-6.11-6.53c-3-4.69-3.54-10.24-1.4-14.47a16.79,16.79,0,0,1,4.47-5.29c4.21-3.48,8.85-5.4,13.06-5.4Z"/><path class="cls-28" d="M825.45,619.54a42.48,42.48,0,0,1-11.09-24,41.81,41.81,0,0,1,5.4-25.7c4.3-7.33,10.74-13.11,17.33-18.46,4.58-3.71,9.33-7.3,14.68-9.79s11.39-3.84,17.24-2.87c7.25,1.2,13.52,5.77,19,10.72a40.82,40.82,0,0,1,5.56,5.9c5.45,7.42,6.28,17.56,3.63,26.32s-8.4,16.25-15,22.49a87.25,87.25,0,0,1-30.65,18.67"/><path class="cls-29" d="M826.69,525.45a13.64,13.64,0,0,1-11.16-5.94,17,17,0,0,1-2.26-12.39,10.28,10.28,0,0,1,2.61-5.78c1.88-1.84,4.53-2.38,6.67-2.82a18.38,18.38,0,0,1,3.67-.49c.33,0,.65,0,1,.05,3.06.35,5.49,2.36,7.46,4.28,2.26,2.2,4.9,5.22,5.25,9.05.41,4.44-2.39,8.23-4.81,10.63A11.82,11.82,0,0,1,826.69,525.45Z"/><path class="cls-4" d="M826.22,499a17.77,17.77,0,0,0-3.47.47c-2.21.45-4.56,1-6.16,2.56a9.29,9.29,0,0,0-2.33,5.22,16.15,16.15,0,0,0,2.1,11.67,12.59,12.59,0,0,0,10.33,5.49,10.76,10.76,0,0,0,7.7-3.11c2.65-2.62,4.87-6.11,4.53-9.83-.31-3.31-2.57-6.1-5-8.42-1.93-1.89-4.19-3.7-6.87-4a6.35,6.35,0,0,0-.87-.05m0-2a9.69,9.69,0,0,1,1.09.06c3.38.38,6.07,2.63,8.05,4.55,2.19,2.14,5.16,5.48,5.55,9.68.44,4.82-2.53,8.88-5.11,11.43a12.82,12.82,0,0,1-9.11,3.69,14.65,14.65,0,0,1-12-6.37A18,18,0,0,1,812.29,507a11.11,11.11,0,0,1,2.89-6.32c2.08-2.05,5-2.65,7.17-3.09a19.17,19.17,0,0,1,3.87-.51Z"/><path class="cls-4" d="M-11.6,126.21c-4.74,0-9.79,3-12.69,6.63a13.25,13.25,0,0,0-2.28,4,12.24,12.24,0,0,0,1.22,10,17.17,17.17,0,0,0,7.75,6.71,10.75,10.75,0,0,0,4.44,1.14,7.26,7.26,0,0,0,.93-.06,10.92,10.92,0,0,0,5.44-3,18.35,18.35,0,0,0,3.43-3.83,14.47,14.47,0,0,0,1.09-12.13c-1.45-4.33-4.33-9.38-9.12-9.47h-.21m0-2h.25c4.77.09,8.67,3.94,11,10.84a16.44,16.44,0,0,1-1.3,13.82,20.08,20.08,0,0,1-3.79,4.27,12.93,12.93,0,0,1-6.49,3.47,9.58,9.58,0,0,1-1.21.08,12.68,12.68,0,0,1-5.28-1.32,19.11,19.11,0,0,1-8.64-7.52,14.22,14.22,0,0,1-1.38-11.68,15.19,15.19,0,0,1,2.62-4.59c3-3.67,8.52-7.37,14.24-7.37Z"/><path class="cls-30" d="M40.59,51.19c-7.93,0-16.4-4-22.67-10.72A20.25,20.25,0,0,1,12.56,31c-1.45-6.95,2.49-14.74,9.59-18.94C26.94,9.22,33,7.85,40.54,7.85c1,0,1.94,0,2.9.06A21.52,21.52,0,0,1,51.8,9.52a16.1,16.1,0,0,1,5.69,4.7,23.68,23.68,0,0,1-.35,29.1A21,21,0,0,1,40.59,51.19Z"/><path class="cls-4" d="M40.54,8.85c-6.23,0-12.55.91-17.88,4.07-6.14,3.64-10.58,10.88-9.12,17.87a19.38,19.38,0,0,0,5.11,9c5.73,6.14,14,10.41,21.94,10.41a20,20,0,0,0,15.78-7.51,22.71,22.71,0,0,0,.34-27.84,15.31,15.31,0,0,0-5.34-4.42,20.69,20.69,0,0,0-8-1.51c-.95,0-1.9-.06-2.86-.06m0-2c.94,0,1.93,0,2.94.06a22.37,22.37,0,0,1,8.74,1.7,17.1,17.1,0,0,1,6.05,5A24.71,24.71,0,0,1,57.91,44a22,22,0,0,1-17.32,8.22c-8.2,0-17-4.13-23.4-11a21.29,21.29,0,0,1-5.61-9.95c-1.54-7.36,2.6-15.58,10.06-20,4.95-2.93,11.13-4.35,18.9-4.35Z"/><path class="cls-31" d="M-3.85,106l5.68-4.46c3-2.35,6.48-4.84,10.23-4.17,3.23.57,5.55,3.33,7.58,5.9l3.42,4.32a14.51,14.51,0,0,1,2.2,3.41,9.22,9.22,0,0,1-.84,7.78,20.78,20.78,0,0,1-5.47,5.9c-3.54,2.8-7.87,5.3-12.32,4.53s-7.62-4.5-10.44-8l-3.3-4.09"/><path class="cls-15" d="M163.66,17.3a20.53,20.53,0,0,1-5.74-.77c-4.85-1.43-9.24-5-13.43-10.77-5.11-7.1-8.1-14.77-8.65-22.19-.48-6.44,1.3-20.83,9.9-24.18a15.18,15.18,0,0,1,5.51-.9c8.67,0,20.41,5,26,8.58,9.56,6.11,17.45,18.72,14.05,31C188.59,7.79,179.12,15.39,167.72,17a29.11,29.11,0,0,1-4.06.3Z"/><path class="cls-4" d="M151.25-40.51a14.49,14.49,0,0,0-5.15.83c-7.61,3-9.8,16-9.26,23.18.58,7.83,3.87,15.3,8.46,21.67,3.29,4.57,7.5,8.81,12.9,10.4a19.33,19.33,0,0,0,5.46.73,28.61,28.61,0,0,0,3.92-.29c10.17-1.43,20-8.29,22.73-18.2,3.13-11.3-3.74-23.58-13.62-29.9-5.47-3.49-17-8.42-25.44-8.42m0-2c8.87,0,20.84,5.11,26.51,8.74,9.86,6.3,18,19.36,14.48,32.12-2.79,10.08-12.59,18-24.38,19.64a29.6,29.6,0,0,1-4.2.31,21.06,21.06,0,0,1-6-.82c-5.07-1.48-9.64-5.13-14-11.14-5.22-7.25-8.27-15.1-8.84-22.69-.59-7.93,1.75-21.77,10.53-25.19a16.35,16.35,0,0,1,5.88-1Z"/><path class="cls-32" d="M-26.2,95.47A50.62,50.62,0,0,1-35,78.63,21.17,21.17,0,0,1-36,72.31c.09-8.26,8.28-15.52,16.66-16.25s16.26,4,20.85,10.65S7.64,83,2.88,90.12c-2.95,4.43-7.76,7.27-12,10.6"/><path class="cls-33" d="M330.33,433.72a35.37,35.37,0,0,1-4.77-.4c-8.25-1.19-14.77-3.51-19.93-7.1-10.2-7.11-14.64-22.12-10.1-34.19,2.44-6.52,9.34-10.1,19.41-10.1a44.22,44.22,0,0,1,13.7,2.18,28.26,28.26,0,0,1,7.8,3.89c3.17,2.33,5.55,5.45,7.86,8.45,3.83,5,7.26,10,7.05,15.81-.17,4.77-2.84,8.88-5.15,11.92-4,5.23-7.79,8.13-12,9.13a17.07,17.07,0,0,1-3.84.41Z"/><path class="cls-4" d="M314.94,382.93c-7.89,0-15.81,2.34-18.48,9.45-4.32,11.5-.22,26.08,9.74,33,5.71,4,12.61,5.94,19.5,6.93a32.62,32.62,0,0,0,4.63.39,15.72,15.72,0,0,0,3.61-.39c4.78-1.12,8.5-4.84,11.46-8.75,2.54-3.34,4.8-7.16,5-11.36.21-5.66-3.41-10.66-6.85-15.16-2.29-3-4.62-6-7.65-8.25a27.49,27.49,0,0,0-7.53-3.75,43.43,43.43,0,0,0-13.38-2.13m0-2a45.39,45.39,0,0,1,14,2.23,29.53,29.53,0,0,1,8.07,4c3.29,2.41,5.71,5.58,8.06,8.65,4,5.16,7.48,10.3,7.26,16.44-.18,5.12-3.14,9.58-5.35,12.5-2.59,3.41-6.72,8.11-12.6,9.49a17.39,17.39,0,0,1-4.07.44,35.43,35.43,0,0,1-4.91-.41c-8.41-1.21-15.07-3.59-20.36-7.27-10.56-7.36-15.15-22.89-10.47-35.36,2.6-6.94,9.83-10.75,20.35-10.75Z"/><path class="cls-16" d="M410.28,247.2a20.87,20.87,0,0,1-3.08-.3c-.64-.09-1.25-.18-1.79-.21-2.21-.15-3.63-.81-4.6-2.15a8.76,8.76,0,0,1-1.29-3A25.58,25.58,0,0,1,401.71,223c2.35-4.33,5.73-7.33,9.54-8.45a11.13,11.13,0,0,1,3.11-.44,9.83,9.83,0,0,1,8.77,4.73,12.14,12.14,0,0,1,1.32,5.72,23.22,23.22,0,0,1-1.68,9.1,36.6,36.6,0,0,1-8.51,12.17A5.53,5.53,0,0,1,410.28,247.2Z"/><path class="cls-4" d="M414.36,215.13a9.91,9.91,0,0,0-2.82.4c-3.94,1.16-7,4.36-9,8a24.68,24.68,0,0,0-2.11,17.74,8.33,8.33,0,0,0,1.14,2.72c.78,1.08,1.93,1.6,3.86,1.73,1.4.09,3.17.51,4.8.51a4.57,4.57,0,0,0,3.29-1.08,35.68,35.68,0,0,0,8.28-11.81,22.21,22.21,0,0,0,1.6-8.71,11.33,11.33,0,0,0-1.19-5.26,8.91,8.91,0,0,0-7.9-4.21m0-2a10.85,10.85,0,0,1,9.65,5.24,13.14,13.14,0,0,1,1.44,6.2,24.21,24.21,0,0,1-1.75,9.48A37.69,37.69,0,0,1,415,246.57a6.46,6.46,0,0,1-4.67,1.63,23.14,23.14,0,0,1-3.22-.31c-.63-.09-1.22-.18-1.71-.21a6.71,6.71,0,0,1-5.35-2.55,9.79,9.79,0,0,1-1.45-3.39,26.58,26.58,0,0,1,2.28-19.19c2.48-4.57,6.08-7.74,10.14-8.94a12,12,0,0,1,3.39-.48Z"/><path class="cls-34" d="M429.92,348.62a10.42,10.42,0,0,1-9.35-6c-1.81-4.12-1-10.38,2-14.88,2.13-3.27,5-5.07,8.17-5.07a9.64,9.64,0,0,1,4.41,1.15,16.41,16.41,0,0,1,7.24,6.89,10.87,10.87,0,0,1,0,10.09,15.26,15.26,0,0,1-4.71,4.72A16.66,16.66,0,0,1,432,348.4a9.42,9.42,0,0,1-2.06.22Z"/><path class="cls-4" d="M430.71,323.69c-7.62,0-12.08,12-9.23,18.55a9.38,9.38,0,0,0,8.44,5.38,8.17,8.17,0,0,0,1.84-.2,15.51,15.51,0,0,0,5.35-2.69,14.28,14.28,0,0,0,4.42-4.4,9.87,9.87,0,0,0-.07-9.15,15.22,15.22,0,0,0-6.8-6.45,8.54,8.54,0,0,0-4-1m0-2a10.55,10.55,0,0,1,4.87,1.26,17.3,17.3,0,0,1,7.67,7.33,11.87,11.87,0,0,1,0,11,16.36,16.36,0,0,1-5,5,17.27,17.27,0,0,1-6.07,3,10.21,10.21,0,0,1-2.28.25A11.44,11.44,0,0,1,419.65,343c-1.93-4.41-1.07-11.06,2.05-15.83,2.32-3.56,5.52-5.52,9-5.52Z"/><path class="cls-35" d="M447.26,450.54a11.72,11.72,0,0,1-4.87-1.23,18,18,0,0,1-8.19-7.12,13.22,13.22,0,0,1-1.3-10.85,13.94,13.94,0,0,1,2.45-4.28c2.81-3.49,8.07-7,13.47-7H449c5.83.11,8.8,6.41,10,10.16a15.43,15.43,0,0,1-1.19,13,19.16,19.16,0,0,1-3.61,4.05,12,12,0,0,1-6,3.23,7.35,7.35,0,0,1-1.06.07Z"/><path class="cls-4" d="M448.82,421.06c-4.75,0-9.8,3.05-12.69,6.63a13.07,13.07,0,0,0-2.29,4,12.24,12.24,0,0,0,1.22,10,17.23,17.23,0,0,0,7.75,6.71,10.91,10.91,0,0,0,4.45,1.14,7.22,7.22,0,0,0,.92-.06,10.92,10.92,0,0,0,5.44-3,18.35,18.35,0,0,0,3.43-3.83,14.47,14.47,0,0,0,1.09-12.13c-1.44-4.33-4.33-9.38-9.12-9.47h-.2m0-2h.24c4.78.09,8.68,3.94,11,10.84a16.41,16.41,0,0,1-1.3,13.82A19.54,19.54,0,0,1,455,448a12.89,12.89,0,0,1-6.49,3.47,9.55,9.55,0,0,1-1.2.08,12.61,12.61,0,0,1-5.28-1.32,19.08,19.08,0,0,1-8.65-7.52A14.29,14.29,0,0,1,432,431a15.49,15.49,0,0,1,2.62-4.58c3-3.67,8.52-7.37,14.25-7.37Z"/><path class="cls-36" d="M372.39,479.13a14.64,14.64,0,0,1-9.73-5.7c-1.62-2.17-2.65-4.82-4.71-6.57-2.63-2.25-6.35-2.55-9.77-3.1s-7.2-1.75-8.74-4.85c-1.9-3.82.68-8.5,4.13-11s7.7-3.68,11.25-6.05c3.09-2.07,5.52-4.95,8.22-7.51,10.45-9.92,26.34-15,39.78-9.76a31.25,31.25,0,0,1,14.92,12.14,26.8,26.8,0,0,1,4.38,17.17A21,21,0,0,1,413.31,469"/><path class="cls-30" d="M501,346c-7.93,0-16.41-4-22.68-10.73a20.26,20.26,0,0,1-5.36-9.46c-1.45-7,2.49-14.74,9.6-18.94,4.78-2.84,10.8-4.22,18.38-4.22,1,0,1.94,0,2.91.06a21.7,21.7,0,0,1,8.35,1.62,16.1,16.1,0,0,1,5.7,4.7,23.68,23.68,0,0,1-.36,29.1A21,21,0,0,1,501,346Z"/><path class="cls-4" d="M501,303.69c-6.24,0-12.56.92-17.88,4.08-6.15,3.64-10.59,10.88-9.13,17.87a19.38,19.38,0,0,0,5.11,9C484.79,340.77,493,345,501,345a20,20,0,0,0,15.77-7.51,22.71,22.71,0,0,0,.34-27.84,15.27,15.27,0,0,0-5.33-4.42,20.74,20.74,0,0,0-8-1.52c-.95,0-1.91-.06-2.86-.06m0-2c.94,0,1.93,0,2.94.07a22.36,22.36,0,0,1,8.73,1.7,17.13,17.13,0,0,1,6.06,5,24.7,24.7,0,0,1-.37,30.36A22,22,0,0,1,501,347c-8.21,0-17-4.13-23.41-11a21.18,21.18,0,0,1-5.6-9.95c-1.55-7.36,2.59-15.58,10.06-20,4.94-2.93,11.12-4.36,18.89-4.36Z"/><path class="cls-31" d="M456.56,400.84l5.68-4.47c3-2.34,6.49-4.83,10.23-4.16,3.23.57,5.55,3.32,7.59,5.9l3.41,4.32a14.3,14.3,0,0,1,2.2,3.41,9.22,9.22,0,0,1-.84,7.78,20.63,20.63,0,0,1-5.47,5.9c-3.53,2.8-7.87,5.3-12.31,4.53s-7.63-4.5-10.45-8L453.3,412"/><path class="cls-37" d="M427.08,373.85a12,12,0,0,1-5.56,2.59,18.14,18.14,0,0,1-9.33.26c-3-.89-5.76-3.34-6.18-6.46a4.19,4.19,0,0,1,.16-2,5.74,5.74,0,0,1,1.22-1.76,58.09,58.09,0,0,1,5-4.83,8.07,8.07,0,0,1,2.82-1.78,6.21,6.21,0,0,1,2.15-.18,11.64,11.64,0,0,1,8.14,4.1"/><path class="cls-2" d="M424.35,250.94c-1.86-2.83-1.33-6.71.41-9.62s4.48-5,7.16-7.1a31.54,31.54,0,0,1,8.06-5,21.13,21.13,0,0,1,6.69-1.15c13.55-.41,27.12,8.73,30.94,21.74a21.36,21.36,0,0,1,.94,7.05,24.24,24.24,0,0,1-2,8c-3.13,7.65-8.76,14.56-16.39,17.74s-17.3,1.95-22.92-4.11"/><path class="cls-17" d="M361.15,272.33a12.4,12.4,0,0,1-8.9-20.28,19.22,19.22,0,0,1,5-4.05c2.47-1.49,5.31-2.75,8.14-2.26a10.12,10.12,0,0,1,4.11,1.88c3.21,2.3,7.49,7.44,6.2,11.17"/><path class="cls-18" d="M332.79,271.42a12.41,12.41,0,0,1-6.11-1.51,15.24,15.24,0,0,1-4.46-4.06,9.29,9.29,0,0,1-2.25-4.92c-.23-3,1.73-5.45,3.68-7.47a22.06,22.06,0,0,1,5.12-4.21,10.7,10.7,0,0,1,5.14-1.42,8.37,8.37,0,0,1,1.67.16c3,.64,5.32,2.93,7.32,5.31a18.76,18.76,0,0,1,3.51,5.47,7.45,7.45,0,0,1-.2,6.29c-1.79,3.36-6.22,5.05-9.63,5.89A15.92,15.92,0,0,1,332.79,271.42Z"/><path class="cls-4" d="M333.91,248.83a9.86,9.86,0,0,0-4.66,1.29,21.66,21.66,0,0,0-4.88,4c-1.8,1.87-3.6,4.13-3.41,6.71a8.38,8.38,0,0,0,2,4.37,14.42,14.42,0,0,0,4.17,3.81,11.39,11.39,0,0,0,5.62,1.38,15.29,15.29,0,0,0,3.56-.44c5.39-1.32,11.51-4.38,9.12-10.87a17.87,17.87,0,0,0-3.33-5.17c-1.84-2.18-4-4.39-6.77-5a7.15,7.15,0,0,0-1.46-.14m0-2a8.85,8.85,0,0,1,1.87.19c3.34.69,5.77,3.12,7.89,5.63a19.69,19.69,0,0,1,3.68,5.77,8.39,8.39,0,0,1-.26,7.11c-2,3.68-6.66,5.51-10.27,6.39a16.91,16.91,0,0,1-4,.5,13.46,13.46,0,0,1-6.6-1.64,16.38,16.38,0,0,1-4.76-4.31A10.31,10.31,0,0,1,319,261c-.25-3.4,2-6.18,4-8.23a23,23,0,0,1,5.35-4.4,11.74,11.74,0,0,1,5.63-1.54Z"/><path class="cls-19" d="M342,247.32a12.51,12.51,0,0,1-4.62-1.08,20.09,20.09,0,0,1-9.23-7,12.5,12.5,0,0,1-1.58-11.54,15.18,15.18,0,0,1,3.1-4.56,18.59,18.59,0,0,1,4.92-3.93,13.22,13.22,0,0,1,6.07-1.45,13.19,13.19,0,0,1,13.18,15.06c-.6,4.31-5.59,14.25-11.53,14.47Z"/><path class="cls-4" d="M340.68,218.78a12.17,12.17,0,0,0-5.61,1.34,17.36,17.36,0,0,0-4.64,3.72,14.56,14.56,0,0,0-2.92,4.26A11.55,11.55,0,0,0,329,238.7a19.22,19.22,0,0,0,8.77,6.62,11.49,11.49,0,0,0,4.26,1h.26c5-.2,10-9.21,10.58-13.62A12.51,12.51,0,0,0,347.8,221a12.37,12.37,0,0,0-7.12-2.21m0-2A14.18,14.18,0,0,1,354.85,233c-.72,5.13-6.14,15.09-12.48,15.33H342a13.55,13.55,0,0,1-5-1.15,21.06,21.06,0,0,1-9.67-7.35,13.49,13.49,0,0,1-1.69-12.48,16.48,16.48,0,0,1,3.3-4.86,19.52,19.52,0,0,1,5.19-4.14,14.26,14.26,0,0,1,6.53-1.56Z"/><path class="cls-20" d="M400.16,193.24c-3,0-6-2.23-8.5-4.32-3.78-3.1-5.75-6.9-5.39-10.43.31-3,2.17-5.47,3.9-7.55a25.11,25.11,0,0,1,6-5.62,11.72,11.72,0,0,1,6-1.81,9.12,9.12,0,0,1,2.35.31,13.28,13.28,0,0,1,5.26,3.27,15.59,15.59,0,0,1,3.94,5.24c1.6,3.87.73,8.76-2.28,12.77-1.8,2.4-6.25,7.16-10.15,8A5.47,5.47,0,0,1,400.16,193.24Z"/><path class="cls-4" d="M402.19,164.51a10.72,10.72,0,0,0-5.5,1.66,24.4,24.4,0,0,0-5.75,5.41c-1.71,2.06-3.4,4.35-3.68,7-.38,3.74,2.14,7.18,5,9.56,2,1.62,5.05,4.09,7.86,4.09a4.23,4.23,0,0,0,.94-.1c3.38-.74,7.57-5,9.56-7.64,2.51-3.34,3.76-7.93,2.16-11.79a14.57,14.57,0,0,0-3.7-4.89,12.17,12.17,0,0,0-4.85-3,7.72,7.72,0,0,0-2.08-.28m0-2a9.92,9.92,0,0,1,2.62.35,14.18,14.18,0,0,1,5.67,3.5,16.68,16.68,0,0,1,4.19,5.59c1.73,4.19.81,9.46-2.41,13.75-2,2.69-6.55,7.48-10.74,8.4a6.75,6.75,0,0,1-1.36.14c-3.31,0-6.45-2.34-9.13-4.54-4-3.33-6.15-7.45-5.76-11.31.34-3.28,2.31-5.9,4.13-8.09a26.17,26.17,0,0,1,6.25-5.83,12.61,12.61,0,0,1,6.54-2Z"/><path class="cls-21" d="M296.05,263.08a23.79,23.79,0,0,1-6.32-.85,42,42,0,0,1-7.11-2.85,22.77,22.77,0,0,1-5.05-3.09,22,22,0,0,1-4.1-5.17,37,37,0,0,1-4.37-9.31,17.77,17.77,0,0,1,0-10.48,19,19,0,0,1,4.38-6.81,28.85,28.85,0,0,1,8.62-6.2c4.21-2,8.69-2.57,13-3.13l3.18-.43a12.83,12.83,0,0,1,1.89-.14,18.72,18.72,0,0,1,13.4,6,22.76,22.76,0,0,1,4,8.33c1.53,5.06,2.85,11,1.11,16.4a27.36,27.36,0,0,1-3.09,6.17,33.67,33.67,0,0,1-3.72,5.06,21.72,21.72,0,0,1-15.86,6.47Z"/><path class="cls-4" d="M300.25,215.62a11.27,11.27,0,0,0-1.75.13c-5.43.8-10.86,1.07-15.92,3.47a27.91,27.91,0,0,0-8.33,6,18,18,0,0,0-4.15,6.45,16.72,16.72,0,0,0,0,9.88,35.29,35.29,0,0,0,4.25,9.05,20.89,20.89,0,0,0,3.91,4.95,22.13,22.13,0,0,0,4.82,2.94,41.93,41.93,0,0,0,6.94,2.79,22.93,22.93,0,0,0,6.06.81,20.73,20.73,0,0,0,15.13-6.16,31.52,31.52,0,0,0,3.6-4.9,25.86,25.86,0,0,0,3-5.94c1.63-5.11.43-10.67-1.11-15.81a21.77,21.77,0,0,0-3.78-8,17.78,17.78,0,0,0-12.63-5.67m0-2A19.78,19.78,0,0,1,314.41,220c2.21,2.6,3.3,5.85,4.16,8.69,1.57,5.2,2.92,11.29,1.11,17a28.68,28.68,0,0,1-3.2,6.39,33.7,33.7,0,0,1-3.84,5.21,22.69,22.69,0,0,1-16.59,6.79,25.05,25.05,0,0,1-6.59-.88,43,43,0,0,1-7.28-2.92,23.53,23.53,0,0,1-5.26-3.23,22.92,22.92,0,0,1-4.3-5.41,37.49,37.49,0,0,1-4.48-9.56,18.67,18.67,0,0,1,.07-11.07,19.76,19.76,0,0,1,4.59-7.18,29.82,29.82,0,0,1,8.93-6.42c4.34-2.06,8.9-2.65,13.32-3.21l3.16-.43a13.5,13.5,0,0,1,2-.15Z"/><path class="cls-22" d="M314.62,219c-3.58,0-8.16-.38-11.84-3.38a30.2,30.2,0,0,1-7.72-9.46,14.3,14.3,0,0,1-.53-11.38,15.36,15.36,0,0,1,7.84-7.74,34.3,34.3,0,0,1,10.47-2.69,28.58,28.58,0,0,1,3.55-.27,12.16,12.16,0,0,1,3.55.47,16.1,16.1,0,0,1,6.07,3.9c5.18,4.81,8.06,9.79,8.56,14.81a8.45,8.45,0,0,1-.57,4.51,10.26,10.26,0,0,1-2.23,2.9,54.52,54.52,0,0,1-6.33,5.42,15.42,15.42,0,0,1-3.63,2.09,17.37,17.37,0,0,1-5.66.8C315.64,219,315.13,219,314.62,219Z"/><path class="cls-4" d="M316.39,185.11a28,28,0,0,0-3.42.26A33.12,33.12,0,0,0,302.8,188a14.53,14.53,0,0,0-7.35,7.22,13.23,13.23,0,0,0,.52,10.58,29.51,29.51,0,0,0,7.44,9.11c3.22,2.62,7.23,3.15,11.21,3.15.5,0,1,0,1.5,0a16.77,16.77,0,0,0,5.34-.73,14.56,14.56,0,0,0,3.39-2,54.25,54.25,0,0,0,6.22-5.32,9.29,9.29,0,0,0,2-2.61,7.73,7.73,0,0,0,.49-4c-.56-5.56-4.15-10.37-8.25-14.18a15,15,0,0,0-5.67-3.67,11.26,11.26,0,0,0-3.27-.43m0-2a13.47,13.47,0,0,1,3.84.51,16.88,16.88,0,0,1,6.46,4.13c5.36,5,8.35,10.17,8.88,15.44a9.57,9.57,0,0,1-.66,5,11.34,11.34,0,0,1-2.43,3.19,55.51,55.51,0,0,1-6.45,5.51,16.11,16.11,0,0,1-3.87,2.23,18.32,18.32,0,0,1-6,.86c-.51,0-1,0-1.55,0-3.74,0-8.54-.41-12.47-3.6a31.33,31.33,0,0,1-8-9.81,15.09,15.09,0,0,1-.56-12.19,16.41,16.41,0,0,1,8.34-8.26,35.2,35.2,0,0,1,10.78-2.78,28.33,28.33,0,0,1,3.67-.28Z"/><path class="cls-23" d="M353.25,209.33a26.42,26.42,0,0,1-16.5-16.1c-1.23-3.49,0-7.36-2.44-10.14-2.82-3.2-5.18-7-5.61-11.3a14.38,14.38,0,0,1,23.82-12.22c3.72,3.29,5.53,8,8.46,11.92,2.57,3.43,7.18,4.53,10.36,7.32,4.15,3.64,7.33,8.57,8.09,14s-1.17,11.42-5.54,14.79"/><path class="cls-24" d="M337.48,146.47a21.85,21.85,0,0,1-11-2.83c-7.57-4.41-11.06-13.2-13-19.42a22.92,22.92,0,0,1-1.35-7.21c0-.68,0-1.39,0-2.13,0-4.33,0-9.23,2.35-12.65,4.22-6.1,8.75-9.94,15.71-15.54A38.36,38.36,0,0,0,334,83c2.47-2.58,4.79-5,8.84-6.21a20,20,0,0,1,5.61-.82,15.92,15.92,0,0,1,8.95,2.57,26.85,26.85,0,0,1,5.52,5.49c3.08,3.75,6.93,8.43,9,13.79a31.32,31.32,0,0,1-.19,21.75A43.7,43.7,0,0,1,359,137.29a37.46,37.46,0,0,1-15.26,8.4,26,26,0,0,1-6.3.78Z"/><path class="cls-4" d="M348.44,77a18.83,18.83,0,0,0-5.33.78c-5.7,1.67-7.86,6.11-12.32,9.69-7.34,5.9-11.5,9.52-15.52,15.33-2.57,3.72-2.1,9.71-2.18,14.23a22.06,22.06,0,0,0,1.3,6.89c2.33,7.37,5.89,15,12.57,18.86a20.82,20.82,0,0,0,10.52,2.69,25.27,25.27,0,0,0,6.06-.75,36.76,36.76,0,0,0,14.85-8.18,42.63,42.63,0,0,0,12.39-17.29,30.17,30.17,0,0,0,.2-21c-2-5-5.41-9.34-8.85-13.52a26,26,0,0,0-5.3-5.29,14.9,14.9,0,0,0-8.39-2.4m0-2A16.94,16.94,0,0,1,358,77.74a27.82,27.82,0,0,1,5.73,5.68c3.13,3.81,7,8.56,9.16,14.07a32.31,32.31,0,0,1-.18,22.45,44.78,44.78,0,0,1-13,18.11A38.37,38.37,0,0,1,344,146.66a27,27,0,0,1-6.54.81,22.84,22.84,0,0,1-11.52-3c-7.87-4.58-11.46-13.6-13.48-20a24,24,0,0,1-1.39-7.52c0-.68,0-1.39,0-2.12,0-4.47,0-9.54,2.53-13.22,4.29-6.21,8.87-10.09,15.91-15.75a37.34,37.34,0,0,0,3.73-3.57c2.45-2.57,5-5.22,9.28-6.48a20.89,20.89,0,0,1,5.89-.86Z"/><path class="cls-3" d="M447.92,186.14a29,29,0,0,1-13.15-3.55c-14.49-7.5-23.57-23.22-22.61-39.12a1,1,0,0,1,.6-.86,1.1,1.1,0,0,1,.4-.08,1,1,0,0,1,.63.22c1.27,1,2.59,2,3.83,2.82a15.89,15.89,0,0,0,9,2.89,12.15,12.15,0,0,0,8.89-3.59,13.21,13.21,0,0,0,3.35-10c-.2-5.12-3-10.39-7.63-14.45a19.45,19.45,0,0,0-3.06-2.21,1,1,0,0,1-.51-.87,1,1,0,0,1,.52-.87,23.55,23.55,0,0,1,11.44-3.08c.44,0,.87,0,1.31,0,5.58.36,10.68,2.82,15.36,5.42a60.83,60.83,0,0,1,11,7.52c12.11,10.88,15.36,29.4,7.4,42.15-2.56,4.14-6.29,7.89-11.74,11.81a30.21,30.21,0,0,1-10.5,5.26A20.15,20.15,0,0,1,447.92,186.14Z"/><path class="cls-4" d="M439.6,114.44a22.64,22.64,0,0,0-11,3,20.08,20.08,0,0,1,3.23,2.33c4.41,3.86,7.74,9.3,8,15.16.37,9.39-6,14.58-13.24,14.58a17,17,0,0,1-9.55-3.06c-1.33-.92-2.64-1.86-3.89-2.87-.93,15.24,7.91,30.84,22.07,38.17a27.94,27.94,0,0,0,12.69,3.44,18.85,18.85,0,0,0,4.28-.48,29,29,0,0,0,10.13-5.09c4.44-3.19,8.61-6.88,11.49-11.53,7.95-12.75,3.95-30.83-7.23-40.87a58.49,58.49,0,0,0-10.8-7.39c-4.68-2.61-9.63-5-14.94-5.31-.42,0-.83,0-1.25,0m0-2c.46,0,.92,0,1.37,0,5.78.37,11,2.89,15.79,5.55a61.7,61.7,0,0,1,11.17,7.65c12.46,11.19,15.79,30.26,7.59,43.42-2.64,4.25-6.46,8.1-12,12.09a31.36,31.36,0,0,1-10.85,5.42,21.1,21.1,0,0,1-4.73.53,30,30,0,0,1-13.61-3.66c-14.84-7.68-24.14-23.79-23.15-40.07a2,2,0,0,1,1.19-1.71,1.93,1.93,0,0,1,.81-.17,2,2,0,0,1,1.26.45c1.26,1,2.61,2,3.76,2.77a15,15,0,0,0,8.42,2.71,11.11,11.11,0,0,0,8.16-3.29,12.18,12.18,0,0,0,3.08-9.21c-.19-4.85-2.85-9.86-7.27-13.72a17.94,17.94,0,0,0-2.91-2.11,2,2,0,0,1-1-1.75,2,2,0,0,1,1-1.74,24.59,24.59,0,0,1,11.93-3.2Z"/><path class="cls-25" d="M378.54,171.68c-1.47,0-3-.12-4.3-.24-3.84-.32-8.2-.68-11.83-2.92a23.58,23.58,0,0,1-6-5.85c-5.84-7.45-8.16-15.32-6.54-22.15C354.34,121.63,370,121,370.17,121l9.78-.35a1,1,0,0,1,.57.18l12.12,8.39a1,1,0,0,1,.19.17c1.64,1.88,6.44,8.08,6.91,11.73.86,6.73,1.34,12.73-1.5,18a24.74,24.74,0,0,1-6.56,7.23c-2.49,2-5.51,4.15-9.09,5A17.9,17.9,0,0,1,378.54,171.68Z"/><path class="cls-4" d="M380,121.62l-9.75.35s-15,.42-19.36,18.78c-1.78,7.55,1.58,15.2,6.35,21.3a22.7,22.7,0,0,0,5.74,5.62c3.36,2.07,7.46,2.45,11.39,2.78,1.4.12,2.82.23,4.22.23a17.44,17.44,0,0,0,3.82-.38c3.25-.74,6.09-2.68,8.69-4.77a23.79,23.79,0,0,0,6.31-6.92c2.81-5.21,2.14-11.52,1.39-17.39-.4-3.11-4.61-8.84-6.68-11.21L380,121.62m0-2a2,2,0,0,1,1.14.35l12.12,8.4a1.65,1.65,0,0,1,.37.33c.07.07,6.56,7.62,7.15,12.26.68,5.33,1.61,12.63-1.61,18.6a25.61,25.61,0,0,1-6.82,7.53c-2.57,2.07-5.71,4.3-9.49,5.16a19.29,19.29,0,0,1-4.27.43c-1.51,0-3-.13-4.38-.24-3.76-.31-8.44-.71-12.28-3.06a24.75,24.75,0,0,1-6.26-6.09c-6-7.7-8.41-15.87-6.73-23C353.54,120.66,370,120,370.13,120l9.75-.35Z"/><path class="cls-26" d="M385.53,133.78a5.52,5.52,0,0,1-5.75-4.52c-1.58-6.47,3.88-19.09,11.63-23.13a6.62,6.62,0,0,1,3.06-.92,3.9,3.9,0,0,1,.59,0c2.31.34,3.65,2.62,4.37,3.85,2.39,4.09,4.82,8.84,3.37,13.48-1.39,4.45-5.67,6.9-9.93,9a17.1,17.1,0,0,1-7.34,2.17Z"/><path class="cls-4" d="M394.47,106.21a5.84,5.84,0,0,0-2.6.8c-9.62,5-16.52,25.76-6.34,25.76a16.13,16.13,0,0,0,6.89-2.05c3.88-1.94,8.13-4.3,9.43-8.44,1.34-4.3-1-8.79-3.29-12.67-.86-1.49-1.95-3.12-3.65-3.37a3.15,3.15,0,0,0-.44,0m0-2a5.71,5.71,0,0,1,.73.05c2.79.41,4.29,3,5.09,4.34,2.5,4.27,5,9.25,3.46,14.28-1.51,4.82-6.17,7.5-10.43,9.63a18.18,18.18,0,0,1-7.79,2.26,6.51,6.51,0,0,1-6.72-5.26c-1.82-7.44,4.65-20.37,12.14-24.27a7.72,7.72,0,0,1,3.52-1Z"/><path class="cls-27" d="M426.6,150.46a17.87,17.87,0,0,1-10.11-3.24c-1.28-.88-2.64-1.84-4-2.91a25.45,25.45,0,0,1-5.89-6.29c-2.8-4.39-3.32-9.56-1.33-13.48a15.65,15.65,0,0,1,4.21-5c4-3.33,8.44-5.17,12.42-5.17a13.65,13.65,0,0,1,2.57.25,14.92,14.92,0,0,1,4.65,1.88,21,21,0,0,1,3.36,2.43c5.06,4.42,8.09,10.21,8.32,15.88a15.15,15.15,0,0,1-3.91,11.41A14.11,14.11,0,0,1,426.6,150.46Z"/><path class="cls-4" d="M421.94,115.4c-4.25,0-8.44,2.17-11.78,4.94a15.06,15.06,0,0,0-4,4.65c-2,3.91-1.07,8.81,1.29,12.5a24.82,24.82,0,0,0,5.67,6c1.25,1,2.56,1.95,3.89,2.87a17,17,0,0,0,9.55,3.06c7.25,0,13.61-5.2,13.24-14.58-.23-5.86-3.56-11.3-8-15.16a20.08,20.08,0,0,0-3.23-2.33,13.53,13.53,0,0,0-4.33-1.76,11.9,11.9,0,0,0-2.37-.23m0-2a13.59,13.59,0,0,1,2.78.28,15.7,15.7,0,0,1,4.93,2,22.71,22.71,0,0,1,3.54,2.55c5.26,4.6,8.41,10.65,8.65,16.59a16.13,16.13,0,0,1-4.19,12.14,15.1,15.1,0,0,1-11,4.52A18.94,18.94,0,0,1,415.91,148c-1.22-.84-2.65-1.85-4-2.95a26.25,26.25,0,0,1-6.11-6.53c-3-4.69-3.53-10.23-1.39-14.47a16.79,16.79,0,0,1,4.47-5.29c4.2-3.48,8.84-5.4,13.06-5.4Z"/><path class="cls-5" d="M535.73,172.08c-7.45,0-14.4-3.71-17.7-9.45a24.15,24.15,0,0,1-2.85-9.84c-1.36-13.53,4.89-28.07,15.91-37a18.77,18.77,0,0,1,12.09-4.5c6.22,0,13.12,3.1,20.51,9.21,3.72,3.08,5.76,6.13,6.25,9.32.42,2.77-.32,5.44-1.19,8.16-2.17,6.77-5,14.57-10,21.18-5.33,7-12.3,11.56-19.64,12.7A21.81,21.81,0,0,1,535.73,172.08Z"/><path class="cls-4" d="M543.18,112.25a17.75,17.75,0,0,0-11.46,4.27c-10.55,8.6-16.91,22.53-15.55,36.17a23.61,23.61,0,0,0,2.72,9.44c3.33,5.78,10.13,9,16.84,9a21.21,21.21,0,0,0,3.19-.24c7.64-1.19,14.33-6.15,19-12.32s7.53-13.51,9.88-20.88c.8-2.5,1.56-5.12,1.16-7.71-.54-3.54-3.14-6.42-5.9-8.7-6.09-5-13-9-19.87-9m0-2c6.46,0,13.57,3.17,21.14,9.44,3.92,3.24,6.08,6.49,6.61,9.94.45,3-.36,5.89-1.23,8.62-2.19,6.84-5.11,14.75-10.19,21.47-5.49,7.26-12.69,11.91-20.28,13.09a22.73,22.73,0,0,1-3.5.27c-7.8,0-15.09-3.9-18.57-10a25.18,25.18,0,0,1-3-10.24c-1.4-14.07,4.83-28.6,16.28-37.92a19.77,19.77,0,0,1,12.72-4.72Z"/><path class="cls-6" d="M524,289c-7.52,0-14.6-3.13-18.93-8.38-5.62-6.8-6.06-17.26-1-23.8,3.08-4,7.51-6.11,11.79-8.16l.57-.27a46.22,46.22,0,0,0,5.09-3.11,33.89,33.89,0,0,1,6.89-3.91,10.35,10.35,0,0,1,3.39-.57c6.56,0,13.54,5.93,16.49,11.66a24.72,24.72,0,0,1-.83,23.29A27.39,27.39,0,0,1,528,288.69a26.27,26.27,0,0,1-4,.3Z"/><path class="cls-4" d="M531.79,241.79a9.23,9.23,0,0,0-3.06.51c-3.67,1.29-8.11,5.17-11.88,7-4.4,2.11-8.93,4.17-12,8.14-5,6.43-4.21,16.29,1,22.56,4.36,5.28,11.28,8,18.16,8a25.68,25.68,0,0,0,3.83-.28,26.57,26.57,0,0,0,18.78-12.48,23.63,23.63,0,0,0,.81-22.32c-2.7-5.24-9.33-11.12-15.61-11.12m0-2c6.94,0,14.29,6.21,17.38,12.2a25.71,25.71,0,0,1-.86,24.25,28.39,28.39,0,0,1-20.2,13.44A27,27,0,0,1,524,290c-7.82,0-15.18-3.27-19.71-8.74-6-7.27-6.43-18-1-25.05,3.23-4.17,7.76-6.35,12.15-8.45l.57-.27a47.33,47.33,0,0,0,5-3,34.31,34.31,0,0,1,7.11-4,11.05,11.05,0,0,1,3.72-.63Z"/><path class="cls-7" d="M579.19,191.32a15.15,15.15,0,0,1-5.18-.88c-6-2.16-9.76-7.84-12.64-13.12-2.17-4-4.16-8.25-4.06-12.78.09-4.25,2.1-8.7,5.65-12.53,5.75-6.2,12.8-9.76,19.36-9.76a18.52,18.52,0,0,1,3.65.36c3.56.72,6.81,3.2,9.94,7.59a33.55,33.55,0,0,1,6.2,14.57,22.1,22.1,0,0,1-3.26,15.53,24.86,24.86,0,0,1-5,5.25c-4.63,3.72-9.83,5.77-14.62,5.77Z"/><path class="cls-4" d="M582.32,143.25c-7.18,0-13.88,4.32-18.63,9.44-3,3.26-5.28,7.43-5.38,11.88s1.85,8.46,3.93,12.27c2.87,5.25,6.49,10.64,12.11,12.66a14.15,14.15,0,0,0,4.84.82c5,0,10-2.36,14-5.55a23.8,23.8,0,0,0,4.83-5,21,21,0,0,0,3.1-14.82,32.63,32.63,0,0,0-6-14.13c-2.33-3.27-5.37-6.39-9.31-7.18a17.07,17.07,0,0,0-3.46-.35m0-2a19.87,19.87,0,0,1,3.85.38c3.82.77,7.27,3.38,10.55,8a34.45,34.45,0,0,1,6.38,15,23.14,23.14,0,0,1-3.43,16.24,25.59,25.59,0,0,1-5.23,5.47c-4.81,3.87-10.23,6-15.25,6a16.07,16.07,0,0,1-5.51-.94c-6.33-2.27-10.22-8.14-13.19-13.58-2.23-4.09-4.28-8.52-4.18-13.28.1-4.5,2.2-9.18,5.92-13.19,5.93-6.4,13.25-10.08,20.09-10.08Z"/><path class="cls-8" d="M541.59,243.35a17.21,17.21,0,0,1-8.22-2.46,23.13,23.13,0,0,1-9.19-8.45,14.33,14.33,0,0,1-1.24-12.5c2.35-5.74,10.11-10.41,17.3-10.41a11.4,11.4,0,0,1,9.21,4,59.35,59.35,0,0,1,7.13,11.09,11,11,0,0,1,1.51,5.7c-.26,3.31-2.8,5.64-5.39,7.74s-5.76,4.69-9.63,5.22a12,12,0,0,1-1.48.09Z"/><path class="cls-4" d="M540.24,210.53c-6.6,0-14.13,4.31-16.37,9.79A13.41,13.41,0,0,0,525,231.94a22.47,22.47,0,0,0,8.81,8.07,16.51,16.51,0,0,0,7.74,2.34,9.94,9.94,0,0,0,1.34-.08c3.49-.48,6.41-2.78,9.14-5,2.3-1.88,4.79-4.09,5-7.05a10.22,10.22,0,0,0-1.41-5.18,58.45,58.45,0,0,0-7-10.89,10.5,10.5,0,0,0-8.44-3.62m0-2a12.38,12.38,0,0,1,10,4.35,60.64,60.64,0,0,1,7.25,11.27,12,12,0,0,1,1.61,6.23c-.3,3.7-3.13,6.29-5.76,8.44s-6,4.87-10.13,5.43a12.21,12.21,0,0,1-1.61.1,18.16,18.16,0,0,1-8.7-2.58,24.26,24.26,0,0,1-9.58-8.82,15.37,15.37,0,0,1-1.3-13.38c2.49-6.09,10.67-11,18.23-11Z"/><path class="cls-9" d="M587.7,152.05a8.15,8.15,0,0,1-6.6-3.17c-2-2.65-2.59-6.56-1.51-10.75a25.55,25.55,0,0,1,6.28-10.83c2-2.11,3.79-3.13,5.61-3.13a4.4,4.4,0,0,1,.62,0c2.2.29,3.69,2,5,3.7l5.81,7.44a4.13,4.13,0,0,1,1.07,2.3,4.2,4.2,0,0,1-.87,2.4c-2.06,3.15-4.39,6.72-7.73,9.15A13.32,13.32,0,0,1,587.7,152.05Z"/><path class="cls-4" d="M591.48,125.17c-1.88,0-3.56,1.39-4.87,2.8a24.79,24.79,0,0,0-6.05,10.42c-1.91,7.35,1.66,12.66,7.14,12.66a12.29,12.29,0,0,0,7.12-2.66c3.15-2.29,5.35-5.63,7.48-8.89a2.39,2.39,0,0,0-.15-3.54l-5.81-7.44c-1.16-1.48-2.51-3.08-4.37-3.32l-.49,0m0-2a4.73,4.73,0,0,1,.75,0c2.79.36,4.6,2.68,5.68,4.07l3,3.77,2.87,3.67a5,5,0,0,1,1.27,2.88,5.11,5.11,0,0,1-1,3c-2.11,3.22-4.5,6.87-8,9.41a14.36,14.36,0,0,1-8.3,3,9.12,9.12,0,0,1-7.39-3.56c-2.23-2.89-2.85-7.12-1.69-11.61a26.71,26.71,0,0,1,6.52-11.27c2.15-2.31,4.23-3.44,6.34-3.44Z"/><path class="cls-10" d="M577,227.13a21.85,21.85,0,0,1-7.57-1.38,27.91,27.91,0,0,1-12.91-10.62,12,12,0,0,1-2.13-4.74c-.43-2.63.49-5.51,2.73-8.57,3.69-5,10.5-10.45,16.74-10.45a10,10,0,0,1,3.1.48c7.49,2.44,12.85,10.84,14.84,18.09a14.79,14.79,0,0,1,.34,8,12.16,12.16,0,0,1-6,6.92,18.76,18.76,0,0,1-9.11,2.27Z"/><path class="cls-4" d="M573.82,192.37c-6.09,0-12.65,5.57-15.93,10-1.67,2.27-3,5-2.55,7.82a11,11,0,0,0,2,4.34,26.74,26.74,0,0,0,12.43,10.24,20.69,20.69,0,0,0,7.22,1.32,17.86,17.86,0,0,0,8.63-2.14,11.27,11.27,0,0,0,5.55-6.33,13.62,13.62,0,0,0-.35-7.45c-1.89-6.93-6.95-15.06-14.18-17.41a9.13,9.13,0,0,0-2.79-.43m0-2a11.06,11.06,0,0,1,3.41.53c8.38,2.73,13.58,11.82,15.49,18.78a15.66,15.66,0,0,1,.34,8.55,13.12,13.12,0,0,1-6.51,7.51,19.85,19.85,0,0,1-9.59,2.39,22.66,22.66,0,0,1-7.92-1.45,28.89,28.89,0,0,1-13.39-11,13,13,0,0,1-2.29-5.14c-.47-2.9.51-6,2.92-9.33,3.83-5.22,11-10.85,17.54-10.85Z"/><path class="cls-11" d="M566.79,288.5a7.86,7.86,0,0,1-.83-.05,9.89,9.89,0,0,1-4-1.4,12.63,12.63,0,0,1-5.52-6.28,9.86,9.86,0,0,1,.58-8.44c2.65-4.47,6.82-7.15,11.14-7.15,4.9,0,8.83,3.35,10.5,8.95,1,3.2,1,7.56-1.81,10.2a12.82,12.82,0,0,1-3.12,2c-1.94,1-4.37,2.2-7,2.2Z"/><path class="cls-4" d="M568.18,266.18c-3.75,0-7.68,2.28-10.28,6.66a8.85,8.85,0,0,0-.5,7.57,11.64,11.64,0,0,0,5.08,5.78,9,9,0,0,0,3.58,1.27c.25,0,.49,0,.73,0,2.27,0,4.46-1.06,6.52-2.09a11.89,11.89,0,0,0,2.87-1.81c2.38-2.24,2.48-6.05,1.54-9.18-1.66-5.56-5.49-8.24-9.54-8.24m0-2c5.29,0,9.68,3.71,11.46,9.67,1,3.48,1,8.26-2.09,11.21a14,14,0,0,1-3.35,2.14c-2,1-4.59,2.3-7.41,2.3-.31,0-.63,0-.94-.05a11.18,11.18,0,0,1-4.38-1.53,13.66,13.66,0,0,1-5.94-6.8,10.83,10.83,0,0,1,.65-9.3c2.84-4.78,7.32-7.64,12-7.64Z"/><path class="cls-12" d="M568.6,263.49a12.39,12.39,0,0,1-3.9-.62,15.7,15.7,0,0,1-9.56-10,16.73,16.73,0,0,1,2.3-14.37,10.46,10.46,0,0,1,8.57-4.61c.33,0,.67,0,1,0a15,15,0,0,1,11.52,6.82A16.46,16.46,0,0,1,580,255.19a14.06,14.06,0,0,1-2.08,4A11.8,11.8,0,0,1,568.6,263.49Z"/><path class="cls-4" d="M566,234.87c-8.31,0-12.25,10.61-9.92,17.66a14.61,14.61,0,0,0,8.92,9.39,11.47,11.47,0,0,0,3.59.57,10.83,10.83,0,0,0,8.56-3.93,13.16,13.16,0,0,0,1.92-3.7c3.24-9.23-2-19-12.15-20-.31,0-.62,0-.92,0m0-2c.36,0,.73,0,1.1,0a15.94,15.94,0,0,1,12.28,7.27A17.45,17.45,0,0,1,581,255.52a14.75,14.75,0,0,1-2.23,4.26,12.81,12.81,0,0,1-10.14,4.71,13.27,13.27,0,0,1-4.22-.67,16.73,16.73,0,0,1-10.19-10.66,17.76,17.76,0,0,1,2.44-15.27,11.44,11.44,0,0,1,9.38-5Z"/><path class="cls-13" d="M576.8,226.61a26.44,26.44,0,0,0,5.11,13,11.68,11.68,0,0,0,3.18,3.09c3.3,2,7.71,1,10.77-1.29a9.78,9.78,0,0,0,2.25-2.29c2.06-3,1.67-7.05,1-10.64q-.52-2.69-1.21-5.33a12.83,12.83,0,0,0-1.56-3.94,4.75,4.75,0,0,0-3.45-2.22"/><path class="cls-14" d="M610.76,201.68a10,10,0,0,1-3.9-1.28A14.16,14.16,0,0,1,599,184.57c1-4.74,7.66-10.14,12.48-10.14h.32a8.91,8.91,0,0,1,3.21.92,21,21,0,0,1,7.48,5.13,11,11,0,0,1,2.84,8.83c-.77,4.62-4.91,7.66-8.74,10.16-1.42.93-3.38,2.2-5.56,2.2Z"/><path class="cls-4" d="M611.5,175.43c-4.4,0-10.6,5.14-11.5,9.34a13.28,13.28,0,0,0,7.3,14.74,9.17,9.17,0,0,0,3.51,1.17h.24c1.82,0,3.48-1,5-2,3.63-2.37,7.58-5.21,8.29-9.49a10,10,0,0,0-2.61-8,20.36,20.36,0,0,0-7.13-4.87,8.28,8.28,0,0,0-2.85-.84h-.27m0-2h.37a9.82,9.82,0,0,1,3.57,1,21.91,21.91,0,0,1,7.82,5.38,12,12,0,0,1,3.08,9.65c-.84,5-5.18,8.23-9.18,10.84-1.53,1-3.63,2.36-6.11,2.36h-.34a10.79,10.79,0,0,1-4.29-1.37A15.35,15.35,0,0,1,598,184.36c1.11-5.21,8.16-10.93,13.46-10.93Z"/><path class="cls-15" d="M624.08,312.15a20.24,20.24,0,0,1-5.75-.78c-4.85-1.42-9.24-4.94-13.43-10.77-5.1-7.1-8.1-14.77-8.65-22.18-.48-6.44,1.31-20.84,9.9-24.18a15.2,15.2,0,0,1,5.52-.9c8.66,0,20.4,5,26,8.58,9.55,6.11,17.44,18.72,14.05,31-2.69,9.71-12.15,17.31-23.56,18.92a29,29,0,0,1-4,.3Z"/><path class="cls-4" d="M611.67,254.34a14.33,14.33,0,0,0-5.16.83c-7.61,3-9.8,16-9.26,23.18.58,7.83,3.88,15.29,8.46,21.67,3.29,4.57,7.51,8.81,12.9,10.39a19.45,19.45,0,0,0,5.47.74,28.35,28.35,0,0,0,3.91-.29c10.17-1.44,20-8.29,22.73-18.2,3.13-11.3-3.74-23.58-13.62-29.9-5.47-3.49-17-8.42-25.43-8.42m0-2c8.86,0,20.83,5.11,26.51,8.73,9.86,6.31,18,19.37,14.47,32.13-2.79,10.08-12.59,18-24.38,19.64a31.12,31.12,0,0,1-4.19.31,21.44,21.44,0,0,1-6-.82c-5.07-1.49-9.64-5.13-14-11.14-5.21-7.25-8.27-15.1-8.84-22.69-.59-7.93,1.75-21.77,10.54-25.19a16.31,16.31,0,0,1,5.88-1Z"/><path class="cls-28" d="M365,324.69a42.47,42.47,0,0,1-11.1-24A41.83,41.83,0,0,1,359.35,275c4.3-7.32,10.73-13.11,17.32-18.46,4.59-3.71,9.34-7.3,14.69-9.79s11.38-3.84,17.24-2.87c7.25,1.2,13.51,5.77,19,10.72a41.38,41.38,0,0,1,5.56,5.9c5.45,7.42,6.27,17.56,3.63,26.32s-8.4,16.25-15,22.49A87.11,87.11,0,0,1,391.09,328"/><path class="cls-38" d="M356.41,335.8a24.44,24.44,0,0,1,13.5-14.54,15.91,15.91,0,0,1,4.83-1.28,17.2,17.2,0,0,1,7.14,1.2,28.53,28.53,0,0,1,15,12.47,24.65,24.65,0,0,1,2.21,19.23,21,21,0,0,1-12.57,13.42,21.23,21.23,0,0,1-14.28-.28,27.32,27.32,0,0,1-11.6-8.52c-2.26-2.76-4.68-6.57-5-10.24-.22-2.69,2-4.58,1.25-7.42-.51-2-1.84-5-3.67-6.11-4.76-3-11.51.84-12.34,6.07a8.57,8.57,0,0,0,5.86,9.25,6.36,6.36,0,0,0,3.54.09,9.51,9.51,0,0,0,3-1.73c.62-.47,2.16-1.61,2.68-2.14"/><path class="cls-39" d="M392.66,513.7a16.08,16.08,0,0,1-2.33-.16c-6.91-.93-13.23-6.53-16.11-14.29-2.64-7.11-2.36-15-1.74-21.73.93-10.09,5.18-16.26,12.65-18.34a25.72,25.72,0,0,1,6.88-.92,28.77,28.77,0,0,1,15.2,4.42c7.86,5,13.74,13.85,16.13,24.37a15.65,15.65,0,0,1,.41,6.19c-.82,4.56-4.6,7.65-8.4,10.41-6.19,4.51-11.87,8.34-18.64,9.64a21.4,21.4,0,0,1-4,.41Z"/><path class="cls-4" d="M392,459.26a24.61,24.61,0,0,0-6.61.89c-8.24,2.29-11.19,9.48-11.93,17.46-.66,7.15-.81,14.56,1.69,21.3s8.18,12.69,15.3,13.64a16.15,16.15,0,0,0,2.2.15,20.06,20.06,0,0,0,3.86-.39c6.79-1.3,12.66-5.4,18.24-9.47,3.5-2.54,7.24-5.52,8-9.78a14.68,14.68,0,0,0-.41-5.78c-2.15-9.5-7.46-18.55-15.69-23.76A27.76,27.76,0,0,0,392,459.26m0-2a29.76,29.76,0,0,1,15.73,4.57c8.09,5.11,14.13,14.23,16.57,25a16.57,16.57,0,0,1,.43,6.58c-.89,4.93-5,8.29-8.8,11-6.29,4.58-12.07,8.48-19,9.82a22.63,22.63,0,0,1-4.24.42,20,20,0,0,1-2.47-.16c-7.26-1-13.9-6.84-16.91-14.94-2.71-7.3-2.43-15.31-1.8-22.17,1-10.55,5.48-17,13.39-19.21a26.4,26.4,0,0,1,7.14-1Z"/><path class="cls-32" d="M434.21,390.32a51,51,0,0,1-8.76-16.84,21.5,21.5,0,0,1-1.08-6.33c.1-8.25,8.28-15.51,16.67-16.24s16.25,4,20.84,10.65,6.17,16.25,1.42,23.4c-2.95,4.44-7.77,7.28-12,10.61"/><path class="cls-40" d="M436.27,424.56a12.58,12.58,0,0,1-6.48-1.69,20.43,20.43,0,0,1-6.13-6.42c-2.26-3.31-4.65-7.31-5.31-11.84-.72-4.94,1-9.76,4.44-12.28,2.38-1.75,5.61-2.6,9.86-2.6a62.5,62.5,0,0,1,7.23.55,22.74,22.74,0,0,1,15,8.26c1.77,2.23,2.58,4.28,2.48,6.28a11.08,11.08,0,0,1-1.65,4.68c-2.22,4-5.37,9-10.16,12.19a17.13,17.13,0,0,1-9.28,2.87Z"/><path class="cls-4" d="M432.65,390.72c-3.37,0-6.72.54-9.27,2.42-3.39,2.5-4.64,7.16-4,11.33s2.77,7.94,5.15,11.42A19.43,19.43,0,0,0,430.3,422a11.7,11.7,0,0,0,6,1.55,16.15,16.15,0,0,0,8.73-2.7c4.33-2.85,7.33-7.3,9.83-11.84a10.19,10.19,0,0,0,1.53-4.25,8.66,8.66,0,0,0-2.26-5.6,21.82,21.82,0,0,0-14.34-7.89,57.93,57.93,0,0,0-7.11-.56m0-2a61.67,61.67,0,0,1,7.35.57,23.71,23.71,0,0,1,15.66,8.63c1.93,2.43,2.81,4.7,2.69,7a11.94,11.94,0,0,1-1.77,5.11c-2.27,4.12-5.51,9.26-10.48,12.54a18.09,18.09,0,0,1-9.83,3,13.73,13.73,0,0,1-7-1.83,21.39,21.39,0,0,1-6.45-6.71c-2.32-3.41-4.78-7.53-5.47-12.26-.77-5.31,1.13-10.5,4.84-13.23,2.56-1.89,6-2.81,10.45-2.81Z"/><path class="cls-29" d="M366.28,230.6a13.64,13.64,0,0,1-11.16-5.94,17,17,0,0,1-2.26-12.39,10.22,10.22,0,0,1,2.61-5.77c1.87-1.85,4.53-2.39,6.67-2.83a18.38,18.38,0,0,1,3.67-.49,8.18,8.18,0,0,1,1,.06c3.06.34,5.48,2.35,7.46,4.27,2.26,2.2,4.9,5.22,5.25,9.05.41,4.44-2.39,8.23-4.81,10.64A11.85,11.85,0,0,1,366.28,230.6Z"/><path class="cls-4" d="M365.81,204.18a17.77,17.77,0,0,0-3.47.47c-2.22.45-4.56,1-6.17,2.56a9.35,9.35,0,0,0-2.32,5.22A16.14,16.14,0,0,0,356,224.1a12.57,12.57,0,0,0,10.33,5.5,10.8,10.8,0,0,0,7.7-3.11c2.65-2.63,4.86-6.12,4.52-9.84-.3-3.31-2.57-6.1-4.95-8.42-1.94-1.89-4.19-3.7-6.88-4a8.11,8.11,0,0,0-.86,0m0-2a9.69,9.69,0,0,1,1.09.06c3.38.38,6.07,2.63,8,4.55,2.2,2.15,5.17,5.48,5.56,9.68.44,4.82-2.54,8.88-5.11,11.43a12.79,12.79,0,0,1-9.11,3.7,14.66,14.66,0,0,1-12-6.38,18,18,0,0,1-2.41-13.12,11.14,11.14,0,0,1,2.89-6.32c2.08-2.05,5-2.65,7.17-3.09a19.07,19.07,0,0,1,3.87-.51Z"/><path class="cls-33" d="M790.74,138.87a33.81,33.81,0,0,1-4.77-.4c-8.25-1.19-14.77-3.51-19.93-7.1-10.2-7.11-14.63-22.12-10.1-34.19,2.45-6.51,9.34-10.1,19.41-10.1a44.22,44.22,0,0,1,13.7,2.18,28.26,28.26,0,0,1,7.8,3.89c3.17,2.34,5.55,5.45,7.86,8.46,3.84,5,7.27,10,7.06,15.8-.18,4.78-2.85,8.88-5.16,11.92-4,5.23-7.79,8.13-12,9.13a16.51,16.51,0,0,1-3.84.41Z"/><path class="cls-4" d="M775.35,88.08c-7.89,0-15.81,2.34-18.48,9.45-4.31,11.5-.22,26.08,9.74,33,5.72,4,12.61,5.94,19.5,6.93a32.74,32.74,0,0,0,4.63.39,15.6,15.6,0,0,0,3.61-.39c4.78-1.12,8.5-4.84,11.47-8.75,2.53-3.34,4.8-7.16,4.95-11.36.2-5.66-3.41-10.66-6.86-15.15-2.29-3-4.62-6-7.65-8.26a27.49,27.49,0,0,0-7.53-3.75,43.33,43.33,0,0,0-13.38-2.13m0-2a45.39,45.39,0,0,1,14,2.23,29.38,29.38,0,0,1,8.07,4c3.29,2.42,5.71,5.58,8.06,8.65,4,5.16,7.49,10.31,7.27,16.44-.19,5.12-3.15,9.58-5.36,12.5-2.59,3.41-6.71,8.11-12.6,9.49a17.39,17.39,0,0,1-4.07.44,35.43,35.43,0,0,1-4.91-.41c-8.41-1.21-15.07-3.59-20.36-7.27-10.55-7.36-15.15-22.89-10.47-35.36,2.61-6.93,9.83-10.75,20.35-10.75Z"/><path class="cls-34" d="M890.33,53.78a10.43,10.43,0,0,1-9.35-6c-1.8-4.12-1-10.38,2-14.88,2.13-3.27,5-5.07,8.17-5.07A9.64,9.64,0,0,1,895.53,29a16.36,16.36,0,0,1,7.24,6.89,10.86,10.86,0,0,1,0,10.1,15.37,15.37,0,0,1-4.71,4.72,16.47,16.47,0,0,1-5.71,2.85,9.36,9.36,0,0,1-2.06.23Z"/><path class="cls-4" d="M891.12,28.84c-7.62,0-12.08,12-9.23,18.55a9.39,9.39,0,0,0,8.44,5.39,8.11,8.11,0,0,0,1.84-.21,15.47,15.47,0,0,0,5.36-2.69,14.25,14.25,0,0,0,4.41-4.4,9.9,9.9,0,0,0-.06-9.15,15.37,15.37,0,0,0-6.8-6.45,8.58,8.58,0,0,0-4-1m0-2A10.67,10.67,0,0,1,896,28.1a17.35,17.35,0,0,1,7.67,7.33,11.87,11.87,0,0,1,0,11,16.25,16.25,0,0,1-5,5,17.27,17.27,0,0,1-6.07,3,10.15,10.15,0,0,1-2.28.26,11.45,11.45,0,0,1-10.27-6.59c-1.93-4.41-1.07-11.06,2.05-15.83,2.33-3.56,5.53-5.52,9-5.52Z"/><path class="cls-35" d="M907.67,155.69a11.64,11.64,0,0,1-4.86-1.23,18,18,0,0,1-8.2-7.12,13.22,13.22,0,0,1-1.3-10.85,14.39,14.39,0,0,1,2.45-4.28c2.82-3.48,8.07-7,13.47-7h.22c5.83.11,8.8,6.41,10,10.16a15.39,15.39,0,0,1-1.19,13,18.65,18.65,0,0,1-3.61,4,12,12,0,0,1-6,3.23,7.35,7.35,0,0,1-1.06.07Z"/><path class="cls-4" d="M909.23,126.21c-4.75,0-9.8,3-12.69,6.63a13.07,13.07,0,0,0-2.29,4,12.24,12.24,0,0,0,1.22,10,17.28,17.28,0,0,0,7.75,6.71,10.75,10.75,0,0,0,4.45,1.14,7,7,0,0,0,.92-.06,11,11,0,0,0,5.45-3,18.31,18.31,0,0,0,3.42-3.83,14.47,14.47,0,0,0,1.09-12.13c-1.44-4.33-4.32-9.38-9.12-9.47h-.2m0-2h.24c4.78.09,8.68,3.94,11,10.84a16.41,16.41,0,0,1-1.3,13.82,19.54,19.54,0,0,1-3.79,4.27,12.89,12.89,0,0,1-6.49,3.47,9.42,9.42,0,0,1-1.2.08,12.65,12.65,0,0,1-5.28-1.32,19,19,0,0,1-8.64-7.52,14.23,14.23,0,0,1-1.39-11.68,15.41,15.41,0,0,1,2.62-4.59c3-3.67,8.52-7.37,14.25-7.37Z"/><path class="cls-36" d="M832.8,184.28a14.6,14.6,0,0,1-9.73-5.7c-1.61-2.17-2.65-4.82-4.7-6.57-2.64-2.25-6.36-2.55-9.78-3.1s-7.19-1.75-8.74-4.85c-1.89-3.82.68-8.5,4.14-11s7.7-3.68,11.24-6.05c3.09-2.07,5.53-4.95,8.22-7.51,10.45-9.92,26.34-15,39.78-9.76a31.33,31.33,0,0,1,14.93,12.14,26.85,26.85,0,0,1,4.37,17.17,21,21,0,0,1-8.8,15.12"/><path class="cls-31" d="M917,106l5.68-4.46c3-2.35,6.49-4.84,10.23-4.17,3.23.57,5.56,3.33,7.59,5.9l3.41,4.32a14.19,14.19,0,0,1,2.2,3.41,9.22,9.22,0,0,1-.84,7.78,20.63,20.63,0,0,1-5.47,5.9c-3.53,2.8-7.87,5.3-12.31,4.53s-7.63-4.5-10.44-8l-3.3-4.09"/><path class="cls-37" d="M887.49,79a12,12,0,0,1-5.56,2.59,18.14,18.14,0,0,1-9.33.26c-3-.89-5.75-3.34-6.17-6.46a4,4,0,0,1,.15-2,5.66,5.66,0,0,1,1.22-1.77,58.09,58.09,0,0,1,5-4.83,7.86,7.86,0,0,1,2.83-1.77,6.16,6.16,0,0,1,2.14-.19,11.72,11.72,0,0,1,8.15,4.1"/><path class="cls-28" d="M825.45,29.84a42.46,42.46,0,0,1-11.09-24,41.79,41.79,0,0,1,5.4-25.7c4.3-7.33,10.74-13.12,17.33-18.46,4.58-3.72,9.33-7.31,14.68-9.8S863.16-51.92,869-51c7.25,1.2,13.52,5.77,19,10.72a40.82,40.82,0,0,1,5.56,5.9C899-26.92,899.84-16.77,897.19-8s-8.4,16.25-15,22.5A87.23,87.23,0,0,1,851.5,33.14"/><path class="cls-38" d="M816.82,41a24.48,24.48,0,0,1,13.5-14.55,15.61,15.61,0,0,1,4.83-1.27,16.86,16.86,0,0,1,7.14,1.2,28.43,28.43,0,0,1,15,12.46A24.63,24.63,0,0,1,859.5,58a20.94,20.94,0,0,1-12.57,13.41,21.23,21.23,0,0,1-14.28-.28,27.45,27.45,0,0,1-11.6-8.52c-2.26-2.76-4.68-6.57-5-10.24-.22-2.69,2-4.58,1.25-7.42-.51-2-1.84-5-3.66-6.11-4.77-3-11.52.84-12.34,6.07a8.58,8.58,0,0,0,5.85,9.25,6.28,6.28,0,0,0,3.54.09,9.52,9.52,0,0,0,3-1.72c.62-.48,2.15-1.62,2.67-2.15"/><path class="cls-39" d="M853.07,218.85a17.77,17.77,0,0,1-2.33-.15c-6.9-.93-13.23-6.54-16.11-14.29-2.64-7.12-2.36-15-1.74-21.74.93-10.09,5.19-16.26,12.66-18.34a25.65,25.65,0,0,1,6.87-.92,28.77,28.77,0,0,1,15.2,4.42c7.86,5,13.74,13.86,16.13,24.38a15.58,15.58,0,0,1,.41,6.18c-.81,4.56-4.6,7.65-8.4,10.41-6.19,4.51-11.87,8.35-18.64,9.65a22.21,22.21,0,0,1-4,.4Z"/><path class="cls-4" d="M852.42,164.41a24.61,24.61,0,0,0-6.61.89c-8.23,2.29-11.19,9.48-11.92,17.47-.66,7.15-.82,14.56,1.68,21.29s8.19,12.69,15.3,13.64a16.26,16.26,0,0,0,2.2.15,20,20,0,0,0,3.86-.39c6.79-1.3,12.66-5.4,18.24-9.46,3.5-2.55,7.25-5.53,8-9.79a14.52,14.52,0,0,0-.41-5.78c-2.15-9.5-7.45-18.55-15.68-23.76a27.8,27.8,0,0,0-14.67-4.26m0-2A29.82,29.82,0,0,1,868.15,167c8.09,5.12,14.13,14.23,16.58,25a16.78,16.78,0,0,1,.42,6.58c-.89,4.94-5,8.29-8.8,11.05-6.29,4.58-12.07,8.48-19,9.82a22.55,22.55,0,0,1-4.24.42,19.68,19.68,0,0,1-2.46-.16c-7.27-1-13.91-6.84-16.91-14.94-2.72-7.3-2.44-15.3-1.81-22.17,1-10.55,5.48-17,13.39-19.21a26.8,26.8,0,0,1,7.14-1Z"/><path class="cls-32" d="M894.62,95.47a50.79,50.79,0,0,1-8.75-16.84,21.18,21.18,0,0,1-1.09-6.32c.1-8.26,8.28-15.52,16.67-16.25s16.26,4,20.84,10.65,6.18,16.25,1.42,23.41c-3,4.43-7.77,7.27-12,10.6"/><path class="cls-40" d="M896.68,129.72a12.49,12.49,0,0,1-6.48-1.7,20.43,20.43,0,0,1-6.13-6.42c-2.26-3.31-4.65-7.31-5.31-11.84-.71-4.94,1-9.76,4.44-12.27,2.39-1.76,5.61-2.61,9.86-2.61a60.18,60.18,0,0,1,7.23.56,22.66,22.66,0,0,1,15,8.26c1.77,2.22,2.58,4.27,2.48,6.28a11,11,0,0,1-1.65,4.67c-2.21,4-5.37,9-10.16,12.2a17.11,17.11,0,0,1-9.28,2.87Z"/><path class="cls-4" d="M893.06,95.88c-3.36,0-6.72.53-9.26,2.41-3.4,2.5-4.65,7.16-4,11.33s2.78,7.94,5.15,11.42a19.33,19.33,0,0,0,5.81,6.12,11.71,11.71,0,0,0,6,1.56,16.16,16.16,0,0,0,8.73-2.71c4.33-2.85,7.33-7.3,9.83-11.84a10.05,10.05,0,0,0,1.53-4.25,8.63,8.63,0,0,0-2.26-5.6,21.8,21.8,0,0,0-14.34-7.89,60,60,0,0,0-7.11-.55m0-2a61.68,61.68,0,0,1,7.35.56,23.79,23.79,0,0,1,15.67,8.63c1.92,2.43,2.8,4.7,2.69,7a11.89,11.89,0,0,1-1.77,5.11c-2.27,4.12-5.51,9.27-10.49,12.54a18.1,18.1,0,0,1-9.83,3,13.73,13.73,0,0,1-7-1.84,21.39,21.39,0,0,1-6.45-6.71c-2.32-3.41-4.78-7.53-5.47-12.26-.77-5.31,1.13-10.5,4.84-13.23,2.56-1.89,6-2.8,10.45-2.8Z"/></pattern></defs><g id="cintilla_candida_auris" data-name="cintilla candida auris"><rect class="cls-41" x="-4" y="-2" width="2565" height="699"/></g></svg>