<svg xmlns="http://www.w3.org/2000/svg" xmlns:xlink="http://www.w3.org/1999/xlink" viewBox="0 0 866 700"><defs><style>.cls-1,.cls-106,.cls-81{fill:none;}.cls-2{isolation:isolate;}.cls-3{clip-path:url(#clip-path);}.cls-4{fill:#e6e6e6;mix-blend-mode:multiply;}.cls-5{fill:#8c2b87;}.cls-6{fill:#fff;}.cls-7{fill:#f9f9f9;}.cls-8{fill:#f8f7f9;}.cls-9{font-size:16px;fill:#020202;font-family:WorkSans-Regular, Work Sans;}.cls-10{letter-spacing:-0.04em;}.cls-11{letter-spacing:0.4em;}.cls-12{letter-spacing:-0.01em;}.cls-13{letter-spacing:-0.01em;}.cls-14{letter-spacing:0.4em;}.cls-15{letter-spacing:0.4em;}.cls-16{letter-spacing:-0.01em;}.cls-17{letter-spacing:0.36em;}.cls-18{letter-spacing:-0.01em;}.cls-19{letter-spacing:-0.02em;}.cls-20{letter-spacing:-0.02em;}.cls-21{letter-spacing:-0.02em;}.cls-22{letter-spacing:0.33em;}.cls-23{letter-spacing:0.37em;}.cls-24{letter-spacing:-0.01em;}.cls-25{letter-spacing:0em;}.cls-26{letter-spacing:0.37em;}.cls-27{letter-spacing:0em;}.cls-28{letter-spacing:0.37em;}.cls-29{letter-spacing:-0.01em;}.cls-30{letter-spacing:-0.02em;}.cls-31{letter-spacing:0em;}.cls-32{letter-spacing:-0.06em;}.cls-33{letter-spacing:-0.02em;}.cls-34{letter-spacing:0em;}.cls-35{letter-spacing:-0.02em;}.cls-36{letter-spacing:-0.06em;}.cls-37{letter-spacing:-0.05em;}.cls-38{letter-spacing:-0.03em;}.cls-39{letter-spacing:-0.03em;}.cls-40{letter-spacing:1.34em;}.cls-41{letter-spacing:-0.03em;}.cls-42{letter-spacing:1.26em;}.cls-43{letter-spacing:-0.01em;}.cls-44{letter-spacing:1.48em;}.cls-45{letter-spacing:1.48em;}.cls-46{letter-spacing:-0.01em;}.cls-47{letter-spacing:-0.01em;}.cls-48{letter-spacing:-0.01em;}.cls-49{letter-spacing:-0.05em;}.cls-50{letter-spacing:-0.05em;}.cls-51{letter-spacing:-0.05em;}.cls-52{letter-spacing:-0.05em;}.cls-53{letter-spacing:0.46em;}.cls-54{letter-spacing:0.46em;}.cls-55{letter-spacing:-0.02em;}.cls-56{letter-spacing:-0.01em;}.cls-57{letter-spacing:0.46em;}.cls-58{letter-spacing:1.18em;}.cls-59{letter-spacing:1.18em;}.cls-60{letter-spacing:-0.02em;}.cls-61{letter-spacing:1.56em;}.cls-62{letter-spacing:-0.02em;}.cls-63{letter-spacing:1.56em;}.cls-64{letter-spacing:0.57em;}.cls-65{letter-spacing:0.5em;}.cls-66{letter-spacing:-0.03em;}.cls-67{letter-spacing:0.57em;}.cls-68{letter-spacing:0.79em;}.cls-69{letter-spacing:0.79em;}.cls-70{letter-spacing:0.79em;}.cls-71{letter-spacing:0.11em;}.cls-72{letter-spacing:0.11em;}.cls-73{letter-spacing:0.11em;}.cls-74{letter-spacing:0.11em;}.cls-75{letter-spacing:0.08em;}.cls-76{fill:#c7b299;}.cls-77{fill:#dcdae0;}.cls-78{fill:#a38161;}.cls-79{fill:#322d26;}.cls-80{fill:#8c6239;}.cls-81{stroke:#000;stroke-width:3px;}.cls-106,.cls-81{stroke-miterlimit:10;}.cls-82{fill:#ecbc96;}.cls-83{fill:#bdd0e7;}.cls-84{fill:#8ca8d5;}.cls-85{fill:#2c364e;}.cls-86{fill:#edba91;}.cls-87{fill:#e3ad7f;}.cls-88{fill:#e7af84;}.cls-89{fill:#d68e5f;}.cls-90{fill:#622d02;}.cls-91{fill:#612a01;}.cls-92{fill:#723701;}.cls-93{fill:#602e03;}.cls-94{fill:#e1c1b0;}.cls-95{fill:#bdd0e9;}.cls-96{fill:#9fb8d9;}.cls-97{fill:#5689c7;}.cls-98{fill:#4d71a7;}.cls-99{fill:#5a89c4;}.cls-100{fill:#6495d2;}.cls-101{fill:#5887c3;}.cls-102{fill:#6494d2;}.cls-103{fill:#6394d2;}.cls-104{fill:#6194d2;}.cls-105{fill:#517eb4;}.cls-106{stroke:#c8c8c8;stroke-width:2px;}.cls-107{fill:#5f2c01;}.cls-108{fill:#e3e3e3;}.cls-109{fill:#c8c8c8;}.cls-110{fill:#050303;}</style><clipPath id="clip-path"><rect class="cls-1" y="-2" width="861" height="702"/></clipPath></defs><g class="cls-2"><g id="Dr_aula_virtual" data-name="Dr aula virtual"><g class="cls-3"><path class="cls-4" d="M805.3,311.54h-329L440.18,349V66.24c0-8.65,6.55-15.65,14.62-15.65H805.3c8.08,0,14.62,7,14.62,15.65V295.88C819.92,304.53,813.38,311.54,805.3,311.54Z"/><path class="cls-5" d="M792.15,294.09h-329L427,331.55V48.79c0-8.64,6.54-15.65,14.61-15.65H792.15c8.07,0,14.61,7,14.61,15.65V278.43C806.76,287.08,800.22,294.09,792.15,294.09Z"/><rect class="cls-4" x="452.88" y="24.77" width="388.12" height="263.29" rx="15.37"/><rect class="cls-6" x="436.2" y="16" width="399.34" height="263.29" rx="15.37"/><path class="cls-5" d="M804.12,326.88a3.63,3.63,0,1,1-3.66-3.59A3.63,3.63,0,0,1,804.12,326.88Z"/><path class="cls-6" d="M824.63,325.3a3.63,3.63,0,1,1-3.67-3.59A3.63,3.63,0,0,1,824.63,325.3Z"/><circle class="cls-5" cx="811.98" cy="299.16" r="7.26" transform="translate(26.29 661.78) rotate(-45)"/><circle class="cls-5" cx="834.08" cy="270.66" r="17.6" transform="translate(110.23 765.63) rotate(-52.34)"/><circle class="cls-7" cx="783.27" cy="292.41" r="17.75" transform="translate(17.96 629.04) rotate(-44.21)"/><ellipse class="cls-5" cx="429.73" cy="32.87" rx="28.82" ry="29.35" transform="matrix(0.57, -0.82, 0.82, 0.57, 158.43, 367.75)"/><circle class="cls-4" cx="402.15" cy="74.99" r="33.49"/><path class="cls-5" d="M388.49,20.17A7.3,7.3,0,1,1,378.33,22,7.32,7.32,0,0,1,388.49,20.17Z"/><path class="cls-5" d="M368.28,36a3.65,3.65,0,1,1-5.08.93A3.66,3.66,0,0,1,368.28,36Z"/><path class="cls-6" d="M409.48,59.28a3.65,3.65,0,1,1-5.09.93A3.66,3.66,0,0,1,409.48,59.28Z"/><circle class="cls-8" cx="396" cy="72.46" r="33.49"/><text class="cls-9" transform="translate(461 49.68)">E<tspan class="cls-10" x="10.21" y="0">l</tspan><tspan class="cls-11" x="14.54" y="0"> </tspan><tspan class="cls-12" x="26.42" y="0">I</tspan><tspan x="31.08" y="0">nstituto</tspan><tspan class="cls-11" x="93.41" y="0"> </tspan><tspan class="cls-13" x="105.29" y="0">N</tspan><tspan x="116.94" y="0">aciona</tspan><tspan class="cls-10" x="167.96" y="0">l</tspan><tspan class="cls-14" x="172.3" y="0"> </tspan><tspan x="184.17" y="0">de</tspan><tspan class="cls-15" x="203.55" y="0"> </tspan><tspan class="cls-16" x="215.43" y="0">S</tspan><tspan x="225.52" y="0">alud</tspan><tspan class="cls-17" x="259.46" y="0"> </tspan><tspan x="270.64" y="0">te</tspan><tspan class="cls-11" x="286.64" y="0"> </tspan><tspan x="298.52" y="0">i</tspan><tspan class="cls-18" x="302.77" y="0">n</tspan><tspan x="312.47" y="0">vit</tspan><tspan class="cls-19" x="331.75" y="0">a</tspan><tspan class="cls-11" x="340.44" y="0"> </tspan><tspan class="cls-20" x="352.32" y="0">a</tspan><tspan x="361" y="0"> </tspan><tspan class="cls-12" x="0" y="19.2">a</tspan><tspan x="8.98" y="19.2">fianza</tspan><tspan class="cls-21" x="56.08" y="19.2">r</tspan><tspan class="cls-22" x="62.24" y="19.2"> </tspan><tspan x="72.93" y="19.2">tus</tspan><tspan class="cls-23" x="97.97" y="19.2"> </tspan><tspan x="109.32" y="19.2">conocimie</tspan><tspan class="cls-24" x="189.79" y="19.2">n</tspan><tspan class="cls-25" x="199.58" y="19.2">tos</tspan><tspan class="cls-26" x="224.44" y="19.2"> </tspan><tspan class="cls-27" x="235.8" y="19.2">en</tspan><tspan class="cls-28" x="255" y="19.2"> </tspan><tspan x="266.35" y="19.2">micologí</tspan><tspan class="cls-20" x="332.27" y="19.2">a</tspan><tspan class="cls-23" x="340.96" y="19.2"> </tspan><tspan class="cls-20" x="352.31" y="19.2">a</tspan><tspan x="361" y="19.2"> </tspan><tspan x="0" y="38.4">t</tspan><tspan class="cls-29" x="6.7" y="38.4">r</tspan><tspan class="cls-30" x="13.01" y="38.4">a</tspan><tspan class="cls-31" x="21.79" y="38.4">vés</tspan><tspan class="cls-32" x="47.84" y="38.4"> </tspan><tspan x="52.42" y="38.4">de</tspan><tspan class="cls-32" x="71.79" y="38.4"> </tspan><tspan class="cls-31" x="76.37" y="38.4">nuest</tspan><tspan class="cls-33" x="120.61" y="38.4">r</tspan><tspan class="cls-34" x="126.88" y="38.4">os</tspan><tspan class="cls-32" x="145.04" y="38.4"> </tspan><tspan class="cls-31" x="149.61" y="38.4">cu</tspan><tspan class="cls-35" x="168.54" y="38.4">r</tspan><tspan x="174.73" y="38.4">sos</tspan><tspan class="cls-36" x="201.33" y="38.4"> </tspan><tspan x="205.9" y="38.4">que</tspan><tspan class="cls-37" x="235.2" y="38.4"> </tspan><tspan x="239.77" y="38.4">hacen</tspan><tspan class="cls-36" x="286.96" y="38.4"> </tspan><tspan x="291.53" y="38.4">pa</tspan><tspan class="cls-38" x="310.67" y="38.4">r</tspan><tspan x="316.71" y="38.4">te</tspan><tspan class="cls-37" x="332.71" y="38.4"> </tspan><tspan x="337.29" y="38.4">de</tspan><tspan class="cls-39" x="356.67" y="38.4">l</tspan><tspan class="cls-25" x="361" y="38.4"> </tspan><tspan x="0" y="57.6">aul</tspan><tspan class="cls-20" x="23.86" y="57.6">a</tspan><tspan class="cls-40" x="32.54" y="57.6"> </tspan><tspan class="cls-34" x="59.48" y="57.6">vi</tspan><tspan class="cls-41" x="72.05" y="57.6">r</tspan><tspan x="78.1" y="57.6">tual.</tspan><tspan class="cls-42" x="112.92" y="57.6"> </tspan><tspan class="cls-43" x="138.56" y="57.6">A</tspan><tspan x="148.98" y="57.6">quí</tspan><tspan class="cls-44" x="173.24" y="57.6"> </tspan><tspan x="202.3" y="57.6">pod</tspan><tspan class="cls-29" x="232.18" y="57.6">r</tspan><tspan class="cls-34" x="238.49" y="57.6">ás</tspan><tspan class="cls-45" x="255.97" y="57.6"> </tspan><tspan class="cls-25" x="285.04" y="57.6">enco</tspan><tspan class="cls-46" x="322.99" y="57.6">n</tspan><tspan x="332.78" y="57.6">t</tspan><tspan class="cls-47" x="339.49" y="57.6">r</tspan><tspan x="345.79" y="57.6">a</tspan><tspan class="cls-20" x="354.85" y="57.6">r</tspan><tspan x="361.01" y="57.6"> </tspan><tspan x="0" y="76.8">i</tspan><tspan class="cls-48" x="4.26" y="76.8">n</tspan><tspan class="cls-29" x="14.05" y="76.8">f</tspan><tspan x="20.11" y="76.8">ormación</tspan><tspan class="cls-49" x="93.58" y="76.8"> </tspan><tspan x="98.22" y="76.8">específic</tspan><tspan class="cls-21" x="168.17" y="76.8">a</tspan><tspan class="cls-50" x="176.86" y="76.8"> </tspan><tspan x="181.5" y="76.8">de</tspan><tspan class="cls-51" x="200.88" y="76.8"> </tspan><tspan class="cls-25" x="205.51" y="76.8">ocho</tspan><tspan class="cls-52" x="243.9" y="76.8"> </tspan><tspan class="cls-25" x="248.54" y="76.8">e</tspan><tspan class="cls-24" x="257.83" y="76.8">n</tspan><tspan class="cls-47" x="267.63" y="76.8">f</tspan><tspan x="273.69" y="76.8">ermedades </tspan><tspan x="0" y="96">que</tspan><tspan class="cls-53" x="29.3" y="96"> </tspan><tspan x="42.13" y="96">son:</tspan><tspan class="cls-54" x="74.93" y="96"> </tspan><tspan x="87.76" y="96">Cri</tspan><tspan class="cls-43" x="109.52" y="96">p</tspan><tspan x="119.46" y="96">tococosis</tspan><tspan class="cls-54" x="194.51" y="96"> </tspan><tspan x="207.35" y="96">-</tspan><tspan class="cls-54" x="215.51" y="96"> </tspan><tspan x="228.34" y="96">Espo</tspan><tspan class="cls-55" x="266.79" y="96">r</tspan><tspan class="cls-56" x="273.06" y="96">o</tspan><tspan class="cls-27" x="282.65" y="96">tricosis</tspan><tspan class="cls-57" x="340" y="96"> </tspan><tspan x="352.84" y="96">- </tspan><tspan x="0" y="115.2">Candidiasis</tspan><tspan class="cls-58" x="88.78" y="115.2"> </tspan><tspan x="113.17" y="115.2">-</tspan><tspan class="cls-59" x="121.33" y="115.2"> </tspan><tspan x="145.72" y="115.2">Pa</tspan><tspan class="cls-29" x="164.54" y="115.2">r</tspan><tspan class="cls-31" x="170.84" y="115.2">acoccidioidomicosis</tspan><tspan class="cls-59" x="328.45" y="115.2"> </tspan><tspan x="352.84" y="115.2">- </tspan><tspan class="cls-12" x="0" y="134.4">A</tspan><tspan x="10.48" y="134.4">spe</tspan><tspan class="cls-60" x="38.29" y="134.4">r</tspan><tspan class="cls-31" x="44.42" y="134.4">gilosis</tspan><tspan class="cls-61" x="93.2" y="134.4"> </tspan><tspan x="123.62" y="134.4">-</tspan><tspan class="cls-61" x="131.78" y="134.4"> </tspan><tspan x="162.2" y="134.4">C</tspan><tspan class="cls-62" x="173.18" y="134.4">r</tspan><tspan class="cls-31" x="179.45" y="134.4">omoblastomicosis</tspan><tspan class="cls-63" x="322.42" y="134.4"> </tspan><tspan x="352.84" y="134.4">- </tspan><tspan x="0" y="153.6">Histoplasmosis</tspan><tspan class="cls-64" x="119.42" y="153.6"> </tspan><tspan x="133.95" y="153.6">-</tspan><tspan class="cls-64" x="142.11" y="153.6"> </tspan><tspan class="cls-12" x="156.63" y="153.6">M</tspan><tspan class="cls-31" x="170.22" y="153.6">u</tspan><tspan class="cls-62" x="180.12" y="153.6">r</tspan><tspan class="cls-31" x="186.39" y="153.6">cormicosis</tspan><tspan class="cls-65" x="271.05" y="153.6"> </tspan><tspan class="cls-66" x="284.51" y="153.6">y</tspan><tspan class="cls-67" x="292.67" y="153.6"> </tspan><tspan x="307.19" y="153.6">mucho </tspan><tspan x="0" y="172.8">mas.</tspan><tspan class="cls-68" x="36.99" y="172.8"> </tspan><tspan x="55.03" y="172.8">además</tspan><tspan class="cls-68" x="116.19" y="172.8"> </tspan><tspan x="134.23" y="172.8">pod</tspan><tspan class="cls-29" x="164.12" y="172.8">r</tspan><tspan class="cls-31" x="170.42" y="172.8">ás</tspan><tspan class="cls-69" x="187.91" y="172.8"> </tspan><tspan class="cls-62" x="205.95" y="172.8">r</tspan><tspan class="cls-31" x="212.22" y="172.8">ealiza</tspan><tspan class="cls-20" x="257.32" y="172.8">r</tspan><tspan class="cls-70" x="263.48" y="172.8"> </tspan><tspan x="281.51" y="172.8">di</tspan><tspan class="cls-47" x="295.85" y="172.8">f</tspan><tspan x="301.92" y="172.8">e</tspan><tspan class="cls-55" x="311.21" y="172.8">r</tspan><tspan x="317.48" y="172.8">e</tspan><tspan class="cls-46" x="326.78" y="172.8">n</tspan><tspan x="336.57" y="172.8">tes </tspan><tspan x="0" y="192">actividades</tspan><tspan class="cls-71" x="88.56" y="192"> </tspan><tspan x="95.72" y="192">pa</tspan><tspan class="cls-29" x="114.86" y="192">r</tspan><tspan class="cls-21" x="121.16" y="192">a</tspan><tspan class="cls-72" x="129.85" y="192"> </tspan><tspan x="137.01" y="192">pone</tspan><tspan class="cls-21" x="176.02" y="192">r</tspan><tspan class="cls-73" x="182.18" y="192"> </tspan><tspan class="cls-20" x="189.34" y="192">a</tspan><tspan class="cls-74" x="198.03" y="192"> </tspan><tspan x="205.2" y="192">prueb</tspan><tspan class="cls-20" x="251.08" y="192">a</tspan><tspan class="cls-75" x="259.77" y="192"> </tspan><tspan x="266.52" y="192">todo</tspan><tspan class="cls-71" x="302.75" y="192"> </tspan><tspan x="309.92" y="192">lo</tspan><tspan class="cls-71" x="324.54" y="192"> </tspan><tspan x="331.71" y="192">que </tspan><tspan x="0" y="211.2">ap</tspan><tspan class="cls-55" x="19.14" y="211.2">r</tspan><tspan x="25.41" y="211.2">endiste..</tspan></text><rect class="cls-76" x="30.5" y="143.89" width="280.95" height="634.16" rx="4.7" transform="translate(341.95 921.94) rotate(180)"/><rect class="cls-77" x="45.95" y="159.18" width="241.22" height="618.87" rx="4.3" transform="translate(333.12 937.23) rotate(180)"/><path class="cls-78" d="M36.54,779.58,178.6,787c8.38,0,15.17-5.5,15.17-12.29V150.29c0-6.79-6.79-12.29-15.17-12.29L36.54,145.42c-8.39,0-15.18,5.5-15.18,12.29V767.29C21.36,774.08,28.15,779.58,36.54,779.58Z"/><path class="cls-76" d="M166.56,481.83a9.35,9.35,0,0,0,9.35-9.35V412.23a9.35,9.35,0,0,0-18.7,0v60.25A9.35,9.35,0,0,0,166.56,481.83Z"/><path d="M156.51,442.35c0,8.81,4.5,15.95,10.05,15.95s10.05-7.14,10.05-15.95-4.5-16-10.05-16S156.51,433.55,156.51,442.35Z"/><path class="cls-76" d="M21.75,253.83a5.9,5.9,0,0,0,5.9-5.9V193.75a5.9,5.9,0,0,0-11.8,0v54.18A5.9,5.9,0,0,0,21.75,253.83Z"/><path class="cls-76" d="M21,737.15a5.9,5.9,0,0,0,5.9-5.9V677.07a5.9,5.9,0,1,0-11.8,0v54.18A5.9,5.9,0,0,0,21,737.15Z"/><path class="cls-79" d="M162.86,467.08a3.71,3.71,0,1,0,3.7-3.71A3.7,3.7,0,0,0,162.86,467.08Z"/><polygon class="cls-79" points="166.56 467.08 169.24 475.78 162.85 475.78 166.56 467.08"/><path class="cls-80" d="M52.86,779.91a1.86,1.86,0,0,0,1.86-1.86V148.64a1.86,1.86,0,1,0-3.71,0V778.05A1.85,1.85,0,0,0,52.86,779.91Z"/><path class="cls-80" d="M84.88,782.6a1.85,1.85,0,0,0,1.86-1.85V143.89a1.86,1.86,0,1,0-3.71,0V780.75A1.85,1.85,0,0,0,84.88,782.6Z"/><path class="cls-80" d="M117.16,781.73a1.86,1.86,0,0,0,1.86-1.86V142.52a1.86,1.86,0,1,0-3.71,0V779.87A1.85,1.85,0,0,0,117.16,781.73Z"/><path class="cls-80" d="M150.81,786.31a1.85,1.85,0,0,0,1.85-1.86V142.52a1.86,1.86,0,1,0-3.71,0V784.45A1.86,1.86,0,0,0,150.81,786.31Z"/><path class="cls-80" d="M180.46,786.17a1.85,1.85,0,0,0,1.85-1.86V142.38a1.85,1.85,0,1,0-3.7,0V784.31A1.85,1.85,0,0,0,180.46,786.17Z"/><path class="cls-6" d="M192.6,409c49.1,23.07,131.09,57.84,180.91,79.51V421.63h48.4V525.34s4.61,48.39-35.73,30L324,531.1,192.6,691.27Z"/><path class="cls-81" d="M202.7,490.86s12.77-47.94,38.91-52.5c20.7-3.61,44.25,2.78,56.55,21.45a46.13,46.13,0,0,1,7.36,24.62c.12,6.58,0,16.15-1.39,22.36"/><path class="cls-82" d="M253.67,430.85l-3.46,24.2c9,2.86,27.56,7.44,36.88,8.06l2.3-28.81Z"/><polygon class="cls-83" points="247.91 429.7 234.08 448.13 209.88 565.67 298.61 470.03 297.46 445.83 266.92 453.32 247.91 429.7"/><polygon class="cls-84" points="234.08 466.32 258.28 466.24 272.11 486.16 265.19 453.89 234.08 466.32"/><path class="cls-85" d="M265.19,453.89,243.3,462c.85,4.66,7.34,15.89,3.94,20.43l-32.75,56.77-4.61,25.36,20.74-20.75,23.19-57.42c1-4.12,14.14-9.42,17.14-11.71Z"/><path class="cls-86" d="M235.4,357.84c.62-9.25-2.59-18.71-12.73-10.74C212.39,357.51,231.61,376.39,235.4,357.84Z"/><path class="cls-87" d="M232.61,353.55c-.1-1.47.08-3.81-1.7-4.29,2.58-9-12.84-3.73-6.42-.38h-.05c1,.05,1.56,1.11,2,1.88-6,3.34-2.8,12,3.25,13.08C233.69,363.84,232.22,356.33,232.61,353.55Z"/><path class="cls-86" d="M315,357.84c-.62-9.25,2.59-18.71,12.73-10.74C338,357.51,318.8,376.39,315,357.84Z"/><path class="cls-87" d="M317.8,353.55c.1-1.47-.08-3.81,1.7-4.29-2.57-9,12.84-3.73,6.42-.38H326c-1,.05-1.56,1.11-2,1.88,6,3.34,2.8,12-3.25,13.08C316.72,363.84,318.19,356.33,317.8,353.55Z"/><path class="cls-88" d="M276.14,391.09l-.58,46.67C313.59,432,318.2,409,318.2,409l1.73-100.82-43.21,4C276.56,327.7,276,376.38,276.14,391.09Z"/><path class="cls-82" d="M231.78,306.4l-1.16,101.4s8.07,24.2,46.1,30v-48.4l4.6-1.15c-4.23-13.65-4.32-61.27-4.6-76Z"/><path class="cls-89" d="M275.74,428.9c1.51.09,3.06-1.5,3.88-2.67C276.75,425.76,268,426,275.74,428.9Z"/><path class="cls-90" d="M226.89,331.31c-1.16-13.25-5.11-28.08,2.64-39.83-.13-11.84,7.83-27.92,19.95-29.84,6.16.32,6,14.45,23.78,15.95,16.36.38,35.9-4.94,48,9.74,2.18,2.59,1.39,5.31,1.59,8.7.89,15.64,2.3,33.41-3.1,48.43-1.59-44.21,6.13-28.42-33.52-26.44-9.36.39-16.39,1.05-27.93-.56-7.08-2.32-14.06-6.14-21.86-4.68-3.88.83-3.56,13.06-4.91,16.69-.65,3.91.61,11.54-.87,14.95C228,342.5,227.22,334.37,226.89,331.31Z"/><path class="cls-91" d="M245.78,307.25c-11.65-3-13.36-16.3-12.28-26.56-11.18,10.56,1.43,27.4,12.92,31.31C256.93,313.65,253,308.56,245.78,307.25Z"/><path class="cls-92" d="M244.76,288.47c.64,8.89,4.16,18.33,11.91,22.74-20.29-4.75-31.15-17.55-21.57-38,1.32-2.31,13.5-14.7,14.06-7.8C247.43,272.8,243.28,280.17,244.76,288.47Z"/><path class="cls-93" d="M259,346.41c2.73,1.86,4.77,7.25,2.24,9.9-2.81.31-8.69,1.94-8.77-2.42-1.23-3.79,2.58-1.51,3.68-3.95.46-1.23-1.25-2.45-.65-3.41S258.23,346,259,346.41Z"/><path class="cls-93" d="M293.58,346.41c2.74,1.86,4.78,7.25,2.25,9.9-2.81.31-8.69,1.94-8.78-2.42-1.23-3.79,2.59-1.51,3.69-3.95.46-1.23-1.25-2.45-.65-3.41S292.8,346,293.58,346.41Z"/><path class="cls-93" d="M284.78,410.11c-.07,15.08-16.06,15.08-16.13,0S284.71,395,284.78,410.11Z"/><rect class="cls-94" x="379.27" y="410.11" width="32.26" height="3.46"/><rect class="cls-95" x="376.97" y="412.41" width="39.18" height="9.22"/><rect class="cls-96" x="376.97" y="412.41" width="3.46" height="9.22"/><rect class="cls-97" x="380.42" y="400.89" width="31.11" height="9.22"/><rect class="cls-98" x="380.42" y="403.19" width="13.83" height="6.91"/><path class="cls-99" d="M421.33,363.44c-1.07,12,5.58,39.08-13.83,39.18-7.63-.82-27,2.85-32.26-4.61l-13.83-24.2c-4.61-8.07,1.15-11.52,1.15-11.52l9.22-6.92,10.06-5.23c2.14-1,23-.33,25.66-.53A13.87,13.87,0,0,1,421.33,363.44Z"/><path class="cls-100" d="M417.3,361.21c-.9,10.38,4.8,34.57-12.14,34.49-6.7-.71-23.67,2.5-28.32-4.05l-12.13-21.31c-4-7.1,1-10.15,1-10.15,2.06-1.51,8.89-7,11.25-7.73v-38a6,6,0,0,1,6.91,5.77v29C394.72,349.61,416.93,344.41,417.3,361.21Z"/><path class="cls-101" d="M377,358.25c-2.52.35-4.59-1.59-4.61-4.61V319.07c0-3,2.09-5,4.61-4.61Z"/><path class="cls-102" d="M379.74,363.59c-3.06,1.54-11,12-14.71,7.1-1.88-2.21-5.47-5.91-2.11-8.54l9.47-7.65c3.27-2.72,6.15,1.55,7.9,3.87A3.71,3.71,0,0,1,379.74,363.59Z"/><path class="cls-103" d="M417.19,370.93h-1.05V345a5.08,5.08,0,0,1,5.77,5.19C421,354.52,424.93,371.08,417.19,370.93Z"/><path class="cls-99" d="M415.1,370.93h1V345a5.07,5.07,0,0,0-5.76,5.19C411.27,354.52,407.36,371.08,415.1,370.93Z"/><path class="cls-103" d="M392.52,370.93h-1.15V345a5.42,5.42,0,0,1,6.34,5.19v15.55A5.21,5.21,0,0,1,392.52,370.93Z"/><path class="cls-99" d="M390.22,370.93h1.15V345a5.42,5.42,0,0,0-6.34,5.19v15.55A5.21,5.21,0,0,0,390.22,370.93Z"/><path class="cls-103" d="M405.2,370.93h-1.15V345a5.41,5.41,0,0,1,6.33,5.19v15.55A5.2,5.2,0,0,1,405.2,370.93Z"/><path class="cls-99" d="M402.89,370.93h1.16V345a5.41,5.41,0,0,0-6.34,5.19v15.55A5.2,5.2,0,0,0,402.89,370.93Z"/><path class="cls-104" d="M192.6,313.89v58.77s11.52,0,11.52-9.22c0-7.35.31-32.27.91-42.08C205.15,314.66,198.7,313,192.6,313.89Z"/><path class="cls-105" d="M201.4,358.25H175.73c-3.2,0-5.38,2-5,4.61h35.72C206.77,360.29,204.6,358.29,201.4,358.25Z"/><path class="cls-104" d="M201.4,370.93H175.73c-3.38.16-5.49-5.13-5-9.22h35.72C206.89,365.8,204.78,371.09,201.4,370.93Z"/><path class="cls-105" d="M201.51,343.52,175.85,343c-3.19,0-5.41,1.93-5.11,4.51l35.7.72C206.84,345.66,204.71,343.62,201.51,343.52Z"/><path class="cls-104" d="M201.26,356.19l-25.66-.51c-3.38.09-5.38-5.25-4.84-9.32l35.7.72C206.85,351.17,204.63,356.43,201.26,356.19Z"/><path class="cls-105" d="M201,330.1l-24-1.5c-3-.16-5.16,1.78-5,4.31L205.36,335C205.85,332.5,204,330.3,201,330.1Z"/><path class="cls-104" d="M200.16,342.75l-24-1.5c-3.18,0-4.81-5.52-4.12-9.49l33.36,2.08C205.62,337.86,203.32,343.13,200.16,342.75Z"/><path class="cls-105" d="M203.77,316.46l-22.28-2.16c-2.77-.23-4.82,1.19-4.73,3.38l31,3C208.26,318.55,206.53,316.76,203.77,316.46Z"/><path class="cls-104" d="M202.76,326.92l-22.29-2.16c-2.93-.16-4.35-4.65-3.62-8l31,3C207.92,323.2,205.67,327.32,202.76,326.92Z"/><path class="cls-106" d="M284.65,523.76l-14.54,46s-3.64,12.12,3.63,18.18"/><path class="cls-106" d="M314,528.33l-5.42,49.57s-1.62,13-11.42,15.29"/><path class="cls-81" d="M284,525.58s0-25.45,19.39-19.39c0-.09,16.15-1.08,10.91,23"/><path class="cls-107" d="M243.73,340.86l3.83-3.38,1.92-1.69a10.72,10.72,0,0,1,2.29-1.56,10.23,10.23,0,0,1,2.74-1,8.53,8.53,0,0,1,2.89-.09,26,26,0,0,1,2.63.36,4.48,4.48,0,0,1,1.3.38,1.53,1.53,0,0,1,1,1.44.5.5,0,0,1-.14.4l-.15.14a1.61,1.61,0,0,1-1.37.66,6.06,6.06,0,0,1-1.19-.11c-.8-.07-1.6-.28-2.4-.32L256,336a7.11,7.11,0,0,0-1,0,8.87,8.87,0,0,0-2.1.53,14.75,14.75,0,0,0-2.06,1l-2.24,1.24-4.47,2.49a.31.31,0,0,1-.35-.51Z"/><path class="cls-107" d="M304.32,341.37l-4.47-2.49-2.23-1.24a14.75,14.75,0,0,0-2.06-1,8.87,8.87,0,0,0-2.1-.53,7.21,7.21,0,0,0-1,0l-1.14.1c-.81,0-1.61.25-2.41.32a5.89,5.89,0,0,1-1.18.11,1.62,1.62,0,0,1-1.38-.66l-.14-.14a.52.52,0,0,1-.15-.4,1.55,1.55,0,0,1,1-1.44,4.54,4.54,0,0,1,1.31-.38,25.39,25.39,0,0,1,2.62-.36,10.2,10.2,0,0,1,1.39-.08,10.41,10.41,0,0,1,1.51.17,10.23,10.23,0,0,1,2.74,1,11,11,0,0,1,2.29,1.56l1.91,1.69,3.84,3.38a.31.31,0,0,1,0,.44A.32.32,0,0,1,304.32,341.37Z"/><path class="cls-108" d="M216.8,507.48c-.08,15.82-23,15.82-23.05,0S216.72,491.65,216.8,507.48Z"/><path class="cls-109" d="M193.75,506.32c-.17-12.71,18.61-12.71,18.44,0C212.36,519,193.58,519,193.75,506.32Z"/><rect class="cls-109" x="201.82" y="489.62" width="2.3" height="8.07"/><path class="cls-110" d="M295.27,590.79c-1.76-.25-4.75.08-4.5,2.43,1.59,2.95,7.29,2.24,9.66.49.91-.66.28-2.85-.61-3.16C298.38,590.51,296.76,591,295.27,590.79Z"/><path class="cls-110" d="M271.73,587.83c1.41,2.69,6.53,5.57,9,3,1.21-3.77-4.35-3.77-6.42-5.44A1.78,1.78,0,0,0,271.73,587.83Z"/><rect class="cls-1" y="-77" width="859" height="699"/></g></g></g></svg>