<?xml version="1.0" encoding="UTF-8"?>
<svg id="Dr_aula_virtual" data-name="Dr aula virtual" xmlns="http://www.w3.org/2000/svg" viewBox="0 0 320 521">
  <defs>
    <style>
      .cls-1 {
        fill: #5689c7;
      }

      .cls-2 {
        fill: #2c364e;
      }

      .cls-3 {
        fill: #5f2c01;
      }

      .cls-4 {
        fill: #8c6239;
      }

      .cls-5 {
        fill: #723701;
      }

      .cls-6 {
        fill: #fff;
      }

      .cls-7 {
        fill: #e6e6e6;
        opacity: .35;
      }

      .cls-8 {
        fill: #4d71a7;
      }

      .cls-9 {
        fill: #5a89c4;
      }

      .cls-10 {
        fill: #6394d2;
      }

      .cls-11 {
        fill: #517eb4;
      }

      .cls-12 {
        fill: #bdd0e9;
      }

      .cls-13 {
        fill: #c7b299;
      }

      .cls-14 {
        fill: #bdd0e7;
      }

      .cls-15 {
        fill: #602e03;
      }

      .cls-16 {
        fill: #9fb8d9;
      }

      .cls-17 {
        fill: #322d26;
      }

      .cls-18 {
        fill: #612a01;
      }

      .cls-19 {
        stroke: #000;
        stroke-width: 3px;
      }

      .cls-19, .cls-20 {
        fill: none;
        stroke-miterlimit: 10;
      }

      .cls-21 {
        fill: #e1c1b0;
      }

      .cls-22 {
        fill: #8ca8d5;
      }

      .cls-23 {
        fill: #c8c8c8;
      }

      .cls-24 {
        fill: #d68e5f;
      }

      .cls-25 {
        fill: #edba91;
      }

      .cls-26 {
        fill: #5887c3;
      }

      .cls-27 {
        fill: #6495d2;
      }

      .cls-28 {
        fill: #050303;
      }

      .cls-29 {
        fill: #e3ad7f;
      }

      .cls-20 {
        stroke: #c8c8c8;
        stroke-width: 2px;
      }

      .cls-30 {
        fill: #6494d2;
      }

      .cls-31 {
        fill: #ecbc96;
      }

      .cls-32 {
        fill: #e7af84;
      }

      .cls-33 {
        fill: #dcdae0;
      }

      .cls-34 {
        fill: #622d02;
      }

      .cls-35 {
        fill: #6194d2;
      }

      .cls-36 {
        fill: #a38161;
      }

      .cls-37 {
        fill: #e3e3e3;
      }
    </style>
  </defs>
  <ellipse class="cls-7" cx="157.49" cy="483.95" rx="151.79" ry="10.42"/>
  <rect class="cls-13" x="42.36" y="56.47" width="190" height="428.87" rx="4.7" ry="4.7" transform="translate(274.72 541.8) rotate(180)"/>
  <rect class="cls-33" x="52.81" y="66.81" width="163.13" height="418.52" rx="4.3" ry="4.3" transform="translate(268.75 552.15) rotate(180)"/>
  <path class="cls-6" d="m151.98,235.72c33.21,15.6,88.66,39.11,122.35,53.77v-45.2h32.73v70.13s3.12,32.73-24.16,20.26l-42.08-16.36-88.84,108.32v-190.92Z"/>
  <path class="cls-19" d="m158.82,291.11s8.63-32.42,26.31-35.5c14-2.44,29.92,1.88,38.24,14.51,3.25,4.93,4.88,10.75,4.98,16.65.08,4.45,0,10.92-.94,15.12"/>
  <path class="cls-31" d="m193.28,250.53l-2.34,16.36c6.06,1.94,18.63,5.03,24.94,5.45l1.56-19.48-24.16-2.34Z"/>
  <polygon class="cls-14" points="189.39 249.75 180.04 262.22 163.67 341.71 223.68 277.03 222.9 260.66 202.25 265.73 189.39 249.75"/>
  <polygon class="cls-22" points="180.04 274.52 196.4 274.47 205.75 287.94 201.08 266.12 180.04 274.52"/>
  <path class="cls-2" d="m201.08,266.12l-14.81,5.45c.58,3.15,4.97,10.74,2.67,13.82,0,0-22.15,38.39-22.15,38.39l-3.12,17.14,14.03-14.03,15.68-38.83c.68-2.79,9.56-6.37,11.59-7.92l-3.9-14.03Z"/>
  <g>
    <path class="cls-25" d="m180.93,201.16c.42-6.26-1.75-12.66-8.61-7.26-6.95,7.04,6.05,19.8,8.61,7.26Z"/>
    <path class="cls-29" d="m179.05,198.26c-.07-.99.05-2.58-1.15-2.91,1.74-6.06-8.69-2.52-4.34-.25-.01,0-.02,0-.03,0,.69.03,1.05.75,1.38,1.27-4.08,2.26-1.89,8.1,2.2,8.85,2.68,0,1.69-5.08,1.95-6.96Z"/>
    <path class="cls-25" d="m234.77,201.16c-.42-6.26,1.75-12.66,8.61-7.26,6.95,7.04-6.05,19.8-8.61,7.26Z"/>
    <path class="cls-29" d="m236.65,198.26c.07-.99-.05-2.58,1.15-2.91-1.74-6.06,8.69-2.52,4.34-.25.01,0,.02,0,.03,0-.69.03-1.05.75-1.38,1.27,4.08,2.26,1.89,8.1-2.2,8.85-2.68,0-1.69-5.08-1.95-6.96Z"/>
  </g>
  <g>
    <g>
      <path class="cls-32" d="m208.48,223.65l-.39,31.56c25.72-3.9,28.83-19.48,28.83-19.48l1.17-68.19-29.22,2.73c-.11,10.51-.48,43.43-.39,53.38Z"/>
      <path class="cls-31" d="m178.48,166.37l-.78,68.58s5.45,16.36,31.17,20.26v-32.73l3.12-.78c-2.87-9.23-2.93-41.44-3.12-51.43l-30.39-3.9Z"/>
    </g>
    <path class="cls-24" d="m208.21,249.21c1.03.06,2.07-1.01,2.63-1.81-1.94-.32-7.88-.18-2.63,1.81Z"/>
  </g>
  <g>
    <path class="cls-34" d="m175.17,183.22c-.78-8.96-3.45-18.99,1.79-26.94-.09-8.01,5.3-18.88,13.49-20.19,4.16.22,4.07,9.78,16.08,10.79,11.07.26,24.28-3.34,32.43,6.59,1.48,1.75.94,3.59,1.07,5.88.6,10.58,1.56,22.6-2.09,32.75-1.08-29.9,4.14-19.22-22.67-17.88-6.33.26-11.09.71-18.89-.38-4.79-1.56-9.51-4.15-14.79-3.16-2.63.56-2.4,8.83-3.32,11.29-.44,2.64.41,7.8-.59,10.11-1.79-1.3-2.3-6.8-2.53-8.87Z"/>
    <path class="cls-18" d="m187.95,166.95c-7.88-2.04-9.03-11.03-8.3-17.97-7.56,7.14.97,18.53,8.74,21.18,7.1,1.11,4.45-2.33-.43-3.21Z"/>
    <path class="cls-5" d="m187.26,154.25c.43,6.01,2.81,12.39,8.05,15.38-13.72-3.21-21.07-11.87-14.59-25.71.89-1.56,9.13-9.94,9.51-5.27-1.17,5.01-3.98,10-2.97,15.61Z"/>
  </g>
  <path class="cls-15" d="m196.9,193.43c1.85,1.26,3.23,4.9,1.52,6.69-1.9.21-5.87,1.31-5.93-1.63-.83-2.56,1.75-1.02,2.49-2.67.31-.84-.84-1.66-.44-2.31s1.84-.39,2.37-.08Z"/>
  <path class="cls-15" d="m220.28,193.43c1.85,1.26,3.23,4.9,1.52,6.69-1.9.21-5.87,1.31-5.93-1.63-.83-2.56,1.75-1.02,2.49-2.67.31-.84-.84-1.66-.44-2.31s1.84-.39,2.37-.08Z"/>
  <path class="cls-15" d="m214.32,236.5c-.05,10.2-10.86,10.2-10.91,0,.05-10.2,10.86-10.2,10.91,0Z"/>
  <rect class="cls-21" x="278.23" y="236.5" width="21.82" height="2.34"/>
  <rect class="cls-12" x="276.67" y="238.06" width="26.5" height="6.23"/>
  <rect class="cls-16" x="276.67" y="238.06" width="2.34" height="6.23"/>
  <rect class="cls-1" x="279" y="230.27" width="21.04" height="6.23"/>
  <rect class="cls-8" x="279" y="231.83" width="9.35" height="4.68"/>
  <g>
    <path class="cls-9" d="m306.67,204.94c-.72,8.1,3.77,26.43-9.35,26.49-5.16-.55-18.24,1.93-21.82-3.12,0,0-6.23-10.91-9.35-16.36-3.12-5.45.78-7.79.78-7.79l6.23-4.68c1.7-.88,5.11-2.66,6.8-3.54,1.45-.71,15.53-.22,17.35-.36,5.14,0,9.35,4.21,9.35,9.35Z"/>
    <path class="cls-27" d="m303.94,203.44c-.61,7.02,3.25,23.38-8.21,23.32-4.54-.48-16.01,1.69-19.15-2.74,0,0-5.47-9.61-8.21-14.41-2.74-4.8.69-6.87.69-6.87,1.39-1.02,6.01-4.71,7.61-5.23v-25.69c2.39-.29,4.7,1.4,4.68,3.9,0,0,0,19.61,0,19.61,7.33.27,22.35-3.25,22.6,8.11Z"/>
    <path class="cls-26" d="m276.67,201.44c-1.7.24-3.1-1.08-3.12-3.12,0,0,0-23.38,0-23.38.01-2.04,1.42-3.36,3.12-3.12v29.61Z"/>
    <path class="cls-30" d="m278.54,205.05c-2.07,1.04-7.45,8.14-9.95,4.8-1.27-1.49-3.7-4-1.43-5.77,0,0,6.41-5.18,6.41-5.18,2.21-1.84,4.16,1.05,5.34,2.61.87,1.08.7,2.67-.38,3.54Z"/>
    <g>
      <path class="cls-10" d="m303.87,210.01h-.71v-17.53c2.04-.27,3.9,1.23,3.9,3.51-.6,2.93,2.05,14.13-3.19,14.03Z"/>
      <path class="cls-9" d="m302.45,210.01h.71v-17.53c-2.04-.27-3.9,1.23-3.9,3.51.6,2.93-2.05,14.13,3.19,14.03Z"/>
    </g>
    <g>
      <path class="cls-10" d="m287.19,210.01h-.78v-17.53c2.17-.28,4.3,1.21,4.29,3.51,0,0,0,10.52,0,10.52,0,1.93-1.58,3.51-3.51,3.51Z"/>
      <path class="cls-9" d="m285.63,210.01h.78v-17.53c-2.17-.28-4.3,1.21-4.29,3.51,0,0,0,10.52,0,10.52,0,1.93,1.58,3.51,3.51,3.51Z"/>
    </g>
    <g>
      <path class="cls-10" d="m295.76,210.01h-.78v-17.53c2.17-.28,4.3,1.21,4.29,3.51,0,0,0,10.52,0,10.52,0,1.93-1.58,3.51-3.51,3.51Z"/>
      <path class="cls-9" d="m294.2,210.01h.78v-17.53c-2.17-.28-4.3,1.21-4.29,3.51,0,0,0,10.52,0,10.52,0,1.93,1.58,3.51,3.51,3.51Z"/>
    </g>
  </g>
  <path class="cls-20" d="m214.24,313.36l-9.84,31.14s-2.46,8.2,2.46,12.29"/>
  <path class="cls-20" d="m234.06,316.45l-3.67,33.53s-1.09,8.76-7.72,10.34"/>
  <path class="cls-19" d="m213.83,314.59s0-17.21,13.11-13.11c-.03-.06,10.92-.73,7.38,15.57"/>
  <path class="cls-3" d="m186.5,189.59l2.49-2.43,1.24-1.22c.39-.41,1.01-.82,1.58-1.14.6-.32,1.26-.58,1.96-.71.36-.07.69-.11,1.09-.13.37-.02.67.01.98.05.61.11,1.21.07,1.81.25.3.06.61.11.9.3.14.09.3.19.43.36.12.18.25.5.22.95-.01.19-.1.36-.22.48l-.07.06c-.15.14-.26.33-.34.41-.1.11-.17.19-.24.24-.14.09-.27.11-.4.14-.27.06-.52,0-.78-.04-.53-.02-1.06-.21-1.59-.21-.26-.02-.53-.04-.73-.06-.17-.02-.41-.02-.62,0-.43.04-.88.13-1.32.29-.47.15-.82.37-1.36.62l-1.56.77-3.12,1.53c-.16.08-.35.01-.42-.14-.06-.13-.03-.27.06-.37Z"/>
  <path class="cls-3" d="m227.48,190.1l-3.12-1.53-1.56-.77c-.53-.26-.89-.47-1.36-.62-.44-.16-.89-.24-1.32-.29-.21-.02-.45-.02-.62,0-.2.03-.47.05-.73.06-.53,0-1.06.2-1.59.21-.26.03-.52.09-.78.04-.13-.03-.26-.05-.4-.14-.08-.05-.14-.13-.24-.24-.08-.07-.19-.26-.34-.41l-.07-.06c-.14-.13-.21-.31-.22-.48-.03-.45.09-.77.22-.95.13-.17.29-.26.43-.36.29-.19.6-.24.9-.3.6-.18,1.21-.14,1.81-.25.31-.04.61-.07.98-.05.41.02.74.06,1.09.13.7.14,1.36.4,1.96.71.58.32,1.19.73,1.58,1.14l1.24,1.22,2.49,2.43c.12.12.13.32,0,.45-.1.1-.25.12-.37.06Z"/>
  <g>
    <path class="cls-37" d="m168.35,302.35c-.05,10.7-15.54,10.7-15.59,0,.05-10.7,15.54-10.7,15.59,0Z"/>
    <path class="cls-23" d="m152.76,301.57c-.12-8.6,12.59-8.6,12.47,0,.12,8.6-12.59,8.6-12.47,0Z"/>
    <rect class="cls-23" x="158.22" y="290.27" width="1.56" height="5.45"/>
    <path class="cls-28" d="m221.42,358.7c-1.19-.17-3.21.06-3.05,1.64,1.08,2,4.93,1.52,6.54.33.62-.44.19-1.93-.42-2.13-.97-.03-2.07.3-3.07.16Z"/>
    <path class="cls-28" d="m205.5,356.7c.96,1.82,4.42,3.77,6.12,2.06.82-2.55-2.94-2.55-4.34-3.68-1.16-.86-2.59.31-1.78,1.62Z"/>
  </g>
  <path class="cls-36" d="m46.44,484.42l96.07,25.58c5.67,0,10.26-3.88,10.26-8.66V61.15c0-4.79-4.6-8.67-10.26-8.67l-96.07,5.23c-5.67,0-10.26,3.88-10.26,8.67v409.37c0,4.79,4.6,8.66,10.26,8.66Z"/>
  <path class="cls-13" d="m134.38,285.01c3.49,0,6.32-2.83,6.32-6.32v-40.75c0-3.49-2.83-6.32-6.32-6.32s-6.32,2.83-6.32,6.32v40.75c0,3.49,2.83,6.32,6.32,6.32Z"/>
  <path d="m127.58,258.31c0,5.96,3.04,10.79,6.8,10.79s6.8-4.83,6.8-10.79-3.04-10.79-6.8-10.79-6.8,4.83-6.8,10.79Z"/>
  <path class="cls-13" d="m36.45,130.82c2.2,0,3.99-1.79,3.99-3.99v-36.64c0-2.2-1.79-3.99-3.99-3.99s-3.99,1.79-3.99,3.99v36.64c0,2.2,1.79,3.99,3.99,3.99Z"/>
  <path class="cls-13" d="m35.96,457.68c2.2,0,3.99-1.79,3.99-3.99v-36.64c0-2.2-1.79-3.99-3.99-3.99s-3.99,1.79-3.99,3.99v36.64c0,2.2,1.79,3.99,3.99,3.99Z"/>
  <path class="cls-17" d="m131.87,275.03c0,1.38,1.12,2.51,2.51,2.51s2.51-1.12,2.51-2.51-1.12-2.51-2.51-2.51-2.51,1.12-2.51,2.51Z"/>
  <polygon class="cls-17" points="134.38 275.03 136.19 280.92 131.87 280.92 134.38 275.03"/>
  <path class="cls-4" d="m57.48,486.59c.69,0,1.25-.56,1.25-1.25V59.68c0-.69-.56-1.25-1.25-1.25s-1.25.56-1.25,1.25v425.65c0,.69.56,1.25,1.25,1.25Z"/>
  <path class="cls-4" d="m79.14,493.04c.69,0,1.25-.57,1.25-1.27V56.48c0-.7-.56-1.27-1.25-1.27s-1.25.57-1.25,1.27v435.29c0,.7.56,1.27,1.25,1.27Z"/>
  <path class="cls-4" d="m100.97,498.98c.69,0,1.25-.58,1.25-1.29V55.57c0-.71-.56-1.29-1.25-1.29s-1.25.58-1.25,1.29v442.12c0,.71.56,1.29,1.25,1.29Z"/>
  <path class="cls-4" d="m123.72,504.91c.69,0,1.25-.58,1.25-1.29V55.58c0-.72-.56-1.29-1.25-1.29s-1.25.58-1.25,1.29v448.04c0,.72.56,1.29,1.25,1.29Z"/>
  <path class="cls-4" d="m143.78,510c.69,0,1.25-.59,1.25-1.31V55.5c0-.72-.56-1.31-1.25-1.31s-1.25.59-1.25,1.31v453.19c0,.72.56,1.31,1.25,1.31Z"/>
  <g>
    <path class="cls-35" d="m151.98,171.43v39.74s7.79,0,7.79-6.23c0-4.97.21-21.82.61-28.46.08-4.53-4.28-5.64-8.41-5.05Z"/>
    <path class="cls-11" d="m157.94,201.44h-17.36c-2.16.02-3.63,1.38-3.4,3.12h24.16c.24-1.74-1.23-3.09-3.4-3.12Z"/>
    <path class="cls-35" d="m157.94,210.01h-17.36c-2.28.11-3.71-3.47-3.4-6.23h24.16c.31,2.76-1.11,6.35-3.4,6.23Z"/>
    <path class="cls-11" d="m158.01,191.47l-17.35-.35c-2.16-.02-3.66,1.3-3.46,3.05l24.14.49c.27-1.74-1.17-3.12-3.33-3.18Z"/>
    <path class="cls-35" d="m157.84,200.04l-17.35-.35c-2.29.07-3.64-3.55-3.27-6.3l24.14.49c.26,2.77-1.24,6.32-3.52,6.16Z"/>
    <path class="cls-11" d="m157.63,182.4l-16.21-1.01c-2.03-.11-3.49,1.2-3.37,2.91l22.56,1.41c.33-1.69-.95-3.17-2.98-3.31Z"/>
    <path class="cls-35" d="m157.1,190.95l-16.21-1.01c-2.15-.01-3.25-3.74-2.78-6.42l22.56,1.41c.13,2.72-1.43,6.28-3.56,6.02Z"/>
    <path class="cls-11" d="m159.54,173.17l-15.07-1.46c-1.87-.16-3.26.81-3.2,2.29l20.97,2.03c.34-1.44-.83-2.65-2.7-2.86Z"/>
    <path class="cls-35" d="m158.85,180.24l-15.07-1.46c-1.99-.11-2.94-3.14-2.45-5.43l20.97,2.03c.04,2.34-1.48,5.13-3.45,4.86Z"/>
  </g>
</svg>