<svg xmlns="http://www.w3.org/2000/svg" xmlns:xlink="http://www.w3.org/1999/xlink" viewBox="0 0 320 891"><defs><style>.cls-1,.cls-39,.cls-64{fill:none;}.cls-2{isolation:isolate;}.cls-3{clip-path:url(#clip-path);}.cls-4{fill:#e6e6e6;mix-blend-mode:multiply;}.cls-5{fill:#8c2b87;}.cls-6{fill:#fff;}.cls-7{fill:#f9f9f9;}.cls-8{fill:#f8f7f9;}.cls-9{font-size:16px;fill:#020202;font-family:WorkSans-Regular, Work Sans;}.cls-10{letter-spacing:-0.04em;}.cls-11{letter-spacing:0em;}.cls-12{letter-spacing:-0.01em;}.cls-13{letter-spacing:-0.01em;}.cls-14{letter-spacing:-0.01em;}.cls-15{letter-spacing:-0.01em;}.cls-16{letter-spacing:0em;}.cls-17{letter-spacing:-0.02em;}.cls-18{letter-spacing:-0.02em;}.cls-19{letter-spacing:-0.01em;}.cls-20{letter-spacing:-0.02em;}.cls-21{letter-spacing:-0.01em;}.cls-22{letter-spacing:-0.02em;}.cls-23{letter-spacing:-0.02em;}.cls-24{letter-spacing:-0.02em;}.cls-25{letter-spacing:-0.03em;}.cls-26{letter-spacing:-0.03em;}.cls-27{letter-spacing:-0.02em;}.cls-28{letter-spacing:-0.01em;}.cls-29{letter-spacing:-0.02em;}.cls-30{letter-spacing:-0.02em;}.cls-31{letter-spacing:-0.02em;}.cls-32{letter-spacing:-0.01em;}.cls-33{letter-spacing:-0.02em;}.cls-34{fill:#c7b299;}.cls-35{fill:#dcdae0;}.cls-36{fill:#a38161;}.cls-37{fill:#322d26;}.cls-38{fill:#8c6239;}.cls-39{stroke:#000;stroke-width:3px;}.cls-39,.cls-64{stroke-miterlimit:10;}.cls-40{fill:#ecbc96;}.cls-41{fill:#bdd0e7;}.cls-42{fill:#8ca8d5;}.cls-43{fill:#2c364e;}.cls-44{fill:#edba91;}.cls-45{fill:#e3ad7f;}.cls-46{fill:#e7af84;}.cls-47{fill:#d68e5f;}.cls-48{fill:#622d02;}.cls-49{fill:#612a01;}.cls-50{fill:#723701;}.cls-51{fill:#602e03;}.cls-52{fill:#e1c1b0;}.cls-53{fill:#bdd0e9;}.cls-54{fill:#9fb8d9;}.cls-55{fill:#5689c7;}.cls-56{fill:#4d71a7;}.cls-57{fill:#5a89c4;}.cls-58{fill:#6495d2;}.cls-59{fill:#5887c3;}.cls-60{fill:#6494d2;}.cls-61{fill:#6394d2;}.cls-62{fill:#6194d2;}.cls-63{fill:#517eb4;}.cls-64{stroke:#c8c8c8;stroke-width:2px;}.cls-65{fill:#5f2c01;}.cls-66{fill:#e3e3e3;}.cls-67{fill:#c8c8c8;}.cls-68{fill:#050303;}</style><clipPath id="clip-path"><rect class="cls-1" x="-1.5" y="-3" width="323" height="895"/></clipPath></defs><g class="cls-2"><g id="Dr_aula_virtual" data-name="Dr aula virtual"><g class="cls-3"><path class="cls-4" d="M47.58,505H254.34l-.84,38,23.56-38.14V293.37c0-7.46-4.12-13.51-9.19-13.51H47.58c-5.07,0-9.18,6.05-9.18,13.51V491.45C38.4,498.91,42.51,505,47.58,505Z"/><ellipse class="cls-5" cx="39.05" cy="19.06" rx="19.21" ry="19.56" transform="matrix(0.26, -0.97, 0.97, 0.26, 10.62, 51.92)"/><path class="cls-5" d="M55.85,489.91H262.61L261.5,532l25-42-1.18-211.69c0-7.45-4.11-13.5-9.18-13.5H55.85c-5.07,0-9.18,6.05-9.18,13.5V476.4C46.67,483.86,50.78,489.91,55.85,489.91Z"/><rect class="cls-4" x="25.15" y="257.6" width="243.93" height="227.11" rx="15.37" transform="translate(294.23 742.3) rotate(180)"/><rect class="cls-6" x="39.06" y="249.74" width="243.93" height="227.11" rx="15.37" transform="translate(322.06 726.58) rotate(180)"/><path class="cls-4" d="M269.94,234.2H36.56c-5.73,0-10.37-5.26-10.37-11.76V50c0-6.49,4.64-11.75,10.37-11.75H285.21c5.73,0,10.37,5.26,10.37,11.75V218.9c0,8.41-8.82,15.24-19.72,15.28Z"/><path class="cls-5" d="M277.87,221.1H41c-5.81,0-10.52-5.27-10.52-11.76V36.88c0-6.49,4.71-11.76,10.52-11.76H293.37c5.81,0,10.53,5.27,10.53,11.76l1.22,167.68c.07,9.15-9.7,16.59-21.75,16.55Z"/><rect class="cls-4" x="15.5" y="18.84" width="271.08" height="197.73" rx="15.37" transform="translate(302.08 235.42) rotate(180)"/><rect class="cls-6" x="26.94" y="12" width="275.34" height="197.73" rx="15.37" transform="translate(329.23 221.73) rotate(180)"/><circle class="cls-4" cx="31.25" cy="51.69" r="22.32"/><path class="cls-5" d="M10.32,20.4a4.87,4.87,0,1,1-5.95,3.45A4.86,4.86,0,0,1,10.32,20.4Z"/><path class="cls-5" d="M1.22,34.9a2.42,2.42,0,0,1,1.73,3,2.44,2.44,0,1,1-4.71-1.25A2.43,2.43,0,0,1,1.22,34.9Z"/><path class="cls-6" d="M266.06,270.32a3.65,3.65,0,1,0,5-1.34A3.65,3.65,0,0,0,266.06,270.32Z"/><circle class="cls-5" cx="22.59" cy="501.63" r="7.26" transform="translate(-130.22 23.31) rotate(-15.14)"/><circle class="cls-5" cx="301.59" cy="234.63" r="7.26" transform="translate(-50.81 86.91) rotate(-15.14)"/><circle class="cls-5" cx="286.59" cy="253.63" r="7.26" transform="translate(-56.29 83.65) rotate(-15.14)"/><circle class="cls-5" cx="24.36" cy="471.94" r="17.6" transform="translate(-67.08 8.3) rotate(-8.2)"/><circle class="cls-7" cx="52.9" cy="497.87" r="17.75" transform="translate(-137.85 34.96) rotate(-16.33)"/><circle class="cls-8" cx="26.82" cy="51.49" r="22.32"/><text class="cls-9" transform="translate(54.5 36.68)">E<tspan class="cls-10" x="10.21" y="0">l</tspan><tspan class="cls-11" x="14.54" y="0"> </tspan><tspan class="cls-12" x="20" y="0">I</tspan><tspan x="24.66" y="0">nstituto </tspan><tspan class="cls-13" x="92.45" y="0">N</tspan><tspan x="104.09" y="0">aciona</tspan><tspan class="cls-10" x="155.12" y="0">l</tspan><tspan x="159.45" y="0" xml:space="preserve"> de </tspan><tspan class="cls-14" x="189.74" y="0">S</tspan><tspan x="199.84" y="0">alud </tspan><tspan x="0" y="19.2">te i</tspan><tspan class="cls-15" x="25.71" y="19.2">n</tspan><tspan class="cls-16" x="35.41" y="19.2">vit</tspan><tspan class="cls-17" x="54.69" y="19.2">a</tspan><tspan x="63.38" y="19.2"> </tspan><tspan class="cls-17" x="68.83" y="19.2">a</tspan><tspan x="77.52" y="19.2"> </tspan><tspan class="cls-12" x="82.98" y="19.2">a</tspan><tspan x="91.95" y="19.2">fianza</tspan><tspan class="cls-17" x="139.05" y="19.2">r</tspan><tspan class="cls-18" x="145.21" y="19.2"> </tspan><tspan x="150.35" y="19.2">tus </tspan><tspan x="0" y="38.4">conocimie</tspan><tspan class="cls-19" x="80.46" y="38.4">n</tspan><tspan x="90.25" y="38.4">tos en micologí</tspan><tspan class="cls-17" x="211.15" y="38.4">a</tspan><tspan x="219.84" y="38.4"> </tspan><tspan class="cls-20" x="225.29" y="38.4">a</tspan><tspan x="233.98" y="38.4"> </tspan><tspan x="0" y="57.6">t</tspan><tspan class="cls-21" x="6.7" y="57.6">r</tspan><tspan class="cls-22" x="13.01" y="57.6">a</tspan><tspan class="cls-11" x="21.79" y="57.6">vés de nuest</tspan><tspan class="cls-23" x="122.37" y="57.6">r</tspan><tspan class="cls-16" x="128.64" y="57.6">os cu</tspan><tspan class="cls-24" x="171.18" y="57.6">r</tspan><tspan class="cls-16" x="177.38" y="57.6">sos que </tspan><tspan x="0" y="76.8">hacen pa</tspan><tspan class="cls-25" x="71.78" y="76.8">r</tspan><tspan x="77.82" y="76.8">te de</tspan><tspan class="cls-26" x="118.65" y="76.8">l</tspan><tspan class="cls-16" x="122.99" y="76.8" xml:space="preserve"> aul</tspan><tspan class="cls-17" x="152.3" y="76.8">a</tspan><tspan class="cls-27" x="160.99" y="76.8"> </tspan><tspan x="166.05" y="76.8">vi</tspan><tspan class="cls-25" x="178.62" y="76.8">r</tspan><tspan x="184.67" y="76.8">tual. </tspan><tspan class="cls-28" x="0" y="96">A</tspan><tspan x="10.42" y="96">quí pod</tspan><tspan class="cls-21" x="70.01" y="96">r</tspan><tspan x="76.32" y="96">ás enco</tspan><tspan class="cls-19" x="137.21" y="96">n</tspan><tspan x="147.01" y="96">t</tspan><tspan class="cls-21" x="153.71" y="96">r</tspan><tspan class="cls-11" x="160.01" y="96">a</tspan><tspan class="cls-20" x="169.07" y="96">r</tspan><tspan x="175.23" y="96"> </tspan><tspan x="0" y="115.2">i</tspan><tspan class="cls-19" x="4.26" y="115.2">n</tspan><tspan class="cls-21" x="14.05" y="115.2">f</tspan><tspan x="20.11" y="115.2">ormación específic</tspan><tspan class="cls-17" x="168.99" y="115.2">a</tspan><tspan x="177.68" y="115.2" xml:space="preserve"> de </tspan><tspan x="0" y="134.4">ocho e</tspan><tspan class="cls-19" x="53.13" y="134.4">n</tspan><tspan class="cls-21" x="62.93" y="134.4">f</tspan><tspan x="68.99" y="134.4">ermedades que son: </tspan><tspan x="0" y="153.6">Cri</tspan><tspan class="cls-28" x="21.76" y="153.6">p</tspan><tspan x="31.7" y="153.6">tococosis - Espo</tspan><tspan class="cls-29" x="164.27" y="153.6">r</tspan><tspan class="cls-28" x="170.54" y="153.6">o</tspan><tspan x="180.13" y="153.6">tricosis </tspan></text><text class="cls-9" transform="translate(60.48 274.82)">- Candidiasis - <tspan x="0" y="19.2">Pa</tspan><tspan class="cls-21" x="18.82" y="19.2">r</tspan><tspan class="cls-11" x="25.12" y="19.2">acoccidioidomicosis - </tspan><tspan class="cls-12" x="0" y="38.4">A</tspan><tspan x="10.48" y="38.4">spe</tspan><tspan class="cls-27" x="38.29" y="38.4">r</tspan><tspan class="cls-11" x="44.42" y="38.4">gilosis - </tspan><tspan x="0" y="57.6">C</tspan><tspan class="cls-30" x="10.98" y="57.6">r</tspan><tspan x="17.25" y="57.6">omoblastomicosis - </tspan><tspan x="0" y="76.8">Histoplasmosis - </tspan><tspan class="cls-12" x="0" y="96">M</tspan><tspan class="cls-11" x="13.58" y="96">u</tspan><tspan class="cls-29" x="23.49" y="96">r</tspan><tspan class="cls-11" x="29.76" y="96">cormicosis</tspan><tspan class="cls-31" x="114.41" y="96" xml:space="preserve"> y</tspan><tspan x="127.63" y="96" xml:space="preserve"> mucho </tspan><tspan x="0" y="115.2">mas. además pod</tspan><tspan class="cls-21" x="138.96" y="115.2">r</tspan><tspan class="cls-11" x="145.26" y="115.2">ás </tspan><tspan class="cls-30" x="0" y="134.4">r</tspan><tspan x="6.27" y="134.4">ealiza</tspan><tspan class="cls-17" x="51.38" y="134.4">r</tspan><tspan class="cls-16" x="57.54" y="134.4" xml:space="preserve"> di</tspan><tspan class="cls-32" x="77.33" y="134.4">f</tspan><tspan x="83.39" y="134.4">e</tspan><tspan class="cls-30" x="92.69" y="134.4">r</tspan><tspan x="98.96" y="134.4">e</tspan><tspan class="cls-19" x="108.26" y="134.4">n</tspan><tspan x="118.05" y="134.4">tes </tspan><tspan x="0" y="153.6">actividades pa</tspan><tspan class="cls-21" x="113.15" y="153.6">r</tspan><tspan class="cls-17" x="119.45" y="153.6">a</tspan><tspan x="128.14" y="153.6" xml:space="preserve"> pone</tspan><tspan class="cls-20" x="172.6" y="153.6">r</tspan><tspan x="178.76" y="153.6"> </tspan><tspan class="cls-17" x="184.22" y="153.6">a</tspan><tspan x="192.91" y="153.6"> </tspan><tspan x="0" y="172.8">prueb</tspan><tspan class="cls-20" x="45.89" y="172.8">a</tspan><tspan class="cls-33" x="54.58" y="172.8"> </tspan><tspan x="59.71" y="172.8">todo lo que </tspan><tspan x="0" y="192">ap</tspan><tspan class="cls-30" x="19.14" y="192">r</tspan><tspan x="25.41" y="192">endiste..</tspan></text><rect class="cls-34" x="20.8" y="543.97" width="189.18" height="427.01" rx="4.7" transform="translate(230.77 1514.94) rotate(180)"/><rect class="cls-35" x="31.2" y="554.26" width="162.43" height="416.71" rx="4.3" transform="translate(224.83 1525.24) rotate(180)"/><path class="cls-36" d="M24.86,972l95.66,5c5.64,0,10.22-3.71,10.22-8.28V548.28c0-4.57-4.58-8.28-10.22-8.28l-95.66,5c-5.64,0-10.22,3.7-10.22,8.27V963.73C14.64,968.3,19.22,972,24.86,972Z"/><path class="cls-34" d="M112.41,771.52a6.3,6.3,0,0,0,6.3-6.3V724.65a6.3,6.3,0,1,0-12.59,0v40.57A6.3,6.3,0,0,0,112.41,771.52Z"/><path d="M105.65,744.94c0,5.93,3,10.73,6.76,10.73s6.77-4.8,6.77-10.73-3-10.74-6.77-10.74S105.65,739,105.65,744.94Z"/><path class="cls-34" d="M14.91,618a4,4,0,0,0,4-4V577.54a4,4,0,0,0-7.94,0V614A4,4,0,0,0,14.91,618Z"/><path class="cls-37" d="M109.92,761.58a2.5,2.5,0,1,0,2.49-2.49A2.5,2.5,0,0,0,109.92,761.58Z"/><polygon class="cls-37" points="112.41 761.58 114.22 767.44 109.92 767.44 112.41 761.58"/><path class="cls-38" d="M35.85,972.22A1.25,1.25,0,0,0,37.1,971V547.16a1.25,1.25,0,0,0-2.5,0V971A1.25,1.25,0,0,0,35.85,972.22Z"/><path class="cls-38" d="M57.41,974a1.25,1.25,0,0,0,1.25-1.25V544a1.25,1.25,0,0,0-2.49,0V972.79A1.24,1.24,0,0,0,57.41,974Z"/><path class="cls-38" d="M79.15,973.45a1.25,1.25,0,0,0,1.25-1.25V543a1.25,1.25,0,0,0-2.5,0V972.2A1.25,1.25,0,0,0,79.15,973.45Z"/><path class="cls-38" d="M101.81,976.53a1.25,1.25,0,0,0,1.25-1.25V543a1.25,1.25,0,0,0-2.5,0V975.28A1.25,1.25,0,0,0,101.81,976.53Z"/><path class="cls-38" d="M121.77,976.44a1.25,1.25,0,0,0,1.25-1.25V543a1.25,1.25,0,0,0-2.5,0V975.19A1.25,1.25,0,0,0,121.77,976.44Z"/><path class="cls-6" d="M129.94,722.45C163,738,218.22,761.39,251.76,776V731h32.59v69.83s3.1,32.59-24.05,20.17l-41.9-16.29L129.94,912.54Z"/><path class="cls-39" d="M136.75,777.6s8.59-32.28,26.2-35.35c13.94-2.44,29.79,1.87,38.07,14.44a31.08,31.08,0,0,1,5,16.58c.08,4.43,0,10.87-.93,15.05"/><path class="cls-40" d="M171.07,737.19l-2.33,16.29c6,1.93,18.55,5,24.83,5.43l1.55-19.39Z"/><polygon class="cls-41" points="167.19 736.41 157.88 748.83 141.58 827.97 201.33 763.57 200.55 747.27 179.99 752.32 167.19 736.41"/><polygon class="cls-42" points="157.88 761.07 174.17 761.02 183.48 774.43 178.83 752.71 157.88 761.07"/><path class="cls-43" d="M178.83,752.71l-14.75,5.43c.58,3.13,4.95,10.69,2.66,13.75l-22.05,38.23-3.11,17.07,14-14,15.61-38.67c.68-2.78,9.52-6.34,11.55-7.89Z"/><path class="cls-44" d="M158.77,688c.41-6.23-1.75-12.6-8.58-7.23C143.27,687.81,156.21,700.52,158.77,688Z"/><path class="cls-45" d="M156.89,685.14c-.07-1,.05-2.56-1.15-2.89,1.74-6-8.65-2.51-4.32-.25h0c.68,0,1,.75,1.37,1.27-4.06,2.25-1.88,8.07,2.19,8.81C157.61,692.07,156.63,687,156.89,685.14Z"/><path class="cls-44" d="M212.37,688c-.41-6.23,1.74-12.6,8.57-7.23C227.87,687.81,214.92,700.52,212.37,688Z"/><path class="cls-45" d="M214.25,685.14c.07-1-.06-2.56,1.14-2.89-1.73-6,8.65-2.51,4.32-.25h0c-.68,0-1.05.75-1.37,1.27,4.06,2.25,1.88,8.07-2.19,8.81C213.53,692.07,214.51,687,214.25,685.14Z"/><path class="cls-46" d="M186.2,710.42l-.39,31.42c25.6-3.88,28.71-19.39,28.71-19.39l1.16-67.9-29.1,2.72C186.48,667.74,186.1,700.51,186.2,710.42Z"/><path class="cls-40" d="M156.32,653.39l-.77,68.28s5.43,16.29,31,20.17V709.25l3.11-.77c-2.85-9.19-2.92-41.26-3.11-51.21Z"/><path class="cls-47" d="M185.93,735.87c1,.07,2.06-1,2.61-1.79C186.61,733.76,180.69,733.9,185.93,735.87Z"/><path class="cls-48" d="M153,670.17c-.77-8.93-3.44-18.91,1.78-26.82-.09-8,5.28-18.8,13.44-20.1,4.14.22,4.05,9.73,16,10.74,11,.26,24.17-3.33,32.29,6.56,1.47,1.75.94,3.58,1.07,5.86.6,10.53,1.55,22.5-2.08,32.61-1.08-29.77,4.12-19.14-22.57-17.8-6.31.26-11,.71-18.81-.38-4.77-1.56-9.47-4.14-14.72-3.15-2.62.56-2.4,8.79-3.3,11.24-.44,2.63.41,7.76-.59,10.06C153.76,677.7,153.26,672.23,153,670.17Z"/><path class="cls-49" d="M165.76,654c-7.85-2-9-11-8.27-17.89-7.53,7.11,1,18.45,8.7,21.08C173.26,658.27,170.62,654.84,165.76,654Z"/><path class="cls-50" d="M165.07,641.32c.43,6,2.8,12.34,8,15.31-13.66-3.2-21-11.82-14.53-25.6.89-1.55,9.09-9.9,9.47-5.25C166.87,630.77,164.07,635.73,165.07,641.32Z"/><path class="cls-51" d="M174.67,680.33c1.84,1.26,3.21,4.88,1.51,6.67-1.9.21-5.85,1.31-5.91-1.63-.83-2.55,1.74-1,2.48-2.66.31-.83-.84-1.65-.44-2.3S174.14,680,174.67,680.33Z"/><path class="cls-51" d="M197.94,680.33c1.85,1.26,3.22,4.88,1.51,6.67-1.89.21-5.84,1.31-5.9-1.63-.83-2.55,1.74-1,2.48-2.66.31-.83-.84-1.65-.44-2.3S197.42,680,197.94,680.33Z"/><path class="cls-51" d="M192,723.22c-.05,10.16-10.82,10.16-10.87,0S192,713.06,192,723.22Z"/><rect class="cls-52" x="255.64" y="723.22" width="21.73" height="2.33"/><rect class="cls-53" x="254.09" y="724.77" width="26.38" height="6.21"/><rect class="cls-54" x="254.09" y="724.77" width="2.33" height="6.21"/><rect class="cls-55" x="256.42" y="717.01" width="20.95" height="6.21"/><rect class="cls-56" x="256.42" y="718.57" width="9.31" height="4.66"/><path class="cls-57" d="M284,691.8c-.72,8.06,3.75,26.31-9.31,26.38-5.14-.55-18.16,1.92-21.73-3.11l-9.31-16.29c-3.1-5.43.78-7.76.78-7.76l6.21-4.65,6.77-3.53c1.44-.7,15.46-.22,17.28-.35A9.34,9.34,0,0,1,284,691.8Z"/><path class="cls-58" d="M281.24,690.3c-.6,7,3.24,23.28-8.17,23.22-4.51-.48-15.93,1.69-19.07-2.73,0,0-5.44-9.57-8.17-14.35s.69-6.83.69-6.83c1.38-1,6-4.69,7.57-5.21V658.82a4,4,0,0,1,4.65,3.88v19.52C266,682.49,281,679,281.24,690.3Z"/><path class="cls-59" d="M254.09,688.31c-1.69.23-3.09-1.08-3.11-3.11V661.93c0-2,1.42-3.35,3.11-3.11Z"/><path class="cls-60" d="M256,691.9c-2.06,1-7.42,8.11-9.9,4.78-1.27-1.49-3.68-4-1.42-5.75l6.38-5.15c2.2-1.83,4.14,1,5.32,2.6A2.52,2.52,0,0,1,256,691.9Z"/><path class="cls-61" d="M281.17,696.84h-.7V679.38a3.41,3.41,0,0,1,3.88,3.49C283.75,685.79,286.39,696.94,281.17,696.84Z"/><path class="cls-57" d="M279.76,696.84h.71V679.38a3.41,3.41,0,0,0-3.88,3.49C277.19,685.79,274.55,696.94,279.76,696.84Z"/><path class="cls-61" d="M264.56,696.84h-.77V679.38a3.64,3.64,0,0,1,4.26,3.49v10.48A3.5,3.5,0,0,1,264.56,696.84Z"/><path class="cls-57" d="M263,696.84h.78V679.38a3.65,3.65,0,0,0-4.27,3.49v10.48A3.5,3.5,0,0,0,263,696.84Z"/><path class="cls-61" d="M273.1,696.84h-.78V679.38a3.65,3.65,0,0,1,4.27,3.49v10.48A3.5,3.5,0,0,1,273.1,696.84Z"/><path class="cls-57" d="M271.55,696.84h.77V679.38a3.66,3.66,0,0,0-4.27,3.49v10.48A3.51,3.51,0,0,0,271.55,696.84Z"/><path class="cls-62" d="M129.94,658.43V698s7.76,0,7.76-6.2c0-4.95.21-21.73.61-28.34C138.4,659,134.05,657.84,129.94,658.43Z"/><path class="cls-63" d="M135.87,688.31H118.58c-2.15,0-3.61,1.37-3.38,3.1h24.06C139.49,689.68,138,688.33,135.87,688.31Z"/><path class="cls-62" d="M135.87,696.84H118.58c-2.27.11-3.69-3.46-3.38-6.21h24.06C139.57,693.39,138.15,697,135.87,696.84Z"/><path class="cls-63" d="M136,678.39,118.67,678c-2.15,0-3.64,1.3-3.44,3l24,.49C139.54,679.83,138.1,678.45,136,678.39Z"/><path class="cls-62" d="M135.78,686.92l-17.28-.35c-2.28.07-3.63-3.53-3.26-6.27l24,.48C139.54,683.54,138.05,687.08,135.78,686.92Z"/><path class="cls-63" d="M135.57,669.35l-16.14-1c-2-.11-3.48,1.19-3.36,2.9l22.47,1.4C138.87,671,137.59,669.49,135.57,669.35Z"/><path class="cls-62" d="M135,677.87l-16.14-1c-2.14,0-3.24-3.72-2.78-6.39l22.46,1.4C138.72,674.58,137.17,678.12,135,677.87Z"/><path class="cls-63" d="M137.47,660.16l-15-1.45c-1.86-.16-3.24.8-3.18,2.28l20.87,2C140.49,661.57,139.33,660.37,137.47,660.16Z"/><path class="cls-62" d="M136.78,667.21l-15-1.46c-2-.11-2.93-3.12-2.44-5.4l20.88,2C140.26,664.7,138.75,667.48,136.78,667.21Z"/><path class="cls-64" d="M191.93,799.75l-9.8,31s-2.44,8.16,2.45,12.24"/><path class="cls-64" d="M211.67,802.82,208,836.2s-1.09,8.73-7.69,10.3"/><path class="cls-39" d="M191.52,801s0-17.13,13.06-13.05c0-.06,10.87-.73,7.34,15.5"/><path class="cls-65" d="M164.31,676.51l2.48-2.42,1.24-1.21a6.9,6.9,0,0,1,1.58-1.14,6.9,6.9,0,0,1,3-.84,5.1,5.1,0,0,1,1,.05,15.58,15.58,0,0,1,1.8.25,2.39,2.39,0,0,1,.9.3,1.51,1.51,0,0,1,.43.35,1.57,1.57,0,0,1,.21,1,.7.7,0,0,1-.22.48l-.06.06c-.15.15-.26.34-.34.41a1.35,1.35,0,0,1-.25.24,1.08,1.08,0,0,1-.39.14,2.27,2.27,0,0,1-.78,0c-.53,0-1.06-.21-1.59-.22a7.18,7.18,0,0,1-.73-.06,3.1,3.1,0,0,0-.61,0,5.69,5.69,0,0,0-1.31.28,11.16,11.16,0,0,0-1.35.62l-1.56.76L164.67,677a.31.31,0,0,1-.42-.15A.32.32,0,0,1,164.31,676.51Z"/><path class="cls-65" d="M205.11,677,202,675.49l-1.55-.76a11.91,11.91,0,0,0-1.35-.62,5.8,5.8,0,0,0-1.31-.28,3.2,3.2,0,0,0-.62,0,6.94,6.94,0,0,1-.73.06c-.53,0-1.05.2-1.58.22a2.27,2.27,0,0,1-.78,0,1.13,1.13,0,0,1-.4-.14,1.78,1.78,0,0,1-.24-.24c-.09-.07-.19-.26-.34-.41l-.07-.06a.76.76,0,0,1-.22-.48,1.56,1.56,0,0,1,.22-1,1.38,1.38,0,0,1,.43-.35,2.41,2.41,0,0,1,.89-.3,15.75,15.75,0,0,1,1.81-.25,5,5,0,0,1,1-.05,7.37,7.37,0,0,1,1.1.13,7.57,7.57,0,0,1,2,.71,7.05,7.05,0,0,1,1.57,1.14l1.24,1.21,2.48,2.42a.32.32,0,0,1,0,.45A.32.32,0,0,1,205.11,677Z"/><path class="cls-66" d="M146.24,788.78c-.05,10.66-15.47,10.66-15.52,0S146.19,778.13,146.24,788.78Z"/><path class="cls-67" d="M130.72,788c-.12-8.56,12.53-8.56,12.41,0C143.25,796.57,130.6,796.57,130.72,788Z"/><rect class="cls-67" x="136.15" y="776.76" width="1.55" height="5.43"/><path class="cls-68" d="M199.08,844.88c-1.19-.17-3.2.06-3,1.64,1.07,2,4.91,1.51,6.51.33.61-.44.18-1.92-.42-2.13A28.11,28.11,0,0,1,199.08,844.88Z"/><path class="cls-68" d="M183.23,842.89c1,1.81,4.39,3.75,6.09,2.06.81-2.54-2.92-2.54-4.32-3.67A1.2,1.2,0,0,0,183.23,842.89Z"/></g></g></g></svg>