<?xml version="1.0" encoding="utf-8"?>
<!-- Generator: Adobe Illustrator 27.5.0, SVG Export Plug-In . SVG Version: 6.00 Build 0)  -->
<svg version="1.1" id="Dr_aula_virtual" xmlns="http://www.w3.org/2000/svg" xmlns:xlink="http://www.w3.org/1999/xlink" x="0px"
	 y="0px" viewBox="0 0 320 521" style="enable-background:new 0 0 320 521;" xml:space="preserve">
<style type="text/css">
	.st0{opacity:0.35;fill:#E6E6E6;enable-background:new    ;}
	.st1{fill:#C7B299;}
	.st2{fill:#DCDAE0;}
	.st3{fill:#FFFFFF;}
	.st4{fill:none;stroke:#000000;stroke-width:3;stroke-miterlimit:10;}
	.st5{fill:#ECBC96;}
	.st6{fill:#BDD0E7;}
	.st7{fill:#8CA8D5;}
	.st8{fill:#2C364E;}
	.st9{fill:#EDBA91;}
	.st10{fill:#E3AD7F;}
	.st11{fill:#E7AF84;}
	.st12{fill:#D68E5F;}
	.st13{fill:#622D02;}
	.st14{fill:#612A01;}
	.st15{fill:#723701;}
	.st16{fill:#602E03;}
	.st17{fill:#E1C1B0;}
	.st18{fill:#BDD0E9;}
	.st19{fill:#9FB8D9;}
	.st20{fill:#5689C7;}
	.st21{fill:#4D71A7;}
	.st22{fill:#5A89C4;}
	.st23{fill:#6495D2;}
	.st24{fill:#5887C3;}
	.st25{fill:#6494D2;}
	.st26{fill:#6394D2;}
	.st27{fill:none;stroke:#C8C8C8;stroke-width:2;stroke-miterlimit:10;}
	.st28{fill:#5F2C01;}
	.st29{fill:#E3E3E3;}
	.st30{fill:#C8C8C8;}
	.st31{fill:#050303;}
	.st32{fill:#A38161;}
	.st33{fill:#322D26;}
	.st34{fill:#8C6239;}
	.st35{fill:#6194D2;}
	.st36{fill:#517EB4;}
	.st37{fill:#70150A;}
	.st38{fill:#FEF7E9;}
	.st39{fill:#F8D9C2;}
	.st40{fill:#BD8872;}
	.st41{fill:#B37557;}
	.st42{fill:#6F1507;}
	.st43{fill:#D86B5A;}
	.st44{fill:#D66C59;}
	.st45{fill:#6F1408;}
	.st46{fill:#702B21;}
	.st47{fill:#C47A5F;}
	.st48{fill:#FEBFA0;}
	.st49{fill:#FEFDFA;}
	.st50{fill:#FDE5CB;}
	.st51{fill:#F6DCCD;}
	.st52{fill:#6F3227;}
	.st53{fill:#FEFDFC;}
	.st54{fill:#904B3D;}
	.st55{fill:#B87E81;}
	.st56{fill:#C48F8E;}
	.st57{fill:#EDDDDE;}
	.st58{fill:#8A5954;}
	.st59{fill:#C6A79A;}
</style>
<g>
	<ellipse class="st0" cx="157.5" cy="484" rx="151.8" ry="10.4"/>
	<path class="st1" d="M227.7,485.3H47.1c-2.6,0-4.7-2.1-4.7-4.7V61.2c0-2.6,2.1-4.7,4.7-4.7h180.6c2.6,0,4.7,2.1,4.7,4.7v419.5
		C232.4,483.2,230.3,485.3,227.7,485.3z"/>
	<path class="st2" d="M211.6,485.3H57.1c-2.4,0-4.3-1.9-4.3-4.3V71.1c0-2.4,1.9-4.3,4.3-4.3h154.5c2.4,0,4.3,1.9,4.3,4.3V481
		C215.9,483.4,214,485.3,211.6,485.3z"/>
	<path class="st3" d="M152,235.7c33.2,15.6,88.7,39.1,122.3,53.8v-45.2h32.7v70.1c0,0,3.1,32.7-24.2,20.3l-42.1-16.4L152,426.6
		V235.7L152,235.7z"/>
	<path class="st4" d="M158.8,291.1c0,0,8.6-32.4,26.3-35.5c14-2.4,29.9,1.9,38.2,14.5c3.2,4.9,4.9,10.8,5,16.6
		c0.1,4.5,0,10.9-0.9,15.1"/>
	<path class="st5" d="M193.3,250.5l-2.3,16.4c6.1,1.9,18.6,5,24.9,5.5l1.6-19.5L193.3,250.5L193.3,250.5z"/>
	<polygon class="st6" points="189.4,249.8 180,262.2 163.7,341.7 223.7,277 222.9,260.7 202.2,265.7 	"/>
	<polygon class="st7" points="180,274.5 196.4,274.5 205.8,287.9 201.1,266.1 	"/>
	<path class="st8" d="M201.1,266.1l-14.8,5.5c0.6,3.1,5,10.7,2.7,13.8l-22.1,38.4l-3.1,17.1l14-14l15.7-38.8
		c0.7-2.8,9.6-6.4,11.6-7.9L201.1,266.1L201.1,266.1z"/>
	<g>
		<path class="st9" d="M180.9,201.2c0.4-6.3-1.8-12.7-8.6-7.3C165.4,200.9,178.4,213.7,180.9,201.2z"/>
		<path class="st10" d="M179.1,198.3c-0.1-1,0.1-2.6-1.1-2.9c1.7-6.1-8.7-2.5-4.3-0.2c0,0,0,0,0,0c0.7,0,1.1,0.8,1.4,1.3
			c-4.1,2.3-1.9,8.1,2.2,8.9C179.8,205.2,178.8,200.1,179.1,198.3L179.1,198.3z"/>
		<path class="st9" d="M234.8,201.2c-0.4-6.3,1.8-12.7,8.6-7.3C250.3,200.9,237.3,213.7,234.8,201.2z"/>
		<path class="st10" d="M236.6,198.3c0.1-1-0.1-2.6,1.1-2.9c-1.7-6.1,8.7-2.5,4.3-0.2c0,0,0,0,0,0c-0.7,0-1.1,0.8-1.4,1.3
			c4.1,2.3,1.9,8.1-2.2,8.9C235.9,205.2,236.9,200.1,236.6,198.3L236.6,198.3z"/>
	</g>
	<g>
		<g>
			<path class="st11" d="M208.5,223.6l-0.4,31.6c25.7-3.9,28.8-19.5,28.8-19.5l1.2-68.2l-29.2,2.7
				C208.8,180.8,208.4,213.7,208.5,223.6z"/>
			<path class="st5" d="M178.5,166.4l-0.8,68.6c0,0,5.4,16.4,31.2,20.3v-32.7l3.1-0.8c-2.9-9.2-2.9-41.4-3.1-51.4L178.5,166.4z"/>
		</g>
		<path class="st12" d="M208.2,249.2c1,0.1,2.1-1,2.6-1.8C208.9,247.1,203,247.2,208.2,249.2z"/>
	</g>
	<g>
		<path class="st13" d="M175.2,183.2c-0.8-9-3.4-19,1.8-26.9c-0.1-8,5.3-18.9,13.5-20.2c4.2,0.2,4.1,9.8,16.1,10.8
			c11.1,0.3,24.3-3.3,32.4,6.6c1.5,1.8,0.9,3.6,1.1,5.9c0.6,10.6,1.6,22.6-2.1,32.8c-1.1-29.9,4.1-19.2-22.7-17.9
			c-6.3,0.3-11.1,0.7-18.9-0.4c-4.8-1.6-9.5-4.1-14.8-3.2c-2.6,0.6-2.4,8.8-3.3,11.3c-0.4,2.6,0.4,7.8-0.6,10.1
			C175.9,190.8,175.4,185.3,175.2,183.2L175.2,183.2z"/>
		<path class="st14" d="M187.9,166.9c-7.9-2-9-11-8.3-18c-7.6,7.1,1,18.5,8.7,21.2C195.5,171.3,192.8,167.8,187.9,166.9L187.9,166.9
			z"/>
		<path class="st15" d="M187.3,154.2c0.4,6,2.8,12.4,8.1,15.4c-13.7-3.2-21.1-11.9-14.6-25.7c0.9-1.6,9.1-9.9,9.5-5.3
			C189.1,143.7,186.2,148.7,187.3,154.2L187.3,154.2z"/>
	</g>
	<path class="st16" d="M196.9,193.4c1.9,1.3,3.2,4.9,1.5,6.7c-1.9,0.2-5.9,1.3-5.9-1.6c-0.8-2.6,1.8-1,2.5-2.7
		c0.3-0.8-0.8-1.7-0.4-2.3S196.4,193.1,196.9,193.4L196.9,193.4z"/>
	<path class="st16" d="M220.3,193.4c1.9,1.3,3.2,4.9,1.5,6.7c-1.9,0.2-5.9,1.3-5.9-1.6c-0.8-2.6,1.8-1,2.5-2.7
		c0.3-0.8-0.8-1.7-0.4-2.3S219.8,193.1,220.3,193.4L220.3,193.4z"/>
	<rect x="278.2" y="236.5" class="st17" width="21.8" height="2.3"/>
	<rect x="276.7" y="238.1" class="st18" width="26.5" height="6.2"/>
	<rect x="276.7" y="238.1" class="st19" width="2.3" height="6.2"/>
	<rect x="279" y="230.3" class="st20" width="21" height="6.2"/>
	<rect x="279" y="231.8" class="st21" width="9.4" height="4.7"/>
	<g>
		<path class="st22" d="M306.7,204.9c-0.7,8.1,3.8,26.4-9.4,26.5c-5.2-0.6-18.2,1.9-21.8-3.1c0,0-6.2-10.9-9.4-16.4s0.8-7.8,0.8-7.8
			l6.2-4.7c1.7-0.9,5.1-2.7,6.8-3.5c1.5-0.7,15.5-0.2,17.4-0.4C302.5,195.6,306.7,199.8,306.7,204.9L306.7,204.9z"/>
		<path class="st23" d="M303.9,203.4c-0.6,7,3.2,23.4-8.2,23.3c-4.5-0.5-16,1.7-19.1-2.7c0,0-5.5-9.6-8.2-14.4s0.7-6.9,0.7-6.9
			c1.4-1,6-4.7,7.6-5.2v-25.7c2.4-0.3,4.7,1.4,4.7,3.9v19.6C288.7,195.6,303.7,192.1,303.9,203.4L303.9,203.4z"/>
		<path class="st24" d="M276.7,201.4c-1.7,0.2-3.1-1.1-3.1-3.1v-23.4c0-2,1.4-3.4,3.1-3.1V201.4L276.7,201.4z"/>
		<path class="st25" d="M278.5,205.1c-2.1,1-7.5,8.1-10,4.8c-1.3-1.5-3.7-4-1.4-5.8l6.4-5.2c2.2-1.8,4.2,1.1,5.3,2.6
			C279.8,202.6,279.6,204.2,278.5,205.1L278.5,205.1z"/>
		<g>
			<path class="st26" d="M303.9,210h-0.7v-17.5c2-0.3,3.9,1.2,3.9,3.5C306.5,198.9,309.1,210.1,303.9,210L303.9,210z"/>
			<path class="st22" d="M302.5,210h0.7v-17.5c-2-0.3-3.9,1.2-3.9,3.5C299.9,198.9,297.2,210.1,302.5,210L302.5,210z"/>
		</g>
		<g>
			<path class="st26" d="M287.2,210h-0.8v-17.5c2.2-0.3,4.3,1.2,4.3,3.5v10.5C290.7,208.4,289.1,210,287.2,210L287.2,210z"/>
			<path class="st22" d="M285.6,210h0.8v-17.5c-2.2-0.3-4.3,1.2-4.3,3.5v10.5C282.1,208.4,283.7,210,285.6,210L285.6,210z"/>
		</g>
		<g>
			<path class="st26" d="M295.8,210H295v-17.5c2.2-0.3,4.3,1.2,4.3,3.5v10.5C299.3,208.4,297.7,210,295.8,210L295.8,210z"/>
			<path class="st22" d="M294.2,210h0.8v-17.5c-2.2-0.3-4.3,1.2-4.3,3.5v10.5C290.7,208.4,292.3,210,294.2,210L294.2,210z"/>
		</g>
	</g>
	<path class="st27" d="M214.2,313.4l-9.8,31.1c0,0-2.5,8.2,2.5,12.3"/>
	<path class="st27" d="M234.1,316.5l-3.7,33.5c0,0-1.1,8.8-7.7,10.3"/>
	<path class="st4" d="M213.8,314.6c0,0,0-17.2,13.1-13.1c0-0.1,10.9-0.7,7.4,15.6"/>
	<path class="st28" d="M186.5,189.6l2.5-2.4l1.2-1.2c0.4-0.4,1-0.8,1.6-1.1c0.6-0.3,1.3-0.6,2-0.7c0.4-0.1,0.7-0.1,1.1-0.1
		c0.4,0,0.7,0,1,0.1c0.6,0.1,1.2,0.1,1.8,0.2c0.3,0.1,0.6,0.1,0.9,0.3c0.1,0.1,0.3,0.2,0.4,0.4c0.1,0.2,0.2,0.5,0.2,0.9
		c0,0.2-0.1,0.4-0.2,0.5l-0.1,0.1c-0.1,0.1-0.3,0.3-0.3,0.4c-0.1,0.1-0.2,0.2-0.2,0.2c-0.1,0.1-0.3,0.1-0.4,0.1
		c-0.3,0.1-0.5,0-0.8,0c-0.5,0-1.1-0.2-1.6-0.2c-0.3,0-0.5,0-0.7-0.1c-0.2,0-0.4,0-0.6,0c-0.4,0-0.9,0.1-1.3,0.3
		c-0.5,0.1-0.8,0.4-1.4,0.6l-1.6,0.8l-3.1,1.5c-0.2,0.1-0.4,0-0.4-0.1C186.4,189.8,186.4,189.7,186.5,189.6L186.5,189.6z"/>
	<path class="st28" d="M227.5,190.1l-3.1-1.5l-1.6-0.8c-0.5-0.3-0.9-0.5-1.4-0.6c-0.4-0.2-0.9-0.2-1.3-0.3c-0.2,0-0.4,0-0.6,0
		c-0.2,0-0.5,0.1-0.7,0.1c-0.5,0-1.1,0.2-1.6,0.2c-0.3,0-0.5,0.1-0.8,0c-0.1,0-0.3-0.1-0.4-0.1c-0.1-0.1-0.1-0.1-0.2-0.2
		c-0.1-0.1-0.2-0.3-0.3-0.4l-0.1-0.1c-0.1-0.1-0.2-0.3-0.2-0.5c0-0.4,0.1-0.8,0.2-0.9c0.1-0.2,0.3-0.3,0.4-0.4
		c0.3-0.2,0.6-0.2,0.9-0.3c0.6-0.2,1.2-0.1,1.8-0.2c0.3,0,0.6-0.1,1-0.1c0.4,0,0.7,0.1,1.1,0.1c0.7,0.1,1.4,0.4,2,0.7
		c0.6,0.3,1.2,0.7,1.6,1.1l1.2,1.2l2.5,2.4c0.1,0.1,0.1,0.3,0,0.4C227.7,190.1,227.6,190.2,227.5,190.1L227.5,190.1z"/>
	<g>
		<path class="st29" d="M168.4,302.4c-0.1,10.7-15.5,10.7-15.6,0C152.8,291.6,168.3,291.6,168.4,302.4z"/>
		<path class="st30" d="M152.8,301.6c-0.1-8.6,12.6-8.6,12.5,0C165.3,310.2,152.6,310.2,152.8,301.6z"/>
		<rect x="158.2" y="290.3" class="st30" width="1.6" height="5.5"/>
		<path class="st31" d="M221.4,358.7c-1.2-0.2-3.2,0.1-3.1,1.6c1.1,2,4.9,1.5,6.5,0.3c0.6-0.4,0.2-1.9-0.4-2.1
			C223.5,358.5,222.4,358.8,221.4,358.7L221.4,358.7z"/>
		<path class="st31" d="M205.5,356.7c1,1.8,4.4,3.8,6.1,2.1c0.8-2.5-2.9-2.5-4.3-3.7C206.1,354.2,204.7,355.4,205.5,356.7z"/>
	</g>
	<path class="st32" d="M46.4,484.4l96.1,25.6c5.7,0,10.3-3.9,10.3-8.7V61.2c0-4.8-4.6-8.7-10.3-8.7l-96.1,5.2
		c-5.7,0-10.3,3.9-10.3,8.7v409.4C36.2,480.5,40.8,484.4,46.4,484.4L46.4,484.4z"/>
	<path class="st1" d="M134.4,285c3.5,0,6.3-2.8,6.3-6.3v-40.8c0-3.5-2.8-6.3-6.3-6.3s-6.3,2.8-6.3,6.3v40.8
		C128.1,282.2,130.9,285,134.4,285z"/>
	<path d="M127.6,258.3c0,6,3,10.8,6.8,10.8s6.8-4.8,6.8-10.8s-3-10.8-6.8-10.8S127.6,252.4,127.6,258.3z"/>
	<path class="st1" d="M36.5,130.8c2.2,0,4-1.8,4-4V90.2c0-2.2-1.8-4-4-4s-4,1.8-4,4v36.6C32.5,129,34.2,130.8,36.5,130.8z"/>
	<path class="st1" d="M36,457.7c2.2,0,4-1.8,4-4V417c0-2.2-1.8-4-4-4s-4,1.8-4,4v36.6C32,455.9,33.8,457.7,36,457.7z"/>
	<path class="st33" d="M131.9,275c0,1.4,1.1,2.5,2.5,2.5s2.5-1.1,2.5-2.5s-1.1-2.5-2.5-2.5S131.9,273.6,131.9,275z"/>
	<polygon class="st33" points="134.4,275 136.2,280.9 131.9,280.9 	"/>
	<path class="st34" d="M57.5,486.6c0.7,0,1.2-0.6,1.2-1.2V59.7c0-0.7-0.6-1.2-1.2-1.2s-1.2,0.6-1.2,1.2v425.6
		C56.2,486,56.8,486.6,57.5,486.6L57.5,486.6z"/>
	<path class="st34" d="M79.1,493c0.7,0,1.2-0.6,1.2-1.3V56.5c0-0.7-0.6-1.3-1.2-1.3s-1.2,0.6-1.2,1.3v435.3
		C77.9,492.5,78.4,493,79.1,493z"/>
	<path class="st34" d="M101,499c0.7,0,1.2-0.6,1.2-1.3V55.6c0-0.7-0.6-1.3-1.2-1.3s-1.2,0.6-1.2,1.3v442.1
		C99.7,498.4,100.3,499,101,499z"/>
	<path class="st34" d="M123.7,504.9c0.7,0,1.2-0.6,1.2-1.3v-448c0-0.7-0.6-1.3-1.2-1.3s-1.2,0.6-1.2,1.3v448
		C122.5,504.3,123,504.9,123.7,504.9z"/>
	<path class="st34" d="M143.8,510c0.7,0,1.2-0.6,1.2-1.3V55.5c0-0.7-0.6-1.3-1.2-1.3s-1.2,0.6-1.2,1.3v453.2
		C142.5,509.4,143.1,510,143.8,510z"/>
	<g>
		<path class="st35" d="M152,171.4v39.7c0,0,7.8,0,7.8-6.2c0-5,0.2-21.8,0.6-28.5C160.5,172,156.1,170.8,152,171.4L152,171.4z"/>
		<path class="st36" d="M157.9,201.4h-17.4c-2.2,0-3.6,1.4-3.4,3.1h24.2C161.6,202.8,160.1,201.5,157.9,201.4L157.9,201.4z"/>
		<path class="st35" d="M157.9,210h-17.4c-2.3,0.1-3.7-3.5-3.4-6.2h24.2C161.7,206.5,160.2,210.1,157.9,210L157.9,210z"/>
		<path class="st36" d="M158,191.5l-17.4-0.4c-2.2,0-3.7,1.3-3.5,3.1l24.1,0.5C161.6,192.9,160.2,191.5,158,191.5L158,191.5z"/>
		<path class="st35" d="M157.8,200l-17.4-0.4c-2.3,0.1-3.6-3.6-3.3-6.3l24.1,0.5C161.6,196.6,160.1,200.2,157.8,200L157.8,200z"/>
		<path class="st36" d="M157.6,182.4l-16.2-1c-2-0.1-3.5,1.2-3.4,2.9l22.6,1.4C160.9,184,159.7,182.5,157.6,182.4L157.6,182.4z"/>
		<path class="st35" d="M157.1,190.9l-16.2-1c-2.1,0-3.2-3.7-2.8-6.4l22.6,1.4C160.8,187.7,159.2,191.2,157.1,190.9L157.1,190.9z"/>
		<path class="st36" d="M159.5,173.2l-15.1-1.5c-1.9-0.2-3.3,0.8-3.2,2.3l21,2C162.6,174.6,161.4,173.4,159.5,173.2L159.5,173.2z"/>
		<path class="st35" d="M158.9,180.2l-15.1-1.5c-2-0.1-2.9-3.1-2.4-5.4l21,2C162.3,177.7,160.8,180.5,158.9,180.2z"/>
	</g>
	<g>
		<path class="st37" d="M196.6,237.6c-0.4-0.7-0.9-1.3-1.2-2c-0.5-1.1-0.6-2.3-0.4-3.5c0.1-0.7,0.5-1.2,1.2-1.4
			c0.1-0.1,0.2,0,0.2,0.1c0.2,0.3,0.4,0.6,0.3,1.1c-0.1,0.4-0.1,0.8-0.5,1c-0.1,0.1,0,0.2-0.1,0.4c-0.1,0.3-0.2,0.4-0.5,0.2
			c0.2,0.1,0.6,0.2,0.8,0.2c0.1,0,0.2-0.1,0.3-0.1c0.3,0,0.6,0,0.8-0.2c0.2-0.2,0.4-0.1,0.5,0.1c0.3,0.3,0.6,0.6,1,0.8
			c0.2,0.1,0.4,0.1,0.6,0.1c0.2,0,0.4,0,0.6,0.2c0.1,0.1,0.3,0.2,0.4,0.2c0.3,0.1,0.3,0.3,0.1,0.5c-0.4,0.4-0.7,0.8-0.6,1.4
			c0,0.1,0,0.2,0,0.2c-0.2,0.4,0,0.7,0.1,1c0,0.1,0.1,0.2,0.2,0.2c0.2,0,0.2,0.2,0.2,0.3c0,0.1,0,0.3-0.1,0.4
			c-0.1,0.2-0.1,0.3,0.1,0.4c-0.1-0.4,0-0.5,0.4-0.5c0.2,0,0.4,0,0.5,0.1c0.1,0,0.2,0.1,0.2,0.3c0,0.1-0.1,0.2-0.2,0.2
			c-0.2,0-0.2,0.1-0.2,0.2c0,0.1,0,0.3-0.1,0.4c0.2,0,0.4-0.1,0.4,0.2c0,0.1,0.2,0.2,0.3,0.2c0.3,0,0.6,0,0.8-0.1
			c0.2-0.2,0.3-0.1,0.3,0.2c0,0.2,0.1,0.3,0,0.4c-0.2,0.2-0.4,0.3-0.7,0.4c-0.2,0-0.3-0.1-0.3-0.2c-0.1-0.1-0.1-0.1-0.2,0
			c-0.2,0.3-0.6,0.3-0.9,0.3c-0.2,0-0.2,0.1-0.2,0.2c0.1,0.2,0,0.3-0.2,0.2c-0.4-0.2-0.7-0.4-1-0.7c-0.4-0.2-0.8-0.4-1-0.8
			c-0.1-0.1-0.2-0.2-0.2-0.2c-0.1-0.1-0.2-0.1-0.2-0.2c-0.5-0.6-1.1-1.2-1.5-1.8C196.7,237.9,196.7,237.7,196.6,237.6z"/>
		<path class="st37" d="M203.4,240.8c0-0.2-0.2-0.3-0.1-0.5c0-0.1,0-0.1-0.1-0.1c-0.1,0-0.1,0.1-0.2,0.1c0,0,0,0.1-0.1,0.1
			c-0.2-0.1-0.4-0.1-0.7,0c-0.2,0.1-0.5-0.3-0.5-0.4c-0.1,0-0.1,0.1-0.2,0.1c-0.1,0-0.2,0-0.2-0.1c-0.1-0.1,0-0.1,0.1-0.2
			c0.1-0.1,0.2-0.2,0.1-0.3c-0.1-0.2,0-0.3,0.2-0.3c0.1,0,0.2,0.1,0.2,0c0-0.1-0.1-0.1-0.2-0.2c-0.2-0.1-0.5-0.1-0.7,0
			c-0.2,0-0.2,0.2-0.1,0.4c0,0.1,0.2,0.1,0.1,0.2c-0.1,0.1-0.2,0-0.2,0c-0.1-0.1-0.2-0.1-0.4-0.2c-0.1-0.1-0.1-0.1,0-0.2
			c0.2-0.1,0.2-0.3,0.2-0.5c0-0.2,0.1-0.4-0.2-0.2c-0.1,0-0.2,0-0.2-0.1c0-0.3-0.1-0.6-0.2-0.8c-0.1-0.1,0-0.2,0-0.2
			c0.1-0.2,0.1-0.3,0.1-0.5c-0.1-0.3,0-0.6,0.2-0.9c0,0,0.1-0.1,0.1-0.1c0-0.3,0.2-0.4,0.4-0.5c0.1,0,0.1-0.1,0.1-0.2
			c0-0.1-0.1-0.1-0.1-0.1c-0.3,0-0.5-0.2-0.7-0.4c-0.1-0.1-0.2-0.1-0.3,0c-0.2,0-0.4,0-0.6-0.1c-0.4-0.2-0.8-0.5-1.1-0.8
			c-0.2-0.2-0.4-0.2-0.5,0c-0.2,0.2-0.3,0.2-0.5,0.2c0,0-0.1,0-0.2,0c-0.4,0.1-0.8,0-1.2-0.1c-0.1,0-0.2,0-0.2-0.2
			c0-0.1,0-0.2,0.1-0.2c0.1-0.1,0.2,0,0.2,0.1c0.1,0.1,0.1,0.1,0.2,0c0-0.1,0.1-0.2,0.1-0.2c-0.1-0.3,0.1-0.4,0.3-0.6
			c0.3-0.2,0.1-0.5,0.2-0.8c0.1-0.2,0.1-0.4-0.1-0.6c-0.1-0.1-0.1-0.2-0.1-0.2c0-0.1-0.1-0.3-0.2-0.3c0.2-0.1,0.4-0.1,0.5-0.1
			c0.2,0,0.4,0,0.6,0c0,0,0.1,0,0.1,0c0.2,0.1,0.3,0.2,0.3,0.4c0,0,0,0,0.1,0.1c0.3,0.1,0.3,0.3,0.4,0.5c0,0,0,0.1,0,0.1
			c0,0.3,0.5,0.9,0.9,1c0.1,0,0.3,0.1,0.4,0.1c0.2,0.1,0.5,0.1,0.6,0.4c0,0.3,0.1,0.5,0.1,0.8c0,0.2,0.1,0.3,0.3,0.4
			c0.2,0,0.4,0.1,0.5-0.1c0.1-0.2,0.2-0.4,0.3-0.6c0.1-0.1,0.3,0,0.4,0c0.4,0.1,0.8,0.2,1.1,0.4c0,0.3-0.1,0.5-0.2,0.7
			c-0.1,0.1-0.2,0.2-0.4,0.2c-0.2-0.1-0.5,0-0.7,0c-0.1,0-0.3,0-0.3,0.2c0,0.2,0.1,0.3,0.3,0.4c0.1,0,0.1,0,0.2,0c0.5,0,1,0,1.5,0.1
			c0.7,0.1,1.4,0.4,1.6,1.2c0.1,0.2,0,0.3-0.2,0.3c-0.1,0-0.2-0.1-0.3,0c0.4,0.3,0.8,0.5,1.3,0.4c0.3,0,0.5,0,0.5,0.3
			c0,0.1,0.1,0.1,0.2,0.2c0.3,0.2,0.5,0.4,0.4,0.7c-0.1,0.3-0.3,0.4-0.6,0.5c-0.4,0.1-0.8,0.1-1.2,0.1c-0.2,0-0.4,0-0.6,0.1
			c-0.1,0-0.2,0.1-0.2,0.2c0,0.1,0.1,0.1,0.2,0.1c0.2,0.1,0.2,0.3,0,0.4c-0.1,0.1-0.2,0.2-0.1,0.3
			C204.1,240.6,203.7,240.8,203.4,240.8z"/>
		<path class="st38" d="M200.2,233.1c-0.2-0.1-0.4-0.2-0.6-0.3c-0.4-0.1-0.7-0.4-1.1-0.7c-0.2-0.1-0.3-0.3-0.3-0.5c0,0,0-0.1,0-0.1
			c-0.1-0.2-0.2-0.5-0.2-0.8c0-0.1,0.1-0.2,0.2-0.3c0.2-0.1,0.3-0.1,0.5-0.2c0.8,0,1.7,0,2.5,0.1c0.1,0.4,0.2,0.9,0.2,1.3
			c0,0.3,0.1,0.5,0.3,0.7c0.3,0.4,0.5,0.8,0.2,1.2c-0.1,0-0.2-0.1-0.4-0.1c-0.1,0.1-0.1,0.1-0.2,0c-0.3-0.1-0.6-0.2-0.9-0.3
			C200.3,233.3,200.3,233.2,200.2,233.1z"/>
		<path class="st37" d="M200.9,241.8c0.2,0,0.2-0.1,0.1-0.3c-0.2-0.3-0.2-0.3,0.1-0.3c0.4,0,0.8,0,1-0.4c0.1-0.2,0.3-0.1,0.3,0.1
			c0,0.1,0.1,0.3,0.2,0.2c0,0.1,0,0.2-0.1,0.2c-0.3,0.2-0.5,0.4-0.6,0.6c-0.1,0.1-0.2,0.2-0.3,0.2c-0.1,0-0.2,0-0.2-0.1
			C201.3,242,201.1,241.9,200.9,241.8z"/>
		<path class="st39" d="M198.2,230.6c-0.2,0.3,0.1,0.6,0,0.9c0,0.1,0,0.1,0,0.2c-0.2-0.1-0.2-0.4-0.4-0.5
			C198,230.9,197.9,230.6,198.2,230.6z"/>
		<path class="st40" d="M197.8,231c-0.1-0.1-0.2-0.3-0.3-0.4c0,0,0.1,0,0.1,0C197.9,230.7,198,230.8,197.8,231z"/>
		<path class="st41" d="M197.4,230.6c-0.2,0-0.4,0-0.6,0C197,230.5,197.2,230.5,197.4,230.6z"/>
		<path class="st42" d="M218.4,239.2c-0.8,1-1.7,1.8-2.8,2.6c-0.3,0.2-0.5,0.3-0.8,0.5c-0.4,0.2-0.7,0.1-1-0.2
			c-0.7-0.6-1.5-1.1-2.3-1.5c-1.2-0.6-2.5-0.7-3.8-0.8c-0.1,0-0.2,0-0.3,0.1c-0.1,0-0.3,0-0.4,0c-0.1,0-0.3,0-0.3-0.2
			c0-0.2,0.1-0.3,0.3-0.3c0.6-0.2,1.1-0.5,1.6-0.7c0.3-0.1,0.6-0.2,0.9-0.3c0.1,0,0.2,0,0.1-0.1c-0.1-0.2,0.1-0.3,0.2-0.5
			c0,0-0.1,0,0,0c0,0,0,0,0,0c-0.4,0.2-0.8,0.2-1.2,0.2c-0.1,0-0.2,0-0.3,0c-0.2,0.1-0.4,0-0.3-0.2c0-0.4,0-0.8-0.1-1.1
			c0.1-0.1,0.3-0.2,0.2-0.5c0-0.2,0.1-0.3,0.2-0.3c0.2-0.1,0.4-0.1,0.5,0c0.2,0,0.4,0,0.5-0.1c0.2-0.1,0.4-0.1,0.6-0.1
			c0.2,0.1,0.3-0.1,0.4-0.1c0.3-0.2,0.5-0.2,0.7,0c0,0,0.1,0.1,0.1,0.1c0.3-0.1,0.8-0.1,1-0.4c0.2-0.2,0.3-0.2,0.5,0
			c0.1,0.1,0.2,0.1,0.3,0c0.1-0.1,0.3-0.2,0.5-0.1c0.3,0.1,0.6,0.1,0.9,0.1c0.3,0,0.3,0.1,0.2,0.3c-0.1,0.2-0.3,0.4-0.6,0.4
			c-0.3,0-0.4,0.1-0.3,0.4c0.1,0.3,0.1,0.6,0.3,0.8c0,0,0,0.1,0,0.1c-0.1,0.4,0.2,0.5,0.4,0.7c0.3,0.3,0.4,0.7,0.7,0.9
			c0.6,0.4,1.2,0.6,1.9,0.4c0.4-0.1,0.3,0.2,0.3,0.4c0.2-0.1,0.4-0.2,0.5-0.3C218.1,239.1,218.2,239,218.4,239.2z"/>
		<path class="st43" d="M207,239.7c0.1,0,0.3,0,0.4,0c0.1,0,0.2-0.1,0.3,0c0.1,0.1,0,0.2-0.1,0.3c-0.1,0-0.1,0.1-0.2,0.1
			c-0.1,0-0.2,0.1-0.1,0.2c0.1,0.1,0.2,0.1,0.3,0.1c0.4-0.3,0.8-0.2,1.2-0.1c0.4,0.1,0.5,0.4,0.4,0.7c0,0.1-0.1,0.2-0.1,0.2
			c0,0.4,0,0.4-0.4,0.4c-0.2,0-0.3,0-0.3,0.2c0.5-0.1,0.9-0.2,1.4,0.1c0.2,0.1,0.3,0.1,0.5,0.1c0.2,0,0.4-0.1,0.5,0.1
			c0.1,0.2,0.2,0.5,0,0.7c-0.2,0.2-0.4,0.4-0.6,0.6c-0.2,0.2-0.5-0.1-0.6,0c-0.2,0.2-0.3,0.3-0.5,0.2c-0.1,0-0.2,0-0.2,0.1
			c-0.1,0.3-0.3,0.4-0.6,0.4c-0.2,0-0.5,0-0.7,0.1c-0.9,0-1.9,0-2.8-0.3c-0.7-0.2-1.5-0.5-2.1-0.9c-0.3-0.2-0.5-0.6-0.9-0.7
			c0.3-0.4,0.6-0.8,1-1c0.2-0.1,0.5-0.2,0.7-0.4c0.3-0.1,0.6-0.3,0.9-0.4c0-0.1,0.2-0.2,0.3-0.2c0.5-0.2,1.1-0.3,1.6-0.5
			C206.5,239.6,206.7,239.7,207,239.7z"/>
		<path class="st44" d="M207.5,244.1c0.1-0.2,0.2-0.3,0.5-0.2c0.2,0.1,0.3,0,0.5-0.1c0.1,0,0.2-0.1,0.2-0.3c0-0.2,0.1-0.3,0.3-0.2
			c0.2,0.1,0.4,0.3,0.4-0.2c0-0.1,0.1-0.1,0.2,0c0.3,0.2,0.4,0.2,0.6-0.1c0.1-0.1,0.1-0.1,0.2-0.2c0.3-0.2,0.4-0.5,0.2-0.8
			c0-0.1-0.1-0.1-0.1-0.1c-0.4,0.1-0.7,0.2-1-0.2c-0.4,0.1-0.9-0.3-1.3,0.3c0-0.1,0.1-0.2,0-0.4c-0.1-0.2,0-0.3,0.2-0.3
			c0.1,0,0.2,0,0.2,0c0.3,0,0.3,0,0.2-0.3c0-0.1,0-0.2,0.1-0.3c0.1-0.1,0.1-0.3,0.1-0.4c-0.1-0.2-0.2-0.2-0.4-0.2
			c-0.2,0-0.3-0.1-0.5-0.1c-0.2,0-0.4,0-0.6,0.2c-0.1,0.1-0.5,0-0.6-0.2c0,0,0-0.1,0-0.1c0.2,0,0.3-0.2,0.4-0.3c0.1,0,0.2,0,0.2-0.1
			c0-0.1-0.1-0.1-0.2-0.1c0.3-0.1,0.7-0.1,1.1,0c0.6,0.1,1.1,0.1,1.6,0.3c1.3,0.4,2.5,1,3.6,1.9c0.3,0.3,0.7,0.5,1.1,0.4
			c-0.2,0.2-0.4,0.4-0.6,0.6c-0.3,0.3-0.6,0.5-1,0.6c-0.9,0.3-1.7,0.5-2.6,0.7c0,0-0.1,0-0.1,0c0,0,0,0-0.1,0
			c-0.8,0-1.6,0.1-2.5,0.1C207.7,244.2,207.6,244.2,207.5,244.1z"/>
		<path class="st45" d="M218.4,239.2c-0.4,0-0.5,0.3-0.8,0.4c-0.1,0-0.2,0.2-0.3,0.1c-0.1-0.1,0-0.2,0-0.3c0-0.1,0-0.1,0-0.2
			c-0.1-0.1-0.2,0-0.2,0c-0.1,0.1-0.2,0.1-0.4,0c0,0-0.1,0-0.1,0c-0.5,0.2-0.9-0.2-1.2-0.4c-0.3-0.1-0.6-0.3-0.7-0.7
			c-0.1-0.2-0.3-0.5-0.6-0.6c-0.2,0-0.1-0.2-0.1-0.3c0.1-0.1,0.1-0.3,0-0.4c-0.2-0.1-0.2-0.3-0.2-0.5c0-0.1,0-0.3-0.2-0.4
			c0,0-0.1-0.1,0-0.1c0.2-0.1,0.3-0.3,0.5-0.3c0.5-0.1,0.5,0,0.7-0.4c-0.1-0.1-0.1,0-0.2,0c-0.3,0-0.5,0.1-0.8,0
			c-0.4-0.1-0.5,0-0.7,0.3c-0.1-0.1-0.2-0.1-0.2-0.2c-0.2-0.2-0.4-0.4-0.5,0.1c0,0.1-0.1,0.1-0.1,0.1c-0.3,0-0.5,0.1-0.7,0.2
			c-0.1,0.1-0.3,0.1-0.4-0.1c-0.1-0.2-0.3-0.2-0.5-0.1c-0.1,0.1-0.3,0.2-0.4,0.2c0,0-0.1,0.1-0.1,0c-0.2-0.3-0.5,0-0.7,0
			c-0.2,0.1-0.3,0.1-0.5,0c-0.2,0-0.3,0-0.5,0c-0.3,0.1-0.1,0.3-0.1,0.4c0,0.2-0.1,0.2-0.2,0.3c-0.1,0-0.1,0-0.1-0.1
			c0-0.3-0.2-0.5-0.4-0.5c-0.6-0.2-1.2-0.2-1.7-0.2c-0.2,0-0.3-0.1-0.4-0.3c-0.1-0.2-0.3-0.3-0.2-0.5c0.1-0.3,0.2-0.4,0.4-0.5
			c0.2-0.1,0.5,0,0.7,0c0.2,0.1,0.5,0,0.7,0.1c0,0,0.1,0,0.1,0c0.1,0.1,0.3,0.2,0.5,0.1c0.1-0.1,0.3,0,0.4,0c0.7,0,1.4,0.1,2.2-0.1
			c0.2,0,0.4,0,0.6,0c0.3,0.1,0.6,0.1,0.8,0c0.8-0.1,1.7-0.2,2.4-0.5c0.3-0.1,0.7-0.2,1-0.3c0.4,0.1,0.7-0.1,1.1-0.1
			c0.1,0,0.2,0,0.3,0c0.3,0.1,0.3,0.4,0.2,0.6c-0.2,0.3-0.4,0.6-0.8,0.8c0.2,0.3,0.4,0.5,0.8,0.5c0.4-0.1,0.8,0.1,1.2,0.2
			c0.3,0,0.6,0.7,0.4,1.1c-0.1,0.2-0.1,0.5-0.1,0.7c0,0.2,0.1,0.3,0.3,0.3c0.2,0,0.2-0.1,0.3-0.3c0.1-0.3,0.3-0.6,0.4-0.9
			c0-0.1,0.1-0.2,0.2-0.2c0.4,0.1,0.8,0.1,1.1,0.5c0,0,0,0.1,0,0.1c0,0.3-0.2,0.6-0.5,0.7c-0.2,0.2-0.3,0.4-0.5,0.6
			c-0.2,0.1-0.3,0.2-0.3,0.4C218.7,238.8,218.5,239,218.4,239.2z"/>
		<path class="st42" d="M220.1,236.8c-0.2-0.2-0.4-0.4-0.7-0.4c0,0-0.1,0-0.1,0c-0.2-0.3-0.2-0.1-0.3,0.1c-0.2,0.4-0.3,0.7-0.4,1.1
			c-0.1,0.1-0.2,0.2-0.4,0.1c-0.2-0.1-0.3-0.2-0.3-0.4c0-0.3-0.1-0.6,0.2-0.9c0.2-0.2-0.1-0.3-0.1-0.5c-0.1-0.2-0.2-0.4-0.5-0.4
			c-0.5-0.1-0.9-0.1-1.4-0.1c-0.1,0-0.2-0.1-0.2-0.2c-0.1-0.1-0.1-0.2-0.2-0.3c-0.1,0-0.2,0-0.1-0.1c0-0.1,0.1-0.1,0.2-0.1
			c0.4-0.1,0.6-0.5,0.8-0.7c0.1-0.1,0-0.3-0.1-0.4c0.3-0.2,0.5-0.3,0.9-0.3c0.6,0,1.1-0.4,1.2-1c0-0.4,0.1-0.8,0.6-0.9
			c0.1,0,0.2-0.1,0.3-0.2c0.1-0.1,0.3-0.1,0.4,0c0.1,0,0.1,0.1,0.2,0.1c0.2,0,0.2,0.1,0.2,0.2c0.2,0.3,0.5,0.6,0.7,0.9
			c0.2,0.2,0.3,0.5,0.3,0.8c0.1,0.3,0,0.6,0.1,1c0,0.2,0,0.4-0.1,0.5l0,0c0,0.1,0,0.3-0.1,0.4c-0.1,0.2-0.1,0.4-0.2,0.6
			c0.1,0.2,0,0.3-0.2,0.4c-0.1,0.1-0.1,0.2-0.1,0.3C220.3,236.5,220.4,236.8,220.1,236.8z"/>
		<path class="st46" d="M219.6,231.2c-0.2,0-0.3,0.1-0.4,0.2c-0.1,0.1-0.3,0.2-0.5,0.3c-0.2,0-0.3,0.1-0.3,0.3c0,0.2,0,0.5-0.1,0.7
			c0,0.3-0.3,0.4-0.5,0.6c-0.2,0.2-0.5,0.4-0.9,0.2c-0.1,0-0.2,0-0.3,0c-0.2,0.1-0.3,0.1-0.5,0.1c-0.5,0.1-0.9,0.2-1.4,0.2
			c0.1-0.3,0.4-0.3,0.7-0.4c0.4-0.1,0.7-0.3,1-0.4c0.4,0,0.7-0.2,1-0.3c0.2-0.1,0.2-0.3,0.3-0.4c0.2-0.3,0.3-0.6,0.6-0.9
			c0.1,0,0.1-0.1,0.2-0.2c0.2-0.4,0.4-0.4,0.8-0.2C219.4,231,219.5,231.1,219.6,231.2z"/>
		<path class="st42" d="M218.9,238.5c-0.1-0.4-0.1-0.4,0.3-0.4C219.1,238.3,219,238.4,218.9,238.5z"/>
		<path class="st47" d="M221,233.3c0,0.3,0,0.6-0.1,0.8c0-0.3,0-0.6,0-1C221,233.2,221,233.2,221,233.3z"/>
		<path class="st48" d="M220,231.5c-0.1-0.1-0.2-0.2-0.2-0.2C219.9,231.2,219.9,231.2,220,231.5z"/>
		<path class="st49" d="M215.5,233.5c-0.2,0.1-0.5,0.2-0.7,0.3c-0.3,0-0.6,0.2-1,0.2c-0.1-0.2-0.2-0.4,0-0.7
			c0.1-0.2-0.1-0.6-0.4-0.7c-0.3-0.1-0.5-0.2-0.8-0.3c-0.2,0-0.5-0.2-0.6-0.5c0,0,0,0,0,0c0-0.1-0.9-0.3-0.9-0.3
			c-0.2,0.1-0.3,0.1-0.5-0.1c-0.1-0.1-0.1-0.2-0.2-0.1c-0.1,0.1,0,0.2,0,0.2c0,0,0.1,0.1,0.1,0.1c0,0.1,0.1,0.3,0,0.4
			c-0.1,0.1-0.3,0-0.4-0.1c-0.1,0-0.1-0.1-0.1-0.2c-0.1-0.1-0.2-0.1-0.3,0c-0.1,0,0,0.1,0,0.2c0,0.2-0.1,0.2-0.2,0.2
			c-0.1,0-0.3,0.1-0.4,0.2c-0.3,0.3-0.7,0.5-1.1,0.5c0.1,0.2,0.1,0.3-0.1,0.5c-0.2,0.3-0.6,0.4-0.9,0.6c-0.1,0.1-0.3,0-0.4,0
			c-0.2-0.1-0.3-0.1-0.4,0c-0.1,0.1-0.2,0.1-0.4,0c-0.4-0.2-0.7-0.1-0.9,0.2c0,0.1-0.1,0.1-0.2,0.1c-0.5,0-1-0.1-1.5-0.3
			c-0.1,0-0.1-0.1-0.1-0.1c-0.4-0.1-0.7-0.3-1.1-0.4c0-0.1-0.1-0.2,0-0.2c0.3-0.4-0.1-0.7-0.3-1c-0.2-0.2-0.3-0.4-0.3-0.6
			c0-0.4,0-0.7-0.1-1c0-0.1,0-0.3,0-0.4c1.8,0,3.6,0,5.4,0c0.5,0.1,0.9,0,1.4,0c0.4,0,0.8,0,1.3,0c1,0,2.1,0,3.1,0
			c1.4,0,2.8,0.1,4.3,0.1c0.4,0,0.8,0,1.2,0.2c0.3,0.3,0.2,0.7,0.1,1.1c0,0.1-0.1,0.2-0.1,0.2c-0.4,0.2-0.7,0.6-1.1,0.8
			c-0.3,0.2-0.6,0.3-1,0.4C215.6,233.4,215.5,233.4,215.5,233.5z"/>
		<path class="st50" d="M217.7,232.1c0.2-0.4,0.2-0.9,0.1-1.3c0.1,0,0.2,0,0.3,0c0.2,0.1,0.3,0.3,0.2,0.5c-0.1,0.4-0.3,0.6-0.5,0.9
			c0,0.1-0.1,0.1-0.2,0.1C217.6,232.2,217.6,232.2,217.7,232.1z"/>
		<path class="st51" d="M209.2,230.5c-0.8,0-1.6,0-2.4,0c-0.1,0-0.2,0-0.2-0.1c0.5,0,0.9,0,1.4,0c0.1-0.1,0.2-0.1,0.2,0
			C208.6,230.5,208.9,230.4,209.2,230.5z"/>
		<path class="st37" d="M200.3,238.6c0.1,0,0.1,0.1,0.1,0.2c0,0.1-0.1,0.2-0.2,0.1c-0.1,0-0.3,0-0.2-0.2
			C200,238.7,200.2,238.7,200.3,238.6z"/>
		<path class="st37" d="M199.8,239.3c0.1,0,0.1,0.1,0.1,0.1c0,0.1,0,0.1-0.1,0.2c-0.1,0-0.1,0-0.1-0.1
			C199.7,239.4,199.7,239.3,199.8,239.3z"/>
		<path class="st37" d="M203,234.1c0.6,0.1,1.1,0.3,1.7,0.3c0.2,0,0.5-0.2,0.7,0.1c0,0,0,0.1-0.1,0.1c-0.1,0.1-0.2,0-0.1,0.2
			c0,0.1-0.2,0.3,0.1,0.4c0,0,0,0,0,0c0,0.4,0.3,0.4,0.5,0.4c0.5,0,1.1,0,1.6,0.2c0.2,0.2,0.4,0.3,0.4,0.6c0,0,0,0,0.1,0.1
			c0,0.2,0,0.3,0.2,0.4c0.1,0.1,0.1,0.2,0,0.3c-0.2,0.2-0.1,0.4,0,0.6c0.2-0.2,0.3-0.2,0.6-0.1c0.3,0.1,0.7,0,1-0.1
			c0.1,0,0.1-0.1,0.1-0.2c0-0.1,0-0.2,0.1-0.1c0.1,0,0.1,0.1,0,0.2c-0.1,0.1,0,0.3-0.2,0.4c-0.1,0.1-0.1,0.2,0,0.2
			c0.2,0.1,0.1,0.2,0,0.2c-0.5,0.1-0.9,0.4-1.4,0.5c0,0-0.1,0-0.1,0.1c-0.3,0.4-0.8,0.4-1.3,0.6c-0.1,0-0.2,0.1-0.2,0.2
			c0,0.1,0.1,0.1,0.2,0.1c-0.5,0.1-1.1,0.2-1.6,0.4c-0.4,0.1-0.7,0.2-1.1,0.4c-0.1,0-0.2-0.1-0.2-0.2c0-0.1,0.1-0.1,0.2-0.1
			c0.1,0,0.2-0.1,0.2-0.3c-0.1-0.2-0.2,0-0.3,0c-0.1,0-0.1,0.1-0.2,0c0-0.1,0-0.1,0-0.2c0.1-0.2,0.2-0.4,0.5-0.4
			c0.4,0,0.7-0.1,1.1,0.1c0,0,0.1,0,0.1,0c0.3-0.2,0.6-0.2,0.9-0.3c0.2-0.1,0.2-0.2,0.2-0.4c0-0.2,0-0.4-0.2-0.4
			c-0.1,0-0.2-0.1-0.3-0.1c-0.1,0-0.2-0.1-0.1-0.2c0.1-0.2,0-0.2-0.2-0.2c-0.4,0-0.8,0.1-1.1-0.3c-0.1-0.1-0.2-0.1-0.2-0.1
			c-0.1,0-0.2,0-0.2-0.2c0-0.1,0-0.2,0.1-0.3c0.1-0.1,0.2,0,0.2,0.1c0.1,0.1,0.2,0.2,0.3,0.1c0.1-0.2-0.1-0.2-0.1-0.2
			c0-0.2-0.1-0.4-0.2-0.5c-0.1-0.1-0.1-0.2-0.2-0.2c-0.4-0.1-0.8-0.3-1.3-0.4c-0.5,0-0.9,0-1.4-0.1c-0.2,0-0.5-0.4-0.5-0.6
			c0-0.1,0.1-0.2,0.2-0.1c0.3,0.1,0.6-0.2,1,0c0.2,0.1,0.3-0.2,0.3-0.3C202.7,234.4,202.9,234.2,203,234.1z"/>
		<path class="st37" d="M200.2,233.1c0.4,0.1,0.8,0.3,1.3,0.4c0,0.6-0.3,0.9-0.8,0.8c-0.3,0-0.5-0.2-0.5-0.5c0-0.1,0-0.3-0.1-0.4
			C200.2,233.3,200.1,233.2,200.2,233.1z"/>
		<path class="st52" d="M198.3,231.7c0.4,0.5,0.9,0.8,1.4,1.2c-0.6,0-1-0.3-1.4-0.8C198.2,231.9,198.3,231.8,198.3,231.7z"/>
		<path class="st37" d="M204.2,236.7c-0.1,0-0.3-0.1-0.3-0.3c0-0.2,0.2-0.1,0.4-0.1c0.1,0,0.2,0.1,0.2,0.2
			C204.4,236.7,204.3,236.7,204.2,236.7z"/>
		<path class="st37" d="M197.4,233c-0.2,0-0.3-0.1-0.3-0.3c0-0.1,0.1-0.2,0.2-0.2c0,0,0.3,0.3,0.3,0.4
			C197.7,233,197.6,233,197.4,233z"/>
		<path class="st37" d="M198.3,232.3c0,0.1-0.1,0.2-0.2,0.2c-0.1,0-0.2-0.1-0.2-0.2c0-0.1,0-0.2,0.1-0.2
			C198.1,232.1,198.2,232.2,198.3,232.3z"/>
		<path class="st37" d="M209.5,236.8c-0.1,0-0.2,0-0.2-0.1c0-0.1,0.1-0.1,0.1-0.1c0.1,0,0.1,0,0.1,0.1
			C209.6,236.8,209.5,236.8,209.5,236.8z"/>
		<path class="st43" d="M209.4,241.5c-0.1,0-0.2,0-0.2-0.1c0-0.1,0.1-0.1,0.2-0.1c0.1,0,0.2,0,0.2,0.1
			C209.6,241.6,209.5,241.5,209.4,241.5z"/>
		<path class="st53" d="M205.4,234.5c-0.2-0.2-0.5,0-0.7-0.1c0.4-0.5,0.5-0.5,1.1-0.3c0.1,0.1,0.2,0.1,0.3-0.1
			c0.1-0.2,0.3-0.2,0.4-0.1c0.3,0.1,0.5,0.2,0.7-0.1c0.1-0.2,0.4-0.2,0.5-0.3c0.3-0.3,0.3-0.4-0.1-0.5c0-0.1,0.1-0.1,0.1-0.1
			c0.4,0.1,0.7-0.2,1.1-0.3c0,0,0.1,0,0.1-0.1c0.1-0.3,0.3-0.4,0.7-0.4c-0.1-0.2-0.3-0.3,0-0.5c0.2-0.1,0.5,0,0.6,0.2
			c0.1,0.1,0.1,0.2,0.3,0.1c0.1-0.1,0-0.2,0-0.3c0-0.1-0.1-0.1-0.1-0.1c-0.1-0.1-0.2-0.2-0.1-0.3c0.1-0.1,0.2-0.1,0.3-0.1
			c0.1,0,0.2,0,0.2,0.2c0,0.1,0.1,0.1,0.2,0.2c0.1,0,0.2,0,0.2-0.1c0-0.4,0.3-0.1,0.3-0.1c0.1,0.2,0.3,0.2,0.5,0.2
			c0.1,0,0.3,0,0.3,0.2c0,0.2,0.4,0.5,0.6,0.5c0.1,0,0.2,0,0.3,0.1c0,0.1,0.1,0.1,0.1,0.1c0.4,0,0.5,0.2,0.7,0.5
			c0.1,0.1,0.2,0.3-0.1,0.5c-0.1,0-0.1,0.1,0,0.2c0.1,0.1,0,0.3,0,0.4c-0.6,0.3-1.2,0.3-1.8,0.4c-0.2,0-0.5,0-0.7,0.1
			c-0.3,0.1-0.6,0-0.9,0c-0.2,0-0.4,0-0.5,0c-0.8,0-1.5,0-2.3,0c-0.1,0-0.3,0-0.4,0c-0.1,0.1-0.2,0-0.3-0.1c0,0,0,0-0.1,0
			c-0.3,0-0.5,0-0.8,0C205.8,234.5,205.6,234.5,205.4,234.5z"/>
		<path class="st42" d="M207.8,236.4c-0.2-0.2-0.4-0.3-0.4-0.6c0.2-0.1,0.4-0.2,0.3,0.1c0,0,0,0.1,0.1,0.1
			C208,236.1,207.9,236.3,207.8,236.4z"/>
		<path class="st54" d="M207.7,234.5c0.8,0,1.5,0,2.3,0c-0.2,0.1-0.4,0-0.5,0C208.8,234.6,208.3,234.6,207.7,234.5
			C207.7,234.6,207.7,234.6,207.7,234.5C207.7,234.6,207.7,234.5,207.7,234.5z"/>
		<path class="st42" d="M217.5,239.1c0.1-0.1,0.1-0.2,0.2-0.3c0.1-0.1,0.1-0.1,0.2,0c0.1,0,0.1,0.1,0.1,0.2c0,0.1-0.1,0.1-0.2,0.1
			C217.7,239.1,217.6,239.1,217.5,239.1z"/>
		<path class="st37" d="M207.7,234.5C207.7,234.6,207.7,234.6,207.7,234.5c-0.1,0.1-0.3,0.1-0.4,0.2c-0.2,0.1-0.3,0-0.4-0.2
			C207.2,234.5,207.4,234.5,207.7,234.5z"/>
		<path class="st55" d="M210.5,234.5c0.3-0.1,0.6-0.1,0.9,0C211.1,234.6,210.8,234.5,210.5,234.5z"/>
		<path class="st56" d="M206.1,234.5c0.3-0.1,0.5,0,0.8,0C206.6,234.5,206.4,234.5,206.1,234.5z"/>
		<path class="st42" d="M215.5,237c0.1,0,0.1,0,0.1,0.1c0,0,0,0.1-0.1,0.1C215.5,237.2,215.4,237.2,215.5,237
			C215.4,237.1,215.5,237.1,215.5,237z"/>
		<path class="st57" d="M217.7,232.1c0,0.1,0,0.1-0.1,0.2c0,0.1,0,0.1,0,0.2c-0.2,0.2-0.5,0.3-0.8,0.5c-0.1,0-0.2,0.1-0.4,0.1
			c-0.3,0.1-0.7,0.3-1,0.4c0.3-0.2,0.6-0.5,1-0.5c0.2,0,0.4-0.2,0.5-0.4C217.2,232.3,217.4,232.2,217.7,232.1z"/>
		<path class="st58" d="M217.6,232.4c0,0,0-0.1,0.1-0.1c0.1,0,0.1,0,0.2-0.1c-0.1,0.4-0.5,0.6-0.8,0.7c-0.2,0.1-0.4,0.1-0.6,0.1
			c0.1-0.1,0.2-0.1,0.3-0.2C217.1,232.8,217.4,232.7,217.6,232.4z"/>
		<path class="st37" d="M207,238.4C207,238.4,207,238.3,207,238.4c-0.1-0.1-0.1-0.2,0-0.2c0,0,0.1,0,0.1,0.1
			C207.1,238.3,207.1,238.4,207,238.4z"/>
		<path class="st49" d="M209.7,232.5c-0.1,0.1-0.2,0.1-0.3,0c0,0,0-0.1,0-0.1C209.6,232.4,209.6,232.4,209.7,232.5z"/>
		<path class="st59" d="M217.6,232.4c-0.1,0.3-0.5,0.5-0.8,0.5C217.1,232.7,217.3,232.6,217.6,232.4z"/>
	</g>
</g>
</svg>
