<svg xmlns="http://www.w3.org/2000/svg" xmlns:xlink="http://www.w3.org/1999/xlink" viewBox="0 0 1094 863"><defs><style>.cls-1,.cls-7,.cls-8{fill:none;}.cls-2{isolation:isolate;}.cls-3{clip-path:url(#clip-path);}.cls-4{fill:#fff;}.cls-5{fill:#e3e3e3;}.cls-6{fill:#c8c8c8;}.cls-7{stroke:#c8c8c8;stroke-width:2px;}.cls-7,.cls-8{stroke-miterlimit:10;}.cls-8{stroke:#000;stroke-width:3px;}.cls-9{fill:#050303;}.cls-10{fill:#ecbc96;}.cls-11{fill:#d5eada;}.cls-12{fill:#afc6b3;}.cls-13{fill:#2c364e;}.cls-14{fill:#edba91;}.cls-15{fill:#e3ad7f;}.cls-16{fill:#e7af84;}.cls-17{fill:#e29c72;}.cls-18{fill:#db9b6e;}.cls-19{fill:#d68e5f;}.cls-20{fill:#622d02;}.cls-21{fill:#612a01;}.cls-22{fill:#723701;}.cls-23{fill:#5f2c01;}.cls-24{fill:#602e03;}.cls-25{fill:#e6e6e6;mix-blend-mode:multiply;}.cls-26{fill:#f9f9f9;}.cls-27{fill:#f8f7f9;}.cls-28{font-size:40px;font-family:Poppins-Bold, Poppins;font-weight:700;}.cls-29{font-size:16px;font-family:WorkSans-Regular, Work Sans;}.cls-30{letter-spacing:0.63em;}.cls-31{letter-spacing:-0.02em;}.cls-32{letter-spacing:-0.01em;}.cls-33{letter-spacing:-0.01em;}.cls-34{letter-spacing:0em;}.cls-35{letter-spacing:0.63em;}.cls-36{letter-spacing:-0.01em;}.cls-37{letter-spacing:-0.01em;}.cls-38{letter-spacing:-0.01em;}.cls-39{letter-spacing:-0.03em;}.cls-40{letter-spacing:0.39em;}.cls-41{letter-spacing:0.39em;}.cls-42{letter-spacing:0em;}.cls-43{letter-spacing:-0.02em;}.cls-44{letter-spacing:0.39em;}.cls-45{letter-spacing:-0.03em;}.cls-46{letter-spacing:0.04em;}.cls-47{letter-spacing:-0.03em;}.cls-48{letter-spacing:0.04em;}.cls-49{letter-spacing:0.04em;}.cls-50{letter-spacing:0em;}.cls-51{letter-spacing:0.25em;}.cls-52{letter-spacing:0.25em;}.cls-53{letter-spacing:0.25em;}.cls-54{letter-spacing:-0.03em;}.cls-55{letter-spacing:-0.04em;}</style><clipPath id="clip-path"><rect class="cls-1" x="-3.5" width="1065" height="864"/></clipPath></defs><g class="cls-2"><g id="ilustracion_recuerda" data-name="ilustracion recuerda"><g class="cls-3"><path class="cls-4" d="M380.77,759.72,399.21,1055H141.37l32-233.06L133.6,657.1l123.76-52.6L370.71,649l34.69,17.32A32,32,0,0,1,422,686.65l43.86,217.63-59.48,11.88Z"/><path class="cls-4" d="M142.23,757.82l-18.44,295.29H381.63L370.45,666.57,268.13,653.31,133.6,657.1l-16,7.33A32,32,0,0,0,101,684.76L57.13,902.39l59.48,11.87Z"/><ellipse class="cls-5" cx="188.73" cy="727.02" rx="18.15" ry="19.17" transform="translate(-155.13 59.24) rotate(-12.69)"/><ellipse class="cls-6" cx="184.77" cy="726.15" rx="14.52" ry="15.52" transform="translate(-158.28 60) rotate(-12.97)"/><polygon class="cls-6" points="176.53 700.94 180.05 700.04 183.17 712.43 179.66 713.33 176.53 700.94"/><path class="cls-7" d="M317.92,727l-4.13,72.65s-.81,19,12,25.2"/><path class="cls-7" d="M362.15,722.77l10.4,74.41s2.43,19.52-10.94,26.56"/><path class="cls-8" d="M178.73,702.26s.42-71.7,38.63-89c30.26-13.69,68.79-13,94.92,11.18a74.36,74.36,0,0,1,20.91,35.33c2.76,10.16,6.31,25,6.64,35.24"/><path class="cls-8" d="M317.71,729.85s-9.39-37.16,21-35.51c-.09-.1,23-7.55,24.32,29.58"/><path class="cls-9" d="M358.42,819.87A12.26,12.26,0,0,0,354,821.3c-1.3.88-2.18,2.64-1.5,4.06a3.27,3.27,0,0,0,2.46,1.66,9.29,9.29,0,0,0,3.06-.17,24.47,24.47,0,0,0,5.2-1.31,9.15,9.15,0,0,0,4.22-3.2,2,2,0,0,0,.37-.81c.16-1.26-1.25-3.78-2.53-3.79-1,0-2.42.92-3.37,1.22A34.71,34.71,0,0,1,358.42,819.87Z"/><path class="cls-9" d="M321.33,824.51a15,15,0,0,0,2.31,2c2.07,1.34,4.63,1.59,7.09,1.68a9.28,9.28,0,0,0,3.28-.3,3.5,3.5,0,0,0,2.32-2.19c.48-1.71-.92-3.48-2.56-4.13-3-1.19-6.28-.45-9.35-1.73S318.75,822,321.33,824.51Z"/><polygon class="cls-10" points="237.62 583.05 232.18 621.4 264.84 630.53 290.25 634.18 293.88 588.53 237.62 583.05"/><polygon class="cls-11" points="225.26 600.63 218.54 636.52 266.05 820.58 320.38 637.83 305.07 600.03 268.56 620.92 225.26 600.63"/><polygon class="cls-12" points="231.19 662.39 265.33 645.34 298.71 663.99 266.51 622.95 231.19 662.39"/><path class="cls-13" d="M266.51,623l-25.44,27,16.25,16.22A12.85,12.85,0,0,1,261,676l-6.82,103.64L266.58,824l13.56-49.08L273,677.07a12.37,12.37,0,0,1,2.06-7.8L287.45,650Z"/><path class="cls-14" d="M201.88,473.49l-.43-8.27c-.15-2.91,0-6-1.5-8.64-4.19-7.19-13.11-5.06-18.12-.1s-5,11-3.56,17.39c1.35,6,4.66,9.84,10.67,11.6a9.2,9.2,0,0,0,11.16-6.37,2.56,2.56,0,0,0,.05-.27A8.18,8.18,0,0,0,201.88,473.49Z"/><path class="cls-15" d="M197.49,466.7a15.38,15.38,0,0,0-.65-4.88,2.88,2.88,0,0,0-1.9-1.91l-.13,0c.11-1,.2-2,.21-3a5,5,0,0,0-.51-2.73,4.33,4.33,0,0,0-2.57-1.79,8.27,8.27,0,0,0-4.85-.13,12.07,12.07,0,0,0-3.58,2,3.16,3.16,0,0,0-1.12,1.31,2.6,2.6,0,0,0-.13,1.78,2.82,2.82,0,0,0,2.44,2h-.08a6.58,6.58,0,0,1,1,.21h0l.26.16,0,0a3.26,3.26,0,0,1,.31.33c.23.25.45.52.67.78l.2.25.12.16c.18.27.36.54.52.82l.12.23a11.24,11.24,0,0,0-2.52,2,9.91,9.91,0,0,0-2.61,7.54c.53,5.72,4.91,9.77,10.25,11.21a2.73,2.73,0,0,0,3.34-1.91,60.41,60.41,0,0,0,1.21-9.76C197.56,469.79,197.56,468.24,197.49,466.7Z"/><path class="cls-14" d="M327.26,473.49l.42-8.27c.15-2.91,0-6,1.51-8.64,4.18-7.19,13.11-5.06,18.11-.1s5,11,3.56,17.39c-1.35,6-4.65,9.84-10.67,11.6A9.2,9.2,0,0,1,329,479.1c0-.09,0-.18,0-.27A8.07,8.07,0,0,1,327.26,473.49Z"/><path class="cls-15" d="M331.64,466.7a15.38,15.38,0,0,1,.65-4.88,2.88,2.88,0,0,1,1.9-1.91l.13,0a27.86,27.86,0,0,1-.2-3,5,5,0,0,1,.5-2.73,4.33,4.33,0,0,1,2.57-1.79,8.27,8.27,0,0,1,4.85-.13,12.12,12.12,0,0,1,3.59,2,3.14,3.14,0,0,1,1.11,1.31,2.67,2.67,0,0,1,.14,1.78,2.85,2.85,0,0,1-2.45,2h.08a6.58,6.58,0,0,0-1,.21h0l-.25.16,0,0a3.26,3.26,0,0,0-.31.33c-.23.25-.45.52-.67.78l-.2.25-.11.16a8,8,0,0,0-.52.82,2.53,2.53,0,0,0-.12.23,11.42,11.42,0,0,1,2.51,2,9.91,9.91,0,0,1,2.61,7.54c-.53,5.72-4.91,9.77-10.24,11.21a2.75,2.75,0,0,1-3.35-1.91,60.4,60.4,0,0,1-1.2-9.76C331.57,469.79,331.58,468.24,331.64,466.7Z"/><path class="cls-16" d="M266,526.19l-.91,73.95c59.89-9.13,67.15-45.65,67.15-45.65L335,394.71l-68.06,6.39-.9,90.39Z"/><path class="cls-10" d="M196.17,392l-1.82,160.69s12.71,38.35,72.59,47.48V523.45l7.26-1.83-5.44-32.87-1.82-87.65Z"/><path class="cls-17" d="M220.67,405.67a21.22,21.22,0,0,1,7.58,0,51,51,0,0,1,7.21,1.8c2.33.74,4.53,1.57,6.73,2.18a57.35,57.35,0,0,0,6.82,1.45,106.47,106.47,0,0,0,14.14,1c4.77.07,9.67,0,14.45-.06a74.63,74.63,0,0,0,14-1.32c2.25-.47,4.52-1.15,6.87-1.79s4.79-1.3,7.22-1.8c4.87-1,9.77-1.58,14.6-2.13l1.82-.19a12.57,12.57,0,0,1,2.14-.1,4.54,4.54,0,0,1,2.79,1.08,5.49,5.49,0,0,1,1.38,2.2,25.55,25.55,0,0,1,1.66,7.55,1.42,1.42,0,0,1-2.82.31h0a23.2,23.2,0,0,0-2-6.49,2.24,2.24,0,0,0-.55-.85,1.55,1.55,0,0,0-.59-.08c-.73,0-2.11.32-3.27.5-4.78.78-9.5,1.64-14.11,2.75-2.31.56-4.54,1.22-6.84,2s-4.68,1.48-7.17,2.07a75.18,75.18,0,0,1-15,1.67c-4.92.09-9.73.15-14.67.08a101.25,101.25,0,0,1-14.87-1.25,61.39,61.39,0,0,1-7.4-1.7,52.92,52.92,0,0,1-7-2.63C229.32,409.87,225.3,407.66,220.67,405.67Z"/><path class="cls-18" d="M253.21,521.48a.73.73,0,0,1,.76.06l.58.32,1.16.65a15.5,15.5,0,0,0,2.42,1.1,17.71,17.71,0,0,0,5.17.89,23.14,23.14,0,0,0,5.08-.59c1.71-.22,3.31-.82,5.17-1.24h0a.1.1,0,0,1,.12.08.08.08,0,0,1,0,.09,10.61,10.61,0,0,1-4.78,3l-.7.22c-.23.06-.47.08-.71.12a14,14,0,0,1-1.44.13,22.66,22.66,0,0,1-2.86-.22,22.33,22.33,0,0,1-5.38-1.55c-.85-.37-1.72-.7-2.55-1.12a12,12,0,0,1-1.21-.68c-.2-.12-.38-.27-.57-.4a.69.69,0,0,1-.36-.71.16.16,0,0,1,.11-.15Z"/><path class="cls-19" d="M238,592.67c4.54,1.12,8.89,2.78,13.27,4.27,2.19.76,4.38,1.49,6.57,2.16a38.84,38.84,0,0,0,6.59,1.51l.81.08a4.63,4.63,0,0,0,.67-.07c.51-.08,1.06-.22,1.61-.34,1.09-.27,2.2-.59,3.3-.92l6.65-2c1.12-.34,2.27-.62,3.33-1s2.17-.75,3.25-1.15c2.17-.79,4.3-1.71,6.44-2.58a.18.18,0,0,1,.24.09.19.19,0,0,1-.07.23c-2,1.2-4.07,2.26-6.17,3.3-1.05.51-2.12,1-3.22,1.43s-2.21.77-3.29,1.19c-2.17.8-4.36,1.58-6.59,2.3-1.11.35-2.24.69-3.39,1a15.89,15.89,0,0,1-1.8.37,5.65,5.65,0,0,1-1.06.08l-.92-.1a35,35,0,0,1-6.93-1.72c-2.23-.73-4.4-1.59-6.56-2.46-4.32-1.73-8.51-3.73-12.83-5.37h0a.18.18,0,0,1-.1-.23A.17.17,0,0,1,238,592.67Z"/><path class="cls-19" d="M265.4,586.1a2.34,2.34,0,0,0,1.26,0,2.77,2.77,0,0,0,.6-.35l1.43-1a8.08,8.08,0,0,0,2.84-2.85c-.17-.28-.56-.29-.88-.28l-5.07.22c-1.21.05-3.52-.31-4.58.32C258.7,583.48,264.18,585.85,265.4,586.1Z"/><path class="cls-20" d="M188.47,431.45,186.36,412c-1.45-13.36-2.7-27.78,4-39.39a22.36,22.36,0,0,0,2.24-4.31,20,20,0,0,0,.56-5.47c.28-10.32,4.79-22,12.05-29.33s10.35-12.06,18.81-12.5a6.27,6.27,0,0,1,3.07.43c1.63.78,2.46,2.58,3.33,4.18a38.64,38.64,0,0,0,31.05,20.67c13.54,1.3,30.6-2.48,44.12-1a45.56,45.56,0,0,1,10,2.09c4.79,1.67,9.1,4.47,13.26,7.39a40.4,40.4,0,0,1,8.13,6.95c3.44,4.12,2.2,8.42,2.51,13.79,1.4,24.79,3.63,52.95-4.88,76.75-1-14.19-.1-30.19-1.05-44.38a6.76,6.76,0,0,0-.73-3.12c-1.63-2.64-5.59-1.77-8.51-.75a92.43,92.43,0,0,1-24.48,4.41c-6,.27-12,1.69-18,1.94-14.75.62-25.81,1.67-44-.9-4.65-.65-8.7-3.54-13.13-5.08a47.76,47.76,0,0,0-21.31-2.33,4.17,4.17,0,0,0-1.81.52,4.46,4.46,0,0,0-1.55,3c-1.59,7-3.19,15.87-4.36,23-1,6.19,1,18.27-1.38,23.69C190.17,449.18,189,436.3,188.47,431.45Z"/><path class="cls-21" d="M218.23,393.33a40.05,40.05,0,0,1-7.68-3.57c-5.89-3.83-9.41-10.57-10.89-17.46s-1.12-14-.77-21.07c-4.95,4-6.75,10.85-6.78,17.24a21.08,21.08,0,0,0,1.16,7.65,27.91,27.91,0,0,0,4.72,7.33c5.83,7.28,12.27,15,21.24,17.4,1.92.52,9.9,1.66,10.21-1.58C229.74,396.19,220.29,394.12,218.23,393.33Z"/><path class="cls-22" d="M216.62,363.57c1,14.09,6.56,29,18.75,36q-7-2.34-13.91-5c-6.39-2.46-12.93-5.29-17.48-10.43-3.61-4.08-5.67-9.33-6.8-14.66-2.13-10.17-.92-21.17,4.22-30.18,2.08-3.65,21.27-23.28,22.15-12.35.38,4.73-4.65,12.05-5.69,17A71.29,71.29,0,0,0,216.62,363.57Z"/><path class="cls-23" d="M218.39,444.61l5.79-5,2.9-2.5a13.09,13.09,0,0,1,1.59-1.24,17.21,17.21,0,0,1,1.81-1.07,15.15,15.15,0,0,1,4.06-1.41,14.25,14.25,0,0,1,2.21-.23,15.14,15.14,0,0,1,2.07.11c1.31.19,2.62.22,3.92.54a8.26,8.26,0,0,1,1.95.55,4.21,4.21,0,0,1,.93.58,2.12,2.12,0,0,1,.65,1.41.74.74,0,0,1-.27.63l-.12.1a3.48,3.48,0,0,1-1.13.72,1.5,1.5,0,0,1-.45.07l-.45,0a9.91,9.91,0,0,1-1.79-.2c-1.2-.12-2.41-.42-3.62-.49l-1.74-.14a9.36,9.36,0,0,0-1.57.06,13.25,13.25,0,0,0-3.2.83,15.51,15.51,0,0,0-1.55.72c-.5.27-1,.58-1.55.9l-3.32,1.91-6.63,3.81a.41.41,0,0,1-.57-.15A.42.42,0,0,1,218.39,444.61Z"/><path class="cls-23" d="M309.13,445.29l-6.63-3.81-3.32-1.91c-.58-.32-1.05-.63-1.55-.9a15.51,15.51,0,0,0-1.55-.72,13.25,13.25,0,0,0-3.2-.83,9.36,9.36,0,0,0-1.57-.06l-1.74.14c-1.21.07-2.42.37-3.62.49a10,10,0,0,1-1.79.2l-.45,0a1.5,1.5,0,0,1-.45-.07,3.48,3.48,0,0,1-1.13-.72L282,437a.72.72,0,0,1-.27-.63,2.17,2.17,0,0,1,.64-1.41,4.51,4.51,0,0,1,.94-.58,8.26,8.26,0,0,1,1.95-.55c1.3-.32,2.61-.35,3.92-.54a15.14,15.14,0,0,1,2.07-.11,14.25,14.25,0,0,1,2.21.23,15.15,15.15,0,0,1,4.06,1.41,17.21,17.21,0,0,1,1.81,1.07,13.09,13.09,0,0,1,1.59,1.24l2.9,2.5,5.79,5a.42.42,0,0,1,0,.59A.42.42,0,0,1,309.13,445.29Z"/><path class="cls-24" d="M239.07,455.38a10.32,10.32,0,0,1,4,5.23,13.3,13.3,0,0,1,1,8,3.68,3.68,0,0,1-1.5,2.45,4.55,4.55,0,0,1-2,.45c-2.76.18-5.53.22-8.29.13a4.69,4.69,0,0,1-1.35-.19c-1.57-.57-2-2.56-2.21-4.22l-.27-2.29a1.47,1.47,0,0,1,.21-1.19,1.41,1.41,0,0,1,.83-.34,15.69,15.69,0,0,0,2.89-.55,3.46,3.46,0,0,0,2.15-1.89c.72-2-2-3.89-1-5.41S237.83,454.67,239.07,455.38Z"/><path class="cls-24" d="M293.51,455.38a10.32,10.32,0,0,1,4,5.23,13.38,13.38,0,0,1,1,8,3.73,3.73,0,0,1-1.51,2.45,4.52,4.52,0,0,1-2,.45c-2.76.18-5.53.22-8.29.13a4.69,4.69,0,0,1-1.35-.19c-1.57-.57-2-2.56-2.2-4.22L283,465a1.47,1.47,0,0,1,.2-1.19,1.44,1.44,0,0,1,.83-.34,15.69,15.69,0,0,0,2.89-.55A3.41,3.41,0,0,0,289,461c.72-2-2-3.89-1-5.41S292.28,454.67,293.51,455.38Z"/><ellipse class="cls-24" cx="266.94" cy="556.32" rx="12.7" ry="18.26"/><path class="cls-25" d="M949.88,357.11h-546l-36.14,37.46V111.81c0-8.64,6.54-15.65,14.61-15.65H949.88c8.07,0,14.61,7,14.61,15.65V341.45C964.49,350.1,958,357.11,949.88,357.11Z"/><path class="cls-11" d="M936.72,339.66h-546L354.6,377.12V94.36c0-8.64,6.54-15.65,14.61-15.65H936.72c8.07,0,14.61,7,14.61,15.65V324C951.33,332.65,944.79,339.66,936.72,339.66Z"/><rect class="cls-25" x="380.45" y="70.35" width="605.12" height="263.29" rx="15.37"/><rect class="cls-4" x="363.77" y="61.57" width="616.34" height="263.29" rx="15.37"/><path class="cls-11" d="M995.47,358.36a3.63,3.63,0,1,1-5.13-.23A3.63,3.63,0,0,1,995.47,358.36Z"/><path class="cls-4" d="M1009.68,343.49a3.63,3.63,0,1,1-5.13-.23A3.62,3.62,0,0,1,1009.68,343.49Z"/><circle class="cls-11" cx="982.81" cy="332.47" r="7.26" transform="translate(604.49 1298.56) rotate(-87.31)"/><circle class="cls-11" cx="980.22" cy="296.5" r="17.6" transform="translate(-19.25 73.33) rotate(-4.24)"/><circle class="cls-26" cx="956.93" cy="346.62" r="17.75" transform="translate(546.25 1277.86) rotate(-86.11)"/><ellipse class="cls-11" cx="357.3" cy="78.44" rx="28.82" ry="29.35" transform="translate(89.68 327.83) rotate(-55.36)"/><circle class="cls-25" cx="329.72" cy="120.56" r="33.49"/><path class="cls-11" d="M316.06,65.74A7.31,7.31,0,1,1,305.9,67.6,7.31,7.31,0,0,1,316.06,65.74Z"/><path class="cls-11" d="M295.85,81.59a3.65,3.65,0,1,1-5.08.93A3.66,3.66,0,0,1,295.85,81.59Z"/><path class="cls-4" d="M337.05,104.85a3.65,3.65,0,1,1-5.08.93A3.66,3.66,0,0,1,337.05,104.85Z"/><circle class="cls-27" cx="323.57" cy="118.03" r="33.49"/><text class="cls-28" transform="translate(396.93 140.99)">¿Qué es la criptococosis? </text><text class="cls-29" transform="translate(420.07 184.97)">Es<tspan class="cls-30" x="18.64" y="0"> </tspan><tspan x="34.23" y="0">un</tspan><tspan class="cls-31" x="54.03" y="0">a</tspan><tspan class="cls-30" x="62.72" y="0"> </tspan><tspan x="78.31" y="0">e</tspan><tspan class="cls-32" x="87.6" y="0">n</tspan><tspan class="cls-33" x="97.4" y="0">f</tspan><tspan class="cls-34" x="103.46" y="0">ermedad</tspan><tspan class="cls-35" x="173.04" y="0"> </tspan><tspan x="188.63" y="0">i</tspan><tspan class="cls-32" x="192.88" y="0">n</tspan><tspan class="cls-36" x="202.67" y="0">f</tspan><tspan x="208.74" y="0">eccios</tspan><tspan class="cls-31" x="258.5" y="0">a</tspan><tspan class="cls-30" x="267.18" y="0"> </tspan><tspan x="282.77" y="0">p</tspan><tspan class="cls-37" x="292.85" y="0">o</tspan><tspan x="302.44" y="0">tencialme</tspan><tspan class="cls-38" x="380.11" y="0">n</tspan><tspan x="389.91" y="0">te</tspan><tspan class="cls-30" x="405.91" y="0"> </tspan><tspan x="421.49" y="0">mo</tspan><tspan class="cls-39" x="446.47" y="0">r</tspan><tspan x="452.52" y="0">tal, </tspan><tspan x="0" y="21">adquirid</tspan><tspan class="cls-31" x="64.25" y="21">a</tspan><tspan class="cls-40" x="72.94" y="21"> </tspan><tspan x="84.65" y="21">po</tspan><tspan class="cls-31" x="104.46" y="21">r</tspan><tspan class="cls-41" x="110.62" y="21"> </tspan><tspan class="cls-42" x="122.34" y="21">l</tspan><tspan class="cls-43" x="127.23" y="21">a</tspan><tspan class="cls-40" x="135.92" y="21"> </tspan><tspan x="147.63" y="21">inhalación</tspan><tspan class="cls-44" x="227.61" y="21"> </tspan><tspan x="239.32" y="21">de</tspan><tspan class="cls-40" x="258.7" y="21"> </tspan><tspan x="270.41" y="21">pa</tspan><tspan class="cls-45" x="289.55" y="21">r</tspan><tspan x="295.59" y="21">tículas</tspan><tspan class="cls-40" x="347.87" y="21"> </tspan><tspan x="359.58" y="21">i</tspan><tspan class="cls-32" x="363.83" y="21">n</tspan><tspan class="cls-36" x="373.63" y="21">f</tspan><tspan class="cls-42" x="379.69" y="21">ecta</tspan><tspan class="cls-32" x="413.77" y="21">n</tspan><tspan x="423.56" y="21">tes</tspan><tspan class="cls-40" x="448" y="21"> </tspan><tspan x="459.71" y="21">se </tspan><tspan x="0" y="42">encue</tspan><tspan class="cls-32" x="47.42" y="42">n</tspan><tspan class="cls-42" x="57.22" y="42">t</tspan><tspan class="cls-36" x="63.92" y="42">r</tspan><tspan x="70.22" y="42">an</tspan><tspan class="cls-46" x="89.18" y="42"> </tspan><tspan x="95.34" y="42">en</tspan><tspan class="cls-46" x="114.54" y="42"> </tspan><tspan x="120.69" y="42">e</tspan><tspan class="cls-47" x="129.99" y="42">l</tspan><tspan class="cls-48" x="134.32" y="42"> </tspan><tspan x="140.48" y="42">ambie</tspan><tspan class="cls-38" x="188.41" y="42">n</tspan><tspan class="cls-34" x="198.2" y="42">te,</tspan><tspan class="cls-48" x="218.46" y="42"> </tspan><tspan x="224.61" y="42">que</tspan><tspan class="cls-49" x="253.91" y="42"> </tspan><tspan class="cls-50" x="260.06" y="42">a</tspan><tspan class="cls-36" x="269.04" y="42">f</tspan><tspan class="cls-42" x="275.1" y="42">ect</tspan><tspan class="cls-43" x="300.13" y="42">a</tspan><tspan class="cls-46" x="308.81" y="42"> </tspan><tspan x="314.97" y="42">principalme</tspan><tspan class="cls-38" x="407.59" y="42">n</tspan><tspan x="417.38" y="42">te</tspan><tspan class="cls-46" x="433.38" y="42"> </tspan><tspan class="cls-43" x="439.53" y="42">a</tspan><tspan class="cls-49" x="448.22" y="42"> </tspan><tspan class="cls-34" x="454.38" y="42">los </tspan><tspan x="0" y="63">individuos</tspan><tspan class="cls-51" x="79.21" y="63"> </tspan><tspan x="88.67" y="63">inmunosuprimidos,</tspan><tspan class="cls-51" x="238.81" y="63"> </tspan><tspan x="248.26" y="63">especialme</tspan><tspan class="cls-32" x="337.14" y="63">n</tspan><tspan class="cls-42" x="346.93" y="63">te</tspan><tspan class="cls-52" x="362.93" y="63"> </tspan><tspan class="cls-34" x="372.38" y="63">aquellos</tspan><tspan class="cls-53" x="438.68" y="63"> </tspan><tspan x="448.13" y="63">que </tspan><tspan x="0" y="84">viven con e</tspan><tspan class="cls-47" x="88.96" y="84">l</tspan><tspan class="cls-54" x="93.29" y="84"> </tspan><tspan x="98.21" y="84">VIH</tspan><tspan class="cls-55" x="125.06" y="84">/</tspan><tspan x="131.5" y="84">sida.</tspan></text></g></g></g></svg>