<svg xmlns="http://www.w3.org/2000/svg" xmlns:xlink="http://www.w3.org/1999/xlink" viewBox="0 0 1094 863"><defs><style>.cls-1,.cls-7,.cls-8{fill:none;}.cls-2{isolation:isolate;}.cls-3{clip-path:url(#clip-path);}.cls-4{fill:#fff;}.cls-5{fill:#e3e3e3;}.cls-6{fill:#c8c8c8;}.cls-7{stroke:#c8c8c8;stroke-width:2px;}.cls-7,.cls-8{stroke-miterlimit:10;}.cls-8{stroke:#000;stroke-width:3px;}.cls-9{fill:#050303;}.cls-10{fill:#ecbc96;}.cls-11{fill:#d5eada;}.cls-12{fill:#afc6b3;}.cls-13{fill:#2c364e;}.cls-14{fill:#edba91;}.cls-15{fill:#e3ad7f;}.cls-16{fill:#e7af84;}.cls-17{fill:#e29c72;}.cls-18{fill:#db9b6e;}.cls-19{fill:#d68e5f;}.cls-20{fill:#622d02;}.cls-21{fill:#612a01;}.cls-22{fill:#723701;}.cls-23{fill:#5f2c01;}.cls-24{fill:#602e03;}.cls-25{fill:#e6e6e6;mix-blend-mode:multiply;}.cls-26{fill:#f9f9f9;}.cls-27{fill:#f8f7f9;}</style><clipPath id="clip-path"><rect class="cls-1" x="0.5" y="2" width="1065" height="864"/></clipPath></defs><g class="cls-2"><g id="CRIPTOCOCOSIS"><g class="cls-3"><path class="cls-4" d="M384.77,761.72,403.21,1057H145.37l32-233.06L137.6,659.1l123.76-52.6L374.71,651l34.69,17.32A32,32,0,0,1,426,688.65l43.86,217.63-59.48,11.88Z"/><path class="cls-4" d="M146.23,759.82l-18.44,295.29H385.63L374.45,668.57,272.13,655.31,137.6,659.1l-16,7.33A32,32,0,0,0,105,686.76L61.13,904.39l59.48,11.87Z"/><ellipse class="cls-5" cx="192.73" cy="729.02" rx="18.15" ry="19.17" transform="translate(-155.47 60.16) rotate(-12.69)"/><ellipse class="cls-6" cx="188.77" cy="728.15" rx="14.52" ry="15.52" transform="translate(-158.63 60.95) rotate(-12.97)"/><polygon class="cls-6" points="180.53 702.94 184.05 702.04 187.17 714.43 183.66 715.33 180.53 702.94"/><path class="cls-7" d="M321.92,729l-4.13,72.65s-.81,19,12,25.2"/><path class="cls-7" d="M366.15,724.77l10.4,74.41s2.43,19.52-10.94,26.56"/><path class="cls-8" d="M182.73,704.26s.42-71.7,38.63-89c30.26-13.69,68.79-13,94.92,11.18a74.36,74.36,0,0,1,20.91,35.33c2.76,10.16,6.31,25,6.64,35.24"/><path class="cls-8" d="M321.71,731.85s-9.39-37.16,21-35.51c-.09-.1,23-7.55,24.32,29.58"/><path class="cls-9" d="M362.42,821.87A12.26,12.26,0,0,0,358,823.3c-1.3.88-2.18,2.64-1.5,4.06a3.27,3.27,0,0,0,2.46,1.66,9.29,9.29,0,0,0,3.06-.17,24.47,24.47,0,0,0,5.2-1.31,9.15,9.15,0,0,0,4.22-3.2,2,2,0,0,0,.37-.81c.16-1.26-1.25-3.78-2.53-3.79-1,0-2.42.92-3.37,1.22A34.71,34.71,0,0,1,362.42,821.87Z"/><path class="cls-9" d="M325.33,826.51a15,15,0,0,0,2.31,2c2.07,1.34,4.63,1.59,7.09,1.68a9.28,9.28,0,0,0,3.28-.3,3.5,3.5,0,0,0,2.32-2.19c.48-1.71-.92-3.48-2.56-4.13-3-1.19-6.28-.45-9.35-1.73S322.75,824,325.33,826.51Z"/><polygon class="cls-10" points="241.62 585.05 236.18 623.4 268.84 632.53 294.25 636.18 297.88 590.53 241.62 585.05"/><polygon class="cls-11" points="229.26 602.63 222.54 638.52 270.05 822.58 324.38 639.83 309.07 602.03 272.56 622.92 229.26 602.63"/><polygon class="cls-12" points="235.19 664.39 269.33 647.34 302.71 665.99 270.51 624.95 235.19 664.39"/><path class="cls-13" d="M270.51,625l-25.44,27,16.25,16.22A12.85,12.85,0,0,1,265,678l-6.82,103.64L270.58,826l13.56-49.08L277,679.07a12.37,12.37,0,0,1,2.06-7.8L291.45,652Z"/><path class="cls-14" d="M205.88,475.49l-.43-8.27c-.15-2.91,0-6-1.5-8.64-4.19-7.19-13.11-5.06-18.12-.1s-5,11-3.56,17.39c1.35,6,4.66,9.84,10.67,11.6a9.2,9.2,0,0,0,11.16-6.37,2.56,2.56,0,0,0,.05-.27A8.18,8.18,0,0,0,205.88,475.49Z"/><path class="cls-15" d="M201.49,468.7a15.38,15.38,0,0,0-.65-4.88,2.88,2.88,0,0,0-1.9-1.91l-.13,0c.11-1,.2-2,.21-3a5,5,0,0,0-.51-2.73,4.33,4.33,0,0,0-2.57-1.79,8.27,8.27,0,0,0-4.85-.13,12.07,12.07,0,0,0-3.58,2,3.16,3.16,0,0,0-1.12,1.31,2.6,2.6,0,0,0-.13,1.78,2.82,2.82,0,0,0,2.44,2h-.08a6.58,6.58,0,0,1,1,.21h0l.26.16,0,0a3.26,3.26,0,0,1,.31.33c.23.25.45.52.67.78l.2.25.12.16c.18.27.36.54.52.82l.12.23a11.24,11.24,0,0,0-2.52,2,9.91,9.91,0,0,0-2.61,7.54c.53,5.72,4.91,9.77,10.25,11.21a2.73,2.73,0,0,0,3.34-1.91,60.41,60.41,0,0,0,1.21-9.76C201.56,471.79,201.56,470.24,201.49,468.7Z"/><path class="cls-14" d="M331.26,475.49l.42-8.27c.15-2.91,0-6,1.51-8.64,4.18-7.19,13.11-5.06,18.11-.1s5,11,3.56,17.39c-1.35,6-4.65,9.84-10.67,11.6A9.2,9.2,0,0,1,333,481.1c0-.09,0-.18,0-.27A8.07,8.07,0,0,1,331.26,475.49Z"/><path class="cls-15" d="M335.64,468.7a15.38,15.38,0,0,1,.65-4.88,2.88,2.88,0,0,1,1.9-1.91l.13,0a27.86,27.86,0,0,1-.2-3,5,5,0,0,1,.5-2.73,4.33,4.33,0,0,1,2.57-1.79,8.27,8.27,0,0,1,4.85-.13,12.12,12.12,0,0,1,3.59,2,3.14,3.14,0,0,1,1.11,1.31,2.67,2.67,0,0,1,.14,1.78,2.85,2.85,0,0,1-2.45,2h.08a6.58,6.58,0,0,0-1,.21h0l-.25.16,0,0a3.26,3.26,0,0,0-.31.33c-.23.25-.45.52-.67.78l-.2.25-.11.16a8,8,0,0,0-.52.82,2.53,2.53,0,0,0-.12.23,11.42,11.42,0,0,1,2.51,2,9.91,9.91,0,0,1,2.61,7.54c-.53,5.72-4.91,9.77-10.24,11.21a2.75,2.75,0,0,1-3.35-1.91,60.4,60.4,0,0,1-1.2-9.76C335.57,471.79,335.58,470.24,335.64,468.7Z"/><path class="cls-16" d="M270,528.19l-.91,73.95c59.89-9.13,67.15-45.65,67.15-45.65L339,396.71l-68.06,6.39-.9,90.39Z"/><path class="cls-10" d="M200.17,394l-1.82,160.69s12.71,38.35,72.59,47.48V525.45l7.26-1.83-5.44-32.87-1.82-87.65Z"/><path class="cls-17" d="M224.67,407.67a21.22,21.22,0,0,1,7.58,0,51,51,0,0,1,7.21,1.8c2.33.74,4.53,1.57,6.73,2.18a57.35,57.35,0,0,0,6.82,1.45,106.47,106.47,0,0,0,14.14,1c4.77.07,9.67,0,14.45-.06a74.63,74.63,0,0,0,14-1.32c2.25-.47,4.52-1.15,6.87-1.79s4.79-1.3,7.22-1.8c4.87-1,9.77-1.58,14.6-2.13l1.82-.19a12.57,12.57,0,0,1,2.14-.1,4.54,4.54,0,0,1,2.79,1.08,5.49,5.49,0,0,1,1.38,2.2,25.55,25.55,0,0,1,1.66,7.55,1.42,1.42,0,0,1-2.82.31h0a23.2,23.2,0,0,0-2-6.49,2.24,2.24,0,0,0-.55-.85,1.55,1.55,0,0,0-.59-.08c-.73,0-2.11.32-3.27.5-4.78.78-9.5,1.64-14.11,2.75-2.31.56-4.54,1.22-6.84,2s-4.68,1.48-7.17,2.07a75.18,75.18,0,0,1-15,1.67c-4.92.09-9.73.15-14.67.08a101.25,101.25,0,0,1-14.87-1.25,61.39,61.39,0,0,1-7.4-1.7,52.92,52.92,0,0,1-7-2.63C233.32,411.87,229.3,409.66,224.67,407.67Z"/><path class="cls-18" d="M257.21,523.48a.73.73,0,0,1,.76.06l.58.32,1.16.65a15.5,15.5,0,0,0,2.42,1.1,17.71,17.71,0,0,0,5.17.89,23.14,23.14,0,0,0,5.08-.59c1.71-.22,3.31-.82,5.17-1.24h0a.1.1,0,0,1,.12.08.08.08,0,0,1,0,.09,10.61,10.61,0,0,1-4.78,3l-.7.22c-.23.06-.47.08-.71.12a14,14,0,0,1-1.44.13,22.66,22.66,0,0,1-2.86-.22,22.33,22.33,0,0,1-5.38-1.55c-.85-.37-1.72-.7-2.55-1.12a12,12,0,0,1-1.21-.68c-.2-.12-.38-.27-.57-.4a.69.69,0,0,1-.36-.71.16.16,0,0,1,.11-.15Z"/><path class="cls-19" d="M242,594.67c4.54,1.12,8.89,2.78,13.27,4.27,2.19.76,4.38,1.49,6.57,2.16a38.84,38.84,0,0,0,6.59,1.51l.81.08a4.63,4.63,0,0,0,.67-.07c.51-.08,1.06-.22,1.61-.34,1.09-.27,2.2-.59,3.3-.92l6.65-2c1.12-.34,2.27-.62,3.33-1s2.17-.75,3.25-1.15c2.17-.79,4.3-1.71,6.44-2.58a.18.18,0,0,1,.24.09.19.19,0,0,1-.07.23c-2,1.2-4.07,2.26-6.17,3.3-1.05.51-2.12,1-3.22,1.43s-2.21.77-3.29,1.19c-2.17.8-4.36,1.58-6.59,2.3-1.11.35-2.24.69-3.39,1a15.89,15.89,0,0,1-1.8.37,5.65,5.65,0,0,1-1.06.08l-.92-.1a35,35,0,0,1-6.93-1.72c-2.23-.73-4.4-1.59-6.56-2.46-4.32-1.73-8.51-3.73-12.83-5.37h0a.18.18,0,0,1-.1-.23A.17.17,0,0,1,242,594.67Z"/><path class="cls-19" d="M269.4,588.1a2.34,2.34,0,0,0,1.26,0,2.77,2.77,0,0,0,.6-.35l1.43-1a8.08,8.08,0,0,0,2.84-2.85c-.17-.28-.56-.29-.88-.28l-5.07.22c-1.21.05-3.52-.31-4.58.32C262.7,585.48,268.18,587.85,269.4,588.1Z"/><path class="cls-20" d="M192.47,433.45,190.36,414c-1.45-13.36-2.7-27.78,4-39.39a22.36,22.36,0,0,0,2.24-4.31,20,20,0,0,0,.56-5.47c.28-10.32,4.79-22,12.05-29.33s10.35-12.06,18.81-12.5a6.27,6.27,0,0,1,3.07.43c1.63.78,2.46,2.58,3.33,4.18a38.64,38.64,0,0,0,31.05,20.67c13.54,1.3,30.6-2.48,44.12-1a45.56,45.56,0,0,1,10,2.09c4.79,1.67,9.1,4.47,13.26,7.39a40.4,40.4,0,0,1,8.13,6.95c3.44,4.12,2.2,8.42,2.51,13.79,1.4,24.79,3.63,52.95-4.88,76.75-1-14.19-.1-30.19-1.05-44.38a6.76,6.76,0,0,0-.73-3.12c-1.63-2.64-5.59-1.77-8.51-.75a92.43,92.43,0,0,1-24.48,4.41c-6,.27-12,1.69-18,1.94-14.75.62-25.81,1.67-44-.9-4.65-.65-8.7-3.54-13.13-5.08a47.76,47.76,0,0,0-21.31-2.33,4.17,4.17,0,0,0-1.81.52,4.46,4.46,0,0,0-1.55,3c-1.59,7-3.19,15.87-4.36,23-1,6.19,1,18.27-1.38,23.69C194.17,451.18,193,438.3,192.47,433.45Z"/><path class="cls-21" d="M222.23,395.33a40.05,40.05,0,0,1-7.68-3.57c-5.89-3.83-9.41-10.57-10.89-17.46s-1.12-14-.77-21.07c-4.95,4-6.75,10.85-6.78,17.24a21.08,21.08,0,0,0,1.16,7.65,27.91,27.91,0,0,0,4.72,7.33c5.83,7.28,12.27,15,21.24,17.4,1.92.52,9.9,1.66,10.21-1.58C233.74,398.19,224.29,396.12,222.23,395.33Z"/><path class="cls-22" d="M220.62,365.57c1,14.09,6.56,29,18.75,36q-7-2.34-13.91-5c-6.39-2.46-12.93-5.29-17.48-10.43-3.61-4.08-5.67-9.33-6.8-14.66-2.13-10.17-.92-21.17,4.22-30.18,2.08-3.65,21.27-23.28,22.15-12.35.38,4.73-4.65,12.05-5.69,17A71.29,71.29,0,0,0,220.62,365.57Z"/><path class="cls-23" d="M222.39,446.61l5.79-5,2.9-2.5a13.09,13.09,0,0,1,1.59-1.24,17.21,17.21,0,0,1,1.81-1.07,15.15,15.15,0,0,1,4.06-1.41,14.25,14.25,0,0,1,2.21-.23,15.14,15.14,0,0,1,2.07.11c1.31.19,2.62.22,3.92.54a8.26,8.26,0,0,1,1.95.55,4.21,4.21,0,0,1,.93.58,2.12,2.12,0,0,1,.65,1.41.74.74,0,0,1-.27.63l-.12.1a3.48,3.48,0,0,1-1.13.72,1.5,1.5,0,0,1-.45.07l-.45,0a9.91,9.91,0,0,1-1.79-.2c-1.2-.12-2.41-.42-3.62-.49l-1.74-.14a9.36,9.36,0,0,0-1.57.06,13.25,13.25,0,0,0-3.2.83,15.51,15.51,0,0,0-1.55.72c-.5.27-1,.58-1.55.9l-3.32,1.91-6.63,3.81a.41.41,0,0,1-.57-.15A.42.42,0,0,1,222.39,446.61Z"/><path class="cls-23" d="M313.13,447.29l-6.63-3.81-3.32-1.91c-.58-.32-1.05-.63-1.55-.9a15.51,15.51,0,0,0-1.55-.72,13.25,13.25,0,0,0-3.2-.83,9.36,9.36,0,0,0-1.57-.06l-1.74.14c-1.21.07-2.42.37-3.62.49a10,10,0,0,1-1.79.2l-.45,0a1.5,1.5,0,0,1-.45-.07,3.48,3.48,0,0,1-1.13-.72L286,439a.72.72,0,0,1-.27-.63,2.17,2.17,0,0,1,.64-1.41,4.51,4.51,0,0,1,.94-.58,8.26,8.26,0,0,1,1.95-.55c1.3-.32,2.61-.35,3.92-.54a15.14,15.14,0,0,1,2.07-.11,14.25,14.25,0,0,1,2.21.23,15.15,15.15,0,0,1,4.06,1.41,17.21,17.21,0,0,1,1.81,1.07,13.09,13.09,0,0,1,1.59,1.24l2.9,2.5,5.79,5a.42.42,0,0,1,0,.59A.42.42,0,0,1,313.13,447.29Z"/><path class="cls-24" d="M243.07,457.38a10.32,10.32,0,0,1,4,5.23,13.3,13.3,0,0,1,1,8,3.68,3.68,0,0,1-1.5,2.45,4.55,4.55,0,0,1-2,.45c-2.76.18-5.53.22-8.29.13a4.69,4.69,0,0,1-1.35-.19c-1.57-.57-2-2.56-2.21-4.22l-.27-2.29a1.47,1.47,0,0,1,.21-1.19,1.41,1.41,0,0,1,.83-.34,15.69,15.69,0,0,0,2.89-.55,3.46,3.46,0,0,0,2.15-1.89c.72-2-2-3.89-1-5.41S241.83,456.67,243.07,457.38Z"/><path class="cls-24" d="M297.51,457.38a10.32,10.32,0,0,1,4,5.23,13.38,13.38,0,0,1,1,8,3.73,3.73,0,0,1-1.51,2.45,4.52,4.52,0,0,1-2,.45c-2.76.18-5.53.22-8.29.13a4.69,4.69,0,0,1-1.35-.19c-1.57-.57-2-2.56-2.2-4.22L287,467a1.47,1.47,0,0,1,.2-1.19,1.44,1.44,0,0,1,.83-.34,15.69,15.69,0,0,0,2.89-.55A3.41,3.41,0,0,0,293,463c.72-2-2-3.89-1-5.41S296.28,456.67,297.51,457.38Z"/><ellipse class="cls-24" cx="270.94" cy="558.32" rx="12.7" ry="18.26"/><path class="cls-25" d="M953.88,359.11h-546l-36.14,37.46V113.81c0-8.64,6.54-15.65,14.61-15.65H953.88c8.07,0,14.61,7,14.61,15.65V343.45C968.49,352.1,962,359.11,953.88,359.11Z"/><path class="cls-11" d="M940.72,341.66h-546L358.6,379.12V96.36c0-8.64,6.54-15.65,14.61-15.65H940.72c8.07,0,14.61,7,14.61,15.65V326C955.33,334.65,948.79,341.66,940.72,341.66Z"/><rect class="cls-25" x="384.45" y="72.35" width="605.12" height="263.29" rx="15.37"/><rect class="cls-4" x="367.77" y="63.57" width="616.34" height="263.29" rx="15.37"/><path class="cls-11" d="M999.47,360.36a3.63,3.63,0,1,1-5.13-.23A3.63,3.63,0,0,1,999.47,360.36Z"/><path class="cls-4" d="M1013.68,345.49a3.63,3.63,0,1,1-5.13-.23A3.62,3.62,0,0,1,1013.68,345.49Z"/><circle class="cls-11" cx="986.81" cy="334.47" r="7.26" transform="translate(606.3 1304.46) rotate(-87.31)"/><circle class="cls-11" cx="984.22" cy="298.5" r="17.6" transform="translate(-19.39 73.63) rotate(-4.24)"/><circle class="cls-26" cx="960.93" cy="348.62" r="17.75" transform="translate(547.99 1283.72) rotate(-86.11)"/><ellipse class="cls-11" cx="361.3" cy="80.44" rx="28.82" ry="29.35" transform="translate(89.76 331.99) rotate(-55.36)"/><circle class="cls-25" cx="333.72" cy="122.56" r="33.49"/><path class="cls-11" d="M320.06,67.74A7.31,7.31,0,1,1,309.9,69.6,7.31,7.31,0,0,1,320.06,67.74Z"/><path class="cls-11" d="M299.85,83.59a3.65,3.65,0,1,1-5.08.93A3.66,3.66,0,0,1,299.85,83.59Z"/><path class="cls-4" d="M341.05,106.85a3.65,3.65,0,1,1-5.08.93A3.66,3.66,0,0,1,341.05,106.85Z"/><circle class="cls-27" cx="327.57" cy="120.03" r="33.49"/><path d="M406.29,148.57a7.82,7.82,0,0,1-2.52-6.26,7.52,7.52,0,0,1,2.46-6,9.9,9.9,0,0,1,6.58-2.24v-3.56h6.44v8h-2.68a10,10,0,0,0-4.48.82,3,3,0,0,0-1.6,2.94,2.85,2.85,0,0,0,.76,2.12,2.72,2.72,0,0,0,2,.76,3,3,0,0,0,2.26-.86,3.05,3.05,0,0,0,.82-2.18h6.44a8.34,8.34,0,0,1-1,4.38,7.73,7.73,0,0,1-3.34,3.12,11.77,11.77,0,0,1-5.4,1.14A10,10,0,0,1,406.29,148.57Zm6.16-21.3v-6.84h7.12v6.84Z"/><path d="M444.25,148l-3.68-5a16,16,0,0,1-3.08.32,14.3,14.3,0,0,1-7.22-1.86,13.65,13.65,0,0,1-5.16-5.18,15.63,15.63,0,0,1,0-14.94,13.67,13.67,0,0,1,5.16-5.16,15,15,0,0,1,14.48,0,13.62,13.62,0,0,1,5.14,5.16,14.84,14.84,0,0,1,1.88,7.46,15,15,0,0,1-1.5,6.72,13.64,13.64,0,0,1-4.14,5l6.32,7.48Zm-12.1-13.28a7.56,7.56,0,0,0,10.66,0,9.8,9.8,0,0,0,0-11.84,7.61,7.61,0,0,0-10.68,0,9.87,9.87,0,0,0,0,11.86Z"/><path d="M477.81,120.67V143h-6.88v-4a7.42,7.42,0,0,1-2.86,3.12,8.35,8.35,0,0,1-4.42,1.16,7.71,7.71,0,0,1-6.1-2.56,10.25,10.25,0,0,1-2.26-7v-13h6.8v12.12a5,5,0,0,0,1.18,3.54,4.13,4.13,0,0,0,3.18,1.26,4.22,4.22,0,0,0,3.28-1.32,5.39,5.39,0,0,0,1.2-3.76V120.67Z"/><path d="M503.53,133.07H488.05a5.14,5.14,0,0,0,1.28,3.62,4.14,4.14,0,0,0,3,1.1,4,4,0,0,0,2.52-.76,3.63,3.63,0,0,0,1.32-2h7.24a9.62,9.62,0,0,1-1.92,4.22,10.3,10.3,0,0,1-3.76,2.92,12.84,12.84,0,0,1-10.9-.32,9.84,9.84,0,0,1-4-4,13.68,13.68,0,0,1,0-12.18,9.67,9.67,0,0,1,4-4,13.13,13.13,0,0,1,11.68,0,9.63,9.63,0,0,1,3.9,3.82,11.38,11.38,0,0,1,1.38,5.66A9.73,9.73,0,0,1,503.53,133.07Zm-7.9-6.18a4.37,4.37,0,0,0-3-1.1,4.44,4.44,0,0,0-3.12,1.12,4.65,4.65,0,0,0-1.4,3.28h8.72A4.14,4.14,0,0,0,495.63,126.89Zm2.7-11.94-9.64,4.12v-4.64l9.64-4.64Z"/><path d="M536.29,133.07H520.81a5.14,5.14,0,0,0,1.28,3.62,4.14,4.14,0,0,0,3,1.1,4,4,0,0,0,2.52-.76,3.63,3.63,0,0,0,1.32-2h7.24a9.62,9.62,0,0,1-1.92,4.22,10.3,10.3,0,0,1-3.76,2.92,12.84,12.84,0,0,1-10.9-.32,9.84,9.84,0,0,1-4-4,13.68,13.68,0,0,1,0-12.18,9.67,9.67,0,0,1,4-4,13.13,13.13,0,0,1,11.68,0,9.63,9.63,0,0,1,3.9,3.82,11.38,11.38,0,0,1,1.38,5.66A9.73,9.73,0,0,1,536.29,133.07Zm-7.9-6.18a4.37,4.37,0,0,0-3-1.1,4.44,4.44,0,0,0-3.12,1.12,4.65,4.65,0,0,0-1.4,3.28h8.72A4.14,4.14,0,0,0,528.39,126.89Z"/><path d="M555,122.51a9.23,9.23,0,0,1,3.18,5.6h-6.4a3.57,3.57,0,0,0-1.26-2.14,3.85,3.85,0,0,0-2.46-.78,2.7,2.7,0,0,0-1.76.5,1.74,1.74,0,0,0-.6,1.42,1.66,1.66,0,0,0,1.1,1.56,17.32,17.32,0,0,0,3.46,1,35.71,35.71,0,0,1,4.2,1.22,7,7,0,0,1,2.84,2,5.58,5.58,0,0,1,1.2,3.76,5.8,5.8,0,0,1-1,3.4,6.9,6.9,0,0,1-3,2.32,11.76,11.76,0,0,1-4.64.84,12,12,0,0,1-7.24-2,8.41,8.41,0,0,1-3.32-5.72h6.6a3,3,0,0,0,1.22,2.2,4.56,4.56,0,0,0,2.74.76,2.56,2.56,0,0,0,1.76-.54,1.81,1.81,0,0,0,.6-1.42,1.71,1.71,0,0,0-1.1-1.66,20.5,20.5,0,0,0-3.58-1.06,28.57,28.57,0,0,1-4.08-1.12,6.72,6.72,0,0,1-2.76-1.94,5.36,5.36,0,0,1-1.16-3.66,6,6,0,0,1,2.28-4.86,9.92,9.92,0,0,1,6.44-1.86A10.28,10.28,0,0,1,555,122.51Z"/><path d="M577.09,113.39V143h-6.84v-29.6Z"/><path d="M594.69,121.55a7,7,0,0,1,2.72,3.16v-4h6.8V143h-6.8v-4a7,7,0,0,1-2.72,3.16,8.13,8.13,0,0,1-4.4,1.16,9,9,0,0,1-4.94-1.38,9.42,9.42,0,0,1-3.44-4,15.35,15.35,0,0,1,0-12.18,9.42,9.42,0,0,1,3.44-4,9,9,0,0,1,4.94-1.38A8.13,8.13,0,0,1,594.69,121.55ZM589,127.83a6.64,6.64,0,0,0,0,8,5,5,0,0,0,7.08,0,6.4,6.4,0,0,0,0-7.94,4.67,4.67,0,0,0-3.54-1.46A4.6,4.6,0,0,0,589,127.83Z"/><path d="M634.25,122.77a10.62,10.62,0,0,1,3.68,6.54h-7.24a3.88,3.88,0,0,0-1.32-2.24,3.94,3.94,0,0,0-2.52-.8,3.64,3.64,0,0,0-3,1.42,8,8,0,0,0,0,8.28,3.64,3.64,0,0,0,3,1.42,3.94,3.94,0,0,0,2.52-.8,3.88,3.88,0,0,0,1.32-2.24h7.24a10.62,10.62,0,0,1-3.68,6.54,11.07,11.07,0,0,1-7.24,2.38,12,12,0,0,1-5.82-1.38,9.84,9.84,0,0,1-4-4,13.68,13.68,0,0,1,0-12.18,9.67,9.67,0,0,1,4-4,12.08,12.08,0,0,1,5.84-1.38A11.07,11.07,0,0,1,634.25,122.77Z"/><path d="M651.63,121.63a8.39,8.39,0,0,1,4.38-1.2v7.32h-2a6.77,6.77,0,0,0-4.22,1.16,4.66,4.66,0,0,0-1.5,3.92V143h-6.84V120.67h6.84v4.2A9.65,9.65,0,0,1,651.63,121.63Z"/><path d="M659.37,111.81a4.8,4.8,0,0,1,5.92,0,3.36,3.36,0,0,1,1.12,2.58,3.32,3.32,0,0,1-1.12,2.54,4.8,4.8,0,0,1-5.92,0,3.29,3.29,0,0,1-1.12-2.54A3.33,3.33,0,0,1,659.37,111.81Zm6.36,8.86V143h-6.84V120.67Z"/><path d="M689.3,121.77a9.44,9.44,0,0,1,3.45,4,15.46,15.46,0,0,1,0,12.18,9.44,9.44,0,0,1-3.45,4,9,9,0,0,1-4.93,1.38,8.14,8.14,0,0,1-4.41-1.16,6.7,6.7,0,0,1-2.67-3.16v14.68h-6.84v-33h6.84v4a6.7,6.7,0,0,1,2.67-3.16,8.14,8.14,0,0,1,4.41-1.16A9,9,0,0,1,689.3,121.77Zm-10.68,6.08a6.44,6.44,0,0,0,0,7.94,5,5,0,0,0,7.09,0,6.68,6.68,0,0,0,0-8,4.63,4.63,0,0,0-3.54-1.44A4.67,4.67,0,0,0,678.62,127.85Z"/><path d="M710.21,137.11V143h-3.09a8.85,8.85,0,0,1-6.09-1.94q-2.19-1.94-2.19-6.42v-8.2h-3v-5.76h3v-5.48h6.85v5.48h4.48v5.76h-4.48v8.32a2,2,0,0,0,2.35,2.36Z"/><path d="M730.42,121.77a10.12,10.12,0,0,1,4.12,4,13.07,13.07,0,0,1,0,12.16,10.12,10.12,0,0,1-4.12,4,12.51,12.51,0,0,1-5.94,1.38,12.68,12.68,0,0,1-6-1.38,10.11,10.11,0,0,1-4.14-4,13.07,13.07,0,0,1,0-12.16,10.11,10.11,0,0,1,4.14-4,12.68,12.68,0,0,1,6-1.38A12.51,12.51,0,0,1,730.42,121.77Zm-9.24,6a5.77,5.77,0,0,0-1.34,4.1,5.68,5.68,0,0,0,1.34,4.08,4.42,4.42,0,0,0,3.3,1.4,4.33,4.33,0,0,0,3.28-1.4,5.72,5.72,0,0,0,1.32-4.08,5.81,5.81,0,0,0-1.32-4.1,4.28,4.28,0,0,0-3.28-1.42A4.37,4.37,0,0,0,721.18,127.73Z"/><path d="M756.92,122.77a10.52,10.52,0,0,1,3.68,6.54h-7.24a3.78,3.78,0,0,0-1.32-2.24,3.9,3.9,0,0,0-2.52-.8,3.65,3.65,0,0,0-3,1.42,8,8,0,0,0,0,8.28,3.65,3.65,0,0,0,3,1.42,3.9,3.9,0,0,0,2.52-.8,3.78,3.78,0,0,0,1.32-2.24h7.24a10.52,10.52,0,0,1-3.68,6.54,11.05,11.05,0,0,1-7.24,2.38,12,12,0,0,1-5.82-1.38,9.9,9.9,0,0,1-4-4,12.34,12.34,0,0,1-1.44-6.08,12.53,12.53,0,0,1,1.42-6.1,9.79,9.79,0,0,1,4-4,12.14,12.14,0,0,1,5.84-1.38A11.05,11.05,0,0,1,756.92,122.77Z"/><path d="M780.54,121.77a10.12,10.12,0,0,1,4.12,4,13.07,13.07,0,0,1,0,12.16,10.12,10.12,0,0,1-4.12,4,12.51,12.51,0,0,1-5.94,1.38,12.68,12.68,0,0,1-6-1.38,10.11,10.11,0,0,1-4.14-4,13.07,13.07,0,0,1,0-12.16,10.11,10.11,0,0,1,4.14-4,12.68,12.68,0,0,1,6-1.38A12.51,12.51,0,0,1,780.54,121.77Zm-9.24,6a5.77,5.77,0,0,0-1.34,4.1,5.68,5.68,0,0,0,1.34,4.08,4.42,4.42,0,0,0,3.3,1.4,4.33,4.33,0,0,0,3.28-1.4,5.72,5.72,0,0,0,1.32-4.08,5.81,5.81,0,0,0-1.32-4.1,4.28,4.28,0,0,0-3.28-1.42A4.37,4.37,0,0,0,771.3,127.73Z"/><path d="M807,122.77a10.52,10.52,0,0,1,3.68,6.54h-7.24a3.78,3.78,0,0,0-1.32-2.24,3.9,3.9,0,0,0-2.52-.8,3.65,3.65,0,0,0-3,1.42,8,8,0,0,0,0,8.28,3.65,3.65,0,0,0,3,1.42,3.9,3.9,0,0,0,2.52-.8,3.78,3.78,0,0,0,1.32-2.24h7.24a10.52,10.52,0,0,1-3.68,6.54,11.05,11.05,0,0,1-7.24,2.38,12,12,0,0,1-5.82-1.38,9.9,9.9,0,0,1-4-4,12.34,12.34,0,0,1-1.44-6.08,12.53,12.53,0,0,1,1.42-6.1,9.79,9.79,0,0,1,4-4,12.14,12.14,0,0,1,5.84-1.38A11.05,11.05,0,0,1,807,122.77Z"/><path d="M830.66,121.77a10.12,10.12,0,0,1,4.12,4,13.07,13.07,0,0,1,0,12.16,10.12,10.12,0,0,1-4.12,4,12.51,12.51,0,0,1-5.94,1.38,12.68,12.68,0,0,1-6-1.38,10.11,10.11,0,0,1-4.14-4,13.07,13.07,0,0,1,0-12.16,10.11,10.11,0,0,1,4.14-4,12.68,12.68,0,0,1,6-1.38A12.51,12.51,0,0,1,830.66,121.77Zm-9.24,6a5.77,5.77,0,0,0-1.34,4.1,5.68,5.68,0,0,0,1.34,4.08,4.42,4.42,0,0,0,3.3,1.4,4.33,4.33,0,0,0,3.28-1.4,5.72,5.72,0,0,0,1.32-4.08,5.81,5.81,0,0,0-1.32-4.1,4.28,4.28,0,0,0-3.28-1.42A4.37,4.37,0,0,0,821.42,127.73Z"/><path d="M854.74,122.51a9.14,9.14,0,0,1,3.18,5.6h-6.4a3.47,3.47,0,0,0-1.26-2.14,3.81,3.81,0,0,0-2.46-.78,2.71,2.71,0,0,0-1.76.5,1.74,1.74,0,0,0-.6,1.42,1.68,1.68,0,0,0,1.1,1.56,17.76,17.76,0,0,0,3.46,1,34.6,34.6,0,0,1,4.2,1.22,6.89,6.89,0,0,1,2.84,2,5.58,5.58,0,0,1,1.2,3.76,5.73,5.73,0,0,1-1,3.4,6.79,6.79,0,0,1-3,2.32,11.69,11.69,0,0,1-4.64.84,12,12,0,0,1-7.24-2,8.44,8.44,0,0,1-3.32-5.72h6.6a3,3,0,0,0,1.22,2.2,4.58,4.58,0,0,0,2.74.76,2.54,2.54,0,0,0,1.76-.54,1.81,1.81,0,0,0,.6-1.42,1.7,1.7,0,0,0-1.1-1.66,20,20,0,0,0-3.58-1.06,29.34,29.34,0,0,1-4.08-1.12,6.86,6.86,0,0,1-2.76-1.94,5.41,5.41,0,0,1-1.16-3.66,6,6,0,0,1,2.28-4.86,9.94,9.94,0,0,1,6.44-1.86A10.25,10.25,0,0,1,854.74,122.51Z"/><path d="M862.52,111.81a4.8,4.8,0,0,1,5.92,0,3.33,3.33,0,0,1,1.12,2.58,3.29,3.29,0,0,1-1.12,2.54,4.8,4.8,0,0,1-5.92,0,3.29,3.29,0,0,1-1.12-2.54A3.33,3.33,0,0,1,862.52,111.81Zm6.36,8.86V143H862V120.67Z"/><path d="M888.5,122.51a9.23,9.23,0,0,1,3.18,5.6h-6.4A3.57,3.57,0,0,0,884,126a3.81,3.81,0,0,0-2.46-.78,2.71,2.71,0,0,0-1.76.5,1.74,1.74,0,0,0-.6,1.42,1.68,1.68,0,0,0,1.1,1.56,17.54,17.54,0,0,0,3.46,1,34.6,34.6,0,0,1,4.2,1.22,7,7,0,0,1,2.84,2,5.58,5.58,0,0,1,1.2,3.76,5.8,5.8,0,0,1-1,3.4,6.79,6.79,0,0,1-3,2.32,11.72,11.72,0,0,1-4.64.84,12,12,0,0,1-7.24-2,8.44,8.44,0,0,1-3.32-5.72h6.6a3,3,0,0,0,1.22,2.2,4.58,4.58,0,0,0,2.74.76,2.56,2.56,0,0,0,1.76-.54,1.81,1.81,0,0,0,.6-1.42,1.71,1.71,0,0,0-1.1-1.66,20.22,20.22,0,0,0-3.58-1.06,29.34,29.34,0,0,1-4.08-1.12,6.72,6.72,0,0,1-2.76-1.94,5.41,5.41,0,0,1-1.16-3.66,6,6,0,0,1,2.28-4.86,9.94,9.94,0,0,1,6.44-1.86A10.25,10.25,0,0,1,888.5,122.51Z"/><path d="M910.88,114.85a7.82,7.82,0,0,1,2.52,6.26,7.52,7.52,0,0,1-2.46,6,9.9,9.9,0,0,1-6.58,2.24v3.56h-6.44v-8h2.68a10,10,0,0,0,4.48-.82,3,3,0,0,0,1.6-2.94,2.85,2.85,0,0,0-.76-2.12,2.75,2.75,0,0,0-2-.76,2.89,2.89,0,0,0-3.08,3h-6.44a8.34,8.34,0,0,1,1-4.38,7.67,7.67,0,0,1,3.34-3.12,11.77,11.77,0,0,1,5.4-1.14A10,10,0,0,1,910.88,114.85Zm-6.16,21.3V143H897.6v-6.84Z"/><path d="M433.45,185.77V187H425.8V176.41h7.41v1.2h-6.13V181h4.77v1.2h-4.77v3.55Z"/><path d="M435.05,185.32l1-.72a2.49,2.49,0,0,0,2.53,1.41c1.31,0,1.93-.53,1.93-1.18s-.49-1-2.09-1.24c-2.28-.41-3.11-1-3.11-2.38s1.2-2.4,3.15-2.4c1.72,0,2.73.61,3.17,1.92l-1.08.64a2,2,0,0,0-2.09-1.44c-1.07,0-1.87.57-1.87,1.17s.53,1,2.16,1.31c2.24.37,3,1,3,2.35s-1.29,2.37-3.34,2.37A3.66,3.66,0,0,1,435.05,185.32Z"/><path d="M466.72,179v8H465.6l-.08-1.22a3.08,3.08,0,0,1-2.87,1.38,2.68,2.68,0,0,1-2.94-2.93V179H461v4.9c0,1.64.73,2.14,1.89,2.14a2.43,2.43,0,0,0,2.56-2.69V179Z"/><path d="M476.7,181.85V187h-1.28V182.3c0-1.78-.86-2.37-2-2.37a2.46,2.46,0,0,0-2.48,2.78V187h-1.28v-8h1.12l.08,1.25a3.17,3.17,0,0,1,5.81,1.63Z"/><path d="M486.8,186l-.08,1a2.93,2.93,0,0,1-1,.16,1.26,1.26,0,0,1-1.44-1.18,3.18,3.18,0,0,1-2.58,1.18c-1.51,0-2.72-.7-2.72-2.14,0-1.2,1.05-2.15,3.12-2.5l2.13-.35v-.45a1.68,1.68,0,0,0-1.87-1.76,2.34,2.34,0,0,0-2.29,1.52l-.95-.69a3.27,3.27,0,0,1,3.24-1.95c1.82,0,3.15.86,3.15,2.72v3.94c0,.38.16.57.61.57A2.74,2.74,0,0,0,486.8,186Zm-2.53-1.68v-1.1l-1.79.33c-1.41.26-2.13.72-2.13,1.48s.54,1,1.45,1C483.08,186,484.27,185.34,484.27,184.28Z"/><path d="M510.67,183.45h-6a2.53,2.53,0,0,0,2.61,2.56,2.17,2.17,0,0,0,2.25-1.18l1.08.56a3.45,3.45,0,0,1-3.33,1.74c-2.42,0-3.88-1.57-3.88-4.16s1.36-4.16,3.78-4.16a3.47,3.47,0,0,1,3.59,3.74A6.45,6.45,0,0,1,510.67,183.45Zm-6-1.14h4.85c-.17-1.47-1-2.38-2.35-2.38A2.41,2.41,0,0,0,504.65,182.31Z"/><path d="M520.17,181.85V187h-1.28V182.3c0-1.78-.86-2.37-2-2.37a2.46,2.46,0,0,0-2.48,2.78V187h-1.29v-8h1.13l.08,1.25a3.17,3.17,0,0,1,5.8,1.63Z"/><path d="M524.86,179h2.67v1.1h-2.67V187h-1.28v-6.9H522V179h1.6v-1.35a2.31,2.31,0,0,1,2.63-2.41,2.22,2.22,0,0,1,1.36.36l-.34,1a1.65,1.65,0,0,0-.91-.24c-.93,0-1.46.42-1.46,1.38Z"/><path d="M535.82,183.45h-6A2.53,2.53,0,0,0,532.4,186c1.17,0,2-.42,2.25-1.18l1.08.56a3.44,3.44,0,0,1-3.33,1.74c-2.42,0-3.88-1.57-3.88-4.16s1.36-4.16,3.78-4.16a3.47,3.47,0,0,1,3.59,3.74A6.45,6.45,0,0,1,535.82,183.45Zm-6-1.14h4.85c-.17-1.47-1-2.38-2.35-2.38A2.42,2.42,0,0,0,529.8,182.31Z"/><path d="M543,179l-.25,1.25a2.17,2.17,0,0,0-1-.21c-1,0-2.11.85-2.11,2.64V187h-1.28v-8h1l.17,1.31a2.56,2.56,0,0,1,2.56-1.47A2,2,0,0,1,543,179Z"/><path d="M557.2,181.85V187h-1.28v-5a1.79,1.79,0,0,0-1.89-2,2.41,2.41,0,0,0-2.37,2.65V187h-1.28v-5a1.79,1.79,0,0,0-1.89-2,2.47,2.47,0,0,0-2.37,2.77V187h-1.28v-8H546l.08,1.25a2.9,2.9,0,0,1,2.57-1.41,3,3,0,0,1,2.75,1.57,3.06,3.06,0,0,1,2.78-1.57A2.88,2.88,0,0,1,557.2,181.85Z"/><path d="M566.89,183.45h-6a2.53,2.53,0,0,0,2.61,2.56,2.18,2.18,0,0,0,2.26-1.18l1.07.56a3.44,3.44,0,0,1-3.33,1.74c-2.42,0-3.87-1.57-3.87-4.16s1.36-4.16,3.77-4.16a3.47,3.47,0,0,1,3.59,3.74A5.21,5.21,0,0,1,566.89,183.45Zm-6-1.14h4.85c-.18-1.47-1-2.38-2.36-2.38A2.41,2.41,0,0,0,560.88,182.31Z"/><path d="M576.49,175.29V187h-1.12l-.08-1.39a3,3,0,0,1-2.73,1.55c-2.23,0-3.65-1.55-3.65-4.16s1.42-4.16,3.65-4.16a3,3,0,0,1,2.65,1.41v-4.93Zm-1.28,7.77v-.19c0-1.81-1-2.94-2.51-2.94s-2.51,1.18-2.51,3,.94,3,2.51,3S575.21,184.87,575.21,183.06Z"/><path d="M586.67,186l-.08,1a2.88,2.88,0,0,1-1,.16,1.26,1.26,0,0,1-1.44-1.18,3.15,3.15,0,0,1-2.58,1.18c-1.5,0-2.72-.7-2.72-2.14,0-1.2,1.06-2.15,3.12-2.5l2.13-.35v-.45a1.68,1.68,0,0,0-1.87-1.76,2.34,2.34,0,0,0-2.29,1.52l-.94-.69a3.25,3.25,0,0,1,3.23-1.95c1.82,0,3.15.86,3.15,2.72v3.94c0,.38.16.57.61.57A2.67,2.67,0,0,0,586.67,186Zm-2.53-1.68v-1.1l-1.79.33c-1.41.26-2.13.72-2.13,1.48s.54,1,1.46,1C583,186,584.14,185.34,584.14,184.28Z"/><path d="M595.63,175.29V187h-1.12l-.08-1.39a3,3,0,0,1-2.74,1.55c-2.22,0-3.65-1.55-3.65-4.16s1.43-4.16,3.65-4.16a3,3,0,0,1,2.66,1.41v-4.93Zm-1.28,7.77v-.19c0-1.81-1-2.94-2.51-2.94s-2.52,1.18-2.52,3,.95,3,2.52,3S594.35,184.87,594.35,183.06Z"/><path d="M613.87,176.47a1,1,0,1,1,1,1A.9.9,0,0,1,613.87,176.47Zm1.6,10.5h-1.28v-8h1.28Z"/><path d="M625.45,181.85V187h-1.28V182.3c0-1.78-.86-2.37-2-2.37a2.46,2.46,0,0,0-2.48,2.78V187h-1.28v-8h1.12l.08,1.25a2.9,2.9,0,0,1,2.69-1.41A2.86,2.86,0,0,1,625.45,181.85Z"/><path d="M630.14,179h2.67v1.1h-2.67V187h-1.28v-6.9h-1.6V179h1.6v-1.35a2.3,2.3,0,0,1,2.62-2.41,2.2,2.2,0,0,1,1.36.36l-.33,1a1.67,1.67,0,0,0-.91-.24c-.93,0-1.46.42-1.46,1.38Z"/><path d="M641.1,183.45h-6a2.53,2.53,0,0,0,2.61,2.56,2.17,2.17,0,0,0,2.25-1.18l1.08.56a3.44,3.44,0,0,1-3.33,1.74c-2.42,0-3.88-1.57-3.88-4.16s1.36-4.16,3.78-4.16a3.47,3.47,0,0,1,3.59,3.74A6.45,6.45,0,0,1,641.1,183.45Zm-6-1.14h4.85c-.17-1.47-1-2.38-2.35-2.38A2.42,2.42,0,0,0,635.08,182.31Z"/><path d="M650.29,180.94l-1.22.57a2.08,2.08,0,0,0-2.13-1.58c-1.6,0-2.56,1.13-2.56,3s1,3,2.56,3a2,2,0,0,0,2.24-1.65l1.19.42a3.4,3.4,0,0,1-3.4,2.35c-2.41,0-3.87-1.57-3.87-4.16s1.46-4.16,3.87-4.16A3.4,3.4,0,0,1,650.29,180.94Z"/><path d="M659.31,180.94l-1.22.57a2.07,2.07,0,0,0-2.13-1.58c-1.6,0-2.56,1.13-2.56,3s1,3,2.56,3a2.06,2.06,0,0,0,2.25-1.65l1.18.42a3.4,3.4,0,0,1-3.39,2.35c-2.42,0-3.88-1.57-3.88-4.16s1.46-4.16,3.88-4.16A3.39,3.39,0,0,1,659.31,180.94Z"/><path d="M661.32,176.47a1,1,0,1,1,1,1A.91.91,0,0,1,661.32,176.47Zm1.6,10.5h-1.28v-8h1.28Z"/><path d="M673.15,183c0,2.59-1.46,4.16-3.87,4.16s-3.88-1.57-3.88-4.16,1.46-4.16,3.88-4.16S673.15,180.38,673.15,183Zm-6.47,0c0,1.9,1,3.06,2.6,3.06s2.59-1.16,2.59-3.06-1-3.06-2.59-3.06S666.68,181.06,666.68,183Z"/><path d="M674.91,185.32l1-.72a2.48,2.48,0,0,0,2.52,1.41c1.32,0,1.94-.53,1.94-1.18s-.49-1-2.1-1.24c-2.27-.41-3.1-1-3.1-2.38s1.2-2.4,3.15-2.4c1.72,0,2.72.61,3.17,1.92l-1.09.64a1.94,1.94,0,0,0-2.08-1.44c-1.07,0-1.87.57-1.87,1.17s.53,1,2.16,1.31c2.24.37,3,1,3,2.35s-1.29,2.37-3.34,2.37A3.64,3.64,0,0,1,674.91,185.32Z"/><path d="M691.26,186l-.08,1a2.88,2.88,0,0,1-1,.16,1.26,1.26,0,0,1-1.44-1.18,3.15,3.15,0,0,1-2.58,1.18c-1.5,0-2.72-.7-2.72-2.14,0-1.2,1.06-2.15,3.12-2.5l2.13-.35v-.45a1.68,1.68,0,0,0-1.87-1.76,2.34,2.34,0,0,0-2.29,1.52l-1-.69a3.28,3.28,0,0,1,3.24-1.95c1.82,0,3.15.86,3.15,2.72v3.94c0,.38.16.57.61.57A2.67,2.67,0,0,0,691.26,186Zm-2.53-1.68v-1.1l-1.79.33c-1.41.26-2.13.72-2.13,1.48s.54,1,1.46,1C687.55,186,688.73,185.34,688.73,184.28Z"/><path d="M715.92,183c0,2.61-1.43,4.16-3.65,4.16a3,3,0,0,1-2.66-1.41v4.61h-1.28V179h1.12l.08,1.39a3,3,0,0,1,2.74-1.55C714.49,178.81,715.92,180.36,715.92,183Zm-1.28,0c0-1.86-.95-3-2.52-3s-2.51,1.13-2.51,2.94v.19c0,1.81,1,2.95,2.51,2.95S714.64,184.83,714.64,183Z"/><path d="M725.66,183c0,2.59-1.45,4.16-3.87,4.16s-3.87-1.57-3.87-4.16,1.45-4.16,3.87-4.16S725.66,180.38,725.66,183Zm-6.46,0c0,1.9,1,3.06,2.59,3.06s2.59-1.16,2.59-3.06-1-3.06-2.59-3.06S719.2,181.06,719.2,183Z"/><path d="M732.89,186.41a3,3,0,0,1-2.06.72A2,2,0,0,1,728.6,185v-4.92H727V179h1.6v-1.92l1.28-.36V179h3v1.1h-3v4.69a1.09,1.09,0,0,0,1.2,1.17,1.83,1.83,0,0,0,1.37-.59Z"/><path d="M741.5,183.45h-6a2.53,2.53,0,0,0,2.61,2.56c1.17,0,2-.42,2.25-1.18l1.08.56a3.44,3.44,0,0,1-3.33,1.74c-2.42,0-3.88-1.57-3.88-4.16s1.36-4.16,3.78-4.16a3.47,3.47,0,0,1,3.59,3.74A6.45,6.45,0,0,1,741.5,183.45Zm-6-1.14h4.85c-.17-1.47-1-2.38-2.35-2.38A2.42,2.42,0,0,0,735.48,182.31Z"/><path d="M751,181.85V187h-1.28V182.3c0-1.78-.87-2.37-2-2.37a2.46,2.46,0,0,0-2.48,2.78V187H744v-8h1.12l.08,1.25a3.17,3.17,0,0,1,5.81,1.63Z"/><path d="M760.59,180.94l-1.22.57a2.06,2.06,0,0,0-2.12-1.58c-1.61,0-2.57,1.13-2.57,3s1,3,2.57,3a2.05,2.05,0,0,0,2.24-1.65l1.18.42a3.39,3.39,0,0,1-3.39,2.35c-2.42,0-3.88-1.57-3.88-4.16s1.46-4.16,3.88-4.16A3.38,3.38,0,0,1,760.59,180.94Z"/><path d="M762.6,176.47a1,1,0,1,1,1,1A.91.91,0,0,1,762.6,176.47Zm1.6,10.5h-1.28v-8h1.28Z"/><path d="M774.38,186l-.08,1a2.88,2.88,0,0,1-1,.16A1.26,1.26,0,0,1,771.9,186a3.15,3.15,0,0,1-2.58,1.18c-1.5,0-2.72-.7-2.72-2.14,0-1.2,1.06-2.15,3.12-2.5l2.13-.35v-.45a1.68,1.68,0,0,0-1.87-1.76,2.34,2.34,0,0,0-2.29,1.52l-.94-.69a3.25,3.25,0,0,1,3.23-1.95c1.82,0,3.15.86,3.15,2.72v3.94c0,.38.16.57.61.57A2.67,2.67,0,0,0,774.38,186Zm-2.53-1.68v-1.1l-1.79.33c-1.41.26-2.13.72-2.13,1.48s.55,1,1.46,1C770.67,186,771.85,185.34,771.85,184.28Z"/><path d="M777.45,184.83c0,.81.21,1.07.87,1.07a2.76,2.76,0,0,0,1.16-.23l-.2,1.24a3.23,3.23,0,0,1-1.19.22c-1.3,0-1.92-.69-1.92-2.14v-9.7h1.28Z"/><path d="M793.49,181.85V187h-1.28v-5a1.79,1.79,0,0,0-1.89-2,2.41,2.41,0,0,0-2.37,2.65V187h-1.28v-5a1.79,1.79,0,0,0-1.89-2,2.46,2.46,0,0,0-2.37,2.77V187h-1.28v-8h1.12l.08,1.25a2.89,2.89,0,0,1,2.56-1.41,2.94,2.94,0,0,1,2.75,1.57,3.07,3.07,0,0,1,2.79-1.57A2.88,2.88,0,0,1,793.49,181.85Z"/><path d="M803.18,183.45h-6a2.53,2.53,0,0,0,2.61,2.56,2.17,2.17,0,0,0,2.25-1.18l1.07.56a3.42,3.42,0,0,1-3.32,1.74c-2.42,0-3.88-1.57-3.88-4.16s1.36-4.16,3.78-4.16a3.47,3.47,0,0,1,3.59,3.74A6.45,6.45,0,0,1,803.18,183.45Zm-6-1.14H802c-.17-1.47-1-2.38-2.35-2.38A2.41,2.41,0,0,0,797.16,182.31Z"/><path d="M812.68,181.85V187H811.4V182.3c0-1.78-.86-2.37-2-2.37a2.46,2.46,0,0,0-2.48,2.78V187h-1.29v-8h1.12l.09,1.25a3.17,3.17,0,0,1,5.8,1.63Z"/><path d="M820.36,186.41a3,3,0,0,1-2.06.72,2,2,0,0,1-2.23-2.14v-4.92h-1.6V179h1.6v-1.92l1.28-.36V179h3v1.1h-3v4.69a1.09,1.09,0,0,0,1.2,1.17,1.83,1.83,0,0,0,1.37-.59Z"/><path d="M829,183.45h-6a2.53,2.53,0,0,0,2.61,2.56,2.17,2.17,0,0,0,2.25-1.18l1.08.56a3.44,3.44,0,0,1-3.33,1.74c-2.42,0-3.88-1.57-3.88-4.16s1.36-4.16,3.78-4.16a3.47,3.47,0,0,1,3.59,3.74A6.45,6.45,0,0,1,829,183.45Zm-6-1.14h4.85c-.17-1.47-1-2.38-2.35-2.38A2.42,2.42,0,0,0,823,182.31Z"/><path d="M859.41,181.85V187h-1.28v-5a1.79,1.79,0,0,0-1.89-2,2.41,2.41,0,0,0-2.37,2.65V187h-1.28v-5a1.79,1.79,0,0,0-1.89-2,2.47,2.47,0,0,0-2.37,2.77V187h-1.28v-8h1.12l.08,1.25a2.89,2.89,0,0,1,2.56-1.41,3,3,0,0,1,2.76,1.57,3,3,0,0,1,2.78-1.57A2.88,2.88,0,0,1,859.41,181.85Z"/><path d="M869.55,183c0,2.59-1.46,4.16-3.87,4.16s-3.88-1.57-3.88-4.16,1.46-4.16,3.88-4.16S869.55,180.38,869.55,183Zm-6.47,0c0,1.9,1,3.06,2.6,3.06s2.59-1.16,2.59-3.06-1-3.06-2.59-3.06S863.08,181.06,863.08,183Z"/><path d="M876.69,179l-.26,1.25a2.17,2.17,0,0,0-1-.21c-1,0-2.11.85-2.11,2.64V187H872v-8h1l.17,1.31a2.57,2.57,0,0,1,2.57-1.47A2,2,0,0,1,876.69,179Z"/><path d="M883,186.41a3,3,0,0,1-2.06.72,2,2,0,0,1-2.23-2.14v-4.92h-1.6V179h1.6v-1.92l1.28-.36V179h3v1.1h-3v4.69a1.09,1.09,0,0,0,1.21,1.17,1.83,1.83,0,0,0,1.36-.59Z"/><path d="M892,186l-.08,1a2.88,2.88,0,0,1-1,.16A1.27,1.27,0,0,1,889.5,186a3.15,3.15,0,0,1-2.58,1.18c-1.5,0-2.72-.7-2.72-2.14,0-1.2,1.06-2.15,3.12-2.5l2.13-.35v-.45a1.68,1.68,0,0,0-1.87-1.76,2.34,2.34,0,0,0-2.29,1.52l-.94-.69a3.25,3.25,0,0,1,3.23-1.95c1.83,0,3.15.86,3.15,2.72v3.94c0,.38.16.57.61.57A2.67,2.67,0,0,0,892,186Zm-2.53-1.68v-1.1l-1.79.33c-1.41.26-2.13.72-2.13,1.48s.55,1,1.46,1C888.27,186,889.45,185.34,889.45,184.28Z"/><path d="M895.05,184.83c0,.81.21,1.07.87,1.07a2.76,2.76,0,0,0,1.16-.23l-.2,1.24a3.23,3.23,0,0,1-1.19.22c-1.29,0-1.92-.69-1.92-2.14v-9.7h1.28Z"/><path d="M900.57,186.6a2.93,2.93,0,0,1-1.74,2.71l-.67-.63a2.29,2.29,0,0,0,1.56-1.63l-.06,0a.68.68,0,0,1-.45.11.93.93,0,0,1-.88-1,1.07,1.07,0,0,1,1-1.07C900.12,185.05,900.57,185.69,900.57,186.6Z"/><path d="M432.76,207l-.08,1a2.88,2.88,0,0,1-1,.16,1.27,1.27,0,0,1-1.44-1.18,3.14,3.14,0,0,1-2.57,1.18c-1.51,0-2.73-.7-2.73-2.14,0-1.2,1.06-2.15,3.12-2.5l2.13-.35v-.45a1.68,1.68,0,0,0-1.87-1.76,2.34,2.34,0,0,0-2.29,1.52l-.94-.69a3.25,3.25,0,0,1,3.23-1.95c1.83,0,3.15.86,3.15,2.72v3.94c0,.38.16.57.61.57A2.67,2.67,0,0,0,432.76,207Zm-2.53-1.68v-1.1l-1.79.33c-1.41.26-2.13.72-2.13,1.48s.55,1,1.46,1C429.05,207,430.23,206.34,430.23,205.28Z"/><path d="M441.72,196.29V208H440.6l-.08-1.39a3,3,0,0,1-2.73,1.55c-2.23,0-3.65-1.55-3.65-4.16s1.42-4.16,3.65-4.16a3,3,0,0,1,2.65,1.41v-4.93Zm-1.28,7.77v-.19c0-1.81-1-2.94-2.51-2.94s-2.51,1.18-2.51,3,.94,3,2.51,3S440.44,205.87,440.44,204.06Z"/><path d="M451.82,200v11.36h-1.28v-4.61a3,3,0,0,1-2.66,1.41c-2.22,0-3.65-1.55-3.65-4.16s1.43-4.16,3.65-4.16a3,3,0,0,1,2.74,1.55l.08-1.39Zm-1.28,4.09v-.19c0-1.81-1-2.94-2.51-2.94s-2.52,1.18-2.52,3,.95,3,2.52,3S450.54,205.87,450.54,204.06Z"/><path d="M461.72,200v8H460.6l-.08-1.22a3.07,3.07,0,0,1-2.86,1.38,2.69,2.69,0,0,1-3-2.93V200H456v4.9c0,1.64.74,2.14,1.89,2.14a2.43,2.43,0,0,0,2.56-2.69V200Z"/><path d="M464.38,197.47a1,1,0,1,1,1,1A.9.9,0,0,1,464.38,197.47ZM466,208H464.7v-8H466Z"/><path d="M473.61,200l-.26,1.25a2.17,2.17,0,0,0-1-.21c-1,0-2.11.85-2.11,2.64V208H469v-8h1l.18,1.31a2.56,2.56,0,0,1,2.56-1.47A2,2,0,0,1,473.61,200Z"/><path d="M475.16,197.47a1,1,0,1,1,1,1A.9.9,0,0,1,475.16,197.47Zm1.6,10.5h-1.28v-8h1.28Z"/><path d="M486.84,196.29V208h-1.12l-.08-1.39a3,3,0,0,1-2.74,1.55c-2.22,0-3.65-1.55-3.65-4.16s1.43-4.16,3.65-4.16a3,3,0,0,1,2.66,1.41v-4.93Zm-1.28,7.77v-.19c0-1.81-1-2.94-2.51-2.94s-2.51,1.18-2.51,3,.94,3,2.51,3S485.56,205.87,485.56,204.06Z"/><path d="M497,207l-.08,1a2.93,2.93,0,0,1-1,.16,1.26,1.26,0,0,1-1.44-1.18,3.18,3.18,0,0,1-2.58,1.18c-1.5,0-2.72-.7-2.72-2.14,0-1.2,1.05-2.15,3.12-2.5l2.13-.35v-.45a1.68,1.68,0,0,0-1.87-1.76,2.34,2.34,0,0,0-2.29,1.52l-.95-.69a3.27,3.27,0,0,1,3.24-1.95c1.82,0,3.15.86,3.15,2.72v3.94c0,.38.16.57.61.57A2.67,2.67,0,0,0,497,207Zm-2.53-1.68v-1.1l-1.79.33c-1.41.26-2.13.72-2.13,1.48s.54,1,1.45,1C493.3,207,494.49,206.34,494.49,205.28Z"/><path d="M517.8,204c0,2.61-1.42,4.16-3.65,4.16a3,3,0,0,1-2.65-1.41v4.61h-1.29V200h1.12l.09,1.39a3,3,0,0,1,2.73-1.55C516.38,199.81,517.8,201.36,517.8,204Zm-1.28,0c0-1.86-.94-3-2.51-3s-2.51,1.13-2.51,2.94v.19c0,1.81,1,2.95,2.51,2.95S516.52,205.83,516.52,204Z"/><path d="M527.54,204c0,2.59-1.45,4.16-3.87,4.16s-3.87-1.57-3.87-4.16,1.45-4.16,3.87-4.16S527.54,201.38,527.54,204Zm-6.46,0c0,1.9,1,3.06,2.59,3.06s2.59-1.16,2.59-3.06-1-3.06-2.59-3.06S521.08,202.06,521.08,204Z"/><path d="M534.68,200l-.26,1.25a2.15,2.15,0,0,0-1-.21,2.35,2.35,0,0,0-2.12,2.64V208H530v-8h1l.18,1.31a2.56,2.56,0,0,1,2.56-1.47A2,2,0,0,1,534.68,200Z"/><path d="M549.11,205.83c0,.81.21,1.07.87,1.07a2.83,2.83,0,0,0,1.17-.23l-.21,1.24a3.23,3.23,0,0,1-1.19.22c-1.29,0-1.92-.69-1.92-2.14v-9.7h1.28Z"/><path d="M560,207l-.08,1a2.88,2.88,0,0,1-1,.16,1.27,1.27,0,0,1-1.44-1.18,3.14,3.14,0,0,1-2.57,1.18c-1.51,0-2.73-.7-2.73-2.14,0-1.2,1.06-2.15,3.12-2.5l2.13-.35v-.45a1.68,1.68,0,0,0-1.87-1.76,2.35,2.35,0,0,0-2.29,1.52l-.94-.69a3.25,3.25,0,0,1,3.23-1.95c1.83,0,3.16.86,3.16,2.72v3.94c0,.38.16.57.6.57A2.67,2.67,0,0,0,560,207Zm-2.53-1.68v-1.1l-1.79.33c-1.41.26-2.13.72-2.13,1.48s.55,1,1.46,1C556.28,207,557.46,206.34,557.46,205.28Z"/><path d="M572.87,197.47a1,1,0,1,1,1,1A.9.9,0,0,1,572.87,197.47Zm1.6,10.5h-1.28v-8h1.28Z"/><path d="M584.46,202.85V208h-1.28V203.3c0-1.78-.87-2.37-2-2.37a2.46,2.46,0,0,0-2.48,2.78V208h-1.28v-8h1.12l.08,1.25a3.17,3.17,0,0,1,5.81,1.63Z"/><path d="M594.36,202.85V208h-1.28V203.3c0-1.78-.86-2.37-2-2.37a2.47,2.47,0,0,0-2.48,2.8V208h-1.28V196.29h1.28v4.88a3.14,3.14,0,0,1,5.73,1.68Z"/><path d="M604.46,207l-.08,1a2.93,2.93,0,0,1-1,.16A1.26,1.26,0,0,1,602,207a3.18,3.18,0,0,1-2.58,1.18c-1.51,0-2.72-.7-2.72-2.14,0-1.2,1.05-2.15,3.12-2.5l2.13-.35v-.45a1.68,1.68,0,0,0-1.87-1.76,2.34,2.34,0,0,0-2.29,1.52l-.95-.69a3.27,3.27,0,0,1,3.24-1.95c1.82,0,3.15.86,3.15,2.72v3.94c0,.38.16.57.61.57A2.74,2.74,0,0,0,604.46,207Zm-2.53-1.68v-1.1l-1.79.33c-1.41.26-2.13.72-2.13,1.48s.54,1,1.45,1C600.74,207,601.93,206.34,601.93,205.28Z"/><path d="M607.53,205.83c0,.81.2,1.07.86,1.07a2.83,2.83,0,0,0,1.17-.23l-.21,1.24a3.22,3.22,0,0,1-1.18.22c-1.3,0-1.92-.69-1.92-2.14v-9.7h1.28Z"/><path d="M618.41,207l-.08,1a2.93,2.93,0,0,1-1,.16,1.26,1.26,0,0,1-1.44-1.18,3.15,3.15,0,0,1-2.58,1.18c-1.5,0-2.72-.7-2.72-2.14,0-1.2,1.06-2.15,3.12-2.5l2.13-.35v-.45a1.68,1.68,0,0,0-1.87-1.76,2.34,2.34,0,0,0-2.29,1.52l-1-.69a3.27,3.27,0,0,1,3.24-1.95c1.82,0,3.15.86,3.15,2.72v3.94c0,.38.16.57.61.57A2.67,2.67,0,0,0,618.41,207Zm-2.53-1.68v-1.1l-1.79.33c-1.41.26-2.13.72-2.13,1.48s.54,1,1.45,1C614.69,207,615.88,206.34,615.88,205.28Z"/><path d="M627,201.94l-1.21.57a2.08,2.08,0,0,0-2.13-1.58c-1.6,0-2.57,1.13-2.57,3s1,3,2.57,3a2.05,2.05,0,0,0,2.24-1.65l1.18.42a3.39,3.39,0,0,1-3.39,2.35c-2.42,0-3.88-1.57-3.88-4.16s1.46-4.16,3.88-4.16A3.38,3.38,0,0,1,627,201.94Z"/><path d="M629,197.47a1,1,0,1,1,1,1A.9.9,0,0,1,629,197.47Zm1.6,10.5h-1.28v-8h1.28Z"/><path d="M640.79,204c0,2.59-1.45,4.16-3.87,4.16S633,206.56,633,204s1.46-4.16,3.88-4.16S640.79,201.38,640.79,204Zm-6.46,0c0,1.9,1,3.06,2.59,3.06s2.59-1.16,2.59-3.06-1-3.06-2.59-3.06S634.33,202.06,634.33,204Zm4.41-8-1.57,2.67h-1l1.22-2.67Z"/><path d="M650.28,202.85V208H649V203.3c0-1.78-.87-2.37-2-2.37a2.46,2.46,0,0,0-2.48,2.78V208h-1.28v-8h1.12l.08,1.25a3.17,3.17,0,0,1,5.81,1.63Z"/><path d="M672,196.29V208h-1.12l-.08-1.39a3,3,0,0,1-2.74,1.55c-2.22,0-3.65-1.55-3.65-4.16s1.43-4.16,3.65-4.16a3,3,0,0,1,2.66,1.41v-4.93Zm-1.28,7.77v-.19c0-1.81-1-2.94-2.51-2.94s-2.52,1.18-2.52,3,1,3,2.52,3S670.71,205.87,670.71,204.06Z"/><path d="M681.77,204.45h-6a2.53,2.53,0,0,0,2.61,2.56,2.18,2.18,0,0,0,2.26-1.18l1.07.56a3.44,3.44,0,0,1-3.33,1.74c-2.42,0-3.87-1.57-3.87-4.16s1.36-4.16,3.78-4.16a3.46,3.46,0,0,1,3.58,3.74A6.7,6.7,0,0,1,681.77,204.45Zm-6-1.14h4.85c-.18-1.47-1-2.38-2.35-2.38A2.41,2.41,0,0,0,675.75,203.31Z"/><path d="M703.56,204c0,2.61-1.43,4.16-3.65,4.16a3,3,0,0,1-2.66-1.41v4.61H696V200h1.12l.08,1.39a3,3,0,0,1,2.74-1.55C702.13,199.81,703.56,201.36,703.56,204Zm-1.28,0c0-1.86-.95-3-2.51-3s-2.52,1.13-2.52,2.94v.19c0,1.81,1,2.95,2.52,2.95S702.28,205.83,702.28,204Z"/><path d="M713.25,207l-.08,1a2.88,2.88,0,0,1-1,.16,1.27,1.27,0,0,1-1.44-1.18,3.14,3.14,0,0,1-2.57,1.18c-1.51,0-2.72-.7-2.72-2.14,0-1.2,1-2.15,3.12-2.5l2.13-.35v-.45a1.68,1.68,0,0,0-1.88-1.76,2.36,2.36,0,0,0-2.29,1.52l-.94-.69a3.26,3.26,0,0,1,3.23-1.95c1.83,0,3.16.86,3.16,2.72v3.94c0,.38.16.57.6.57A2.67,2.67,0,0,0,713.25,207Zm-2.52-1.68v-1.1l-1.8.33c-1.41.26-2.13.72-2.13,1.48s.55,1,1.46,1C709.54,207,710.73,206.34,710.73,205.28Z"/><path d="M719.77,200l-.26,1.25a2.17,2.17,0,0,0-1-.21c-1,0-2.11.85-2.11,2.64V208h-1.28v-8h1l.17,1.31a2.57,2.57,0,0,1,2.57-1.47A2,2,0,0,1,719.77,200Z"/><path d="M726.05,207.41a3,3,0,0,1-2.06.72,2,2,0,0,1-2.23-2.14v-4.92h-1.6V200h1.6v-1.92l1.28-.36V200h3v1.1h-3v4.69a1.09,1.09,0,0,0,1.2,1.17,1.79,1.79,0,0,0,1.36-.59Z"/><path d="M729.14,208h-1.28v-8h1.28Zm1.34-12-1.56,2.67h-1l1.21-2.67Z"/><path d="M738.81,201.94l-1.22.57a2.08,2.08,0,0,0-2.13-1.58c-1.6,0-2.56,1.13-2.56,3s1,3,2.56,3a2,2,0,0,0,2.24-1.65l1.19.42a3.4,3.4,0,0,1-3.4,2.35c-2.41,0-3.87-1.57-3.87-4.16s1.46-4.16,3.87-4.16A3.4,3.4,0,0,1,738.81,201.94Z"/><path d="M748.07,200v8H747l-.08-1.22a3.07,3.07,0,0,1-2.87,1.38,2.68,2.68,0,0,1-2.94-2.93V200h1.28v4.9c0,1.64.74,2.14,1.89,2.14a2.43,2.43,0,0,0,2.56-2.69V200Z"/><path d="M752.26,205.83c0,.81.21,1.07.86,1.07a2.77,2.77,0,0,0,1.17-.23l-.21,1.24a3.14,3.14,0,0,1-1.18.22c-1.3,0-1.92-.69-1.92-2.14v-9.7h1.28Z"/><path d="M763.14,207l-.08,1a2.88,2.88,0,0,1-1,.16,1.27,1.27,0,0,1-1.44-1.18,3.15,3.15,0,0,1-2.58,1.18c-1.5,0-2.72-.7-2.72-2.14,0-1.2,1.06-2.15,3.12-2.5l2.13-.35v-.45a1.68,1.68,0,0,0-1.87-1.76,2.34,2.34,0,0,0-2.29,1.52l-.94-.69a3.25,3.25,0,0,1,3.23-1.95c1.83,0,3.15.86,3.15,2.72v3.94c0,.38.16.57.61.57A2.67,2.67,0,0,0,763.14,207Zm-2.53-1.68v-1.1l-1.79.33c-1.41.26-2.13.72-2.13,1.48s.55,1,1.46,1C759.43,207,760.61,206.34,760.61,205.28Z"/><path d="M764.28,206.32l1-.72a2.48,2.48,0,0,0,2.52,1.41c1.32,0,1.94-.53,1.94-1.18s-.49-1-2.1-1.24c-2.27-.41-3.1-1-3.1-2.38s1.2-2.4,3.15-2.4c1.72,0,2.72.61,3.17,1.92l-1.09.64a1.94,1.94,0,0,0-2.08-1.44c-1.07,0-1.87.57-1.87,1.17s.53,1,2.16,1.31c2.24.37,3,1,3,2.35s-1.29,2.37-3.34,2.37A3.64,3.64,0,0,1,764.28,206.32Z"/><path d="M784.82,197.47a1,1,0,1,1,1,1A.9.9,0,0,1,784.82,197.47Zm1.6,10.5h-1.28v-8h1.28Z"/><path d="M796.41,202.85V208h-1.29V203.3c0-1.78-.86-2.37-2-2.37a2.46,2.46,0,0,0-2.48,2.78V208h-1.29v-8h1.13l.08,1.25a3.17,3.17,0,0,1,5.81,1.63Z"/><path d="M801.09,200h2.68v1.1h-2.68V208h-1.28v-6.9h-1.6V200h1.6v-1.35a2.31,2.31,0,0,1,2.63-2.41,2.22,2.22,0,0,1,1.36.36l-.34,1a1.62,1.62,0,0,0-.91-.24c-.93,0-1.46.42-1.46,1.38Z"/><path d="M812.05,204.45h-6a2.53,2.53,0,0,0,2.61,2.56,2.18,2.18,0,0,0,2.26-1.18l1.07.56a3.44,3.44,0,0,1-3.33,1.74c-2.42,0-3.87-1.57-3.87-4.16s1.36-4.16,3.77-4.16a3.47,3.47,0,0,1,3.59,3.74A5.21,5.21,0,0,1,812.05,204.45Zm-6-1.14h4.85c-.18-1.47-1-2.38-2.36-2.38A2.41,2.41,0,0,0,806,203.31Z"/><path d="M821.24,201.94l-1.22.57a2.07,2.07,0,0,0-2.13-1.58c-1.6,0-2.56,1.13-2.56,3s1,3,2.56,3a2,2,0,0,0,2.24-1.65l1.19.42a3.4,3.4,0,0,1-3.4,2.35c-2.41,0-3.87-1.57-3.87-4.16s1.46-4.16,3.87-4.16A3.39,3.39,0,0,1,821.24,201.94Z"/><path d="M828.47,207.41a3,3,0,0,1-2.07.72,2,2,0,0,1-2.22-2.14v-4.92h-1.6V200h1.6v-1.92l1.28-.36V200h3v1.1h-3v4.69a1.09,1.09,0,0,0,1.2,1.17,1.81,1.81,0,0,0,1.36-.59Z"/><path d="M837.48,207l-.08,1a2.93,2.93,0,0,1-1,.16A1.26,1.26,0,0,1,835,207a3.15,3.15,0,0,1-2.58,1.18c-1.5,0-2.72-.7-2.72-2.14,0-1.2,1.06-2.15,3.12-2.5l2.13-.35v-.45a1.68,1.68,0,0,0-1.87-1.76,2.34,2.34,0,0,0-2.29,1.52l-.95-.69a3.27,3.27,0,0,1,3.24-1.95c1.82,0,3.15.86,3.15,2.72v3.94c0,.38.16.57.61.57A2.67,2.67,0,0,0,837.48,207ZM835,205.28v-1.1l-1.79.33c-1.41.26-2.13.72-2.13,1.48s.54,1,1.45,1C833.76,207,835,206.34,835,205.28Z"/><path d="M846.34,202.85V208h-1.28V203.3c0-1.78-.86-2.37-2-2.37a2.46,2.46,0,0,0-2.48,2.78V208h-1.28v-8h1.12l.08,1.25a2.9,2.9,0,0,1,2.69-1.41A2.86,2.86,0,0,1,846.34,202.85Z"/><path d="M854,207.41a3,3,0,0,1-2.06.72,2,2,0,0,1-2.23-2.14v-4.92h-1.6V200h1.6v-1.92l1.28-.36V200h3v1.1h-3v4.69a1.09,1.09,0,0,0,1.2,1.17,1.79,1.79,0,0,0,1.36-.59Z"/><path d="M862.63,204.45h-6a2.53,2.53,0,0,0,2.61,2.56,2.17,2.17,0,0,0,2.25-1.18l1.07.56a3.42,3.42,0,0,1-3.32,1.74c-2.42,0-3.88-1.57-3.88-4.16s1.36-4.16,3.78-4.16a3.46,3.46,0,0,1,3.58,3.74A6.7,6.7,0,0,1,862.63,204.45Zm-6-1.14h4.85c-.17-1.47-1-2.38-2.35-2.38A2.41,2.41,0,0,0,856.61,203.31Z"/><path d="M864.4,206.32l1-.72A2.51,2.51,0,0,0,868,207c1.32,0,1.94-.53,1.94-1.18s-.5-1-2.1-1.24c-2.27-.41-3.1-1-3.1-2.38s1.2-2.4,3.15-2.4c1.71,0,2.72.61,3.17,1.92l-1.09.64a1.94,1.94,0,0,0-2.08-1.44c-1.07,0-1.87.57-1.87,1.17s.53,1,2.16,1.31c2.24.37,3,1,3,2.35s-1.3,2.37-3.35,2.37A3.66,3.66,0,0,1,864.4,206.32Z"/><path d="M884.55,206.32l1-.72a2.49,2.49,0,0,0,2.53,1.41c1.31,0,1.93-.53,1.93-1.18s-.49-1-2.09-1.24c-2.28-.41-3.11-1-3.11-2.38s1.2-2.4,3.15-2.4c1.72,0,2.73.61,3.17,1.92l-1.09.64a1.94,1.94,0,0,0-2.08-1.44c-1.07,0-1.87.57-1.87,1.17s.53,1,2.16,1.31c2.24.37,3,1,3,2.35s-1.29,2.37-3.34,2.37A3.66,3.66,0,0,1,884.55,206.32Z"/><path d="M900.5,204.45h-6a2.53,2.53,0,0,0,2.61,2.56,2.17,2.17,0,0,0,2.25-1.18l1.08.56a3.45,3.45,0,0,1-3.33,1.74c-2.42,0-3.88-1.57-3.88-4.16s1.36-4.16,3.78-4.16a3.47,3.47,0,0,1,3.59,3.74A6.45,6.45,0,0,1,900.5,204.45Zm-6-1.14h4.85c-.17-1.47-1-2.38-2.35-2.38A2.41,2.41,0,0,0,894.48,203.31Z"/><path d="M432.36,225.45h-6a2.53,2.53,0,0,0,2.61,2.56c1.17,0,2-.42,2.25-1.18l1.08.56a3.44,3.44,0,0,1-3.33,1.74c-2.42,0-3.88-1.57-3.88-4.16s1.36-4.16,3.78-4.16a3.47,3.47,0,0,1,3.59,3.74A6.45,6.45,0,0,1,432.36,225.45Zm-6-1.14h4.85c-.17-1.47-1-2.38-2.35-2.38A2.42,2.42,0,0,0,426.34,224.31Z"/><path d="M441.87,223.85V229h-1.28V224.3c0-1.78-.87-2.37-2-2.37a2.46,2.46,0,0,0-2.48,2.78V229h-1.28v-8H436l.08,1.25a3.17,3.17,0,0,1,5.81,1.63Z"/><path d="M451.45,222.94l-1.22.57a2.06,2.06,0,0,0-2.12-1.58c-1.61,0-2.57,1.13-2.57,3s1,3,2.57,3a2.05,2.05,0,0,0,2.24-1.65l1.18.42a3.39,3.39,0,0,1-3.39,2.35c-2.42,0-3.88-1.57-3.88-4.16s1.46-4.16,3.88-4.16A3.38,3.38,0,0,1,451.45,222.94Z"/><path d="M460.71,221v8h-1.12l-.08-1.22a3.07,3.07,0,0,1-2.86,1.38,2.69,2.69,0,0,1-2.95-2.93V221H455v4.9c0,1.64.74,2.14,1.89,2.14a2.43,2.43,0,0,0,2.56-2.69V221Z"/><path d="M470.49,225.45h-6a2.53,2.53,0,0,0,2.61,2.56,2.17,2.17,0,0,0,2.25-1.18l1.07.56a3.42,3.42,0,0,1-3.32,1.74c-2.42,0-3.88-1.57-3.88-4.16s1.36-4.16,3.78-4.16a3.46,3.46,0,0,1,3.58,3.74A6.7,6.7,0,0,1,470.49,225.45Zm-6-1.14h4.85c-.17-1.47-1-2.38-2.35-2.38A2.41,2.41,0,0,0,464.47,224.31Z"/><path d="M480,223.85V229h-1.28V224.3c0-1.78-.86-2.37-2-2.37a2.46,2.46,0,0,0-2.49,2.78V229H473v-8h1.12l.08,1.25a2.9,2.9,0,0,1,2.69-1.41A2.86,2.86,0,0,1,480,223.85Z"/><path d="M487.67,228.41a3,3,0,0,1-2.06.72,2,2,0,0,1-2.23-2.14v-4.92h-1.6V221h1.6v-1.92l1.28-.36V221h3v1.1h-3v4.69a1.09,1.09,0,0,0,1.21,1.17,1.83,1.83,0,0,0,1.36-.59Z"/><path d="M494.14,221l-.26,1.25a2.17,2.17,0,0,0-1-.21c-1,0-2.11.85-2.11,2.64V229h-1.28v-8h1l.18,1.31a2.55,2.55,0,0,1,2.56-1.47A2,2,0,0,1,494.14,221Z"/><path d="M503,228l-.08,1a2.93,2.93,0,0,1-1,.16,1.26,1.26,0,0,1-1.44-1.18,3.18,3.18,0,0,1-2.58,1.18c-1.51,0-2.72-.7-2.72-2.14,0-1.2,1.05-2.15,3.12-2.5l2.13-.35v-.45a1.68,1.68,0,0,0-1.88-1.76,2.34,2.34,0,0,0-2.28,1.52l-.95-.69a3.26,3.26,0,0,1,3.23-1.95c1.83,0,3.16.86,3.16,2.72v3.94c0,.38.16.57.61.57A2.8,2.8,0,0,0,503,228Zm-2.53-1.68v-1.1l-1.79.33c-1.41.26-2.13.72-2.13,1.48s.54,1,1.45,1C499.27,228,500.46,227.34,500.46,226.28Z"/><path d="M511.85,223.85V229h-1.28V224.3c0-1.78-.86-2.37-2-2.37a2.46,2.46,0,0,0-2.48,2.78V229h-1.28v-8H506l.08,1.25a3.17,3.17,0,0,1,5.81,1.63Z"/><path d="M527.7,225.45h-6a2.53,2.53,0,0,0,2.61,2.56,2.18,2.18,0,0,0,2.26-1.18l1.07.56a3.44,3.44,0,0,1-3.33,1.74c-2.41,0-3.87-1.57-3.87-4.16s1.36-4.16,3.78-4.16a3.46,3.46,0,0,1,3.58,3.74A6.7,6.7,0,0,1,527.7,225.45Zm-6-1.14h4.85c-.18-1.47-1-2.38-2.35-2.38A2.41,2.41,0,0,0,521.68,224.31Z"/><path d="M537.2,223.85V229h-1.28V224.3c0-1.78-.86-2.37-2-2.37a2.46,2.46,0,0,0-2.48,2.78V229h-1.28v-8h1.12l.08,1.25a2.9,2.9,0,0,1,2.69-1.41A2.86,2.86,0,0,1,537.2,223.85Z"/><path d="M553.05,225.45h-6a2.53,2.53,0,0,0,2.61,2.56,2.17,2.17,0,0,0,2.25-1.18l1.08.56a3.44,3.44,0,0,1-3.33,1.74c-2.42,0-3.88-1.57-3.88-4.16s1.36-4.16,3.78-4.16a3.47,3.47,0,0,1,3.59,3.74A6.45,6.45,0,0,1,553.05,225.45Zm-6-1.14h4.85c-.17-1.47-1-2.38-2.35-2.38A2.42,2.42,0,0,0,547,224.31Z"/><path d="M556.76,226.83c0,.81.21,1.07.87,1.07a2.76,2.76,0,0,0,1.16-.23l-.2,1.24a3.23,3.23,0,0,1-1.19.22c-1.29,0-1.92-.69-1.92-2.14v-9.7h1.28Z"/><path d="M573.24,228l-.08,1a2.88,2.88,0,0,1-1,.16,1.26,1.26,0,0,1-1.44-1.18,3.15,3.15,0,0,1-2.58,1.18c-1.5,0-2.72-.7-2.72-2.14,0-1.2,1.06-2.15,3.12-2.5l2.13-.35v-.45a1.68,1.68,0,0,0-1.87-1.76,2.34,2.34,0,0,0-2.29,1.52l-.95-.69a3.28,3.28,0,0,1,3.24-1.95c1.82,0,3.15.86,3.15,2.72v3.94c0,.38.16.57.61.57A2.67,2.67,0,0,0,573.24,228Zm-2.53-1.68v-1.1l-1.79.33c-1.41.26-2.13.72-2.13,1.48s.54,1,1.46,1C569.53,228,570.71,227.34,570.71,226.28Z"/><path d="M587.45,223.85V229h-1.28v-5a1.79,1.79,0,0,0-1.89-2,2.41,2.41,0,0,0-2.37,2.65V229h-1.28v-5a1.79,1.79,0,0,0-1.89-2,2.47,2.47,0,0,0-2.37,2.77V229h-1.28v-8h1.12l.08,1.25a2.89,2.89,0,0,1,2.56-1.41,3,3,0,0,1,2.76,1.57,3,3,0,0,1,2.78-1.57A2.88,2.88,0,0,1,587.45,223.85Z"/><path d="M597.93,225c0,2.61-1.43,4.16-3.65,4.16a3,3,0,0,1-2.74-1.55l-.08,1.39h-1.12V217.29h1.28v4.93a3,3,0,0,1,2.66-1.41C596.5,220.81,597.93,222.36,597.93,225Zm-1.28,0c0-1.86-.95-3-2.52-3s-2.51,1.13-2.51,2.94v.19c0,1.81,1,2.95,2.51,2.95S596.65,226.83,596.65,225Z"/><path d="M600.1,218.47a1,1,0,1,1,1,1A.9.9,0,0,1,600.1,218.47Zm1.6,10.5h-1.28v-8h1.28Z"/><path d="M611.48,225.45h-6a2.53,2.53,0,0,0,2.61,2.56,2.18,2.18,0,0,0,2.26-1.18l1.07.56a3.44,3.44,0,0,1-3.33,1.74c-2.41,0-3.87-1.57-3.87-4.16s1.36-4.16,3.78-4.16a3.46,3.46,0,0,1,3.58,3.74A6.7,6.7,0,0,1,611.48,225.45Zm-6-1.14h4.85c-.18-1.47-1-2.38-2.35-2.38A2.41,2.41,0,0,0,605.46,224.31Z"/><path d="M621,223.85V229H619.7V224.3c0-1.78-.86-2.37-2-2.37a2.46,2.46,0,0,0-2.48,2.78V229H614v-8h1.12l.08,1.25a2.9,2.9,0,0,1,2.69-1.41A2.86,2.86,0,0,1,621,223.85Z"/><path d="M628.66,228.41a3,3,0,0,1-2.06.72,2,2,0,0,1-2.23-2.14v-4.92h-1.6V221h1.6v-1.92l1.28-.36V221h3v1.1h-3v4.69a1.09,1.09,0,0,0,1.2,1.17,1.81,1.81,0,0,0,1.36-.59Z"/><path d="M637.27,225.45h-6a2.53,2.53,0,0,0,2.61,2.56,2.17,2.17,0,0,0,2.25-1.18l1.07.56a3.42,3.42,0,0,1-3.32,1.74c-2.42,0-3.88-1.57-3.88-4.16s1.36-4.16,3.78-4.16a3.46,3.46,0,0,1,3.58,3.74A6.7,6.7,0,0,1,637.27,225.45Zm-6-1.14h4.85c-.17-1.47-1-2.38-2.35-2.38A2.41,2.41,0,0,0,631.25,224.31Z"/><path d="M641.6,228.6a2.91,2.91,0,0,1-1.74,2.71l-.67-.63a2.32,2.32,0,0,0,1.57-1.63l-.07,0a.68.68,0,0,1-.45.11.93.93,0,0,1-.88-1,1.07,1.07,0,0,1,1-1.07C641.16,227.05,641.6,227.69,641.6,228.6Z"/><path d="M657.3,221v11.36H656v-4.61a3,3,0,0,1-2.66,1.41c-2.23,0-3.65-1.55-3.65-4.16s1.42-4.16,3.65-4.16a3,3,0,0,1,2.74,1.55l.08-1.39ZM656,225.06v-.19c0-1.81-1-2.94-2.52-2.94s-2.51,1.18-2.51,3,.94,3,2.51,3S656,226.87,656,225.06Z"/><path d="M667.2,221v8h-1.12l-.08-1.22a3.08,3.08,0,0,1-2.87,1.38,2.68,2.68,0,0,1-2.94-2.93V221h1.28v4.9c0,1.64.74,2.14,1.89,2.14a2.43,2.43,0,0,0,2.56-2.69V221Z"/><path d="M677,225.45h-6a2.53,2.53,0,0,0,2.61,2.56,2.18,2.18,0,0,0,2.26-1.18l1.07.56a3.44,3.44,0,0,1-3.33,1.74c-2.42,0-3.88-1.57-3.88-4.16s1.37-4.16,3.78-4.16a3.47,3.47,0,0,1,3.59,3.74A5.21,5.21,0,0,1,677,225.45Zm-6-1.14h4.85c-.18-1.47-1-2.38-2.36-2.38A2.41,2.41,0,0,0,671,224.31Z"/><path d="M692.82,228l-.08,1a2.88,2.88,0,0,1-1,.16,1.27,1.27,0,0,1-1.44-1.18,3.14,3.14,0,0,1-2.57,1.18c-1.51,0-2.73-.7-2.73-2.14,0-1.2,1.06-2.15,3.13-2.5l2.12-.35v-.45a1.68,1.68,0,0,0-1.87-1.76,2.35,2.35,0,0,0-2.29,1.52l-.94-.69a3.25,3.25,0,0,1,3.23-1.95c1.83,0,3.16.86,3.16,2.72v3.94c0,.38.16.57.6.57A2.67,2.67,0,0,0,692.82,228Zm-2.53-1.68v-1.1l-1.79.33c-1.41.26-2.13.72-2.13,1.48s.55,1,1.46,1C689.11,228,690.29,227.34,690.29,226.28Z"/><path d="M696.5,221h2.67v1.1H696.5V229h-1.28v-6.9h-1.6V221h1.6v-1.35a2.31,2.31,0,0,1,2.63-2.41,2.22,2.22,0,0,1,1.36.36l-.34,1a1.65,1.65,0,0,0-.91-.24c-.93,0-1.46.42-1.46,1.38Z"/><path d="M707.46,225.45h-6A2.53,2.53,0,0,0,704,228a2.18,2.18,0,0,0,2.26-1.18l1.07.56a3.44,3.44,0,0,1-3.33,1.74c-2.42,0-3.87-1.57-3.87-4.16s1.36-4.16,3.77-4.16a3.47,3.47,0,0,1,3.59,3.74A5.21,5.21,0,0,1,707.46,225.45Zm-6-1.14h4.85c-.18-1.47-1-2.38-2.36-2.38A2.41,2.41,0,0,0,701.45,224.31Z"/><path d="M716.65,222.94l-1.22.57a2.07,2.07,0,0,0-2.13-1.58c-1.6,0-2.56,1.13-2.56,3s1,3,2.56,3a2,2,0,0,0,2.24-1.65l1.19.42a3.4,3.4,0,0,1-3.4,2.35c-2.41,0-3.87-1.57-3.87-4.16s1.46-4.16,3.87-4.16A3.4,3.4,0,0,1,716.65,222.94Z"/><path d="M723.88,228.41a3,3,0,0,1-2.07.72,2,2,0,0,1-2.22-2.14v-4.92H718V221h1.6v-1.92l1.28-.36V221h3v1.1h-3v4.69a1.09,1.09,0,0,0,1.2,1.17,1.81,1.81,0,0,0,1.36-.59Z"/><path d="M732.89,228l-.08,1a2.93,2.93,0,0,1-1,.16,1.26,1.26,0,0,1-1.44-1.18,3.18,3.18,0,0,1-2.58,1.18c-1.5,0-2.72-.7-2.72-2.14,0-1.2,1.06-2.15,3.12-2.5l2.13-.35v-.45a1.68,1.68,0,0,0-1.87-1.76,2.34,2.34,0,0,0-2.29,1.52l-1-.69a3.27,3.27,0,0,1,3.24-1.95c1.82,0,3.15.86,3.15,2.72v3.94c0,.38.16.57.61.57A2.67,2.67,0,0,0,732.89,228Zm-2.53-1.68v-1.1l-1.79.33c-1.41.26-2.13.72-2.13,1.48s.54,1,1.45,1C729.17,228,730.36,227.34,730.36,226.28Z"/><path d="M748.11,225c0,2.61-1.42,4.16-3.65,4.16a3,3,0,0,1-2.65-1.41v4.61h-1.28V221h1.12l.08,1.39a3,3,0,0,1,2.73-1.55C746.69,220.81,748.11,222.36,748.11,225Zm-1.28,0c0-1.86-.94-3-2.51-3s-2.51,1.13-2.51,2.94v.19c0,1.81,1,2.95,2.51,2.95S746.83,226.83,746.83,225Z"/><path d="M755.26,221l-.25,1.25a2.17,2.17,0,0,0-1-.21c-1,0-2.11.85-2.11,2.64V229h-1.28v-8h1l.17,1.31a2.56,2.56,0,0,1,2.56-1.47A2,2,0,0,1,755.26,221Z"/><path d="M756.82,218.47a1,1,0,1,1,1,1A.9.9,0,0,1,756.82,218.47Zm1.6,10.5h-1.29v-8h1.29Z"/><path d="M768.4,223.85V229h-1.28V224.3c0-1.78-.86-2.37-2-2.37a2.46,2.46,0,0,0-2.48,2.78V229h-1.28v-8h1.12l.08,1.25a2.9,2.9,0,0,1,2.69-1.41A2.86,2.86,0,0,1,768.4,223.85Z"/><path d="M778,222.94l-1.22.57a2.07,2.07,0,0,0-2.13-1.58c-1.6,0-2.56,1.13-2.56,3s1,3,2.56,3a2,2,0,0,0,2.24-1.65l1.19.42a3.4,3.4,0,0,1-3.4,2.35c-2.41,0-3.87-1.57-3.87-4.16s1.46-4.16,3.87-4.16A3.4,3.4,0,0,1,778,222.94Z"/><path d="M780,218.47a1,1,0,1,1,1,1A.9.9,0,0,1,780,218.47Zm1.6,10.5h-1.28v-8h1.28Z"/><path d="M792.16,225c0,2.61-1.42,4.16-3.65,4.16a3,3,0,0,1-2.65-1.41v4.61h-1.29V221h1.13l.08,1.39a3,3,0,0,1,2.73-1.55C790.74,220.81,792.16,222.36,792.16,225Zm-1.28,0c0-1.86-.94-3-2.51-3s-2.51,1.13-2.51,2.94v.19c0,1.81,1,2.95,2.51,2.95S790.88,226.83,790.88,225Z"/><path d="M801.86,228l-.08,1a2.93,2.93,0,0,1-1,.16,1.26,1.26,0,0,1-1.44-1.18,3.18,3.18,0,0,1-2.58,1.18c-1.51,0-2.72-.7-2.72-2.14,0-1.2,1-2.15,3.12-2.5l2.13-.35v-.45a1.68,1.68,0,0,0-1.87-1.76,2.34,2.34,0,0,0-2.29,1.52l-.95-.69a3.27,3.27,0,0,1,3.24-1.95c1.82,0,3.15.86,3.15,2.72v3.94c0,.38.16.57.61.57A2.67,2.67,0,0,0,801.86,228Zm-2.53-1.68v-1.1l-1.79.33c-1.41.26-2.13.72-2.13,1.48s.54,1,1.45,1C798.14,228,799.33,227.34,799.33,226.28Z"/><path d="M804.93,226.83c0,.81.2,1.07.86,1.07a2.8,2.8,0,0,0,1.17-.23l-.21,1.24a3.18,3.18,0,0,1-1.18.22c-1.3,0-1.92-.69-1.92-2.14v-9.7h1.28Z"/><path d="M821,223.85V229h-1.28v-5a1.79,1.79,0,0,0-1.89-2,2.41,2.41,0,0,0-2.37,2.65V229h-1.28v-5a1.79,1.79,0,0,0-1.89-2,2.46,2.46,0,0,0-2.36,2.77V229h-1.28v-8h1.12l.08,1.25a2.88,2.88,0,0,1,2.56-1.41,3,3,0,0,1,2.75,1.57,3.07,3.07,0,0,1,2.79-1.57A2.88,2.88,0,0,1,821,223.85Z"/><path d="M830.66,225.45h-6a2.53,2.53,0,0,0,2.61,2.56,2.18,2.18,0,0,0,2.26-1.18l1.07.56a3.44,3.44,0,0,1-3.33,1.74c-2.42,0-3.87-1.57-3.87-4.16s1.36-4.16,3.77-4.16a3.46,3.46,0,0,1,3.59,3.74A6.7,6.7,0,0,1,830.66,225.45Zm-6-1.14h4.85c-.18-1.47-1-2.38-2.36-2.38A2.41,2.41,0,0,0,824.64,224.31Z"/><path d="M840.16,223.85V229h-1.28V224.3c0-1.78-.86-2.37-2-2.37a2.46,2.46,0,0,0-2.48,2.78V229h-1.28v-8h1.12l.08,1.25a3.17,3.17,0,0,1,5.81,1.63Z"/><path d="M847.84,228.41a3,3,0,0,1-2.07.72,2,2,0,0,1-2.22-2.14v-4.92H842V221h1.6v-1.92l1.28-.36V221h3v1.1h-3v4.69a1.09,1.09,0,0,0,1.2,1.17,1.81,1.81,0,0,0,1.36-.59Z"/><path d="M856.45,225.45h-6A2.53,2.53,0,0,0,853,228a2.18,2.18,0,0,0,2.26-1.18l1.07.56a3.44,3.44,0,0,1-3.33,1.74c-2.41,0-3.87-1.57-3.87-4.16s1.36-4.16,3.78-4.16a3.46,3.46,0,0,1,3.58,3.74A6.7,6.7,0,0,1,856.45,225.45Zm-6-1.14h4.85c-.18-1.47-1-2.38-2.35-2.38A2.41,2.41,0,0,0,850.43,224.31Z"/><path d="M872.3,228l-.08,1a2.93,2.93,0,0,1-1,.16,1.26,1.26,0,0,1-1.44-1.18,3.18,3.18,0,0,1-2.58,1.18c-1.51,0-2.72-.7-2.72-2.14,0-1.2,1.05-2.15,3.12-2.5l2.13-.35v-.45a1.68,1.68,0,0,0-1.87-1.76,2.34,2.34,0,0,0-2.29,1.52l-1-.69a3.27,3.27,0,0,1,3.24-1.95c1.82,0,3.15.86,3.15,2.72v3.94c0,.38.16.57.61.57A2.74,2.74,0,0,0,872.3,228Zm-2.53-1.68v-1.1l-1.79.33c-1.41.26-2.13.72-2.13,1.48s.54,1,1.45,1C868.58,228,869.77,227.34,869.77,226.28Z"/><path d="M881.15,226.83c0,.81.21,1.07.87,1.07a2.76,2.76,0,0,0,1.16-.23l-.2,1.24a3.23,3.23,0,0,1-1.19.22c-1.29,0-1.92-.69-1.92-2.14v-9.7h1.28Z"/><path d="M892.08,225c0,2.59-1.45,4.16-3.87,4.16s-3.88-1.57-3.88-4.16,1.46-4.16,3.88-4.16S892.08,222.38,892.08,225Zm-6.46,0c0,1.9,1,3.06,2.59,3.06s2.59-1.16,2.59-3.06-1-3.06-2.59-3.06S885.62,223.06,885.62,225Z"/><path d="M893.84,227.32l1-.72a2.49,2.49,0,0,0,2.53,1.41c1.31,0,1.93-.53,1.93-1.18s-.49-1-2.09-1.24c-2.28-.41-3.11-1-3.11-2.38s1.2-2.4,3.15-2.4c1.72,0,2.73.61,3.17,1.92l-1.08.64a2,2,0,0,0-2.09-1.44c-1.07,0-1.87.57-1.87,1.17s.53,1,2.16,1.31c2.24.37,3,1,3,2.35s-1.29,2.37-3.34,2.37A3.66,3.66,0,0,1,893.84,227.32Z"/><path d="M425.24,239.47a1,1,0,1,1,1,1A.9.9,0,0,1,425.24,239.47Zm1.6,10.5h-1.28v-8h1.28Z"/><path d="M436.83,244.85V250h-1.28V245.3c0-1.78-.87-2.37-2-2.37a2.46,2.46,0,0,0-2.48,2.78V250h-1.28v-8h1.12l.08,1.25a3.17,3.17,0,0,1,5.81,1.63Z"/><path d="M446.83,238.29V250h-1.12l-.09-1.39a3,3,0,0,1-2.73,1.55c-2.23,0-3.65-1.55-3.65-4.16s1.42-4.16,3.65-4.16a3,3,0,0,1,2.66,1.41v-4.93Zm-1.28,7.77v-.19c0-1.81-1-2.94-2.52-2.94s-2.51,1.18-2.51,3,.94,3,2.51,3S445.55,247.87,445.55,246.06Z"/><path d="M449.48,239.47a1,1,0,1,1,1,1A.9.9,0,0,1,449.48,239.47Zm1.6,10.5H449.8v-8h1.28Z"/><path d="M460.7,242l-3.33,8h-1.28l-3.33-8h1.45l2.53,6.7,2.61-6.7Z"/><path d="M462.06,239.47a1,1,0,1,1,1,1A.9.9,0,0,1,462.06,239.47Zm1.6,10.5h-1.28v-8h1.28Z"/><path d="M473.74,238.29V250h-1.12l-.08-1.39a3,3,0,0,1-2.74,1.55c-2.22,0-3.65-1.55-3.65-4.16s1.43-4.16,3.65-4.16a3,3,0,0,1,2.66,1.41v-4.93Zm-1.28,7.77v-.19c0-1.81-1-2.94-2.52-2.94s-2.51,1.18-2.51,3,.95,3,2.51,3S472.46,247.87,472.46,246.06Z"/><path d="M483.64,242v8h-1.12l-.08-1.22a3.07,3.07,0,0,1-2.86,1.38,2.69,2.69,0,0,1-2.95-2.93V242h1.28v4.9c0,1.64.74,2.14,1.89,2.14a2.43,2.43,0,0,0,2.56-2.69V242Z"/><path d="M493.87,246c0,2.59-1.46,4.16-3.88,4.16s-3.87-1.57-3.87-4.16,1.46-4.16,3.87-4.16S493.87,243.38,493.87,246Zm-6.47,0c0,1.9,1,3.06,2.59,3.06s2.6-1.16,2.6-3.06-1-3.06-2.6-3.06S487.4,244.06,487.4,246Z"/><path d="M495.62,248.32l1-.72a2.51,2.51,0,0,0,2.53,1.41c1.31,0,1.94-.53,1.94-1.18s-.5-1-2.1-1.24c-2.27-.41-3.1-1-3.1-2.38s1.2-2.4,3.15-2.4c1.71,0,2.72.61,3.17,1.92l-1.09.64a1.94,1.94,0,0,0-2.08-1.44c-1.07,0-1.87.57-1.87,1.17s.53,1,2.16,1.31c2.24.37,3,1,3,2.35s-1.3,2.37-3.35,2.37A3.66,3.66,0,0,1,495.62,248.32Z"/><path d="M513.91,239.47a1,1,0,1,1,1,1A.9.9,0,0,1,513.91,239.47Zm1.6,10.5h-1.28v-8h1.28Z"/><path d="M525.49,244.85V250h-1.28V245.3c0-1.78-.86-2.37-2-2.37a2.46,2.46,0,0,0-2.48,2.78V250h-1.28v-8h1.12l.08,1.25a2.9,2.9,0,0,1,2.69-1.41A2.86,2.86,0,0,1,525.49,244.85Z"/><path d="M540.74,244.85V250h-1.28v-5a1.79,1.79,0,0,0-1.89-2,2.41,2.41,0,0,0-2.36,2.65V250h-1.29v-5a1.79,1.79,0,0,0-1.88-2,2.46,2.46,0,0,0-2.37,2.77V250h-1.28v-8h1.12l.08,1.25a2.88,2.88,0,0,1,2.56-1.41,3,3,0,0,1,2.75,1.57,3.07,3.07,0,0,1,2.79-1.57A2.88,2.88,0,0,1,540.74,244.85Z"/><path d="M550.56,242v8h-1.12l-.08-1.22a3.07,3.07,0,0,1-2.86,1.38,2.69,2.69,0,0,1-3-2.93V242h1.28v4.9c0,1.64.74,2.14,1.89,2.14a2.43,2.43,0,0,0,2.56-2.69V242Z"/><path d="M560.55,244.85V250h-1.28V245.3c0-1.78-.87-2.37-2-2.37a2.46,2.46,0,0,0-2.48,2.78V250h-1.28v-8h1.12l.08,1.25a3.17,3.17,0,0,1,5.81,1.63Z"/><path d="M570.69,246c0,2.59-1.45,4.16-3.87,4.16S563,248.56,563,246s1.45-4.16,3.87-4.16S570.69,243.38,570.69,246Zm-6.46,0c0,1.9,1,3.06,2.59,3.06s2.59-1.16,2.59-3.06-1-3.06-2.59-3.06S564.23,244.06,564.23,246Z"/><path d="M572.45,248.32l1-.72A2.51,2.51,0,0,0,576,249c1.31,0,1.94-.53,1.94-1.18s-.5-1-2.1-1.24c-2.27-.41-3.11-1-3.11-2.38s1.2-2.4,3.16-2.4c1.71,0,2.72.61,3.17,1.92l-1.09.64a1.94,1.94,0,0,0-2.08-1.44c-1.08,0-1.88.57-1.88,1.17s.53,1,2.17,1.31c2.24.37,3,1,3,2.35s-1.3,2.37-3.35,2.37A3.66,3.66,0,0,1,572.45,248.32Z"/><path d="M588.53,242v8h-1.12l-.08-1.22a3.07,3.07,0,0,1-2.86,1.38,2.69,2.69,0,0,1-3-2.93V242h1.28v4.9c0,1.64.74,2.14,1.89,2.14a2.43,2.43,0,0,0,2.56-2.69V242Z"/><path d="M599.09,246c0,2.61-1.42,4.16-3.65,4.16a3,3,0,0,1-2.65-1.41v4.61H591.5V242h1.13l.08,1.39a3,3,0,0,1,2.73-1.55C597.67,241.81,599.09,243.36,599.09,246Zm-1.28,0c0-1.86-.94-3-2.51-3s-2.51,1.13-2.51,2.94v.19c0,1.81,1,2.95,2.51,2.95S597.81,247.83,597.81,246Z"/><path d="M606.24,242l-.25,1.25a2.2,2.2,0,0,0-1-.21c-1,0-2.11.85-2.11,2.64V250h-1.29v-8h1l.17,1.31a2.56,2.56,0,0,1,2.56-1.47A2,2,0,0,1,606.24,242Z"/><path d="M607.79,239.47a1,1,0,1,1,1,1A.91.91,0,0,1,607.79,239.47Zm1.6,10.5h-1.28v-8h1.28Z"/><path d="M624.73,244.85V250h-1.28v-5a1.79,1.79,0,0,0-1.89-2,2.41,2.41,0,0,0-2.37,2.65V250h-1.28v-5a1.79,1.79,0,0,0-1.89-2,2.46,2.46,0,0,0-2.37,2.77V250h-1.28v-8h1.12l.08,1.25a2.89,2.89,0,0,1,2.56-1.41,3,3,0,0,1,2.75,1.57,3.07,3.07,0,0,1,2.79-1.57A2.88,2.88,0,0,1,624.73,244.85Z"/><path d="M627.3,239.47a1,1,0,1,1,1,1A.9.9,0,0,1,627.3,239.47Zm1.6,10.5h-1.28v-8h1.28Z"/><path d="M639,238.29V250h-1.12l-.08-1.39a3,3,0,0,1-2.74,1.55c-2.22,0-3.65-1.55-3.65-4.16s1.43-4.16,3.65-4.16a3,3,0,0,1,2.66,1.41v-4.93Zm-1.28,7.77v-.19c0-1.81-1-2.94-2.51-2.94s-2.52,1.18-2.52,3,1,3,2.52,3S637.7,247.87,637.7,246.06Z"/><path d="M649.2,246c0,2.59-1.45,4.16-3.87,4.16s-3.87-1.57-3.87-4.16,1.45-4.16,3.87-4.16S649.2,243.38,649.2,246Zm-6.46,0c0,1.9,1,3.06,2.59,3.06s2.59-1.16,2.59-3.06-1-3.06-2.59-3.06S642.74,244.06,642.74,246Z"/><path d="M651,248.32l1-.72a2.5,2.5,0,0,0,2.53,1.41c1.31,0,1.94-.53,1.94-1.18s-.5-1-2.1-1.24c-2.27-.41-3.11-1-3.11-2.38s1.2-2.4,3.16-2.4c1.71,0,2.72.61,3.17,1.92l-1.09.64a1.94,1.94,0,0,0-2.08-1.44c-1.08,0-1.88.57-1.88,1.17s.53,1,2.17,1.31c2.24.37,3,1,3,2.35s-1.3,2.37-3.35,2.37A3.66,3.66,0,0,1,651,248.32Z"/><path d="M662,249.6a2.93,2.93,0,0,1-1.74,2.71l-.67-.63a2.29,2.29,0,0,0,1.56-1.63l-.06,0a.68.68,0,0,1-.45.11.93.93,0,0,1-.88-1,1.07,1.07,0,0,1,1-1.07C661.5,248.05,662,248.69,662,249.6Z"/><path d="M680.62,246.45h-6A2.53,2.53,0,0,0,677.2,249a2.17,2.17,0,0,0,2.25-1.18l1.08.56a3.45,3.45,0,0,1-3.33,1.74c-2.42,0-3.88-1.57-3.88-4.16s1.36-4.16,3.78-4.16a3.47,3.47,0,0,1,3.59,3.74A6.45,6.45,0,0,1,680.62,246.45Zm-6-1.14h4.85c-.17-1.47-1-2.38-2.35-2.38A2.41,2.41,0,0,0,674.6,245.31Z"/><path d="M682.39,248.32l1-.72A2.51,2.51,0,0,0,686,249c1.32,0,1.94-.53,1.94-1.18s-.5-1-2.1-1.24c-2.27-.41-3.1-1-3.1-2.38s1.2-2.4,3.15-2.4c1.71,0,2.72.61,3.17,1.92l-1.09.64a1.94,1.94,0,0,0-2.08-1.44c-1.07,0-1.87.57-1.87,1.17s.53,1,2.16,1.31c2.24.37,3,1,3,2.35s-1.3,2.37-3.34,2.37A3.66,3.66,0,0,1,682.39,248.32Z"/><path d="M699.13,246c0,2.61-1.42,4.16-3.65,4.16a3,3,0,0,1-2.65-1.41v4.61h-1.28V242h1.12l.08,1.39a3,3,0,0,1,2.73-1.55C697.71,241.81,699.13,243.36,699.13,246Zm-1.28,0c0-1.86-.94-3-2.51-3s-2.51,1.13-2.51,2.94v.19c0,1.81,1,2.95,2.51,2.95S697.85,247.83,697.85,246Z"/><path d="M708.43,246.45h-6A2.53,2.53,0,0,0,705,249a2.18,2.18,0,0,0,2.26-1.18l1.07.56a3.44,3.44,0,0,1-3.33,1.74c-2.41,0-3.87-1.57-3.87-4.16s1.36-4.16,3.78-4.16a3.46,3.46,0,0,1,3.58,3.74A6.7,6.7,0,0,1,708.43,246.45Zm-6-1.14h4.85c-.18-1.47-1-2.38-2.35-2.38A2.41,2.41,0,0,0,702.41,245.31Z"/><path d="M717.61,243.94l-1.21.57a2.08,2.08,0,0,0-2.13-1.58c-1.6,0-2.56,1.13-2.56,3s1,3,2.56,3a2,2,0,0,0,2.24-1.65l1.18.42a3.38,3.38,0,0,1-3.39,2.35c-2.42,0-3.87-1.57-3.87-4.16s1.45-4.16,3.87-4.16A3.38,3.38,0,0,1,717.61,243.94Z"/><path d="M719.63,239.47a1,1,0,1,1,1,1A.9.9,0,0,1,719.63,239.47Zm1.6,10.5H720v-8h1.28Z"/><path d="M731.4,249l-.08,1a2.88,2.88,0,0,1-1,.16,1.27,1.27,0,0,1-1.44-1.18,3.14,3.14,0,0,1-2.57,1.18c-1.51,0-2.73-.7-2.73-2.14,0-1.2,1.06-2.15,3.13-2.5l2.13-.35v-.45a1.68,1.68,0,0,0-1.88-1.76,2.36,2.36,0,0,0-2.29,1.52l-.94-.69a3.26,3.26,0,0,1,3.23-1.95c1.83,0,3.16.86,3.16,2.72v3.94c0,.38.16.57.6.57A2.67,2.67,0,0,0,731.4,249Zm-2.52-1.68v-1.1l-1.8.33c-1.41.26-2.13.72-2.13,1.48s.55,1,1.46,1C727.69,249,728.88,248.34,728.88,247.28Z"/><path d="M734.47,247.83c0,.81.21,1.07.87,1.07a2.83,2.83,0,0,0,1.17-.23l-.21,1.24a3.23,3.23,0,0,1-1.19.22c-1.29,0-1.92-.69-1.92-2.14v-9.7h1.28Z"/><path d="M750.51,244.85V250h-1.28v-5a1.79,1.79,0,0,0-1.89-2,2.41,2.41,0,0,0-2.37,2.65V250h-1.28v-5a1.79,1.79,0,0,0-1.89-2,2.47,2.47,0,0,0-2.37,2.77V250h-1.28v-8h1.12l.08,1.25a2.89,2.89,0,0,1,2.56-1.41,3,3,0,0,1,2.76,1.57,3,3,0,0,1,2.78-1.57A2.88,2.88,0,0,1,750.51,244.85Z"/><path d="M760.2,246.45h-6a2.53,2.53,0,0,0,2.61,2.56,2.18,2.18,0,0,0,2.26-1.18l1.07.56a3.44,3.44,0,0,1-3.33,1.74c-2.42,0-3.88-1.57-3.88-4.16s1.36-4.16,3.78-4.16a3.47,3.47,0,0,1,3.59,3.74A5.21,5.21,0,0,1,760.2,246.45Zm-6-1.14H759c-.18-1.47-1-2.38-2.36-2.38A2.42,2.42,0,0,0,754.18,245.31Z"/><path d="M769.71,244.85V250h-1.28V245.3c0-1.78-.87-2.37-2-2.37a2.46,2.46,0,0,0-2.48,2.78V250H762.7v-8h1.12l.08,1.25a3.17,3.17,0,0,1,5.81,1.63Z"/><path d="M777.39,249.41a3,3,0,0,1-2.07.72A2,2,0,0,1,773.1,248v-4.92h-1.6V242h1.6v-1.92l1.28-.36V242h3v1.1h-3v4.69a1.08,1.08,0,0,0,1.2,1.17,1.83,1.83,0,0,0,1.36-.59Z"/><path d="M786,246.45h-6a2.53,2.53,0,0,0,2.61,2.56,2.18,2.18,0,0,0,2.26-1.18l1.07.56a3.44,3.44,0,0,1-3.33,1.74c-2.42,0-3.87-1.57-3.87-4.16s1.36-4.16,3.77-4.16a3.47,3.47,0,0,1,3.59,3.74A5.21,5.21,0,0,1,786,246.45Zm-6-1.14h4.85c-.18-1.47-1-2.38-2.36-2.38A2.41,2.41,0,0,0,780,245.31Z"/><path d="M805.14,249l-.08,1a2.88,2.88,0,0,1-1,.16,1.26,1.26,0,0,1-1.44-1.18,3.15,3.15,0,0,1-2.58,1.18c-1.5,0-2.72-.7-2.72-2.14,0-1.2,1.06-2.15,3.12-2.5l2.13-.35v-.45a1.68,1.68,0,0,0-1.87-1.76,2.34,2.34,0,0,0-2.29,1.52l-.94-.69a3.25,3.25,0,0,1,3.23-1.95c1.82,0,3.15.86,3.15,2.72v3.94c0,.38.16.57.61.57A2.67,2.67,0,0,0,805.14,249Zm-2.53-1.68v-1.1l-1.79.33c-1.41.26-2.13.72-2.13,1.48s.55,1,1.46,1C801.43,249,802.61,248.34,802.61,247.28Z"/><path d="M814.12,242v11.36h-1.28v-4.61a3,3,0,0,1-2.66,1.41c-2.22,0-3.65-1.55-3.65-4.16s1.43-4.16,3.65-4.16a3,3,0,0,1,2.74,1.55L813,242Zm-1.28,4.09v-.19c0-1.81-1-2.94-2.51-2.94s-2.52,1.18-2.52,3,1,3,2.52,3S812.84,247.87,812.84,246.06Z"/><path d="M824,242v8H822.9l-.08-1.22a3.07,3.07,0,0,1-2.86,1.38,2.69,2.69,0,0,1-3-2.93V242h1.28v4.9c0,1.64.74,2.14,1.89,2.14a2.43,2.43,0,0,0,2.56-2.69V242Z"/><path d="M833.8,246.45h-6a2.53,2.53,0,0,0,2.61,2.56,2.18,2.18,0,0,0,2.26-1.18l1.07.56a3.44,3.44,0,0,1-3.33,1.74c-2.41,0-3.87-1.57-3.87-4.16s1.36-4.16,3.78-4.16a3.46,3.46,0,0,1,3.58,3.74A6.7,6.7,0,0,1,833.8,246.45Zm-6-1.14h4.85c-.18-1.47-1-2.38-2.35-2.38A2.41,2.41,0,0,0,827.78,245.31Z"/><path d="M837.51,247.83c0,.81.2,1.07.86,1.07a2.8,2.8,0,0,0,1.17-.23l-.21,1.24a3.18,3.18,0,0,1-1.18.22c-1.3,0-1.92-.69-1.92-2.14v-9.7h1.28Z"/><path d="M842.4,247.83c0,.81.21,1.07.87,1.07a2.83,2.83,0,0,0,1.17-.23l-.21,1.24a3.23,3.23,0,0,1-1.19.22c-1.29,0-1.92-.69-1.92-2.14v-9.7h1.28Z"/><path d="M853.33,246c0,2.59-1.45,4.16-3.87,4.16s-3.87-1.57-3.87-4.16,1.45-4.16,3.87-4.16S853.33,243.38,853.33,246Zm-6.46,0c0,1.9,1,3.06,2.59,3.06s2.59-1.16,2.59-3.06-1-3.06-2.59-3.06S846.87,244.06,846.87,246Z"/><path d="M855.09,248.32l1-.72a2.5,2.5,0,0,0,2.53,1.41c1.31,0,1.94-.53,1.94-1.18s-.5-1-2.1-1.24c-2.27-.41-3.11-1-3.11-2.38s1.2-2.4,3.16-2.4c1.71,0,2.72.61,3.17,1.92l-1.09.64a1.94,1.94,0,0,0-2.08-1.44c-1.08,0-1.88.57-1.88,1.17s.53,1,2.16,1.31c2.25.37,3,1,3,2.35s-1.3,2.37-3.35,2.37A3.66,3.66,0,0,1,855.09,248.32Z"/><path d="M880.82,242v11.36h-1.28v-4.61a3,3,0,0,1-2.66,1.41c-2.22,0-3.65-1.55-3.65-4.16s1.43-4.16,3.65-4.16a3,3,0,0,1,2.74,1.55l.08-1.39Zm-1.28,4.09v-.19c0-1.81-1-2.94-2.52-2.94s-2.51,1.18-2.51,3,1,3,2.51,3S879.54,247.87,879.54,246.06Z"/><path d="M890.72,242v8H889.6l-.08-1.22a3.07,3.07,0,0,1-2.86,1.38,2.69,2.69,0,0,1-2.95-2.93V242H885v4.9c0,1.64.74,2.14,1.89,2.14a2.43,2.43,0,0,0,2.56-2.69V242Z"/><path d="M900.5,246.45h-6a2.53,2.53,0,0,0,2.61,2.56,2.18,2.18,0,0,0,2.26-1.18l1.07.56a3.44,3.44,0,0,1-3.33,1.74c-2.41,0-3.87-1.57-3.87-4.16s1.36-4.16,3.78-4.16a3.46,3.46,0,0,1,3.58,3.74A6.7,6.7,0,0,1,900.5,246.45Zm-6-1.14h4.85c-.18-1.47-1-2.38-2.35-2.38A2.41,2.41,0,0,0,894.48,245.31Z"/><path d="M432.2,263l-3.33,8h-1.28l-3.33-8h1.46l2.53,6.7,2.61-6.7Z"/><path d="M433.56,260.47a1,1,0,1,1,1,1A.9.9,0,0,1,433.56,260.47Zm1.6,10.5h-1.28v-8h1.28Z"/><path d="M444.78,263l-3.33,8h-1.28l-3.33-8h1.45l2.53,6.7,2.61-6.7Z"/><path d="M453.26,267.45h-6a2.53,2.53,0,0,0,2.61,2.56,2.18,2.18,0,0,0,2.26-1.18l1.07.56a3.44,3.44,0,0,1-3.33,1.74c-2.41,0-3.87-1.57-3.87-4.16s1.36-4.16,3.78-4.16a3.46,3.46,0,0,1,3.58,3.74A6.7,6.7,0,0,1,453.26,267.45Zm-6-1.14h4.85c-.18-1.47-1-2.38-2.35-2.38A2.41,2.41,0,0,0,447.24,266.31Z"/><path d="M462.76,265.85V271h-1.28V266.3c0-1.78-.86-2.37-2-2.37a2.46,2.46,0,0,0-2.48,2.78V271h-1.28v-8h1.12l.08,1.25a2.9,2.9,0,0,1,2.69-1.41A2.86,2.86,0,0,1,462.76,265.85Z"/><path d="M477.8,264.94l-1.22.57a2.06,2.06,0,0,0-2.12-1.58c-1.6,0-2.57,1.13-2.57,3s1,3,2.57,3a2.05,2.05,0,0,0,2.24-1.65l1.18.42a3.39,3.39,0,0,1-3.39,2.35c-2.42,0-3.88-1.57-3.88-4.16s1.46-4.16,3.88-4.16A3.38,3.38,0,0,1,477.8,264.94Z"/><path d="M487.39,267c0,2.59-1.46,4.16-3.88,4.16s-3.87-1.57-3.87-4.16,1.46-4.16,3.87-4.16S487.39,264.38,487.39,267Zm-6.47,0c0,1.9,1,3.06,2.59,3.06s2.6-1.16,2.6-3.06-1-3.06-2.6-3.06S480.92,265.06,480.92,267Z"/><path d="M496.87,265.85V271h-1.28V266.3c0-1.78-.86-2.37-2-2.37a2.46,2.46,0,0,0-2.48,2.78V271h-1.28v-8H491l.08,1.25a2.9,2.9,0,0,1,2.69-1.41A2.86,2.86,0,0,1,496.87,265.85Z"/><path d="M512,267.45h-6A2.53,2.53,0,0,0,508.6,270a2.18,2.18,0,0,0,2.26-1.18l1.07.56a3.44,3.44,0,0,1-3.33,1.74c-2.42,0-3.87-1.57-3.87-4.16s1.36-4.16,3.77-4.16a3.47,3.47,0,0,1,3.59,3.74A5.21,5.21,0,0,1,512,267.45Zm-6-1.14h4.85c-.18-1.47-1-2.38-2.36-2.38A2.41,2.41,0,0,0,506,266.31Z"/><path d="M515.73,268.83c0,.81.21,1.07.87,1.07a2.83,2.83,0,0,0,1.17-.23l-.21,1.24a3.22,3.22,0,0,1-1.18.22c-1.3,0-1.93-.69-1.93-2.14v-9.7h1.28Z"/><path d="M528.2,271h-1.46l-4-10.56h1.37l2.69,7.3.67,2.09.68-2.08,2.69-7.31h1.37Z"/><path d="M535.66,271h-1.28V260.41h1.28Z"/><path d="M547.4,260.41V271h-1.28v-4.75h-5.73V271h-1.28V260.41h1.28V265h5.73v-4.61Z"/><path d="M550.78,272.09h-1.2l4.89-12.8h1.2Z"/><path d="M556.34,269.32l1-.72a2.51,2.51,0,0,0,2.53,1.41c1.31,0,1.94-.53,1.94-1.18s-.5-.95-2.1-1.24c-2.27-.41-3.1-1-3.1-2.38s1.2-2.4,3.15-2.4c1.71,0,2.72.61,3.17,1.92l-1.09.64a1.94,1.94,0,0,0-2.08-1.44c-1.07,0-1.87.57-1.87,1.17s.53,1,2.16,1.31c2.24.37,3,1,3,2.35s-1.3,2.37-3.35,2.37A3.66,3.66,0,0,1,556.34,269.32Z"/><path d="M565.17,260.47a1,1,0,1,1,1,1A.91.91,0,0,1,565.17,260.47Zm1.61,10.5h-1.29v-8h1.29Z"/><path d="M576.86,259.29V271h-1.12l-.08-1.39a3,3,0,0,1-2.74,1.55c-2.23,0-3.65-1.55-3.65-4.16s1.42-4.16,3.65-4.16a3,3,0,0,1,2.66,1.41v-4.93Zm-1.28,7.77v-.19c0-1.81-1-2.94-2.52-2.94s-2.51,1.18-2.51,3,1,3,2.51,3S575.58,268.87,575.58,267.06Z"/><path d="M587,270l-.08,1a2.88,2.88,0,0,1-1,.16,1.27,1.27,0,0,1-1.44-1.18,3.14,3.14,0,0,1-2.57,1.18c-1.51,0-2.73-.7-2.73-2.14,0-1.2,1.06-2.15,3.13-2.5l2.12-.35v-.45a1.68,1.68,0,0,0-1.87-1.76,2.35,2.35,0,0,0-2.29,1.52l-.94-.69a3.25,3.25,0,0,1,3.23-1.95c1.83,0,3.16.86,3.16,2.72v3.94c0,.38.16.57.6.57A2.67,2.67,0,0,0,587,270Zm-2.53-1.68v-1.1l-1.79.33c-1.41.26-2.13.72-2.13,1.48s.55,1,1.46,1C583.32,270,584.5,269.34,584.5,268.28Z"/><path d="M590.57,270.09a1,1,0,1,1-1-1A1,1,0,0,1,590.57,270.09Z"/></g></g></g></svg>