<?xml version="1.0" encoding="UTF-8"?>
<svg id="Dra_video" data-name="Dra video" xmlns="http://www.w3.org/2000/svg" viewBox="0 0 391 477">
  <defs>
    <style>
      .cls-1 {
        fill: #e95f69;
      }

      .cls-2 {
        fill: #ee9d75;
      }

      .cls-3 {
        fill: #e14255;
      }

      .cls-4 {
        fill: #df2b47;
      }

      .cls-5 {
        fill: #ec4e44;
      }

      .cls-6 {
        fill: #edafb8;
      }

      .cls-7 {
        fill: #e53a4c;
      }

      .cls-8 {
        fill: #d7354a;
      }

      .cls-9 {
        fill: #ce3544;
      }

      .cls-10 {
        fill: #e03e4d;
      }

      .cls-11 {
        fill: #fcfcfd;
      }

      .cls-12 {
        fill: #473117;
      }

      .cls-13 {
        fill: #de394a;
      }

      .cls-14 {
        fill: #d7333a;
      }

      .cls-15 {
        fill: #df3346;
      }

      .cls-16 {
        fill: #ffd4d4;
      }

      .cls-17 {
        fill: #fff;
      }

      .cls-18 {
        fill: #e13f4c;
      }

      .cls-19 {
        fill: #34220e;
      }

      .cls-20 {
        fill: #de4449;
      }

      .cls-21 {
        fill: #d44351;
      }

      .cls-22 {
        fill: #d14036;
      }

      .cls-23 {
        fill: #fe8e9d;
      }

      .cls-24 {
        fill: #e24252;
      }

      .cls-25 {
        fill: #e3585a;
      }

      .cls-26 {
        fill: #e25260;
      }

      .cls-27 {
        fill: #ea2e39;
      }

      .cls-28 {
        fill: #ff9a7e;
      }

      .cls-29 {
        fill: #e53b4a;
      }

      .cls-30 {
        fill: #dd4650;
      }

      .cls-31 {
        fill: #df4756;
      }

      .cls-32 {
        fill: #d93c47;
      }

      .cls-33 {
        fill: #e05361;
      }

      .cls-34 {
        fill: #fe737e;
      }

      .cls-35 {
        fill: #ffd6e8;
      }

      .cls-36 {
        fill: #ffe0ec;
      }

      .cls-37 {
        fill: #fe6c76;
      }

      .cls-38 {
        fill: #ea3b48;
      }

      .cls-39 {
        fill: #dd454d;
      }

      .cls-40 {
        fill: #c83e4d;
      }

      .cls-41 {
        fill: #dd8691;
      }

      .cls-42 {
        fill: #df454c;
      }

      .cls-43 {
        fill: #fff7f1;
      }

      .cls-44 {
        fill: #e34847;
      }

      .cls-45 {
        fill: #ee4d56;
      }

      .cls-46 {
        fill: #e2413f;
      }

      .cls-47 {
        fill: #edc4a6;
      }

      .cls-48 {
        fill: #dd474d;
      }

      .cls-49 {
        stroke-width: .75px;
      }

      .cls-49, .cls-50 {
        stroke: #e5b897;
      }

      .cls-49, .cls-50, .cls-51 {
        stroke-linecap: round;
      }

      .cls-49, .cls-50, .cls-51, .cls-52 {
        fill: none;
      }

      .cls-49, .cls-50, .cls-52 {
        stroke-miterlimit: 10;
      }

      .cls-53 {
        fill: #fefcf3;
      }

      .cls-54 {
        fill: #de3e48;
      }

      .cls-55 {
        fill: #211b1b;
      }

      .cls-56 {
        fill: #e86e5a;
      }

      .cls-57 {
        fill: #dc434b;
      }

      .cls-58 {
        fill: #d44d3e;
      }

      .cls-59 {
        opacity: .42;
      }

      .cls-59, .cls-60 {
        fill: #e3e3e3;
      }

      .cls-61 {
        fill: #fed6d8;
      }

      .cls-62 {
        fill: #f86978;
      }

      .cls-63 {
        fill: #db3a4a;
      }

      .cls-64 {
        fill: #ee767c;
      }

      .cls-65 {
        fill: #dc4455;
      }

      .cls-66 {
        fill: #fdcbc8;
      }

      .cls-67 {
        fill: #d44b41;
      }

      .cls-68 {
        fill: #f67d6e;
      }

      .cls-69 {
        fill: #e4324a;
      }

      .cls-70 {
        fill: #c8392f;
      }

      .cls-71 {
        fill: #e0404d;
      }

      .cls-72 {
        fill: #efb88f;
      }

      .cls-73 {
        fill: #ffb3d0;
      }

      .cls-74 {
        fill: #ef444e;
      }

      .cls-75 {
        fill: #e33a48;
      }

      .cls-76 {
        fill: #fcfbf3;
      }

      .cls-77 {
        fill: #d26260;
      }

      .cls-78 {
        fill: #fed1d2;
      }

      .cls-79 {
        fill: #eb555a;
      }

      .cls-80 {
        fill: #fef6f3;
      }

      .cls-81 {
        fill: #fefef8;
      }

      .cls-82 {
        fill: #e13e47;
      }

      .cls-83 {
        fill: #e5b897;
      }

      .cls-84 {
        fill: #ffdcde;
      }

      .cls-85 {
        fill: #d23c46;
      }

      .cls-86 {
        fill: #074959;
      }

      .cls-87 {
        opacity: .05;
      }

      .cls-88 {
        fill: #df424d;
      }

      .cls-89 {
        fill: #e4464c;
      }

      .cls-90 {
        fill: #ffdadc;
      }

      .cls-91 {
        fill: #db5158;
      }

      .cls-92 {
        fill: #c62f3c;
      }

      .cls-93 {
        fill: #d94748;
      }

      .cls-94 {
        fill: #d94b3e;
      }

      .cls-95 {
        fill: #d93949;
      }

      .cls-96 {
        fill: #ed6b65;
      }

      .cls-97 {
        fill: #e24147;
      }

      .cls-98 {
        fill: #e9394a;
      }

      .cls-99 {
        fill: #f96369;
      }

      .cls-100 {
        fill: #c0362d;
      }

      .cls-101 {
        opacity: .07;
      }

      .cls-102 {
        fill: #da394b;
      }

      .cls-103 {
        fill: #e3464a;
      }

      .cls-104 {
        fill: #fbf1e1;
      }

      .cls-105 {
        fill: #da454e;
      }

      .cls-106 {
        fill: #fca8b1;
      }

      .cls-107 {
        fill: #f08c75;
      }

      .cls-108 {
        fill: #dc3f45;
      }

      .cls-109 {
        fill: #fd98ad;
      }

      .cls-110 {
        fill: #603813;
      }

      .cls-111 {
        fill: #e7717b;
      }

      .cls-112 {
        fill: #e03e48;
      }

      .cls-113 {
        fill: #de4150;
      }

      .cls-114 {
        fill: #fefbf8;
      }

      .cls-115 {
        fill: #f1d0d2;
      }

      .cls-116 {
        fill: #dc3c45;
      }

      .cls-117 {
        fill: #e04e41;
      }

      .cls-118 {
        fill: #bdd0e7;
      }

      .cls-119 {
        fill: #da3f4e;
      }

      .cls-120 {
        fill: #e25b49;
      }

      .cls-121 {
        fill: #f08387;
      }

      .cls-122 {
        fill: #f0343c;
      }

      .cls-123 {
        fill: #fed2d8;
      }

      .cls-124 {
        fill: #f85458;
      }

      .cls-125 {
        fill: #fececa;
      }

      .cls-126 {
        fill: #c14940;
      }

      .cls-127 {
        fill: #fa706b;
      }

      .cls-128 {
        fill: #fefafb;
      }

      .cls-129 {
        fill: #e3404c;
      }

      .cls-130 {
        fill: #fefbf7;
      }

      .cls-131 {
        fill: #e2284a;
      }

      .cls-132 {
        fill: #c1282f;
      }

      .cls-133 {
        fill: #fef8f9;
      }

      .cls-134 {
        fill: #d03e4c;
      }

      .cls-135 {
        fill: #fdeae2;
      }

      .cls-136 {
        fill: #dc3f4c;
      }

      .cls-137 {
        fill: #d15b41;
      }

      .cls-138 {
        fill: #f39b96;
      }

      .cls-139 {
        fill: #fe7b89;
      }

      .cls-140 {
        fill: #d97673;
      }

      .cls-141 {
        fill: #f97f76;
      }

      .cls-142 {
        fill: #e36a6c;
      }

      .cls-143 {
        fill: #f25f70;
      }

      .cls-144 {
        fill: #e03a4d;
      }

      .cls-145 {
        fill: #ed5055;
      }

      .cls-146 {
        fill: #f65961;
      }

      .cls-147 {
        fill: #d03748;
      }

      .cls-148 {
        fill: #ec6e54;
      }

      .cls-149 {
        fill: #dd414d;
      }

      .cls-150 {
        fill: #fdc2ca;
      }

      .cls-151 {
        fill: #e7323a;
      }

      .cls-152 {
        fill: #fef0e9;
      }

      .cls-153 {
        fill: #dc4651;
      }

      .cls-154 {
        fill: #dc534b;
      }

      .cls-155 {
        fill: #bd3d3b;
      }

      .cls-156 {
        fill: #c73b40;
      }

      .cls-157 {
        fill: #e83d46;
      }

      .cls-158 {
        fill: #fef1ec;
      }

      .cls-159 {
        fill: #fec5dc;
      }

      .cls-160 {
        fill: #df3f48;
      }

      .cls-161 {
        fill: #ea294e;
      }

      .cls-162 {
        fill: #c8c8c8;
      }

      .cls-163 {
        fill: #e13247;
      }

      .cls-164 {
        fill: #eb6c6d;
      }

      .cls-165 {
        fill: #f97d6a;
      }

      .cls-51 {
        stroke: #000;
        stroke-linejoin: round;
        stroke-width: 3px;
      }

      .cls-166 {
        fill: #c33630;
      }

      .cls-167 {
        fill: #fed5d9;
      }

      .cls-168 {
        fill: #d8453e;
      }

      .cls-169 {
        fill: #c44d3a;
      }

      .cls-170 {
        fill: #db444f;
      }

      .cls-171 {
        fill: #fcfdf6;
      }

      .cls-172 {
        fill: #fbfcf4;
      }

      .cls-173 {
        fill: #e13f49;
      }

      .cls-174 {
        fill: #e03e4c;
      }

      .cls-175 {
        fill: #dc5657;
      }

      .cls-176 {
        fill: #fdfbfa;
      }

      .cls-177 {
        fill: #eb7f68;
      }

      .cls-178 {
        fill: #fdd4d5;
      }

      .cls-179 {
        fill: #e16a5a;
      }

      .cls-180 {
        fill: #d93f43;
      }

      .cls-181 {
        fill: #f54b54;
      }

      .cls-182 {
        opacity: .49;
      }

      .cls-183 {
        fill: #e43c49;
      }

      .cls-184 {
        fill: #e87779;
      }

      .cls-185 {
        fill: #f49f79;
      }

      .cls-186 {
        fill: #fe9fbd;
      }

      .cls-187 {
        fill: #c83a48;
      }

      .cls-188 {
        fill: #db4251;
      }

      .cls-189 {
        fill: #d4384a;
      }

      .cls-190 {
        fill: #f5a0a9;
      }

      .cls-191 {
        fill: #e57a60;
      }

      .cls-192 {
        fill: #d7434e;
      }

      .cls-193 {
        fill: #bd4430;
      }

      .cls-194 {
        fill: #d94655;
      }

      .cls-195 {
        fill: #e03f4d;
      }

      .cls-196 {
        fill: #ffd9d4;
      }

      .cls-197 {
        fill: #e54d51;
      }

      .cls-198 {
        fill: #df3e48;
      }

      .cls-199 {
        fill: #e84c56;
      }

      .cls-200 {
        fill: #db3d48;
      }

      .cls-201 {
        fill: #dd2f49;
      }

      .cls-202 {
        fill: #ea4e5b;
      }

      .cls-203 {
        fill: #f36577;
      }

      .cls-204 {
        fill: #fcf9fc;
      }

      .cls-205 {
        fill: #e43c50;
      }

      .cls-206 {
        fill: #dc424e;
      }

      .cls-207 {
        fill: #ef5e65;
      }

      .cls-208 {
        fill: #e5314c;
      }

      .cls-209 {
        fill: #fdfaf8;
      }

      .cls-210 {
        fill: #e3353e;
      }

      .cls-211 {
        fill: #050303;
      }

      .cls-212 {
        fill: #e43e47;
      }

      .cls-213 {
        fill: #e04148;
      }

      .cls-214 {
        fill: #ed3a4a;
      }

      .cls-215 {
        fill: #e0394d;
      }

      .cls-216 {
        fill: #d25944;
      }

      .cls-217 {
        fill: #e83845;
      }

      .cls-218 {
        fill: #dd393c;
      }

      .cls-219 {
        fill: #e43c45;
      }

      .cls-220 {
        fill: #d84350;
      }

      .cls-221 {
        fill: #e53d41;
      }

      .cls-222 {
        fill: #c9312f;
      }

      .cls-52 {
        stroke: #c8c8c8;
        stroke-width: 2px;
      }

      .cls-223 {
        fill: #e73a48;
      }

      .cls-224 {
        fill: #ef4e5a;
      }

      .cls-225 {
        fill: #f9a881;
      }

      .cls-226 {
        fill: #fee9e6;
      }

      .cls-227 {
        fill: #feeced;
      }

      .cls-228 {
        fill: #fefaf9;
      }

      .cls-229 {
        fill: #fef0e8;
      }

      .cls-230 {
        fill: #f4e4e2;
      }

      .cls-231 {
        fill: #dc626e;
      }

      .cls-232 {
        fill: #e54355;
      }

      .cls-233 {
        fill: #dd3737;
      }

      .cls-234 {
        fill: #e33a50;
      }

      .cls-235 {
        fill: #ff8ca5;
      }

      .cls-236 {
        fill: #feb4ad;
      }

      .cls-237 {
        fill: #d53d3e;
      }

      .cls-238 {
        fill: #dd8585;
      }

      .cls-239 {
        fill: #f48772;
      }

      .cls-240 {
        fill: #f4f5f4;
      }

      .cls-241 {
        fill: #e7454f;
      }

      .cls-242 {
        fill: #fee2dc;
      }

      .cls-243 {
        fill: #db4150;
      }

      .cls-244 {
        fill: #d63a45;
      }

      .cls-245 {
        fill: #fabbb6;
      }

      .cls-246 {
        fill: #e93748;
      }

      .cls-247 {
        fill: #e54f5d;
      }

      .cls-248 {
        fill: #e44c55;
      }

      .cls-249 {
        fill: #ff8698;
      }

      .cls-250 {
        fill: #fef9f4;
      }

      .cls-251 {
        fill: #e33d4e;
      }

      .cls-252 {
        fill: #e03d4a;
      }

      .cls-253 {
        fill: #feb7bc;
      }

      .cls-254 {
        fill: #d7414d;
      }

      .cls-255 {
        fill: #dc3f4b;
      }

      .cls-256 {
        fill: #fee9e1;
      }

      .cls-257 {
        fill: #ea3249;
      }

      .cls-258 {
        fill: #e33a4e;
      }

      .cls-259 {
        fill: #df3f4d;
      }

      .cls-260 {
        fill: #e73a4c;
      }

      .cls-261 {
        fill: #f6b385;
      }

      .cls-262 {
        fill: #e53b4e;
      }

      .cls-263 {
        fill: #fddbe0;
      }

      .cls-264 {
        fill: #e46148;
      }

      .cls-265 {
        fill: #de424f;
      }

      .cls-266 {
        fill: #d03946;
      }

      .cls-267 {
        fill: #de414c;
      }

      .cls-268 {
        fill: #c98967;
      }

      .cls-269 {
        fill: #e24f53;
      }

      .cls-270 {
        fill: #f7f8fa;
      }

      .cls-271 {
        fill: #df2e4b;
      }

      .cls-272 {
        fill: #dd3140;
      }

      .cls-273 {
        fill: #cd2d32;
      }

      .cls-274 {
        fill: #fec7c4;
      }
    </style>
  </defs>
  <path class="cls-110" d="m111.17,76.45c-20.4,31.47-22.55,83.3,5.73,110.53,15.32,13.23,37.19,15.14,57.43,15.08,32.82,2.28,53.84-13.68,64.56-44.38,17.19-34.44-4.2-72.73-27.44-98.61-31.06-18.27-78.58-13.37-100.28,17.38Z"/>
  <path class="cls-19" d="m130.87,110.31c-7.03,5.58-11.79,13.53-13.4,22.37-15.07,53.26,40.22,81.81,77.87,63.72,28.04-8.97,34.74-72.22.06-87.1-11.2-6.18-33.23-21.88-64.54,1.01Z"/>
  <path class="cls-47" d="m312.12,239.44c-6.19-15.75-5.25-31.36.21-47.34,2.4-3.22,9.88.37,13.21-1.87,5.05-8.21,6.14-19.07,10.06-28,.81-4,6.17-9.17,9.26-4.52-.67,12.09-5.07,24.53-9.52,35.82,7.7-10.49,19-2.86,10.66,7.71,9.63-5.81,14.35,2.06,7.41,9.51,7-2.64,12.38,1.81,8.42,8.68-.64,1.44-3.28,2.26-3.36,3.84-.25,5.09.24,3.15-4.38,13.33-9.35,11.68-10.5,7.68-15.2,24.86-1.34,3.44-.69,7.56-2,11-.57,1.06-29.82-8.54-29.82-8.54,1.05-5.84,5.48-17.85,5.05-24.48Z"/>
  <path class="cls-49" d="m335.95,214.5c-1.78,4.31,3.84,9.6,7.66,6.37"/>
  <path class="cls-49" d="m344.05,220.51c-1.45,4,.93,8.95,5.63,6.76"/>
  <path class="cls-83" d="m359.46,222.72c-.06,2.85-.57,5.67-1.52,8.36-1.04,2.69-2.62,5.15-4.65,7.2-2,2.07-4.15,3.84-6.08,5.76-1.95,1.84-3.56,4-4.77,6.39-.28.55-.95.78-1.5.5s-.78-.95-.5-1.5h0c1.41-2.55,3.25-4.83,5.44-6.75,2.1-1.92,4.32-3.59,6.26-5.49,1.97-1.84,3.54-4.07,4.61-6.55,1-2.54,1.59-5.22,1.76-7.94h0c.03-.26.25-.44.51-.42.24.01.43.2.44.44Z"/>
  <path class="cls-55" d="m187.01,392.68c1.34-.17,2.28.75,1.97,2.16-2.1,23.85-1.63,47.86-1.17,71.81-12.8.4-25.61.45-38.41.16.05-20.75-.11-41.51.14-62.26.1-8.31.86-11.72,9.42-11.83,9.35-.12,18.7-.04,28.05-.05Z"/>
  <polygon class="cls-101" points="228.33 274.97 227.34 288.97 236.25 307.81 228.33 274.97"/>
  <path class="cls-118" d="m196.99,245.99c-3.19,49.86-18.18,100.07-20.34,149.99-6.09.4-12.64-.34-16.86-.11-.4-25.79-2.27-51.08-2.76-76.86-1-24.93-15.06-52.12-15.05-76.99,10.69,2.16,44.1,4.91,55,3.96Z"/>
  <path class="cls-240" d="m341.26,271.8c-4.03,32.08-23.85,60.73-31.33,92.43-5.11,13.52-21.5,17.42-32.25,7.73-17.95-18.76-28.71-43.68-43.55-64.94,5.87,19.04-27.67,60.17-32.83,84.4-4.03,7.3,5.02,9.58,9.11,13.55,14.03,17.52,29,38.44,30.04,60.98-16.62,5.39-42.02.22-59.32,1.04-12.39-72.74-1.09-140-1.09-140l16.95-78.01s2.79-8.33.99-16c-1.91-8.14-17.89-17.35-14.01-19.99,3.42-2.33,16,4.99,16,4.99,0,0,5.85,3.39,8.23,12.02,3.02,4.9,9.6,6.62,15.35,6.71,21.69-1.06,51.21,55.28,61.34,73.27,7.79-17.25,14.3-35.08,19.46-53.29,11.13,3.56,22.26,7.12,33.4,10.67,2.21.52,4.03,2.05,3.51,4.44Z"/>
  <path class="cls-270" d="m161.15,459.18c-.32,2.88-1.01,7.83-1.01,7.83,0,0-17,.01-22.92-.72-2.47-.3-37.15-2.27-44.44-1.34,4.57-16.13,11.6-33.77,19-48.62,6.35-13.09,19.4-17.45,12.63-33.3-3.01-10-3.94-17.13-8.02-26.99-1.51-3.75-1.55-12.61-5.09-15.11-12.59-11.7-9.45-25.68-10.95-41.88-41.14,68.27-69.07,41.61,3.05,101.37,12.23,8.35-14.41,8.81-19.96,36.64-25.73-19.09-52.97-38.69-69.25-66.99-16.92-25.7,29.4-58.52,42-79.59,8.03-10.82,14.74-22.6,23.03-33.22,8.29-10.63,18.51-20.28,31.14-24.97,6.87-2.54,14.73-3.81,19.69-9.2,7.25-10.9,23.93-11.08,23.93-11.08,0,0-4,6-7.99,10.01-1.27,1.27-7.88,4.35-8,7.01-.27,6.17,7.02,28,7.02,28,0,0,17.67,50.94,15.05,83.99-1.74,37.47.88,80.82,1.09,118.17Z"/>
  <path class="cls-60" d="m143.77,304.55c3.38,16.16-19.98,21.15-23.5,5.03-3.38-16.16,19.98-21.15,23.5-5.03Z"/>
  <path class="cls-162" d="m120.01,308.4c-2.95-12.93,16.21-17.02,18.8-4.02,2.95,12.92-16.21,17.02-18.8,4.02Z"/>
  <polygon class="cls-162" points="124.59 288.6 126.02 287.03 128.7 296.33 126.35 296.83 124.59 288.6"/>
  <path class="cls-101" d="m104.33,279.05l-17.97,40.01c8.95-15.49,17.85-16.45,17.97-40.01Z"/>
  <path class="cls-87" d="m114.98,352.95c3.56,6.38,7.65,24.6,12.36,40.86,22.25,5.49,46.7,5.78,69.36,2.18,2.46-.57,4.22-.99,4.06-4.01,4.05-17,18.24-38.01,22.3-48.01-8.76-.02-16.61,1.03-25.37,1.02-8.72-.64-18.49-2.95-27.19-3.2-19.02,1.29-40.32,8.81-58.12-.75.39.94.32,6.42,2.61,11.91Z"/>
  <path class="cls-59" d="m128.98,228.03s-7.99,16.01-14.98,24.01l18,1.99-12.99,11.01,15.01,20.99s16.01,15.99,20.02,28.99l6.01,16s-1.02-28-14.05-69.99c-7.59-24.46-7.66-33.55-4.02-37,2.6-2.47,4.91-3.75,7-5l3-4s-16,.01-22.99,13.01Z"/>
  <path class="cls-59" d="m211.41,227.06s7.85,16.07,14.78,24.14l-18.02,1.83,12.9,11.12-15.19,20.86s-16.15,15.85-20.27,28.81l-6.15,15.94s1.26-27.99,14.65-69.87c7.8-24.39,7.94-33.49,4.34-36.96-2.58-2.49-4.88-3.79-6.95-5.06l-2.96-4.03s16,.15,22.88,13.21Z"/>
  <path d="m125.68,292.84c-.57-.38-.8-.86-.96-1.36l-.49-1.51c-.32-1.01-.62-2.02-.91-3.04-.58-2.03-1.11-4.07-1.6-6.13-.96-4.11-1.76-8.27-2.28-12.47-1.02-8.38-1.22-17,.63-25.41.94-4.18,2.43-8.3,4.72-12,2.27-3.71,5.34-6.95,8.98-9.36,1.88-1.25,3.9-2.09,5.92-2.82,2.03-.71,4.09-1.28,6.16-1.76,4.14-.96,8.34-1.57,12.54-1.98,8.41-.79,16.89-.78,25.3.16,4.2.48,8.39,1.22,12.51,2.33,4.11,1.12,8.17,2.61,11.92,4.81,1.87,1.11,3.66,2.4,5.25,3.95.8.77,1.53,1.62,2.21,2.5l.95,1.33.88,1.37c2.27,3.7,3.84,7.75,5,11.86,1.17,4.11,1.91,8.29,2.52,12.47.3,2.08.56,4.33.35,6.56-.09,1.09-.2,2.07-.24,3.08-.05,1.01-.05,2.02-.04,3.04v.02c0,.83-.66,1.51-1.49,1.51s-1.51-.66-1.51-1.49v-.03c.01-1.07.03-2.14.1-3.23.07-1.08.2-2.17.3-3.17.21-1.94.04-3.88-.22-5.94-.55-4.09-1.28-8.17-2.37-12.11-1.09-3.94-2.57-7.76-4.66-11.21l-.81-1.27-.87-1.23c-.59-.77-1.22-1.52-1.93-2.2-1.41-1.37-3.02-2.56-4.75-3.58-3.46-2.05-7.32-3.49-11.27-4.57-3.96-1.08-8.02-1.81-12.12-2.29-8.21-.95-16.54-.98-24.78-.23-4.12.39-8.22.98-12.23,1.89-2,.45-3.98,1-5.9,1.67-1.91.68-3.78,1.47-5.39,2.53-3.33,2.24-6.12,5.22-8.2,8.65-2.09,3.43-3.47,7.29-4.34,11.27-1.72,7.98-1.48,16.34-.42,24.51.55,4.09,1.29,8.16,2.24,12.19.47,2.01.99,4.02,1.55,6.01.28.99.58,1.99.88,2.97l.47,1.47c.17.48.28.99.06,1.6l-.02.06c-.2.58-.84.88-1.42.68-.09-.03-.17-.07-.24-.12Z"/>
  <path class="cls-52" d="m202.98,286.21l5.72,51.62s1.69,13.5,11.48,16.3"/>
  <path class="cls-52" d="m236.36,292.93l-24.75,47.42s-6.66,12.33-16.95,11.64"/>
  <path class="cls-51" d="m202.99,289.58s-.02-27.37,20.84-20.87c-.05-.09,17.36-1.16,11.75,24.76"/>
  <path class="cls-211" d="m191.1,350.72c-1.89-.27-5.11.09-4.85,2.62,1.71,3.17,7.84,2.41,10.4.52.98-.7.3-3.06-.67-3.39-1.55-.05-3.29.47-4.89.26Z"/>
  <path class="cls-211" d="m217.78,355.52c1.53,2.89,7.03,5.98,9.74,3.27,1.3-4.05-4.68-4.05-6.91-5.85-1.84-1.37-4.12.5-2.83,2.58Z"/>
  <path class="cls-17" d="m128.98,225.03s-6.99,18-13.98,26.01l16,1.42-11.99,11.58,15.01,18.99s16.01,15.99,20.02,28.99l6.01,16s-1.02-28-14.05-69.99c-7.59-24.46-4.65-31.56-1.02-35,2.6-2.47,4.91-3.75,7-5l2-6s-18,.01-24.99,13.02Z"/>
  <path class="cls-17" d="m211.44,224.06s6.83,18.06,13.76,26.13l-16.01,1.28,11.89,11.68-15.17,18.86s-16.15,15.85-20.27,28.81l-6.15,15.94s1.26-27.99,14.65-69.87c7.8-24.39,1.85-27.91-1.15-31.91-2.15-2.87-4-6-5.01-8l-3-6s19.59,0,26.47,13.06Z"/>
  <path class="cls-47" d="m193.98,224.99c7.01,9,3.77,13.91,3.01,22-10.91.87-55-2.96-55-2.96,0,0-2.29-7.71-1.01-14,.38-1.85,1.91-4.62,2.97-6.36.69-1.15,1.69-2.1,2.91-2.67.2-.09.28-.11.12.03,17.99-15.01,1.55-42.36,11.41-41.84,3.43-.17,21.26-.24,24.88-.14-1.07,15.61-.1,33.55,10.71,45.94Z"/>
  <path class="cls-83" d="m325.3,190.97c1.22-2.81,2.16-5.72,2.83-8.71.74-3,1.27-6.1,2.13-9.15.77-3.1,1.8-6.13,3.09-9.05,1.3-2.96,3.16-5.64,5.48-7.88.18-.19.49-.2.68-.02,0,0,.01.01.02.02.18.19.18.49,0,.68-2.06,2.27-3.65,4.92-4.7,7.8-1.05,2.9-1.85,5.88-2.4,8.92-.56,3.06-1.21,6.13-1.92,9.22-.69,3.14-1.67,6.21-2.94,9.17-.28.63-1.01.91-1.64.64-.63-.28-.91-1.01-.63-1.64h0Z"/>
  <path class="cls-50" d="m330.31,193.35c-3,12.12-12.31-2.42-11.23,25.76"/>
  <path class="cls-83" d="m331.9,203.17c-1.08,1.12-1.95,2.43-2.56,3.86-.64,1.4-.93,2.94-.83,4.48.06.73.32,1.42.77,2,.46.56,1.1.95,1.81,1.08,1.52.24,3.08.08,4.53-.46h0c.2-.06.41.05.47.25.06.2-.05.41-.25.47h0c-1.58.55-3.27.71-4.92.46-.87-.17-1.66-.64-2.23-1.32-.56-.68-.91-1.52-1-2.4-.12-1.67.17-3.34.83-4.87.62-1.54,1.45-2.98,2.46-4.29.19-.25.55-.29.8-.1,0,0,0,0,0,0,.25.19.29.54.1.79,0,0,0,0,0,0l.02.05Z"/>
  <path class="cls-83" d="m353,211.86l-7.67,7.2h0c-.1.1-.27.09-.37-.01s-.09-.27.01-.37l7.52-7.4c.16-.13.4-.11.53.06.12.14.11.35,0,.48h0l-.02.04Z"/>
  <path class="cls-83" d="m345.04,202.95c-.82,1.7-1.87,3.27-3.14,4.67-1.21,1.41-2.47,2.74-3.57,4.19-.08.11-.24.14-.35.06s-.14-.24-.06-.35h0c1.05-1.54,2.26-2.94,3.38-4.39,1.14-1.39,2.08-2.93,2.78-4.58.1-.27.4-.4.67-.3.27.1.4.4.3.67v.03Z"/>
  <path class="cls-47" d="m323.75,190.74c3.48-1.07,8.84,1.39,5.73,5.32-1.73-1.6-7.31-2.17-5.73-5.32Z"/>
  <g>
    <g>
      <path class="cls-47" d="m96.22,446.77c-.37,0-.83-.14-1.2-.26-.12-.04-.22-.07-.31-.09-.39-.1-.71-.31-1.03-.54-4.34-3.04-7.22-5.75-10.98-10.33-.49-.59-1.62-2.63-1.85-3.29-.36-1-.64-3-.21-4.17.45-1.22,1.49-2.05,3.06-2.44-1.29-1.7-1.59-4.16-.64-6.09.94-1.91,3.03-3.2,5.21-3.21-1.03-2.39-.7-5.22.91-7.03.98-1.1,2.51-1.76,4.09-1.76.71,0,1.38.13,1.98.38-.05-.37-.05-.75.02-1.14.15-.88.59-1.76,1.32-2.62.71-.83,1.48-1.39,2.3-1.66.77-.26,1.59-.26,2.31-.27h.35c.72,0,1.56.02,2.37.26,1.28.38,2.34,1.25,3.2,1.96,4.07,3.37,12.08,10.51,13.25,13.43.47,1.16.41,2.05.38,2.7v.16c-.05.81-.49,1.5-.94,2.13-.65.92-1.37,1.88-2.37,2.56-.78.54-1.68.84-2.53.84h-.04c.56,1.72-.26,3.73-1.59,4.92-1.44,1.28-3.31,1.83-5.02,2.26.28,1.71.03,3.37-.72,4.72-.94,1.68-2.69,2.78-4.46,2.8-.17,0-.31,0-.36.03-.05.03-.13.21-.17.31-.15.36-.24.64-.32.88-.18.55-.33.99-.88,1.71-.28.37-1.39,1.57-1.97,1.85-.08.04-.24.17-.37.29-.31.26-.63.54-.99.59-.3.05-.52.05-.72.05h-.27c-.16,0-.33,0-.57.04-.06,0-.12.01-.19.01Z"/>
      <path class="cls-83" d="m101.52,402.76c.75,0,1.51.03,2.23.24,1.14.34,2.1,1.11,3.02,1.87,4.92,4.07,12.07,10.65,13.1,13.23.46,1.15.37,1.99.33,2.65-.04.69-.44,1.3-.84,1.86-.64.91-1.33,1.81-2.25,2.44-.66.45-1.46.75-2.25.75-.31,0-.62-.05-.91-.14,1.11,1.58.39,3.91-1.05,5.19-1.44,1.29-3.4,1.8-5.27,2.26.36,1.62.23,3.39-.58,4.84s-2.36,2.53-4.03,2.54c-.21,0-.43,0-.61.1-.19.12-.29.34-.37.55-.48,1.14-.39,1.51-1.14,2.49-.3.39-1.34,1.49-1.79,1.71-.33.16-.84.78-1.21.83-.27.04-.47.05-.65.05-.09,0-.18,0-.27,0-.18,0-.38,0-.65.05-.03,0-.07,0-.11,0-.4,0-1.04-.25-1.39-.34-.32-.08-.6-.27-.87-.46-4.54-3.18-7.4-6-10.88-10.24-.43-.53-1.54-2.5-1.77-3.14-.36-.98-.57-2.85-.21-3.83.53-1.45,2.03-2.09,3.56-2.29-1.66-1.52-2.16-4.17-1.16-6.19.87-1.77,2.82-2.93,4.79-2.93.28,0,.55.02.83.07-1.34-2.23-1.3-5.33.43-7.27.92-1.04,2.33-1.59,3.71-1.59,1.15,0,2.29.39,3.09,1.21.03.04.06.07.1.1-.03-.04-.07-.07-.1-.1-.56-.63-.75-1.55-.61-2.39.15-.89.63-1.69,1.21-2.37.56-.66,1.25-1.24,2.08-1.51.69-.23,1.43-.24,2.15-.24.12,0,.23,0,.35,0m0-1h-.35c-.76,0-1.62.01-2.47.3-.9.3-1.75.91-2.52,1.81-.79.92-1.27,1.88-1.44,2.86-.03.17-.05.35-.06.52-.46-.12-.94-.18-1.44-.18-1.72,0-3.38.72-4.46,1.93-1.59,1.78-2.03,4.49-1.24,6.91-2.1.25-4.03,1.57-4.95,3.44-.94,1.91-.78,4.23.3,6.03-1.35.5-2.3,1.37-2.73,2.54-.49,1.34-.16,3.48.21,4.51.26.72,1.41,2.79,1.94,3.44,3.75,4.57,6.76,7.39,11.08,10.42.34.24.72.49,1.19.61.08.02.18.05.29.09.4.13.9.28,1.35.28.09,0,.18,0,.26-.02.2-.03.35-.04.5-.04h.13s.15,0,.15,0c.2,0,.45,0,.8-.06.5-.07.89-.41,1.24-.71.09-.08.23-.19.28-.22.72-.35,1.93-1.72,2.13-1.99.6-.79.77-1.31.96-1.86.08-.25.17-.51.31-.85,0-.01,0-.02.01-.03h.06c1.94-.02,3.86-1.22,4.89-3.05.74-1.32,1.03-2.92.84-4.59,1.61-.42,3.41-1.02,4.8-2.26,1.31-1.17,2.16-3.07,1.88-4.83.77-.1,1.54-.41,2.23-.89,1.06-.73,1.82-1.73,2.49-2.69.49-.69.97-1.44,1.02-2.39v-.16c.05-.66.1-1.65-.4-2.91-1.51-3.77-12.91-13.23-13.39-13.63-.89-.74-2-1.65-3.37-2.06-.88-.26-1.76-.28-2.51-.28h0Z"/>
    </g>
    <path class="cls-83" d="m89.1,429.73c.26,0,.31.2.46.31l.38.38.79.73c.53.48,1.07.95,1.62,1.41,1.1.92,2.22,1.81,3.36,2.68,2.28,1.74,4.61,3.42,6.89,5.22.43.34.51.97.16,1.41-.34.43-.97.51-1.41.16-.02-.02-.04-.04-.06-.05-2.08-1.94-4.25-3.85-6.35-5.83-1.05-.99-2.09-2-3.1-3.03-.5-.52-1-1.05-1.48-1.58l-.72-.82-.35-.42c-.09-.16-.29-.23-.27-.49,0-.04.04-.07.08-.07Z"/>
    <path class="cls-83" d="m95.66,421.32c4.46,3.72,8.65,7.74,13.15,11.27.43.34.51.97.17,1.4-.34.43-.97.51-1.4.17-.02-.01-.04-.03-.06-.05-4.34-3.94-8.21-8.24-12.37-12.24-.15-.14-.15-.38-.01-.53.14-.14.36-.15.51-.03Z"/>
    <path class="cls-83" d="m102.55,414.56c2.18,1.77,4.39,3.52,6.52,5.38,2.16,1.84,4.09,3.9,6.27,5.69.43.35.49.99.14,1.42-.35.43-.99.49-1.42.14-.06-.05-.11-.1-.15-.16h0c-1.74-2.25-3.64-4.29-5.61-6.26-1.97-1.98-4.04-3.88-6.16-5.71-.14-.12-.15-.32-.03-.46.11-.13.31-.15.45-.04Z"/>
  </g>
  <g class="cls-182">
    <path class="cls-268" d="m156,183.04c4.68-.01,9.89.42,14.48.59,5.15.23,8.75-.24,14.52-.59-1.22,6.73-7.9,11.19-14.5,11.31-6.78.27-13.71-4.3-14.5-11.31h0Z"/>
  </g>
  <path class="cls-47" d="m137.88,89.98c-6.85,9.83-8.78,22.2-10.27,34.1-2.62,15.06-1.84,31.37,8.75,43.36,5.89,8.69,14.69,13.99,23.23,19.72,6.45,5.1,14.42,5.64,21.13.71,18.45-9.19,26.07-27.42,30.97-46.76,5.61-15.25,1.81-32.37-9.73-43.8-8.6-8.41-35.66-29.13-47.34-21.59-6.24,4.28-12.32,7.94-16.74,14.27Z"/>
  <path class="cls-47" d="m122.5,116.05c-5.19,1.56-5.78,9.23-1.32,12.07,2.02,1.05,3.95,2.27,5.77,3.64,1.92-3.36,2.5-10.08,2.38-14.08-.51-3.3-3.77-2.54-6.83-1.63Z"/>
  <path class="cls-47" d="m216.89,115.25c6.06,3.93,5.23,12.31-.5,16.09-1.23,1.52-2.21,3.79-4.16,3.77v-10.67c-.91-5.28-3.29-10.27,4.66-9.19Z"/>
  <path class="cls-104" d="m122.86,129.25c-3.73,1.54-1.81,9.26,2.44,8.43,3.15.04,5.41-11.96-2.44-8.43Z"/>
  <path class="cls-104" d="m217.21,128.25c3.73,1.54,1.81,9.26-2.44,8.43-3.15.04-5.41-11.96,2.44-8.43Z"/>
  <path class="cls-12" d="m154.76,99.74c-5,.56-13.35,5.49-12.87,10.93,3.52-6.2,11.61-8.01,18.23-8.72,2.97-3.46-3.42-2.59-5.36-2.21Z"/>
  <path class="cls-12" d="m187.64,99.72c5,.56,13.35,5.47,12.89,10.91-3.51-6.2-11.63-7.99-18.25-8.7-2.96-3.46,3.42-2.59,5.36-2.21Z"/>
  <path class="cls-86" d="m150.56,114.02c-2.72,3.8-.99,11.28,4.66,10.33,6.3-2.27,1.88-16.76-4.66-10.33Z"/>
  <path class="cls-86" d="m186.56,113.94c-1.69,2.38-1.81,6.75.45,8.81,10.14,6.85,8.85-16.52-.45-8.81Z"/>
  <path class="cls-72" d="m207.31,136.89c.14,5.83-13.15,5.84-13,0-.15-5.83,13.15-5.84,13,0Z"/>
  <path class="cls-72" d="m145.31,136.93c.14,5.83-13.15,5.84-13,0-.15-5.83,13.15-5.84,13,0Z"/>
  <path class="cls-110" d="m168.57,83.61c13.91,5.99,30.69,9.98,40.48,22.37,2,3.21,1.89,8.42,5.44,10.2,14.72-9.87,3.98-29.84-10.76-33.19-13-6.66-27.36-12.98-42.06-13.39-9.61,2.05,3.88,12.56,6.9,14.02Z"/>
  <path class="cls-110" d="m128.97,108.87c2.33-4.62,5.69-8.64,9.83-11.75,7.58-7,11.36-18.09,20.56-22.75-2.07-5.67-13.27-1.41-17,1.01-4.85,5.05-14.56,26.76-13.39,33.49Z"/>
  <path class="cls-268" d="m166,176c3.61-.06,6.66.24,10.18,0-1.23,4.68-9.13,4.94-10.18,0h0Z"/>
  <path class="cls-268" d="m176.66,143.39c-1.15,2.07-3.35,3.35-5.71,3.32-2.3-.03-4.41-1.3-5.54-3.32h11.25Z"/>
  <g>
    <path class="cls-255" d="m181.32,155.99c.35.06.7.11,1.05.17.73.08,1.47.13,2.2.27,0,.19,0,.38.07.56.15.48.15.92-.29,1.26-.07.06-.14.1-.22.14-.19.1-.4.01-.59.09-.13.04-.26.08-.4.09-.31,0-.6.09-.9.18-.18.03-.36.03-.52-.07-.25-.26-.42-.55-.43-.92,0-.22-.12-.41-.21-.61-.21-.44-.11-.88.24-1.17Z"/>
    <path class="cls-198" d="m184.3,158.17c-.03-.07-.08-.17,0-.19.4-.15.27-.44.21-.71-.04-.2-.08-.39-.12-.59-.04-.16,0-.25.19-.24.54.07,1.07.13,1.58.35-.05.31-.33.46-.5.68-.12.16-.24.32-.33.5-.09.1-.23.09-.33.16-.05.03-.1.07-.16.09-.1.02-.2.03-.31.05-.09,0-.17,0-.22-.09Z"/>
    <path class="cls-27" d="m188.42,158c-.08.06-.17.13-.25.19-.19.1-.36.03-.46-.12-.23-.35-.75-.54-.6-1.1.29,0,.58-.01.87-.02.09-.06.19-.04.29-.04.55.04.69.33.42.84-.09.08-.18.16-.27.24Z"/>
    <path class="cls-151" d="m187.1,156.98c.28.47.57.93,1.06,1.22-.23.18-.47.35-.7.53-.13.04-.21-.05-.22-.14-.03-.34-.26-.48-.54-.59-.35-.51-.33-.79.04-1.1.13-.03.25.01.35.09Z"/>
    <path class="cls-210" d="m186.75,156.89c-.17.35-.12.69,0,1.04-.08.13-.2.17-.35.16-.18-.02-.38.05-.53-.11-.19-.71.02-1.08.62-1.11.08,0,.17.01.25.02Z"/>
    <path class="cls-219" d="m186.5,156.87c-.33.11-.5.34-.54.69-.01.12-.06.25-.08.37-.03.03-.06.05-.09.06-.13-.03-.26.01-.38.02-.06-.01-.11-.04-.14-.09.05-.56.52-.8.88-1.13.12.02.26-.03.35.09Z"/>
    <path class="cls-122" d="m188.69,157.76c.07-.59-.09-.77-.72-.8.25-.17.53-.04.79-.09.45-.05.45-.05.37.37-.11.21-.23.4-.44.53Z"/>
    <path class="cls-5" d="m189.13,157.24c.02-.26-.1-.39-.37-.37.07-.09.17-.08.27-.09.1-.05.19-.05.29,0,.07.1.04.19-.02.28-.06.06-.11.12-.17.18Z"/>
    <path class="cls-261" d="m189.57,156.79c.13.05.21.14.11.26-.07.08-.11-.03-.13-.09-.05-.06-.04-.12.02-.17Z"/>
    <path class="cls-191" d="m189.57,156.79c0,.06-.01.11-.02.17-.03,0-.06,0-.09-.01-.06-.04-.11-.1-.17-.16-.09,0-.18,0-.27-.01.18-.11.37-.11.55,0Z"/>
    <path class="cls-264" d="m189.3,156.79c.09.01.15.06.17.16-.05.04-.11.07-.16.11,0-.09,0-.18,0-.27Z"/>
    <path class="cls-193" d="m153.35,157.3c-.11-.14-.23-.29-.34-.43-.03-.1.04-.18.09-.26.04-.03.07-.04.12-.02.49-.01.85.33,1.28.48,0,.29-.29.48-.25.78-.04.05-.1.08-.16.1-.07,0-.13,0-.19,0-.1-.03-.17-.12-.28-.16-.18-.11-.17-.32-.25-.48Z"/>
    <path class="cls-2" d="m153.18,156.63s-.05-.01-.08-.01c.18-.19.4-.05.6-.09.03.03.05.07.08.1-.2.05-.4.04-.6,0Z"/>
    <path class="cls-29" d="m174.3,154.93s.06,0,.09,0c.17,0,.34,0,.52.01.41-.11.83-.11,1.24,0,.11,0,.23,0,.34-.01.73.21,1.46.42,2.2.62.11.21.33.42.04.65-.14.02-.25-.05-.36-.13-.69-.46-1.34-.45-2.03,0-.32.22-.7.3-1.08.34-.42.04-.85.04-1.27,0-.38-.04-.76-.1-1.04-.39-.34-.35-.85-.39-1.22-.69.04-.15.15-.21.29-.22.62-.06,1.22-.21,1.83-.29.16-.02.32-.02.44.1Z"/>
    <path class="cls-44" d="m176.15,154.94c-.41,0-.83,0-1.24,0,.07-.1.18-.07.28-.1.23-.05.46-.05.69,0,.1.02.2,0,.27.1Z"/>
    <path class="cls-225" d="m175.88,154.85c-.23,0-.46,0-.69,0,.23-.11.46-.11.69,0Z"/>
    <path class="cls-252" d="m181.32,155.99c-.16.48-.19.91.07,1.41.19.36.18.83.37,1.21-.2.3-.93.52-1.41.42-.23-.2-.2-.51-.29-.76-.18-.53-.24-1.1-.46-1.62.22-.27.47-.52.67-.82.36-.04.71.07,1.06.15Z"/>
    <path class="cls-75" d="m180.26,155.84c.02.44-.11.75-.61.77-.03.04-.07.06-.11.08-.34-.04-.73,0-.76-.51,0-.21-.22-.39-.08-.62.52.09,1.05.19,1.57.28Z"/>
    <path class="cls-76" d="m180.35,158.96c.47-.13.96-.15,1.4-.35.15.04.3,0,.44-.06.16.05.31.02.47.02.3,0,.42.15.3.45-.15.13-.33.08-.5.08-.25,0-.49.02-.73.09-.2.06-.24.14-.23.34.02.53-.15.77-.65.93-.21.07-.39.18-.58.29-.3.18-.6.36-.98.23-.19-.3-.4-.38-.8-.28-.65.17-1-.13-1.03-.74.1-.28.57-.24.56-.62.73-.39,1.49-.56,2.32-.38Z"/>
    <path class="cls-242" d="m183.51,158.35c.18-.16.41-.04.61-.08.47.17.49.46.04.85-.23.18-.46.37-.57.65-.08.09-.17.14-.29.06-.3-.55-.03-1.01.22-1.48Z"/>
    <path class="cls-196" d="m184.03,159.07c.35-.23.36-.5.08-.79.03-.09.12-.08.18-.1l.18-.06c.19.05.43.01.45.31-.02.19-.12.34-.26.47-.16.08-.26.25-.46.26-.07,0-.13-.03-.17-.09Z"/>
    <path class="cls-256" d="m183.51,158.35c.01.13.12.27.03.38-.3.33-.2.73-.2,1.11-.02.01-.04.02-.06.04-.05-.02-.09-.04-.11-.08-.13-.27-.15-.56-.1-.86-.03-.18-.06-.35.1-.49.09-.14.24-.05.35-.09Z"/>
    <path class="cls-158" d="m183.16,158.44c0,.18,0,.36,0,.54-.04.05-.08.05-.14.04-.01-.01-.02-.02-.04-.04-.1-.44-.53-.27-.79-.42.32-.04.64-.08.96-.11Z"/>
    <path class="cls-233" d="m187.01,159.32c-.05.03-.11.07-.16.1-.34.16-.56,0-.72-.28-.21-.38-.08-.92.27-1.21.12,0,.23,0,.35,0,.56,0,.55,0,.62.56,0,.08.06.16.09.23-.14.21-.36.36-.45.6Z"/>
    <path class="cls-141" d="m185.26,157.91c.06,0,.12.01.17.02.03.03.05.08.05.13-.03.17-.15.23-.31.23-.16-.03-.23-.14-.28-.28.1-.1.24-.07.36-.09Z"/>
    <path class="cls-236" d="m184.9,158c.09.06.19.13.28.19.03.04.03.08,0,.13-.07.11-.17.14-.29.08-.06-.09-.09-.2-.1-.3.03-.03.06-.06.09-.09Z"/>
    <path class="cls-66" d="m184.81,158.09c.09.07.1.18.11.28,0,.07-.02.1-.09.09,0-.23-.22-.25-.35-.35.11,0,.22-.02.34-.02Z"/>
    <path class="cls-218" d="m186.4,157.93c-.04.17-.09.33-.12.5-.13.63-.04.79.58.99-.09.12-.12.27-.26.35-.28.2-.56.14-.72-.13-.22-.37-.37-.78-.46-1.21-.03-.14.04-.25.1-.37.04-.13.1-.24.27-.15.03,0,.06,0,.09,0,.18,0,.35,0,.53,0Z"/>
    <path class="cls-181" d="m185.78,157.92c-.1.02-.16.08-.17.18-.09.05-.13,0-.17-.08,0-.03,0-.06-.01-.1.11-.19.23-.2.35,0Z"/>
    <path class="cls-217" d="m169.13,155.28c.26.05.52.15.79.09.25-.06.51-.02.76-.02.11.08.08.17,0,.25-.59.03-1.17.1-1.76.14-.37.03-.71.17-.99.4-.26.21-.53.35-.85.38-.55-.15-1.12-.18-1.69-.15-.51-.18-.95.12-1.42.22-.16-.03-.36.03-.48-.15-.07-.43.25-.49.54-.56.32-.08.66-.09.85-.43.04-.06.08-.11.12-.16.82-.17,1.65-.22,2.49-.14.54.05,1.08.19,1.64.13Z"/>
    <path class="cls-221" d="m161.07,156.01c.06-.03.12-.06.18-.1.06,0,.11,0,.17.01.38.2.77.1,1.13-.03.3-.1.6-.19.92-.22.43-.04.87,0,1.26-.24.09-.05.2-.05.28.04-.12.42-.51.45-.83.51-.27.06-.49.15-.66.36-.03.12-.06.24-.19.26-.56.08-1.13.19-1.69.03-.28-.09-.57-.25-.57-.63Z"/>
    <path class="cls-46" d="m165.01,155.47c-.53.25-1.07.4-1.67.37-.43-.03-.75.34-1.2.36-.3.01-.54-.02-.72-.28.66-.13,1.32-.25,1.97-.4.19-.04.37-.04.55-.06.32-.07.65-.1.97-.16.03,0,.06-.01.09-.02,0,.06,0,.12,0,.18Z"/>
    <path class="cls-117" d="m164.92,155.31c-.31.16-.64.18-.97.16.31-.16.63-.19.97-.16Z"/>
    <path class="cls-161" d="m158.87,156.69c.13-.12.28-.18.45-.23.04.01.08.03.13.02.28-.02.57-.05.69.28.12.31.07.59-.18.82-.03.04-.07.07-.11.09-.17.04-.34.08-.48.2-.04.02-.08.03-.13.03-.32-.09-.67-.14-.81-.51-.04-.35.18-.54.44-.71Z"/>
    <path class="cls-246" d="m160.19,156.24l.18-.06c.1.05.21.09.32.12.75.19.86.32.98,1.1-.03.16-.12.27-.26.34-.27,0-.54.07-.79-.09-.09-.06-.13-.16-.14-.26-.04-.49-.39-.76-.73-1.03.15-.02.31-.01.43-.12Z"/>
    <path class="cls-257" d="m159.75,156.36c.79.29.87.4.87,1.21-.26.23-.53.25-.79,0,.04-.08.09-.15.12-.23.18-.44.03-.72-.44-.82-.07-.01-.14-.04-.2-.07.15-.03.29-.06.44-.09Z"/>
    <path class="cls-208" d="m158.35,156.7s.06-.01.08-.02c.14,0,.29,0,.43,0-.12.24-.23.48-.35.71-.1.15-.24.17-.4.14-.24-.04-.49-.08-.6-.35-.01-.04-.01-.09,0-.13.16-.25.51-.03.67-.27.05-.03.11-.05.16-.08Z"/>
    <path class="cls-169" d="m153.18,156.63c.2,0,.4,0,.6,0,.07.09.18.07.27.09.17.11.37.17.53.3.02.04.03.08.01.12-.03.03-.07.03-.11,0-.51,0-.83-.45-1.31-.51Z"/>
    <path class="cls-137" d="m154.57,157.05c-.21-.06-.43-.1-.53-.34.13-.04.24.02.35.06.03.03.06.06.1.09.04.08.14.04.19.1,0,.04,0,.07-.01.11-.04.02-.07.02-.1-.01Z"/>
    <path class="cls-100" d="m154.48,157.14s.06,0,.09,0c.09-.04.17-.02.25.04.27.43-.14.52-.36.71-.06.03-.13.03-.19,0-.02-.02-.03-.03-.05-.05-.28-.47-.27-.49.26-.7Z"/>
    <path class="cls-58" d="m154.4,158.19c-.12-.12-.24-.23-.36-.35.06,0,.12,0,.18,0,0,0,0,0,0,0,.07.07.2.07.23.19.01.07,0,.12-.06.17Z"/>
    <path class="cls-7" d="m170.62,155.56c.03-.05.06-.11.09-.16.17-.1.35-.06.53-.03.17,0,.35,0,.52.01.56-.14.94.22,1.31.51.23.18.46.28.74.31.73.1,1.45.1,2.16-.12.07-.02.16-.04.2-.08.44-.52,1.05-.44,1.62-.42.41.01.68.35.99.59.2.27.5.35.79.44,0,.27-.19.3-.39.33-.25-.03-.47-.11-.7-.22-.29-.15-.56-.12-.76.17-.12.17-.27.3-.44.42-.43.28-.75.66-1.02,1.09-.1.04-.22.03-.29-.04-.38-.48-.88-.28-1.32-.19-.47.09-.9.11-1.38.04-.45-.07-.91.09-1.34.3-.16.07-.3.17-.46.24-.1.01-.19.05-.28.06-.81,0-1.63-.03-2.44-.05-.14,0-.3.02-.4-.11-.07-.21.1-.29.22-.29.35,0,.68-.2,1.04-.11.19.05.38,0,.56-.07.24-.11.48-.11.73-.05.27.07.53.1.65-.24.11-.31-.04-.8-.29-.92-.58-.26-.78-.77-.92-1.32.09-.09.17-.16.3-.07Z"/>
    <path class="cls-251" d="m179.12,156.79c.17,0,.32-.04.44-.18.03,0,.06,0,.09,0,.53.7.55,1.54.7,2.35-.64.11-1.28.21-1.92.33-.12.02-.24.09-.36.14-.14.19-.33.2-.54.14-.39-.36-.36-.63.07-.92.45-.3.94-.31,1.47-.29-.53-1-.51-1.27.05-1.57Z"/>
    <path class="cls-172" d="m177.55,159.94c.25.63.35.69.99.61.12-.02.23-.04.29-.15.05-.08.04-.23.19-.2.13.03.15.17.18.28.04.14.07.28.1.42.22.36.43.74.74,1.05.02.1-.01.18-.07.25-.33.26-.69.47-1.12.51-.17-.02-.33-.05-.48-.13-.16-.19-.35-.3-.61-.36-.67-.18-.83-.79-1.02-1.35-.12-.35.07-.61.32-.84.14-.13.29-.26.49-.09Z"/>
    <path class="cls-53" d="m180.01,161.96c-.47-.11-.7-.45-.71-1.05.36-.05.7-.15.99-.39.12-.1.25-.18.42-.22.59-.14.68-.27.6-.87-.02-.14-.04-.28-.06-.45.59,0,1.16,0,1.73,0h0c.09.1.15.21.12.34-.13.16-.29.1-.44.06-.14-.03-.29-.06-.43,0-.11.05-.26.12-.22.28.03.13.15.17.27.18.17.02.35-.06.51.04.16.21-.08.33-.11.5-.01.04-.03.08-.04.12-.03.05-.07.1-.12.14-.21.18-.48.29-.69.48-.22.18-.46.35-.73.45-.22.1-.38.3-.62.37-.16.05-.32.15-.48,0Z"/>
    <path class="cls-171" d="m177.55,159.94c-.56.2-.75.58-.55,1.11.19.52.42.99,1.05,1.09.18.03.29.19.38.34-.37.25-.74.41-1.13.01-.13-.13-.3-.16-.49-.14-.22.02-.4-.05-.54-.23-.42-.53-.55-1.93-.23-2.51.03-.05.07-.09.11-.13.46-.15.93-.29,1.39,0,.17-.09.35-.09.53-.06.12.28.17.52-.29.45-.08-.01-.16.04-.24.06Z"/>
    <path class="cls-16" d="m184.03,159.07c.06,0,.13,0,.19,0,.03.03.04.07.03.12-.04.12-.14.2-.2.31-.07.09-.14.15-.24.2-.1.05-.2.07-.3-.02.04-.32.32-.43.52-.62Z"/>
    <path class="cls-248" d="m183.52,159.68c.08-.03.17-.07.25-.1.15.34-.04.46-.33.51-.11-.04-.17-.1-.09-.22v-.03c.09,0,.14-.08.18-.16Z"/>
    <path class="cls-42" d="m183.94,159.41l.27-.26c.21-.03.26-.21.35-.35.09-.11.18-.22.27-.33.03-.03.06-.06.09-.09.08-.04.17-.07.25-.11.18.55-.26,1.17-.9,1.28-.13,0-.26,0-.34-.14Z"/>
    <path class="cls-175" d="m184.56,158.79c-.03.2,0,.46-.35.35,0-.03,0-.05.01-.08.11-.09.22-.18.34-.28Z"/>
    <path class="cls-76" d="m182.55,160.39c0-.2.18-.29.26-.45-.05-.26.08-.45.26-.61-.03-.12-.06-.23-.09-.35.06,0,.12,0,.17,0,.03.29.06.59.09.88-.09.36-.32.55-.7.53Z"/>
    <path class="cls-197" d="m182.55,160.39c.23-.18.47-.35.7-.53.03,0,.06,0,.09,0l.08.16c-.07.34-.36.62-.66.62-.11,0-.25,0-.22-.18,0-.02,0-.05,0-.07Z"/>
    <path class="cls-82" d="m184.3,159.42c.58-.16.69-.68.87-1.15,0-.03,0-.05.02-.08.12,0,.2-.07.26-.17.06.03.11.05.17.08-.13.28.06.5.13.74.03.11.12.21.13.31.04.46.32.61.72.62-.02.12-.08.2-.18.26-.24.31-.62.32-.94.44-.49.18-.94.09-1.38-.18-.3-.41-.26-.58.21-.88Z"/>
    <path class="cls-129" d="m184.12,160.21c.26-.05.44.18.69.17.21,0,.43.02.62-.09.2.09.44.15.45.44-.46.57-1.04,1-1.58,1.49-.39.06-.51-.3-.74-.49-.2-.49.08-1.27.55-1.53Z"/>
    <path class="cls-149" d="m183.68,161.7c.3.07.37.4.62.53-.15.17-.3.34-.45.52-.08.06-.17.12-.25.19-.15.05-.29.06-.41-.06-.12-.43-.45-.82-.28-1.31.29-.16.54-.03.78.13Z"/>
    <path class="cls-97" d="m185.88,160.74c-.18-.11-.33-.26-.45-.44.32-.09.65-.17.97-.26-.08.31-.38.45-.53.7Z"/>
    <path class="cls-107" d="m171.23,155.37c-.18,0-.35.02-.53.03-.26,0-.53-.02-.79-.03.44-.12.88-.12,1.32,0Z"/>
    <path class="cls-214" d="m165.36,156.17c.59,0,1.19-.05,1.75.18.11.08.24.08.37.07.47-.05.74.24.64.71-.05.24-.12.48-.2.71-.57.72-.77.76-1.52.29-.24-.15-.49-.26-.77-.27-.27-.01-.51-.1-.76-.2-.27-.11-.58-.23-.57-.58.02-.37.3-.58.61-.74.14-.07.32-.06.45-.15Z"/>
    <path class="cls-98" d="m167.81,157.84c0-.23.02-.45.11-.67.16-.4.02-.6-.4-.64-.16-.02-.32-.01-.41-.18.2.02.37-.04.5-.2.48-.55,1.15-.64,1.81-.66.39,0,.81-.14,1.19.06-.09.03-.18.06-.26.09-.18.76-.53,1.44-.84,2.14-.22.49-.54.64-1.03.56-.12-.31-.5-.27-.68-.51Z"/>
    <path class="cls-38" d="m167.81,157.84c.11,0,.22.02.34.02.46-.02.47-.01.28.42-.01.02-.02.04-.04.06-.37.1-.75.15-1.09.32-.18.03-.36.02-.54.01-.04,0-.09,0-.13-.02-.32-.16-.64-.3-1.02-.26-.28.03-.5-.2-.76-.28-.53-.17-1.14-.16-1.54-.64-.21-.56-.08-.79.64-1.04.43-.31.92-.28,1.4-.26-.23.26-.57.38-.8.66-.18.22-.21.38.07.51.33.15.65.33,1.03.33.39,0,.69.22,1,.4.48.27.48.29.89-.09.08-.07.16-.12.27-.14Z"/>
    <path class="cls-157" d="m163.96,156.44c-.23.29-.78.41-.53.96-.21.27-.53.3-.82.27-.35-.04-.7-.13-1.02-.27-.09-.13-.16-.27-.2-.43-.07-.27-.22-.47-.54-.45-.26.02-.4-.12-.49-.34.23-.06.47-.12.7-.18.49.58,1.13.61,1.8.45.22-.05.47.14.65-.11.13.12.29.08.44.09Z"/>
    <path class="cls-131" d="m158.08,157.4c.15,0,.29,0,.44,0,.22.23.57.22.79.44.24-.04.48-.11.73,0,.18.2.34.4.1.66.08,0,.17-.06.27-.05.15.02.29.05.35.21.06.15-.08.22-.16.33-.17.24-.48.17-.67.36-.33.07-.64,0-.96-.07-.1-.02-.19-.06-.22-.17-.01-.07,0-.14.05-.19.19-.11.25-.22.02-.36-.06-.04-.11-.1-.18-.11-.45-.03-.62-.35-.74-.72-.01-.15.06-.26.19-.33Z"/>
    <path class="cls-69" d="m160.01,157.93c-.23-.03-.48.07-.7-.09,0,0,0,0,0,0,.13-.11.31-.15.44-.26.03,0,.06,0,.09,0,.26,0,.53,0,.79,0,.26.01.54-.05.79.09.09.11.07.21,0,.31-.47.21-.94.23-1.39-.05Z"/>
    <path class="cls-131" d="m159.75,157.58c-.07.21-.23.29-.44.26.06-.23.25-.25.44-.26Z"/>
    <path class="cls-183" d="m161.41,157.93c0-.09,0-.18,0-.26.06-.09.12-.18.18-.26.15-.08.33-.15.46-.07.46.29.92.09,1.38.07.44.35.98.43,1.49.61.06.08.05.15,0,.22-.17.15-.36.15-.57.08-.76-.23-1.54-.23-2.33-.26-.19,0-.38.04-.55-.07-.02-.02-.03-.04-.05-.06Z"/>
    <path class="cls-148" d="m154.66,156.97c-.06-.03-.11-.07-.17-.1.32,0,.64.01.95.02.03.05.02.09-.02.13-.11.09-.23.07-.36.08-.15,0-.3,0-.42-.13Z"/>
    <path class="cls-68" d="m155.45,156.95s0-.05,0-.07c.09,0,.18,0,.26,0,.23.03.48-.06.7.07-.01.02-.02.04-.03.06-.22.15-.46.06-.69.08-.05,0-.09-.01-.14-.03-.04-.02-.07-.06-.09-.1Z"/>
    <path class="cls-28" d="m157.29,156.78c.19-.14.41-.07.62-.08.02.05.02.09-.02.13-.06.05-.13.07-.2.08-.15,0-.3.03-.4-.13Z"/>
    <path class="cls-96" d="m157.29,156.78c.15,0,.29,0,.44.01-.11.26-.3.21-.5.13-.04-.04-.05-.08-.02-.14,0,0,0,0,0,0,.03,0,.06,0,.09,0Z"/>
    <path class="cls-127" d="m157.9,156.78s0-.05.01-.08c.15,0,.29,0,.44,0-.03.03-.06.06-.09.09-.12.09-.24.11-.36-.01Z"/>
    <path class="cls-15" d="m155.54,156.98s.06,0,.09,0c.24.07.49.02.74.03.18,0,.34-.11.52-.11.04-.01.09-.02.13-.02.18.07.41-.05.54.17,0,.03,0,.06,0,.09.04.1,0,.17-.08.23-.29.22-.26.4.06.55.09.17.18.33.12.53-.03.07-.07.13-.13.17-.07.03-.14.04-.21.03-.07-.02-.13-.05-.18-.1-.03-.03-.05-.07-.07-.11-.25-.23-.55-.34-.89-.37-.05.02-.1.05-.14.08-.06.06-.12.1-.21.09-.14-.04-.2-.14-.19-.29.05-.25.31-.33.44-.52-.19-.15-.51-.04-.58-.34,0-.04.02-.08.05-.11Z"/>
    <path class="cls-201" d="m157.47,157.93c-.11,0-.23,0-.34,0-.08,0-.18,0-.22-.09-.05-.12.04-.18.11-.25.18-.15.29-.38.54-.45.18.09.35.18.53.26-.03.12-.06.23-.09.35-.05.35-.15.38-.53.18Z"/>
    <path class="cls-174" d="m157.55,157.05c-.19-.11-.41-.08-.62-.09.02-.21.15-.11.26-.09.18,0,.37.05.53-.07.06,0,.11-.01.17-.02.12,0,.24,0,.36.01-.12.4-.45.21-.7.26Z"/>
    <path class="cls-144" d="m157.89,162.84c-.08-.06-.17-.13-.25-.19-.14-.36-.51-.57-.62-.94-.12-.36-.06-.72.17-.98.2-.22.34-.45.44-.72.25-.08.38.07.5.25.08.27-.03.52-.11.76-.13.37,0,.54.34.66.28.1.6.16.8.42.05.14,0,.26-.08.36-.19.24-.43.45-.53.76-.04.11-.16.15-.29.12-.06-.02-.11-.07-.14-.13.02-.18-.04-.31-.23-.37Z"/>
    <path class="cls-200" d="m157.64,160.03c.17.3.17.54-.21.68-.13.05-.24.15-.22.29.02.26-.12.47-.19.7-.08-.06-.16-.13-.24-.19-.06-.03-.07-.1-.1-.15.11-.36-.27-.63-.19-.98.41-.06.68-.31.87-.65.06-.03.12-.04.19-.02.09.04.14.11.15.2,0,.04-.02.08-.06.11Z"/>
    <path class="cls-168" d="m155.54,156.98s0,.05,0,.07c-.08.14-.2.23-.35.28-.09.02-.18.02-.26-.01-.06-.03-.12-.06-.18-.1-.06-.03-.12-.06-.18-.09,0-.03,0-.06,0-.09.03,0,.06,0,.09,0,.13-.11.31.02.44-.09.12,0,.24,0,.36-.01.03,0,.06.02.09.02Z"/>
    <path class="cls-120" d="m155.1,156.96c-.13.12-.29.08-.44.09,0-.03,0-.06,0-.08.15,0,.29,0,.44,0Z"/>
    <path class="cls-93" d="m156.76,161.35c-.29-.2-.34-.59-.62-.8-.03-.06-.06-.12-.09-.17-.08-.08-.22-.12-.2-.28.04-.08.11-.12.2-.12.19.06.32.19.43.34,0,.02,0,.04.01.06.19.3.47.57.26.97Z"/>
    <path class="cls-56" d="m155.18,159.24c-.14-.28-.46-.42-.59-.71.25-.15.35.09.51.19.11.16.31.27.26.51-.02.04-.04.08-.08.1-.03-.03-.06-.06-.09-.09Z"/>
    <path class="cls-185" d="m155.71,160.03s.07,0,.1,0c.07-.01.1.02.1.08.05.09.1.18.14.27-.19-.04-.31-.16-.34-.35Z"/>
    <path class="cls-222" d="m154.75,157.23c.06,0,.12,0,.17,0,.08.08.17.16.2.27.06.34.21.66.11,1.02-.18.21-.32.03-.48-.05-.04-.02-.07-.05-.1-.08-.07-.19-.19-.36-.27-.55.06-.12.11-.22.25-.27.18-.07.18-.19.1-.34Z"/>
    <path class="cls-70" d="m154.4,157.84c.24.1.36.27.35.53-.07.03-.12,0-.16-.04-.07-.1-.12-.21-.19-.31-.06-.06-.12-.12-.17-.18.06,0,.12,0,.18,0Z"/>
    <path class="cls-22" d="m154.4,158.02c.12.06.2.15.26.26-.03.07-.07.12-.16.08,0,0-.02.01-.02.01-.03-.06-.06-.12-.08-.18,0-.06,0-.12,0-.18Z"/>
    <path class="cls-173" d="m163.34,168.07c-1.04-.66-1.87-1.56-2.8-2.35-.68-.32-1.17-.82-1.49-1.49,0-.03,0-.05,0-.08-.03-.05-.06-.11-.02-.16.27-.33,1.12-.53,1.52-.36.2.09.41.16.63.15.87-.07,1.33.52,1.79,1.11.54.29.54.33.5.95-.03.56-.11,1.12.08,1.67.07.21.02.43-.21.56Z"/>
    <path class="cls-39" d="m175.01,169.33c-.06.03-.12.06-.18.09-.09,0-.18,0-.26,0-.1.18-.26.23-.46.27-.55.11-1.1.1-1.65.07-.08,0-.17,0-.25,0-.17-.07-.35-.02-.53-.03-.04,0-.09,0-.13-.03-.2-.16-.23-.39-.27-.61-.07-.41-.15-.79-.63-.92-.08-.02-.14-.1-.15-.2.01-.05.04-.08.08-.11.11-.05.22-.09.32-.14.12-.05.24,0,.36-.01.43-.08.86-.17,1.31-.1.33-.06.65-.04.98.03.04,0,.09.02.13.03.45.13.9.14,1.35,0,.13-.04.27-.11.42-.03.08.05.12.12.15.21.02.09.01.2-.05.25-.43.32-.55.77-.54,1.27Z"/>
    <path class="cls-116" d="m169.48,169.75c-.56.08-1.11-.11-1.66-.08-.11-.12-.28-.09-.41-.17-.3-.59-.1-1.16.57-1.55.18-.11.37-.23.59-.27.25-.03.49-.04.73.05.11.07.25.08.34.18.17.63.19,1.26-.15,1.85Z"/>
    <path class="cls-108" d="m168.52,167.82c-.81.36-1.08.79-1.05,1.67-.04.07-.12.03-.17.07-.5-.12-1.03-.07-1.49-.35.14-.37.23-.77.35-1.14.16-.46.56-.64,1.02-.71.09,0,.17.05.24.11.16.22.4.13.61.14.07,0,.13,0,.2,0,.15,0,.29.02.3.22Z"/>
    <path class="cls-71" d="m161.15,163.97c-.27.03-.51-.07-.74-.19-.12-.07-.26-.19-.4-.1-.31.19-.64.32-.97.47-.27-.2-.41-.53-.7-.71-.08-.03-.14-.07-.08-.17.04-.01.12-.03.12-.04.02-.52.51-.72.75-1.1.05-.05.11-.06.18-.04.08.04.14.12.15.2.04.56.41.71.89.73.07,0,.14.01.21.04.35.13.75.16,1.04.43.1.4-.25.37-.45.48Z"/>
    <path class="cls-112" d="m167.2,167.48c-.59.18-1,.49-.99,1.19,0,.26-.15.46-.41.55-.29-.09-.59-.17-.88-.26-.12-.13-.34-.1-.44-.26.14-.49.5-.77.94-.95.18-.07.34-.14.46-.3.31-.4.71-.46,1.17-.26.09.07.19.14.15.29Z"/>
    <path class="cls-54" d="m169.48,169.75c.03-.61.06-1.21.09-1.82.16-.21.38-.13.58-.11.65.6.74,1.37.21,1.88-.26.05-.53-.03-.79.05-.03,0-.06,0-.09,0Z"/>
    <path class="cls-154" d="m169.57,169.75c.25-.14.52-.05.79-.07.23-.2.48-.25.75-.07.05.04.06.09.03.15-.52,0-1.05,0-1.57,0Z"/>
    <path class="cls-71" d="m158.17,163.17s-.07-.05-.11-.07c-.06-.09-.11-.17-.17-.26.26-.03.37.06.27.33Z"/>
    <path class="cls-67" d="m167.29,169.57c.06-.02.11-.05.17-.07.14,0,.3-.02.35.17-.17-.03-.35-.06-.52-.09Z"/>
    <path class="cls-177" d="m171.68,169.68c.18.01.37-.06.53.07-.18,0-.36,0-.54,0-.06-.03-.05-.05,0-.07Z"/>
    <path class="cls-179" d="m171.68,169.68s0,.05,0,.07c-.18,0-.35,0-.53,0,0-.02,0-.05,0-.07.14-.15.29-.13.43,0,.03,0,.06,0,.09.01Z"/>
    <path class="cls-20" d="m176.14,169.13c-.32.07-.64.14-.96.2-.06,0-.11,0-.17,0-.12-.22-.08-.48-.24-.69-.11-.14.03-.2.14-.24.3-.1.48-.31.62-.57.1-.28.33-.22.54-.19.08.04.15.11.14.19-.03.28.14.43.32.59.1.36-.24.48-.38.7Z"/>
    <path class="cls-262" d="m177.55,159.49c-.47.04-.94.08-1.4.12-.11.1-.23.15-.38.1-.38-.25-.15-.48.05-.66.21-.19.41-.37.41-.68.04-.39.21-.67.55-.91.27-.19.59-.35.77-.66.23-.4.6-.47,1.01-.25.18.1.35.21.56.25-.4.61-.38.85.13,1.3.13.12.16.24.1.39-.06.15-.19.17-.33.13-.46-.13-.86-.04-1.28.19-.38.2-.43.38-.19.7Z"/>
    <path class="cls-260" d="m168.43,158.28c.48.06.68-.15.94-.59.26-.44.2-1.01.63-1.37.19-.16,0-.57.36-.68.15.24.41.39.45.73.02.14.18.28.36.35.17.06.42.02.47.25.08.34.2.68.07,1.03-.14.39-.46.43-.79.32-.28-.09-.52-.09-.79.06-.39.21-.83-.09-1.24.07-.17.07-.37.07-.56.1-.2.21-.44.16-.69.12-.08-.26.12-.27.28-.29.17-.02.34,0,.49-.09Z"/>
    <path class="cls-258" d="m176.23,158.36c.33.27.11.46-.1.65-.18.16-.48.23-.43.56-.02.05-.06.08-.1.11-.2.06-.4.04-.6.02-.12-.05-.24-.12-.3-.24-.26-.63-.81-.59-1.35-.62-.62-.03-1.26.03-1.86-.21.34-.24.68-.45,1.11-.55.37-.08.69-.11,1.06,0,.24.08.53.04.77-.08.4-.19.84-.04,1.24-.19.14-.05.2.09.24.2.06.16.15.28.31.34Z"/>
    <path class="cls-215" d="m171.5,158.63c.72-.12,1.43.1,2.15.01.33-.04.64.13.95.26.32.13.13.54.4.68-.07.14-.2.14-.32.15-.19.03-.38.09-.57.13-.2.02-.4,0-.6-.01-.18,0-.36.04-.52-.07-.12-.09-.17-.23-.23-.36-.07-.24-.21-.37-.48-.31-.34.07-.62-.11-.92-.2-.11-.04-.19-.13-.14-.27h.26Z"/>
    <path class="cls-13" d="m171.23,158.63c.29.22.62.38.99.32.35-.06.55.08.67.38-.31.25-.63.1-.93,0-.5-.15-.99-.3-1.52-.16-1.19-.06-2.37-.21-3.56-.29-.22-.04-.54.1-.6-.28.1-.18.25-.12.39-.06h0c.21.09.42.03.63.03.12-.03.24-.05.34.06.23-.07.46-.1.7-.09.15.12.33.09.5.09.8,0,1.59,0,2.39,0Z"/>
    <path class="cls-209" d="m175.62,159.61s.06-.02.09-.03c.15,0,.29.02.44.03-.25.77-.08,1.5.17,2.23.09.26.19.41.49.33.11-.03.29-.05.33,0,.36.43.83.33,1.29.31.15.03.3.06.44.09.04.12-.02.21-.11.26-.52.31-1,.7-1.63.76-.07-.01-.13-.02-.2-.05-.26-.29-.67-.42-.89-.76-.08-.16-.21-.23-.38-.31-.44-.22-.92-.24-1.36-.38-.47-.15-.67-.58-.75-1.05-.07-.43.15-.73.52-.93.29-.16.57-.35.88-.48.23-.03.45.03.68-.04Z"/>
    <path class="cls-192" d="m177.12,163.45c.65-.16,1.18-.56,1.75-.88.35-.15.69-.3,1.04-.45.41.19.5.34.45.81-.34.45-.79.67-1.35.63-.14-.01-.25,0-.36.09-.55.47-1.2.74-1.9.92-.53.14-.86-.14-.85-.71.22-.34.61-.26.92-.37.09-.03.2.01.29-.05Z"/>
    <path class="cls-243" d="m180.26,162.92c.06-.35-.27-.52-.36-.8.03-.05.07-.11.1-.16.4-.07.68-.38,1.05-.51.2.26.41.49.66.7.36.3.19.71.03,1.08-.62.47-1.34.32-1.49-.31Z"/>
    <path class="cls-119" d="m181.67,163.19c0-.12,0-.23.02-.35.09-.53.09-.53-.4-.71-.36-.13-.19-.44-.23-.68.23-.15.47-.29.7-.44.24.01.45-.19.7-.09.24.17.48.34.43.69.2.38.4.77.35,1.23-.19.49-.95.86-1.54.74-.14-.12-.14-.25-.04-.39Z"/>
    <path class="cls-10" d="m182.9,161.61c-.14-.21-.38-.34-.44-.61-.14-.15-.09-.3,0-.45.03-.03.06-.06.09-.09.23.2.36-.05.52-.14.14-.07.24-.19.36-.29.17-.11.33-.23.34-.45.06-.06.11-.11.17-.17.12,0,.24,0,.36,0-.1.25-.39.47-.18.79-.15.33-.3.66-.45.99-.08.17-.08.34.01.5-.27.01-.53,0-.79-.09Z"/>
    <path class="cls-81" d="m183.07,159.33c0,.24-.04.47-.26.61-.17.04-.34.1-.51.11-.23.01-.44-.07-.52-.31-.09-.26.1-.39.3-.51.35-.21.67,0,1,.09Z"/>
    <path class="cls-65" d="m182.45,160.55c0,.15,0,.3,0,.45-.23.04-.46.17-.7.02.23-.15.46-.31.69-.46Z"/>
    <path class="cls-180" d="m181.05,165.9c-.41.3-.81.6-1.22.89-.73-.55-1.78-.29-2.11.52-.16.38-.1.5.32.6.13.03.26.05.33.19,0,.18-.13.22-.27.26-.18.04-.35.12-.54.12-.57-.09-.78-.6-.58-1.13.32-.83.95-1.24,1.74-1.47.54-.15.89-.58,1.38-.8.32.02.62-.18.95-.06.18.07.42.06.44.34-.14.18-.29.35-.43.53Z"/>
    <path class="cls-57" d="m181.49,165.37c-.44-.25-.92-.19-1.4-.17-.03.03-.07.04-.11.01-.04-.29.19-.36.37-.46.35-.19.65-.42.77-.82.19-.17.27-.5.63-.4.53-.17,1.05-.35,1.49-.7.12.03.24.06.36.09-.71.81-1.41,1.63-2.12,2.44Z"/>
    <path class="cls-212" d="m166.67,158.54c-.12,0-.25-.01-.35.09-.33.35-.7.09-1.05.07-.19-.12-.49-.17-.35-.51,0-.06,0-.12,0-.18.18,0,.33.08.49.16.09.04.22.12.28.09.44-.26.67.13.98.28Z"/>
    <path class="cls-98" d="m167.64,158.63c-.12,0-.23,0-.35,0-.06-.03-.06-.06,0-.09.34-.24.73-.29,1.14-.26-.11.12-.26.17-.42.17-.15,0-.29.03-.37.18Z"/>
    <path class="cls-212" d="m167.29,158.54s0,.06,0,.09c-.21-.02-.43.06-.61-.09.2,0,.41,0,.61,0Z"/>
    <path class="cls-271" d="m160.01,157.93c.47,0,.93,0,1.4,0,0,0,0,0,0,0,.03.03.06.07.08.11.05.39-.28.64-.37.97-.22.06-.27.29-.43.42-.22.13-.44.08-.66-.01-.07-.05-.11-.11-.12-.19.21-.21.56-.22.72-.49-.04-.11-.12-.1-.19-.1-.23,0-.45.02-.34-.34.03-.1-.06-.24-.1-.36Z"/>
    <path class="cls-4" d="m157.47,157.93c.18-.03.42.1.53-.18.18.47.67.5,1.02.73.14.09.37.13.31.35-.06.23-.29.12-.45.14-.39-.3-.91-.27-1.31-.53-.03-.18-.06-.35-.09-.53Z"/>
    <path class="cls-163" d="m157.55,158.45c.49.03,1,.03,1.31.53-.03.03-.06.06-.09.1-.05.05-.11.06-.18.05-.2-.21-.5-.16-.74-.27-.11-.05-.23-.09-.35-.14-.05-.05-.08-.1-.05-.17.03-.03.06-.06.09-.09Z"/>
    <path class="cls-36" d="m159.92,159.22s.06.06.09.1c-.01.02-.03.04-.04.06-.34.11-.68.17-1.03.07-.05-.01-.09-.03-.13-.06-.13-.19.06-.18.15-.23.33-.05.64.16.97.06Z"/>
    <path class="cls-35" d="m158.96,159.17c-.06.05-.12.11-.18.16-.15.2-.34.19-.54.1-.22-.26.02-.28.18-.34.04-.01.08-.02.12-.03.02,0,.04,0,.06,0,.06,0,.12.01.18.02.03.09.11.07.18.09Z"/>
    <path class="cls-63" d="m161.41,158.01s0-.06,0-.09c1.04.01,2.1-.09,3.12.25.12.04.26.01.39.02,0,.23.23.24.35.35-.15.24-.4.19-.63.22-.61-.18-1.22-.34-1.87-.3-.28.02-.54-.07-.8-.17-.17-.14-.42-.08-.56-.27Z"/>
    <path class="cls-239" d="m157.2,156.87c-.09.01-.19,0-.26.09,0,0,0,0,0,0-.15.07-.29.08-.44,0,.18-.3.47-.12.71-.16,0,.02,0,.05,0,.07Z"/>
    <path class="cls-174" d="m156.5,156.95c.15,0,.29,0,.44,0-.16.14-.35.08-.53.09-.06-.03-.06-.06,0-.07,0,0,0-.03,0-.03.03,0,.06,0,.09,0Z"/>
    <path class="cls-199" d="m156.42,156.97s0,.05,0,.07c-.26-.02-.54.07-.79-.08.26,0,.53,0,.79,0Z"/>
    <path class="cls-272" d="m155.19,157.22c.05-.2.21-.17.35-.18.15.21.38.08.57.12.11.02.24,0,.28.14.03.14-.06.21-.17.28-.17.11-.34.23-.51.34-.42,0-.65-.3-.53-.7Z"/>
    <path class="cls-14" d="m155.19,157.22c.03.34.25.54.53.7.01.12.07.21.17.26.29.15.45.39.49.71,0,.05-.03.08-.06.11-.09.04-.17.02-.25-.03-.24-.29-.42-.62-.75-.84-.2-.13-.23-.42-.31-.65-.08-.07-.09-.17-.09-.26.09,0,.18,0,.26,0Z"/>
    <path class="cls-34" d="m157.46,158.54s.06.06.09.09c.06.07.25.02.18.2-.16.16-.33.03-.49.02-.19-.01-.36.01-.43.24-.05.05-.1.08-.17.09-.14-.02-.21-.1-.22-.24-.02-.12-.05-.24.04-.35.21-.17.47-.08.7-.1.05,0,.09,0,.14.03.06,0,.11,0,.17.01Z"/>
    <path class="cls-223" d="m156.06,157.93c.35-.07.97.17,1.14.44-.13.09-.27.03-.4.03-.04,0-.08-.02-.11-.04-.12-.06-.23-.15-.36-.21-.12-.04-.23-.09-.27-.23Z"/>
    <path class="cls-103" d="m156.32,158.89c-.15-.23-.35-.43-.44-.7.03-.06.06-.12.09-.18.1.02.15.12.23.17.03.03.05.06.08.09.17.17.17.37.09.58-.02.01-.03.03-.05.04Z"/>
    <path class="cls-124" d="m157.29,158.53s-.06,0-.09.01c-.22.11-.44-.03-.66,0-.05,0-.09-.02-.13-.04-.03-.03-.05-.08-.05-.12.02-.07.06-.12.13-.15.09,0,.18,0,.26.05h0c.14.09.31.06.44.17.03.03.06.05.09.08Z"/>
    <path class="cls-145" d="m156.07,158.27c-.08-.07-.09-.16-.09-.26.03-.03.06-.06.09-.09.12.03.23.06.35.09.03.03.04.06.03.11-.08.15-.27.04-.37.15Z"/>
    <path class="cls-74" d="m157.2,158.45c-.17,0-.32-.04-.44-.17.15,0,.3.01.44.09,0,.03,0,.06,0,.09Z"/>
    <path class="cls-234" d="m159.31,162.13c-.06,0-.12,0-.18,0-.34-.12-.69-.23-1.03-.36-.34-.14-.42-.34-.28-.69.1-.26.09-.55.26-.78.14-.15.29-.04.44-.02.11.05.17.15.22.25.16.29.39.48.75.44.07.03.12.07.18.11.04.03.07.07.09.12.12.58.02.79-.46.94Z"/>
    <path class="cls-3" d="m158.52,160.38c-.15-.03-.29-.06-.44-.09-.15-.09-.29-.18-.44-.26,0-.03,0-.06,0-.09.11-.13.24-.06.37-.04.21.06.39.18.53.36.01.04,0,.08-.02.12Z"/>
    <path class="cls-32" d="m157.38,159.76c-.07.59-.35.79-.88.62,0,0,0,0,0,0-.07-.24.2-.28.25-.45.13-.14.3-.21.47-.3.09,0,.18.01.16.14Z"/>
    <path class="cls-203" d="m157.38,159.76c-.06-.03-.11-.06-.17-.09-.03-.03-.05-.06-.06-.1,0-.04.02-.08.05-.11.03-.02.07-.04.11-.04.04,0,.08,0,.12.02.1.05.18.12.18.24,0,.04-.03.08-.06.11-.06,0-.12-.02-.18-.03Z"/>
    <path class="cls-247" d="m157.99,160.03c-.12-.03-.23-.06-.35-.09-.03-.05-.06-.1-.09-.15,0,0,0-.03,0-.03.05-.04.11-.07.18-.06.13.03.25.08.3.22,0,.04,0,.08-.04.12Z"/>
    <path class="cls-156" d="m155.91,160.11s-.07-.06-.1-.08c0-.03,0-.06,0-.09.02-.22-.25-.44.01-.66.17-.06.3,0,.41.13.11.21.13.41-.03.61-.04.04-.09.05-.15.02-.05.03-.1.05-.15.08Z"/>
    <path class="cls-85" d="m156.06,160.03s.06,0,.09,0c.23-.22.47-.25.7,0-.07.16-.24.23-.35.35-.21-.03-.33-.19-.44-.35Z"/>
    <path class="cls-94" d="m154.5,158.36c.05-.03.11-.05.16-.08.03.03.06.06.09.08,0,0,0,0,0,0,.12.17.46.14.44.46-.06.03-.12.03-.18-.02-.15-.07-.24-.25-.42-.27-.03-.06-.06-.12-.09-.18Z"/>
    <path class="cls-216" d="m155.01,158.81c.06,0,.12,0,.18,0,.12-.04.19.02.25.11.05.13.04.25-.08.34-.03,0-.06,0-.08-.02-.01-.19-.19-.28-.26-.42Z"/>
    <path class="cls-155" d="m155.8,159.33c.09.2.14.4.02.6-.11-.15-.29-.25-.36-.43.04-.19-.12-.37,0-.56.06-.04.13-.04.2-.02.15.1.27.21.15.41Z"/>
    <path class="cls-126" d="m155.45,158.98c.02.17.16.34.01.52-.04-.08-.07-.17-.11-.25,0-.12,0-.24,0-.35.02,0,.04,0,.06-.01.04.02.05.06.03.1Z"/>
    <path class="cls-273" d="m155.01,157.49c.15.48.7.61.91,1.04.06.13.15.24.23.36-.03.03-.06.05-.1.06-.24,0-.35-.34-.63-.23-.04,0-.08,0-.12,0-.07-.04-.16-.06-.11-.17-.12-.34-.12-.7-.18-1.05Z"/>
    <path class="cls-22" d="m155.19,158.54c.06.03.12.06.17.09.08.09.08.17,0,.26,0,0,0,0,0,0-.06-.03-.12-.06-.17-.09-.1-.19-.35-.23-.44-.44.15.06.29.12.44.17Z"/>
    <path class="cls-18" d="m167.02,167.31c-.46-.18-.81-.07-1.06.36-.05.08-.14.2-.21.2-.62-.01-.81.62-1.27.84-.43-.12-.78-.39-1.14-.64.19-.51-.24-.98-.1-1.5.07-.24-.04-.54.03-.78.14-.46-.03-.68-.46-.77-.04-.14.07-.22.15-.21.46,0,.89-.3,1.36-.14.28.09.42.02.39-.3-.02-.17.02-.32.18-.41.3-.11.56-.02.8.17.15.18.18.41.12.62-.09.32-.24.61-.28.95-.02.18-.17.31-.4.19.34.1.65.25.91.48.16.14.17.41.43.46.09.06.19.08.29.09.16.05.27.15.27.32,0,.02-.02.04-.03.06Z"/>
    <path class="cls-259" d="m164.93,164.06c-.11.1-.08.2-.03.32.07.15.15.3-.01.43-.14.11-.32.18-.49.11-.55-.26-1.06.08-1.58.12-.25-.17-.37-.46-.58-.68-.33-.34-.67-.4-1.09-.37.15-.14.34-.24.44-.44.05-.08.13-.11.23-.12.43.05.67.38.95.65.45.43.61.43,1.05,0,.14-.13.26-.27.43-.36.29-.02.59-.03.68.35Z"/>
    <path class="cls-267" d="m171.58,169.67c-.14,0-.29,0-.43,0-.26,0-.53,0-.79,0,.22-.61.21-1.2-.18-1.75.12-.12.23-.12.35,0,.11.04.21.09.32.11.31.06.47.26.53.56.07.36.13.71.2,1.07Z"/>
    <path class="cls-61" d="m172.64,167.73c-.47.03-.94.06-1.4.09-.23-.43-.24-.86.06-1.27.25-.17.54-.13.82-.17.65.15.88.74.52,1.35Z"/>
    <path class="cls-90" d="m171.32,166.62c-.03.4-.06.8-.08,1.2-.12,0-.23.01-.35.02-.23-.03-.47.03-.7-.05-.13-.12-.15-.3-.25-.44-.21-.29-.21-.58.08-.83.19-.08.38-.04.58-.05.17,0,.33,0,.5,0,.08,0,.14.03.19.08.01.02.02.04.03.06Z"/>
    <path class="cls-78" d="m172.64,167.73c0-.31-.11-.61-.08-.93.03-.33-.33-.1-.44-.26.09-.17.25-.19.41-.21.21,0,.4.07.61.08.16.04.28.15.4.24.48.36.5.65.06,1.09-.32,0-.64,0-.96,0Z"/>
    <path class="cls-125" d="m173.6,167.73c.33-.57,0-.91-.44-1.2.18-.22.42-.12.64-.13.93.22.94.25.42,1.05-.02.04-.04.08-.06.11-.09.16-.24.2-.41.19-.02,0-.04,0-.07,0-.03,0-.06,0-.08-.01Z"/>
    <path class="cls-241" d="m176.14,167.74c-.21,0-.42-.02-.61.09-.03-.06-.06-.12-.09-.17.02-.09.07-.15.15-.19.24-.03.36-.16.33-.42-.02-.12-.06-.27.11-.34.6.09.81.49.53,1.01-.13.1-.27.15-.42.02Z"/>
    <path class="cls-269" d="m175.62,167.57c-.06.03-.12.06-.18.09-.58.21-1.16.35-1.76.08,0,0,0,0,0,0,.34-.13.71-.1,1.06-.18.08-.03.14-.1.2-.16.07-.06.14-.1.23-.11.07,0,.13,0,.19.02.11.06.22.13.26.27Z"/>
    <path class="cls-123" d="m170.18,167.74c.24.03.49-.07.7.09-.06.11-.16.07-.25.07-.28-.08-.57-.01-.85-.04-.14-.01-.29.06-.4-.07.25-.35.52-.3.81-.06Z"/>
    <path class="cls-142" d="m169.4,167.82c.41.08.83-.08,1.23.1-.03,0-.07,0-.1.01-.12,0-.23,0-.35,0-.2,0-.41,0-.61,0-.12,0-.24-.01-.36-.02.02-.13.09-.14.19-.09Z"/>
    <path class="cls-84" d="m169.4,167.82c-.07.02-.15.01-.19.09-.22-.14-.46-.05-.69-.09-.09-.14-.24-.05-.35-.09-.16-.14-.42-.14-.52-.37-.05-.2.02-.35.21-.42.16-.06.24-.2.36-.31.57-.22,1.15-.15,1.74-.06.02.02.04.04.06.05-.09.26-.11.5.14.7.15.12.12.28.04.43-.26.03-.53-.06-.79.07Z"/>
    <path class="cls-167" d="m167.73,167.39c.2.05.39.1.44.34-.05,0-.11,0-.16,0-.09-.07-.21,0-.3-.07-.06-.07-.07-.15-.02-.24.02-.01.03-.03.05-.04Z"/>
    <path class="cls-105" d="m167.73,167.64c.09.03.21-.02.27.1-.22-.03-.52.27-.63-.17,0-.01.02-.02.03-.04.03-.02.06-.02.09-.03.05,0,.09.02.13.05.04.03.07.06.11.09Z"/>
    <path class="cls-30" d="m167.2,167.48c-.06-.06-.12-.12-.18-.17,0,0,0,0,0,0,.11-.12.23-.12.36-.04.08.1.08.19,0,.29,0,0-.01.01-.01.01-.06-.03-.11-.06-.17-.09Z"/>
    <path class="cls-24" d="m159.31,162.13c.27-.26.42-.58.35-.96.15-.13.31-.05.36.08.17.43.58.6.88.89.11.22.19.45.12.71-.07.24-.24.35-.48.35-.17,0-.34.04-.52,0-.57-.13-.7-.31-.71-1.05Z"/>
    <path class="cls-113" d="m160.54,163.19c.49-.25.29-.67.26-1.05.03-.09.1-.14.2-.16.33.01.48.29.69.47.17.35.56.66.16,1.09h-.26c-.39,0-.72-.19-1.05-.35Z"/>
    <path class="cls-89" d="m176.14,169.13c.06-.26.21-.47.35-.69.3-.25.55-.07.81.1,0,.28-.24.18-.37.24h0c-.1.19-.26.2-.43.2-.12.05-.24.1-.36.14Z"/>
    <path class="cls-213" d="m177.28,168.61c-.25-.1-.52-.16-.79-.16-.51-.06-.55-.15-.35-.7.12-.03.23-.06.35-.09.05-.05.11-.06.17-.04.18.12.23.32.35.49.14.2.29.31.53.31.03.03.04.07.04.11-.03.09-.1.13-.19.14-.04,0-.08-.03-.11-.06Z"/>
    <path class="cls-230" d="m175.62,159.61c-.22.13-.47.05-.7.08-.07.05-.15.08-.24.03-.03-.02-.04-.04-.03-.07,0-.03,0-.04.01-.04.12,0,.23-.02.35-.03.2,0,.41.02.61.03Z"/>
    <path class="cls-133" d="m176.14,162.75c.28.22.65.32.79.7-.56.18-1.12.32-1.71.23-.06,0-.12-.04-.17-.03-.9.2-1.45-.35-1.97-.95-.19-.23-.42-.4-.67-.55-.05-.03-.13-.04-.15-.09-.24-.59-.84-.68-1.31-.95-.03-.03-.06-.06-.09-.1-.57-.67-.46-1.09.36-1.38.07-.03.15-.03.22-.06.52-.11,1.04-.23,1.54.08.18,0,.35.02.53.03.22.24.1.41-.1.59-.44.39-.45.51-.06.96.22.26.44.5.29.89-.08.23.14.16.25.17.59.08,1.18.12,1.77.19.21.03.35.12.48.26Z"/>
    <path class="cls-228" d="m176.14,162.75c-.85-.17-1.72-.22-2.59-.23-.09,0-.18.04-.24-.05-.07-.1-.02-.22.05-.28.33-.31.14-.51-.1-.76-.62-.64-.59-.78.13-1.34.15-.11.1-.26.11-.4.2,0,.4-.01.6-.02.18-.06.35-.06.53,0,.09,0,.18,0,.27.01-.17.27-.42.43-.7.57-.55.27-.65.58-.38,1.13.23.48.53.66,1.06.62.03,0,.06-.02.08-.02.28-.01,1.05.49,1.16.76Z"/>
    <path class="cls-102" d="m172.99,159.66c-.52.05-1.06-.05-1.58.09-.12-.12-.22-.26-.38-.34-.11-.12-.26-.17-.4-.22-.11-.04-.22-.06-.18-.22.85-.12,1.64.24,2.46.35.03.11.06.22.09.34Z"/>
    <path class="cls-115" d="m174.65,159.67c-.18,0-.35,0-.53,0,.16-.14.36-.07.54-.07,0,.02,0,.05,0,.07Z"/>
    <path class="cls-95" d="m170.44,158.98c.21.17.54.08.7.35-.04.08-.11.15-.2.15-.7.02-1.4.1-2.1-.05-.35-.47-.86-.28-1.31-.32-.25-.1-.64.06-.69-.39.66.08,1.32.17,1.99.14.53-.02,1.06.18,1.6.13Z"/>
    <path class="cls-244" d="m166.85,158.72c.16.3.5.08.7.26-.08.13-.21.13-.35.13-.61-.01-1.21.02-1.81.05-.22.01-.43-.02-.57-.22-.08-.09-.13-.19-.07-.31.17-.08.35-.09.53-.09.35-.01.7.14,1.05.09.16.15.34.13.53.09Z"/>
    <path class="cls-204" d="m171.06,160.99c.22.16.43.3.74.17.19-.08.31.11.29.28-.02.31.14.44.39.54.48.2.76.63,1.1.98.36.38.75.52,1.3.53.68,0,1.36-.09,2.04-.04.06,0,.12,0,.18,0-.34.26-.77.29-1.15.45-.08.14-.18.27-.35.31-1.15.31-2.29.66-3.49.68-.13,0-.26.01-.39-.04.03-.39-.3-.64-.41-.97-.13-.42-.08-.86-.12-1.29.06-.25.12-.5.27-.71,0,0,.01,0,0,0-.02,0-.04.03-.06.04-.42.05-.85.12-1.05-.39.07-.53.22-.65.7-.54Z"/>
    <path class="cls-206" d="m171.67,164.75c1.12.05,2.17-.27,3.23-.55.36-.09.71-.2,1.06-.3.29.62.3.58.94.44.5-.11.9-.4,1.35-.59.08-.03.17-.08.21-.15.14-.28.31-.39.62-.2.16.1.34-.02.5-.1.24-.11.46-.25.69-.38.38.53.89.43,1.4.26.03.12.06.23.09.35-.18.15-.35.29-.53.44-.75-.52-1.44-.18-2.12.17-.51.26-1.03.45-1.59.58-.23.05-.44.15-.62.31-.11.08-.25.08-.36.15-.21.11-.36.23-.28.51.05.17.05.35-.09.49-.07.04-.15.04-.21,0-.48-.41-.9-.21-1.33.1-.11.08-.2.22-.36.24-.11,0-.22.01-.32,0-.4-.06-.58-.26-.67-.69-.15-.74-1.14-.83-1.68-.56-.1.05-.17.16-.29.19-.48-.06-.58-.17-.56-.6.09-.11.21-.11.33-.11.16,0,.31-.07.47-.04.05,0,.08.03.11.07Z"/>
    <path class="cls-237" d="m178.34,168.1c-.3-.04-.68.13-.86-.25-.17-.36.07-.68.24-.97.23-.39,1.33-.74,1.77-.6.25.08.32.27.33.51-.31.45-.81.7-1.15,1.11-.1.1-.15.26-.34.19Z"/>
    <path class="cls-165" d="m177.37,168.63c-.1.1-.22.14-.35.17-.03,0-.06-.01-.09-.02.1-.1.23-.14.36-.18.03,0,.06.02.09.02Z"/>
    <path class="cls-160" d="m177.55,168.45c-.52-.05-.89-.38-.88-.79,0-.55.26-1.04.46-1.53.21-.52,1.3-1.04,1.87-.97.33.21.68-.2,1,.04.03,0,.06,0,.09,0-.62.6-1.38.94-2.17,1.23-.29.11-.46.29-.52.59-.03.13-.09.23-.18.34-.36.38-.19.87.33,1,.02.02.03.04.02.06,0,.02-.02.03-.02.03Z"/>
    <path class="cls-48" d="m177.55,168.45s0-.06,0-.09c.18-.03.35-.06.53-.09-.09.06-.18.12-.27.19-.09.02-.18.04-.26.06,0-.02,0-.05,0-.07Z"/>
    <path class="cls-88" d="m180,165.2c-.17.06-.35.12-.51.2-.19.09-.32.02-.45-.11-.51-.26-1-.56-1.61-.23-.18.1-.43.1-.58-.12.1-.18.28-.27.46-.3.79-.15,1.48-.54,2.19-.9.45-.23.92-.21,1.4-.2.28,0,.28.25.34.43.03.57-.44.72-.81.95-.14.09-.33.11-.42.28Z"/>
    <path class="cls-229" d="m160.02,159.32c.23,0,.46,0,.7,0,.06-.04.12-.07.2-.07.14.04.29.03.38.17.06.15.03.27-.1.36-.19.05-.38.1-.29.37.03.26-.08.51-.03.77,0,.1-.03.2-.1.28-.12.11-.26.12-.4.04-.29-.2-.51-.54-.94-.43-.04-.01-.08-.03-.11-.06-.09-.13-.1-.3-.14-.44-.12-.43.11-.76.55-.82.11-.02.19-.04.26-.12v-.02Z"/>
    <path class="cls-8" d="m161.41,158.01c.21.02.43-.06.61.09-.05.37-.16.7-.52.9-.14.08-.26.12-.4.03-.01-.02-.03-.04-.04-.05-.11-.41.28-.63.35-.96Z"/>
    <path class="cls-8" d="m160.88,159.34c-.06,0-.11-.02-.17-.02-.02-.26.11-.36.35-.34,0,0,0,0,0,0,.13.22.04.32-.18.36Z"/>
    <path class="cls-205" d="m157.9,158.72c.22.15.58-.01.7.34,0,0,.01.03.01.03-.12.09-.26.07-.39.07-.1,0-.18-.04-.26-.08-.06-.04-.1-.1-.12-.16-.01-.07,0-.13.06-.19Z"/>
    <path class="cls-224" d="m157.9,158.72c0,.05,0,.11,0,.16-.1.05-.14,0-.17-.08-.06-.06-.12-.11-.18-.17.13,0,.24.03.35.09Z"/>
    <path class="cls-152" d="m160,159.34c.03.16.11.32-.19.29-.36-.03-.52.18-.48.57.02.17.04.34.07.51-.29.07-.44-.14-.6-.32-.02-.04-.02-.09-.02-.14.09-.3-.21-.65.1-.93.38,0,.75,0,1.13.01Z"/>
    <path class="cls-226" d="m158.87,159.33c-.02.32.2.64.01.96-.14.04-.24-.02-.34-.11-.09-.14-.18-.27-.32-.37-.12-.14-.34-.24-.18-.49.04-.03.08-.03.12,0,.2,0,.41,0,.61,0,.03,0,.06,0,.09,0Z"/>
    <path class="cls-159" d="m158.17,159.33s-.06,0-.09,0c-.13.13.06.32-.08.45-.11.03-.18-.03-.25-.1-.07-.12-.06-.24-.02-.37.07-.11.15-.21.29-.23.19.05.4-.01.59.07l-.44.18Z"/>
    <path class="cls-73" d="m158.61,159.15h-.61c0-.17.09-.13.19-.09.14,0,.29.02.43.02,0,.02,0,.05,0,.07Z"/>
    <path class="cls-189" d="m160.88,159.34c.09-.1.2-.2.18-.36.39-.04.68-.18.71-.63,0-.15.11-.22.25-.25.22.06.45.17.67.16.71-.03,1.37.2,2.04.36.03.06.06.12.09.18-.02.25-.21.22-.38.21-.68-.35-1.39-.12-2.08-.12-.41,0-.66.33-.94.57-.07.02-.13,0-.19-.03-.11-.05-.27.05-.36-.09Z"/>
    <path class="cls-92" d="m156.06,158.89s.06,0,.09,0c.06.03.11.06.17.09.11.03.15.12.17.22-.03.2-.11.33-.34.22-.12-.03-.23-.06-.35-.09,0-.14-.11-.24-.18-.35.01-.02.03-.03.04-.05.12-.1.28.06.4-.04Z"/>
    <path class="cls-220" d="m156.42,159.15c-.03-.06-.06-.12-.09-.17,0-.03,0-.06,0-.09,0,0,0,0,0,0,.02-.03.05-.04.09-.03.04.03.05.08.09.12.06.06.12.11.18.17.02,0,.04,0,.06.01.17.07.42.1.26.39-.37.12-.47-.14-.59-.4Z"/>
    <path class="cls-139" d="m156.77,159.07q-.17-.35.44-.35c.09.2.2.39.05.61-.03.03-.07.04-.12.04-.13-.1-.28-.16-.37-.3Z"/>
    <path class="cls-249" d="m157.2,159.33c.04-.21-.12-.41,0-.62.18.03.35.06.53.08.06.03.12.05.17.08.03.03.06.06.09.09-.03.03-.06.06-.09.09-.04.02-.08.03-.12.03-.35-.09-.3.3-.49.4-.03,0-.06,0-.08,0-.05-.05-.06-.1-.01-.16Z"/>
    <path class="cls-99" d="m156.5,158.45c.23.03.47.06.7.09-.22.15-.47.05-.7.08-.05-.06-.05-.12,0-.17Z"/>
    <path class="cls-62" d="m156.77,159.07c.18,0,.32.06.35.26-.18.04-.3-.1-.44-.17,0,0,0,0,0,0,.03-.03.06-.06.08-.08Z"/>
    <path class="cls-207" d="m156.5,158.45c0,.06,0,.12,0,.17,0,.12,0,.23,0,.35-.03-.03-.06-.06-.09-.09-.07-.15-.07-.29,0-.44.03,0,.06,0,.09,0Z"/>
    <path class="cls-74" d="m156.41,158.1s0-.06,0-.09c.12.09.23.17.35.26-.09,0-.17,0-.26,0-.08-.03-.14-.08-.09-.17Z"/>
    <path class="cls-207" d="m156.41,158.1c.03.06.06.11.09.17-.03.03-.06.06-.09.09-.12.05-.19-.03-.27-.08-.03,0-.05,0-.08,0,.05-.2.2-.17.35-.17Z"/>
    <path class="cls-79" d="m156.15,158.28c.09.03.18.06.27.08,0,.03,0,.06,0,.09,0,.15,0,.29,0,.44-.03,0-.06,0-.08,0,.04-.23-.08-.42-.18-.61Z"/>
    <path class="cls-31" d="m160.97,162.05c-.06.03-.12.06-.18.09-.37-.13-.71-.29-.82-.72-.04-.15-.17-.23-.32-.25-.03,0-.06,0-.09,0-.04-.14.04-.22.15-.27.29-.06.44.17.65.29.03.03.06.06.09.09.06.16.15.27.35.24.08.02.15.06.2.13.02.04.03.07.04.11,0,.1-.05.19-.08.28Z"/>
    <path class="cls-232" d="m158.52,160.38s0-.06,0-.09c.11-.07.2,0,.28.05.15.17.34.3.52.44.1.07.23.13.16.3-.57.11-.76-.3-.96-.7Z"/>
    <path class="cls-194" d="m159.48,161.08c-.22-.25-.52-.41-.7-.7.03-.04.06-.04.1-.01.17.11.34.23.52.34.03,0,.06.02.08.03.15.02.3.03.28.25-.06.06-.12.12-.19.18-.03-.03-.06-.06-.09-.09Z"/>
    <path class="cls-33" d="m158.88,160.38s-.07,0-.1.01c-.09-.03-.17-.06-.26-.09-.18-.09-.35-.18-.53-.27,0-.03,0-.06,0-.09.11-.13.24-.06.36-.03.1.04.17.12.26.19.09.06.18.13.28.19-.01.03-.01.05,0,.08Z"/>
    <path class="cls-9" d="m156.42,159.15c.2.13.35.33.61.35.08,0,.13.04.17.09,0,.02,0,.05,0,.07.03.27-.23.25-.36.36-.23,0-.47,0-.7,0,0-.2,0-.41,0-.61.16-.02.24-.11.26-.26Z"/>
    <path class="cls-235" d="m157.29,159.49c.05-.66.05-.66.52-.51.09.33-.11.45-.38.51-.02,0-.04.01-.06.02-.03,0-.05,0-.08-.02Z"/>
    <path class="cls-1" d="m157.2,159.6c-.06-.03-.12-.06-.17-.09-.12-.12-.24-.23-.35-.35.15.06.3.11.44.17.03,0,.05,0,.08,0,0,.05,0,.11.01.16,0,.03,0,.07,0,.1Z"/>
    <path class="cls-23" d="m157.73,159.78c-.06,0-.12-.02-.18-.03-.02-.11-.11-.17-.18-.25,0,0,0-.01,0-.01.26-.15.36-.02.39.22-.01.02-.02.04-.04.06Z"/>
    <path class="cls-64" d="m158.35,160.02c-.12-.03-.24-.05-.36-.08-.09-.05-.17-.1-.26-.16,0,0,0-.03,0-.03.02-.03.05-.06.09-.08.06.03.12.05.17.08.11-.06.2-.02.29.05.06.06.11.12.07.22Z"/>
    <path class="cls-166" d="m155.36,158.89c0-.09,0-.17,0-.26,0,0,0,0,0,0,.25,0,.32.13.26.35,0,0,0,0,0,0-.06,0-.12,0-.17,0-.03-.03-.06-.06-.09-.09Z"/>
    <path class="cls-132" d="m155.63,158.98c-.09-.12-.18-.23-.26-.35.38-.31.5.09.7.26-.09.29-.29.08-.44.09Z"/>
    <path class="cls-176" d="m170.44,161.52c.14.22.36.27.6.26.16,0,.31.01.46.09.17.29-.07.48-.18.7-.38.04-.69-.19-1.03-.29-.65-.2-.95-.05-1.11.59-.19.79-.46,1.01-1.28,1.13-.36.05-.71.13-1.08.07-.28-.05-.34.24-.52.34-.24.1-.44.05-.6-.16-.26-.07-.49-.22-.78-.19-.21-.15-.47-.18-.71-.27-.54.04-1.05-.28-1.24-.78,0-.1.03-.18.1-.24.42-.29.84-.49,1.28-.02.13.13.29.08.43-.05.39-.37.88-.56,1.38-.74.32-.11.69-.18.73-.64,0-.13.15-.17.26-.2.65-.2.79-.37.8-1.01,0-.16.01-.32.16-.43.2-.13.41-.09.62-.04.05,0,.09.01.14.02.05.01.09.03.12.06.1.11.12.25.15.39.07.36.19.66.6.8.29.1.55.31.7.61Z"/>
    <path class="cls-265" d="m166.76,167.04h-.35c-.39-.69-.35-1.39.04-2.06.12-.21.26-.42.47-.56.21-.09.4-.05.59.07.29.26.42.58.41.97-.02.34.04.67.19.97.05.11.07.22.03.34-.05.09-.13.14-.23.15-.11.02-.21.09-.32.08-.27.07-.55-.07-.82.05Z"/>
    <path class="cls-259" d="m166.94,164.52c-.07.32-.37.51-.47.82-.19.57-.12,1.13-.05,1.71-.32-.33-.56-.75-1.01-.91-.25-.09-.46-.17-.47-.46,0-.11-.06-.27.08-.3.16-.04.14.14.18.24.02.07.05.13.14.2-.05-.57.42-.99.38-1.55.2.03.41.06.61.08.25-.1.48-.1.62.18Z"/>
    <path class="cls-202" d="m166.76,167.04c-.09-.2-.01-.29.19-.23.2.05.4.06.61.06.03.03.04.07.04.11,0,.04-.02.07-.05.11-.05.08-.07.19-.18.22-.11,0-.23,0-.34,0-.06-.11-.15-.2-.27-.26Z"/>
    <path class="cls-136" d="m163.07,163.02c.27.42.77.51,1.15.77-.09.33-.35.52-.61.69-.27.17-.54.15-.78-.1-.3-.31-.59-.63-.97-.85.13-.41-.2-.7-.26-1.05.04-.12.14-.17.25-.2.17-.03.29.08.42.14.23.09.4.28.63.36.11.04.13.15.19.24Z"/>
    <path class="cls-254" d="m171.32,165.38c.08-.32.29-.44.61-.44.5,0,.99-.04,1.36.41.12.14.24.27.21.45-.05.36.12.54.44.62-.03.04-.08.06-.13.05-.42.02-.85-.04-1.28.03-.14,0-.29.02-.43.02-.25.14-.53.04-.79.09v-.03c-.31-.4-.21-.81,0-1.21Z"/>
    <path class="cls-170" d="m171.32,165.38c.12.4-.07.81,0,1.21-.06,0-.12,0-.18,0-.18-.06-.36-.01-.54-.03-.11,0-.23.01-.34-.02-.05-.03-.1-.08-.1-.13,0-.43-.08-.79-.4-1.13-.2-.22.06-.44.3-.55.25.02.52-.11.73.13.07.28.3.4.53.51Z"/>
    <path class="cls-77" d="m170.27,166.51c.12,0,.24,0,.36.01.03.02.04.04.03.05-.01.01-.02.02-.04.02-.21,0-.41.02-.62.03v-.03c.05-.18.16-.14.27-.08Z"/>
    <path class="cls-140" d="m170.62,166.59s0-.05,0-.07c.18,0,.36-.05.52.06-.18,0-.35,0-.53,0Z"/>
    <path class="cls-238" d="m172.54,166.51c.43-.16.88-.05,1.31-.07.01.01.03.03.04.04,0,.02-.01.04-.02.05-.24,0-.48,0-.71,0-.21,0-.41-.01-.62-.02Z"/>
    <path class="cls-274" d="m174.04,167.56c.02-.16.1-.29.2-.42.3-.37.26-.46-.21-.55-.05,0-.1-.04-.16-.06,0,0-.01-.03-.01-.03.23-.02.46-.07.69-.04.43.29.56.64.37.98-.02.04-.05.07-.08.09-.04.02-.08.03-.12.03-.13-.03-.26-.04-.38.03-.05.02-.11.02-.16.03-.04,0-.07,0-.11-.02-.01-.01-.02-.03-.03-.04Z"/>
    <path class="cls-25" d="m174.92,167.66c-.4.18-.82.05-1.24.08.12-.06.24-.12.36-.18v.03c.29,0,.6-.17.87.07Z"/>
    <path class="cls-195" d="m176.84,164.94c.32.01.62-.02.91-.22.29-.19,1.05.17,1.28.57-.68-.08-1.1.44-1.62.72-.15.08-.19.28-.23.46-.08.44-.3.81-.52,1.19-.06,0-.12,0-.18,0,.12-.48.02-.64-.53-.88-.06.05-.11.04-.17,0,0-.27.18-.44.34-.62,0-.12,0-.24-.02-.35-.12-.64.04-.84.72-.88Z"/>
    <path class="cls-45" d="m175.8,166.78c.06,0,.11,0,.17,0,.17.53.1.68-.35.79-.12-.01-.21-.07-.26-.18,0-.02.02-.03.02-.05.21-.12.35-.28.38-.52.01-.01.03-.03.04-.04Z"/>
    <path class="cls-253" d="m174.83,167.47c.22-.38-.07-.61-.27-.87-.01-.13.08-.15.17-.16.32.05.4.37.62.54.17.14-.03.29-.17.4l-.17.11c-.07.04-.13.03-.18-.03Z"/>
    <path class="cls-106" d="m175.18,167.38c.1-.21.18-.38-.15-.49-.12-.04-.2-.23-.29-.36.09-.15.22-.13.35-.08.04.01.08.03.12.05.09.06.16.14.24.22.05.07.1.14.11.23.02.14,0,.26-.11.35-.03.03-.07.05-.1.08,0,0,0,0,0,0-.06,0-.12,0-.18-.01Z"/>
    <path class="cls-164" d="m174.83,167.47c.06,0,.12.02.18.03-.03.05-.06.11-.09.16-.29-.03-.59.07-.88-.07.03,0,.06-.01.09-.02.2-.09.4-.09.61-.08.03,0,.06-.01.09-.02Z"/>
    <path class="cls-153" d="m170.27,166.51c-.09.03-.17.05-.26.08-.22.16-.47.08-.71.1-.35.04-.71-.09-1.05.08-.06.06-.12.06-.17,0-.3-.44-.38-.92-.36-1.44.02-.27-.09-.51-.26-.72.13-.2.34-.16.52-.12.64.13,1.31-.04,1.93.25.04.03.08.07.1.13-.16.19-.32.35.05.51.28.12.32.39.28.67-.02.16-.05.32-.07.47Z"/>
    <path class="cls-167" d="m168.08,166.77c.06,0,.12,0,.17,0-.07.3-.57.23-.52.62,0,0,0,0,0,0-.23-.04-.22-.19-.14-.35.05-.1.17-.16.23-.26.09,0,.17-.02.26-.03Z"/>
    <path class="cls-150" d="m167.82,166.79c-.02.2-.3.36-.09.6,0,.08,0,.16,0,.25-.06,0-.11,0-.17,0-.13-.23-.14-.46-.01-.69,0-.03,0-.05.01-.08.09-.03.17-.05.26-.08Z"/>
    <path class="cls-190" d="m167.55,166.95c0,.23,0,.46.01.69-.03-.02-.07-.04-.1-.07-.05-.2-.08-.41.01-.61.02,0,.05,0,.07-.01Z"/>
    <path class="cls-111" d="m167.47,166.96c0,.2,0,.41-.01.61-.03,0-.05,0-.08-.01,0-.08-.01-.17-.02-.25.02-.12-.02-.26.11-.34Z"/>
    <path class="cls-21" d="m161.86,162.39c-.09.03-.18.06-.27.09-.24-.09-.35-.38-.61-.44-.09-.09-.09-.18,0-.27.45-.04.79.19.88.61Z"/>
    <path class="cls-128" d="m170.44,161.52c-.18.01-.3-.08-.42-.2-.09-.09-.19-.22-.3-.24-.75-.16-.76-.72-.77-1.3.13-.19.34-.14.52-.14.22,0,.43-.05.65-.08.11-.01.21,0,.32,0,.25.05.51.05.75.15.02.02.03.04.05.06-.7.3-.75.47-.17,1.23-.38-.03-.47.28-.61.53Z"/>
    <path class="cls-134" d="m170.44,159.76c-.08,0-.17,0-.25,0-.44-.05-.88-.05-1.32,0h-.04s-.04,0-.04,0c-.11-.11-.26-.17-.39-.26-.11-.08-.25-.17-.09-.33.2-.09.38,0,.56.08.42.19.85.06,1.28.08.33.02.67,0,1,0,.26.04.27.23.26.42-.06,0-.12.01-.18.02,0,0,0-.01,0-.01-.27-.05-.54-.05-.81,0Z"/>
    <path class="cls-266" d="m168.87,159.24c-.2,0-.41,0-.61,0-.12.18-.29.19-.48.16-.45.12-.88-.25-1.32-.06-.41.18-.94,0-1.26.44-.19.1-.38.1-.58,0-.24-.26-.33-.55-.22-.9.15,0,.31.03.44-.09.18.15.39.18.61.18.7,0,1.4,0,2.1,0,.26,0,.51,0,.77,0,.22,0,.42.06.55.26Z"/>
    <path class="cls-11" d="m169.91,164.84l-2.44-.24c-.18.02-.34-.15-.53-.09-.21-.03-.42-.08-.62-.18-.02-.4.15-.57.56-.45.5.14.99-.04,1.45-.13.52-.11.65-.64.71-1.13.06-.45.7-.79,1.11-.58.38.19.86.18,1.17.54.21.4.05.86.17,1.28.05.18.12.33.31.38.13.03.27.05.29.22.02.23-.2.16-.31.23-.04.02-.07.05-.1.08-.03,0-.06.02-.09.03-.15.06-.3.02-.45.03-.41.02-.82-.04-1.22.03Z"/>
    <path class="cls-133" d="m171.65,161.63c.1.03.2.07.18.16-.02.11-.14.07-.21.07-.05,0-.15.06-.12-.08.02-.1.07-.15.15-.16Z"/>
    <path class="cls-188" d="m175.18,166.61s-.06,0-.08-.02c-.22-.27-.55,0-.79-.17.23-.26.41-.53.8-.63.46-.12.8-.04,1.04.37.03.29,0,.53-.35.61,0,0,0,0,0,0-.04.05-.1.07-.16.06-.04,0-.08-.03-.11-.05-.09-.1-.2-.18-.35-.19Z"/>
    <path class="cls-231" d="m174.3,166.43c.26.07.58-.16.79.17-.12-.03-.23-.1-.36-.06-.07,0-.14,0-.18.07-.22-.12-.47-.06-.7-.1,0-.02,0-.04,0-.06.03,0,.06-.01.09-.02.12,0,.23,0,.35,0Z"/>
    <path class="cls-121" d="m169.91,164.84c.41-.16.83-.05,1.24-.06.04.02.05.03.03.04-.01.01-.03.02-.04.02-.12,0-.23.02-.35.03-.26,0-.53,0-.79,0-.03,0-.07-.01-.1-.02Z"/>
    <path class="cls-184" d="m171.14,164.84s0-.04,0-.06h.44c-.14.1-.29.07-.44.06Z"/>
    <path class="cls-80" d="m161.86,162.39c-.25-.26-.58-.42-.88-.61,0-.02,0-.05-.01-.07-.04-.2-.38-.26-.26-.54,0-.09,0-.18,0-.26.12-.26.26-.52.44-.74.23-.28.51-.42.87-.25.03.05.06.11.03.16-.4.63.03,1.11.31,1.59.17.29.15.53-.16.89-.13-.01-.19-.19-.34-.16Z"/>
    <path class="cls-43" d="m162.03,159.94c-.37.06-.71.14-.89.55-.07.17-.28.28-.43.41,0-.29,0-.58,0-.88.06-.18.19-.28.35-.35.14-.02.18-.12.18-.25.06,0,.12-.02.17-.03.25-.12.49-.11.69.1.09.17.15.33-.08.44Z"/>
    <path class="cls-135" d="m159.76,160.99c-.07-.11-.24-.11-.28-.25.16-.19.34-.2.52-.02.12.12.24.24.36.36.05.06.06.12,0,.18-.24,0-.37-.26-.6-.28Z"/>
    <path class="cls-227" d="m160.36,161.27c0-.06,0-.12,0-.18.12.03.23.06.35.09.1.17.3.3.26.54-.06-.03-.12-.06-.17-.09-.23.03-.35-.09-.43-.29,0-.02,0-.05,0-.07Z"/>
    <path class="cls-152" d="m161.06,159.68c-.09.15-.2.26-.35.35-.1-.33.1-.36.35-.35Z"/>
    <path class="cls-186" d="m157.91,158.99s.06,0,.09-.01c.06.03.12.06.18.09-.06.03-.12.06-.19.1-.06.06-.12.12-.17.18-.11-.15.02-.24.09-.34Z"/>
    <path class="cls-263" d="m158.25,159.87c-.09-.04-.17-.08-.26-.12,0-.15-.03-.3.09-.42-.03.22.18.29.26.44,0,.06-.04.09-.09.1Z"/>
    <path class="cls-178" d="m158.25,159.87s.06-.07.09-.1c.13.08.24.17.27.34-.1.03-.17-.04-.25-.08-.03-.05-.07-.1-.1-.15Z"/>
    <path class="cls-109" d="m157.91,158.99c-.03.11-.06.23-.09.34,0,.11,0,.23,0,.34-.03.03-.06.05-.09.08-.03-.2-.17-.24-.34-.25.11-.2.41-.24.43-.52.03,0,.06,0,.09,0Z"/>
    <path class="cls-147" d="m162.03,159.58c-.17-.18-.45.02-.62-.18.09-.5.49-.63.89-.69.45-.07.92-.05,1.38-.08.28-.02.52.06.71.26.13.24.26.48.18.77-.04.08-.1.12-.19.14-.54.16-1.07-.03-1.6-.04-.13,0-.26-.03-.39,0-.15,0-.25-.09-.36-.17Z"/>
    <path class="cls-91" d="m160.36,161.33l.43.29c-.31.15-.42.01-.43-.29Z"/>
    <path class="cls-114" d="m164.39,159.69c.06,0,.12-.02.18-.03.2,0,.41,0,.61,0,.33-.25.71-.15,1.07-.15.37.27.74.22,1.11.02.12-.04.24,0,.36.02.15.02.29.06.35.23.09.23,0,.5.13.72.02.03,0,.09-.01.13-.06.18-.78.66-.99.65-.23,0-.28.06-.12.24.1.1.07.18-.04.24-.25.13-.48.27-.74.36-.54.18-1.07.34-1.46.81-.14.17-.42.2-.55.02-.35-.47-.72-.35-1.12-.11-.18-.29.06-.45.23-.56.47-.32.49-.9.8-1.31.07-.09.03-.22-.02-.33-.17-.37-.08-.68.22-.93Z"/>
    <path class="cls-130" d="m164.39,159.69c-.01.35-.34.71.06,1.04.02.02.02.1,0,.12-.35.45-.32,1.11-.85,1.46-.19.13-.39.27-.43.52-.03.06-.06.12-.09.19-.09-.04-.17-.07-.26-.11-.21-.26-.07-.48.11-.65.57-.51.41-1.13-.26-1.64-.39-.3-.27-.65-.29-1.01.68-.09,1.34.1,2.01.09Z"/>
    <path class="cls-40" d="m168.08,159.78c-.11-.05-.27.05-.35-.09-.12-.15-.13-.3,0-.45.18,0,.35,0,.53,0,.22.13.55.14.53.51-.23,0-.47.02-.7.03Z"/>
    <path class="cls-41" d="m168.86,159.75c.44-.12.88-.12,1.32,0-.41,0-.82.02-1.23.03-.03,0-.06-.02-.09-.03Z"/>
    <path class="cls-250" d="m162.38,159.61c.13.18.35.32.16.6-.1.15.1.16.19.22.65.42,1.07,1.33.39,1.89-.18.15-.34.32-.3.59-.23-.07-.43-.2-.61-.35,0-.09-.02-.19.01-.26.14-.27.07-.41-.14-.67-.24-.29-.33-.74-.46-1.13-.1-.29.33-.32.41-.56.07-.12.06-.24,0-.36.12,0,.23.02.35.03Z"/>
    <path class="cls-138" d="m174.74,167.49c-.19.14-.41.07-.61.08.06-.03.12-.06.18-.09.14-.07.29-.05.43-.02v.02Z"/>
    <path class="cls-245" d="m174.74,167.46c-.14,0-.29.01-.43.02.14-.11.29-.11.43-.02Z"/>
    <path class="cls-146" d="m175.62,166.78c.06,0,.12,0,.17,0,.11.44.02.57-.44.61,0-.03.01-.05.02-.08.19-.1.21-.26.18-.44.01-.04.04-.07.07-.09Z"/>
    <path class="cls-37" d="m175.62,166.87c.14.27.06.42-.25.44.03-.12.06-.24.09-.37.03-.07.06-.13.16-.08Z"/>
    <path class="cls-26" d="m175.18,166.61c.18-.16.31-.03.44.08-.07.09-.16.1-.26.09-.06-.06-.12-.11-.18-.17Z"/>
    <path class="cls-143" d="m175.35,166.78c.07-.08.16-.09.26-.09,0,.03,0,.05,0,.08,0,.03,0,.06,0,.09-.05.03-.1.05-.16.08-.04-.05-.07-.11-.11-.16Z"/>
    <path class="cls-6" d="m170.44,159.76c.27-.12.54-.13.81,0-.27,0-.54,0-.81,0Z"/>
    <path class="cls-187" d="m167.73,159.24c0,.15,0,.3,0,.45-.12,0-.23,0-.35,0-.35.07-.7.14-1.05,0-.38,0-.76-.02-1.14-.03.04-.17.14-.32.31-.32.4,0,.75-.19,1.13-.26.39-.07.71.25,1.1.15Z"/>
    <path class="cls-130" d="m166.32,159.69c.35,0,.7,0,1.05,0-.35.16-.7.3-1.05,0Z"/>
  </g>
</svg>