<svg xmlns="http://www.w3.org/2000/svg" viewBox="0 0 320 700"><defs><style>.cls-1{isolation:isolate;}.cls-2{fill:#e6e6e6;mix-blend-mode:multiply;}.cls-3{fill:#d63384;}.cls-4{fill:#fff;}.cls-5{fill:#f9f9f9;}.cls-6{fill:#f8f7f9;}.cls-7{font-size:16px;font-family:WorkSans-Regular, Work Sans;}.cls-8{letter-spacing:-0.01em;}.cls-9{letter-spacing:-0.01em;}.cls-10{letter-spacing:-0.01em;}.cls-11{letter-spacing:-0.01em;}.cls-12{letter-spacing:-0.02em;}.cls-13{letter-spacing:0em;}.cls-14{letter-spacing:-0.02em;}.cls-15{letter-spacing:-0.02em;}.cls-16{letter-spacing:-0.02em;}.cls-17{letter-spacing:-0.02em;}.cls-18{letter-spacing:-0.03em;}.cls-19{letter-spacing:-0.02em;}.cls-20{letter-spacing:-0.02em;}.cls-21{letter-spacing:-0.02em;}.cls-22{letter-spacing:-0.02em;}.cls-23{letter-spacing:-0.02em;}.cls-24{letter-spacing:0em;}.cls-25{fill:#603813;}.cls-26{fill:#34220e;}.cls-27{fill:#edc4a6;}.cls-28{fill:#fbf1e1;}.cls-29{fill:#fafef8;}.cls-30{fill:#473117;}.cls-31{fill:#074959;}.cls-32{fill:#efb88f;}.cls-33{fill:#cba284;}.cls-34{fill:#cb9775;}.cls-35{fill:#602e03;}.cls-36,.cls-47,.cls-48,.cls-50{fill:none;}.cls-36,.cls-50{stroke:#e5b897;}.cls-36,.cls-48,.cls-50{stroke-linecap:round;}.cls-36,.cls-47,.cls-50{stroke-miterlimit:10;}.cls-36{stroke-width:0.75px;}.cls-37{fill:#e5b897;}.cls-38{fill:#211b1b;}.cls-39{opacity:0.07;}.cls-40{fill:#bdd0e7;}.cls-41{fill:#f4f5f4;}.cls-42{fill:#f7f8fa;}.cls-43,.cls-46{fill:#e3e3e3;}.cls-44{fill:#c8c8c8;}.cls-45{opacity:0.05;}.cls-46{opacity:0.42;}.cls-47{stroke:#c8c8c8;stroke-width:2px;}.cls-48{stroke:#000;stroke-linejoin:round;stroke-width:3px;}.cls-49{fill:#050303;}</style></defs><g class="cls-1"><g id="Dra_video" data-name="Dra video"><path class="cls-2" d="M264,358.43H57.23L34.51,390.74V146.84c0-7.46,4.12-13.51,9.19-13.51H264c5.07,0,9.18,6,9.18,13.51V344.92C273.17,352.38,269.06,358.43,264,358.43Z"/><ellipse class="cls-3" cx="80.22" cy="71.6" rx="28.82" ry="29.35" transform="translate(-25.05 49.71) rotate(-30)"/><path class="cls-3" d="M255.72,343.38H49L26.25,375.69V131.79c0-7.46,4.11-13.51,9.18-13.51H255.72c5.07,0,9.18,6,9.18,13.51V329.87C264.9,337.33,260.79,343.38,255.72,343.38Z"/><rect class="cls-2" x="42.49" y="111.07" width="243.93" height="227.11" rx="15.37"/><rect class="cls-4" x="39.06" y="103.5" width="243.93" height="227.11" rx="15.37"/><circle class="cls-2" cx="37.26" cy="97.85" r="33.49"/><path class="cls-3" d="M48.4,42.46a7.31,7.31,0,1,1-10-2.67A7.31,7.31,0,0,1,48.4,42.46Z"/><path class="cls-3" d="M23.34,48.13a3.65,3.65,0,1,1-5-1.34A3.65,3.65,0,0,1,23.34,48.13Z"/><path class="cls-4" d="M53.61,97.79a3.65,3.65,0,1,1-5-1.34A3.65,3.65,0,0,1,53.61,97.79Z"/><path class="cls-3" d="M282.43,359.1a3.63,3.63,0,1,1-5-1.33A3.63,3.63,0,0,1,282.43,359.1Z"/><path class="cls-4" d="M303.51,360.64a3.63,3.63,0,1,1-5-1.33A3.62,3.62,0,0,1,303.51,360.64Z"/><circle class="cls-3" cx="286.64" cy="338.1" r="7.26" transform="translate(-114.58 526.49) rotate(-74.86)"/><circle class="cls-3" cx="284.87" cy="308.41" r="17.6" transform="translate(-61.02 546.37) rotate(-81.8)"/><circle class="cls-5" cx="256.33" cy="334.34" r="17.75" transform="translate(-136.59 486.32) rotate(-73.67)"/><circle class="cls-6" cx="32.78" cy="92.93" r="33.49"/><text class="cls-7" transform="translate(61.98 127.15)">Las e<tspan class="cls-8" x="41.81" y="0">n</tspan><tspan class="cls-9" x="51.6" y="0">f</tspan><tspan x="57.66" y="0">ermedades </tspan><tspan x="0" y="19.2">fúngicas pueden </tspan><tspan class="cls-10" x="135.12" y="19.2">a</tspan><tspan class="cls-11" x="144.09" y="19.2">f</tspan><tspan x="150.16" y="19.2">ecta</tspan><tspan class="cls-12" x="184.24" y="19.2">r</tspan><tspan class="cls-13" x="190.4" y="19.2"> </tspan><tspan class="cls-12" x="195.85" y="19.2">a</tspan><tspan x="204.54" y="19.2"> </tspan><tspan x="0" y="38.4">cualquie</tspan><tspan class="cls-14" x="66.43" y="38.4">r</tspan><tspan x="72.59" y="38.4" xml:space="preserve"> pe</tspan><tspan class="cls-15" x="97.42" y="38.4">r</tspan><tspan class="cls-13" x="103.62" y="38.4">sona. </tspan><tspan x="0" y="57.6">Ap</tspan><tspan class="cls-16" x="20.64" y="57.6">r</tspan><tspan x="26.91" y="57.6">ende</tspan><tspan class="cls-12" x="65.49" y="57.6">r</tspan><tspan class="cls-13" x="71.65" y="57.6" xml:space="preserve"> sob</tspan><tspan class="cls-17" x="105.34" y="57.6">r</tspan><tspan x="111.61" y="57.6">e ellas </tspan><tspan x="0" y="76.8">puede </tspan><tspan class="cls-18" x="54.11" y="76.8">a</tspan><tspan x="62.7" y="76.8">yudarlos </tspan><tspan class="cls-14" x="135.34" y="76.8">a</tspan><tspan x="144.03" y="76.8" xml:space="preserve"> usted</tspan><tspan class="cls-19" x="193.9" y="76.8" xml:space="preserve"> y</tspan><tspan x="207.12" y="76.8"> </tspan><tspan class="cls-14" x="0" y="96">a</tspan><tspan x="8.69" y="96" xml:space="preserve"> su médico </tspan><tspan class="cls-12" x="101.02" y="96">a</tspan><tspan x="109.71" y="96"> </tspan><tspan class="cls-16" x="115.17" y="96">r</tspan><tspan x="121.44" y="96">econoce</tspan><tspan class="cls-12" x="187.44" y="96">r</tspan><tspan x="193.6" y="96"> </tspan><tspan x="0" y="115.2">los sí</tspan><tspan class="cls-8" x="41.2" y="115.2">n</tspan><tspan x="50.99" y="115.2">tomas de un</tspan><tspan class="cls-12" x="150.25" y="115.2">a</tspan><tspan x="158.94" y="115.2"> </tspan><tspan x="0" y="134.4">e</tspan><tspan class="cls-8" x="9.3" y="134.4">n</tspan><tspan class="cls-9" x="19.09" y="134.4">f</tspan><tspan x="25.15" y="134.4">ermedad</tspan><tspan class="cls-20" x="94.73" y="134.4"> </tspan><tspan x="99.89" y="134.4">fúngic</tspan><tspan class="cls-14" x="148.05" y="134.4">a</tspan><tspan x="156.73" y="134.4" xml:space="preserve"> de </tspan><tspan x="0" y="153.6">mane</tspan><tspan class="cls-11" x="43.5" y="153.6">r</tspan><tspan class="cls-14" x="49.81" y="153.6">a</tspan><tspan class="cls-21" x="58.5" y="153.6"> </tspan><tspan x="63.63" y="153.6">temp</tspan><tspan class="cls-11" x="104.96" y="153.6">r</tspan><tspan class="cls-13" x="111.26" y="153.6">an</tspan><tspan class="cls-14" x="130.22" y="153.6">a</tspan><tspan class="cls-22" x="138.91" y="153.6" xml:space="preserve"> y</tspan><tspan x="152.13" y="153.6" xml:space="preserve"> puede </tspan><tspan class="cls-18" x="0" y="172.8">a</tspan><tspan x="8.59" y="172.8">yuda</tspan><tspan class="cls-12" x="46.19" y="172.8">r</tspan><tspan class="cls-13" x="52.35" y="172.8"> </tspan><tspan class="cls-12" x="57.81" y="172.8">a</tspan><tspan x="66.49" y="172.8" xml:space="preserve"> p</tspan><tspan class="cls-16" x="82.03" y="172.8">r</tspan><tspan class="cls-11" x="88.3" y="172.8">e</tspan><tspan class="cls-13" x="97.37" y="172.8">veni</tspan><tspan class="cls-14" x="129.15" y="172.8">r</tspan><tspan x="135.31" y="172.8"> </tspan><tspan x="0" y="192">complicaciones g</tspan><tspan class="cls-9" x="136.19" y="192">r</tspan><tspan class="cls-23" x="142.5" y="192">a</tspan><tspan class="cls-24" x="151.28" y="192">ves.</tspan></text><path class="cls-25" d="M217.91,404.12c15.74,24.28,17.4,64.26-4.42,85.26-11.81,10.21-28.68,11.68-44.3,11.64-25.32,1.75-41.53-10.56-49.8-34.24-13.26-26.57,3.24-56.1,21.17-76.07C164.52,376.62,201.18,380.4,217.91,404.12Z"/><path class="cls-26" d="M202.72,430.24a28.58,28.58,0,0,1,10.33,17.25c11.62,41.09-31,63.11-60.07,49.16-21.63-6.92-26.8-55.71,0-67.19C161.57,424.69,178.57,412.58,202.72,430.24Z"/><path class="cls-27" d="M197.31,414.55c5.29,7.59,6.77,17.12,7.92,26.31,2,11.61,1.42,24.19-6.75,33.45-4.54,6.7-11.33,10.79-17.92,15.2-5,3.93-11.12,4.36-16.3.55C150,483,144.15,468.91,140.37,454a32,32,0,0,1,7.51-33.79c6.63-6.49,27.5-22.47,36.52-16.65C189.21,406.85,193.91,409.67,197.31,414.55Z"/><path class="cls-27" d="M209.18,434.66c4,1.21,4.46,7.13,1,9.31a33,33,0,0,0-4.45,2.81c-1.48-2.59-1.94-7.78-1.84-10.86C204.3,433.37,206.82,434,209.18,434.66Z"/><path class="cls-27" d="M136.37,434.05c-4.68,3-4,9.49.38,12.41.95,1.17,1.71,2.92,3.21,2.91v-8.23C140.66,437.06,142.5,433.22,136.37,434.05Z"/><path class="cls-28" d="M208.9,444.85c2.88,1.19,1.4,7.14-1.88,6.5C204.59,451.38,202.85,442.12,208.9,444.85Z"/><path class="cls-29" d="M140.15,442.91c1,.55.86,8.64-1.49,6.64C134.87,448.46,135.52,441.56,140.15,442.91Z"/><path class="cls-30" d="M184.29,422.08c3.86.44,10.3,4.24,9.93,8.43-2.71-4.78-9-6.18-14.06-6.73C177.87,421.11,182.8,421.79,184.29,422.08Z"/><path class="cls-30" d="M158.93,422.07c-3.86.42-10.3,4.22-9.94,8.41,2.71-4.78,9-6.16,14.07-6.71C165.35,421.11,160.43,421.77,158.93,422.07Z"/><path class="cls-31" d="M187.53,433.1c2.1,2.93.77,8.7-3.59,8C179.08,439.31,182.49,428.14,187.53,433.1Z"/><path class="cls-31" d="M159.76,433c1.31,1.84,1.4,5.21-.34,6.8C151.6,445.12,152.59,427.09,159.76,433Z"/><path class="cls-32" d="M143.75,450.74c-.11,4.5,10.15,4.51,10,0C153.9,446.25,143.64,446.25,143.75,450.74Z"/><path class="cls-32" d="M191.58,450.77c-.11,4.5,10.14,4.51,10,0C201.73,446.28,191.47,446.28,191.58,450.77Z"/><path class="cls-33" d="M175.8,454.58a4.47,4.47,0,0,1-4,2.74,6,6,0,0,1-4.51-2.05.86.86,0,0,1,1.05-1.35c.19.08-.18-.06,0,0l.17.05.35.1a3.29,3.29,0,0,0,.43.09h.27a15.15,15.15,0,0,0,1.9.12c.93,0,1.86,0,2.78,0a.87.87,0,0,1,.79.95.86.86,0,0,1-.79.78c-1,0-2,.07-3,.06a9.4,9.4,0,0,1-3.85-.67l1.05-1.36c.11.13.24.25.36.37l.19.17.13.11h0a5.88,5.88,0,0,0,.87.52l.11,0h0l.28.1a3.64,3.64,0,0,0,.47.14l.24.05c.18,0-.12,0,.09,0h.48a2.66,2.66,0,0,0,1.5-.42,1.07,1.07,0,0,0,.19-.13c-.13.1.05,0,.08-.07a2.81,2.81,0,0,0,.34-.35h0l.08-.11.15-.23a5.6,5.6,0,0,0,.27-.55.87.87,0,0,1,1.49.88Z"/><path class="cls-34" d="M169.44,475.19a9,9,0,0,0,1.77,1.1,3.57,3.57,0,0,0,1.29.25h.37l.21-.05a5.23,5.23,0,0,0,.77-.23,16.83,16.83,0,0,0,1.78-.82l.44,1.62-5.75.25a.87.87,0,1,1-.16-1.74h.16l5.75-.24a.88.88,0,0,1,.44,1.62,9.77,9.77,0,0,1-4,1.35,6.65,6.65,0,0,1-4-1.54.87.87,0,0,1,.87-1.5h0Z"/><path class="cls-35" d="M165.35,471.08c-.12,10.86,11.81,10.86,11.71,0C177.16,460.23,165.25,460.22,165.35,471.08Z"/><path class="cls-25" d="M173.64,409.64c-10.73,4.62-23.67,7.7-31.23,17.26-1.54,2.47-1.45,6.49-4.19,7.86-11.36-7.61-3.07-23,8.3-25.6,10-5.14,21.1-10,32.44-10.33C186.38,400.41,176,408.52,173.64,409.64Z"/><path class="cls-25" d="M204.18,429.13a25.75,25.75,0,0,0-7.58-9.06c-5.84-5.41-8.76-13.95-15.86-17.55,1.6-4.38,10.24-1.09,13.12.78C197.59,407.19,205.09,423.94,204.18,429.13Z"/><path class="cls-27" d="M62.91,529.84c4.77-12.15,4-24.19-.16-36.51-1.86-2.49-7.63.28-10.19-1.45-3.9-6.33-4.74-14.71-7.77-21.59-.62-3.09-4.75-7.08-7.14-3.49.52,9.32,3.91,18.92,7.35,27.63-5.94-8.09-14.66-2.21-8.23,5.95-7.43-4.48-11.07,1.59-5.71,7.33-5.4-2-9.55,1.4-6.5,6.7.5,1.11,2.53,1.74,2.59,3,.2,3.93-.18,2.43,3.38,10.28,7.21,9,8.1,5.93,11.73,19.18,1,2.65.53,5.83,1.54,8.49.44.81,23-6.59,23-6.59C66,544.22,62.58,535,62.91,529.84Z"/><path class="cls-36" d="M44.52,510.61c1.38,3.32-3,7.4-5.9,4.91"/><path class="cls-36" d="M38.28,515.24c1.12,3.09-.72,6.91-4.35,5.22"/><path class="cls-37" d="M26.39,517a20.64,20.64,0,0,0,1.17,6.45A16.22,16.22,0,0,0,31.15,529c1.54,1.6,3.2,3,4.69,4.44a18,18,0,0,1,3.68,4.93.86.86,0,1,0,1.54-.77h0a19.73,19.73,0,0,0-4.2-5.21c-1.61-1.48-3.33-2.77-4.82-4.23a15.05,15.05,0,0,1-3.56-5.05,20.18,20.18,0,0,1-1.36-6.13h0a.35.35,0,0,0-.39-.32A.34.34,0,0,0,26.39,517Z"/><path class="cls-38" d="M159.41,648.06a1.29,1.29,0,0,0-1.51,1.66c1.61,18.41,1.26,36.93.9,55.4q14.8.46,29.62.13c0-16,.09-32-.1-48-.08-6.41-.66-9-7.27-9.13C173.84,648,166.63,648.06,159.41,648.06Z"/><polygon class="cls-39" points="127.54 557.25 128.31 568.05 121.43 582.59 127.54 557.25"/><path class="cls-40" d="M151.71,534.9c2.46,38.46,14,77.19,15.69,115.7,4.7.31,9.75-.26,13-.09.3-19.89,1.75-39.4,2.12-59.28.78-19.23,11.62-40.21,11.61-59.39C185.9,533.5,160.12,535.62,151.71,534.9Z"/><path class="cls-41" d="M40.42,554.81c3.11,24.75,18.4,46.85,24.17,71.3a15.29,15.29,0,0,0,24.87,6c13.85-14.46,22.15-33.69,33.6-50.09-4.53,14.69,21.34,46.42,25.33,65.11,3.11,5.63-3.88,7.39-7,10.45-10.82,13.51-22.37,29.65-23.17,47,12.82,4.16,32.42.17,45.76.8,9.55-56.11.84-108,.84-108l-13.08-60.18s-2.15-6.42-.76-12.34c1.47-6.28,13.8-13.39,10.81-15.42-2.64-1.8-12.35,3.85-12.35,3.85s-4.51,2.61-6.35,9.27c-2.33,3.78-7.41,5.11-11.84,5.18-16.74-.82-39.51,42.64-47.32,56.52a295.42,295.42,0,0,1-15-41.11l-25.76,8.23C41.43,551.79,40,553,40.42,554.81Z"/><path class="cls-42" d="M179.36,699.35c.25,2.23.78,6,.78,6s13.12,0,17.69-.55c1.91-.23,28.66-1.75,34.28-1a226.58,226.58,0,0,0-14.66-37.51c-4.9-10.1-15-13.46-9.74-25.69,2.32-7.71,3-13.21,6.19-20.82,1.16-2.89,1.2-9.73,3.92-11.65,9.71-9,7.29-19.81,8.45-32.31,31.73,52.66,53.27,32.1-2.35,78.19-9.43,6.44,11.11,6.8,15.39,28.27,19.85-14.73,40.87-29.84,53.42-51.67,13-19.83-22.67-45.15-32.39-61.4-6.19-8.35-11.37-17.43-17.77-25.62s-14.27-15.65-24-19.27c-5.3-2-11.36-2.93-15.19-7.1-5.59-8.4-18.46-8.54-18.46-8.54a60,60,0,0,0,6.17,7.72c1,1,6.07,3.35,6.16,5.4.21,4.76-5.41,21.6-5.41,21.6s-13.63,39.29-11.61,64.79C181.55,637.1,179.53,670.54,179.36,699.35Z"/><path class="cls-43" d="M192.77,580.07c-2.6,12.47,15.41,16.32,18.13,3.88S195.49,567.64,192.77,580.07Z"/><path class="cls-44" d="M211.1,583.05c2.27-10-12.51-13.14-14.51-3.11C194.32,589.91,209.09,593.07,211.1,583.05Z"/><polygon class="cls-44" points="207.56 567.77 206.46 566.56 204.39 573.73 206.21 574.12 207.56 567.77"/><path class="cls-39" d="M223.19,560.4l13.87,30.86C230.16,579.32,223.29,578.57,223.19,560.4Z"/><path class="cls-45" d="M215,617.41c-2.75,4.92-5.9,19-9.54,31.51-17.16,4.24-36,4.46-53.5,1.69-1.89-.45-3.26-.77-3.13-3.09-3.13-13.12-14.07-29.32-17.2-37,6.76,0,12.81.8,19.57.78,6.72-.49,14.26-2.27,21-2.46,14.67,1,31.1,6.8,44.83-.58C216.69,609,216.74,613.17,215,617.41Z"/><path class="cls-46" d="M204.18,521.05s6.16,12.34,11.56,18.52l-13.89,1.53,10,8.49-11.58,16.19s-12.35,12.34-15.44,22.36l-4.64,12.34s.79-21.59,10.84-54c5.85-18.86,5.9-25.88,3.1-28.54a27.86,27.86,0,0,0-5.4-3.86L186.44,511S198.78,511,204.18,521.05Z"/><path class="cls-46" d="M140.59,520.3s-6.05,12.39-11.4,18.62l13.9,1.41-10,8.58L144.86,565s12.46,12.23,15.64,22.23l4.74,12.3s-1-21.6-11.3-53.9c-6-18.81-6.13-25.83-3.35-28.51a27.27,27.27,0,0,1,5.37-3.91l2.28-3.11S145.9,510.22,140.59,520.3Z"/><path d="M205.23,570.49a1.44,1.44,0,0,1,0-1.26l.36-1.13.68-2.28c.43-1.53.83-3.08,1.19-4.63.72-3.1,1.29-6.23,1.72-9.37a55.4,55.4,0,0,0-.3-18.8,28,28,0,0,0-3.3-8.61,20.9,20.9,0,0,0-6.24-6.59,27.82,27.82,0,0,0-8.61-3.2,73.79,73.79,0,0,0-9.4-1.45,92.58,92.58,0,0,0-19.05.18,64.54,64.54,0,0,0-9.31,1.77,34.82,34.82,0,0,0-8.62,3.5,19,19,0,0,0-3.6,2.72,13.55,13.55,0,0,0-1.46,1.66c-.45.62-.87,1.25-1.28,1.91a33.63,33.63,0,0,0-3.55,8.56,67.48,67.48,0,0,0-1.82,9.31,19.7,19.7,0,0,0-.16,4.51c.08.75.19,1.61.24,2.45s.08,1.68.09,2.51a1.5,1.5,0,1,1-3,0v0c0-.78,0-1.56,0-2.32s-.11-1.52-.17-2.37a21.74,21.74,0,0,1,.28-5.14,77.11,77.11,0,0,1,2-9.65,36.77,36.77,0,0,1,3.9-9.22c.45-.72.93-1.42,1.43-2.11a17,17,0,0,1,1.74-2,21.72,21.72,0,0,1,4.1-3.09,37.78,37.78,0,0,1,9.27-3.74,65.81,65.81,0,0,1,9.69-1.8,94.93,94.93,0,0,1,19.58-.12,74.57,74.57,0,0,1,9.71,1.54,30.06,30.06,0,0,1,9.41,3.57,23.48,23.48,0,0,1,7,7.3,30.63,30.63,0,0,1,3.69,9.34,58.84,58.84,0,0,1,.51,19.71,92.48,92.48,0,0,1-1.76,9.65c-.38,1.59-.79,3.17-1.24,4.74-.23.79-.46,1.57-.71,2.35l-.38,1.17a1.52,1.52,0,0,1-.84,1,1.23,1.23,0,0,1-1.64-.54Z"/><path class="cls-47" d="M147.09,565.92l-4.41,39.83s-1.31,10.41-8.86,12.57"/><path class="cls-47" d="M121.35,571.11l19.09,36.58s5.14,9.51,13.08,9"/><path class="cls-48" d="M147.09,568.52s0-21.11-16.08-16.09c0-.07-13.39-.9-9.06,19.09"/><path class="cls-49" d="M156.25,615.69c1.47-.21,3.94.07,3.74,2-1.32,2.45-6.05,1.85-8,.4-.75-.55-.23-2.37.52-2.62A35.84,35.84,0,0,0,156.25,615.69Z"/><path class="cls-49" d="M135.68,619.39c-1.18,2.23-5.43,4.62-7.52,2.53-1-3.13,3.61-3.13,5.33-4.51A1.48,1.48,0,0,1,135.68,619.39Z"/><path class="cls-4" d="M204.18,518.73s5.39,13.89,10.78,20.07l-12.34,1.09,9.25,8.93-11.58,14.65s-12.35,12.33-15.44,22.36l-4.64,12.34s.79-21.6,10.84-54c5.85-18.87,3.59-24.34.79-27a27.86,27.86,0,0,0-5.4-3.86l-1.54-4.63S198.79,508.7,204.18,518.73Z"/><path class="cls-4" d="M140.57,518S135.3,531.92,130,538.14l12.35,1-9.17,9,11.7,14.55s12.46,12.22,15.63,22.22l4.75,12.3s-1-21.59-11.3-53.89c-6-18.82-1.43-21.54.89-24.62a43.8,43.8,0,0,0,3.86-6.17L161,507.9S145.88,507.9,140.57,518Z"/><path class="cls-27" d="M154,518.7c-5.41,6.94-2.91,10.73-2.33,17,8.42.67,42.43-2.29,42.43-2.29s1.77-6,.78-10.8a19.62,19.62,0,0,0-2.29-4.91,5.16,5.16,0,0,0-2.24-2c-.16-.08-.22-.09-.09,0-13.88-11.58-1.2-32.68-8.8-32.28-2.65-.13-16.41-.18-19.2-.1C163.13,495.3,162.38,509.14,154,518.7Z"/><path class="cls-37" d="M52.74,492.45a36.78,36.78,0,0,1-2.18-6.71c-.57-2.32-1-4.71-1.65-7.06a42.86,42.86,0,0,0-2.38-7,18.91,18.91,0,0,0-4.23-6.08.37.37,0,0,0-.52,0l0,0a.4.4,0,0,0,0,.52,18.26,18.26,0,0,1,3.63,6A42.1,42.1,0,0,1,47.24,479c.43,2.36.93,4.73,1.48,7.11A38.94,38.94,0,0,0,51,493.23a1,1,0,0,0,1.26.49,1,1,0,0,0,.49-1.27Z"/><path class="cls-50" d="M48.88,494.29c2.31,9.35,9.49-1.87,8.66,19.87"/><path class="cls-37" d="M47.65,501.87a10,10,0,0,1,2,3,7.34,7.34,0,0,1,.64,3.46,2.88,2.88,0,0,1-.6,1.54,2.36,2.36,0,0,1-1.4.83,6.92,6.92,0,0,1-3.49-.35h0a.29.29,0,0,0-.17.55h0a7.91,7.91,0,0,0,3.8.36,3,3,0,0,0,1.72-1,3.51,3.51,0,0,0,.77-1.85,8.09,8.09,0,0,0-.64-3.76,14.11,14.11,0,0,0-1.89-3.31.45.45,0,0,0-.62-.08h0a.42.42,0,0,0-.08.6h0Z"/><path class="cls-37" d="M31.37,508.57l5.92,5.55h0a.19.19,0,0,0,.28,0,.21.21,0,0,0,0-.29l-5.8-5.71a.31.31,0,0,0-.42,0,.32.32,0,0,0,0,.38h0Z"/><path class="cls-37" d="M37.51,501.7a15.09,15.09,0,0,0,2.43,3.6c.93,1.09,1.9,2.11,2.75,3.23a.19.19,0,0,0,.32-.22h0c-.81-1.19-1.75-2.27-2.61-3.39a14.83,14.83,0,0,1-2.15-3.53.4.4,0,1,0-.74.28Z"/><path class="cls-27" d="M53.94,492.28c-2.69-.83-6.82,1.07-4.42,4.1C50.85,495.15,55.15,494.71,53.94,492.28Z"/><path class="cls-34" d="M183.13,488.32c-2.7,2.68-6,5.11-9.84,5.67s-7.49-1.09-10.4-3.62c-.85-.73.39-1.95,1.23-1.22,2.57,2.23,5.79,3.72,9.25,3.09s6.18-2.78,8.54-5.13a.86.86,0,0,1,1.22,0,.87.87,0,0,1,0,1.23h0Z"/><path class="cls-27" d="M229.29,689.88l-.43,0h-.21a3.14,3.14,0,0,1-.57,0,1.73,1.73,0,0,1-.82-.48,2.31,2.31,0,0,0-.26-.2,7.38,7.38,0,0,1-1.56-1.47,3.66,3.66,0,0,1-.69-1.35c-.07-.19-.14-.4-.25-.68a1.09,1.09,0,0,0-.1-.19h-.15a4.23,4.23,0,0,1-3.59-2.21,5.69,5.69,0,0,1-.59-3.61,8.8,8.8,0,0,1-3.82-1.75,3.94,3.94,0,0,1-1.3-3.77,3.63,3.63,0,0,1-1.9-.66,7.86,7.86,0,0,1-1.86-2,3.36,3.36,0,0,1-.74-1.7v-.12a4.6,4.6,0,0,1,.29-2.13c.91-2.28,7.11-7.8,10.25-10.41a7.28,7.28,0,0,1,2.51-1.53,6.52,6.52,0,0,1,1.86-.21h.28a5.79,5.79,0,0,1,1.81.22,4.15,4.15,0,0,1,1.82,1.31,4.35,4.35,0,0,1,1,2.07,3.62,3.62,0,0,1,0,.73,4.18,4.18,0,0,1,1.39-.23,4.38,4.38,0,0,1,3.23,1.39,5.28,5.28,0,0,1,.79,5.39,4.54,4.54,0,0,1,3.54,7.21,3.23,3.23,0,0,1,2.27,1.91,5.84,5.84,0,0,1-.16,3.3A14.64,14.64,0,0,1,240,681.2a38.78,38.78,0,0,1-8.5,8,2.52,2.52,0,0,1-.83.43l-.23.07a3.68,3.68,0,0,1-1,.21Z"/><path class="cls-37" d="M225.36,655.83h.27a5.43,5.43,0,0,1,1.66.19,3.65,3.65,0,0,1,1.6,1.17,3.78,3.78,0,0,1,.94,1.83,2.25,2.25,0,0,1-.47,1.84l-.08.08.08-.08a3.33,3.33,0,0,1,2.39-.93,3.86,3.86,0,0,1,2.86,1.23,4.87,4.87,0,0,1,.33,5.6,3.39,3.39,0,0,1,.64,0,4,4,0,0,1,2.79,7,3.14,3.14,0,0,1,2.75,1.77,5.41,5.41,0,0,1-.17,3,14.08,14.08,0,0,1-1.37,2.42,38.63,38.63,0,0,1-8.39,7.9,2.29,2.29,0,0,1-.67.36,5.23,5.23,0,0,1-1.07.26h-.09a3.41,3.41,0,0,0-.5,0h-.21a3.21,3.21,0,0,1-.5,0c-.28,0-.67-.52-.93-.64a7.18,7.18,0,0,1-1.38-1.32,6.22,6.22,0,0,1-.88-1.92.84.84,0,0,0-.29-.42,1.06,1.06,0,0,0-.47-.08,3.74,3.74,0,0,1-3.11-2,5.34,5.34,0,0,1-.44-3.73,9.31,9.31,0,0,1-4.07-1.75,3.19,3.19,0,0,1-.81-4,2.38,2.38,0,0,1-.7.11,3.15,3.15,0,0,1-1.74-.58,7.62,7.62,0,0,1-1.73-1.89,2.83,2.83,0,0,1-.65-1.43,4.25,4.25,0,0,1,.26-2c.79-2,6.31-7.07,10.1-10.21a6.68,6.68,0,0,1,2.33-1.44,5.86,5.86,0,0,1,1.72-.19m0-1a6.87,6.87,0,0,0-2,.23,7.46,7.46,0,0,0-2.68,1.63c-.38.31-9.22,7.64-10.4,10.6a5,5,0,0,0-.33,2.35v.12a3.84,3.84,0,0,0,.83,2,8.59,8.59,0,0,0,2,2.13,4.39,4.39,0,0,0,1.61.69,4.62,4.62,0,0,0,1.54,3.71,8.82,8.82,0,0,0,3.61,1.74,6.16,6.16,0,0,0,.7,3.48,4.72,4.72,0,0,0,3.86,2.47,5.06,5.06,0,0,1,.19.53A4.43,4.43,0,0,0,225,688a7.7,7.7,0,0,0,1.74,1.6l.15.14a2.21,2.21,0,0,0,1.07.6,4.26,4.26,0,0,0,.65,0h.21l.36,0,.23,0a4.06,4.06,0,0,0,1.11-.23l.21-.07a2.88,2.88,0,0,0,1-.5,39.67,39.67,0,0,0,8.6-8.08,15.32,15.32,0,0,0,1.53-2.72,6.35,6.35,0,0,0,.16-3.64,3.44,3.44,0,0,0-2-2,5,5,0,0,0-3.62-7.38,5.72,5.72,0,0,0-1.08-5.29,4.9,4.9,0,0,0-3.61-1.56,4.47,4.47,0,0,0-.91.08l0-.16a4.8,4.8,0,0,0-1.15-2.31,4.74,4.74,0,0,0-2-1.47,6.35,6.35,0,0,0-2-.24Z"/><path class="cls-37" d="M235,676.7c.05.23-.12.26-.18.39l-.27.33-.54.64c-.37.42-.75.83-1.13,1.24-.77.81-1.56,1.6-2.36,2.38-1.6,1.56-3.25,3.05-4.84,4.57a1,1,0,0,1-1.39-1.45l.09-.07c1.77-1.37,3.59-2.65,5.37-4,.89-.66,1.76-1.33,2.62-2,.42-.35.85-.71,1.26-1.07l.62-.55.3-.29c.12-.07.14-.24.37-.21A.08.08,0,0,1,235,676.7Z"/><path class="cls-37" d="M230.33,670.64c-3.17,3.13-6.13,6.47-9.45,9.56a1,1,0,1,1-1.37-1.47l.08-.06c3.49-2.68,6.76-5.75,10.23-8.59a.38.38,0,0,1,.53.06A.37.37,0,0,1,230.33,670.64Z"/><path class="cls-37" d="M224.93,665.37c-1.63,1.43-3.22,2.89-4.72,4.43a47.47,47.47,0,0,0-4.24,4.9h0a1,1,0,0,1-1.41.23,1,1,0,0,1-.22-1.42,1.34,1.34,0,0,1,.2-.21c.88-.66,1.67-1.4,2.47-2.13s1.62-1.48,2.46-2.18c1.66-1.42,3.36-2.77,5-4.13a.33.33,0,0,1,.46.06A.32.32,0,0,1,224.93,665.37Z"/></g></g></svg>