<svg xmlns="http://www.w3.org/2000/svg" xmlns:xlink="http://www.w3.org/1999/xlink" viewBox="0 0 320 700"><defs><style>.cls-1,.cls-10,.cls-16,.cls-17,.cls-30{fill:none;}.cls-2{clip-path:url(#clip-path);}.cls-3{fill:#c7b299;}.cls-4{fill:#dcdae0;}.cls-5{fill:#784d24;}.cls-6{fill:#fff;}.cls-7{fill:#e9c0a3;}.cls-8{fill:#e8c1a3;}.cls-9{fill:#e4b895;}.cls-10{stroke:#e4b895;stroke-linecap:round;}.cls-10,.cls-16,.cls-17,.cls-30{stroke-miterlimit:10;}.cls-11{fill:#5987bb;}.cls-12{fill:#6293d4;}.cls-13{fill:#5381c0;}.cls-14{fill:#e3e3e3;}.cls-15{fill:#c8c8c8;}.cls-16{stroke:#c8c8c8;}.cls-17{stroke:#000;}.cls-17,.cls-30{stroke-width:2px;}.cls-18{fill:#050303;}.cls-19{fill:#e9c1a3;}.cls-20{fill:#8f5b27;}.cls-21{fill:#784d23;}.cls-22{fill:#461e0a;}.cls-23{fill:#d3a37f;}.cls-24{fill:#fffffe;}.cls-25{fill:#e9a78e;}.cls-26{fill:#efad99;}.cls-27{fill:#a38161;}.cls-28{fill:#322d26;}.cls-29{fill:#8c6239;}.cls-30{stroke:#8c6239;}.cls-31{fill:#e6e6e6;}.cls-32{fill:#8c2b87;}.cls-33{fill:#f8f7f9;}.cls-34{isolation:isolate;}.cls-35{fill:#020202;}</style><clipPath id="clip-path"><rect class="cls-1" x="-2" y="1" width="317" height="699"/></clipPath></defs><g id="Dra_webinar" data-name="Dra webinar"><g class="cls-2"><g id="Dra_webinar-2" data-name="Dra webinar"><rect class="cls-3" x="89" y="299" width="196" height="442" rx="4.7"/><rect class="cls-4" x="106" y="309" width="168" height="432" rx="4.3"/><path class="cls-5" d="M127.49,387.18s-38.26-11.87-59.37,25.07c0,0-9.74,21.63,11,62a49.64,49.64,0,0,0,18.38,19.8l39.22,23.74,23.75-10.56s-6.6-5.27-7.92-27.7c0,0,11.88-1.32,15.84-43.54C168.39,436,167.07,389.82,127.49,387.18Z"/><path class="cls-6" d="M144.12,542.12a2.14,2.14,0,0,1,1.17-.14c.75.2,1,1.09,1.2,1.85a152.28,152.28,0,0,1,3.3,39.49c-10.44-5.08-18.59-13.8-28-20.54-1.8-1.28-3.71-2.56-4.79-4.48C111.05,547.77,138.3,543.91,144.12,542.12Z"/><path class="cls-7" d="M46.46,592.67c-4.76,1.39-11,1.3-13.41-3a12.59,12.59,0,0,1-1.19-5.5,134.91,134.91,0,0,1,1.2-26.11c2.13-14.74,6.17-31.92,4.22-46.84,6.44-.14,12,1.33,18.16-.65.65,15.57-.54,29.42-1.14,44.11l4.64-.13c.85,0,3.58,24.11,3.39,26.41C61.78,587.44,52.18,591,46.46,592.67Z"/><path class="cls-8" d="M56.45,504.87c.79-1.8,2.2-3.14,3.12-4.88,3.83-7.22,4.15-13.53,4.34-21.7a3.86,3.86,0,0,0-.18-1.58c-.92-2.29-5.93-1.33-7.56-3.18-.65-.74-.47-1.49-.59-2.47-.61-5.16-.39-10.57-1-15.74a7,7,0,0,0-1.28-3.83c-.88-1-2.71-1.37-3.56-.31a3.59,3.59,0,0,0-.54,2.1c-.27,6.9-.54,13.86.59,20.68a10.23,10.23,0,0,0-2.49-3.51,3.77,3.77,0,0,0-4.06-.6,3.81,3.81,0,0,0-1.74,3.26,11.78,11.78,0,0,0,.77,3.76,10.16,10.16,0,0,0-3.59-2.2,2.32,2.32,0,0,0-1.35-.18A2.25,2.25,0,0,0,36,475.76a5.57,5.57,0,0,0,.41,5.6c-1.76-1.08-4.24-2-5.7-.5-1.07,1.08-.9,2.84-.66,4.35.15,1,1.59,1.85,1.39,2.8-.64,3.06-.63,1.83.52,8.61.59,3.44,3.23,4.68,4.22,8,.86,2.91.61,6.12,1,9.13.26,2.25.4,4.39.66,6.65.17.72,17.89-.2,17.89-.2-.07-1.44-.07-2.88,0-4.31C56,513,55.23,507.62,56.45,504.87Z"/><path class="cls-9" d="M54.3,474.18c-.2-1.91-.36-3.82-.49-5.75s-.26-3.83-.2-5.76.1-3.87.16-5.74a7.9,7.9,0,0,0-1.24-5.14.43.43,0,0,1,.06-.57.41.41,0,0,1,.55,0,6.38,6.38,0,0,1,1.46,2.69,12.7,12.7,0,0,1,.47,2.94c.12,2,.18,3.82.34,5.73s.21,3.79.36,5.68.31,3.78.52,5.67A1,1,0,0,1,55.4,475a1,1,0,0,1-1.11-.89h0Z"/><path class="cls-10" d="M52.85,474.64a4.65,4.65,0,0,0,.2,2.53c.67,1.34,2.46,1.71,3.36,2.91a5,5,0,0,1,.66,3.47,33.77,33.77,0,0,1-1.57,8.15"/><path class="cls-9" d="M51,480.05c-.06.8.54,1.67.83,2.71a5,5,0,0,1-.62,3.74,2.12,2.12,0,0,1-.9.83,3.62,3.62,0,0,1-.55.2,3.16,3.16,0,0,1-.8.16,4.59,4.59,0,0,1-3-1,.32.32,0,0,1,0-.45h0a.31.31,0,0,1,.43-.07l0,0h0a3.15,3.15,0,0,0,3.77.52,2.22,2.22,0,0,0,.71-1,4.19,4.19,0,0,0,.23-2.68A15.33,15.33,0,0,1,50,480.16h0a.51.51,0,0,1,.42-.57h0A.5.5,0,0,1,51,480Z"/><path class="cls-10" d="M46.05,486.3a3.48,3.48,0,0,1-1.19,2.88,3.42,3.42,0,0,1-3,.71,2,2,0,0,1-1.33-.95"/><path class="cls-10" d="M40.3,488.67,40.15,490a3.7,3.7,0,0,1-.32,1.34,2.25,2.25,0,0,1-1.8,1.2,2.92,2.92,0,0,1-2.1-.67"/><path class="cls-9" d="M37,481.84l3.35,5.55a.27.27,0,0,1-.09.36.27.27,0,0,1-.35-.08h0l-3.53-5.41h0a.35.35,0,0,1,.08-.5l0,0a.35.35,0,0,1,.49.08l0,0Z"/><path class="cls-9" d="M43.06,478a6.9,6.9,0,0,0,.34,1.56L44,481.1l1.3,3.14a.16.16,0,0,1-.08.22h0a.2.2,0,0,1-.23-.09l-1.49-3c-.25-.52-.5-1-.75-1.55a6.65,6.65,0,0,1-.46-1.75.38.38,0,0,1,.33-.41h0a.37.37,0,0,1,.41.33h0Z"/><path class="cls-9" d="M31.62,487.67a17.31,17.31,0,0,0,0,5.28,13.06,13.06,0,0,0,1.72,4.84c.91,1.43,2.28,2.72,3.24,4.45a11.54,11.54,0,0,1,1.51,5.65h0a1,1,0,0,1-2,0h0a9.5,9.5,0,0,0-1-4.83c-.72-1.51-2-2.83-3-4.51a14,14,0,0,1-1.61-5.46,18.74,18.74,0,0,1,.32-5.54.43.43,0,0,1,.49-.34.41.41,0,0,1,.34.49h0Z"/><path class="cls-8" d="M57.15,474.11a4,4,0,0,0-4.19.06.9.9,0,0,0-.18.16.64.64,0,0,0-.06.31,8.52,8.52,0,0,0,.2,1.74c1-.33,2.22-.47,3.25-.8a2.89,2.89,0,0,0,.89-.41C57.3,475,57.19,474.44,57.15,474.11Z"/><path class="cls-11" d="M164.64,688.81c-11.87-12.81-23-27.59-25.28-44.92,13.34-2.47,26.87-5,39-11a120,120,0,0,1,1,16.08c.21,11.69.43,23.41-.29,35.09-.15,2.59.13,14.81-2.66,15.26C173.46,699.77,166.49,690.8,164.64,688.81Z"/><path class="cls-12" d="M180.83,633.55c-9.46,4.3-20.34,12.18-33.2,12.22-2.19,0-7.5,1.33-9.24,0-1.94-1.47-2.14-4-2.76-6.4-1.58-6-.91-12.48-1.2-18.67-.06-1.48-1.72-2.62-2.19-4a14.8,14.8,0,0,0-1.66-3.21c-1.59-2.55-3.78-3.4-5.38-5.94a49.24,49.24,0,0,0-7.92-9.24c-4.71-3.81-8.93-2.82-13.66-6.59-5.66-4.51-10.36-14-10.08-21.11C86.2,578.09,79,584.13,69.35,588.19a6.56,6.56,0,0,1-3.48.74c-2.27-.34-3.56-2.7-4.44-4.81a92.5,92.5,0,0,1-3.67-10.62c-2.31-8.29-5.12-14.58.16-21.36a51.33,51.33,0,0,1,10.55-9.24,141.41,141.41,0,0,1,25.38-12.58c8.92-3.3,13.12-.22,16.84-3.3.45.66.88,1.32,1.32,2,4.32,6.59,8.24,13,12.17,19.37a273.73,273.73,0,0,0,19.48,28.42c-1.44-11-2.89-22.1-2.66-33.22v-1.4c.28-7.65,1.38-15.33.41-22.92a17.75,17.75,0,0,1-.23-3h0a5.41,5.41,0,0,1,.23-1.44c.61-1.91,2.35-3.2,4-4.3a91.92,91.92,0,0,1,20.64-9.81c2.73-1,10-3.8,11.87-1.32.77,1-.65,2.69,0,4,.87,1.68.83,3.77,1.78,5.41,5.37,9.31,3.23,20.93,4.49,31.62.88,7.54,3.53,14.81,4.42,22.37C191.43,586.44,176.52,610,180.83,633.55Z"/><path class="cls-13" d="M90.76,567.93a7,7,0,0,0,2.17,3.62l1.8-2a.86.86,0,0,0-.07-1.4,35.39,35.39,0,0,1-3.22-4.37c-.39-.62-1.89-4.39-2.46-4.49C87.2,559,90.37,566.8,90.76,567.93Z"/><ellipse class="cls-14" cx="115.72" cy="621.86" rx="8.02" ry="8.42" transform="translate(-222.1 87.09) rotate(-21.74)"/><ellipse class="cls-15" cx="113.94" cy="621.71" rx="6.41" ry="6.82" transform="translate(-222.17 86.42) rotate(-21.74)"/><rect class="cls-15" x="109.87" y="610.7" width="1.6" height="5.61" transform="translate(-219.37 84.63) rotate(-21.74)"/><path class="cls-16" d="M156.18,556.55l-5.07,31.55s-1.21,8.28,4.14,11.54"/><path class="cls-16" d="M175.81,556.73l1.24,33s.19,8.64-6,11.11"/><path class="cls-17" d="M109,611.46S85.3,557.37,110.3,525.7c9-11.33,31-15.44,42.12-8.29a21.22,21.22,0,0,1,8.88,11.23c1.12,3.38,3.1,10.72,3.18,14.21"/><path class="cls-17" d="M156,557.82s-2.45-16.66,10.82-14.57c0,0,10.47-2.26,9.37,14"/><path class="cls-18" d="M169.82,599a5.35,5.35,0,0,0-2,.42,1.53,1.53,0,0,0-.84,1.71,1.49,1.49,0,0,0,1,.83,4.38,4.38,0,0,0,1.35.06,11.48,11.48,0,0,0,2.35-.33,4,4,0,0,0,2-1.21.83.83,0,0,0,.19-.34c.13-.54-.37-1.71-.94-1.77a5.94,5.94,0,0,0-1.53.39C170.87,598.84,170.3,598.92,169.82,599Z"/><path class="cls-18" d="M153.3,599.33a7.35,7.35,0,0,0,.93,1,6.13,6.13,0,0,0,3,1.06,4.41,4.41,0,0,0,1.45,0,1.51,1.51,0,0,0,1.12-.85,1.66,1.66,0,0,0-.94-1.92c-1.27-.65-2.74-.48-4-1.17a1.24,1.24,0,0,0-1.69.46A1.26,1.26,0,0,0,153.3,599.33Z"/><path class="cls-7" d="M130.15,546.77c-1.47.42-3,.79-4.48,1.11a4.62,4.62,0,0,1-1.74.12h-.1c-3.93-6.35-7.85-12.78-12.17-19.37a35.57,35.57,0,0,1-.76-4.58c-.48-4.57-.71-9.18-.87-13.78,0-1-.73-5.61.32-6,.42-.16,2.18.88,2.67,1.07l2.87,1c1.7.64,4.77.37,6.36,1.27.68.38,0,1.83.46,2.43a2,2,0,0,1,.32.46,4.93,4.93,0,0,1,.54,2.06c.18,1.83.12,3.66.14,5.5a59.17,59.17,0,0,0,3.53,19.27c1.08,3,2.42,6,2.86,9.11A1.26,1.26,0,0,1,130.15,546.77Z"/><path class="cls-7" d="M141,542.17v1.4a88.52,88.52,0,0,1-9.88,3.26.89.89,0,0,1-.56,0l-.11-.06a1,1,0,0,1-.33-.48,55.77,55.77,0,0,1-3.77-11.6c-.39-1.76-.68-3.56-1.16-5.3-.64-2.27-1.61-4.48-1.8-6.85a28.43,28.43,0,0,1,.08-3.2,50,50,0,0,0,0-6,10,10,0,0,0-.86-2.79c-.45-1.13.54-1.63,1.06-1.93,1.47-.86,3.76-1.1,5.39-1.73,1.8-.7,3.54-2.56,5.23-3.47A29.3,29.3,0,0,0,135.47,514c.37,1.09,1.05,2.33,2.21,2.43,1,.07,1.84-.77,2.83-.86a.67.67,0,0,1,.48.09.84.84,0,0,1,.24.5h0a17.75,17.75,0,0,0,.23,3C142.38,526.84,141.28,534.55,141,542.17Z"/><path class="cls-19" d="M83.51,455.69l-.45-3.26a7.47,7.47,0,0,0-.9-3.37c-1.91-2.7-5.39-1.55-7.22.59s-1.61,4.52-.82,7a5.71,5.71,0,0,0,4.65,4.22A3.69,3.69,0,0,0,83,458v-.11A3.23,3.23,0,0,0,83.51,455.69Z"/><path class="cls-9" d="M81.28,453.6a6.59,6.59,0,0,0-.41-1.91,1.16,1.16,0,0,0-.82-.69h0v-1.21a2,2,0,0,0-.3-1.06,1.62,1.62,0,0,0-1.06-.62,3.28,3.28,0,0,0-1.91.11,4.9,4.9,0,0,0-1.33.93,1.26,1.26,0,0,0-.4.56,1.08,1.08,0,0,0,0,.71,1.13,1.13,0,0,0,1,.69h0a2.6,2.6,0,0,1,.39.05h0l.11.06h0l.14.12.28.29.09.09v.06a3.55,3.55,0,0,1,.23.31l.06.08a4.22,4.22,0,0,0-.92.87,4,4,0,0,0-.77,3.08A5.19,5.19,0,0,0,80,460.2a1.08,1.08,0,0,0,1.25-.87,25.39,25.39,0,0,0,.14-3.9A9.37,9.37,0,0,0,81.28,453.6Z"/><path class="cls-7" d="M84.53,474.32a65.51,65.51,0,0,0,2.06,10.49,30,30,0,0,0,10.55,15.83c5.53,4.53,13.19,7.36,20.25,8.49a3.91,3.91,0,0,0,1.8,0,20.56,20.56,0,0,1,4.34-.56c1-7.34-1.36-18-2.41-25.33a22.74,22.74,0,0,0-2.5-8.41,26.68,26.68,0,0,1-2-3.43,13.19,13.19,0,0,1-.43-5.62l2.11-29.23c.31-4.34.6-8.78-.56-13a2.56,2.56,0,0,0-.89-1.54,2.73,2.73,0,0,0-2.27,0q-8.49,2.36-17,4.95c-5,1.54-11.36,2.6-15.93,5.2C78.37,434,78.73,436.7,79.4,440c1,5.08,1.1,9.36,1.89,14.48C82.3,460.8,84,467.93,84.53,474.32Z"/><path class="cls-19" d="M117.82,429.32l-.58,20.08A45.76,45.76,0,0,1,116,460.7c-.62,2.19-1.57,4.31-1.83,6.57s.35,4.82,2.22,6.11a9.08,9.08,0,0,1,1.79,1.21c.88.94.85,2.37.79,3.65A110.23,110.23,0,0,0,121.47,507a10.69,10.69,0,0,0,.78,2.27c.63.73,1.47-.6,2.38-.91a54,54,0,0,0,9.72-4.82c7.89-4.6,16.33-9.84,19.49-18.4a35.73,35.73,0,0,0,1.75-9.61,180.55,180.55,0,0,0-.8-36.6c-.61-5-1.55-10.19-4.73-14.08a23.11,23.11,0,0,0-7.11-5.41,59.67,59.67,0,0,0-17.14-6.15c-3.35-.65-7.49-1-8.26,3S117.93,425.26,117.82,429.32Z"/><path class="cls-19" d="M153.11,450l-.11-3.29a7.3,7.3,0,0,1,.3-3.47c1.42-3,5-2.46,7.22-.67s2.36,4.18,2,6.77a5.71,5.71,0,0,1-3.85,5,3.69,3.69,0,0,1-4.67-2.14v-.1A3.25,3.25,0,0,1,153.11,450Z"/><path class="cls-9" d="M155,446.77a5.81,5.81,0,0,1,.09-1.95,1.1,1.1,0,0,1,.69-.82h.05a11.79,11.79,0,0,1-.19-1.19,2.06,2.06,0,0,1,.11-1.1,1.81,1.81,0,0,1,1-.8,3.28,3.28,0,0,1,1.93-.21,4.93,4.93,0,0,1,1.5.67,1.33,1.33,0,0,1,.49.48,1,1,0,0,1,.11.7,1.11,1.11,0,0,1-.9.87h0l-.39.12h0l-.09.08h0l-.12.14-.23.33-.08.11v.07l-.18.34v.09a4.2,4.2,0,0,1,1.07.7,3.91,3.91,0,0,1,1.3,2.9,5.23,5.23,0,0,1-3.69,4.79,1.11,1.11,0,0,1-1.4-.64,25,25,0,0,1-.82-3.82A8.07,8.07,0,0,1,155,446.77Z"/><path class="cls-5" d="M71.52,447.11c.83,1.64,5.75.63,7.15-.56s-.31-2.12.64-3.7c2.45-4.08,6.9-6.57,11.46-8s9.33-1.79,14-2.77a59.72,59.72,0,0,0,12.25-4c2.38-1.08,4.88-2.52,5.8-5,.63-1.67.85-4.08,2.63-4.31,5.52,6.86,13.6,12.2,21.48,16.13,3.17,1.59,6.74,3.52,7.59,7,.16.66.48,1.55,1.15,1.42a1.16,1.16,0,0,0,.66-.53c2.87-3.71,5.91-8,5.07-12.66-.78-4.31-4.67-7.26-8.26-9.77l-10.75-7.5A17.68,17.68,0,0,0,137,410a16.36,16.36,0,0,0-7.46.22c-12.77,2.55-29.65,3.76-40.29,11.26-3.76,2.65-6.56,6.94-10.56,9.24-2.38,1.36-3.12,3.57-5.27,5.27S71.69,444.37,71.52,447.11Z"/><path class="cls-20" d="M126.83,394.44a21.51,21.51,0,0,1-1.9,8.2,38.7,38.7,0,0,1-4.18,7.35l-.62.85-.73.9a19.5,19.5,0,0,1-1.6,1.68,24.06,24.06,0,0,1-3.64,2.79,34.79,34.79,0,0,1-8,3.57c-1.36.42-2.72.77-4.06,1.11s-2.68.59-4,.84c-2.63.49-5.14,1-7.65,1.54-5,1.19-9.73,2.68-14,6.31a16.39,16.39,0,0,1,4.88-7A29.69,29.69,0,0,1,88.65,418a58.56,58.56,0,0,1,7.88-2.79c2.58-.74,5.11-1.4,7.52-2.17,1.21-.36,2.39-.76,3.53-1.21a34.4,34.4,0,0,0,3.29-1.43,28.11,28.11,0,0,0,3-1.77c.44-.35.93-.67,1.35-1.05l.66-.56.71-.67c1.89-1.78,3.71-3.62,5.44-5.57A45,45,0,0,0,126.83,394.44Z"/><path class="cls-21" d="M103.37,438.76a10.8,10.8,0,0,0-1.7.07,9,9,0,0,0-1.53.25,19,19,0,0,0-4.24,1.84,14.51,14.51,0,0,0-1.67,1.28,21.8,21.8,0,0,0-2,1.85.64.64,0,0,0-.23.52,9.43,9.43,0,0,1-.06,1.3,6,6,0,0,1,1.06-1.3,20.28,20.28,0,0,1,4.18-2.18,13.55,13.55,0,0,1,4.79-1.26,17.81,17.81,0,0,1,1.79,0l2.64.08a3.06,3.06,0,0,0,.91-.08,1.09,1.09,0,0,0,.73-.88,1.16,1.16,0,0,0-1-1.35,1.22,1.22,0,0,0-.33,0C105.65,438.89,104.51,438.79,103.37,438.76Z"/><path class="cls-21" d="M131.7,436.87a10.91,10.91,0,0,1,1.68-.28,10.1,10.1,0,0,1,1.55-.06,18.83,18.83,0,0,1,4.53,1,13.71,13.71,0,0,1,1.89.91,18.1,18.1,0,0,1,2.31,1.42.6.6,0,0,1,.34.46c.08.43.18.86.3,1.28a5.12,5.12,0,0,0-1.3-1.06,19.8,19.8,0,0,0-4.54-1.29,13.68,13.68,0,0,0-4.94-.27c-.58.09-1.17.21-1.75.36l-2.57.61a3.07,3.07,0,0,1-.91.11,1.12,1.12,0,0,1-.89-.72,1.19,1.19,0,0,1,.7-1.52,1,1,0,0,1,.3-.07C129.5,437.46,130.6,437.13,131.7,436.87Z"/><path class="cls-22" d="M130.35,444.07a5.82,5.82,0,0,0-1.92,3.25,7.5,7.5,0,0,0,0,4.59,2.11,2.11,0,0,0,1,1.28,2.49,2.49,0,0,0,1.15.11,46.63,46.63,0,0,0,4.72-.51,2.53,2.53,0,0,0,.75-.24c.85-.43,1-1.58.95-2.54V448.7a.8.8,0,0,0-.2-.66.79.79,0,0,0-.49-.13,9.49,9.49,0,0,1-1.68-.11,2,2,0,0,1-1.36-.91c-.55-1.06.84-2.34.2-3.13S131.05,443.55,130.35,444.07Z"/><path class="cls-22" d="M100.94,446.61a5.93,5.93,0,0,0-2.09,3.14,7.66,7.66,0,0,0-.25,4.59,2.14,2.14,0,0,0,1,1.33,2.64,2.64,0,0,0,1.14.17,46.93,46.93,0,0,0,4.75-.27,2.15,2.15,0,0,0,.76-.16c.88-.39,1-1.53,1.09-2.49l.06-1.31a.81.81,0,0,0-.16-.67.84.84,0,0,0-.49-.15,9.63,9.63,0,0,1-1.68-.2,2,2,0,0,1-1.3-1c-.5-1.09,1-2.3.37-3.12S101.61,446.15,100.94,446.61Z"/><path class="cls-23" d="M126.39,474.27c.09.36,0,.47-.11.54L126,475a4.1,4.1,0,0,1-.69.36c-.48.21-1,.34-1.46.52a8.6,8.6,0,0,1-3.14.57,5.36,5.36,0,0,1-3.17-.78,4.87,4.87,0,0,1-2-2.57.13.13,0,0,1,.08-.14h.07a9.24,9.24,0,0,1,1.46.48c.47.13.86.35,1.28.47a19.14,19.14,0,0,0,2.41.95,6.15,6.15,0,0,0,2.7.06,4.82,4.82,0,0,0,1.29-.51l.62-.31.31-.15c.1-.06.21-.09.5.12h0A.23.23,0,0,1,126.39,474.27Z"/><path class="cls-23" d="M133.74,504.14c-1.58,1.2-3.12,2.45-4.77,3.61-.82.57-1.65,1.15-2.53,1.66a13,13,0,0,1-2.86,1.37l-.41.13a3.4,3.4,0,0,1-.57.08,6.17,6.17,0,0,1-.86,0c-.53-.05-1-.13-1.54-.21a30,30,0,0,1-2.94-.62c-.48-.12-.94-.2-1.47-.35s-1-.3-1.47-.47a26.17,26.17,0,0,1-2.77-1.22.21.21,0,0,1-.08-.25.2.2,0,0,1,.19-.1l3,.47c.48.07,1,.15,1.44.19l1.43.11c.87.06,1.74.14,2.61.26.61.09,1.31.16,1.86.2h.8l.3-.08a34.44,34.44,0,0,0,5.16-2.47,42.83,42.83,0,0,1,5.42-2.61.18.18,0,0,1,.23.1.17.17,0,0,1-.06.21Z"/><path class="cls-23" d="M117.8,498.73a1.14,1.14,0,0,0,.58,0,.88.88,0,0,0,.28-.17l.66-.47a3.68,3.68,0,0,0,1.32-1.31c-.08-.13-.26-.14-.41-.13l-2.35.1a5.44,5.44,0,0,0-2.12.15C114.69,497.55,117.23,498.61,117.8,498.73Z"/><path class="cls-24" d="M135.5,482.66c.34.66-.09,1.45-.51,2.07l-4.14,6.11a3.92,3.92,0,0,1-1.15,1.25,3.79,3.79,0,0,1-1.85.36q-6.54.17-13.08.07a4.25,4.25,0,0,1-1.41-.19,3.92,3.92,0,0,1-1.38-1.15c-.8-.94-5-5.37-4.29-6.65s7.17-.75,8.59-.83Z"/><path class="cls-25" d="M88.6,464.78a3,3,0,0,0,.52,2.23A5.81,5.81,0,0,0,92,469.28a10.14,10.14,0,0,0,3.71.37,3.54,3.54,0,0,0,2.79-1c1.48-2,.52-6.43-2.21-6.83C94.24,461.48,89.21,462.49,88.6,464.78Z"/><path class="cls-26" d="M141.3,459.7a3,3,0,0,0,.17,3.4c1.07,1.37,3,1.52,4.77,1.56l1.87,0a6.7,6.7,0,0,0,2.19-.16,2.2,2.2,0,0,0,1.53-1.5,2.4,2.4,0,0,0-.12-1.35C150.39,457.48,144,455.55,141.3,459.7Z"/><path class="cls-27" d="M280.4,741.62l-98.83,5.16c-5.84,0-10.57-3.83-10.57-8.55V303.64c0-4.73,4.73-8.56,10.57-8.56l98.86,5.16c5.84,0,10.57,3.82,10.57,8.55V733.05C291,737.79,286.24,741.62,280.4,741.62Z"/><path class="cls-3" d="M189.52,534.42A6.52,6.52,0,0,1,183,527.9h0v-42a6.53,6.53,0,0,1,13,0v42A6.52,6.52,0,0,1,189.52,534.42Z"/><path d="M196.67,506.88c0,6.14-3.14,11.12-7,11.12s-7-5-7-11.12,3.14-11.13,7-11.13S196.67,500.73,196.67,506.88Z"/><path class="cls-3" d="M291,375a4,4,0,0,1-4-4V333.08a4,4,0,0,1,8,0v37.8a4.06,4.06,0,0,1-4,4.12Z"/><path class="cls-3" d="M291,711.9a4,4,0,0,1-4-4V671.15a4,4,0,0,1,8-.39,2.54,2.54,0,0,1,0,.39V707.9a4,4,0,0,1-4,4Z"/><path class="cls-28" d="M192.3,524.13a2.59,2.59,0,1,1-2.59-2.59h0A2.58,2.58,0,0,1,192.3,524.13Z"/><polygon class="cls-28" points="189.66 523.93 187.79 530 192.25 530 189.66 523.93"/><path class="cls-29" d="M269,742.36c-.71,0-1.29-.58-2-1.29V302c.76-.72,1.39-1.25,2.1-1.18A.9.9,0,0,1,270,302v439.1A1,1,0,0,1,269,742.36Z"/><path class="cls-29" d="M246.65,744.24A2,2,0,0,1,245,743h0V298.66a2,2,0,0,1,1.54-1.41,1.3,1.3,0,0,1,1.4,1.18.49.49,0,0,0,.06.23V743A1.38,1.38,0,0,1,246.65,744.24Z"/><path class="cls-29" d="M224.13,743.63a1.08,1.08,0,0,1-1.13-1.28h0V297.7a1.08,1.08,0,0,1,1.24-1.18c.63.05,1.13.55,1.76,1.18V742.34c-.58.71-1.15,1.29-1.86,1.29Z"/><path class="cls-29" d="M200.65,746.83a2,2,0,0,1-1.65-1.29V297.7a2,2,0,0,1,1.77-1.18A1.38,1.38,0,0,1,202,297.7V745.55A1.37,1.37,0,0,1,200.65,746.83Z"/><path class="cls-29" d="M180,746.73c-.71,0-1.29-.58-2-1.29V297.6c.74-.72,1.37-1.25,2.08-1.18a.92.92,0,0,1,.92,1.18V745.44A1,1,0,0,1,180,746.73Z"/><line class="cls-30" x1="295" y1="681" x2="287" y2="681"/><line class="cls-30" x1="295" y1="696" x2="287" y2="696"/><line class="cls-30" x1="295" y1="345" x2="287" y2="345"/><line class="cls-30" x1="295" y1="360" x2="287" y2="360"/><path class="cls-31" d="M271.22,259H52.1L28,283.56V98.26A10,10,0,0,1,37.73,88H271.22A10,10,0,0,1,281,98.21V248.74A10,10,0,0,1,271.27,259Z"/><path class="cls-32" d="M263.26,248H44.08L20,272.57V87.26A10,10,0,0,1,29.73,77H263.26A10,10,0,0,1,273,87.25h0V237.74A10,10,0,0,1,263.26,248Z"/><rect class="cls-31" x="37" y="71" width="259" height="173" rx="15.37"/><rect class="cls-6" x="33" y="65" width="259" height="173" rx="15.37"/><ellipse class="cls-32" cx="285.75" cy="77.82" rx="29.35" ry="28.82" transform="translate(119.95 323.22) rotate(-71.19)"/><circle class="cls-31" cx="237.71" cy="62.78" r="33.49" transform="translate(122 279.71) rotate(-76.72)"/><path class="cls-32" d="M286.73,34.69a7.31,7.31,0,1,1-4.56-9.27h0A7.3,7.3,0,0,1,286.73,34.69Z"/><path class="cls-32" d="M266,19.55a3.65,3.65,0,1,1-2.28-4.64A3.64,3.64,0,0,1,266,19.55Z"/><path class="cls-6" d="M254.82,65.55a3.65,3.65,0,1,1-2.28-4.64,3.64,3.64,0,0,1,2.28,4.64Z"/><circle class="cls-33" cx="238.47" cy="56.17" r="33.49"/><g class="cls-34"><g class="cls-34"><path class="cls-35" d="M64.58,139.34H63.22l-1.12-2.93H57.31l-1.12,2.93H54.85L59,128.78h1.52Zm-6.8-4.13h3.86L59.7,130Z"/></g><g class="cls-34"><path class="cls-35" d="M69.65,131.18a3.71,3.71,0,0,1,1.47.26,3,3,0,0,1,1.09.73,4,4,0,0,1,.76,1.14l-1.22.57a2.43,2.43,0,0,0-.77-1.17,2.16,2.16,0,0,0-1.36-.41,2.52,2.52,0,0,0-1.37.36,2.26,2.26,0,0,0-.88,1,4.47,4.47,0,0,0,0,3.27,2.23,2.23,0,0,0,.88,1.05,2.52,2.52,0,0,0,1.37.36,2.9,2.9,0,0,0,1.08-.19,2,2,0,0,0,.76-.56,2.18,2.18,0,0,0,.4-.9l1.19.42a3.77,3.77,0,0,1-.75,1.26,3.17,3.17,0,0,1-1.13.81,3.85,3.85,0,0,1-1.52.28,4,4,0,0,1-2-.5,3.5,3.5,0,0,1-1.37-1.43,5.22,5.22,0,0,1,0-4.46,3.53,3.53,0,0,1,1.37-1.44A4,4,0,0,1,69.65,131.18Z"/><path class="cls-35" d="M80.1,131.34v1.1H74.31v-1.1Zm-2.91-2.27v8.06a1.07,1.07,0,0,0,.34.88,1.28,1.28,0,0,0,.86.29,1.78,1.78,0,0,0,.8-.16,2.17,2.17,0,0,0,.61-.43l.45,1.07a2.94,2.94,0,0,1-.87.53,3.26,3.26,0,0,1-1.17.19,2.85,2.85,0,0,1-1.13-.22,1.77,1.77,0,0,1-.84-.69,2.25,2.25,0,0,1-.33-1.24v-7.93Z"/><path class="cls-35" d="M84.9,139.5a3.67,3.67,0,0,1-1.44-.29,2.35,2.35,0,0,1-1.11-.94,3,3,0,0,1-.42-1.68v-5.25h1.28v4.91a2.14,2.14,0,0,0,.52,1.67,2.2,2.2,0,0,0,1.49.46,2.67,2.67,0,0,0,.88-.15,2.12,2.12,0,0,0,.78-.48,2.26,2.26,0,0,0,.54-.84,3.22,3.22,0,0,0,.2-1.22v-4.35H88.9v8H87.78l-.08-1.22a2.47,2.47,0,0,1-1.12,1A4,4,0,0,1,84.9,139.5Z"/><path class="cls-35" d="M96.55,134.17a1.87,1.87,0,0,0-.48-1.38,1.8,1.8,0,0,0-1.36-.49,2.64,2.64,0,0,0-1.41.36,2.18,2.18,0,0,0-.85,1.16l-1-.64a2.84,2.84,0,0,1,1.19-1.45,3.87,3.87,0,0,1,2.14-.55,4,4,0,0,1,1.57.3,2.39,2.39,0,0,1,1.11.89,2.73,2.73,0,0,1,.41,1.55v3.87c0,.38.2.57.61.57a2,2,0,0,0,.59-.08l-.06,1a1.85,1.85,0,0,1-.84.16,1.9,1.9,0,0,1-.83-.18,1.27,1.27,0,0,1-.57-.53,1.78,1.78,0,0,1-.21-.91v-.16l.32.05a2.11,2.11,0,0,1-.66,1,2.94,2.94,0,0,1-1,.57,3.48,3.48,0,0,1-1.13.19,3.6,3.6,0,0,1-1.32-.24,2.13,2.13,0,0,1-1-.73,2.16,2.16,0,0,1,.24-2.69,3.19,3.19,0,0,1,1.67-.79l3.17-.62v1l-2.58.53a3.1,3.1,0,0,0-1.17.45,1,1,0,0,0-.38.8,1,1,0,0,0,.39.81,1.79,1.79,0,0,0,1.11.31,3.24,3.24,0,0,0,.89-.12,2.24,2.24,0,0,0,.76-.37,1.77,1.77,0,0,0,.53-.62,1.91,1.91,0,0,0,.19-.89Z"/><path class="cls-35" d="M102.15,127.66v9.65a1.22,1.22,0,0,0,.23.84.94.94,0,0,0,.71.23,2.5,2.5,0,0,0,.53,0,3.84,3.84,0,0,0,.56-.18l-.21,1.12a1.93,1.93,0,0,1-.56.17,3.18,3.18,0,0,1-.62.06,1.87,1.87,0,0,1-1.45-.53,2.39,2.39,0,0,1-.47-1.62v-9.69Z"/><path class="cls-35" d="M106.47,129.8a.9.9,0,0,1-1-1,1,1,0,1,1,1.92,0,.9.9,0,0,1-1,1Zm.64,1.54v8h-1.28v-8Z"/><path class="cls-35" d="M109.51,139.34v-1l4.19-4.91,1-1-1.42,0h-3.73v-1.1h6.57v1l-4.19,4.92-1,1,1.55,0h3.76v1.11Z"/></g><g class="cls-34"><path class="cls-35" d="M123.4,134.17a1.91,1.91,0,0,0-.48-1.38,1.84,1.84,0,0,0-1.37-.49,2.58,2.58,0,0,0-1.4.36,2.08,2.08,0,0,0-.85,1.16l-1-.64a2.82,2.82,0,0,1,1.18-1.45,4.36,4.36,0,0,1,3.71-.25,2.47,2.47,0,0,1,1.12.89,2.72,2.72,0,0,1,.4,1.55v3.87c0,.38.21.57.61.57a2,2,0,0,0,.6-.08l-.07,1a1.81,1.81,0,0,1-.83.16,1.84,1.84,0,0,1-.83-.18,1.24,1.24,0,0,1-.58-.53,1.78,1.78,0,0,1-.21-.91v-.16l.32.05a2.09,2.09,0,0,1-.65,1,3,3,0,0,1-1,.57,3.58,3.58,0,0,1-1.14.19,3.51,3.51,0,0,1-1.31-.24,2.11,2.11,0,0,1-1-.73,2.16,2.16,0,0,1,.24-2.69,3.23,3.23,0,0,1,1.67-.79l3.17-.62v1l-2.58.53a3,3,0,0,0-1.16.45.94.94,0,0,0-.39.8,1,1,0,0,0,.4.81,1.79,1.79,0,0,0,1.11.31,3.3,3.3,0,0,0,.89-.12,2.19,2.19,0,0,0,.75-.37,1.67,1.67,0,0,0,.53-.62,1.92,1.92,0,0,0,.2-.89Z"/></g><g class="cls-34"><path class="cls-35" d="M137.34,131.34v1.1h-5.79v-1.1Zm-2.91-2.27v8.06a1.07,1.07,0,0,0,.34.88,1.28,1.28,0,0,0,.86.29,1.78,1.78,0,0,0,.8-.16,2.17,2.17,0,0,0,.61-.43l.45,1.07a2.94,2.94,0,0,1-.87.53,3.25,3.25,0,0,1-1.16.19,2.86,2.86,0,0,1-1.14-.22,1.77,1.77,0,0,1-.84-.69,2.25,2.25,0,0,1-.33-1.24v-7.93Z"/><path class="cls-35" d="M142.14,139.5a3.67,3.67,0,0,1-1.44-.29,2.35,2.35,0,0,1-1.11-.94,3,3,0,0,1-.42-1.68v-5.25h1.28v4.91a2.1,2.1,0,0,0,.53,1.67,2.15,2.15,0,0,0,1.48.46,2.62,2.62,0,0,0,.88-.15,2.12,2.12,0,0,0,.78-.48,2.26,2.26,0,0,0,.54-.84,3.22,3.22,0,0,0,.2-1.22v-4.35h1.28v8H145l-.08-1.22a2.47,2.47,0,0,1-1.12,1A4,4,0,0,1,142.14,139.5Z"/><path class="cls-35" d="M152,139.5a4.69,4.69,0,0,1-2.15-.5,3.58,3.58,0,0,1-1.52-1.41l1.09-.78a2.64,2.64,0,0,0,1,1.15,3,3,0,0,0,1.63.42,2.31,2.31,0,0,0,1.33-.33,1,1,0,0,0,.27-1.47,1.4,1.4,0,0,0-.83-.41l-1.92-.4a3,3,0,0,1-1.67-.8,2,2,0,0,1-.5-1.39,2.05,2.05,0,0,1,.37-1.2,2.67,2.67,0,0,1,1.07-.87,3.84,3.84,0,0,1,1.64-.33,4,4,0,0,1,2,.46,2.89,2.89,0,0,1,1.22,1.32l-1.07.7a1.92,1.92,0,0,0-.88-1,2.64,2.64,0,0,0-1.27-.33,2.61,2.61,0,0,0-1,.16,1.39,1.39,0,0,0-.62.44,1,1,0,0,0-.22.63,1,1,0,0,0,.24.65,1.46,1.46,0,0,0,.9.42l2,.42a2.74,2.74,0,0,1,1.56.73,1.85,1.85,0,0,1,.45,1.25,2.22,2.22,0,0,1-.4,1.32,2.47,2.47,0,0,1-1.12.87A4.1,4.1,0,0,1,152,139.5Z"/><path class="cls-35" d="M166.32,131.18a3.69,3.69,0,0,1,1.46.26,3.16,3.16,0,0,1,1.1.73,3.76,3.76,0,0,1,.75,1.14l-1.22.57a2.43,2.43,0,0,0-.77-1.17,2.15,2.15,0,0,0-1.35-.41,2.53,2.53,0,0,0-1.38.36,2.32,2.32,0,0,0-.88,1,4.61,4.61,0,0,0,0,3.27,2.29,2.29,0,0,0,.88,1.05,2.53,2.53,0,0,0,1.38.36,3,3,0,0,0,1.08-.19,2,2,0,0,0,.75-.56,2.19,2.19,0,0,0,.41-.9l1.18.42a3.92,3.92,0,0,1-.74,1.26,3.3,3.3,0,0,1-1.14.81,3.8,3.8,0,0,1-1.51.28,4,4,0,0,1-2-.5,3.46,3.46,0,0,1-1.38-1.43,5.32,5.32,0,0,1,0-4.46,3.49,3.49,0,0,1,1.38-1.44A4,4,0,0,1,166.32,131.18Z"/><path class="cls-35" d="M175.28,131.18a4,4,0,0,1,2,.49,3.5,3.5,0,0,1,1.36,1.44,5.22,5.22,0,0,1,0,4.46,3.48,3.48,0,0,1-1.36,1.43,4.27,4.27,0,0,1-4,0,3.46,3.46,0,0,1-1.38-1.43,5.32,5.32,0,0,1,0-4.46,3.49,3.49,0,0,1,1.38-1.44A4,4,0,0,1,175.28,131.18Zm0,1.1a2.55,2.55,0,0,0-1.39.37,2.42,2.42,0,0,0-.89,1,4.47,4.47,0,0,0,0,3.27,2.39,2.39,0,0,0,.89,1.06,2.8,2.8,0,0,0,2.78,0,2.46,2.46,0,0,0,.89-1.06,4.47,4.47,0,0,0,0-3.27,2.49,2.49,0,0,0-.89-1A2.57,2.57,0,0,0,175.28,132.28Z"/><path class="cls-35" d="M181.57,139.34v-8h1.12l.11,1.79-.21-.17a2.59,2.59,0,0,1,1.69-1.61,4.19,4.19,0,0,1,1.17-.17,3.65,3.65,0,0,1,1.57.33,2.6,2.6,0,0,1,1.13,1,3.19,3.19,0,0,1,.42,1.71v5.12h-1.28v-4.67a2.48,2.48,0,0,0-.56-1.85,2,2,0,0,0-1.4-.52,2.73,2.73,0,0,0-1.16.27,2.28,2.28,0,0,0-.95.88,3.1,3.1,0,0,0-.37,1.63v4.26Z"/><path class="cls-35" d="M194.78,131.18a4,4,0,0,1,2,.49,3.53,3.53,0,0,1,1.37,1.44,5.32,5.32,0,0,1,0,4.46,3.5,3.5,0,0,1-1.37,1.43,4,4,0,0,1-2,.5,4,4,0,0,1-2-.5,3.5,3.5,0,0,1-1.37-1.43,5.22,5.22,0,0,1,0-4.46,3.53,3.53,0,0,1,1.37-1.44A4,4,0,0,1,194.78,131.18Zm0,1.1a2.57,2.57,0,0,0-1.39.37,2.49,2.49,0,0,0-.89,1,4.47,4.47,0,0,0,0,3.27,2.46,2.46,0,0,0,.89,1.06,2.8,2.8,0,0,0,2.78,0,2.39,2.39,0,0,0,.89-1.06,4.47,4.47,0,0,0,0-3.27,2.42,2.42,0,0,0-.89-1A2.55,2.55,0,0,0,194.78,132.28Z"/><path class="cls-35" d="M204.38,131.18a3.75,3.75,0,0,1,1.47.26,3.12,3.12,0,0,1,1.09.73,3.76,3.76,0,0,1,.75,1.14l-1.21.57a2.38,2.38,0,0,0-.78-1.17,2.13,2.13,0,0,0-1.35-.41,2.58,2.58,0,0,0-1.38.36,2.38,2.38,0,0,0-.88,1,4.61,4.61,0,0,0,0,3.27A2.35,2.35,0,0,0,203,138a2.58,2.58,0,0,0,1.38.36,2.9,2.9,0,0,0,1.08-.19,2,2,0,0,0,.75-.56,2.07,2.07,0,0,0,.41-.9l1.18.42a3.92,3.92,0,0,1-.74,1.26,3.12,3.12,0,0,1-1.14.81,3.77,3.77,0,0,1-1.51.28,4,4,0,0,1-2-.5,3.5,3.5,0,0,1-1.37-1.43,5.22,5.22,0,0,1,0-4.46,3.53,3.53,0,0,1,1.37-1.44A4,4,0,0,1,204.38,131.18Z"/><path class="cls-35" d="M210.67,129.8a.9.9,0,0,1-1-1,1,1,0,1,1,1.92,0,.9.9,0,0,1-1,1Zm.64,1.54v8H210v-8Z"/><path class="cls-35" d="M214.29,139.34v-8h1.12l.08,1.25a2.64,2.64,0,0,1,1.12-1.08,3.36,3.36,0,0,1,1.44-.33,3.59,3.59,0,0,1,1.6.38,2.6,2.6,0,0,1,1.15,1.19,2.26,2.26,0,0,1,.72-.89,3.32,3.32,0,0,1,1-.51,3.38,3.38,0,0,1,1.05-.17,3.57,3.57,0,0,1,1.47.32,2.71,2.71,0,0,1,1.14,1,3,3,0,0,1,.45,1.73v5.12h-1.28v-5a2,2,0,0,0-.55-1.57,2,2,0,0,0-1.34-.48,2.37,2.37,0,0,0-1.17.3,2.29,2.29,0,0,0-.87.9,3,3,0,0,0-.33,1.46v4.38h-1.28v-5a2,2,0,0,0-.54-1.57,2,2,0,0,0-1.35-.48,2.35,2.35,0,0,0-2,1.17,3.11,3.11,0,0,0-.36,1.6v4.27Z"/><path class="cls-35" d="M230.17,129.8a1,1,0,0,1-.69-.26.94.94,0,0,1-.27-.7.9.9,0,0,1,.27-.69.92.92,0,0,1,.69-.27.94.94,0,0,1,.7.27.9.9,0,0,1,.26.69.94.94,0,0,1-.26.7A1,1,0,0,1,230.17,129.8Zm.64,1.54v8h-1.28v-8Z"/><path class="cls-35" d="M237.13,139.5a4.09,4.09,0,0,1-2-.5,3.46,3.46,0,0,1-1.38-1.43,5.22,5.22,0,0,1,0-4.46,3.5,3.5,0,0,1,1.36-1.44,3.85,3.85,0,0,1,2-.49,3.65,3.65,0,0,1,1.92.48,3.13,3.13,0,0,1,1.2,1.3,4,4,0,0,1,.42,1.85c0,.18,0,.35,0,.5s0,.28,0,.4h-6.47v-1.14H240l-.66.13a2.4,2.4,0,0,0-.63-1.78,2.29,2.29,0,0,0-1.66-.62,2.47,2.47,0,0,0-1.35.36,2.38,2.38,0,0,0-.88,1,3.87,3.87,0,0,0-.31,1.64,3.73,3.73,0,0,0,.32,1.63,2.33,2.33,0,0,0,.9,1.05,3,3,0,0,0,2.83,0,2.51,2.51,0,0,0,.89-.91l1,.59a3.25,3.25,0,0,1-.78.95,3.36,3.36,0,0,1-1.1.61A4.19,4.19,0,0,1,237.13,139.5Z"/></g><g class="cls-34"><path class="cls-35" d="M243.5,139.34v-8h1.12l.12,1.79-.21-.17a2.71,2.71,0,0,1,.69-1,2.61,2.61,0,0,1,1-.57,4.14,4.14,0,0,1,1.17-.17,3.65,3.65,0,0,1,1.57.33,2.66,2.66,0,0,1,1.13,1,3.19,3.19,0,0,1,.42,1.71v5.12h-1.28v-4.67a2.44,2.44,0,0,0-.57-1.85,2,2,0,0,0-1.4-.52,2.72,2.72,0,0,0-1.15.27,2.28,2.28,0,0,0-1,.88,3.1,3.1,0,0,0-.38,1.63v4.26Z"/></g><g class="cls-34"><path class="cls-35" d="M258.09,131.34v1.1H252.3v-1.1Zm-2.91-2.27v8.06a1.07,1.07,0,0,0,.34.88,1.28,1.28,0,0,0,.86.29,1.78,1.78,0,0,0,.8-.16,2.17,2.17,0,0,0,.61-.43l.45,1.07a2.94,2.94,0,0,1-.87.53,3.25,3.25,0,0,1-1.16.19,2.86,2.86,0,0,1-1.14-.22,1.77,1.77,0,0,1-.84-.69,2.25,2.25,0,0,1-.33-1.24v-7.93Z"/><path class="cls-35" d="M263.31,131.18a4,4,0,0,1,2,.49,3.59,3.59,0,0,1,1.37,1.44,5.32,5.32,0,0,1,0,4.46,3.57,3.57,0,0,1-1.37,1.43,4.27,4.27,0,0,1-4,0,3.46,3.46,0,0,1-1.38-1.43,5.32,5.32,0,0,1,0-4.46,3.49,3.49,0,0,1,1.38-1.44A4,4,0,0,1,263.31,131.18Zm0,1.1a2.57,2.57,0,0,0-1.39.37,2.42,2.42,0,0,0-.89,1,4.47,4.47,0,0,0,0,3.27,2.39,2.39,0,0,0,.89,1.06,2.8,2.8,0,0,0,2.78,0,2.39,2.39,0,0,0,.89-1.06,4.47,4.47,0,0,0,0-3.27,2.42,2.42,0,0,0-.89-1A2.57,2.57,0,0,0,263.31,132.28Z"/><path class="cls-35" d="M272.48,139.5a4.77,4.77,0,0,1-2.16-.5,3.61,3.61,0,0,1-1.51-1.41l1.09-.78a2.68,2.68,0,0,0,1,1.15,3.08,3.08,0,0,0,1.64.42,2.31,2.31,0,0,0,1.33-.33,1,1,0,0,0,.27-1.47,1.4,1.4,0,0,0-.83-.41l-1.92-.4a3,3,0,0,1-1.67-.8,2,2,0,0,1-.5-1.39,2.05,2.05,0,0,1,.37-1.2,2.67,2.67,0,0,1,1.07-.87,3.81,3.81,0,0,1,1.64-.33,4,4,0,0,1,2,.46,2.89,2.89,0,0,1,1.22,1.32l-1.07.7a1.92,1.92,0,0,0-.88-1,2.64,2.64,0,0,0-1.27-.33,2.61,2.61,0,0,0-1,.16,1.39,1.39,0,0,0-.62.44,1,1,0,0,0-.22.63,1,1,0,0,0,.24.65,1.46,1.46,0,0,0,.9.42l2,.42a2.77,2.77,0,0,1,1.56.73,1.85,1.85,0,0,1,.45,1.25,2.22,2.22,0,0,1-.4,1.32,2.52,2.52,0,0,1-1.12.87A4.1,4.1,0,0,1,272.48,139.5Z"/></g><g class="cls-34"><path class="cls-35" d="M59.23,150.38a3.9,3.9,0,0,1,1.47.25,3.19,3.19,0,0,1,1.09.74,4,4,0,0,1,.76,1.14l-1.22.57a2.43,2.43,0,0,0-.77-1.17,2.1,2.1,0,0,0-1.36-.41,2.52,2.52,0,0,0-1.37.36,2.26,2.26,0,0,0-.88,1,4.47,4.47,0,0,0,0,3.27,2.23,2.23,0,0,0,.88,1.05,2.52,2.52,0,0,0,1.37.36,2.9,2.9,0,0,0,1.08-.19,2,2,0,0,0,.76-.56,2.18,2.18,0,0,0,.4-.9l1.19.42a3.77,3.77,0,0,1-.75,1.26,3.17,3.17,0,0,1-1.13.81,3.85,3.85,0,0,1-1.52.28,4,4,0,0,1-2-.5,3.5,3.5,0,0,1-1.37-1.43,5.22,5.22,0,0,1,0-4.46,3.53,3.53,0,0,1,1.37-1.44A4,4,0,0,1,59.23,150.38Z"/><path class="cls-35" d="M68.19,150.38a4,4,0,0,1,2,.49,3.53,3.53,0,0,1,1.37,1.44,5.22,5.22,0,0,1,0,4.46,3.5,3.5,0,0,1-1.37,1.43,4,4,0,0,1-2,.5,4,4,0,0,1-2-.5,3.5,3.5,0,0,1-1.37-1.43,5.22,5.22,0,0,1,0-4.46,3.53,3.53,0,0,1,1.37-1.44A4,4,0,0,1,68.19,150.38Zm0,1.1a2.6,2.6,0,0,0-1.39.37,2.4,2.4,0,0,0-.88,1.05,4.34,4.34,0,0,0,0,3.27,2.37,2.37,0,0,0,.88,1.06,2.88,2.88,0,0,0,2.79,0,2.46,2.46,0,0,0,.89-1.06,4.47,4.47,0,0,0,0-3.27,2.49,2.49,0,0,0-.89-1.05A2.61,2.61,0,0,0,68.19,151.48Z"/><path class="cls-35" d="M74.48,158.54v-8H75.6l.11,1.79-.2-.17a2.81,2.81,0,0,1,.68-1,2.77,2.77,0,0,1,1-.57,4.26,4.26,0,0,1,1.18-.17,3.65,3.65,0,0,1,1.57.33,2.66,2.66,0,0,1,1.13,1,3.19,3.19,0,0,1,.42,1.71v5.12H80.21v-4.67a2.44,2.44,0,0,0-.57-1.85,2,2,0,0,0-1.4-.52,2.69,2.69,0,0,0-1.15.27,2.28,2.28,0,0,0-1,.88,3.1,3.1,0,0,0-.38,1.63v4.26Z"/></g><g class="cls-34"><path class="cls-35" d="M93.38,158.7a4.1,4.1,0,0,1-2-.5A3.46,3.46,0,0,1,90,156.77a5.22,5.22,0,0,1,0-4.46,3.5,3.5,0,0,1,1.36-1.44,3.87,3.87,0,0,1,2-.49,3.64,3.64,0,0,1,1.91.48,3.16,3.16,0,0,1,1.21,1.3,4.15,4.15,0,0,1,.41,1.85c0,.18,0,.35,0,.5a4,4,0,0,1,0,.4H90.3v-1.14h5.91l-.66.13a2.4,2.4,0,0,0-.63-1.78,2.26,2.26,0,0,0-1.65-.62,2.49,2.49,0,0,0-1.36.36,2.38,2.38,0,0,0-.88,1,4.4,4.4,0,0,0,0,3.27,2.39,2.39,0,0,0,.9,1.05,2.63,2.63,0,0,0,1.4.36,2.69,2.69,0,0,0,1.44-.34,2.59,2.59,0,0,0,.89-.91l1,.59a3.39,3.39,0,0,1-.77,1,3.52,3.52,0,0,1-1.11.61A4.17,4.17,0,0,1,93.38,158.7Z"/></g><g class="cls-34"><path class="cls-35" d="M105.49,150.54l-3.17,4.27h-.08l-2.75,3.73H98l3.49-4.59h.09l2.4-3.41Zm-5.7,0,2.39,3.34.08.12,3.28,4.54H104l-2.48-3.47-.15-.18-3.15-4.35Z"/><path class="cls-35" d="M107.55,161.9V150.54h1.12l.11,2-.17-.22a2.76,2.76,0,0,1,.62-1,3,3,0,0,1,1-.66,3.35,3.35,0,0,1,1.28-.24,3.43,3.43,0,0,1,1.8.49,3.66,3.66,0,0,1,1.32,1.43,4.69,4.69,0,0,1,.49,2.24,4.59,4.59,0,0,1-.5,2.23,3.63,3.63,0,0,1-1.34,1.43,3.48,3.48,0,0,1-1.82.5,3.08,3.08,0,0,1-1.74-.49,2.75,2.75,0,0,1-1.06-1.24l.16-.24v5.17Zm3.79-4.32a2.24,2.24,0,0,0,1.85-.83,3.46,3.46,0,0,0,.66-2.21,3.52,3.52,0,0,0-.64-2.21,2.2,2.2,0,0,0-1.82-.83,2.39,2.39,0,0,0-1.34.37,2.53,2.53,0,0,0-.9,1.06,3.79,3.79,0,0,0-.32,1.61,4,4,0,0,0,.31,1.6,2.44,2.44,0,0,0,.88,1.06A2.35,2.35,0,0,0,111.34,157.58Z"/><path class="cls-35" d="M120.93,158.7a4.1,4.1,0,0,1-2-.5,3.46,3.46,0,0,1-1.38-1.43,5.22,5.22,0,0,1,0-4.46,3.5,3.5,0,0,1,1.36-1.44,3.87,3.87,0,0,1,2-.49,3.64,3.64,0,0,1,1.91.48,3.16,3.16,0,0,1,1.21,1.3,4.15,4.15,0,0,1,.41,1.85c0,.18,0,.35,0,.5a4,4,0,0,1-.05.4h-6.47v-1.14h5.91l-.66.13a2.4,2.4,0,0,0-.63-1.78,2.27,2.27,0,0,0-1.66-.62,2.47,2.47,0,0,0-1.35.36,2.38,2.38,0,0,0-.88,1,4.4,4.4,0,0,0,0,3.27,2.39,2.39,0,0,0,.9,1.05,2.63,2.63,0,0,0,1.4.36,2.69,2.69,0,0,0,1.44-.34,2.56,2.56,0,0,0,.88-.91l1,.59a3.39,3.39,0,0,1-.77,1,3.52,3.52,0,0,1-1.11.61A4.17,4.17,0,0,1,120.93,158.7Z"/></g><g class="cls-34"><path class="cls-35" d="M126.93,158.54v-8h1l.18,1.31a2.3,2.3,0,0,1,1-1.1,3.1,3.1,0,0,1,1.58-.37l.46,0a1.09,1.09,0,0,1,.42.13l-.23,1.17a1.41,1.41,0,0,0-.38-.1,4.37,4.37,0,0,0-.59,0,1.91,1.91,0,0,0-1,.29,2.2,2.2,0,0,0-.84.87,2.87,2.87,0,0,0-.34,1.48v4.32Z"/></g><g class="cls-34"><path class="cls-35" d="M137.77,150.54v1.1H132v-1.1Zm-2.91-2.27v8.06a1.07,1.07,0,0,0,.34.88,1.28,1.28,0,0,0,.86.29,1.78,1.78,0,0,0,.8-.16,2.33,2.33,0,0,0,.61-.43l.45,1.07a2.87,2.87,0,0,1-.88.53,3.4,3.4,0,0,1-1.16.19,2.85,2.85,0,0,1-1.13-.22,1.77,1.77,0,0,1-.84-.69,2.25,2.25,0,0,1-.33-1.24v-7.93Z"/><path class="cls-35" d="M143,150.38a4,4,0,0,1,2,.49,3.5,3.5,0,0,1,1.36,1.44,5.22,5.22,0,0,1,0,4.46A3.48,3.48,0,0,1,145,158.2a4.27,4.27,0,0,1-4,0,3.46,3.46,0,0,1-1.38-1.43,5.32,5.32,0,0,1,0-4.46,3.49,3.49,0,0,1,1.38-1.44A4,4,0,0,1,143,150.38Zm0,1.1a2.55,2.55,0,0,0-1.39.37,2.42,2.42,0,0,0-.89,1.05,4.47,4.47,0,0,0,0,3.27,2.39,2.39,0,0,0,.89,1.06,2.86,2.86,0,0,0,2.78,0,2.39,2.39,0,0,0,.89-1.06,4.47,4.47,0,0,0,0-3.27,2.42,2.42,0,0,0-.89-1.05A2.57,2.57,0,0,0,143,151.48Z"/><path class="cls-35" d="M152.16,158.7a4.77,4.77,0,0,1-2.16-.5,3.55,3.55,0,0,1-1.51-1.41l1.09-.78a2.62,2.62,0,0,0,1,1.15,3.08,3.08,0,0,0,1.64.42,2.31,2.31,0,0,0,1.33-.33,1,1,0,0,0,.48-.86,1,1,0,0,0-.22-.61,1.34,1.34,0,0,0-.82-.41l-1.92-.4a3,3,0,0,1-1.67-.8,2,2,0,0,1-.51-1.39,2.06,2.06,0,0,1,.38-1.2,2.67,2.67,0,0,1,1.07-.87,3.81,3.81,0,0,1,1.64-.33,4,4,0,0,1,2,.46,2.89,2.89,0,0,1,1.22,1.32l-1.07.7a1.92,1.92,0,0,0-.88-1,2.64,2.64,0,0,0-1.27-.33,2.61,2.61,0,0,0-1,.16,1.49,1.49,0,0,0-.63.44,1,1,0,0,0-.21.63,1,1,0,0,0,.24.65,1.46,1.46,0,0,0,.89.42l2,.42a2.71,2.71,0,0,1,1.57.74,1.8,1.8,0,0,1,.45,1.24,2.22,2.22,0,0,1-.4,1.32,2.52,2.52,0,0,1-1.12.87A4.1,4.1,0,0,1,152.16,158.7Z"/><path class="cls-35" d="M166.51,158.7a4.13,4.13,0,0,1-2-.5,3.46,3.46,0,0,1-1.38-1.43,5.22,5.22,0,0,1,0-4.46,3.5,3.5,0,0,1,1.36-1.44,3.89,3.89,0,0,1,2-.49,3.64,3.64,0,0,1,1.91.48,3.16,3.16,0,0,1,1.21,1.3A4,4,0,0,1,170,154c0,.18,0,.35,0,.5a4,4,0,0,1,0,.4h-6.46v-1.14h5.9l-.66.13a2.4,2.4,0,0,0-.63-1.78,2.26,2.26,0,0,0-1.65-.62,2.49,2.49,0,0,0-1.36.36,2.45,2.45,0,0,0-.88,1,4,4,0,0,0-.31,1.64,3.88,3.88,0,0,0,.32,1.63,2.41,2.41,0,0,0,.91,1.05,2.6,2.6,0,0,0,1.4.36,2.68,2.68,0,0,0,1.43-.34,2.59,2.59,0,0,0,.89-.91l1,.59a3.24,3.24,0,0,1-1.88,1.56A4.17,4.17,0,0,1,166.51,158.7Z"/><path class="cls-35" d="M172.4,158.54v-8h1.12l.11,1.79-.21-.17a2.59,2.59,0,0,1,1.69-1.61,4.19,4.19,0,0,1,1.17-.17,3.65,3.65,0,0,1,1.57.33,2.6,2.6,0,0,1,1.13,1,3.19,3.19,0,0,1,.42,1.71v5.12h-1.28v-4.67a2.48,2.48,0,0,0-.56-1.85,2,2,0,0,0-1.4-.52,2.73,2.73,0,0,0-1.16.27,2.28,2.28,0,0,0-.95.88,3.1,3.1,0,0,0-.37,1.63v4.26Z"/></g><g class="cls-34"><path class="cls-35" d="M59.27,177.9a4.1,4.1,0,0,1-2-.5A3.46,3.46,0,0,1,55.86,176a5.22,5.22,0,0,1,0-4.46,3.5,3.5,0,0,1,1.36-1.44,3.87,3.87,0,0,1,2-.49,3.64,3.64,0,0,1,1.91.48,3.16,3.16,0,0,1,1.21,1.3,4.15,4.15,0,0,1,.41,1.85c0,.18,0,.35,0,.5a4,4,0,0,1-.05.4H56.19V173H62.1l-.66.13a2.4,2.4,0,0,0-.63-1.78,2.26,2.26,0,0,0-1.65-.62,2.49,2.49,0,0,0-1.36.36,2.38,2.38,0,0,0-.88,1,4.4,4.4,0,0,0,0,3.27,2.39,2.39,0,0,0,.9,1,2.63,2.63,0,0,0,1.4.36,2.69,2.69,0,0,0,1.44-.34,2.59,2.59,0,0,0,.89-.91l1,.59a3.39,3.39,0,0,1-.77.95,3.52,3.52,0,0,1-1.11.61A4.17,4.17,0,0,1,59.27,177.9Z"/></g><g class="cls-34"><path class="cls-35" d="M65.22,177.74v-8h1.12l.12,1.79-.21-.18a2.75,2.75,0,0,1,.69-1,2.61,2.61,0,0,1,1-.57,4.14,4.14,0,0,1,1.17-.17,3.65,3.65,0,0,1,1.57.33,2.66,2.66,0,0,1,1.13,1,3.16,3.16,0,0,1,.42,1.71v5.12H71v-4.67a2.44,2.44,0,0,0-.57-1.85,2,2,0,0,0-1.4-.52,2.69,2.69,0,0,0-1.15.27,2.28,2.28,0,0,0-1,.88,3.1,3.1,0,0,0-.38,1.63v4.26Z"/></g><g class="cls-34"><path class="cls-35" d="M79.59,169.74v1.1H74v-1.1ZM78.26,166a3.21,3.21,0,0,1,.78.09,1.49,1.49,0,0,1,.58.28l-.34,1a1.18,1.18,0,0,0-.41-.19,2.57,2.57,0,0,0-.5,0,1.65,1.65,0,0,0-1.07.32,1.3,1.3,0,0,0-.38,1.05v9.22H75.64v-9.35a2.78,2.78,0,0,1,.16-1,2,2,0,0,1,.48-.77,2.36,2.36,0,0,1,.83-.5A3.62,3.62,0,0,1,78.26,166Z"/></g><g class="cls-34"><path class="cls-35" d="M84.42,177.9a4.1,4.1,0,0,1-2-.5A3.46,3.46,0,0,1,81,176a5.22,5.22,0,0,1,0-4.46,3.5,3.5,0,0,1,1.36-1.44,3.87,3.87,0,0,1,2-.49,3.64,3.64,0,0,1,1.91.48,3.16,3.16,0,0,1,1.21,1.3,4.15,4.15,0,0,1,.41,1.85c0,.18,0,.35,0,.5a4,4,0,0,1,0,.4H81.34V173h5.91l-.66.13a2.4,2.4,0,0,0-.63-1.78,2.26,2.26,0,0,0-1.65-.62,2.49,2.49,0,0,0-1.36.36,2.38,2.38,0,0,0-.88,1,4.4,4.4,0,0,0,0,3.27,2.39,2.39,0,0,0,.9,1,2.63,2.63,0,0,0,1.4.36,2.69,2.69,0,0,0,1.44-.34,2.59,2.59,0,0,0,.89-.91l1,.59a3.39,3.39,0,0,1-.77.95,3.52,3.52,0,0,1-1.11.61A4.17,4.17,0,0,1,84.42,177.9Z"/><path class="cls-35" d="M90.3,177.74v-8h1l.18,1.31a2.35,2.35,0,0,1,1-1.1,3.13,3.13,0,0,1,1.58-.37l.46,0a1.09,1.09,0,0,1,.42.13l-.22,1.17a1.59,1.59,0,0,0-.39-.1,4.37,4.37,0,0,0-.59,0,1.94,1.94,0,0,0-1,.29,2.27,2.27,0,0,0-.84.87,3,3,0,0,0-.34,1.48v4.32Z"/><path class="cls-35" d="M96.83,177.74v-8H98L98,171a2.72,2.72,0,0,1,1.13-1.08,3.29,3.29,0,0,1,1.43-.33,3.52,3.52,0,0,1,1.6.38,2.55,2.55,0,0,1,1.15,1.19,2.44,2.44,0,0,1,.72-.89,3.26,3.26,0,0,1,1-.51,3.38,3.38,0,0,1,1-.17,3.49,3.49,0,0,1,1.46.32,2.68,2.68,0,0,1,1.15,1,3,3,0,0,1,.44,1.73v5.12H107.9v-5a2,2,0,0,0-.54-1.57,2,2,0,0,0-1.34-.48,2.37,2.37,0,0,0-1.17.3,2.29,2.29,0,0,0-.87.9,2.93,2.93,0,0,0-.33,1.45v4.39h-1.28v-5a2,2,0,0,0-.55-1.57,2,2,0,0,0-1.34-.48,2.35,2.35,0,0,0-1.08.28,2.3,2.3,0,0,0-.92.89,3.1,3.1,0,0,0-.37,1.6v4.27Z"/><path class="cls-35" d="M115.42,177.9a4.09,4.09,0,0,1-2-.5A3.46,3.46,0,0,1,112,176a5.22,5.22,0,0,1,0-4.46,3.5,3.5,0,0,1,1.36-1.44,3.85,3.85,0,0,1,2-.49,3.65,3.65,0,0,1,1.92.48,3.13,3.13,0,0,1,1.2,1.3,4,4,0,0,1,.42,1.85,3.94,3.94,0,0,1,0,.5c0,.15,0,.28,0,.4h-6.47V173h5.91l-.66.13a2.4,2.4,0,0,0-.63-1.78,2.27,2.27,0,0,0-1.66-.62,2.47,2.47,0,0,0-1.35.36,2.38,2.38,0,0,0-.88,1,4.4,4.4,0,0,0,0,3.27,2.33,2.33,0,0,0,.9,1,3,3,0,0,0,2.83,0,2.51,2.51,0,0,0,.89-.91l1,.59a3.25,3.25,0,0,1-.78.95,3.36,3.36,0,0,1-1.1.61A4.19,4.19,0,0,1,115.42,177.9Z"/><path class="cls-35" d="M124.43,177.9a3.48,3.48,0,0,1-1.82-.5,3.54,3.54,0,0,1-1.33-1.43,4.71,4.71,0,0,1-.5-2.23,4.52,4.52,0,0,1,.53-2.26,3.62,3.62,0,0,1,1.39-1.41,3.7,3.7,0,0,1,1.86-.49,2.93,2.93,0,0,1,1.72.51,2.42,2.42,0,0,1,1,1.36l-.16.11v-5.5h1.28v11.68h-1.12l-.11-1.94.17-.09a2.32,2.32,0,0,1-.53,1.19,2.87,2.87,0,0,1-1,.74A3.4,3.4,0,0,1,124.43,177.9Zm.13-1.12a2.32,2.32,0,0,0,1.34-.39,2.54,2.54,0,0,0,.88-1.09,4.29,4.29,0,0,0,.31-1.67,3.76,3.76,0,0,0-.31-1.57,2.28,2.28,0,0,0-2.16-1.36,2.28,2.28,0,0,0-1.88.83,3.41,3.41,0,0,0-.68,2.21,3.46,3.46,0,0,0,.66,2.21A2.22,2.22,0,0,0,124.56,176.78Z"/><path class="cls-35" d="M136,172.57a1.87,1.87,0,0,0-.48-1.38,1.81,1.81,0,0,0-1.36-.49,2.59,2.59,0,0,0-1.41.36,2.08,2.08,0,0,0-.85,1.16l-1-.64a2.82,2.82,0,0,1,1.18-1.45,3.9,3.9,0,0,1,2.15-.55,4.18,4.18,0,0,1,1.57.29,2.47,2.47,0,0,1,1.11.9,2.71,2.71,0,0,1,.41,1.54v3.88q0,.57.6.57a2,2,0,0,0,.6-.08l-.07,1a1.81,1.81,0,0,1-.83.16,1.84,1.84,0,0,1-.83-.18,1.24,1.24,0,0,1-.58-.53,1.78,1.78,0,0,1-.21-.91v-.16l.32.05a2,2,0,0,1-.65,1,3,3,0,0,1-1,.57,3.61,3.61,0,0,1-2.45-.05,2.11,2.11,0,0,1-1-.73,2.16,2.16,0,0,1,.24-2.69,3.23,3.23,0,0,1,1.67-.79l3.17-.62v1l-2.57.53a3,3,0,0,0-1.17.45.94.94,0,0,0-.39.8,1,1,0,0,0,.4.81,1.79,1.79,0,0,0,1.11.31,3.3,3.3,0,0,0,.89-.12,2.34,2.34,0,0,0,.76-.37,1.65,1.65,0,0,0,.52-.62,1.92,1.92,0,0,0,.2-.89Z"/><path class="cls-35" d="M143.52,177.9a3.48,3.48,0,0,1-1.82-.5,3.54,3.54,0,0,1-1.33-1.43,4.71,4.71,0,0,1-.5-2.23,4.52,4.52,0,0,1,.53-2.26,3.62,3.62,0,0,1,1.39-1.41,3.7,3.7,0,0,1,1.86-.49,2.93,2.93,0,0,1,1.72.51,2.47,2.47,0,0,1,1,1.36l-.16.11v-5.5h1.28v11.68h-1.12l-.12-1.94.18-.09a2.25,2.25,0,0,1-.54,1.19,2.79,2.79,0,0,1-1,.74A3.35,3.35,0,0,1,143.52,177.9Zm.13-1.12a2.27,2.27,0,0,0,1.33-.39,2.4,2.4,0,0,0,.88-1.09,4.11,4.11,0,0,0,.32-1.67,3.6,3.6,0,0,0-.32-1.57,2.31,2.31,0,0,0-.86-1,2.4,2.4,0,0,0-1.29-.35,2.31,2.31,0,0,0-1.89.83,4,4,0,0,0,0,4.42A2.22,2.22,0,0,0,143.65,176.78Z"/><path class="cls-35" d="M153.78,177.9a4.1,4.1,0,0,1-2-.5,3.46,3.46,0,0,1-1.38-1.43,5.22,5.22,0,0,1,0-4.46,3.5,3.5,0,0,1,1.36-1.44,3.87,3.87,0,0,1,2-.49,3.64,3.64,0,0,1,1.91.48,3.16,3.16,0,0,1,1.21,1.3,4.15,4.15,0,0,1,.41,1.85c0,.18,0,.35,0,.5a4,4,0,0,1-.05.4H150.7V173h5.91l-.66.13a2.4,2.4,0,0,0-.63-1.78,2.27,2.27,0,0,0-1.66-.62,2.47,2.47,0,0,0-1.35.36,2.38,2.38,0,0,0-.88,1,4.4,4.4,0,0,0,0,3.27,2.39,2.39,0,0,0,.9,1,2.63,2.63,0,0,0,1.4.36,2.69,2.69,0,0,0,1.44-.34,2.56,2.56,0,0,0,.88-.91l1,.59a3.39,3.39,0,0,1-.77.95,3.52,3.52,0,0,1-1.11.61A4.17,4.17,0,0,1,153.78,177.9Z"/><path class="cls-35" d="M162.54,177.9a4.75,4.75,0,0,1-2.15-.5,3.55,3.55,0,0,1-1.51-1.41l1.09-.78a2.62,2.62,0,0,0,1,1.15,3.05,3.05,0,0,0,1.64.42,2.31,2.31,0,0,0,1.33-.33,1,1,0,0,0,.48-.86,1,1,0,0,0-.22-.61,1.37,1.37,0,0,0-.82-.41l-1.92-.4a3,3,0,0,1-1.67-.8,2,2,0,0,1-.51-1.39,2.06,2.06,0,0,1,.38-1.2,2.67,2.67,0,0,1,1.07-.87,3.78,3.78,0,0,1,1.64-.33,4,4,0,0,1,2,.46,3,3,0,0,1,1.22,1.31l-1.08.71a1.88,1.88,0,0,0-.88-1,2.58,2.58,0,0,0-1.26-.33,2.61,2.61,0,0,0-1,.16,1.43,1.43,0,0,0-.63.44,1,1,0,0,0-.21.63,1,1,0,0,0,.24.65,1.43,1.43,0,0,0,.89.42l2,.42a2.78,2.78,0,0,1,1.57.73,1.85,1.85,0,0,1,.45,1.25,2.29,2.29,0,0,1-.4,1.32,2.52,2.52,0,0,1-1.12.87A4.15,4.15,0,0,1,162.54,177.9Z"/><path class="cls-35" d="M173.55,177.74v-8h1.12l.08,1.25a2.72,2.72,0,0,1,1.13-1.08,3.29,3.29,0,0,1,1.43-.33,3.52,3.52,0,0,1,1.6.38,2.55,2.55,0,0,1,1.15,1.19,2.26,2.26,0,0,1,.72-.89,3.26,3.26,0,0,1,1-.51,3.38,3.38,0,0,1,1-.17,3.49,3.49,0,0,1,1.46.32,2.68,2.68,0,0,1,1.15,1,3.13,3.13,0,0,1,.44,1.73v5.12h-1.28v-5a2,2,0,0,0-.54-1.57,2,2,0,0,0-1.34-.48,2.37,2.37,0,0,0-1.17.3,2.22,2.22,0,0,0-.87.9,2.93,2.93,0,0,0-.33,1.45v4.39h-1.28v-5a2,2,0,0,0-.55-1.57,2,2,0,0,0-1.34-.48,2.35,2.35,0,0,0-1.08.28,2.3,2.3,0,0,0-.92.89,3,3,0,0,0-.37,1.6v4.27Z"/><path class="cls-35" d="M189.44,168.2a.9.9,0,0,1-1-1,1,1,0,1,1,1.92,0,.9.9,0,0,1-1,1Zm.64,1.54v8H188.8v-8Z"/><path class="cls-35" d="M196.37,169.58a3.89,3.89,0,0,1,1.46.25,3.33,3.33,0,0,1,1.1.74,3.76,3.76,0,0,1,.75,1.14l-1.22.57a2.43,2.43,0,0,0-.77-1.17,2.09,2.09,0,0,0-1.35-.41,2.53,2.53,0,0,0-1.38.36,2.32,2.32,0,0,0-.88,1,4.61,4.61,0,0,0,0,3.27,2.29,2.29,0,0,0,.88,1,2.53,2.53,0,0,0,1.38.36,3,3,0,0,0,1.08-.19,2,2,0,0,0,.75-.56,2.33,2.33,0,0,0,.41-.9l1.18.42a3.92,3.92,0,0,1-.74,1.26,3.3,3.3,0,0,1-1.14.81,3.8,3.8,0,0,1-1.51.28,4,4,0,0,1-2-.5A3.46,3.46,0,0,1,193,176a5.32,5.32,0,0,1,0-4.46,3.49,3.49,0,0,1,1.38-1.44A4,4,0,0,1,196.37,169.58Z"/></g><g class="cls-34"><path class="cls-35" d="M205.69,169.58a4,4,0,0,1,2,.49,3.53,3.53,0,0,1,1.37,1.44,5.22,5.22,0,0,1,0,4.46,3.5,3.5,0,0,1-1.37,1.43,4.25,4.25,0,0,1-4,0,3.46,3.46,0,0,1-1.38-1.43,5.22,5.22,0,0,1,0-4.46,3.49,3.49,0,0,1,1.38-1.44A4,4,0,0,1,205.69,169.58Zm0,1.1a2.61,2.61,0,0,0-1.4.37,2.4,2.4,0,0,0-.88,1,4.34,4.34,0,0,0,0,3.27,2.37,2.37,0,0,0,.88,1.06,2.88,2.88,0,0,0,2.79,0,2.46,2.46,0,0,0,.89-1.06,4.47,4.47,0,0,0,0-3.27,2.49,2.49,0,0,0-.89-1A2.6,2.6,0,0,0,205.69,170.68Z"/></g><g class="cls-34"><path class="cls-35" d="M216.75,169.74v1.1H211v-1.1Zm-2.91-2.27v8.06a1.07,1.07,0,0,0,.34.88,1.28,1.28,0,0,0,.86.29,1.78,1.78,0,0,0,.8-.16,2.33,2.33,0,0,0,.61-.43l.45,1.07a2.87,2.87,0,0,1-.88.53,3.4,3.4,0,0,1-1.16.19,2.85,2.85,0,0,1-1.13-.22,1.77,1.77,0,0,1-.84-.69,2.25,2.25,0,0,1-.33-1.24v-7.93Z"/><path class="cls-35" d="M219.3,168.2a1,1,0,0,1-.7-.26.94.94,0,0,1-.26-.7.9.9,0,0,1,.26-.69.94.94,0,0,1,.7-.27.92.92,0,0,1,.69.27.9.9,0,0,1,.27.69.94.94,0,0,1-.27.7A1,1,0,0,1,219.3,168.2Zm.64,1.54v8h-1.28v-8Z"/><path class="cls-35" d="M226.22,169.58a3.9,3.9,0,0,1,1.47.25,3.19,3.19,0,0,1,1.09.74,4,4,0,0,1,.76,1.14l-1.22.57a2.38,2.38,0,0,0-.78-1.17,2.05,2.05,0,0,0-1.35-.41,2.52,2.52,0,0,0-1.37.36,2.26,2.26,0,0,0-.88,1,4.47,4.47,0,0,0,0,3.27,2.23,2.23,0,0,0,.88,1,2.52,2.52,0,0,0,1.37.36,2.9,2.9,0,0,0,1.08-.19A1.85,1.85,0,0,0,228,176a2.07,2.07,0,0,0,.41-.9l1.19.42a3.77,3.77,0,0,1-.75,1.26,3.17,3.17,0,0,1-1.13.81,3.85,3.85,0,0,1-1.52.28,4,4,0,0,1-2-.5,3.5,3.5,0,0,1-1.37-1.43,5.22,5.22,0,0,1,0-4.46,3.53,3.53,0,0,1,1.37-1.44A4,4,0,0,1,226.22,169.58Z"/><path class="cls-35" d="M236.54,172.57a1.87,1.87,0,0,0-.48-1.38,1.8,1.8,0,0,0-1.36-.49,2.58,2.58,0,0,0-1.4.36,2.08,2.08,0,0,0-.85,1.16l-1-.64a2.82,2.82,0,0,1,1.18-1.45,3.9,3.9,0,0,1,2.15-.55,4.09,4.09,0,0,1,1.56.29,2.55,2.55,0,0,1,1.12.9,2.71,2.71,0,0,1,.4,1.54v3.88c0,.38.21.57.61.57a1.91,1.91,0,0,0,.59-.08l-.06,1a1.81,1.81,0,0,1-.83.16,1.84,1.84,0,0,1-.83-.18,1.24,1.24,0,0,1-.58-.53,1.78,1.78,0,0,1-.21-.91v-.16l.32.05a2.09,2.09,0,0,1-.65,1,3,3,0,0,1-1,.57,3.58,3.58,0,0,1-1.14.19,3.51,3.51,0,0,1-1.31-.24,2.11,2.11,0,0,1-1-.73,2.16,2.16,0,0,1,.24-2.69,3.23,3.23,0,0,1,1.67-.79l3.17-.62v1l-2.58.53a3,3,0,0,0-1.16.45.94.94,0,0,0-.39.8,1,1,0,0,0,.39.81,1.84,1.84,0,0,0,1.12.31,3.17,3.17,0,0,0,.88-.12,2.15,2.15,0,0,0,.76-.37,1.67,1.67,0,0,0,.53-.62,1.91,1.91,0,0,0,.19-.89Z"/><path class="cls-35" d="M243.81,177.9a4.69,4.69,0,0,1-2.15-.5,3.58,3.58,0,0,1-1.52-1.41l1.09-.78a2.68,2.68,0,0,0,1,1.15,3.08,3.08,0,0,0,1.64.42,2.31,2.31,0,0,0,1.33-.33,1,1,0,0,0,.27-1.47,1.4,1.4,0,0,0-.83-.41l-1.92-.4a3,3,0,0,1-1.67-.8,2,2,0,0,1-.5-1.39,2.05,2.05,0,0,1,.37-1.2,2.67,2.67,0,0,1,1.07-.87,3.84,3.84,0,0,1,1.64-.33,4,4,0,0,1,2,.46,2.92,2.92,0,0,1,1.22,1.31l-1.07.71a1.92,1.92,0,0,0-.88-1,2.64,2.64,0,0,0-1.27-.33,2.61,2.61,0,0,0-1,.16,1.39,1.39,0,0,0-.62.44,1,1,0,0,0-.22.63,1,1,0,0,0,.24.65,1.46,1.46,0,0,0,.9.42l2,.42a2.74,2.74,0,0,1,1.56.73,1.85,1.85,0,0,1,.45,1.25,2.22,2.22,0,0,1-.4,1.32,2.47,2.47,0,0,1-1.12.87A4.1,4.1,0,0,1,243.81,177.9Z"/><path class="cls-35" d="M250,175.82a1,1,0,0,1,.75.29,1,1,0,1,1-1.5,0A1,1,0,0,1,250,175.82Z"/></g></g></g></g></g></svg>