<svg xmlns="http://www.w3.org/2000/svg" viewBox="0 0 834 662"><defs><style>.cls-1{isolation:isolate;}.cls-2{fill:#603813;}.cls-3{fill:#34220e;}.cls-4{fill:#edc4a6;}.cls-5{fill:#fbf1e1;}.cls-6{fill:#fafef8;}.cls-7{fill:#473117;}.cls-8{fill:#074959;}.cls-9{fill:#efb88f;}.cls-10{fill:#cba284;}.cls-11{fill:#cb9775;}.cls-12{fill:#602e03;}.cls-13,.cls-24,.cls-25,.cls-72{fill:none;}.cls-13,.cls-72{stroke:#e5b897;}.cls-13,.cls-25,.cls-72{stroke-linecap:round;}.cls-13,.cls-24,.cls-72{stroke-miterlimit:10;}.cls-13{stroke-width:0.75px;}.cls-14{fill:#e5b897;}.cls-15{fill:#211b1b;}.cls-16{opacity:0.07;}.cls-17{fill:#bdd0e7;}.cls-18{fill:#f4f5f4;}.cls-19{fill:#f7f8fa;}.cls-20,.cls-23{fill:#e3e3e3;}.cls-21{fill:#c8c8c8;}.cls-22{opacity:0.05;}.cls-23{opacity:0.42;}.cls-24{stroke:#c8c8c8;stroke-width:2px;}.cls-25{stroke:#000;stroke-linejoin:round;stroke-width:3px;}.cls-26{fill:#050303;}.cls-27{fill:#fff;}.cls-28{fill:#e6e6e6;mix-blend-mode:multiply;}.cls-29{fill:#d63384;}.cls-30{fill:#f9f9f9;}.cls-31{fill:#f8f7f9;}.cls-32{font-size:16px;font-family:WorkSans-Regular, Work Sans;}.cls-33{letter-spacing:-0.06em;}.cls-34{letter-spacing:-0.01em;}.cls-35{letter-spacing:-0.01em;}.cls-36{letter-spacing:-0.07em;}.cls-37{letter-spacing:-0.06em;}.cls-38{letter-spacing:-0.01em;}.cls-39{letter-spacing:-0.01em;}.cls-40{letter-spacing:-0.02em;}.cls-41{letter-spacing:-0.06em;}.cls-42{letter-spacing:0em;}.cls-43{letter-spacing:0.6em;}.cls-44{letter-spacing:-0.02em;}.cls-45{letter-spacing:0em;}.cls-46{letter-spacing:0.49em;}.cls-47{letter-spacing:-0.02em;}.cls-48{letter-spacing:0.22em;}.cls-49{letter-spacing:-0.03em;}.cls-50{letter-spacing:0.22em;}.cls-51{letter-spacing:0.18em;}.cls-52{letter-spacing:-0.03em;}.cls-53{letter-spacing:0.22em;}.cls-54{letter-spacing:0.22em;}.cls-55{letter-spacing:0.22em;}.cls-56{letter-spacing:-0.02em;}.cls-57{letter-spacing:0.09em;}.cls-58{letter-spacing:0em;}.cls-59{letter-spacing:0.09em;}.cls-60{letter-spacing:0.09em;}.cls-61{letter-spacing:-0.01em;}.cls-62{letter-spacing:-0.01em;}.cls-63{letter-spacing:-0.01em;}.cls-64{letter-spacing:-0.01em;}.cls-65{letter-spacing:-0.02em;}.cls-66{letter-spacing:-0.03em;}.cls-67{letter-spacing:-0.04em;}.cls-68{letter-spacing:-0.02em;}.cls-69{letter-spacing:-0.01em;}.cls-70{letter-spacing:-0.02em;}.cls-71{letter-spacing:-0.02em;}</style></defs><g class="cls-1"><g id="Dra_video" data-name="Dra video"><path class="cls-2" d="M111.17,261.45C90.77,292.93,88.62,344.76,116.9,372c15.32,13.23,37.19,15.14,57.43,15.08,32.82,2.28,53.84-13.68,64.56-44.38,17.19-34.44-4.19-72.73-27.44-98.61C180.39,225.8,132.87,230.7,111.17,261.45Z"/><path class="cls-3" d="M130.87,295.31a37,37,0,0,0-13.39,22.37c-15.07,53.26,40.22,81.81,77.87,63.72,28-9,34.74-72.22.06-87.1C184.21,288.12,162.18,272.42,130.87,295.31Z"/><path class="cls-4" d="M137.88,275c-6.85,9.83-8.78,22.19-10.27,34.09-2.62,15.07-1.84,31.38,8.75,43.37,5.89,8.68,14.69,14,23.23,19.71,6.46,5.1,14.43,5.64,21.13.71,18.46-9.19,26.08-27.42,31-46.76A41.47,41.47,0,0,0,202,282.3c-8.59-8.42-35.65-29.13-47.34-21.59C148.38,265,142.3,268.64,137.88,275Z"/><path class="cls-4" d="M122.5,301.05c-5.19,1.56-5.79,9.23-1.33,12.07a42.78,42.78,0,0,1,5.78,3.63c1.91-3.36,2.5-10.08,2.38-14.08C128.82,299.37,125.56,300.14,122.5,301.05Z"/><path class="cls-4" d="M216.89,300.25c6.06,3.92,5.22,12.3-.5,16.09-1.23,1.52-2.21,3.79-4.16,3.77V309.44C211.32,304.16,208.93,299.17,216.89,300.25Z"/><path class="cls-5" d="M122.86,314.25c-3.73,1.54-1.82,9.26,2.43,8.43C128.44,322.71,130.7,310.71,122.86,314.25Z"/><path class="cls-6" d="M212,311.74c-1.28.71-1.11,11.2,1.94,8.61C218.83,318.94,218,310,212,311.74Z"/><path class="cls-7" d="M154.76,284.74c-5,.56-13.35,5.49-12.88,10.92,3.52-6.2,11.62-8,18.24-8.72C163.09,283.48,156.7,284.36,154.76,284.74Z"/><path class="cls-7" d="M187.64,284.72c5,.55,13.35,5.47,12.88,10.91-3.51-6.2-11.62-8-18.24-8.7C179.32,283.47,185.7,284.34,187.64,284.72Z"/><path class="cls-8" d="M150.56,299c-2.72,3.8-1,11.28,4.65,10.33C161.51,307.07,157.09,292.58,150.56,299Z"/><path class="cls-8" d="M186.56,298.94c-1.69,2.38-1.81,6.75.44,8.81C197.15,314.6,195.85,291.23,186.56,298.94Z"/><path class="cls-9" d="M207.31,321.89c.14,5.83-13.15,5.84-13,0C194.16,316.07,207.46,316.06,207.31,321.89Z"/><path class="cls-9" d="M145.31,321.93c.14,5.83-13.15,5.84-13,0C132.16,316.11,145.46,316.1,145.31,321.93Z"/><path class="cls-10" d="M165.77,326.87a5.8,5.8,0,0,0,5.23,3.55,7.76,7.76,0,0,0,5.84-2.65,1.13,1.13,0,0,0-1.37-1.76c-.24.11.24-.07,0,0l-.21.07-.46.13a5.05,5.05,0,0,1-.56.12h-.35q-1.21.14-2.46.15c-1.21,0-2.41-.06-3.61-.07a1.13,1.13,0,0,0,0,2.25c1.28,0,2.56.09,3.85.07a12.35,12.35,0,0,0,5-.86l-1.36-1.77c-.15.17-.31.33-.47.49l-.25.22-.17.14h0a7.9,7.9,0,0,1-1.12.67l-.15.07h0l-.36.13a3.91,3.91,0,0,1-.61.17l-.31.07c-.24.05.15,0-.12,0h-.62a3.43,3.43,0,0,1-1.94-.54l-.25-.17c.17.13-.07-.06-.1-.09a4.89,4.89,0,0,1-.45-.46h0l-.1-.14-.19-.3c-.13-.23-.24-.47-.35-.71a1.13,1.13,0,0,0-1.54-.4,1.16,1.16,0,0,0-.4,1.54Z"/><path class="cls-11" d="M174,353.59a11.58,11.58,0,0,1-2.3,1.42,4.55,4.55,0,0,1-1.67.32h-.48l-.27-.06a6,6,0,0,1-1-.3,21.73,21.73,0,0,1-2.3-1.06l-.57,2.1,7.45.32a1.13,1.13,0,0,0,.21-2.25h-.21l-7.45-.32a1.14,1.14,0,0,0-1.09,1.19,1.13,1.13,0,0,0,.52.91,12.59,12.59,0,0,0,5.24,1.76,8.66,8.66,0,0,0,5.13-2,1.12,1.12,0,1,0-1.13-1.94h0Z"/><path class="cls-12" d="M179.32,348.25c.15,14.08-15.31,14.09-15.18,0C164,334.19,179.45,334.18,179.32,348.25Z"/><path class="cls-2" d="M168.57,268.61c13.91,6,30.68,10,40.48,22.37,2,3.21,1.89,8.42,5.44,10.2,14.72-9.87,4-29.84-10.76-33.2-13-6.66-27.36-13-42.06-13.39C152.06,256.64,165.54,267.15,168.57,268.61Z"/><path class="cls-2" d="M129,293.87a33.51,33.51,0,0,1,9.83-11.74c7.58-7,11.36-18.09,20.56-22.76-2.07-5.67-13.27-1.41-17,1C137.51,265.44,127.8,287.14,129,293.87Z"/><path class="cls-4" d="M312.12,424.44c-6.19-15.75-5.25-31.36.21-47.34,2.4-3.22,9.88.37,13.21-1.87,5-8.21,6.14-19.07,10.06-28,.81-4,6.17-9.17,9.26-4.52-.67,12.09-5.07,24.53-9.52,35.82,7.7-10.49,19-2.86,10.66,7.71,9.63-5.81,14.35,2.06,7.41,9.51,7-2.64,12.38,1.81,8.42,8.68-.64,1.44-3.28,2.26-3.36,3.84-.25,5.09.24,3.15-4.38,13.33-9.35,11.68-10.5,7.68-15.2,24.86-1.34,3.44-.69,7.56-2,11-.57,1.06-29.82-8.54-29.82-8.54C308.12,443.08,312.55,431.07,312.12,424.44Z"/><path class="cls-13" d="M336,399.5c-1.78,4.31,3.84,9.6,7.66,6.37"/><path class="cls-13" d="M344.05,405.51c-1.45,4,.93,8.95,5.63,6.76"/><path class="cls-14" d="M359.46,407.72a26.78,26.78,0,0,1-1.52,8.36,21.09,21.09,0,0,1-4.65,7.2c-2,2.07-4.15,3.84-6.08,5.76a23,23,0,0,0-4.77,6.39,1.13,1.13,0,0,1-1.5.5,1.11,1.11,0,0,1-.5-1.5h0a25.17,25.17,0,0,1,5.44-6.75c2.1-1.92,4.32-3.59,6.26-5.49a19.77,19.77,0,0,0,4.61-6.55,26.12,26.12,0,0,0,1.76-7.94h0a.48.48,0,0,1,.95,0Z"/><path class="cls-15" d="M187,577.68a1.68,1.68,0,0,1,2,2.16c-2.1,23.86-1.64,47.87-1.17,71.82q-19.2.6-38.41.16c0-20.75-.1-41.51.14-62.26.09-8.31.86-11.72,9.42-11.83C168.31,577.61,177.66,577.69,187,577.68Z"/><polygon class="cls-16" points="228.33 459.97 227.34 473.97 236.25 492.81 228.33 459.97"/><path class="cls-17" d="M197,431c-3.19,49.86-18.18,100.07-20.34,150-6.09.4-12.63-.34-16.86-.11-.39-25.79-2.26-51.08-2.75-76.86-1-24.93-15.06-52.12-15-77C152.67,429.18,186.09,431.93,197,431Z"/><path class="cls-18" d="M341.26,456.8c-4,32.09-23.84,60.73-31.32,92.43A19.82,19.82,0,0,1,277.69,557C259.74,538.21,249,513.28,234.14,492c5.87,19-27.67,60.18-32.84,84.4-4,7.3,5,9.59,9.11,13.56,14,17.51,29,38.43,30,61-16.62,5.39-42,.22-59.32,1C168.74,579.26,180,512,180,512l17-78s2.8-8.33,1-16c-1.91-8.15-17.89-17.36-14-20,3.42-2.32,16,5,16,5s5.86,3.39,8.24,12c3,4.9,9.6,6.62,15.35,6.71C245.25,420.66,274.78,477,284.9,495a383.72,383.72,0,0,0,19.46-53.29l33.39,10.67C340,452.88,341.78,454.42,341.26,456.8Z"/><path class="cls-19" d="M161.15,644.18c-.32,2.88-1,7.83-1,7.83s-17,0-22.92-.72c-2.47-.3-37.15-2.26-44.44-1.34a293.76,293.76,0,0,1,19-48.62c6.35-13.09,19.4-17.45,12.63-33.3-3-10-3.94-17.12-8-27-1.51-3.75-1.56-12.61-5.09-15.11-12.59-11.7-9.45-25.68-11-41.88-41.13,68.26-69.06,41.61,3,101.37,12.23,8.34-14.41,8.8-20,36.64-25.73-19.09-53-38.69-69.25-67-16.92-25.69,29.4-58.52,42-79.58,8-10.83,14.74-22.6,23-33.23s18.5-20.28,31.14-25c6.87-2.54,14.73-3.81,19.69-9.2C137.29,397.19,154,397,154,397a78.42,78.42,0,0,1-8,10c-1.27,1.27-7.88,4.35-8,7-.27,6.17,7,28,7,28s17.67,50.94,15.05,84C158.31,563.48,160.94,606.83,161.15,644.18Z"/><path class="cls-20" d="M143.77,489.55c3.37,16.16-20,21.15-23.51,5C116.89,478.42,140.24,473.43,143.77,489.55Z"/><path class="cls-21" d="M120,493.4c-3-12.92,16.21-17,18.8-4C141.76,502.31,122.61,506.41,120,493.4Z"/><polygon class="cls-21" points="124.59 473.6 126.02 472.03 128.7 481.33 126.35 481.83 124.59 473.6"/><path class="cls-16" d="M104.33,464.05l-18,40C95.3,488.57,104.21,487.6,104.33,464.05Z"/><path class="cls-22" d="M115,538c3.57,6.38,7.65,24.6,12.36,40.86,22.25,5.49,46.71,5.77,69.36,2.18,2.45-.58,4.22-1,4.06-4,4.05-17,18.24-38,22.3-48-8.76,0-16.62,1-25.38,1-8.71-.65-18.49-3-27.19-3.2-19,1.29-40.32,8.81-58.12-.75C112.76,527,112.69,532.46,115,538Z"/><path class="cls-23" d="M129,413s-8,16-15,24l18,2-13,11,15,21s16,16,20,29l6,16s-1-28-14.05-70c-7.59-24.46-7.65-33.55-4-37a35.48,35.48,0,0,1,7-5l3-4S136,400,129,413Z"/><path class="cls-23" d="M211.41,412.06s7.85,16.07,14.78,24.14l-18,1.83,12.9,11.12L205.87,470s-16.14,15.85-20.26,28.81l-6.15,15.95s1.26-28,14.65-69.87c7.79-24.39,7.94-33.49,4.34-37a36.25,36.25,0,0,0-7-5.07l-3-4S204.53,399,211.41,412.06Z"/><path d="M125.68,477.84a2.29,2.29,0,0,1-1-1.36l-.49-1.52c-.32-1-.62-2-.91-3-.59-2-1.12-4.08-1.6-6.14a118.91,118.91,0,0,1-2.28-12.47c-1-8.38-1.22-17,.63-25.41a39,39,0,0,1,4.72-12,30,30,0,0,1,9-9.36,26.94,26.94,0,0,1,5.92-2.82,58.29,58.29,0,0,1,6.16-1.76,98.78,98.78,0,0,1,12.54-2,122.26,122.26,0,0,1,25.3.16,86.59,86.59,0,0,1,12.51,2.33,49,49,0,0,1,11.92,4.81,28.09,28.09,0,0,1,5.25,3.95,21.74,21.74,0,0,1,2.2,2.5l.95,1.33.88,1.37a47,47,0,0,1,5,11.86,99.28,99.28,0,0,1,2.52,12.46,28,28,0,0,1,.35,6.57c-.09,1.08-.2,2.07-.24,3.08s-.05,2,0,3v0a1.5,1.5,0,1,1-3,0v0c0-1.07,0-2.15.1-3.23s.2-2.17.3-3.16a24.85,24.85,0,0,0-.22-5.94A89.54,89.54,0,0,0,219.81,429a44.34,44.34,0,0,0-4.66-11.2l-.81-1.27-.87-1.23a18.31,18.31,0,0,0-1.93-2.2,25,25,0,0,0-4.74-3.58A45.72,45.72,0,0,0,195.53,405a82.52,82.52,0,0,0-12.12-2.3,120.72,120.72,0,0,0-24.78-.22,94.53,94.53,0,0,0-12.23,1.89,56,56,0,0,0-5.9,1.66,24.71,24.71,0,0,0-5.39,2.54,27.62,27.62,0,0,0-8.19,8.65,36.48,36.48,0,0,0-4.34,11.27c-1.72,8-1.49,16.34-.42,24.5q.82,6.15,2.23,12.2c.47,2,1,4,1.56,6,.28,1,.57,2,.88,3l.47,1.47a2.24,2.24,0,0,1,.06,1.6l0,.06a1.11,1.11,0,0,1-1.41.68A1.15,1.15,0,0,1,125.68,477.84Z"/><path class="cls-24" d="M203,471.21l5.73,51.62s1.69,13.51,11.48,16.3"/><path class="cls-24" d="M236.36,477.93l-24.75,47.42s-6.66,12.34-17,11.64"/><path class="cls-25" d="M203,474.58s0-27.37,20.84-20.87c-.05-.09,17.36-1.16,11.75,24.76"/><path class="cls-26" d="M191.1,535.72c-1.89-.27-5.1.1-4.84,2.62,1.71,3.17,7.84,2.41,10.4.52,1-.71.29-3.07-.67-3.4C194.44,535.42,192.7,535.94,191.1,535.72Z"/><path class="cls-26" d="M217.78,540.52c1.53,2.89,7,6,9.74,3.28,1.3-4.06-4.67-4-6.91-5.85A1.92,1.92,0,0,0,217.78,540.52Z"/><path class="cls-27" d="M129,410s-7,18-14,26l16,1.42L119,449l15,19s16,16,20,29l6,16s-1-28-14-70c-7.59-24.46-4.65-31.56-1-35a35.48,35.48,0,0,1,7-5l2-6S136,397,129,410Z"/><path class="cls-27" d="M211.44,409.06s6.83,18.06,13.76,26.13l-16,1.28,11.9,11.68L205.9,467s-16.15,15.85-20.27,28.81l-6.14,15.95s1.26-28,14.64-69.87C201.93,417.51,196,414,193,410a56.41,56.41,0,0,1-5-8l-3-6S204.56,396,211.44,409.06Z"/><path class="cls-4" d="M194,410c7,9,3.77,13.91,3,22-10.91.86-55-3-55-3s-2.29-7.71-1-14a25.06,25.06,0,0,1,3-6.36,6.76,6.76,0,0,1,2.91-2.67c.2-.09.28-.11.12,0,18-15,1.55-42.36,11.4-41.84,3.43-.17,21.27-.24,24.89-.13C182.19,379.65,183.17,397.59,194,410Z"/><path class="cls-28" d="M701.3,291.69H344.69l-39.18,24.55V130.93c0-5.67,7.09-10.26,15.84-10.26H701.3c8.75,0,15.85,4.59,15.85,10.26v150.5C717.15,287.1,710.05,291.69,701.3,291.69Z"/><path class="cls-29" d="M687,280.25H330.42l-39.17,24.56V119.49c0-5.66,7.09-10.26,15.84-10.26H687c8.75,0,15.85,4.6,15.85,10.26V270C702.89,275.66,695.79,280.25,687,280.25Z"/><rect class="cls-28" x="319.27" y="103.75" width="420.73" height="172.56" rx="15.37"/><rect class="cls-27" x="313.35" y="98" width="420.73" height="172.56" rx="15.37"/><path class="cls-29" d="M736.72,305a3.63,3.63,0,1,1-5.11-.45A3.63,3.63,0,0,1,736.72,305Z"/><path class="cls-27" d="M751.56,290.74a3.63,3.63,0,1,1-5.11-.45A3.63,3.63,0,0,1,751.56,290.74Z"/><circle class="cls-29" cx="725.2" cy="278.57" r="7.26" transform="translate(382.21 975.62) rotate(-84.81)"/><circle class="cls-29" cx="724.18" cy="242.52" r="17.6" transform="translate(-7.07 22.24) rotate(-1.75)"/><circle class="cls-30" cx="698.73" cy="291.58" r="17.75" transform="translate(331.34 953.6) rotate(-83.62)"/><ellipse class="cls-29" cx="314.22" cy="90.1" rx="28.82" ry="29.35" transform="translate(-2.95 169.2) rotate(-30)"/><circle class="cls-28" cx="271.26" cy="116.35" r="33.49"/><path class="cls-29" d="M282.4,61a7.31,7.31,0,1,1-10-2.67A7.31,7.31,0,0,1,282.4,61Z"/><path class="cls-29" d="M257.34,66.63a3.65,3.65,0,1,1-5-1.34A3.65,3.65,0,0,1,257.34,66.63Z"/><path class="cls-27" d="M284.61,105.29a3.65,3.65,0,1,1-5-1.34A3.65,3.65,0,0,1,284.61,105.29Z"/><circle class="cls-31" cx="266.78" cy="111.43" r="33.49"/><text class="cls-32" transform="translate(347 135.68)">Las<tspan class="cls-33" x="27.06" y="0"> </tspan><tspan x="31.57" y="0">e</tspan><tspan class="cls-34" x="40.86" y="0">n</tspan><tspan class="cls-35" x="50.66" y="0">f</tspan><tspan x="56.72" y="0">ermedades</tspan><tspan class="cls-36" x="144.03" y="0"> </tspan><tspan x="148.29" y="0">fúngicas</tspan><tspan class="cls-37" x="213.94" y="0"> </tspan><tspan x="218.45" y="0">pueden</tspan><tspan class="cls-37" x="277.01" y="0"> </tspan><tspan class="cls-38" x="281.52" y="0">a</tspan><tspan class="cls-39" x="290.5" y="0">f</tspan><tspan x="296.56" y="0">ecta</tspan><tspan class="cls-40" x="330.64" y="0">r</tspan><tspan class="cls-41" x="336.8" y="0"> </tspan><tspan class="cls-40" x="341.31" y="0">a</tspan><tspan class="cls-42" x="350" y="0"> </tspan><tspan x="0" y="19.2">cualquie</tspan><tspan class="cls-40" x="66.43" y="19.2">r</tspan><tspan class="cls-43" x="72.59" y="19.2"> </tspan><tspan x="87.64" y="19.2">pe</tspan><tspan class="cls-44" x="107.02" y="19.2">r</tspan><tspan class="cls-45" x="113.21" y="19.2">sona.</tspan><tspan class="cls-46" x="154.58" y="19.2"> </tspan><tspan x="167.87" y="19.2">Ap</tspan><tspan class="cls-47" x="188.51" y="19.2">r</tspan><tspan x="194.78" y="19.2">ende</tspan><tspan class="cls-40" x="233.36" y="19.2">r</tspan><tspan class="cls-43" x="239.52" y="19.2"> </tspan><tspan x="254.57" y="19.2">sob</tspan><tspan class="cls-47" x="282.81" y="19.2">r</tspan><tspan x="289.08" y="19.2">e</tspan><tspan class="cls-43" x="298.38" y="19.2"> </tspan><tspan x="313.43" y="19.2">ellas </tspan><tspan x="0" y="38.4">puede</tspan><tspan class="cls-48" x="48.66" y="38.4"> </tspan><tspan class="cls-49" x="57.61" y="38.4">a</tspan><tspan x="66.2" y="38.4">yudarlos</tspan><tspan class="cls-48" x="133.38" y="38.4"> </tspan><tspan class="cls-40" x="142.33" y="38.4">a</tspan><tspan class="cls-50" x="151.02" y="38.4"> </tspan><tspan x="159.97" y="38.4">usted</tspan><tspan class="cls-51" x="204.39" y="38.4"> </tspan><tspan class="cls-52" x="212.69" y="38.4">y</tspan><tspan class="cls-48" x="220.85" y="38.4"> </tspan><tspan class="cls-40" x="229.8" y="38.4">a</tspan><tspan class="cls-53" x="238.49" y="38.4"> </tspan><tspan x="247.44" y="38.4">su</tspan><tspan class="cls-54" x="265.78" y="38.4"> </tspan><tspan x="274.73" y="38.4">médico</tspan><tspan class="cls-55" x="332.36" y="38.4"> </tspan><tspan class="cls-56" x="341.31" y="38.4">a</tspan><tspan x="350" y="38.4"> </tspan><tspan class="cls-47" x="0" y="57.6">r</tspan><tspan x="6.27" y="57.6">econoce</tspan><tspan class="cls-40" x="72.27" y="57.6">r</tspan><tspan class="cls-57" x="78.43" y="57.6"> </tspan><tspan class="cls-58" x="85.28" y="57.6">los</tspan><tspan class="cls-59" x="108.34" y="57.6"> </tspan><tspan x="115.19" y="57.6">sí</tspan><tspan class="cls-34" x="127.88" y="57.6">n</tspan><tspan class="cls-42" x="137.67" y="57.6">tomas</tspan><tspan class="cls-60" x="186.84" y="57.6"> </tspan><tspan x="193.69" y="57.6">de</tspan><tspan class="cls-57" x="213.07" y="57.6"> </tspan><tspan x="219.92" y="57.6">un</tspan><tspan class="cls-40" x="239.73" y="57.6">a</tspan><tspan class="cls-57" x="248.41" y="57.6"> </tspan><tspan x="255.27" y="57.6">e</tspan><tspan class="cls-61" x="264.56" y="57.6">n</tspan><tspan class="cls-62" x="274.35" y="57.6">f</tspan><tspan x="280.42" y="57.6">ermedad </tspan><tspan x="0" y="76.8">fúngic</tspan><tspan class="cls-40" x="48.16" y="76.8">a</tspan><tspan class="cls-63" x="56.85" y="76.8"> </tspan><tspan x="62.1" y="76.8">de</tspan><tspan class="cls-64" x="81.48" y="76.8"> </tspan><tspan x="86.73" y="76.8">mane</tspan><tspan class="cls-35" x="130.24" y="76.8">r</tspan><tspan class="cls-65" x="136.54" y="76.8">a</tspan><tspan class="cls-66" x="145.23" y="76.8"> </tspan><tspan x="150.18" y="76.8">temp</tspan><tspan class="cls-62" x="191.5" y="76.8">r</tspan><tspan class="cls-42" x="197.81" y="76.8">an</tspan><tspan class="cls-56" x="216.77" y="76.8">a</tspan><tspan class="cls-67" x="225.46" y="76.8"> </tspan><tspan class="cls-68" x="230.32" y="76.8">y</tspan><tspan class="cls-64" x="238.48" y="76.8"> </tspan><tspan x="243.74" y="76.8">puede</tspan><tspan class="cls-69" x="292.4" y="76.8"> </tspan><tspan class="cls-49" x="297.65" y="76.8">a</tspan><tspan x="306.24" y="76.8">yuda</tspan><tspan class="cls-40" x="343.84" y="76.8">r</tspan><tspan x="350" y="76.8"> </tspan><tspan class="cls-40" x="0" y="96">a</tspan><tspan x="8.69" y="96" xml:space="preserve"> p</tspan><tspan class="cls-70" x="24.22" y="96">r</tspan><tspan class="cls-35" x="30.5" y="96">e</tspan><tspan x="39.57" y="96">veni</tspan><tspan class="cls-40" x="71.34" y="96">r</tspan><tspan x="77.5" y="96" xml:space="preserve"> complicaciones g</tspan><tspan class="cls-39" x="219.15" y="96">r</tspan><tspan class="cls-71" x="225.45" y="96">a</tspan><tspan class="cls-42" x="234.24" y="96">ves.</tspan></text><path class="cls-14" d="M325.3,376a49.49,49.49,0,0,0,2.83-8.71c.74-3,1.27-6.1,2.13-9.15a55.5,55.5,0,0,1,3.09-9.05,24.51,24.51,0,0,1,5.48-7.88.48.48,0,0,1,.68,0l0,0a.52.52,0,0,1,0,.68,23.48,23.48,0,0,0-4.7,7.8,53.88,53.88,0,0,0-2.4,8.92c-.56,3.06-1.21,6.13-1.92,9.22a51,51,0,0,1-2.94,9.17,1.24,1.24,0,0,1-2.27-1Z"/><path class="cls-72" d="M330.31,378.35c-3,12.12-12.31-2.42-11.23,25.76"/><path class="cls-14" d="M331.9,388.17a13.17,13.17,0,0,0-2.56,3.87,9.32,9.32,0,0,0-.82,4.48,3.69,3.69,0,0,0,.77,2,3.09,3.09,0,0,0,1.81,1.08,9.09,9.09,0,0,0,4.53-.47h0a.38.38,0,0,1,.22.72h0a10.17,10.17,0,0,1-4.92.47A4,4,0,0,1,328.7,399a4.54,4.54,0,0,1-1-2.4,10.41,10.41,0,0,1,.82-4.87,18.09,18.09,0,0,1,2.46-4.29.57.57,0,0,1,.8-.11h0a.56.56,0,0,1,.11.78h0Z"/><path class="cls-14" d="M353,396.86l-7.67,7.2h0a.27.27,0,0,1-.37,0,.26.26,0,0,1,0-.37l7.52-7.4a.37.37,0,0,1,.53.05.39.39,0,0,1,0,.49h0Z"/><path class="cls-14" d="M345,388a19.92,19.92,0,0,1-3.14,4.67c-1.21,1.41-2.47,2.74-3.57,4.19a.25.25,0,0,1-.35.06.25.25,0,0,1-.06-.35h0c1.05-1.54,2.26-2.94,3.38-4.39a19.14,19.14,0,0,0,2.78-4.58.51.51,0,0,1,.67-.3.53.53,0,0,1,.3.67Z"/><path class="cls-4" d="M323.75,375.74c3.48-1.07,8.84,1.39,5.73,5.32C327.75,379.46,322.17,378.89,323.75,375.74Z"/><path class="cls-11" d="M156.26,370.61c3.5,3.47,7.77,6.62,12.77,7.35s9.69-1.42,13.47-4.69c1.1-.95-.5-2.53-1.59-1.59-3.34,2.89-7.51,4.82-12,4s-8-3.61-11.06-6.66a1.13,1.13,0,0,0-1.59,1.6h0Z"/><path class="cls-4" d="M96.22,631.77a4.31,4.31,0,0,1-1.2-.26l-.31-.09a3.08,3.08,0,0,1-1-.54,50.13,50.13,0,0,1-11-10.33,19.55,19.55,0,0,1-1.85-3.29,7.43,7.43,0,0,1-.22-4.17,4.06,4.06,0,0,1,3.06-2.44,5.74,5.74,0,0,1,4.57-9.29,6.7,6.7,0,0,1,.91-7,5.52,5.52,0,0,1,4.08-1.76,5.14,5.14,0,0,1,2,.38,3.64,3.64,0,0,1,0-1.14,5.55,5.55,0,0,1,1.33-2.62,5.28,5.28,0,0,1,2.29-1.66,7.51,7.51,0,0,1,2.31-.27h.35a8.35,8.35,0,0,1,2.38.26,9.16,9.16,0,0,1,3.19,2c4.07,3.37,12.08,10.52,13.25,13.44a5.88,5.88,0,0,1,.38,2.69v.16a4.27,4.27,0,0,1-.93,2.13,10.09,10.09,0,0,1-2.37,2.56,4.51,4.51,0,0,1-2.54.84h0a4.92,4.92,0,0,1-1.59,4.93,11.58,11.58,0,0,1-5,2.26,7.28,7.28,0,0,1-.72,4.72A5.32,5.32,0,0,1,103,626a1,1,0,0,0-.36,0,1,1,0,0,0-.17.31c-.15.36-.24.64-.32.88a5.09,5.09,0,0,1-.88,1.72,9.26,9.26,0,0,1-2,1.85,2.75,2.75,0,0,0-.37.28,2.21,2.21,0,0,1-1,.6,5.21,5.21,0,0,1-.72.05H97a3.3,3.3,0,0,0-.58,0Z"/><path class="cls-14" d="M101.52,587.76a8,8,0,0,1,2.23.24,9,9,0,0,1,3,1.87c4.91,4.07,12.06,10.65,13.1,13.23a5.56,5.56,0,0,1,.33,2.65,3.71,3.71,0,0,1-.84,1.86,9.53,9.53,0,0,1-2.25,2.44,4,4,0,0,1-2.25.75,2.83,2.83,0,0,1-.91-.14c1.11,1.58.39,3.91-1,5.19a12,12,0,0,1-5.27,2.27,6.92,6.92,0,0,1-.58,4.84,4.83,4.83,0,0,1-4,2.54,1.14,1.14,0,0,0-.61.1,1.06,1.06,0,0,0-.37.55,8.12,8.12,0,0,1-1.14,2.48,8.78,8.78,0,0,1-1.79,1.71c-.33.16-.84.78-1.21.83a4.25,4.25,0,0,1-.65.05H97a4.07,4.07,0,0,0-.65,0h-.11a6.88,6.88,0,0,1-1.39-.33,3.25,3.25,0,0,1-.86-.46,50.46,50.46,0,0,1-10.89-10.24,19.11,19.11,0,0,1-1.77-3.15,7,7,0,0,1-.22-3.82c.54-1.45,2-2.09,3.56-2.29a5.25,5.25,0,0,1,3.62-9.12,4.57,4.57,0,0,1,.83.07,6.33,6.33,0,0,1,.43-7.27,5,5,0,0,1,3.71-1.59,4.27,4.27,0,0,1,3.09,1.21l.1.11-.1-.11a2.91,2.91,0,0,1-.6-2.39,4.93,4.93,0,0,1,1.21-2.37A4.86,4.86,0,0,1,99,588a7.1,7.1,0,0,1,2.16-.24h.35m0-1h-.36a7.77,7.77,0,0,0-2.47.3,5.76,5.76,0,0,0-2.51,1.81,5.9,5.9,0,0,0-1.44,2.85,3.17,3.17,0,0,0,0,.53,5.76,5.76,0,0,0-1.45-.18A6,6,0,0,0,88.78,594a7.13,7.13,0,0,0-1.24,6.9,6.45,6.45,0,0,0-5,3.45,6.39,6.39,0,0,0,.3,6,4.33,4.33,0,0,0-2.73,2.54,7.84,7.84,0,0,0,.21,4.51,19.33,19.33,0,0,0,1.94,3.44,51.22,51.22,0,0,0,11.08,10.42,3.53,3.53,0,0,0,1.19.61l.29.09a4.78,4.78,0,0,0,1.35.28l.26,0a3,3,0,0,1,.5,0h.27a5.45,5.45,0,0,0,.8-.06,2.53,2.53,0,0,0,1.24-.71,3.24,3.24,0,0,1,.28-.22,9.63,9.63,0,0,0,2.12-2,5.31,5.31,0,0,0,1-1.86c.08-.25.17-.51.31-.85v0H103a5.82,5.82,0,0,0,4.89-3,7.69,7.69,0,0,0,.85-4.59,11.49,11.49,0,0,0,4.8-2.26,5.6,5.6,0,0,0,1.87-4.84,5.24,5.24,0,0,0,2.24-.88,10.53,10.53,0,0,0,2.49-2.69,4.55,4.55,0,0,0,1-2.39v-.16a6.18,6.18,0,0,0-.41-2.91c-1.5-3.77-12.9-13.23-13.39-13.63A9.61,9.61,0,0,0,104,587a8.74,8.74,0,0,0-2.51-.28Z"/><path class="cls-14" d="M89.1,614.73c.26,0,.31.2.46.3l.38.38.79.73q.8.72,1.62,1.41c1.09.92,2.22,1.81,3.35,2.68,2.29,1.73,4.61,3.42,6.89,5.22a1,1,0,0,1-1.24,1.57l-.06,0c-2.09-2-4.26-3.85-6.36-5.83-1.05-1-2.09-2-3.1-3-.5-.52-1-1.05-1.48-1.58l-.72-.82-.34-.41c-.1-.16-.29-.23-.27-.49A.08.08,0,0,1,89.1,614.73Z"/><path class="cls-14" d="M95.66,606.32c4.46,3.72,8.65,7.74,13.15,11.28a1,1,0,0,1-1.23,1.57l-.06,0c-4.33-3.93-8.21-8.23-12.36-12.24a.37.37,0,0,1,0-.53A.38.38,0,0,1,95.66,606.32Z"/><path class="cls-14" d="M102.55,599.56c2.19,1.77,4.39,3.52,6.52,5.38s4.1,3.9,6.27,5.69a1,1,0,0,1,.14,1.42,1,1,0,0,1-1.41.14l-.16-.16h0a68.37,68.37,0,0,0-5.61-6.26c-2-2-4-3.87-6.16-5.71a.32.32,0,0,1,.41-.49Z"/></g></g></svg>