<svg xmlns="http://www.w3.org/2000/svg" viewBox="0 0 834 662"><defs><style>.cls-1{isolation:isolate;}.cls-2{fill:#603813;}.cls-3{fill:#34220e;}.cls-4{fill:#edc4a6;}.cls-5{fill:#fbf1e1;}.cls-6{fill:#fafef8;}.cls-7{fill:#473117;}.cls-8{fill:#074959;}.cls-9{fill:#efb88f;}.cls-10{fill:#cba284;}.cls-11{fill:#cb9775;}.cls-12{fill:#602e03;}.cls-13,.cls-24,.cls-25,.cls-32{fill:none;}.cls-13,.cls-32{stroke:#e5b897;}.cls-13,.cls-25,.cls-32{stroke-linecap:round;}.cls-13,.cls-24,.cls-32{stroke-miterlimit:10;}.cls-13{stroke-width:0.75px;}.cls-14{fill:#e5b897;}.cls-15{fill:#211b1b;}.cls-16{opacity:0.07;}.cls-17{fill:#bdd0e7;}.cls-18{fill:#f4f5f4;}.cls-19{fill:#f7f8fa;}.cls-20,.cls-23{fill:#e3e3e3;}.cls-21{fill:#c8c8c8;}.cls-22{opacity:0.05;}.cls-23{opacity:0.42;}.cls-24{stroke:#c8c8c8;stroke-width:2px;}.cls-25{stroke:#000;stroke-linejoin:round;stroke-width:3px;}.cls-26{fill:#050303;}.cls-27{fill:#fff;}.cls-28{fill:#e6e6e6;mix-blend-mode:multiply;}.cls-29{fill:#d63384;}.cls-30{fill:#f9f9f9;}.cls-31{fill:#f8f7f9;}</style></defs><g class="cls-1"><g id="Dra_video" data-name="Dra video"><path class="cls-2" d="M111.17,261.45C90.77,292.93,88.62,344.76,116.9,372c15.32,13.23,37.19,15.14,57.43,15.08,32.82,2.28,53.84-13.68,64.56-44.38,17.19-34.44-4.19-72.73-27.44-98.61C180.39,225.8,132.87,230.7,111.17,261.45Z"/><path class="cls-3" d="M130.87,295.31a37,37,0,0,0-13.39,22.37c-15.07,53.26,40.22,81.81,77.87,63.72,28-9,34.74-72.22.06-87.1C184.21,288.12,162.18,272.42,130.87,295.31Z"/><path class="cls-4" d="M137.88,275c-6.85,9.83-8.78,22.19-10.27,34.09-2.62,15.07-1.84,31.38,8.75,43.37,5.89,8.68,14.69,14,23.23,19.71,6.46,5.1,14.43,5.64,21.13.71,18.46-9.19,26.08-27.42,31-46.76A41.47,41.47,0,0,0,202,282.3c-8.59-8.42-35.65-29.13-47.34-21.59C148.38,265,142.3,268.64,137.88,275Z"/><path class="cls-4" d="M122.5,301.05c-5.19,1.56-5.79,9.23-1.33,12.07a42.78,42.78,0,0,1,5.78,3.63c1.91-3.36,2.5-10.08,2.38-14.08C128.82,299.37,125.56,300.14,122.5,301.05Z"/><path class="cls-4" d="M216.89,300.25c6.06,3.92,5.22,12.3-.5,16.09-1.23,1.52-2.21,3.79-4.16,3.77V309.44C211.32,304.16,208.93,299.17,216.89,300.25Z"/><path class="cls-5" d="M122.86,314.25c-3.73,1.54-1.82,9.26,2.43,8.43C128.44,322.71,130.7,310.71,122.86,314.25Z"/><path class="cls-6" d="M212,311.74c-1.28.71-1.11,11.2,1.94,8.61C218.83,318.94,218,310,212,311.74Z"/><path class="cls-7" d="M154.76,284.74c-5,.56-13.35,5.49-12.88,10.92,3.52-6.2,11.62-8,18.24-8.72C163.09,283.48,156.7,284.36,154.76,284.74Z"/><path class="cls-7" d="M187.64,284.72c5,.55,13.35,5.47,12.88,10.91-3.51-6.2-11.62-8-18.24-8.7C179.32,283.47,185.7,284.34,187.64,284.72Z"/><path class="cls-8" d="M150.56,299c-2.72,3.8-1,11.28,4.65,10.33C161.51,307.07,157.09,292.58,150.56,299Z"/><path class="cls-8" d="M186.56,298.94c-1.69,2.38-1.81,6.75.44,8.81C197.15,314.6,195.85,291.23,186.56,298.94Z"/><path class="cls-9" d="M207.31,321.89c.14,5.83-13.15,5.84-13,0C194.16,316.07,207.46,316.06,207.31,321.89Z"/><path class="cls-9" d="M145.31,321.93c.14,5.83-13.15,5.84-13,0C132.16,316.11,145.46,316.1,145.31,321.93Z"/><path class="cls-10" d="M165.77,326.87a5.8,5.8,0,0,0,5.23,3.55,7.76,7.76,0,0,0,5.84-2.65,1.13,1.13,0,0,0-1.37-1.76c-.24.11.24-.07,0,0l-.21.07-.46.13a5.05,5.05,0,0,1-.56.12h-.35q-1.21.14-2.46.15c-1.21,0-2.41-.06-3.61-.07a1.13,1.13,0,0,0,0,2.25c1.28,0,2.56.09,3.85.07a12.35,12.35,0,0,0,5-.86l-1.36-1.77c-.15.17-.31.33-.47.49l-.25.22-.17.14h0a7.9,7.9,0,0,1-1.12.67l-.15.07h0l-.36.13a3.91,3.91,0,0,1-.61.17l-.31.07c-.24.05.15,0-.12,0h-.62a3.43,3.43,0,0,1-1.94-.54l-.25-.17c.17.13-.07-.06-.1-.09a4.89,4.89,0,0,1-.45-.46h0l-.1-.14-.19-.3c-.13-.23-.24-.47-.35-.71a1.13,1.13,0,0,0-1.54-.4,1.16,1.16,0,0,0-.4,1.54Z"/><path class="cls-11" d="M174,353.59a11.58,11.58,0,0,1-2.3,1.42,4.55,4.55,0,0,1-1.67.32h-.48l-.27-.06a6,6,0,0,1-1-.3,21.73,21.73,0,0,1-2.3-1.06l-.57,2.1,7.45.32a1.13,1.13,0,0,0,.21-2.25h-.21l-7.45-.32a1.14,1.14,0,0,0-1.09,1.19,1.13,1.13,0,0,0,.52.91,12.59,12.59,0,0,0,5.24,1.76,8.66,8.66,0,0,0,5.13-2,1.12,1.12,0,1,0-1.13-1.94h0Z"/><path class="cls-12" d="M179.32,348.25c.15,14.08-15.31,14.09-15.18,0C164,334.19,179.45,334.18,179.32,348.25Z"/><path class="cls-2" d="M168.57,268.61c13.91,6,30.68,10,40.48,22.37,2,3.21,1.89,8.42,5.44,10.2,14.72-9.87,4-29.84-10.76-33.2-13-6.66-27.36-13-42.06-13.39C152.06,256.64,165.54,267.15,168.57,268.61Z"/><path class="cls-2" d="M129,293.87a33.51,33.51,0,0,1,9.83-11.74c7.58-7,11.36-18.09,20.56-22.76-2.07-5.67-13.27-1.41-17,1C137.51,265.44,127.8,287.14,129,293.87Z"/><path class="cls-4" d="M312.12,424.44c-6.19-15.75-5.25-31.36.21-47.34,2.4-3.22,9.88.37,13.21-1.87,5-8.21,6.14-19.07,10.06-28,.81-4,6.17-9.17,9.26-4.52-.67,12.09-5.07,24.53-9.52,35.82,7.7-10.49,19-2.86,10.66,7.71,9.63-5.81,14.35,2.06,7.41,9.51,7-2.64,12.38,1.81,8.42,8.68-.64,1.44-3.28,2.26-3.36,3.84-.25,5.09.24,3.15-4.38,13.33-9.35,11.68-10.5,7.68-15.2,24.86-1.34,3.44-.69,7.56-2,11-.57,1.06-29.82-8.54-29.82-8.54C308.12,443.08,312.55,431.07,312.12,424.44Z"/><path class="cls-13" d="M336,399.5c-1.78,4.31,3.84,9.6,7.66,6.37"/><path class="cls-13" d="M344.05,405.51c-1.45,4,.93,8.95,5.63,6.76"/><path class="cls-14" d="M359.46,407.72a26.78,26.78,0,0,1-1.52,8.36,21.09,21.09,0,0,1-4.65,7.2c-2,2.07-4.15,3.84-6.08,5.76a23,23,0,0,0-4.77,6.39,1.13,1.13,0,0,1-1.5.5,1.11,1.11,0,0,1-.5-1.5h0a25.17,25.17,0,0,1,5.44-6.75c2.1-1.92,4.32-3.59,6.26-5.49a19.77,19.77,0,0,0,4.61-6.55,26.12,26.12,0,0,0,1.76-7.94h0a.48.48,0,0,1,.95,0Z"/><path class="cls-15" d="M187,577.68a1.68,1.68,0,0,1,2,2.16c-2.1,23.86-1.64,47.87-1.17,71.82q-19.2.6-38.41.16c0-20.75-.1-41.51.14-62.26.09-8.31.86-11.72,9.42-11.83C168.31,577.61,177.66,577.69,187,577.68Z"/><polygon class="cls-16" points="228.33 459.97 227.34 473.97 236.25 492.81 228.33 459.97"/><path class="cls-17" d="M197,431c-3.19,49.86-18.18,100.07-20.34,150-6.09.4-12.63-.34-16.86-.11-.39-25.79-2.26-51.08-2.75-76.86-1-24.93-15.06-52.12-15-77C152.67,429.18,186.09,431.93,197,431Z"/><path class="cls-18" d="M341.26,456.8c-4,32.09-23.84,60.73-31.32,92.43A19.82,19.82,0,0,1,277.69,557C259.74,538.21,249,513.28,234.14,492c5.87,19-27.67,60.18-32.84,84.4-4,7.3,5,9.59,9.11,13.56,14,17.51,29,38.43,30,61-16.62,5.39-42,.22-59.32,1C168.74,579.26,180,512,180,512l17-78s2.8-8.33,1-16c-1.91-8.15-17.89-17.36-14-20,3.42-2.32,16,5,16,5s5.86,3.39,8.24,12c3,4.9,9.6,6.62,15.35,6.71C245.25,420.66,274.78,477,284.9,495a383.72,383.72,0,0,0,19.46-53.29l33.39,10.67C340,452.88,341.78,454.42,341.26,456.8Z"/><path class="cls-19" d="M161.15,644.18c-.32,2.88-1,7.83-1,7.83s-17,0-22.92-.72c-2.47-.3-37.15-2.26-44.44-1.34a293.76,293.76,0,0,1,19-48.62c6.35-13.09,19.4-17.45,12.63-33.3-3-10-3.94-17.12-8-27-1.51-3.75-1.56-12.61-5.09-15.11-12.59-11.7-9.45-25.68-11-41.88-41.13,68.26-69.06,41.61,3,101.37,12.23,8.34-14.41,8.8-20,36.64-25.73-19.09-53-38.69-69.25-67-16.92-25.69,29.4-58.52,42-79.58,8-10.83,14.74-22.6,23-33.23s18.5-20.28,31.14-25c6.87-2.54,14.73-3.81,19.69-9.2C137.29,397.19,154,397,154,397a78.42,78.42,0,0,1-8,10c-1.27,1.27-7.88,4.35-8,7-.27,6.17,7,28,7,28s17.67,50.94,15.05,84C158.31,563.48,160.94,606.83,161.15,644.18Z"/><path class="cls-20" d="M143.77,489.55c3.37,16.16-20,21.15-23.51,5C116.89,478.42,140.24,473.43,143.77,489.55Z"/><path class="cls-21" d="M120,493.4c-3-12.92,16.21-17,18.8-4C141.76,502.31,122.61,506.41,120,493.4Z"/><polygon class="cls-21" points="124.59 473.6 126.02 472.03 128.7 481.33 126.35 481.83 124.59 473.6"/><path class="cls-16" d="M104.33,464.05l-18,40C95.3,488.57,104.21,487.6,104.33,464.05Z"/><path class="cls-22" d="M115,538c3.57,6.38,7.65,24.6,12.36,40.86,22.25,5.49,46.71,5.77,69.36,2.18,2.45-.58,4.22-1,4.06-4,4.05-17,18.24-38,22.3-48-8.76,0-16.62,1-25.38,1-8.71-.65-18.49-3-27.19-3.2-19,1.29-40.32,8.81-58.12-.75C112.76,527,112.69,532.46,115,538Z"/><path class="cls-23" d="M129,413s-8,16-15,24l18,2-13,11,15,21s16,16,20,29l6,16s-1-28-14.05-70c-7.59-24.46-7.65-33.55-4-37a35.48,35.48,0,0,1,7-5l3-4S136,400,129,413Z"/><path class="cls-23" d="M211.41,412.06s7.85,16.07,14.78,24.14l-18,1.83,12.9,11.12L205.87,470s-16.14,15.85-20.26,28.81l-6.15,15.95s1.26-28,14.65-69.87c7.79-24.39,7.94-33.49,4.34-37a36.25,36.25,0,0,0-7-5.07l-3-4S204.53,399,211.41,412.06Z"/><path d="M125.68,477.84a2.29,2.29,0,0,1-1-1.36l-.49-1.52c-.32-1-.62-2-.91-3-.59-2-1.12-4.08-1.6-6.14a118.91,118.91,0,0,1-2.28-12.47c-1-8.38-1.22-17,.63-25.41a39,39,0,0,1,4.72-12,30,30,0,0,1,9-9.36,26.94,26.94,0,0,1,5.92-2.82,58.29,58.29,0,0,1,6.16-1.76,98.78,98.78,0,0,1,12.54-2,122.26,122.26,0,0,1,25.3.16,86.59,86.59,0,0,1,12.51,2.33,49,49,0,0,1,11.92,4.81,28.09,28.09,0,0,1,5.25,3.95,21.74,21.74,0,0,1,2.2,2.5l.95,1.33.88,1.37a47,47,0,0,1,5,11.86,99.28,99.28,0,0,1,2.52,12.46,28,28,0,0,1,.35,6.57c-.09,1.08-.2,2.07-.24,3.08s-.05,2,0,3v0a1.5,1.5,0,1,1-3,0v0c0-1.07,0-2.15.1-3.23s.2-2.17.3-3.16a24.85,24.85,0,0,0-.22-5.94A89.54,89.54,0,0,0,219.81,429a44.34,44.34,0,0,0-4.66-11.2l-.81-1.27-.87-1.23a18.31,18.31,0,0,0-1.93-2.2,25,25,0,0,0-4.74-3.58A45.72,45.72,0,0,0,195.53,405a82.52,82.52,0,0,0-12.12-2.3,120.72,120.72,0,0,0-24.78-.22,94.53,94.53,0,0,0-12.23,1.89,56,56,0,0,0-5.9,1.66,24.71,24.71,0,0,0-5.39,2.54,27.62,27.62,0,0,0-8.19,8.65,36.48,36.48,0,0,0-4.34,11.27c-1.72,8-1.49,16.34-.42,24.5q.82,6.15,2.23,12.2c.47,2,1,4,1.56,6,.28,1,.57,2,.88,3l.47,1.47a2.24,2.24,0,0,1,.06,1.6l0,.06a1.11,1.11,0,0,1-1.41.68A1.15,1.15,0,0,1,125.68,477.84Z"/><path class="cls-24" d="M203,471.21l5.73,51.62s1.69,13.51,11.48,16.3"/><path class="cls-24" d="M236.36,477.93l-24.75,47.42s-6.66,12.34-17,11.64"/><path class="cls-25" d="M203,474.58s0-27.37,20.84-20.87c-.05-.09,17.36-1.16,11.75,24.76"/><path class="cls-26" d="M191.1,535.72c-1.89-.27-5.1.1-4.84,2.62,1.71,3.17,7.84,2.41,10.4.52,1-.71.29-3.07-.67-3.4C194.44,535.42,192.7,535.94,191.1,535.72Z"/><path class="cls-26" d="M217.78,540.52c1.53,2.89,7,6,9.74,3.28,1.3-4.06-4.67-4-6.91-5.85A1.92,1.92,0,0,0,217.78,540.52Z"/><path class="cls-27" d="M129,410s-7,18-14,26l16,1.42L119,449l15,19s16,16,20,29l6,16s-1-28-14-70c-7.59-24.46-4.65-31.56-1-35a35.48,35.48,0,0,1,7-5l2-6S136,397,129,410Z"/><path class="cls-27" d="M211.44,409.06s6.83,18.06,13.76,26.13l-16,1.28,11.9,11.68L205.9,467s-16.15,15.85-20.27,28.81l-6.14,15.95s1.26-28,14.64-69.87C201.93,417.51,196,414,193,410a56.41,56.41,0,0,1-5-8l-3-6S204.56,396,211.44,409.06Z"/><path class="cls-4" d="M194,410c7,9,3.77,13.91,3,22-10.91.86-55-3-55-3s-2.29-7.71-1-14a25.06,25.06,0,0,1,3-6.36,6.76,6.76,0,0,1,2.91-2.67c.2-.09.28-.11.12,0,18-15,1.55-42.36,11.4-41.84,3.43-.17,21.27-.24,24.89-.13C182.19,379.65,183.17,397.59,194,410Z"/><path class="cls-28" d="M701.3,291.69H344.69l-39.18,24.55V130.93c0-5.67,7.09-10.26,15.84-10.26H701.3c8.75,0,15.85,4.59,15.85,10.26v150.5C717.15,287.1,710.05,291.69,701.3,291.69Z"/><path class="cls-29" d="M687,280.25H330.42l-39.17,24.56V119.49c0-5.66,7.09-10.26,15.84-10.26H687c8.75,0,15.85,4.6,15.85,10.26V270C702.89,275.66,695.79,280.25,687,280.25Z"/><rect class="cls-28" x="319.27" y="103.75" width="420.73" height="172.56" rx="15.37"/><rect class="cls-27" x="313.35" y="98" width="420.73" height="172.56" rx="15.37"/><path class="cls-29" d="M736.72,305a3.63,3.63,0,1,1-5.11-.45A3.63,3.63,0,0,1,736.72,305Z"/><path class="cls-27" d="M751.56,290.74a3.63,3.63,0,1,1-5.11-.45A3.63,3.63,0,0,1,751.56,290.74Z"/><circle class="cls-29" cx="725.2" cy="278.57" r="7.26" transform="translate(382.21 975.62) rotate(-84.81)"/><circle class="cls-29" cx="724.18" cy="242.52" r="17.6" transform="translate(-7.07 22.24) rotate(-1.75)"/><circle class="cls-30" cx="698.73" cy="291.58" r="17.75" transform="translate(331.34 953.6) rotate(-83.62)"/><ellipse class="cls-29" cx="314.22" cy="90.1" rx="28.82" ry="29.35" transform="translate(-2.95 169.2) rotate(-30)"/><circle class="cls-28" cx="271.26" cy="116.35" r="33.49"/><path class="cls-29" d="M282.4,61a7.31,7.31,0,1,1-10-2.67A7.31,7.31,0,0,1,282.4,61Z"/><path class="cls-29" d="M257.34,66.63a3.65,3.65,0,1,1-5-1.34A3.65,3.65,0,0,1,257.34,66.63Z"/><path class="cls-27" d="M284.61,105.29a3.65,3.65,0,1,1-5-1.34A3.65,3.65,0,0,1,284.61,105.29Z"/><circle class="cls-31" cx="266.78" cy="111.43" r="33.49"/><path d="M356.06,134.48v1.2h-7.33V125.12H350v9.36Z"/><path d="M365.26,134.67l-.08,1a2.88,2.88,0,0,1-1,.16,1.26,1.26,0,0,1-1.44-1.18,3.15,3.15,0,0,1-2.58,1.18c-1.5,0-2.72-.7-2.72-2.14,0-1.2,1.06-2.15,3.12-2.5l2.13-.35v-.45a1.68,1.68,0,0,0-1.87-1.76,2.34,2.34,0,0,0-2.29,1.52l-.95-.69a3.28,3.28,0,0,1,3.24-2c1.82,0,3.15.86,3.15,2.72v3.94c0,.38.16.57.61.57A2.67,2.67,0,0,0,365.26,134.67ZM362.73,133v-1.1l-1.79.33c-1.41.26-2.13.72-2.13,1.48s.54,1,1.46,1C361.55,134.72,362.73,134.05,362.73,133Z"/><path d="M366.39,134l1-.72a2.51,2.51,0,0,0,2.53,1.41c1.31,0,1.94-.53,1.94-1.18s-.5-.95-2.1-1.24c-2.27-.41-3.1-1-3.1-2.38s1.2-2.4,3.15-2.4c1.71,0,2.72.6,3.17,1.92l-1.09.64a1.94,1.94,0,0,0-2.08-1.44c-1.07,0-1.87.57-1.87,1.17s.53,1,2.16,1.31c2.24.37,3,1,3,2.35s-1.3,2.37-3.35,2.37A3.66,3.66,0,0,1,366.39,134Z"/><path d="M386.86,132.16h-6a2.53,2.53,0,0,0,2.61,2.56,2.18,2.18,0,0,0,2.26-1.18l1.07.56a3.44,3.44,0,0,1-3.33,1.74c-2.41,0-3.87-1.57-3.87-4.16s1.36-4.16,3.78-4.16a3.46,3.46,0,0,1,3.58,3.74A6.83,6.83,0,0,1,386.86,132.16Zm-6-1.14h4.85c-.18-1.47-1-2.38-2.35-2.38A2.41,2.41,0,0,0,380.84,131Z"/><path d="M396.36,130.56v5.12h-1.28V131c0-1.78-.86-2.37-2-2.37a2.46,2.46,0,0,0-2.48,2.78v4.26h-1.28v-8h1.12l.08,1.24a2.91,2.91,0,0,1,2.69-1.4A2.86,2.86,0,0,1,396.36,130.56Z"/><path d="M401.05,127.68h2.67v1.1h-2.67v6.9h-1.28v-6.9h-1.6v-1.1h1.6v-1.35a2.3,2.3,0,0,1,2.62-2.41,2.2,2.2,0,0,1,1.36.36l-.33,1a1.67,1.67,0,0,0-.91-.24c-.93,0-1.46.42-1.46,1.38Z"/><path d="M412,132.16h-6a2.53,2.53,0,0,0,2.6,2.56,2.18,2.18,0,0,0,2.26-1.18l1.07.56a3.43,3.43,0,0,1-3.33,1.74c-2.41,0-3.87-1.57-3.87-4.16s1.36-4.16,3.78-4.16a3.46,3.46,0,0,1,3.58,3.74A6.83,6.83,0,0,1,412,132.16ZM406,131h4.85c-.17-1.47-1-2.38-2.35-2.38A2.41,2.41,0,0,0,406,131Z"/><path d="M419.16,127.68l-.25,1.24a2.24,2.24,0,0,0-3.13,2.44v4.32H414.5v-8h1l.18,1.31a2.56,2.56,0,0,1,2.56-1.47A2,2,0,0,1,419.16,127.68Z"/><path d="M433.39,130.56v5.12h-1.28v-5a1.79,1.79,0,0,0-1.89-2.05,2.41,2.41,0,0,0-2.37,2.65v4.39h-1.28v-5a1.79,1.79,0,0,0-1.89-2.05,2.46,2.46,0,0,0-2.37,2.77v4.27H421v-8h1.12l.08,1.24a2.9,2.9,0,0,1,2.56-1.4,3,3,0,0,1,2.76,1.56,3.06,3.06,0,0,1,2.78-1.56A2.88,2.88,0,0,1,433.39,130.56Z"/><path d="M443.08,132.16h-6a2.53,2.53,0,0,0,2.61,2.56c1.17,0,2-.42,2.25-1.18l1.08.56a3.44,3.44,0,0,1-3.33,1.74c-2.42,0-3.88-1.57-3.88-4.16s1.36-4.16,3.78-4.16a3.47,3.47,0,0,1,3.59,3.74A6.58,6.58,0,0,1,443.08,132.16Zm-6-1.14h4.85c-.17-1.47-1-2.38-2.35-2.38A2.42,2.42,0,0,0,437.06,131Z"/><path d="M452.68,124v11.68h-1.12l-.08-1.39a3,3,0,0,1-2.74,1.55c-2.22,0-3.65-1.55-3.65-4.16s1.43-4.16,3.65-4.16a3,3,0,0,1,2.66,1.4V124Zm-1.28,7.77v-.19c0-1.81-1-2.94-2.51-2.94s-2.51,1.18-2.51,3,.94,3,2.51,3S451.4,133.58,451.4,131.77Z"/><path d="M462.86,134.67l-.08,1a2.93,2.93,0,0,1-1,.16,1.26,1.26,0,0,1-1.44-1.18,3.18,3.18,0,0,1-2.58,1.18c-1.5,0-2.72-.7-2.72-2.14,0-1.2,1.06-2.15,3.12-2.5l2.13-.35v-.45a1.68,1.68,0,0,0-1.87-1.76,2.34,2.34,0,0,0-2.29,1.52l-.95-.69a3.27,3.27,0,0,1,3.24-2c1.82,0,3.15.86,3.15,2.72v3.94c0,.38.16.57.61.57A2.67,2.67,0,0,0,462.86,134.67ZM460.33,133v-1.1l-1.79.33c-1.41.26-2.13.72-2.13,1.48s.54,1,1.45,1C459.14,134.72,460.33,134.05,460.33,133Z"/><path d="M471.82,124v11.68H470.7l-.08-1.39a3,3,0,0,1-2.74,1.55c-2.22,0-3.65-1.55-3.65-4.16s1.43-4.16,3.65-4.16a3,3,0,0,1,2.66,1.4V124Zm-1.28,7.77v-.19c0-1.81-1-2.94-2.52-2.94s-2.51,1.18-2.51,3,.95,3,2.51,3S470.54,133.58,470.54,131.77Z"/><path d="M481.59,132.16h-6a2.53,2.53,0,0,0,2.61,2.56,2.18,2.18,0,0,0,2.26-1.18l1.07.56a3.44,3.44,0,0,1-3.33,1.74c-2.42,0-3.88-1.57-3.88-4.16s1.37-4.16,3.78-4.16a3.47,3.47,0,0,1,3.59,3.74A5.29,5.29,0,0,1,481.59,132.16Zm-6-1.14h4.85c-.18-1.47-1-2.38-2.36-2.38A2.41,2.41,0,0,0,475.58,131Z"/><path d="M483.37,134l1-.72a2.49,2.49,0,0,0,2.53,1.41c1.31,0,1.93-.53,1.93-1.18s-.49-.95-2.09-1.24c-2.28-.41-3.11-1-3.11-2.38s1.2-2.4,3.15-2.4c1.72,0,2.72.6,3.17,1.92l-1.09.64a1.94,1.94,0,0,0-2.08-1.44c-1.07,0-1.87.57-1.87,1.17s.53,1,2.16,1.31c2.24.37,3,1,3,2.35s-1.29,2.37-3.34,2.37A3.65,3.65,0,0,1,483.37,134Z"/><path d="M498.68,127.68h2.68v1.1h-2.68v6.9H497.4v-6.9h-1.6v-1.1h1.6v-1.35a2.31,2.31,0,0,1,2.63-2.41,2.22,2.22,0,0,1,1.36.36l-.34,1a1.62,1.62,0,0,0-.91-.24c-.93,0-1.46.42-1.46,1.38Z"/><path d="M510,127.68v8h-1.12l-.08-1.22a3.08,3.08,0,0,1-2.87,1.38,2.68,2.68,0,0,1-2.94-2.93v-5.23h1.28v4.89c0,1.65.73,2.15,1.89,2.15a2.43,2.43,0,0,0,2.56-2.69v-4.35Zm-3.23-1.33h-1l1.22-2.68h1.39Z"/><path d="M520,130.56v5.12H518.7V131c0-1.78-.86-2.37-2-2.37a2.46,2.46,0,0,0-2.48,2.78v4.26H513v-8h1.12l.08,1.24a2.91,2.91,0,0,1,2.69-1.4A2.86,2.86,0,0,1,520,130.56Z"/><path d="M529.76,136.56c0,1.58-1.79,2.56-4,2.56-2.52,0-3.68-.91-3.68-2.11a1.66,1.66,0,0,1,1.41-1.55,1.66,1.66,0,0,1-1.09-1.48,1.57,1.57,0,0,1,1.2-1.56,2.51,2.51,0,0,1-1.16-2.2c0-1.58,1.36-2.7,3.28-2.7a4.05,4.05,0,0,1,1.63.32,2.09,2.09,0,0,1,2.26-1.64l.28,1.12c-1.07,0-1.68.31-1.9.89a2.45,2.45,0,0,1,1,2c0,1.59-1.36,2.71-3.28,2.71a4.63,4.63,0,0,1-1.24-.15c-.64.15-.89.47-.89,1s.43.87,1,.87h2.66C528.86,134.66,529.76,135.41,529.76,136.56Zm-1.19.14c0-.57-.38-.94-1.58-.94h-2.15c-1,0-1.53.38-1.53,1,0,.79.88,1.3,2.64,1.3S528.57,137.41,528.57,136.7Zm-4.77-6.48a2,2,0,1,0,2-1.66A1.77,1.77,0,0,0,523.8,130.22Z"/><path d="M531.34,125.18a1,1,0,1,1,1,1A.9.9,0,0,1,531.34,125.18Zm1.6,10.5h-1.28v-8h1.28Z"/><path d="M542.61,129.65l-1.22.57a2.07,2.07,0,0,0-2.13-1.58c-1.6,0-2.56,1.13-2.56,3s1,3,2.56,3a2,2,0,0,0,2.24-1.65l1.19.42a3.4,3.4,0,0,1-3.4,2.35c-2.41,0-3.87-1.57-3.87-4.16s1.46-4.16,3.87-4.16A3.4,3.4,0,0,1,542.61,129.65Z"/><path d="M552.14,134.67l-.08,1a2.88,2.88,0,0,1-1,.16,1.27,1.27,0,0,1-1.44-1.18,3.15,3.15,0,0,1-2.58,1.18c-1.5,0-2.72-.7-2.72-2.14,0-1.2,1.06-2.15,3.12-2.5l2.13-.35v-.45a1.68,1.68,0,0,0-1.87-1.76,2.34,2.34,0,0,0-2.29,1.52l-.94-.69a3.25,3.25,0,0,1,3.23-2c1.83,0,3.15.86,3.15,2.72v3.94c0,.38.16.57.61.57A2.67,2.67,0,0,0,552.14,134.67ZM549.61,133v-1.1l-1.79.33c-1.41.26-2.13.72-2.13,1.48s.55,1,1.46,1C548.43,134.72,549.61,134.05,549.61,133Z"/><path d="M553.28,134l1-.72a2.48,2.48,0,0,0,2.52,1.41c1.32,0,1.94-.53,1.94-1.18s-.49-.95-2.1-1.24c-2.27-.41-3.1-1-3.1-2.38s1.2-2.4,3.15-2.4c1.72,0,2.72.6,3.17,1.92l-1.09.64a1.94,1.94,0,0,0-2.08-1.44c-1.07,0-1.87.57-1.87,1.17s.53,1,2.16,1.31c2.24.37,3,1,3,2.35s-1.29,2.37-3.34,2.37A3.64,3.64,0,0,1,553.28,134Z"/><path d="M574.53,131.68c0,2.61-1.43,4.16-3.65,4.16a3,3,0,0,1-2.66-1.41V139h-1.28V127.68h1.12l.08,1.39a3,3,0,0,1,2.74-1.55C573.1,127.52,574.53,129.07,574.53,131.68Zm-1.28,0c0-1.86-1-3-2.52-3s-2.51,1.13-2.51,2.94v.19c0,1.81,1,2.95,2.51,2.95S573.25,133.54,573.25,131.68Z"/><path d="M584,127.68v8h-1.12l-.08-1.22a3.08,3.08,0,0,1-2.87,1.38,2.68,2.68,0,0,1-2.94-2.93v-5.23h1.28v4.89c0,1.65.74,2.15,1.89,2.15a2.43,2.43,0,0,0,2.56-2.69v-4.35Z"/><path d="M593.73,132.16h-6a2.53,2.53,0,0,0,2.61,2.56,2.18,2.18,0,0,0,2.26-1.18l1.07.56a3.44,3.44,0,0,1-3.33,1.74c-2.42,0-3.87-1.57-3.87-4.16s1.36-4.16,3.77-4.16a3.46,3.46,0,0,1,3.59,3.74A6.83,6.83,0,0,1,593.73,132.16Zm-6-1.14h4.85c-.18-1.47-1-2.38-2.36-2.38A2.41,2.41,0,0,0,587.71,131Z"/><path d="M603.33,124v11.68h-1.12l-.09-1.39a3,3,0,0,1-2.73,1.55c-2.23,0-3.65-1.55-3.65-4.16s1.42-4.16,3.65-4.16a3,3,0,0,1,2.66,1.4V124Zm-1.28,7.77v-.19c0-1.81-1-2.94-2.52-2.94s-2.51,1.18-2.51,3,.94,3,2.51,3S602.05,133.58,602.05,131.77Z"/><path d="M613.1,132.16h-6a2.53,2.53,0,0,0,2.61,2.56,2.17,2.17,0,0,0,2.25-1.18l1.08.56a3.44,3.44,0,0,1-3.33,1.74c-2.42,0-3.88-1.57-3.88-4.16s1.36-4.16,3.78-4.16a3.47,3.47,0,0,1,3.59,3.74A6.58,6.58,0,0,1,613.1,132.16Zm-6-1.14h4.85c-.17-1.47-1-2.38-2.35-2.38A2.42,2.42,0,0,0,607.08,131Z"/><path d="M622.61,130.56v5.12h-1.28V131c0-1.78-.87-2.37-2-2.37a2.46,2.46,0,0,0-2.48,2.78v4.26h-1.29v-8h1.13l.08,1.24a3.18,3.18,0,0,1,5.81,1.64Z"/><path d="M637.21,134.67l-.08,1a2.88,2.88,0,0,1-1,.16,1.27,1.27,0,0,1-1.44-1.18,3.14,3.14,0,0,1-2.57,1.18c-1.51,0-2.73-.7-2.73-2.14,0-1.2,1.06-2.15,3.13-2.5l2.12-.35v-.45a1.68,1.68,0,0,0-1.87-1.76,2.36,2.36,0,0,0-2.29,1.52l-.94-.69a3.26,3.26,0,0,1,3.23-2c1.83,0,3.16.86,3.16,2.72v3.94c0,.38.16.57.6.57A2.67,2.67,0,0,0,637.21,134.67ZM634.68,133v-1.1l-1.79.33c-1.41.26-2.13.72-2.13,1.48s.55,1,1.46,1C633.5,134.72,634.68,134.05,634.68,133Z"/><path d="M640.89,127.68h2.67v1.1h-2.67v6.9h-1.28v-6.9H638v-1.1h1.6v-1.35a2.31,2.31,0,0,1,2.63-2.41,2.22,2.22,0,0,1,1.36.36l-.34,1a1.65,1.65,0,0,0-.91-.24c-.93,0-1.46.42-1.46,1.38Z"/><path d="M651.85,132.16h-6a2.53,2.53,0,0,0,2.61,2.56,2.18,2.18,0,0,0,2.26-1.18l1.07.56a3.44,3.44,0,0,1-3.33,1.74c-2.42,0-3.88-1.57-3.88-4.16s1.37-4.16,3.78-4.16a3.47,3.47,0,0,1,3.59,3.74A5.29,5.29,0,0,1,651.85,132.16Zm-6-1.14h4.86c-.18-1.47-1-2.38-2.36-2.38A2.42,2.42,0,0,0,645.83,131Z"/><path d="M661,129.65l-1.22.57a2.07,2.07,0,0,0-2.13-1.58c-1.6,0-2.56,1.13-2.56,3s1,3,2.56,3a2,2,0,0,0,2.24-1.65l1.19.42a3.4,3.4,0,0,1-3.4,2.35c-2.41,0-3.87-1.57-3.87-4.16s1.46-4.16,3.87-4.16A3.39,3.39,0,0,1,661,129.65Z"/><path d="M668.27,135.12a3,3,0,0,1-2.07.72A2,2,0,0,1,664,133.7v-4.92h-1.6v-1.1H664v-1.92l1.28-.36v2.28h3v1.1h-3v4.69a1.09,1.09,0,0,0,1.2,1.17,1.81,1.81,0,0,0,1.36-.59Z"/><path d="M677.28,134.67l-.08,1a2.93,2.93,0,0,1-1,.16,1.26,1.26,0,0,1-1.44-1.18,3.18,3.18,0,0,1-2.58,1.18c-1.51,0-2.72-.7-2.72-2.14,0-1.2,1-2.15,3.12-2.5l2.13-.35v-.45a1.68,1.68,0,0,0-1.87-1.76,2.34,2.34,0,0,0-2.29,1.52l-1-.69a3.27,3.27,0,0,1,3.24-2c1.82,0,3.15.86,3.15,2.72v3.94c0,.38.16.57.61.57A2.74,2.74,0,0,0,677.28,134.67ZM674.75,133v-1.1l-1.79.33c-1.41.26-2.13.72-2.13,1.48s.54,1,1.45,1C673.56,134.72,674.75,134.05,674.75,133Z"/><path d="M683.79,127.68l-.26,1.24a2.31,2.31,0,0,0-1-.2c-1,0-2.11.85-2.11,2.64v4.32h-1.28v-8h1l.18,1.31a2.55,2.55,0,0,1,2.56-1.47A2,2,0,0,1,683.79,127.68Z"/><path d="M697,134.67l-.08,1a2.88,2.88,0,0,1-1,.16,1.27,1.27,0,0,1-1.44-1.18,3.14,3.14,0,0,1-2.57,1.18c-1.51,0-2.72-.7-2.72-2.14,0-1.2,1-2.15,3.12-2.5l2.13-.35v-.45a1.68,1.68,0,0,0-1.88-1.76,2.36,2.36,0,0,0-2.29,1.52l-.94-.69a3.26,3.26,0,0,1,3.23-2c1.83,0,3.16.86,3.16,2.72v3.94c0,.38.16.57.6.57A2.67,2.67,0,0,0,697,134.67ZM694.48,133v-1.1l-1.8.33c-1.41.26-2.13.72-2.13,1.48s.55,1,1.46,1C693.29,134.72,694.48,134.05,694.48,133Z"/><path d="M355.18,148.85l-1.22.57a2.07,2.07,0,0,0-2.13-1.58c-1.6,0-2.56,1.13-2.56,3s1,3,2.56,3a2,2,0,0,0,2.24-1.65l1.19.42a3.39,3.39,0,0,1-3.39,2.35c-2.42,0-3.88-1.57-3.88-4.16s1.46-4.16,3.88-4.16A3.39,3.39,0,0,1,355.18,148.85Z"/><path d="M364.44,146.88v8h-1.12l-.08-1.22a3.07,3.07,0,0,1-2.86,1.38,2.69,2.69,0,0,1-2.95-2.93v-5.23h1.28v4.89c0,1.65.74,2.15,1.89,2.15a2.43,2.43,0,0,0,2.56-2.69v-4.35Z"/><path d="M374.62,153.87l-.08,1a2.93,2.93,0,0,1-1,.16,1.26,1.26,0,0,1-1.44-1.18,3.15,3.15,0,0,1-2.58,1.18c-1.5,0-2.72-.7-2.72-2.14,0-1.21,1.06-2.15,3.12-2.5l2.13-.35v-.45a1.68,1.68,0,0,0-1.87-1.76,2.34,2.34,0,0,0-2.29,1.52l-.95-.69a3.28,3.28,0,0,1,3.24-1.95c1.82,0,3.15.86,3.15,2.72v3.93c0,.39.16.58.61.58A2.67,2.67,0,0,0,374.62,153.87Zm-2.53-1.68v-1.1l-1.79.33c-1.41.26-2.13.72-2.13,1.48s.54,1,1.45,1C370.91,153.92,372.09,153.25,372.09,152.19Z"/><path d="M377.69,152.74c0,.81.21,1.07.86,1.07a2.8,2.8,0,0,0,1.17-.23l-.21,1.24a3.14,3.14,0,0,1-1.18.22c-1.3,0-1.92-.69-1.92-2.14v-9.7h1.28Z"/><path d="M388.49,146.88v11.36h-1.28v-4.61a3,3,0,0,1-2.66,1.41c-2.22,0-3.65-1.55-3.65-4.16s1.43-4.16,3.65-4.16a3,3,0,0,1,2.74,1.55l.08-1.39ZM387.21,151v-.19c0-1.81-1-2.94-2.51-2.94s-2.52,1.18-2.52,3,.95,3,2.52,3S387.21,152.78,387.21,151Z"/><path d="M398.4,146.88v8h-1.13l-.08-1.22a3.07,3.07,0,0,1-2.86,1.38,2.69,2.69,0,0,1-2.95-2.93v-5.23h1.28v4.89c0,1.65.74,2.15,1.89,2.15a2.43,2.43,0,0,0,2.56-2.69v-4.35Z"/><path d="M401.05,144.38a1,1,0,1,1,1,1A.9.9,0,0,1,401.05,144.38Zm1.6,10.5h-1.28v-8h1.28Z"/><path d="M412.43,151.36h-6a2.53,2.53,0,0,0,2.61,2.56,2.18,2.18,0,0,0,2.26-1.18l1.07.55A3.43,3.43,0,0,1,409,155c-2.42,0-3.87-1.57-3.87-4.16s1.36-4.16,3.78-4.16a3.46,3.46,0,0,1,3.58,3.74A6.83,6.83,0,0,1,412.43,151.36Zm-6-1.14h4.85c-.18-1.47-1-2.38-2.35-2.38A2.41,2.41,0,0,0,406.41,150.22Z"/><path d="M419.58,146.88l-.26,1.24a2.31,2.31,0,0,0-1-.2c-1,0-2.11.85-2.11,2.64v4.32h-1.28v-8h1l.18,1.31a2.55,2.55,0,0,1,2.56-1.47A2,2,0,0,1,419.58,146.88Z"/><path d="M442.34,150.88c0,2.61-1.42,4.16-3.65,4.16a3,3,0,0,1-2.66-1.41v4.61h-1.28V146.88h1.12l.08,1.39a3,3,0,0,1,2.74-1.55C440.92,146.72,442.34,148.27,442.34,150.88Zm-1.28,0c0-1.86-.94-3-2.51-3S436,149,436,150.78V151c0,1.81,1,2.95,2.52,2.95S441.06,152.74,441.06,150.88Z"/><path d="M451.64,151.36h-6a2.53,2.53,0,0,0,2.61,2.56,2.18,2.18,0,0,0,2.26-1.18l1.07.55a3.43,3.43,0,0,1-3.33,1.75c-2.42,0-3.87-1.57-3.87-4.16s1.36-4.16,3.78-4.16a3.46,3.46,0,0,1,3.58,3.74A6.83,6.83,0,0,1,451.64,151.36Zm-6-1.14h4.85c-.18-1.47-1-2.38-2.35-2.38A2.41,2.41,0,0,0,445.62,150.22Z"/><path d="M458.79,146.88l-.26,1.24a2.31,2.31,0,0,0-1-.2c-1,0-2.11.85-2.11,2.64v4.32h-1.28v-8h1l.18,1.31a2.55,2.55,0,0,1,2.56-1.47A2,2,0,0,1,458.79,146.88Z"/><path d="M459.6,153.23l1-.72a2.51,2.51,0,0,0,2.53,1.41c1.31,0,1.94-.53,1.94-1.18s-.5-1-2.1-1.24c-2.27-.41-3.1-1-3.1-2.38s1.2-2.4,3.15-2.4c1.71,0,2.72.61,3.17,1.92l-1.09.64a1.94,1.94,0,0,0-2.08-1.44c-1.07,0-1.87.57-1.87,1.17s.53,1,2.16,1.31c2.24.37,3,1,3,2.35S465.09,155,463,155A3.66,3.66,0,0,1,459.6,153.23Z"/><path d="M476,150.88c0,2.59-1.46,4.16-3.88,4.16s-3.87-1.57-3.87-4.16,1.45-4.16,3.87-4.16S476,148.29,476,150.88Zm-6.47,0c0,1.9,1,3.06,2.59,3.06s2.59-1.16,2.59-3.06-1-3.06-2.59-3.06S469.54,149,469.54,150.88Z"/><path d="M485.49,149.76v5.12h-1.28v-4.67c0-1.78-.86-2.37-2-2.37a2.46,2.46,0,0,0-2.48,2.78v4.26h-1.28v-8h1.12l.08,1.24a2.91,2.91,0,0,1,2.69-1.4A2.86,2.86,0,0,1,485.49,149.76Z"/><path d="M495.59,153.87l-.08,1a2.88,2.88,0,0,1-1,.16,1.26,1.26,0,0,1-1.44-1.18,3.15,3.15,0,0,1-2.58,1.18c-1.5,0-2.72-.7-2.72-2.14,0-1.21,1.06-2.15,3.12-2.5l2.13-.35v-.45a1.68,1.68,0,0,0-1.87-1.76,2.34,2.34,0,0,0-2.29,1.52l-.95-.69a3.27,3.27,0,0,1,3.24-1.95c1.82,0,3.15.86,3.15,2.72v3.93c0,.39.16.58.61.58A2.67,2.67,0,0,0,495.59,153.87Zm-2.53-1.68v-1.1l-1.79.33c-1.41.26-2.13.72-2.13,1.48s.54,1,1.45,1C491.88,153.92,493.06,153.25,493.06,152.19Z"/><path d="M499.12,154a1,1,0,1,1-1-1A1,1,0,0,1,499.12,154Z"/><path d="M520,152h-4.79L514,154.88H512.7l4.11-10.56h1.52l4.1,10.56h-1.36Zm-.47-1.2L518.06,147l-.5-1.47h0l-.46,1.43-1.44,3.79Z"/><path d="M531.92,150.88c0,2.61-1.43,4.16-3.65,4.16a3,3,0,0,1-2.66-1.41v4.61h-1.28V146.88h1.12l.08,1.39a3,3,0,0,1,2.74-1.55C530.49,146.72,531.92,148.27,531.92,150.88Zm-1.29,0c0-1.86-.94-3-2.51-3s-2.51,1.13-2.51,2.94V151c0,1.81,1,2.95,2.51,2.95S530.63,152.74,530.63,150.88Z"/><path d="M539.07,146.88l-.26,1.24a2.31,2.31,0,0,0-1-.2c-1,0-2.11.85-2.11,2.64v4.32h-1.28v-8h1l.17,1.31a2.57,2.57,0,0,1,2.57-1.47A2,2,0,0,1,539.07,146.88Z"/><path d="M547.48,151.36h-6a2.53,2.53,0,0,0,2.61,2.56,2.18,2.18,0,0,0,2.26-1.18l1.07.55a3.43,3.43,0,0,1-3.33,1.75c-2.42,0-3.88-1.57-3.88-4.16s1.36-4.16,3.78-4.16a3.47,3.47,0,0,1,3.59,3.74A5.29,5.29,0,0,1,547.48,151.36Zm-6-1.14h4.86c-.18-1.47-1-2.38-2.36-2.38A2.42,2.42,0,0,0,541.46,150.22Z"/><path d="M557,149.76v5.12h-1.28v-4.67c0-1.78-.87-2.37-2-2.37a2.46,2.46,0,0,0-2.48,2.78v4.26H550v-8h1.12l.08,1.24a2.9,2.9,0,0,1,2.69-1.4A2.86,2.86,0,0,1,557,149.76Z"/><path d="M567,143.2v11.68h-1.12l-.08-1.39a3,3,0,0,1-2.74,1.55c-2.23,0-3.65-1.55-3.65-4.16s1.42-4.16,3.65-4.16a3,3,0,0,1,2.66,1.4V143.2ZM565.71,151v-.19c0-1.81-1-2.94-2.52-2.94s-2.51,1.18-2.51,3,.94,3,2.51,3S565.71,152.78,565.71,151Z"/><path d="M576.76,151.36h-6a2.53,2.53,0,0,0,2.61,2.56c1.17,0,2-.42,2.25-1.18l1.08.55a3.43,3.43,0,0,1-3.33,1.75c-2.42,0-3.88-1.57-3.88-4.16s1.36-4.16,3.78-4.16a3.47,3.47,0,0,1,3.59,3.74A6.58,6.58,0,0,1,576.76,151.36Zm-6-1.14h4.85c-.17-1.47-1-2.38-2.35-2.38A2.42,2.42,0,0,0,570.74,150.22Z"/><path d="M583.91,146.88l-.25,1.24a2.31,2.31,0,0,0-1-.2c-1,0-2.11.85-2.11,2.64v4.32h-1.28v-8h1l.17,1.31a2.56,2.56,0,0,1,2.56-1.47A2,2,0,0,1,583.91,146.88Z"/><path d="M598.37,153.23l1-.72a2.51,2.51,0,0,0,2.53,1.41c1.31,0,1.94-.53,1.94-1.18s-.5-1-2.1-1.24c-2.27-.41-3.11-1-3.11-2.38s1.21-2.4,3.16-2.4c1.71,0,2.72.61,3.17,1.92l-1.09.64a1.94,1.94,0,0,0-2.08-1.44c-1.07,0-1.87.57-1.87,1.17s.52,1,2.16,1.31c2.24.37,3,1,3,2.35s-1.3,2.37-3.35,2.37A3.66,3.66,0,0,1,598.37,153.23Z"/><path d="M614.77,150.88c0,2.59-1.45,4.16-3.87,4.16s-3.87-1.57-3.87-4.16,1.45-4.16,3.87-4.16S614.77,148.29,614.77,150.88Zm-6.46,0c0,1.9,1,3.06,2.59,3.06s2.59-1.16,2.59-3.06-1-3.06-2.59-3.06S608.31,149,608.31,150.88Z"/><path d="M624.84,150.88c0,2.61-1.43,4.16-3.65,4.16a3,3,0,0,1-2.74-1.55l-.08,1.39h-1.12V143.2h1.28v4.92a3,3,0,0,1,2.66-1.4C623.41,146.72,624.84,148.27,624.84,150.88Zm-1.28,0c0-1.86-.95-3-2.52-3s-2.51,1.13-2.51,2.94V151c0,1.81,1,2.95,2.51,2.95S623.56,152.74,623.56,150.88Z"/><path d="M632,146.88l-.26,1.24a2.31,2.31,0,0,0-1-.2c-1,0-2.11.85-2.11,2.64v4.32h-1.28v-8h1l.18,1.31a2.56,2.56,0,0,1,2.56-1.47A2,2,0,0,1,632,146.88Z"/><path d="M640.4,151.36h-6a2.53,2.53,0,0,0,2.61,2.56,2.18,2.18,0,0,0,2.26-1.18l1.07.55A3.43,3.43,0,0,1,637,155c-2.42,0-3.87-1.57-3.87-4.16s1.36-4.16,3.77-4.16a3.47,3.47,0,0,1,3.59,3.74A5.29,5.29,0,0,1,640.4,151.36Zm-6-1.14h4.85c-.18-1.47-1-2.38-2.36-2.38A2.41,2.41,0,0,0,634.39,150.22Z"/><path d="M663.38,151.36h-6a2.53,2.53,0,0,0,2.61,2.56,2.18,2.18,0,0,0,2.26-1.18l1.07.55A3.43,3.43,0,0,1,660,155c-2.42,0-3.87-1.57-3.87-4.16s1.36-4.16,3.77-4.16a3.47,3.47,0,0,1,3.59,3.74A6.83,6.83,0,0,1,663.38,151.36Zm-6-1.14h4.85c-.18-1.47-1-2.38-2.36-2.38A2.41,2.41,0,0,0,657.36,150.22Zm2.7-4.67h-1l1.22-2.68h1.39Z"/><path d="M665.15,153.23l1-.72a2.5,2.5,0,0,0,2.53,1.41c1.31,0,1.93-.53,1.93-1.18s-.49-1-2.09-1.24c-2.28-.41-3.11-1-3.11-2.38s1.2-2.4,3.16-2.4c1.71,0,2.72.61,3.16,1.92l-1.08.64a2,2,0,0,0-2.08-1.44c-1.08,0-1.88.57-1.88,1.17s.53,1,2.16,1.31c2.24.37,3,1,3,2.35s-1.29,2.37-3.34,2.37A3.66,3.66,0,0,1,665.15,153.23Z"/><path d="M679.2,154.32a3,3,0,0,1-2.07.72,2,2,0,0,1-2.22-2.14V148h-1.6v-1.1h1.6V145l1.28-.36v2.28h3V148h-3v4.69a1.09,1.09,0,0,0,1.2,1.17,1.81,1.81,0,0,0,1.36-.59Z"/><path d="M688.21,153.87l-.08,1a2.93,2.93,0,0,1-1,.16,1.26,1.26,0,0,1-1.44-1.18,3.18,3.18,0,0,1-2.58,1.18c-1.51,0-2.72-.7-2.72-2.14,0-1.21,1.05-2.15,3.12-2.5l2.13-.35v-.45a1.68,1.68,0,0,0-1.87-1.76,2.34,2.34,0,0,0-2.29,1.52l-.95-.69a3.27,3.27,0,0,1,3.24-1.95c1.82,0,3.15.86,3.15,2.72v3.93c0,.39.16.58.61.58A2.74,2.74,0,0,0,688.21,153.87Zm-2.53-1.68v-1.1l-1.79.33c-1.41.26-2.13.72-2.13,1.48s.54,1,1.45,1C684.49,153.92,685.68,153.25,685.68,152.19Z"/><path d="M689.34,153.23l1-.72a2.5,2.5,0,0,0,2.53,1.41c1.31,0,1.94-.53,1.94-1.18s-.5-1-2.1-1.24c-2.27-.41-3.11-1-3.11-2.38s1.2-2.4,3.16-2.4c1.71,0,2.72.61,3.17,1.92l-1.09.64a1.94,1.94,0,0,0-2.08-1.44c-1.08,0-1.88.57-1.88,1.17s.53,1,2.16,1.31c2.25.37,3,1,3,2.35s-1.3,2.37-3.35,2.37A3.66,3.66,0,0,1,689.34,153.23Z"/><path d="M356.08,170.08c0,2.61-1.43,4.16-3.65,4.16a3,3,0,0,1-2.66-1.41v4.61h-1.28V166.08h1.12l.08,1.39a3,3,0,0,1,2.74-1.55C354.65,165.92,356.08,167.47,356.08,170.08Zm-1.29,0c0-1.86-.94-3-2.51-3s-2.51,1.13-2.51,2.94v.19c0,1.81,1,3,2.51,3S354.79,171.94,354.79,170.08Z"/><path d="M365.5,166.08v8h-1.12l-.08-1.22a3.08,3.08,0,0,1-2.87,1.38,2.68,2.68,0,0,1-2.94-2.93v-5.23h1.28V171c0,1.65.74,2.15,1.89,2.15a2.43,2.43,0,0,0,2.56-2.69v-4.35Z"/><path d="M375.28,170.56h-6a2.53,2.53,0,0,0,2.61,2.56,2.18,2.18,0,0,0,2.26-1.18l1.07.56a3.44,3.44,0,0,1-3.33,1.74c-2.42,0-3.87-1.57-3.87-4.16s1.36-4.16,3.77-4.16a3.47,3.47,0,0,1,3.59,3.74A6.83,6.83,0,0,1,375.28,170.56Zm-6-1.14h4.85c-.18-1.47-1-2.38-2.36-2.38A2.41,2.41,0,0,0,369.26,169.42Z"/><path d="M384.88,162.4v11.68h-1.13l-.08-1.39a3,3,0,0,1-2.73,1.55c-2.23,0-3.65-1.55-3.65-4.16s1.42-4.16,3.65-4.16a3,3,0,0,1,2.65,1.41V162.4Zm-1.29,7.77V170c0-1.81-1-2.94-2.51-2.94s-2.51,1.18-2.51,3,.94,3,2.51,3S383.59,172,383.59,170.17Z"/><path d="M394.65,170.56h-6a2.53,2.53,0,0,0,2.61,2.56,2.17,2.17,0,0,0,2.25-1.18l1.07.56a3.42,3.42,0,0,1-3.32,1.74c-2.42,0-3.88-1.57-3.88-4.16s1.36-4.16,3.78-4.16a3.46,3.46,0,0,1,3.58,3.74A6.83,6.83,0,0,1,394.65,170.56Zm-6-1.14h4.85c-.17-1.47-1-2.38-2.35-2.38A2.41,2.41,0,0,0,388.63,169.42Z"/><path d="M413.3,173.07l-.08,1a2.88,2.88,0,0,1-1,.16,1.26,1.26,0,0,1-1.44-1.18,3.15,3.15,0,0,1-2.58,1.18c-1.5,0-2.72-.7-2.72-2.14,0-1.21,1.06-2.15,3.12-2.5l2.13-.35v-.45A1.68,1.68,0,0,0,408.9,167a2.34,2.34,0,0,0-2.29,1.52l-.94-.69a3.25,3.25,0,0,1,3.23-2c1.82,0,3.15.86,3.15,2.72v3.94c0,.38.16.57.61.57A2.67,2.67,0,0,0,413.3,173.07Zm-2.53-1.68v-1.1l-1.79.33c-1.41.26-2.13.72-2.13,1.48s.54,1,1.46,1C409.59,173.12,410.77,172.45,410.77,171.39Z"/><path d="M417.73,175.42c-.62,1.57-1.34,2.1-2.53,2.1a2.16,2.16,0,0,1-1.76-.67l.45-1.09a1.5,1.5,0,0,0,1.3.64c.56,0,1.05-.24,1.45-1.3l.42-1-3.35-8h1.46l2,5.21.5,1.43.57-1.59,1.88-5h1.37Z"/><path d="M430.18,166.08v8h-1.12l-.08-1.22a3.08,3.08,0,0,1-2.87,1.38,2.68,2.68,0,0,1-2.94-2.93v-5.23h1.28V171c0,1.65.74,2.15,1.89,2.15a2.43,2.43,0,0,0,2.56-2.69v-4.35Z"/><path d="M440.26,162.4v11.68h-1.12l-.08-1.39a3,3,0,0,1-2.74,1.55c-2.22,0-3.65-1.55-3.65-4.16s1.43-4.16,3.65-4.16a3,3,0,0,1,2.66,1.41V162.4ZM439,170.17V170c0-1.81-1-2.94-2.51-2.94s-2.52,1.18-2.52,3,.95,3,2.52,3S439,172,439,170.17Z"/><path d="M450.43,173.07l-.08,1a2.88,2.88,0,0,1-1,.16,1.27,1.27,0,0,1-1.44-1.18,3.14,3.14,0,0,1-2.57,1.18c-1.51,0-2.72-.7-2.72-2.14,0-1.21,1-2.15,3.12-2.5l2.13-.35v-.45A1.68,1.68,0,0,0,446,167a2.36,2.36,0,0,0-2.29,1.52l-.94-.69a3.26,3.26,0,0,1,3.23-2c1.83,0,3.16.86,3.16,2.72v3.94c0,.38.16.57.6.57A2.67,2.67,0,0,0,450.43,173.07Zm-2.52-1.68v-1.1l-1.8.33c-1.41.26-2.13.72-2.13,1.48s.55,1,1.46,1C446.72,173.12,447.91,172.45,447.91,171.39Z"/><path d="M457,166.08l-.26,1.25a2.17,2.17,0,0,0-1-.21c-1,0-2.11.85-2.11,2.64v4.32h-1.28v-8h1l.17,1.31a2.56,2.56,0,0,1,2.56-1.47A2,2,0,0,1,457,166.08Z"/><path d="M460,171.94c0,.81.21,1.07.87,1.07a2.76,2.76,0,0,0,1.16-.23l-.2,1.24a3.23,3.23,0,0,1-1.19.22c-1.29,0-1.92-.69-1.92-2.14v-9.7H460Z"/><path d="M471,170.08c0,2.59-1.45,4.16-3.87,4.16s-3.88-1.57-3.88-4.16,1.46-4.16,3.88-4.16S471,167.49,471,170.08Zm-6.46,0c0,1.9,1,3.06,2.59,3.06s2.59-1.16,2.59-3.06-1-3.06-2.59-3.06S464.5,168.17,464.5,170.08Z"/><path d="M472.72,172.43l1-.72a2.5,2.5,0,0,0,2.53,1.41c1.31,0,1.93-.53,1.93-1.18s-.49-.95-2.09-1.24c-2.28-.41-3.11-1-3.11-2.38s1.2-2.4,3.16-2.4c1.71,0,2.72.61,3.17,1.92l-1.09.64a2,2,0,0,0-2.08-1.44c-1.08,0-1.88.57-1.88,1.17s.53,1,2.16,1.31c2.25.37,3.05,1,3.05,2.35s-1.3,2.37-3.35,2.37A3.66,3.66,0,0,1,472.72,172.43Z"/><path d="M498,173.07l-.08,1a2.93,2.93,0,0,1-1,.16,1.26,1.26,0,0,1-1.44-1.18,3.18,3.18,0,0,1-2.58,1.18c-1.51,0-2.72-.7-2.72-2.14,0-1.21,1.05-2.15,3.12-2.5l2.13-.35v-.45a1.68,1.68,0,0,0-1.88-1.76,2.34,2.34,0,0,0-2.28,1.52l-.95-.69a3.26,3.26,0,0,1,3.23-2c1.83,0,3.16.86,3.16,2.72v3.94c0,.38.16.57.61.57A2.8,2.8,0,0,0,498,173.07Zm-2.53-1.68v-1.1l-1.79.33c-1.41.26-2.13.72-2.13,1.48s.54,1,1.45,1C494.31,173.12,495.5,172.45,495.5,171.39Z"/><path d="M515.39,166.08v8h-1.12l-.08-1.22a3.07,3.07,0,0,1-2.86,1.38,2.69,2.69,0,0,1-2.95-2.93v-5.23h1.28V171c0,1.65.74,2.15,1.89,2.15a2.43,2.43,0,0,0,2.56-2.69v-4.35Z"/><path d="M517.65,172.43l1-.72a2.49,2.49,0,0,0,2.53,1.41c1.31,0,1.93-.53,1.93-1.18s-.49-.95-2.09-1.24c-2.28-.41-3.11-1-3.11-2.38s1.2-2.4,3.15-2.4c1.72,0,2.73.61,3.17,1.92l-1.08.64A2,2,0,0,0,521.1,167c-1.07,0-1.87.57-1.87,1.17s.53,1,2.16,1.31c2.24.37,3,1,3,2.35s-1.29,2.37-3.34,2.37A3.66,3.66,0,0,1,517.65,172.43Z"/><path d="M531.7,173.52a3,3,0,0,1-2.07.72,2,2,0,0,1-2.22-2.14v-4.92h-1.6v-1.1h1.6v-1.92l1.28-.36v2.28h3v1.1h-3v4.69a1.08,1.08,0,0,0,1.2,1.17,1.83,1.83,0,0,0,1.36-.59Z"/><path d="M540.31,170.56h-6a2.53,2.53,0,0,0,2.61,2.56,2.18,2.18,0,0,0,2.26-1.18l1.07.56a3.44,3.44,0,0,1-3.33,1.74c-2.42,0-3.87-1.57-3.87-4.16s1.36-4.16,3.77-4.16a3.46,3.46,0,0,1,3.59,3.74A6.83,6.83,0,0,1,540.31,170.56Zm-6-1.14h4.85c-.18-1.47-1-2.38-2.36-2.38A2.41,2.41,0,0,0,534.29,169.42Z"/><path d="M549.91,162.4v11.68h-1.12l-.08-1.39a3,3,0,0,1-2.74,1.55c-2.23,0-3.65-1.55-3.65-4.16s1.42-4.16,3.65-4.16a3,3,0,0,1,2.66,1.41V162.4Zm-1.28,7.77V170c0-1.81-1-2.94-2.52-2.94s-2.51,1.18-2.51,3,.94,3,2.51,3S548.63,172,548.63,170.17Z"/><path d="M564.22,175.42c-.63,1.57-1.35,2.1-2.53,2.1a2.16,2.16,0,0,1-1.76-.67l.45-1.09a1.49,1.49,0,0,0,1.29.64c.56,0,1.06-.24,1.46-1.3l.42-1-3.35-8h1.46l2,5.21.49,1.43.58-1.59,1.87-5H568Z"/><path d="M585.49,173.07l-.08,1a2.88,2.88,0,0,1-1,.16,1.27,1.27,0,0,1-1.44-1.18,3.15,3.15,0,0,1-2.58,1.18c-1.5,0-2.72-.7-2.72-2.14,0-1.21,1.06-2.15,3.12-2.5l2.13-.35v-.45a1.68,1.68,0,0,0-1.87-1.76,2.34,2.34,0,0,0-2.29,1.52l-.94-.69a3.25,3.25,0,0,1,3.23-2c1.83,0,3.15.86,3.15,2.72v3.94c0,.38.16.57.61.57A2.67,2.67,0,0,0,585.49,173.07ZM583,171.39v-1.1l-1.79.33c-1.41.26-2.13.72-2.13,1.48s.55,1,1.46,1C581.78,173.12,583,172.45,583,171.39Z"/><path d="M595.21,172.43l1-.72a2.51,2.51,0,0,0,2.53,1.41c1.31,0,1.94-.53,1.94-1.18s-.5-.95-2.1-1.24c-2.27-.41-3.11-1-3.11-2.38s1.2-2.4,3.16-2.4c1.71,0,2.72.61,3.17,1.92l-1.09.64a1.94,1.94,0,0,0-2.08-1.44c-1.07,0-1.88.57-1.88,1.17s.53,1,2.17,1.31c2.24.37,3,1,3,2.35s-1.3,2.37-3.35,2.37A3.66,3.66,0,0,1,595.21,172.43Z"/><path d="M611.29,166.08v8h-1.12l-.08-1.22a3.07,3.07,0,0,1-2.86,1.38,2.69,2.69,0,0,1-3-2.93v-5.23h1.28V171c0,1.65.74,2.15,1.89,2.15a2.43,2.43,0,0,0,2.56-2.69v-4.35Z"/><path d="M635.58,169v5.12H634.3v-5a1.79,1.79,0,0,0-1.89-2.05,2.41,2.41,0,0,0-2.37,2.65v4.39h-1.28v-5a1.79,1.79,0,0,0-1.89-2.05,2.46,2.46,0,0,0-2.37,2.77v4.27h-1.28v-8h1.12l.08,1.25a2.89,2.89,0,0,1,2.56-1.41,2.94,2.94,0,0,1,2.75,1.57,3.07,3.07,0,0,1,2.79-1.57A2.87,2.87,0,0,1,635.58,169Z"/><path d="M645.27,170.56h-6a2.53,2.53,0,0,0,2.61,2.56,2.17,2.17,0,0,0,2.25-1.18l1.07.56a3.42,3.42,0,0,1-3.32,1.74c-2.42,0-3.88-1.57-3.88-4.16s1.36-4.16,3.78-4.16a3.46,3.46,0,0,1,3.58,3.74A6.83,6.83,0,0,1,645.27,170.56Zm-6-1.14h4.85c-.17-1.47-1-2.38-2.35-2.38A2.41,2.41,0,0,0,639.25,169.42Zm2.71-4.67h-1l1.21-2.67h1.4Z"/><path d="M654.87,162.4v11.68h-1.12l-.08-1.39a3,3,0,0,1-2.74,1.55c-2.22,0-3.65-1.55-3.65-4.16s1.43-4.16,3.65-4.16a3,3,0,0,1,2.66,1.41V162.4Zm-1.28,7.77V170c0-1.81-1-2.94-2.51-2.94s-2.52,1.18-2.52,3,1,3,2.52,3S653.59,172,653.59,170.17Z"/><path d="M657.52,163.58a1,1,0,1,1,1,1A.91.91,0,0,1,657.52,163.58Zm1.6,10.5h-1.28v-8h1.28Z"/><path d="M668.79,168.05l-1.22.57a2.07,2.07,0,0,0-2.13-1.58c-1.6,0-2.56,1.13-2.56,3s1,3,2.56,3a2.06,2.06,0,0,0,2.25-1.65l1.18.42a3.39,3.39,0,0,1-3.39,2.35c-2.42,0-3.88-1.57-3.88-4.16s1.46-4.16,3.88-4.16A3.39,3.39,0,0,1,668.79,168.05Z"/><path d="M678.37,170.08c0,2.59-1.45,4.16-3.87,4.16s-3.87-1.57-3.87-4.16,1.45-4.16,3.87-4.16S678.37,167.49,678.37,170.08Zm-6.46,0c0,1.9,1,3.06,2.59,3.06s2.59-1.16,2.59-3.06-1-3.06-2.59-3.06S671.91,168.17,671.91,170.08Z"/><path d="M697,173.07l-.08,1a2.88,2.88,0,0,1-1,.16,1.27,1.27,0,0,1-1.44-1.18,3.14,3.14,0,0,1-2.57,1.18c-1.51,0-2.72-.7-2.72-2.14,0-1.21,1-2.15,3.12-2.5l2.13-.35v-.45A1.68,1.68,0,0,0,692.6,167a2.36,2.36,0,0,0-2.29,1.52l-.94-.69a3.26,3.26,0,0,1,3.23-2c1.83,0,3.16.86,3.16,2.72v3.94c0,.38.16.57.6.57A2.67,2.67,0,0,0,697,173.07Zm-2.52-1.68v-1.1l-1.8.33c-1.41.26-2.13.72-2.13,1.48s.55,1,1.46,1C693.29,173.12,694.48,172.45,694.48,171.39Z"/><path d="M353.15,185.28l-.26,1.25a2.17,2.17,0,0,0-1-.21c-1,0-2.11.85-2.11,2.64v4.32h-1.28v-8h1l.18,1.31a2.55,2.55,0,0,1,2.56-1.47A2,2,0,0,1,353.15,185.28Z"/><path d="M361.56,189.76h-6a2.53,2.53,0,0,0,2.61,2.56,2.18,2.18,0,0,0,2.26-1.18l1.07.56a3.44,3.44,0,0,1-3.33,1.74c-2.42,0-3.88-1.57-3.88-4.16s1.36-4.16,3.78-4.16a3.47,3.47,0,0,1,3.59,3.74A5.21,5.21,0,0,1,361.56,189.76Zm-6-1.14h4.86c-.18-1.47-1-2.38-2.36-2.38A2.42,2.42,0,0,0,355.54,188.62Z"/><path d="M370.75,187.25l-1.22.57a2.07,2.07,0,0,0-2.13-1.58c-1.6,0-2.56,1.13-2.56,3s1,3,2.56,3a2,2,0,0,0,2.24-1.65l1.19.42a3.4,3.4,0,0,1-3.4,2.35c-2.41,0-3.87-1.57-3.87-4.16s1.46-4.16,3.87-4.16A3.4,3.4,0,0,1,370.75,187.25Z"/><path d="M380.33,189.28c0,2.59-1.46,4.16-3.87,4.16s-3.88-1.57-3.88-4.16,1.46-4.16,3.88-4.16S380.33,186.69,380.33,189.28Zm-6.47,0c0,1.9,1,3.06,2.6,3.06s2.59-1.16,2.59-3.06-1-3.06-2.59-3.06S373.86,187.37,373.86,189.28Z"/><path d="M389.82,188.16v5.12h-1.28v-4.67c0-1.78-.87-2.37-2-2.37a2.46,2.46,0,0,0-2.48,2.78v4.26h-1.28v-8h1.12l.08,1.25a3.17,3.17,0,0,1,5.81,1.63Z"/><path d="M400,189.28c0,2.59-1.45,4.16-3.87,4.16s-3.87-1.57-3.87-4.16,1.45-4.16,3.87-4.16S400,186.69,400,189.28Zm-6.46,0c0,1.9,1,3.06,2.59,3.06s2.59-1.16,2.59-3.06-1-3.06-2.59-3.06S393.5,187.37,393.5,189.28Z"/><path d="M409.13,187.25l-1.22.57a2.06,2.06,0,0,0-2.12-1.58c-1.61,0-2.57,1.13-2.57,3s1,3,2.57,3a2.05,2.05,0,0,0,2.24-1.65l1.18.42a3.39,3.39,0,0,1-3.39,2.35c-2.42,0-3.88-1.57-3.88-4.16s1.46-4.16,3.88-4.16A3.38,3.38,0,0,1,409.13,187.25Z"/><path d="M418.27,189.76h-6a2.53,2.53,0,0,0,2.61,2.56,2.18,2.18,0,0,0,2.26-1.18l1.07.56a3.44,3.44,0,0,1-3.33,1.74c-2.42,0-3.87-1.57-3.87-4.16s1.36-4.16,3.78-4.16a3.46,3.46,0,0,1,3.58,3.74A6.7,6.7,0,0,1,418.27,189.76Zm-6-1.14h4.85c-.18-1.47-1-2.38-2.35-2.38A2.41,2.41,0,0,0,412.25,188.62Z"/><path d="M425.42,185.28l-.26,1.25a2.17,2.17,0,0,0-1-.21c-1,0-2.11.85-2.11,2.64v4.32h-1.28v-8h1l.18,1.31a2.55,2.55,0,0,1,2.56-1.47A2,2,0,0,1,425.42,185.28Z"/><path d="M435,191.14c0,.81.21,1.07.86,1.07A2.8,2.8,0,0,0,437,192l-.21,1.24a3.18,3.18,0,0,1-1.18.22c-1.3,0-1.92-.69-1.92-2.14v-9.7H435Z"/><path d="M445.92,189.28c0,2.59-1.46,4.16-3.87,4.16s-3.88-1.57-3.88-4.16,1.46-4.16,3.88-4.16S445.92,186.69,445.92,189.28Zm-6.47,0c0,1.9,1,3.06,2.6,3.06s2.59-1.16,2.59-3.06-1-3.06-2.59-3.06S439.45,187.37,439.45,189.28Z"/><path d="M447.68,191.63l1-.72a2.49,2.49,0,0,0,2.53,1.41c1.31,0,1.93-.53,1.93-1.18s-.49-.95-2.1-1.24c-2.27-.41-3.1-1-3.1-2.38s1.2-2.4,3.15-2.4c1.72,0,2.72.61,3.17,1.92l-1.09.64a1.94,1.94,0,0,0-2.08-1.44c-1.07,0-1.87.57-1.87,1.17s.53,1,2.16,1.31c2.24.37,3,1,3,2.35s-1.29,2.37-3.34,2.37A3.64,3.64,0,0,1,447.68,191.63Z"/><path d="M463,191.63l1-.72a2.5,2.5,0,0,0,2.53,1.41c1.31,0,1.94-.53,1.94-1.18s-.5-.95-2.1-1.24c-2.27-.41-3.11-1-3.11-2.38s1.2-2.4,3.16-2.4c1.71,0,2.72.61,3.17,1.92l-1.09.64a2,2,0,0,0-2.08-1.44c-1.08,0-1.88.57-1.88,1.17s.53,1,2.16,1.31c2.25.37,3.05,1,3.05,2.35s-1.3,2.37-3.35,2.37A3.66,3.66,0,0,1,463,191.63Z"/><path d="M473.39,193.28h-1.28v-8h1.28Zm1.35-12L473.17,184h-1l1.21-2.67Z"/><path d="M483.38,188.16v5.12H482.1v-4.67c0-1.78-.87-2.37-2-2.37a2.46,2.46,0,0,0-2.48,2.78v4.26h-1.28v-8h1.12l.08,1.25a3.17,3.17,0,0,1,5.81,1.63Z"/><path d="M491.06,192.72a3,3,0,0,1-2.07.72,2,2,0,0,1-2.22-2.14v-4.92h-1.6v-1.1h1.6v-1.92l1.28-.36v2.28h3v1.1h-3v4.69a1.08,1.08,0,0,0,1.2,1.17,1.83,1.83,0,0,0,1.36-.59Z"/><path d="M500.11,189.28c0,2.59-1.45,4.16-3.87,4.16s-3.87-1.57-3.87-4.16,1.45-4.16,3.87-4.16S500.11,186.69,500.11,189.28Zm-6.46,0c0,1.9,1,3.06,2.59,3.06s2.59-1.16,2.59-3.06-1-3.06-2.59-3.06S493.65,187.37,493.65,189.28Z"/><path d="M515,188.16v5.12h-1.28v-5a1.79,1.79,0,0,0-1.89-2,2.41,2.41,0,0,0-2.37,2.65v4.39h-1.28v-5a1.79,1.79,0,0,0-1.89-2,2.46,2.46,0,0,0-2.37,2.77v4.27h-1.28v-8h1.12l.08,1.25a2.89,2.89,0,0,1,2.56-1.41,3,3,0,0,1,2.76,1.57,3,3,0,0,1,2.78-1.57A2.87,2.87,0,0,1,515,188.16Z"/><path d="M525,192.27l-.08,1a2.88,2.88,0,0,1-1,.16,1.27,1.27,0,0,1-1.44-1.18,3.15,3.15,0,0,1-2.58,1.18c-1.5,0-2.72-.7-2.72-2.14,0-1.21,1.06-2.15,3.12-2.5l2.13-.35V188a1.68,1.68,0,0,0-1.87-1.76,2.34,2.34,0,0,0-2.29,1.52l-.94-.69a3.25,3.25,0,0,1,3.23-1.95c1.82,0,3.15.86,3.15,2.72v3.94c0,.38.16.57.61.57A2.67,2.67,0,0,0,525,192.27Zm-2.53-1.68v-1.1l-1.79.33c-1.41.26-2.13.72-2.13,1.48s.55,1,1.46,1C521.33,192.32,522.51,191.65,522.51,190.59Z"/><path d="M526.17,191.63l1-.72a2.51,2.51,0,0,0,2.53,1.41c1.32,0,1.94-.53,1.94-1.18s-.5-.95-2.1-1.24c-2.27-.41-3.1-1-3.1-2.38s1.2-2.4,3.15-2.4c1.71,0,2.72.61,3.17,1.92l-1.09.64a1.94,1.94,0,0,0-2.08-1.44c-1.07,0-1.87.57-1.87,1.17s.53,1,2.16,1.31c2.24.37,3,1,3,2.35s-1.29,2.37-3.34,2.37A3.66,3.66,0,0,1,526.17,191.63Z"/><path d="M549.29,181.6v11.68h-1.13l-.08-1.39a3,3,0,0,1-2.73,1.55c-2.23,0-3.65-1.55-3.65-4.16s1.42-4.16,3.65-4.16a3,3,0,0,1,2.65,1.41V181.6ZM548,189.37v-.19c0-1.81-1-2.94-2.51-2.94s-2.51,1.18-2.51,3,.94,3,2.51,3S548,191.18,548,189.37Z"/><path d="M559.06,189.76h-6a2.53,2.53,0,0,0,2.61,2.56,2.17,2.17,0,0,0,2.25-1.18l1.07.56a3.42,3.42,0,0,1-3.32,1.74c-2.42,0-3.88-1.57-3.88-4.16s1.36-4.16,3.78-4.16a3.46,3.46,0,0,1,3.58,3.74A6.7,6.7,0,0,1,559.06,189.76Zm-6-1.14h4.85c-.17-1.47-1-2.38-2.35-2.38A2.41,2.41,0,0,0,553,188.62Z"/><path d="M575.34,185.28v8h-1.12l-.08-1.22a3.08,3.08,0,0,1-2.87,1.38,2.68,2.68,0,0,1-2.94-2.93v-5.23h1.28v4.89c0,1.65.73,2.15,1.89,2.15a2.43,2.43,0,0,0,2.56-2.69v-4.35Z"/><path d="M585.32,188.16v5.12H584v-4.67c0-1.78-.86-2.37-2-2.37a2.46,2.46,0,0,0-2.48,2.78v4.26h-1.28v-8h1.12l.08,1.25a2.9,2.9,0,0,1,2.69-1.41A2.86,2.86,0,0,1,585.32,188.16Z"/><path d="M595.42,192.27l-.08,1a2.93,2.93,0,0,1-1,.16,1.26,1.26,0,0,1-1.44-1.18,3.18,3.18,0,0,1-2.58,1.18c-1.5,0-2.72-.7-2.72-2.14,0-1.21,1.06-2.15,3.12-2.5l2.13-.35V188a1.68,1.68,0,0,0-1.87-1.76,2.34,2.34,0,0,0-2.29,1.52l-1-.69a3.27,3.27,0,0,1,3.24-1.95c1.82,0,3.15.86,3.15,2.72v3.94c0,.38.16.57.61.57A2.67,2.67,0,0,0,595.42,192.27Zm-2.53-1.68v-1.1l-1.79.33c-1.41.26-2.13.72-2.13,1.48s.54,1,1.45,1C591.7,192.32,592.89,191.65,592.89,190.59Z"/><path d="M610.56,189.76h-6a2.53,2.53,0,0,0,2.61,2.56,2.18,2.18,0,0,0,2.26-1.18l1.07.56a3.44,3.44,0,0,1-3.33,1.74c-2.41,0-3.87-1.57-3.87-4.16s1.36-4.16,3.78-4.16a3.46,3.46,0,0,1,3.58,3.74A6.7,6.7,0,0,1,610.56,189.76Zm-6-1.14h4.85c-.18-1.47-1-2.38-2.35-2.38A2.41,2.41,0,0,0,604.54,188.62Z"/><path d="M620.06,188.16v5.12h-1.28v-4.67c0-1.78-.86-2.37-2-2.37a2.46,2.46,0,0,0-2.48,2.78v4.26h-1.28v-8h1.12l.08,1.25a2.9,2.9,0,0,1,2.69-1.41A2.86,2.86,0,0,1,620.06,188.16Z"/><path d="M624.75,185.28h2.67v1.1h-2.67v6.9h-1.28v-6.9h-1.6v-1.1h1.6v-1.35a2.3,2.3,0,0,1,2.62-2.41,2.2,2.2,0,0,1,1.36.36l-.33,1a1.68,1.68,0,0,0-.92-.24c-.92,0-1.45.42-1.45,1.38Z"/><path d="M635.71,189.76h-6a2.53,2.53,0,0,0,2.61,2.56,2.18,2.18,0,0,0,2.26-1.18l1.07.56a3.44,3.44,0,0,1-3.33,1.74c-2.41,0-3.87-1.57-3.87-4.16s1.36-4.16,3.78-4.16a3.46,3.46,0,0,1,3.58,3.74A6.7,6.7,0,0,1,635.71,189.76Zm-6-1.14h4.85c-.17-1.47-1-2.38-2.35-2.38A2.41,2.41,0,0,0,629.69,188.62Z"/><path d="M642.86,185.28l-.26,1.25a2.15,2.15,0,0,0-1-.21,2.35,2.35,0,0,0-2.12,2.64v4.32H638.2v-8h1l.18,1.31a2.56,2.56,0,0,1,2.56-1.47A2,2,0,0,1,642.86,185.28Z"/><path d="M657.09,188.16v5.12h-1.28v-5a1.79,1.79,0,0,0-1.89-2,2.41,2.41,0,0,0-2.37,2.65v4.39h-1.28v-5a1.79,1.79,0,0,0-1.89-2A2.46,2.46,0,0,0,646,189v4.27h-1.28v-8h1.12l.08,1.25a2.89,2.89,0,0,1,2.56-1.41,2.94,2.94,0,0,1,2.75,1.57,3.07,3.07,0,0,1,2.79-1.57A2.87,2.87,0,0,1,657.09,188.16Z"/><path d="M666.78,189.76h-6a2.53,2.53,0,0,0,2.61,2.56,2.17,2.17,0,0,0,2.25-1.18l1.07.56a3.42,3.42,0,0,1-3.32,1.74c-2.42,0-3.88-1.57-3.88-4.16s1.36-4.16,3.78-4.16a3.46,3.46,0,0,1,3.58,3.74A6.7,6.7,0,0,1,666.78,189.76Zm-6-1.14h4.85c-.17-1.47-1-2.38-2.35-2.38A2.41,2.41,0,0,0,660.76,188.62Z"/><path d="M676.38,181.6v11.68h-1.12l-.08-1.39a3,3,0,0,1-2.74,1.55c-2.22,0-3.65-1.55-3.65-4.16s1.43-4.16,3.65-4.16a3,3,0,0,1,2.66,1.41V181.6Zm-1.28,7.77v-.19c0-1.81-1-2.94-2.51-2.94s-2.52,1.18-2.52,3,.95,3,2.52,3S675.1,191.18,675.1,189.37Z"/><path d="M686.56,192.27l-.08,1a2.93,2.93,0,0,1-1,.16,1.26,1.26,0,0,1-1.44-1.18,3.18,3.18,0,0,1-2.58,1.18c-1.51,0-2.72-.7-2.72-2.14,0-1.21,1.05-2.15,3.12-2.5l2.13-.35V188a1.68,1.68,0,0,0-1.87-1.76,2.34,2.34,0,0,0-2.29,1.52l-1-.69a3.27,3.27,0,0,1,3.24-1.95c1.82,0,3.15.86,3.15,2.72v3.94c0,.38.16.57.61.57A2.8,2.8,0,0,0,686.56,192.27ZM684,190.59v-1.1l-1.79.33c-1.41.26-2.13.72-2.13,1.48s.54,1,1.45,1C682.84,192.32,684,191.65,684,190.59Z"/><path d="M695.52,181.6v11.68H694.4l-.08-1.39a3,3,0,0,1-2.74,1.55c-2.23,0-3.65-1.55-3.65-4.16s1.42-4.16,3.65-4.16a3,3,0,0,1,2.66,1.41V181.6Zm-1.28,7.77v-.19c0-1.81-1-2.94-2.52-2.94s-2.51,1.18-2.51,3,.94,3,2.51,3S694.24,191.18,694.24,189.37Z"/><path d="M350.39,204.48h2.68v1.1h-2.68v6.9h-1.28v-6.9h-1.6v-1.1h1.6v-1.35a2.32,2.32,0,0,1,2.63-2.42,2.22,2.22,0,0,1,1.36.37l-.34,1a1.62,1.62,0,0,0-.91-.24c-.93,0-1.46.42-1.46,1.38Z"/><path d="M361.71,204.48v8h-1.12l-.08-1.22a3.08,3.08,0,0,1-2.87,1.38,2.68,2.68,0,0,1-2.94-2.93v-5.23H356v4.89c0,1.65.73,2.15,1.89,2.15a2.43,2.43,0,0,0,2.56-2.69v-4.35Zm-3.24-1.33h-1l1.22-2.68H360Z"/><path d="M371.69,207.36v5.12h-1.28v-4.67c0-1.78-.86-2.37-2-2.37a2.46,2.46,0,0,0-2.48,2.78v4.26h-1.28v-8h1.12l.08,1.24a2.91,2.91,0,0,1,2.69-1.4A2.86,2.86,0,0,1,371.69,207.36Z"/><path d="M381.47,213.36c0,1.58-1.8,2.56-4,2.56-2.53,0-3.68-.91-3.68-2.11a1.66,1.66,0,0,1,1.41-1.55,1.66,1.66,0,0,1-1.09-1.48,1.59,1.59,0,0,1,1.2-1.57,2.47,2.47,0,0,1-1.17-2.19c0-1.58,1.36-2.7,3.29-2.7a4.05,4.05,0,0,1,1.63.32,2.08,2.08,0,0,1,2.25-1.64l.29,1.12c-1.07,0-1.68.31-1.9.88a2.47,2.47,0,0,1,1,2c0,1.59-1.36,2.71-3.28,2.71a4.58,4.58,0,0,1-1.24-.15c-.64.15-.89.47-.89,1s.43.87,1.05.87h2.66C380.57,211.46,381.47,212.21,381.47,213.36Zm-1.19.14c0-.57-.38-.94-1.58-.94h-2.15c-1,0-1.53.38-1.53,1,0,.79.88,1.3,2.64,1.3S380.28,214.21,380.28,213.5ZM375.51,207a2,2,0,1,0,2-1.66A1.77,1.77,0,0,0,375.51,207Z"/><path d="M383.05,202a1,1,0,1,1,1,1A.9.9,0,0,1,383.05,202Zm1.6,10.5h-1.28v-8h1.28Z"/><path d="M394.31,206.45l-1.21.57a2.08,2.08,0,0,0-2.13-1.58c-1.6,0-2.56,1.13-2.56,3s1,3,2.56,3a2,2,0,0,0,2.24-1.65l1.19.42a3.4,3.4,0,0,1-3.4,2.35c-2.42,0-3.87-1.57-3.87-4.16s1.45-4.16,3.87-4.16A3.38,3.38,0,0,1,394.31,206.45Z"/><path d="M403.85,211.47l-.08,1a2.88,2.88,0,0,1-1,.16,1.26,1.26,0,0,1-1.44-1.18,3.15,3.15,0,0,1-2.58,1.18c-1.5,0-2.72-.7-2.72-2.14,0-1.21,1.06-2.15,3.12-2.5l2.13-.35v-.45a1.68,1.68,0,0,0-1.87-1.76,2.34,2.34,0,0,0-2.29,1.52l-.94-.69a3.24,3.24,0,0,1,3.23-2c1.82,0,3.15.86,3.15,2.72V211c0,.39.16.58.61.58A2.67,2.67,0,0,0,403.85,211.47Zm-2.53-1.68v-1.1l-1.79.33c-1.41.26-2.13.72-2.13,1.48s.54,1,1.46,1C400.14,211.52,401.32,210.85,401.32,209.79Z"/><path d="M417.7,200.79v11.69h-1.12l-.08-1.39a3,3,0,0,1-2.74,1.55c-2.22,0-3.65-1.55-3.65-4.16s1.43-4.16,3.65-4.16a3,3,0,0,1,2.66,1.4v-4.93Zm-1.28,7.78v-.19c0-1.81-1-2.94-2.52-2.94s-2.51,1.18-2.51,3,.95,3,2.51,3S416.42,210.38,416.42,208.57Z"/><path d="M427.47,209h-6a2.53,2.53,0,0,0,2.61,2.56,2.17,2.17,0,0,0,2.26-1.19l1.07.56a3.43,3.43,0,0,1-3.33,1.75c-2.42,0-3.87-1.57-3.87-4.16s1.36-4.16,3.77-4.16a3.47,3.47,0,0,1,3.59,3.74A5.29,5.29,0,0,1,427.47,209Zm-6-1.14h4.85c-.18-1.47-1-2.38-2.36-2.38A2.41,2.41,0,0,0,421.46,207.82Z"/><path d="M447.58,207.36v5.12H446.3v-5a1.79,1.79,0,0,0-1.89-2.05,2.41,2.41,0,0,0-2.37,2.65v4.39h-1.28v-5a1.79,1.79,0,0,0-1.89-2.05,2.47,2.47,0,0,0-2.37,2.77v4.27h-1.28v-8h1.12l.08,1.24a2.9,2.9,0,0,1,2.56-1.4,3,3,0,0,1,2.76,1.56,3.06,3.06,0,0,1,2.78-1.56A2.87,2.87,0,0,1,447.58,207.36Z"/><path d="M457.67,211.47l-.08,1a2.88,2.88,0,0,1-1,.16,1.27,1.27,0,0,1-1.44-1.18,3.14,3.14,0,0,1-2.57,1.18c-1.51,0-2.73-.7-2.73-2.14,0-1.21,1.06-2.15,3.13-2.5l2.12-.35v-.45a1.68,1.68,0,0,0-1.87-1.76A2.36,2.36,0,0,0,451,207l-.94-.69a3.24,3.24,0,0,1,3.23-2c1.83,0,3.15.86,3.15,2.72V211c0,.39.16.58.61.58A2.67,2.67,0,0,0,457.67,211.47Zm-2.53-1.68v-1.1l-1.79.33c-1.41.26-2.13.72-2.13,1.48s.55,1,1.46,1C454,211.52,455.14,210.85,455.14,209.79Z"/><path d="M466.54,207.36v5.12h-1.28v-4.67c0-1.78-.87-2.37-2-2.37a2.46,2.46,0,0,0-2.48,2.78v4.26h-1.28v-8h1.12l.08,1.24a2.9,2.9,0,0,1,2.69-1.4A2.86,2.86,0,0,1,466.54,207.36Z"/><path d="M476.23,209h-6a2.53,2.53,0,0,0,2.61,2.56c1.17,0,2-.42,2.25-1.19l1.08.56a3.43,3.43,0,0,1-3.33,1.75c-2.42,0-3.88-1.57-3.88-4.16s1.36-4.16,3.78-4.16a3.47,3.47,0,0,1,3.59,3.74A5.29,5.29,0,0,1,476.23,209Zm-6-1.14h4.85c-.17-1.47-1-2.38-2.35-2.38A2.42,2.42,0,0,0,470.21,207.82Z"/><path d="M483.38,204.48l-.25,1.24a2.31,2.31,0,0,0-1-.2c-1,0-2.11.85-2.11,2.64v4.32h-1.28v-8h1l.17,1.31a2.56,2.56,0,0,1,2.56-1.47A2,2,0,0,1,483.38,204.48Z"/><path d="M492.23,211.47l-.08,1a2.88,2.88,0,0,1-1,.16,1.27,1.27,0,0,1-1.44-1.18,3.15,3.15,0,0,1-2.58,1.18c-1.5,0-2.72-.7-2.72-2.14,0-1.21,1.06-2.15,3.13-2.5l2.12-.35v-.45a1.68,1.68,0,0,0-1.87-1.76,2.34,2.34,0,0,0-2.29,1.52l-.94-.69a3.24,3.24,0,0,1,3.23-2c1.83,0,3.15.86,3.15,2.72V211c0,.39.16.58.61.58A2.67,2.67,0,0,0,492.23,211.47Zm-2.53-1.68v-1.1l-1.79.33c-1.41.26-2.13.72-2.13,1.48s.55,1,1.46,1C488.52,211.52,489.7,210.85,489.7,209.79Z"/><path d="M503.56,211.92a3,3,0,0,1-2.06.72,2,2,0,0,1-2.23-2.14v-4.92h-1.6v-1.1h1.6v-1.92l1.28-.36v2.28h3v1.1h-3v4.69a1.09,1.09,0,0,0,1.2,1.17,1.87,1.87,0,0,0,1.37-.59Z"/><path d="M512.17,209h-6a2.53,2.53,0,0,0,2.61,2.56c1.17,0,2-.42,2.25-1.19l1.08.56a3.43,3.43,0,0,1-3.33,1.75c-2.42,0-3.88-1.57-3.88-4.16s1.36-4.16,3.78-4.16a3.47,3.47,0,0,1,3.59,3.74A6.58,6.58,0,0,1,512.17,209Zm-6-1.14H511c-.17-1.47-1-2.38-2.35-2.38A2.42,2.42,0,0,0,506.15,207.82Z"/><path d="M527,207.36v5.12h-1.28v-5a1.79,1.79,0,0,0-1.89-2.05,2.41,2.41,0,0,0-2.37,2.65v4.39H520.2v-5a1.79,1.79,0,0,0-1.89-2.05,2.46,2.46,0,0,0-2.36,2.77v4.27h-1.28v-8h1.12l.08,1.24a2.88,2.88,0,0,1,2.56-1.4,3,3,0,0,1,2.75,1.56,3.08,3.08,0,0,1,2.78-1.56A2.87,2.87,0,0,1,527,207.36Z"/><path d="M537.5,208.48c0,2.61-1.42,4.16-3.65,4.16a3,3,0,0,1-2.66-1.41v4.61h-1.28V204.48H531l.08,1.39a3,3,0,0,1,2.74-1.55C536.08,204.32,537.5,205.87,537.5,208.48Zm-1.28,0c0-1.86-.94-3-2.51-3s-2.52,1.13-2.52,2.94v.19c0,1.81,1,3,2.52,3S536.22,210.33,536.22,208.48Z"/><path d="M544.65,204.48l-.25,1.24a2.24,2.24,0,0,0-3.13,2.44v4.32H540v-8h1l.18,1.31a2.56,2.56,0,0,1,2.56-1.47A2,2,0,0,1,544.65,204.48Z"/><path d="M553.5,211.47l-.08,1a2.88,2.88,0,0,1-1,.16,1.26,1.26,0,0,1-1.44-1.18,3.15,3.15,0,0,1-2.58,1.18c-1.5,0-2.72-.7-2.72-2.14,0-1.21,1.06-2.15,3.12-2.5l2.13-.35v-.45a1.68,1.68,0,0,0-1.87-1.76,2.34,2.34,0,0,0-2.29,1.52l-.95-.69a3.25,3.25,0,0,1,3.24-2c1.82,0,3.15.86,3.15,2.72V211c0,.39.16.58.61.58A2.67,2.67,0,0,0,553.5,211.47ZM551,209.79v-1.1l-1.79.33c-1.41.26-2.13.72-2.13,1.48s.54,1,1.45,1C549.79,211.52,551,210.85,551,209.79Z"/><path d="M562.36,207.36v5.12h-1.28v-4.67c0-1.78-.86-2.37-2-2.37a2.46,2.46,0,0,0-2.48,2.78v4.26h-1.28v-8h1.12l.08,1.24a2.91,2.91,0,0,1,2.69-1.4A2.86,2.86,0,0,1,562.36,207.36Z"/><path d="M572.46,211.47l-.08,1a2.93,2.93,0,0,1-1,.16,1.26,1.26,0,0,1-1.44-1.18,3.18,3.18,0,0,1-2.58,1.18c-1.5,0-2.72-.7-2.72-2.14,0-1.21,1.06-2.15,3.12-2.5l2.13-.35v-.45a1.68,1.68,0,0,0-1.87-1.76,2.34,2.34,0,0,0-2.29,1.52l-.95-.69a3.25,3.25,0,0,1,3.24-2c1.82,0,3.15.86,3.15,2.72V211c0,.39.16.58.61.58A2.67,2.67,0,0,0,572.46,211.47Zm-2.53-1.68v-1.1l-1.79.33c-1.41.26-2.13.72-2.13,1.48s.54,1,1.45,1C568.74,211.52,569.93,210.85,569.93,209.79Z"/><path d="M581.85,213.82c-.62,1.57-1.34,2.1-2.52,2.1a2.17,2.17,0,0,1-1.77-.67l.45-1.09a1.5,1.5,0,0,0,1.3.64c.56,0,1.06-.24,1.46-1.3l.41-1-3.34-8h1.45l2,5.21.5,1.43.58-1.59,1.87-5.05h1.38Z"/><path d="M599.81,208.48c0,2.61-1.42,4.16-3.64,4.16a3,3,0,0,1-2.66-1.41v4.61h-1.28V204.48h1.12l.08,1.39a3,3,0,0,1,2.74-1.55C598.39,204.32,599.81,205.87,599.81,208.48Zm-1.28,0c0-1.86-.94-3-2.51-3s-2.51,1.13-2.51,2.94v.19c0,1.81,1,3,2.51,3S598.53,210.33,598.53,208.48Z"/><path d="M609.24,204.48v8h-1.12l-.08-1.22a3.08,3.08,0,0,1-2.87,1.38,2.68,2.68,0,0,1-2.94-2.93v-5.23h1.28v4.89c0,1.65.74,2.15,1.89,2.15a2.43,2.43,0,0,0,2.56-2.69v-4.35Z"/><path d="M619,209h-6a2.53,2.53,0,0,0,2.61,2.56,2.17,2.17,0,0,0,2.26-1.19l1.07.56a3.43,3.43,0,0,1-3.33,1.75c-2.42,0-3.87-1.57-3.87-4.16s1.36-4.16,3.77-4.16a3.47,3.47,0,0,1,3.59,3.74A5.29,5.29,0,0,1,619,209Zm-6-1.14h4.85c-.18-1.47-1-2.38-2.36-2.38A2.41,2.41,0,0,0,613,207.82Z"/><path d="M628.62,200.79v11.69h-1.13l-.08-1.39a3,3,0,0,1-2.73,1.55c-2.23,0-3.65-1.55-3.65-4.16s1.42-4.16,3.65-4.16a3,3,0,0,1,2.65,1.4v-4.93Zm-1.29,7.78v-.19c0-1.81-1-2.94-2.51-2.94s-2.51,1.18-2.51,3,.94,3,2.51,3S627.33,210.38,627.33,208.57Z"/><path d="M638.39,209h-6a2.53,2.53,0,0,0,2.61,2.56,2.17,2.17,0,0,0,2.25-1.19l1.07.56a3.41,3.41,0,0,1-3.32,1.75c-2.42,0-3.88-1.57-3.88-4.16s1.36-4.16,3.78-4.16a3.47,3.47,0,0,1,3.59,3.74A6.58,6.58,0,0,1,638.39,209Zm-6-1.14h4.85c-.17-1.47-1-2.38-2.35-2.38A2.41,2.41,0,0,0,632.37,207.82Z"/><path d="M653.34,211.47l-.08,1a2.88,2.88,0,0,1-1,.16,1.27,1.27,0,0,1-1.44-1.18,3.14,3.14,0,0,1-2.57,1.18c-1.51,0-2.73-.7-2.73-2.14,0-1.21,1.06-2.15,3.12-2.5l2.13-.35v-.45a1.68,1.68,0,0,0-1.87-1.76,2.34,2.34,0,0,0-2.29,1.52l-.94-.69a3.24,3.24,0,0,1,3.23-2c1.83,0,3.15.86,3.15,2.72V211c0,.39.16.58.61.58A2.67,2.67,0,0,0,653.34,211.47Zm-2.53-1.68v-1.1L649,209c-1.41.26-2.13.72-2.13,1.48s.55,1,1.46,1C649.63,211.52,650.81,210.85,650.81,209.79Z"/><path d="M657.77,213.82c-.62,1.57-1.34,2.1-2.53,2.1a2.16,2.16,0,0,1-1.76-.67l.45-1.09a1.5,1.5,0,0,0,1.3.64c.56,0,1-.24,1.45-1.3l.42-1-3.34-8h1.45l2,5.21.5,1.43.58-1.59,1.87-5.05h1.37Z"/><path d="M670.22,204.48v8H669.1l-.08-1.22a3.07,3.07,0,0,1-2.86,1.38,2.69,2.69,0,0,1-2.95-2.93v-5.23h1.28v4.89c0,1.65.74,2.15,1.89,2.15a2.43,2.43,0,0,0,2.56-2.69v-4.35Z"/><path d="M680.3,200.79v11.69h-1.12l-.08-1.39a3,3,0,0,1-2.74,1.55c-2.22,0-3.65-1.55-3.65-4.16s1.43-4.16,3.65-4.16a3,3,0,0,1,2.66,1.4v-4.93ZM679,208.57v-.19c0-1.81-1-2.94-2.51-2.94s-2.51,1.18-2.51,3,.94,3,2.51,3S679,210.38,679,208.57Z"/><path d="M690.48,211.47l-.08,1a2.93,2.93,0,0,1-1,.16,1.26,1.26,0,0,1-1.44-1.18,3.18,3.18,0,0,1-2.58,1.18c-1.5,0-2.72-.7-2.72-2.14,0-1.21,1-2.15,3.12-2.5l2.13-.35v-.45a1.68,1.68,0,0,0-1.87-1.76,2.34,2.34,0,0,0-2.29,1.52l-.95-.69a3.25,3.25,0,0,1,3.24-2c1.82,0,3.15.86,3.15,2.72V211c0,.39.16.58.61.58A2.67,2.67,0,0,0,690.48,211.47ZM688,209.79v-1.1l-1.79.33c-1.41.26-2.13.72-2.13,1.48s.54,1,1.45,1C686.76,211.52,688,210.85,688,209.79Z"/><path d="M697,204.48l-.26,1.24a2.31,2.31,0,0,0-1-.2c-1,0-2.11.85-2.11,2.64v4.32h-1.28v-8h1l.18,1.31a2.56,2.56,0,0,1,2.56-1.47A2,2,0,0,1,697,204.48Z"/><path d="M355.69,230.67l-.08,1a2.88,2.88,0,0,1-1,.16,1.26,1.26,0,0,1-1.44-1.18,3.15,3.15,0,0,1-2.58,1.18c-1.5,0-2.72-.7-2.72-2.14,0-1.21,1.06-2.15,3.12-2.5l2.13-.35v-.45a1.68,1.68,0,0,0-1.87-1.76,2.34,2.34,0,0,0-2.29,1.52l-.94-.69a3.25,3.25,0,0,1,3.23-1.95c1.82,0,3.15.86,3.15,2.72v3.93c0,.39.16.58.61.58A2.67,2.67,0,0,0,355.69,230.67ZM353.16,229v-1.1l-1.79.33c-1.41.26-2.13.72-2.13,1.48s.55,1,1.46,1C352,230.72,353.16,230.05,353.16,229Z"/><path d="M370.22,227.68c0,2.61-1.43,4.16-3.65,4.16a3,3,0,0,1-2.66-1.41V235h-1.28V223.68h1.12l.08,1.39a3,3,0,0,1,2.74-1.55C368.79,223.52,370.22,225.07,370.22,227.68Zm-1.28,0c0-1.86-.95-3-2.51-3s-2.52,1.13-2.52,2.94v.19c0,1.81,1,2.95,2.52,2.95S368.94,229.54,368.94,227.68Z"/><path d="M377.37,223.68l-.26,1.24a2.3,2.3,0,0,0-1-.2,2.35,2.35,0,0,0-2.12,2.64v4.32h-1.28v-8h1l.18,1.31a2.56,2.56,0,0,1,2.56-1.47A2,2,0,0,1,377.37,223.68Z"/><path d="M385.79,228.16h-6a2.53,2.53,0,0,0,2.61,2.56,2.18,2.18,0,0,0,2.26-1.18l1.07.55a3.43,3.43,0,0,1-3.33,1.75c-2.41,0-3.87-1.57-3.87-4.16s1.36-4.16,3.78-4.16a3.46,3.46,0,0,1,3.58,3.74A6.83,6.83,0,0,1,385.79,228.16Zm-6-1.14h4.85c-.18-1.47-1-2.38-2.35-2.38A2.41,2.41,0,0,0,379.77,227Z"/><path d="M394.7,223.68l-3.33,8h-1.28l-3.33-8h1.46l2.53,6.7,2.6-6.7Z"/><path d="M403.18,228.16h-6a2.53,2.53,0,0,0,2.61,2.56,2.18,2.18,0,0,0,2.26-1.18l1.07.55a3.43,3.43,0,0,1-3.33,1.75c-2.41,0-3.87-1.57-3.87-4.16s1.36-4.16,3.78-4.16a3.46,3.46,0,0,1,3.58,3.74A6.83,6.83,0,0,1,403.18,228.16Zm-6-1.14H402c-.18-1.47-1-2.38-2.35-2.38A2.41,2.41,0,0,0,397.16,227Z"/><path d="M412.68,226.56v5.12H411.4V227c0-1.78-.86-2.37-2-2.37a2.46,2.46,0,0,0-2.48,2.78v4.26h-1.28v-8h1.12l.08,1.24a2.91,2.91,0,0,1,2.69-1.4A2.86,2.86,0,0,1,412.68,226.56Z"/><path d="M415.26,221.18a1,1,0,1,1,1,1A.9.9,0,0,1,415.26,221.18Zm1.6,10.5h-1.28v-8h1.28Z"/><path d="M424.49,223.68l-.26,1.24a2.3,2.3,0,0,0-1-.2c-1,0-2.12.85-2.12,2.64v4.32h-1.28v-8h1l.18,1.31a2.56,2.56,0,0,1,2.56-1.47A2,2,0,0,1,424.49,223.68Z"/><path d="M438.14,225.65l-1.22.57a2.07,2.07,0,0,0-2.13-1.58c-1.6,0-2.56,1.13-2.56,3s1,3,2.56,3a2,2,0,0,0,2.24-1.65l1.19.42a3.4,3.4,0,0,1-3.39,2.35c-2.42,0-3.88-1.57-3.88-4.16s1.46-4.16,3.88-4.16A3.39,3.39,0,0,1,438.14,225.65Z"/><path d="M447.72,227.68c0,2.59-1.45,4.16-3.87,4.16s-3.87-1.57-3.87-4.16,1.45-4.16,3.87-4.16S447.72,225.08,447.72,227.68Zm-6.46,0c0,1.9,1,3.06,2.59,3.06s2.59-1.16,2.59-3.06-1-3.06-2.59-3.06S441.26,225.77,441.26,227.68Z"/><path d="M462.56,226.56v5.12h-1.28v-5a1.79,1.79,0,0,0-1.89-2.05,2.41,2.41,0,0,0-2.37,2.65v4.39h-1.28v-5a1.79,1.79,0,0,0-1.89-2.05,2.46,2.46,0,0,0-2.37,2.77v4.27H450.2v-8h1.12l.08,1.24a2.9,2.9,0,0,1,2.56-1.4,3,3,0,0,1,2.75,1.56,3.08,3.08,0,0,1,2.79-1.56A2.87,2.87,0,0,1,462.56,226.56Z"/><path d="M473,227.68c0,2.61-1.42,4.16-3.64,4.16a3,3,0,0,1-2.66-1.41V235h-1.28V223.68h1.12l.08,1.39a3,3,0,0,1,2.74-1.55C471.61,223.52,473,225.07,473,227.68Zm-1.28,0c0-1.86-.94-3-2.51-3s-2.51,1.13-2.51,2.94v.19c0,1.81,1,2.95,2.51,2.95S471.75,229.54,471.75,227.68Z"/><path d="M476.74,229.54c0,.81.21,1.07.87,1.07a2.83,2.83,0,0,0,1.17-.23l-.21,1.24a3.23,3.23,0,0,1-1.19.22c-1.29,0-1.92-.69-1.92-2.14V220h1.28Z"/><path d="M480.1,221.18a1,1,0,1,1,1,1A.91.91,0,0,1,480.1,221.18Zm1.6,10.5h-1.28v-8h1.28Z"/><path d="M491.37,225.65l-1.22.57a2.06,2.06,0,0,0-2.12-1.58c-1.61,0-2.57,1.13-2.57,3s1,3,2.57,3a2.05,2.05,0,0,0,2.24-1.65l1.18.42a3.39,3.39,0,0,1-3.39,2.35c-2.42,0-3.88-1.57-3.88-4.16s1.46-4.16,3.88-4.16A3.38,3.38,0,0,1,491.37,225.65Z"/><path d="M500.91,230.67l-.08,1a2.93,2.93,0,0,1-1,.16,1.26,1.26,0,0,1-1.44-1.18,3.18,3.18,0,0,1-2.58,1.18c-1.51,0-2.72-.7-2.72-2.14,0-1.21,1.05-2.15,3.12-2.5l2.13-.35v-.45a1.68,1.68,0,0,0-1.88-1.76,2.34,2.34,0,0,0-2.28,1.52l-1-.69a3.26,3.26,0,0,1,3.23-1.95c1.83,0,3.16.86,3.16,2.72v3.93c0,.39.16.58.61.58A2.8,2.8,0,0,0,500.91,230.67ZM498.38,229v-1.1l-1.8.33c-1.4.26-2.12.72-2.12,1.48s.54,1,1.45,1C497.19,230.72,498.38,230.05,498.38,229Z"/><path d="M509.45,225.65l-1.22.57a2.07,2.07,0,0,0-2.13-1.58c-1.6,0-2.56,1.13-2.56,3s1,3,2.56,3a2.06,2.06,0,0,0,2.25-1.65l1.18.42a3.39,3.39,0,0,1-3.39,2.35c-2.42,0-3.88-1.57-3.88-4.16s1.46-4.16,3.88-4.16A3.38,3.38,0,0,1,509.45,225.65Z"/><path d="M511.46,221.18a1,1,0,1,1,1,1A.91.91,0,0,1,511.46,221.18Zm1.6,10.5h-1.28v-8h1.28Z"/><path d="M523.29,227.68c0,2.59-1.46,4.16-3.87,4.16s-3.88-1.57-3.88-4.16,1.46-4.16,3.88-4.16S523.29,225.08,523.29,227.68Zm-6.47,0c0,1.9,1,3.06,2.6,3.06s2.59-1.16,2.59-3.06-1-3.06-2.59-3.06S516.82,225.77,516.82,227.68Z"/><path d="M532.78,226.56v5.12H531.5V227c0-1.78-.87-2.37-2-2.37a2.46,2.46,0,0,0-2.48,2.78v4.26h-1.28v-8h1.12l.08,1.24a2.9,2.9,0,0,1,2.69-1.4A2.86,2.86,0,0,1,532.78,226.56Z"/><path d="M542.47,228.16h-6a2.53,2.53,0,0,0,2.61,2.56,2.17,2.17,0,0,0,2.25-1.18l1.08.55a3.43,3.43,0,0,1-3.33,1.75c-2.42,0-3.88-1.57-3.88-4.16s1.36-4.16,3.78-4.16a3.47,3.47,0,0,1,3.59,3.74A6.58,6.58,0,0,1,542.47,228.16Zm-6-1.14h4.85c-.17-1.47-1-2.38-2.35-2.38A2.42,2.42,0,0,0,536.45,227Z"/><path d="M544.25,230l1-.72a2.48,2.48,0,0,0,2.52,1.41c1.32,0,1.94-.53,1.94-1.18s-.5-.95-2.1-1.24c-2.27-.41-3.1-1-3.1-2.38s1.2-2.4,3.15-2.4c1.72,0,2.72.6,3.17,1.92l-1.09.64a1.94,1.94,0,0,0-2.08-1.44c-1.07,0-1.87.57-1.87,1.17s.53,1,2.16,1.31c2.24.37,3,1,3,2.35s-1.29,2.37-3.34,2.37A3.64,3.64,0,0,1,544.25,230Z"/><path d="M565.74,232.56c0,1.58-1.8,2.56-4,2.56-2.53,0-3.68-.91-3.68-2.11a1.66,1.66,0,0,1,1.41-1.55,1.66,1.66,0,0,1-1.09-1.48,1.59,1.59,0,0,1,1.2-1.57,2.47,2.47,0,0,1-1.17-2.19c0-1.58,1.36-2.7,3.28-2.7a4.07,4.07,0,0,1,1.64.32,2.08,2.08,0,0,1,2.25-1.64l.29,1.12c-1.07,0-1.68.31-1.9.89a2.44,2.44,0,0,1,1,2c0,1.59-1.36,2.71-3.29,2.71a4.55,4.55,0,0,1-1.23-.15c-.64.15-.89.47-.89,1s.43.87,1,.87h2.66C564.84,230.66,565.74,231.41,565.74,232.56Zm-1.19.14c0-.57-.38-.94-1.58-.94h-2.15c-1,0-1.53.38-1.53,1,0,.79.88,1.3,2.64,1.3S564.55,233.41,564.55,232.7Zm-4.77-6.48a2,2,0,1,0,2-1.66A1.77,1.77,0,0,0,559.78,226.22Z"/><path d="M572.29,223.68l-.25,1.24a2.31,2.31,0,0,0-1-.2c-1,0-2.11.85-2.11,2.64v4.32h-1.28v-8h1l.17,1.31a2.57,2.57,0,0,1,2.57-1.47A2,2,0,0,1,572.29,223.68Z"/><path d="M581.14,230.67l-.08,1a2.88,2.88,0,0,1-1,.16,1.27,1.27,0,0,1-1.44-1.18,3.14,3.14,0,0,1-2.57,1.18c-1.51,0-2.72-.7-2.72-2.14,0-1.21,1-2.15,3.12-2.5l2.13-.35v-.45a1.68,1.68,0,0,0-1.88-1.76,2.36,2.36,0,0,0-2.29,1.52l-.94-.69a3.26,3.26,0,0,1,3.23-1.95c1.83,0,3.16.86,3.16,2.72v3.93c0,.39.16.58.6.58A2.67,2.67,0,0,0,581.14,230.67ZM578.62,229v-1.1l-1.8.33c-1.41.26-2.13.72-2.13,1.48s.55,1,1.46,1C577.43,230.72,578.62,230.05,578.62,229Z"/><path d="M589.37,223.68l-3.33,8h-1.28l-3.33-8h1.45l2.53,6.7,2.61-6.7Z"/><path d="M597.85,228.16h-6a2.53,2.53,0,0,0,2.61,2.56,2.18,2.18,0,0,0,2.26-1.18l1.07.55a3.43,3.43,0,0,1-3.33,1.75c-2.41,0-3.87-1.57-3.87-4.16s1.36-4.16,3.78-4.16a3.46,3.46,0,0,1,3.58,3.74A6.83,6.83,0,0,1,597.85,228.16Zm-6-1.14h4.85c-.18-1.47-1-2.38-2.35-2.38A2.41,2.41,0,0,0,591.83,227Z"/><path d="M599.62,230l1-.72a2.5,2.5,0,0,0,2.53,1.41c1.31,0,1.94-.53,1.94-1.18s-.5-.95-2.1-1.24c-2.27-.41-3.11-1-3.11-2.38s1.2-2.4,3.16-2.4c1.71,0,2.72.6,3.17,1.92l-1.09.64a1.94,1.94,0,0,0-2.08-1.44c-1.08,0-1.88.57-1.88,1.17s.53,1,2.17,1.31c2.24.37,3,1,3,2.35s-1.3,2.37-3.35,2.37A3.66,3.66,0,0,1,599.62,230Z"/><path d="M610.45,230.8a1,1,0,1,1-1-1A1,1,0,0,1,610.45,230.8Z"/><path class="cls-14" d="M325.3,376a49.49,49.49,0,0,0,2.83-8.71c.74-3,1.27-6.1,2.13-9.15a55.5,55.5,0,0,1,3.09-9.05,24.51,24.51,0,0,1,5.48-7.88.48.48,0,0,1,.68,0l0,0a.52.52,0,0,1,0,.68,23.48,23.48,0,0,0-4.7,7.8,53.88,53.88,0,0,0-2.4,8.92c-.56,3.06-1.21,6.13-1.92,9.22a51,51,0,0,1-2.94,9.17,1.24,1.24,0,0,1-2.27-1Z"/><path class="cls-32" d="M330.31,378.35c-3,12.12-12.31-2.42-11.23,25.76"/><path class="cls-14" d="M331.9,388.17a13.17,13.17,0,0,0-2.56,3.87,9.32,9.32,0,0,0-.82,4.48,3.69,3.69,0,0,0,.77,2,3.09,3.09,0,0,0,1.81,1.08,9.09,9.09,0,0,0,4.53-.47h0a.38.38,0,0,1,.22.72h0a10.17,10.17,0,0,1-4.92.47A4,4,0,0,1,328.7,399a4.54,4.54,0,0,1-1-2.4,10.41,10.41,0,0,1,.82-4.87,18.09,18.09,0,0,1,2.46-4.29.57.57,0,0,1,.8-.11h0a.56.56,0,0,1,.11.78h0Z"/><path class="cls-14" d="M353,396.86l-7.67,7.2h0a.27.27,0,0,1-.37,0,.26.26,0,0,1,0-.37l7.52-7.4a.37.37,0,0,1,.53.05.39.39,0,0,1,0,.49h0Z"/><path class="cls-14" d="M345,388a19.92,19.92,0,0,1-3.14,4.67c-1.21,1.41-2.47,2.74-3.57,4.19a.25.25,0,0,1-.35.06.25.25,0,0,1-.06-.35h0c1.05-1.54,2.26-2.94,3.38-4.39a19.14,19.14,0,0,0,2.78-4.58.51.51,0,0,1,.67-.3.53.53,0,0,1,.3.67Z"/><path class="cls-4" d="M323.75,375.74c3.48-1.07,8.84,1.39,5.73,5.32C327.75,379.46,322.17,378.89,323.75,375.74Z"/><path class="cls-11" d="M156.26,370.61c3.5,3.47,7.77,6.62,12.77,7.35s9.69-1.42,13.47-4.69c1.1-.95-.5-2.53-1.59-1.59-3.34,2.89-7.51,4.82-12,4s-8-3.61-11.06-6.66a1.13,1.13,0,0,0-1.59,1.6h0Z"/><path class="cls-4" d="M96.22,631.77a4.31,4.31,0,0,1-1.2-.26l-.31-.09a3.08,3.08,0,0,1-1-.54,50.13,50.13,0,0,1-11-10.33,19.55,19.55,0,0,1-1.85-3.29,7.43,7.43,0,0,1-.22-4.17,4.06,4.06,0,0,1,3.06-2.44,5.74,5.74,0,0,1,4.57-9.29,6.7,6.7,0,0,1,.91-7,5.52,5.52,0,0,1,4.08-1.76,5.14,5.14,0,0,1,2,.38,3.64,3.64,0,0,1,0-1.14,5.55,5.55,0,0,1,1.33-2.62,5.28,5.28,0,0,1,2.29-1.66,7.51,7.51,0,0,1,2.31-.27h.35a8.35,8.35,0,0,1,2.38.26,9.16,9.16,0,0,1,3.19,2c4.07,3.37,12.08,10.52,13.25,13.44a5.88,5.88,0,0,1,.38,2.69v.16a4.27,4.27,0,0,1-.93,2.13,10.09,10.09,0,0,1-2.37,2.56,4.51,4.51,0,0,1-2.54.84h0a4.92,4.92,0,0,1-1.59,4.93,11.58,11.58,0,0,1-5,2.26,7.28,7.28,0,0,1-.72,4.72A5.32,5.32,0,0,1,103,626a1,1,0,0,0-.36,0,1,1,0,0,0-.17.31c-.15.36-.24.64-.32.88a5.09,5.09,0,0,1-.88,1.72,9.26,9.26,0,0,1-2,1.85,2.75,2.75,0,0,0-.37.28,2.21,2.21,0,0,1-1,.6,5.21,5.21,0,0,1-.72.05H97a3.3,3.3,0,0,0-.58,0Z"/><path class="cls-14" d="M101.52,587.76a8,8,0,0,1,2.23.24,9,9,0,0,1,3,1.87c4.91,4.07,12.06,10.65,13.1,13.23a5.56,5.56,0,0,1,.33,2.65,3.71,3.71,0,0,1-.84,1.86,9.53,9.53,0,0,1-2.25,2.44,4,4,0,0,1-2.25.75,2.83,2.83,0,0,1-.91-.14c1.11,1.58.39,3.91-1,5.19a12,12,0,0,1-5.27,2.27,6.92,6.92,0,0,1-.58,4.84,4.83,4.83,0,0,1-4,2.54,1.14,1.14,0,0,0-.61.1,1.06,1.06,0,0,0-.37.55,8.12,8.12,0,0,1-1.14,2.48,8.78,8.78,0,0,1-1.79,1.71c-.33.16-.84.78-1.21.83a4.25,4.25,0,0,1-.65.05H97a4.07,4.07,0,0,0-.65,0h-.11a6.88,6.88,0,0,1-1.39-.33,3.25,3.25,0,0,1-.86-.46,50.46,50.46,0,0,1-10.89-10.24,19.11,19.11,0,0,1-1.77-3.15,7,7,0,0,1-.22-3.82c.54-1.45,2-2.09,3.56-2.29a5.25,5.25,0,0,1,3.62-9.12,4.57,4.57,0,0,1,.83.07,6.33,6.33,0,0,1,.43-7.27,5,5,0,0,1,3.71-1.59,4.27,4.27,0,0,1,3.09,1.21l.1.11-.1-.11a2.91,2.91,0,0,1-.6-2.39,4.93,4.93,0,0,1,1.21-2.37A4.86,4.86,0,0,1,99,588a7.1,7.1,0,0,1,2.16-.24h.35m0-1h-.36a7.77,7.77,0,0,0-2.47.3,5.76,5.76,0,0,0-2.51,1.81,5.9,5.9,0,0,0-1.44,2.85,3.17,3.17,0,0,0,0,.53,5.76,5.76,0,0,0-1.45-.18A6,6,0,0,0,88.78,594a7.13,7.13,0,0,0-1.24,6.9,6.45,6.45,0,0,0-5,3.45,6.39,6.39,0,0,0,.3,6,4.33,4.33,0,0,0-2.73,2.54,7.84,7.84,0,0,0,.21,4.51,19.33,19.33,0,0,0,1.94,3.44,51.22,51.22,0,0,0,11.08,10.42,3.53,3.53,0,0,0,1.19.61l.29.09a4.78,4.78,0,0,0,1.35.28l.26,0a3,3,0,0,1,.5,0h.27a5.45,5.45,0,0,0,.8-.06,2.53,2.53,0,0,0,1.24-.71,3.24,3.24,0,0,1,.28-.22,9.63,9.63,0,0,0,2.12-2,5.31,5.31,0,0,0,1-1.86c.08-.25.17-.51.31-.85v0H103a5.82,5.82,0,0,0,4.89-3,7.69,7.69,0,0,0,.85-4.59,11.49,11.49,0,0,0,4.8-2.26,5.6,5.6,0,0,0,1.87-4.84,5.24,5.24,0,0,0,2.24-.88,10.53,10.53,0,0,0,2.49-2.69,4.55,4.55,0,0,0,1-2.39v-.16a6.18,6.18,0,0,0-.41-2.91c-1.5-3.77-12.9-13.23-13.39-13.63A9.61,9.61,0,0,0,104,587a8.74,8.74,0,0,0-2.51-.28Z"/><path class="cls-14" d="M89.1,614.73c.26,0,.31.2.46.3l.38.38.79.73q.8.72,1.62,1.41c1.09.92,2.22,1.81,3.35,2.68,2.29,1.73,4.61,3.42,6.89,5.22a1,1,0,0,1-1.24,1.57l-.06,0c-2.09-2-4.26-3.85-6.36-5.83-1.05-1-2.09-2-3.1-3-.5-.52-1-1.05-1.48-1.58l-.72-.82-.34-.41c-.1-.16-.29-.23-.27-.49A.08.08,0,0,1,89.1,614.73Z"/><path class="cls-14" d="M95.66,606.32c4.46,3.72,8.65,7.74,13.15,11.28a1,1,0,0,1-1.23,1.57l-.06,0c-4.33-3.93-8.21-8.23-12.36-12.24a.37.37,0,0,1,0-.53A.38.38,0,0,1,95.66,606.32Z"/><path class="cls-14" d="M102.55,599.56c2.19,1.77,4.39,3.52,6.52,5.38s4.1,3.9,6.27,5.69a1,1,0,0,1,.14,1.42,1,1,0,0,1-1.41.14l-.16-.16h0a68.37,68.37,0,0,0-5.61-6.26c-2-2-4-3.87-6.16-5.71a.32.32,0,0,1,.41-.49Z"/></g></g></svg>