<?xml version="1.0" encoding="utf-8"?>
<!-- Generator: Adobe Illustrator 27.5.0, SVG Export Plug-In . SVG Version: 6.00 Build 0)  -->
<svg version="1.1" id="home" xmlns="http://www.w3.org/2000/svg" xmlns:xlink="http://www.w3.org/1999/xlink" x="0px" y="0px"
	 viewBox="0 0 342.9 542.4" style="enable-background:new 0 0 342.9 542.4;" xml:space="preserve">
<style type="text/css">
	.st0{opacity:0.25;}
	.st1{opacity:0.35;fill:#DFDFDF;enable-background:new    ;}
	.st2{fill:#FFFFFF;}
	.st3{fill:#E2BA9C;}
	.st4{fill:#5980B4;}
	.st5{fill:#3D6A9B;}
	.st6{fill:#784D24;}
	.st7{fill:#DDB18E;}
	.st8{fill:#E2B99C;}
	.st9{fill:#885B27;}
	.st10{fill:#784D23;}
	.st11{fill:#461E0A;}
	.st12{fill:#CC9C7F;}
	.st13{fill:#E2A087;}
	.st14{fill:#E8A692;}
	.st15{fill:#D53F4B;}
	.st16{fill:#D83E48;}
	.st17{fill:#E32E39;}
	.st18{fill:#E0323A;}
	.st19{fill:#DC353E;}
	.st20{fill:#DD3C45;}
	.st21{fill:#E9343C;}
	.st22{fill:#E54E44;}
	.st23{fill:#EFAC80;}
	.st24{fill:#DE7A60;}
	.st25{fill:#DD6148;}
	.st26{fill:#B64430;}
	.st27{fill:#E79675;}
	.st28{fill:#DE3B4A;}
	.st29{fill:#DC4847;}
	.st30{fill:#F2A180;}
	.st31{fill:#D93D4A;}
	.st32{fill:#DC3A48;}
	.st33{fill:#F5F4EC;}
	.st34{fill:#F7DBD5;}
	.st35{fill:#FFD2CD;}
	.st36{fill:#F7E2DA;}
	.st37{fill:#F7EAE5;}
	.st38{fill:#D63737;}
	.st39{fill:#F27F76;}
	.st40{fill:#F7ADA6;}
	.st41{fill:#F6C4C1;}
	.st42{fill:#D6393C;}
	.st43{fill:#EE4B54;}
	.st44{fill:#E13845;}
	.st45{fill:#DE3D41;}
	.st46{fill:#DB413F;}
	.st47{fill:#D94E41;}
	.st48{fill:#E3294E;}
	.st49{fill:#E23748;}
	.st50{fill:#E33249;}
	.st51{fill:#DE314C;}
	.st52{fill:#BD4D3A;}
	.st53{fill:#CA5B41;}
	.st54{fill:#B9362D;}
	.st55{fill:#CD4D3E;}
	.st56{fill:#DE3A4C;}
	.st57{fill:#DC3D4E;}
	.st58{fill:#F4F5ED;}
	.st59{fill:#F7F5EC;}
	.st60{fill:#F5F6EF;}
	.st61{fill:#FFCDCD;}
	.st62{fill:#DD4C55;}
	.st63{fill:#D8454C;}
	.st64{fill:#D55657;}
	.st65{fill:#DE4D51;}
	.st66{fill:#DA3E47;}
	.st67{fill:#DC404C;}
	.st68{fill:#D6414D;}
	.st69{fill:#DB4147;}
	.st70{fill:#E98575;}
	.st71{fill:#E63A4A;}
	.st72{fill:#E2394A;}
	.st73{fill:#E33B48;}
	.st74{fill:#E13D46;}
	.st75{fill:#DB284A;}
	.st76{fill:#DD324A;}
	.st77{fill:#DD3C49;}
	.st78{fill:#E56E54;}
	.st79{fill:#EF7D6E;}
	.st80{fill:#FF937E;}
	.st81{fill:#E66B65;}
	.st82{fill:#F3706B;}
	.st83{fill:#D83346;}
	.st84{fill:#D62F49;}
	.st85{fill:#D93E4C;}
	.st86{fill:#D93A4D;}
	.st87{fill:#D43D48;}
	.st88{fill:#D1453E;}
	.st89{fill:#DB5B49;}
	.st90{fill:#D24748;}
	.st91{fill:#E16E5A;}
	.st92{fill:#ED9879;}
	.st93{fill:#C2312F;}
	.st94{fill:#C1392F;}
	.st95{fill:#CA4036;}
	.st96{fill:#DA3F49;}
	.st97{fill:#D6454D;}
	.st98{fill:#D53C45;}
	.st99{fill:#D53F45;}
	.st100{fill:#D9404D;}
	.st101{fill:#D93E48;}
	.st102{fill:#D73E48;}
	.st103{fill:#D5534B;}
	.st104{fill:#CD4B41;}
	.st105{fill:#E47F68;}
	.st106{fill:#DA6A5A;}
	.st107{fill:#D74449;}
	.st108{fill:#DE3B4E;}
	.st109{fill:#E03A4C;}
	.st110{fill:#DC3A4E;}
	.st111{fill:#D9394D;}
	.st112{fill:#D7394A;}
	.st113{fill:#F6F3F1;}
	.st114{fill:#D0434E;}
	.st115{fill:#D44150;}
	.st116{fill:#D33F4E;}
	.st117{fill:#D93E4D;}
	.st118{fill:#F7F7F1;}
	.st119{fill:#D54455;}
	.st120{fill:#D23F43;}
	.st121{fill:#D5434B;}
	.st122{fill:#DD3E47;}
	.st123{fill:#D82E4B;}
	.st124{fill:#D82B47;}
	.st125{fill:#DA3247;}
	.st126{fill:#FFD9E5;}
	.st127{fill:#FFCFE1;}
	.st128{fill:#D43A4A;}
	.st129{fill:#ED8072;}
	.st130{fill:#E14C56;}
	.st131{fill:#D63140;}
	.st132{fill:#D0333A;}
	.st133{fill:#F7737E;}
	.st134{fill:#E03A48;}
	.st135{fill:#DC464A;}
	.st136{fill:#F15458;}
	.st137{fill:#E65055;}
	.st138{fill:#E8444E;}
	.st139{fill:#DC3A50;}
	.st140{fill:#DA4255;}
	.st141{fill:#D23C47;}
	.st142{fill:#EC6577;}
	.st143{fill:#DE4F5D;}
	.st144{fill:#C03B40;}
	.st145{fill:#CB3C46;}
	.st146{fill:#D24B3E;}
	.st147{fill:#CB5944;}
	.st148{fill:#B63D3B;}
	.st149{fill:#BA4940;}
	.st150{fill:#C62D32;}
	.st151{fill:#DA3F4C;}
	.st152{fill:#D83F4D;}
	.st153{fill:#D7414C;}
	.st154{fill:#F7CFD1;}
	.st155{fill:#FFD3D5;}
	.st156{fill:#F7CACB;}
	.st157{fill:#F7C7C3;}
	.st158{fill:#E0454F;}
	.st159{fill:#DB4F53;}
	.st160{fill:#F7CBD1;}
	.st161{fill:#DC6A6C;}
	.st162{fill:#FFD5D7;}
	.st163{fill:#F7CED2;}
	.st164{fill:#D3454E;}
	.st165{fill:#D64650;}
	.st166{fill:#DB4252;}
	.st167{fill:#D74150;}
	.st168{fill:#DD464C;}
	.st169{fill:#D94148;}
	.st170{fill:#EDDDDB;}
	.st171{fill:#F7F1F2;}
	.st172{fill:#F7F3F2;}
	.st173{fill:#D3394B;}
	.st174{fill:#EAC9CB;}
	.st175{fill:#D23949;}
	.st176{fill:#CF3A45;}
	.st177{fill:#F5F2F5;}
	.st178{fill:#D5424E;}
	.st179{fill:#CE3D3E;}
	.st180{fill:#F27D6A;}
	.st181{fill:#D83F48;}
	.st182{fill:#D6474D;}
	.st183{fill:#D8424D;}
	.st184{fill:#F7E9E1;}
	.st185{fill:#D0354A;}
	.st186{fill:#DD3C50;}
	.st187{fill:#E84E5A;}
	.st188{fill:#F7E9E2;}
	.st189{fill:#F7E2DF;}
	.st190{fill:#F7BED5;}
	.st191{fill:#FFACC9;}
	.st192{fill:#CD384A;}
	.st193{fill:#BF2F3C;}
	.st194{fill:#D14350;}
	.st195{fill:#F77B82;}
	.st196{fill:#FF8091;}
	.st197{fill:#F26369;}
	.st198{fill:#F16978;}
	.st199{fill:#E85E65;}
	.st200{fill:#E4555A;}
	.st201{fill:#D84756;}
	.st202{fill:#DE4355;}
	.st203{fill:#D24655;}
	.st204{fill:#D95361;}
	.st205{fill:#C73544;}
	.st206{fill:#FF859E;}
	.st207{fill:#E25F69;}
	.st208{fill:#F78796;}
	.st209{fill:#E7767C;}
	.st210{fill:#BC3630;}
	.st211{fill:#BA282F;}
	.st212{fill:#F6F4F3;}
	.st213{fill:#D7424F;}
	.st214{fill:#E34E5B;}
	.st215{fill:#D53F4C;}
	.st216{fill:#D0414D;}
	.st217{fill:#D4444F;}
	.st218{fill:#CB6260;}
	.st219{fill:#D27673;}
	.st220{fill:#D68080;}
	.st221{fill:#F7C0BD;}
	.st222{fill:#DC585A;}
	.st223{fill:#D93F4D;}
	.st224{fill:#E74D56;}
	.st225{fill:#F7B0B5;}
	.st226{fill:#F5A1AA;}
	.st227{fill:#E46C6D;}
	.st228{fill:#D54651;}
	.st229{fill:#F6BBC3;}
	.st230{fill:#EE99A2;}
	.st231{fill:#E0717B;}
	.st232{fill:#CD4351;}
	.st233{fill:#F7F3F4;}
	.st234{fill:#C93E4C;}
	.st235{fill:#C93946;}
	.st236{fill:#F5F5F6;}
	.st237{fill:#D44251;}
	.st238{fill:#D5626E;}
	.st239{fill:#E98080;}
	.st240{fill:#E17779;}
	.st241{fill:#F7EFEC;}
	.st242{fill:#FFF0EA;}
	.st243{fill:#F6E3DB;}
	.st244{fill:#F7E5E6;}
	.st245{fill:#F798B6;}
	.st246{fill:#F6D4D9;}
	.st247{fill:#F6CDCE;}
	.st248{fill:#F691A6;}
	.st249{fill:#C93748;}
	.st250{fill:#D45158;}
	.st251{fill:#F7F4F1;}
	.st252{fill:#F7F4F0;}
	.st253{fill:#C13E4D;}
	.st254{fill:#D6808A;}
	.st255{fill:#F7F2ED;}
	.st256{fill:#EC948F;}
	.st257{fill:#F3B4AF;}
	.st258{fill:#EF5961;}
	.st259{fill:#F76C76;}
	.st260{fill:#DB5260;}
	.st261{fill:#EB5F70;}
	.st262{fill:#E6A8B1;}
	.st263{fill:#C13A48;}
	.st264{fill:#628CCD;}
	.st265{fill:#5380B9;}
	.st266{fill:#DCDCDC;}
	.st267{fill:#C1C1C1;}
	.st268{fill:none;stroke:#C1C1C1;stroke-width:0.82;stroke-miterlimit:10;}
	.st269{fill:none;stroke:#C1C1C1;stroke-width:0.8;stroke-miterlimit:10;}
	.st270{fill:none;stroke:#000000;stroke-width:1.63;stroke-miterlimit:10;}
	.st271{fill:#050303;}
</style>
<g class="st0">
	<ellipse class="st1" cx="171.4" cy="528.2" rx="167.1" ry="13.2"/>
	<g>
		<path class="st2" d="M185.1,135c0.6,0,1.1,0.1,1.6,0.3c0.9,0.6,0.8,1.9,0.8,3c-2,18.3-6.3,36.3-12.9,53.5
			c-11.5-11.3-18.5-26.3-28-39.3c-1.8-2.5-3.8-5-4.4-8C139.1,128,176.7,134.8,185.1,135L185.1,135L185.1,135z"/>
		<g>
			<path class="st3" d="M107,159.4c0,0,1.1,43,0.8,48.8c-0.3,5.8-0.5,37.2,12.8,69.3c0,0,8.1,26.4,22,28.4c13.8,2-5-20.6-5-20.6
				s6.3,4,8.9,1.8c2.2-1.9-7.5-10.6-13.6-14.7c-1.5-1-2.6-2.7-2.8-4.5c-1.4-10.1-5.7-42.6-7.7-59.4c-2.1-18.4,2.9-47.1,2.9-47.1
				L107,159.4L107,159.4z"/>
			<path class="st3" d="M223.2,156c0,0-2.2,43-2.1,48.8s-0.5,37.2-14.7,68.9c0,0-8.9,26.2-22.7,27.8c-13.9,1.6,5.6-20.5,5.6-20.5
				s-6.4,3.8-9,1.6c-2.2-2,7.8-10.4,14-14.4c1.6-1,2.6-2.6,2.9-4.4c1.6-10,6.9-42.4,9.2-59.2c2.6-18.4-1.6-47.2-1.6-47.2L223.2,156
				L223.2,156z"/>
		</g>
		<path class="st4" d="M218,284c-3.1,27.2-19,98.7-19.9,105.2c-0.9,6.5-0.9,31.8-6.2,55.3c-5.4,23.5-9.4,47.1-8.8,50.8
			c0,0.1,0.1,0.3,0.1,0.5c0,0.1,0.1,0.3,0.1,0.5c0.1,0.3,0.1,0.6,0.2,0.9c0.1,0.2,0.1,0.5,0.2,0.8c0.1,0.3,0.1,0.5,0.2,0.8
			c0.1,0.3,0.1,0.5,0.2,0.8c0.3,1.2,0.6,2.6,0.9,4.1c0.1,0.6,0.2,1.2,0.3,1.8c0.1,0.6,0.2,1.1,0.3,1.8c0,0.3,0.1,0.5,0.1,0.8
			c0,0.3,0.1,0.5,0.1,0.8c0.2,1.3,0.3,2.7,0.4,4.1c0,0.3,0,0.6,0,0.8c0.4,8.1-1.4,16.3-9.5,19c-7.8,2.5-11.2-3.8-12.6-13
			c0.2-1.1,0.3-2.3,0.4-3.4c0-0.4,0.1-0.8,0.1-1.2c0,0,0-0.1,0-0.2c0.1-1.2,0.2-2.4,0.2-3.6c0,0,0-0.1,0-0.1c0.1-3,0.1-6.1,0.1-9.1
			c0-0.1,0-0.1,0-0.2c0-0.9-0.1-1.9-0.1-2.8c0-0.9-0.1-1.8-0.1-2.7c0-0.4,0-0.9-0.1-1.3l0,0c-0.1-3.2-0.3-6.2-0.4-8.8
			c0-0.7-0.1-1.5-0.1-2.3c1.1-20.1,1.5-77.1,1-90.2c-0.6-13.5,0.4-35,0.9-92.7c0-0.9-0.6-1.2-1.5-1.2l0,0c-0.7,0-1.3,0.2-1.3,0.9
			c0.5,58-0.2,79.9-0.8,93.4c-0.6,13.1,0.6,69.7,1.7,89.8c-0.1,0.8-0.1,1.6-0.1,2.3c-0.1,2.6-0.3,5.6-0.4,8.8c0,0.1,0,0.3,0,0.5
			c0,0.4,0,0.8-0.1,1.3c0,0.9-0.1,1.7-0.1,2.6c0,0.5,0,1-0.1,1.5c0,0.8,0,1.5-0.1,2.3c0,2.3,0,4.6,0,6.9c0,0.2,0,0.5,0,0.7
			c0,0.1,0,0.2,0,0.3c0,0.2,0,0.4,0,0.6c0.1,1.5,0.2,3,0.3,4.5c0.1,1.2,0.3,2.3,0.4,3.4c-1.4,9.2-4.9,15.6-12.6,13
			c-8.1-2.7-9.9-10.9-9.5-19c0-0.5,0.1-1.1,0.1-1.7c0.1-0.5,0.1-1.1,0.2-1.6c0-0.3,0.1-0.5,0.1-0.8c0-0.3,0.1-0.5,0.1-0.8
			c0-0.3,0.1-0.5,0.1-0.8s0.1-0.5,0.1-0.8c0.1-0.5,0.2-1,0.3-1.5c0-0.3,0.1-0.5,0.1-0.8c0.9-4.7,2-8.4,2.2-9.6
			c0.6-3.7-3.4-27.2-8.8-50.8s-5.4-48.8-6.2-55.3c-0.9-6.5-16.7-78-19.9-105.2c-3.1-27.2,9.5-44.2,9.5-44.2h88.5
			C208.5,239.8,221.1,256.8,218,284L218,284z"/>
		<path class="st5" d="M163.1,298.8c-0.1,0-0.2,0-0.2,0c-14.7-4.5-30.2-4.2-30.4-4.2h0c-0.4,0-0.7-0.3-0.8-0.7
			c0-0.4,0.3-0.7,0.7-0.7c0.1,0,8.2-0.1,18.4,1.5c-2.4-0.8-4.8-1.5-6.4-1.9c-0.4-0.1-0.6-0.5-0.5-0.8s0.5-0.6,0.9-0.5
			c5.3,1.4,17.9,5.8,18.4,6c0.4,0.1,0.6,0.5,0.4,0.9C163.7,298.6,163.4,298.8,163.1,298.8L163.1,298.8z"/>
		<path class="st5" d="M149.1,399.1c-6.3,0-8-5.9-8-6c-0.1-0.4,0.1-0.7,0.5-0.8c0.4-0.1,0.7,0.1,0.8,0.5l0,0c0.1,0.2,1.5,5.1,6.9,5
			c4.8-0.1,6.1-4.8,6.2-5c0.1-0.4,0.5-0.6,0.8-0.5s0.6,0.5,0.5,0.8c0,0.1-1.6,5.9-7.4,6C149.2,399.1,149.1,399.1,149.1,399.1
			L149.1,399.1z"/>
		<path class="st5" d="M166,298.8c-0.3,0-0.6-0.2-0.7-0.4c-0.1-0.3,0.1-0.7,0.4-0.9c0.5-0.2,12.9-4.7,18.1-6
			c0.4-0.1,0.8,0.1,0.9,0.5c0.1,0.4-0.1,0.7-0.5,0.8c-1.6,0.4-3.8,1.1-6.2,1.9c9.9-1.6,17.9-1.5,18-1.5c0.4,0,0.7,0.3,0.7,0.7
			c0,0.4-0.3,0.7-0.7,0.7h0c-0.1,0-15.3-0.2-29.7,4.2C166.2,298.8,166.1,298.8,166,298.8L166,298.8z"/>
		<path class="st5" d="M179.4,399.1c-0.1,0-0.1,0-0.2,0c-5.9-0.1-7.4-5.9-7.4-6c-0.1-0.4,0.1-0.7,0.5-0.8c0.4-0.1,0.7,0.1,0.8,0.5
			c0.1,0.2,1.4,4.9,6.2,5c5.4,0.1,6.9-4.9,6.9-5c0.1-0.4,0.5-0.6,0.8-0.5c0.4,0.1,0.6,0.5,0.5,0.8
			C187.3,393.2,185.7,399.1,179.4,399.1z"/>
		<path class="st3" d="M186.4,515.5c-5.7-1.3-13.9-2.1-21.8,0.9c0-0.4,0.1-0.8,0.1-1.2c0,0,0-0.1,0-0.2c0.1-1.2,0.2-2.4,0.2-3.6
			c0,0,0-0.1,0-0.1c0.1-3,0.1-6.1,0.1-9.1c0-0.1,0-0.1,0-0.2c0-0.9-0.1-1.9-0.1-2.8c0-0.9-0.1-1.8-0.1-2.7c0-0.4,0-0.9-0.1-1.3l0,0
			c2.4,1.4,5.4,2.8,8,2.8c5.7,0,10.3-2.5,10.3-2.5c0,0.1,0.1,0.3,0.1,0.5c0,0.1,0.1,0.3,0.1,0.5c0.1,0.3,0.1,0.6,0.2,0.9
			c0.1,0.2,0.1,0.5,0.2,0.8c0.1,0.3,0.1,0.5,0.2,0.8c0.1,0.3,0.1,0.5,0.2,0.8c0.3,1.2,0.6,2.6,0.9,4.1c0.1,0.6,0.2,1.2,0.3,1.8
			c0.1,0.6,0.2,1.1,0.3,1.8c0,0.3,0.1,0.5,0.1,0.8c0,0.3,0.1,0.5,0.1,0.8c0.2,1.4,0.3,2.7,0.4,4.1c0,0.3,0,0.6,0,0.8
			C186.4,514.4,186.4,515,186.4,515.5L186.4,515.5z"/>
		<path class="st3" d="M163.8,516.4c-7.9-3-16.1-2.2-21.8-0.9c0-0.5,0-1.1,0-1.7c0-0.5,0.1-1.1,0.1-1.7c0.1-0.5,0.1-1.1,0.2-1.6
			c0-0.3,0.1-0.5,0.1-0.8c0-0.3,0.1-0.5,0.1-0.8c0-0.3,0.1-0.5,0.1-0.8s0.1-0.5,0.1-0.8c0.1-0.5,0.2-1,0.3-1.5
			c0-0.3,0.1-0.5,0.1-0.8c0.9-4.7,2-8.4,2.2-9.6c0,0,4.6,2.5,10.3,2.5c2.6,0,5.6-1.3,8-2.8c0,0.1,0,0.3,0,0.5c0,0.4,0,0.9-0.1,1.3
			c0,0.9-0.1,1.7-0.1,2.6c0,0.5,0,1-0.1,1.5c0,0.8,0,1.5-0.1,2.3c0,2.3,0,4.6,0,6.9c0,0.2,0,0.5,0,0.7c0,0.1,0,0.2,0,0.3
			c0,0.2,0,0.4,0,0.6C163.5,513.4,163.6,514.9,163.8,516.4L163.8,516.4z"/>
		<path class="st6" d="M173.7,7.9c0,0-29.8-10.7-47.8,17.7c-2.9,4.6-2.6,12.5-2.3,17.6c0.5,7.6,2.3,15.1,4.9,22.3
			c1.6,4.5,3.5,8.2,4,12.9c0.5,5.1,0.8,10.2,2.6,15.1c1.4,3.7,0.8,10.7,1.4,14.6c0.7,4.3,2.2,5.1,2.2,9.5s1.8,9.3,5.9,10.7
			c1.3,0.4,2.6,0.4,3.9,0.5c10.5,0.2,21.1,0.4,31.6,0.6c2.3,0,4.6,0.1,6.9-0.5c4.8-1.3,8.1-5.6,9.8-10.2c1.4-3.7-5.1,14.2-3.2-17.6
			c0.4-6.6,2.2-8.4,2.1-14.9c0,0,3.9-5,8.5-38.3C204.3,47.9,204.9,11.4,173.7,7.9L173.7,7.9z"/>
		<path class="st3" d="M136.5,60.5l-0.2-2.6c0-0.9-0.2-1.8-0.6-2.7c-1.4-2.2-4.2-1.4-5.7,0.2c-1.5,1.6-1.4,3.5-0.9,5.5
			c0.4,1.8,1.8,3.1,3.5,3.5c1.5,0.3,3.1-0.6,3.4-2.2v-0.1C136.4,61.7,136.6,61.1,136.5,60.5L136.5,60.5z"/>
		<path class="st7" d="M134.8,58.8c0-0.5-0.1-1-0.3-1.5c-0.1-0.3-0.3-0.5-0.6-0.6h0l0-1c0-0.3-0.1-0.6-0.2-0.8
			c-0.2-0.3-0.5-0.5-0.8-0.5c-0.5-0.1-1-0.1-1.5,0c-0.4,0.2-0.8,0.4-1.1,0.7c-0.1,0.1-0.3,0.3-0.3,0.4c-0.1,0.2-0.1,0.4,0,0.6
			c0.1,0.3,0.4,0.5,0.8,0.6l0,0c0.1,0,0.2,0,0.3,0l0,0l0.1,0l0,0l0.1,0.1l0.2,0.2l0.1,0.1v0c0.1,0.1,0.1,0.2,0.2,0.2l0,0.1
			c-0.3,0.2-0.5,0.4-0.8,0.7c-0.6,0.7-0.8,1.5-0.7,2.4c0.3,1.7,1.6,3.1,3.3,3.4c0.4,0.1,0.9-0.2,1-0.6c0.2-1,0.2-2,0.2-3.1
			C134.9,59.8,134.9,59.3,134.8,58.8L134.8,58.8L134.8,58.8z"/>
		<path class="st8" d="M136.7,75.3c0.2,2.8,0.6,5.6,1.3,8.4c2.4,4.8,6.6,8.9,10.5,12.2c4.9,3.6,9.1,6.4,14.1,8.3
			c0.5,0.1,0.9,0.2,1.4,0.1c1.1-0.2,1.2-0.6,2.3-0.5c1.1-5.8-0.4-14.3-1-20.1c-0.1-2.3-0.7-4.6-1.7-6.7c-0.6-0.9-1.1-1.8-1.5-2.8
			c-0.4-1.5-0.4-3-0.1-4.5l2.7-23c0.4-3.4,0.8-6.9,0-10.3c-0.1-0.5-0.3-0.9-0.6-1.2c-0.6-0.3-1.2-0.3-1.8-0.1
			c-4.5,1-9.1,2.2-13.6,3.3c-4,1-9.1,1.7-12.8,3.5c-2.7,1.4-2.5,3.5-2.1,6.1c0.6,4,0.5,7.4,1,11.5C135.4,64.5,136.5,70.2,136.7,75.3
			L136.7,75.3z"/>
		<path class="st3" d="M164.6,40.9l-1.2,15.9c-0.1,3-0.6,6-1.4,8.9c-0.6,1.7-1.4,3.3-1.7,5.1c-0.3,1.8,0.1,3.8,1.5,4.9
			c0.5,0.3,0.9,0.6,1.4,1c0.7,0.8,0.6,1.9,0.5,2.9c-0.7,7.6-0.3,15.3,1,22.8c0.1,0.6,0.3,1.2,0.5,1.8c0.5,0.6,1.2-0.4,1.9-0.6
			c2.7-0.9,5.4-2.1,7.9-3.5c6.4-3.4,8.6-5.1,12.9-11.3c0.9-2.4,4.7-7.5,4.9-10.1c1.2-9.6,1.4-19.3,0.6-29c-0.3-4-0.9-8.1-3.2-11.3
			c-1.5-1.8-3.3-3.4-5.4-4.5c-4.1-2.5-8.6-4.3-13.3-5.5c-2.6-0.6-5.9-1-6.6,2.1S164.8,37.7,164.6,40.9L164.6,40.9z"/>
		<path class="st3" d="M191.7,58.5l0-2.6c-0.1-0.9,0-1.9,0.4-2.7c1.2-2.3,4.1-1.8,5.7-0.3s1.7,3.4,1.3,5.4c-0.2,1.8-1.5,3.3-3.2,3.8
			c-1.5,0.5-3.1-0.4-3.6-1.8v-0.1C191.9,59.7,191.7,59.1,191.7,58.5L191.7,58.5z"/>
		<path class="st7" d="M193.4,56c0-0.5,0-1,0.1-1.5c0.1-0.3,0.3-0.5,0.6-0.6h0c-0.1-0.3-0.1-0.6-0.1-1c0-0.3,0-0.6,0.1-0.9
			c0.2-0.3,0.5-0.5,0.8-0.6c0.5-0.2,1-0.2,1.5-0.1c0.4,0.1,0.8,0.3,1.2,0.6c0.1,0.1,0.3,0.2,0.4,0.4c0.1,0.2,0.1,0.4,0.1,0.6
			c-0.1,0.3-0.4,0.6-0.7,0.7l0,0l-0.3,0.1l0,0l-0.1,0.1l0,0l-0.1,0.1l-0.2,0.2l-0.1,0.1v0.1l-0.2,0.3v0.1c0.3,0.2,0.6,0.3,0.8,0.6
			c0.6,0.6,1,1.5,0.9,2.3c-0.1,1.8-1.4,3.2-3.1,3.7c-0.4,0.1-0.9-0.1-1.1-0.5c-0.2-1-0.4-2-0.5-3C193.4,57,193.4,56.5,193.4,56
			L193.4,56L193.4,56z"/>
		<path class="st6" d="M127.3,53.3c0.6,1.3,4.5,0.7,5.7-0.2s-0.2-1.7,0.6-2.9c2.1-3.1,5.7-5,9.3-5.9c3.6-0.9,7.4-1.1,11.2-1.7
			c3.4-0.6,6.6-1.5,9.8-2.7c1.9-0.8,3.9-1.8,4.8-3.8c0.6-1.3,0.8-3.2,2.2-3.3c4.1,5.6,10.3,10.1,16.4,13.5c2.4,1.4,5.2,3,5.8,5.8
			c0.1,0.5,0.3,1.2,0.9,1.2c0.2-0.1,0.4-0.2,0.5-0.4c2.4-2.8,4.9-6.1,4.4-9.8c-0.5-3.4-3.4-5.9-6.2-8l-8.2-6.3
			c-1.2-1.1-2.6-1.9-4.2-2.5c-1.9-0.5-3.9-0.5-5.9-0.1c-10.2,1.6-23.6,1.9-32.2,7.5c-3.1,2-5.4,5.3-8.7,6.9c-1.9,1-2.6,2.7-4.4,4
			C127.5,45.9,127.6,51.2,127.3,53.3L127.3,53.3L127.3,53.3z"/>
		<path class="st9" d="M172.9,13.6c-0.2,2.2-0.8,4.4-1.8,6.4c-1,2-2.2,3.9-3.6,5.7l-0.5,0.6l-0.6,0.7c-0.4,0.5-0.9,0.9-1.3,1.3
			c-0.9,0.8-1.9,1.5-3,2.1c-2,1.1-4.2,2-6.4,2.5c-1.1,0.3-2.2,0.5-3.2,0.7c-1.1,0.2-2.1,0.4-3.2,0.5c-2.1,0.3-4.1,0.6-6.1,1
			c-4,0.8-7.8,1.8-11.3,4.5c0.9-2.1,2.3-4,4.1-5.4c1.8-1.4,3.8-2.5,5.9-3.3c2.1-0.8,4.2-1.4,6.3-1.9c2.1-0.5,4.1-0.9,6-1.5
			c1-0.2,1.9-0.5,2.8-0.8c0.9-0.3,1.8-0.6,2.6-1c0.8-0.4,1.6-0.8,2.4-1.3c0.4-0.3,0.8-0.5,1.1-0.8l0.5-0.4l0.6-0.5
			c1.6-1.3,3.1-2.7,4.5-4.2C170.3,17,171.7,15.4,172.9,13.6L172.9,13.6L172.9,13.6z"/>
		<path class="st10" d="M152.8,47.8c-0.4,0-0.9,0-1.4,0c-0.4,0-0.8,0.1-1.2,0.1c-1.2,0.3-2.3,0.7-3.4,1.3c-0.5,0.3-0.9,0.6-1.4,1
			c-0.6,0.4-1.1,0.9-1.6,1.4c-0.1,0.1-0.2,0.2-0.2,0.4c0,0.3,0,0.7-0.1,1c0.2-0.4,0.5-0.7,0.9-1c1.1-0.7,2.2-1.2,3.4-1.6
			c1.2-0.5,2.5-0.8,3.8-0.8c0.5,0,0.9,0,1.4,0.1l2.1,0.2c0.2,0,0.5,0,0.7,0c0.3-0.1,0.6-0.3,0.6-0.7c0.1-0.5-0.2-1-0.7-1.1
			c-0.1,0-0.2,0-0.2,0C154.6,48,153.7,47.9,152.8,47.8L152.8,47.8L152.8,47.8z"/>
		<path class="st10" d="M175.3,47.3c0.4-0.1,0.9-0.1,1.3-0.2c0.4,0,0.8,0,1.2,0c1.2,0.2,2.4,0.5,3.6,0.9c0.5,0.2,1,0.5,1.5,0.8
			c0.6,0.4,1.2,0.8,1.8,1.2c0.1,0.1,0.2,0.2,0.2,0.4c0.1,0.3,0.1,0.7,0.2,1c-0.3-0.3-0.6-0.6-1-0.9c-1.1-0.5-2.3-0.9-3.5-1.2
			c-1.3-0.4-2.6-0.5-3.9-0.4c-0.5,0-0.9,0.1-1.4,0.2l-2.1,0.4c-0.2,0.1-0.5,0.1-0.7,0.1c-0.3,0-0.6-0.3-0.7-0.6
			c-0.2-0.5,0.1-1,0.6-1.2c0.1,0,0.2,0,0.2,0C173.5,47.7,174.4,47.5,175.3,47.3L175.3,47.3L175.3,47.3z"/>
		<path class="st11" d="M173.9,53c-0.8,0.6-1.4,1.5-1.6,2.5c-0.4,1.2-0.5,2.4-0.2,3.6c0.1,0.4,0.4,0.8,0.8,1
			c0.3,0.1,0.6,0.2,0.9,0.1c1.2,0,2.5-0.1,3.8-0.2c0.2,0,0.4-0.1,0.6-0.2c0.7-0.3,0.9-1.2,0.8-2l0.1-1c0-0.2,0-0.4-0.1-0.5
			c-0.1-0.1-0.2-0.1-0.4-0.1c-0.4,0-0.9-0.1-1.3-0.2c-0.4-0.1-0.8-0.4-1-0.8c-0.4-0.9,0.8-1.8,0.3-2.5S174.5,52.6,173.9,53L173.9,53
			L173.9,53z"/>
		<path class="st11" d="M150.6,54c-0.8,0.6-1.5,1.4-1.8,2.4c-0.5,1.1-0.6,2.4-0.4,3.6c0.1,0.5,0.4,0.8,0.7,1.1
			c0.3,0.1,0.6,0.2,0.9,0.2c1.3,0.1,2.5,0,3.8,0c0.2,0,0.4,0,0.6-0.1c0.7-0.3,0.8-1.2,0.9-1.9l0.1-1c0-0.2,0-0.4-0.1-0.5
			c-0.1-0.1-0.2-0.1-0.4-0.1c-0.4,0-0.9-0.1-1.3-0.2c-0.4-0.1-0.8-0.4-1-0.8c-0.4-0.9,0.9-1.8,0.4-2.5S151.2,53.6,150.6,54L150.6,54
			z"/>
		<path class="st12" d="M169.8,75.1c0.1,0.3,0,0.4-0.1,0.4l-0.3,0.2c-0.2,0.1-0.4,0.2-0.6,0.3c-0.4,0.2-0.8,0.2-1.2,0.4
			c-0.8,0.3-1.7,0.4-2.5,0.3c-0.9,0-1.8-0.2-2.5-0.7c-0.7-0.5-1.2-1.2-1.5-2.1c0-0.1,0-0.1,0.1-0.1h0.1c0.4,0.1,0.8,0.3,1.1,0.4
			c0.4,0.1,0.7,0.3,1,0.4c0.6,0.3,1.2,0.6,1.9,0.8c0.7,0.2,1.4,0.2,2.1,0.1c0.4-0.1,0.7-0.2,1-0.4l0.5-0.2l0.2-0.1
			c0.1,0,0.2-0.1,0.4,0.1l0,0C169.8,75,169.8,75.1,169.8,75.1L169.8,75.1z"/>
		<path class="st12" d="M164.5,95.8c0.1,0.1,0.3,0.1,0.5,0c0.1,0,0.2-0.1,0.2-0.1l0.5-0.3c0.4-0.2,0.8-0.6,1.1-1
			c-0.1-0.1-0.2-0.1-0.3-0.1h-1.9c-0.6-0.1-1.1-0.1-1.7,0C162.1,94.8,164,95.7,164.5,95.8L164.5,95.8z"/>
		<path class="st13" d="M140.2,67.9c-0.1,0.6,0,1.3,0.3,1.8c0.5,0.9,1.3,1.5,2.2,1.9c0.9,0.3,1.9,0.5,2.9,0.4
			c0.8,0.1,1.6-0.1,2.2-0.7c1.2-1.5,0.6-5.1-1.5-5.5C144.8,65.5,140.8,66.1,140.2,67.9z"/>
		<path class="st14" d="M182.1,65.7c-0.6,0.8-0.6,1.9,0,2.7c0.8,1.1,2.3,1.3,3.7,1.4l1.5,0.1c0.6,0.1,1.2,0.1,1.7-0.1
			c0.6-0.1,1.1-0.6,1.3-1.1c0.1-0.3,0.1-0.7-0.1-1.1C189.3,64.3,184.3,62.5,182.1,65.7L182.1,65.7L182.1,65.7z"/>
		<g>
			<path class="st15" d="M171.4,82.8c0.2,0,0.4,0.1,0.6,0.1c0.4,0.1,0.9,0.1,1.3,0.2c0,0.1,0,0.2,0,0.3c0.1,0.3,0.1,0.5-0.2,0.7
				c0,0-0.1,0.1-0.1,0.1c-0.1,0.1-0.2,0-0.4,0c-0.1,0-0.1,0-0.2,0.1c-0.2,0-0.4,0-0.5,0.1c-0.1,0-0.2,0-0.3-0.1
				c-0.1-0.2-0.2-0.3-0.2-0.5c0-0.1-0.1-0.2-0.1-0.4C171.1,83.2,171.2,83,171.4,82.8L171.4,82.8L171.4,82.8z"/>
			<path class="st16" d="M173.1,84.1c0,0,0-0.1,0-0.1c0.2-0.1,0.2-0.2,0.1-0.4c0-0.1,0-0.2-0.1-0.3c0-0.1,0-0.2,0.1-0.1
				c0.3,0.1,0.6,0.1,0.9,0.2c0,0.2-0.2,0.3-0.3,0.4c-0.1,0.1-0.1,0.2-0.2,0.3c-0.1,0.1-0.1,0.1-0.2,0.1c0,0-0.1,0-0.1,0.1
				c-0.1,0-0.1,0-0.2,0C173.2,84.2,173.2,84.2,173.1,84.1L173.1,84.1L173.1,84.1z"/>
			<path class="st17" d="M175.5,84.1c0,0-0.1,0.1-0.1,0.1c-0.1,0.1-0.2,0-0.3-0.1c-0.1-0.2-0.4-0.3-0.3-0.7c0.2,0,0.3,0,0.5,0
				c0.1,0,0.1,0,0.2,0c0.3,0,0.4,0.2,0.2,0.5C175.6,84,175.6,84,175.5,84.1L175.5,84.1L175.5,84.1z"/>
			<path class="st18" d="M174.8,83.5c0.2,0.3,0.3,0.6,0.6,0.7c-0.1,0.1-0.3,0.2-0.4,0.3c-0.1,0-0.1,0-0.1-0.1c0-0.2-0.1-0.3-0.3-0.3
				c-0.2-0.3-0.2-0.5,0-0.6C174.6,83.4,174.7,83.5,174.8,83.5L174.8,83.5L174.8,83.5z"/>
			<path class="st19" d="M174.6,83.4c-0.1,0.2-0.1,0.4,0,0.6c-0.1,0.1-0.1,0.1-0.2,0.1c-0.1,0-0.2,0-0.3-0.1c-0.1-0.4,0-0.6,0.4-0.6
				C174.5,83.4,174.5,83.4,174.6,83.4L174.6,83.4L174.6,83.4z"/>
			<path class="st20" d="M174.4,83.4c-0.2,0.1-0.3,0.2-0.3,0.4c0,0.1,0,0.1-0.1,0.2c0,0,0,0-0.1,0c-0.1,0-0.1,0-0.2,0
				c0,0-0.1,0-0.1-0.1c0-0.3,0.3-0.5,0.5-0.7C174.3,83.3,174.4,83.3,174.4,83.4L174.4,83.4L174.4,83.4z"/>
			<path class="st21" d="M175.7,84c0.1-0.3,0-0.4-0.4-0.5c0.1-0.1,0.3,0,0.5,0c0.2,0,0.2,0.1,0.2,0.2
				C175.9,83.8,175.8,83.9,175.7,84L175.7,84L175.7,84z"/>
			<path class="st22" d="M175.9,83.7c0-0.2-0.1-0.2-0.2-0.2c0-0.1,0.1,0,0.2-0.1c0.1,0,0.1,0,0.2,0c0,0.1,0,0.1,0,0.2
				C176,83.6,176,83.6,175.9,83.7L175.9,83.7z"/>
			<path class="st23" d="M176.2,83.4c0.1,0,0.1,0.1,0.1,0.2C176.2,83.6,176.2,83.5,176.2,83.4C176.2,83.5,176.2,83.4,176.2,83.4
				L176.2,83.4z"/>
			<path class="st24" d="M176.2,83.4C176.2,83.4,176.2,83.5,176.2,83.4C176.2,83.5,176.2,83.5,176.2,83.4c-0.1,0.1-0.1,0-0.2,0
				c-0.1,0-0.1,0-0.2,0C176,83.4,176.1,83.4,176.2,83.4L176.2,83.4z"/>
			<path class="st25" d="M176.1,83.4c0.1,0,0.1,0,0.1,0.1c0,0-0.1,0-0.1,0.1L176.1,83.4L176.1,83.4L176.1,83.4z"/>
			<path class="st26" d="M155.1,83.2c-0.1-0.1-0.1-0.2-0.2-0.3c0-0.1,0-0.1,0.1-0.2c0,0,0,0,0.1,0c0.3,0,0.5,0.2,0.7,0.3
				c0,0.2-0.2,0.3-0.2,0.4c0,0-0.1,0.1-0.1,0.1h-0.1c-0.1,0-0.1-0.1-0.2-0.1C155.1,83.4,155.2,83.3,155.1,83.2L155.1,83.2
				L155.1,83.2z"/>
			<path class="st27" d="M155,82.8C155,82.8,155,82.8,155,82.8c0.1-0.1,0.2,0,0.3,0c0,0,0,0,0.1,0.1C155.2,82.8,155.1,82.8,155,82.8
				L155,82.8L155,82.8z"/>
			<path class="st28" d="M167.3,82.1L167.3,82.1c0.2,0,0.2,0,0.4,0c0.2-0.1,0.5-0.1,0.7,0c0.1,0,0.1,0,0.2,0
				c0.4,0.1,0.8,0.3,1.3,0.4c0.1,0.1,0.2,0.2,0,0.4c-0.1,0-0.1,0-0.2-0.1c-0.4-0.3-0.8-0.3-1.2,0c-0.2,0.1-0.4,0.2-0.6,0.2
				c-0.2,0-0.5,0-0.7,0c-0.2,0-0.4-0.1-0.6-0.2c-0.2-0.2-0.5-0.2-0.7-0.4c0-0.1,0.1-0.1,0.2-0.1c0.4,0,0.7-0.1,1.1-0.1
				C167.2,82,167.3,82,167.3,82.1L167.3,82.1L167.3,82.1z"/>
			<path class="st29" d="M168.4,82.1l-0.7,0c0-0.1,0.1,0,0.2-0.1c0.1,0,0.3,0,0.4,0C168.3,82.1,168.4,82.1,168.4,82.1z"/>
			<path class="st30" d="M168.3,82.1h-0.4C168,82,168.1,82,168.3,82.1z"/>
			<path class="st31" d="M171.4,82.8c-0.1,0.3-0.1,0.5,0,0.8c0.1,0.2,0.1,0.5,0.2,0.7c-0.1,0.2-0.6,0.3-0.8,0.2
				c-0.1-0.1-0.1-0.3-0.2-0.4c-0.1-0.3-0.1-0.6-0.2-0.9c0.1-0.2,0.3-0.3,0.4-0.5C171,82.7,171.2,82.8,171.4,82.8L171.4,82.8
				L171.4,82.8z"/>
			<path class="st32" d="M170.8,82.7c0,0.3-0.1,0.4-0.4,0.4c0,0,0,0-0.1,0c-0.2,0-0.4,0-0.4-0.3c0-0.1-0.1-0.2,0-0.4
				C170.2,82.6,170.5,82.7,170.8,82.7L170.8,82.7L170.8,82.7z"/>
			<path class="st33" d="M170.8,84.5c0.3-0.1,0.6-0.1,0.8-0.2c0.1,0,0.2,0,0.3,0c0.1,0,0.2,0,0.3,0c0.2,0,0.2,0.1,0.2,0.3
				c-0.1,0.1-0.2,0-0.3,0c-0.1,0-0.3,0-0.4,0c-0.1,0-0.1,0.1-0.1,0.2c0,0.3-0.1,0.4-0.4,0.5c-0.1,0-0.2,0.1-0.3,0.2
				c-0.2,0.1-0.4,0.2-0.6,0.1c-0.1-0.2-0.2-0.2-0.5-0.2c-0.4,0.1-0.6-0.1-0.6-0.4c0.1-0.2,0.3-0.1,0.3-0.3
				C169.9,84.5,170.3,84.4,170.8,84.5L170.8,84.5L170.8,84.5z"/>
			<path class="st34" d="M172.7,84.2c0.1-0.1,0.2,0,0.4,0c0.3,0.1,0.3,0.3,0,0.5c-0.1,0.1-0.3,0.2-0.3,0.4c-0.1,0.1-0.1,0.1-0.2,0
				C172.4,84.8,172.5,84.5,172.7,84.2L172.7,84.2L172.7,84.2z"/>
			<path class="st35" d="M172.9,84.7c0.2-0.1,0.2-0.3,0.1-0.5c0-0.1,0.1,0,0.1-0.1l0.1,0c0.1,0,0.2,0,0.3,0.2c0,0.1-0.1,0.2-0.2,0.3
				c-0.1,0-0.2,0.1-0.3,0.1C173,84.7,173,84.7,172.9,84.7L172.9,84.7L172.9,84.7z"/>
			<path class="st36" d="M172.7,84.2c0,0.1,0.1,0.2,0,0.2c-0.2,0.2-0.1,0.4-0.1,0.6c0,0,0,0,0,0c0,0-0.1,0-0.1-0.1
				c-0.1-0.2-0.1-0.3-0.1-0.5c0-0.1,0-0.2,0.1-0.3C172.5,84.2,172.6,84.2,172.7,84.2L172.7,84.2L172.7,84.2z"/>
			<path class="st37" d="M172.4,84.3v0.3c0,0-0.1,0-0.1,0l0,0c-0.1-0.3-0.3-0.2-0.4-0.3C172.1,84.3,172.3,84.3,172.4,84.3
				C172.4,84.3,172.4,84.3,172.4,84.3z"/>
			<path class="st38" d="M174.7,84.8C174.7,84.8,174.6,84.9,174.7,84.8c-0.3,0.1-0.4,0.1-0.5-0.1c-0.1-0.2,0-0.5,0.2-0.7h0.2
				c0.3,0,0.3,0,0.4,0.3c0,0.1,0,0.1,0.1,0.1C174.9,84.6,174.7,84.7,174.7,84.8L174.7,84.8z"/>
			<path class="st39" d="M173.7,84c0,0,0.1,0,0.1,0c0,0,0,0.1,0,0.1c0,0.1-0.1,0.1-0.2,0.1c-0.1,0-0.1-0.1-0.2-0.2
				C173.5,84,173.6,84,173.7,84L173.7,84L173.7,84z"/>
			<path class="st40" d="M173.5,84.1c0.1,0,0.1,0.1,0.2,0.1c0,0,0,0.1,0,0.1c0,0.1-0.1,0.1-0.2,0C173.4,84.2,173.4,84.2,173.5,84.1
				L173.5,84.1L173.5,84.1z"/>
			<path class="st41" d="M173.4,84.1c0.1,0,0.1,0.1,0.1,0.2c0,0,0,0.1-0.1,0.1c0-0.1-0.1-0.2-0.2-0.2
				C173.3,84.1,173.4,84.1,173.4,84.1L173.4,84.1L173.4,84.1z"/>
			<path class="st42" d="M174.4,84c0,0.1-0.1,0.2-0.1,0.3c-0.1,0.4,0,0.5,0.3,0.6c-0.1,0.1-0.1,0.2-0.2,0.2
				c-0.2,0.1-0.3,0.1-0.4-0.1c-0.1-0.2-0.2-0.5-0.2-0.7c0-0.1,0-0.2,0.1-0.2c0-0.1,0.1-0.1,0.2-0.1h0.1C174.1,84,174.2,84,174.4,84
				L174.4,84L174.4,84z"/>
			<path class="st43" d="M174,84c-0.1,0-0.1,0-0.1,0.1c-0.1,0-0.1,0-0.1-0.1c0,0,0,0,0-0.1C173.9,83.9,173.9,83.9,174,84L174,84
				L174,84z"/>
			<path class="st44" d="M164.3,82.2c0.1,0,0.3,0.1,0.5,0.1c0.1,0,0.3,0,0.4,0c0.1,0.1,0,0.1,0,0.2c-0.3,0-0.7,0-1,0.1
				c-0.2,0-0.4,0.1-0.6,0.2c-0.1,0.1-0.3,0.2-0.5,0.2c-0.3-0.1-0.6-0.1-1-0.1c-0.3-0.1-0.6,0.1-0.8,0.1c-0.1,0-0.2,0-0.3-0.1
				c0-0.2,0.1-0.3,0.3-0.3c0.2,0,0.4,0,0.5-0.2c0,0,0.1-0.1,0.1-0.1c0.5-0.1,1-0.1,1.4,0C163.7,82.2,164,82.3,164.3,82.2L164.3,82.2
				L164.3,82.2z"/>
			<path class="st45" d="M159.6,82.5c0,0,0.1,0,0.1-0.1c0,0,0.1,0,0.1,0c0.2,0.1,0.4,0.1,0.7,0c0.2-0.1,0.4-0.1,0.5-0.1
				c0.2,0,0.5,0,0.7-0.1c0.1,0,0.1,0,0.2,0c-0.1,0.2-0.3,0.2-0.5,0.3c-0.2,0-0.3,0.1-0.4,0.2c0,0.1,0,0.1-0.1,0.2
				c-0.3,0-0.7,0.1-1,0C159.8,82.8,159.6,82.7,159.6,82.5L159.6,82.5L159.6,82.5z"/>
			<path class="st46" d="M161.9,82.3c-0.3,0.1-0.6,0.2-1,0.2c-0.2,0-0.4,0.2-0.7,0.2c-0.2,0-0.3,0-0.4-0.2c0.4-0.1,0.8-0.1,1.1-0.2
				c0.1,0,0.2,0,0.3,0C161.5,82.2,161.7,82.2,161.9,82.3c0-0.1,0-0.1,0-0.1L161.9,82.3L161.9,82.3L161.9,82.3z"/>
			<path class="st47" d="M161.9,82.2c-0.2,0.1-0.4,0.1-0.6,0.1C161.5,82.2,161.7,82.2,161.9,82.2z"/>
			<path class="st48" d="M158.3,82.9c0.1-0.1,0.2-0.1,0.3-0.1c0,0,0.1,0,0.1,0c0.2,0,0.3,0,0.4,0.2c0.1,0.2,0,0.3-0.1,0.5
				c0,0,0,0-0.1,0.1c-0.1,0-0.2,0-0.3,0.1c0,0-0.1,0-0.1,0c-0.2-0.1-0.4-0.1-0.5-0.3C158,83.1,158.2,83,158.3,82.9L158.3,82.9
				L158.3,82.9z"/>
			<path class="st49" d="M159.1,82.7l0.1,0c0.1,0,0.1,0.1,0.2,0.1c0.4,0.1,0.5,0.2,0.6,0.7c0,0.1-0.1,0.2-0.2,0.2
				c-0.2,0-0.3,0-0.5-0.1c-0.1,0-0.1-0.1-0.1-0.2c0-0.3-0.2-0.4-0.4-0.6C158.9,82.7,159,82.7,159.1,82.7L159.1,82.7L159.1,82.7z"/>
			<path class="st50" d="M158.8,82.7c0.5,0.2,0.5,0.2,0.5,0.7c-0.2,0.1-0.3,0.1-0.5,0c0-0.1,0.1-0.1,0.1-0.1c0.1-0.2,0-0.4-0.2-0.5
				c0,0-0.1,0-0.1,0C158.7,82.8,158.8,82.8,158.8,82.7L158.8,82.7z"/>
			<path class="st51" d="M158,82.9C158,82.9,158.1,82.9,158,82.9l0.3,0c-0.1,0.1-0.1,0.3-0.2,0.4c-0.1,0.1-0.1,0.1-0.2,0.1
				c-0.1,0-0.3-0.1-0.3-0.2c0,0,0-0.1,0-0.1c0.1-0.1,0.3,0,0.4-0.2C157.9,82.9,158,82.9,158,82.9L158,82.9L158,82.9z"/>
			<path class="st52" d="M155,82.8h0.4c0,0.1,0.1,0.1,0.2,0.1c0.1,0.1,0.2,0.1,0.3,0.2c0,0,0,0.1,0,0.1s0,0-0.1,0
				C155.5,83.1,155.3,82.8,155,82.8L155,82.8L155,82.8z"/>
			<path class="st53" d="M155.8,83c-0.1,0-0.2-0.1-0.3-0.2c0.1,0,0.1,0,0.2,0c0,0,0,0,0.1,0.1C155.8,83,155.8,83,155.8,83
				C155.9,83,155.9,83,155.8,83C155.9,83.1,155.8,83.1,155.8,83L155.8,83L155.8,83z"/>
			<path class="st54" d="M155.8,83.1L155.8,83.1c0.1,0,0.2,0,0.2,0c0.1,0.2-0.1,0.3-0.2,0.4c0,0-0.1,0-0.1,0l0,0
				C155.4,83.2,155.4,83.2,155.8,83.1L155.8,83.1L155.8,83.1z"/>
			<path class="st55" d="M155.7,83.7c-0.1-0.1-0.1-0.1-0.2-0.2h0.1C155.6,83.5,155.7,83.5,155.7,83.7
				C155.7,83.7,155.7,83.7,155.7,83.7L155.7,83.7L155.7,83.7z"/>
			<path class="st56" d="M165.2,82.4C165.2,82.4,165.2,82.4,165.2,82.4c0.2-0.1,0.2-0.1,0.4-0.1c0.1,0,0.2,0,0.3,0
				c0.3-0.1,0.5,0.1,0.8,0.3c0.1,0.1,0.3,0.2,0.4,0.2c0.4,0.1,0.8,0.1,1.3,0c0,0,0.1,0,0.1,0c0.3-0.3,0.6-0.2,0.9-0.2
				c0.2,0,0.4,0.2,0.6,0.4c0.1,0.2,0.3,0.2,0.4,0.3c0,0.2-0.1,0.2-0.2,0.2c-0.1,0-0.3-0.1-0.4-0.1c-0.2-0.1-0.3-0.1-0.4,0.1
				c-0.1,0.1-0.2,0.2-0.3,0.2c-0.2,0.2-0.4,0.4-0.6,0.6c-0.1,0-0.1,0-0.2,0c-0.2-0.3-0.5-0.2-0.8-0.1c-0.3,0.1-0.5,0.1-0.8,0
				c-0.3-0.1-0.5,0-0.8,0.2c-0.1,0-0.2,0.1-0.3,0.1c-0.1,0-0.1,0-0.2,0c-0.5,0-0.9,0-1.4-0.1c-0.1,0-0.2,0-0.2-0.1
				c0-0.1,0.1-0.2,0.1-0.2c0.2,0,0.4-0.1,0.6-0.1c0.1,0,0.2,0,0.3,0c0.1-0.1,0.3-0.1,0.4,0c0.2,0,0.3,0.1,0.4-0.1
				c0.1-0.2,0-0.5-0.2-0.5c-0.3-0.2-0.4-0.5-0.5-0.8C165.1,82.4,165.1,82.4,165.2,82.4L165.2,82.4L165.2,82.4z"/>
			<path class="st57" d="M170.1,83.3c0.1,0,0.2,0,0.3-0.1h0.1c0.3,0.4,0.3,0.9,0.4,1.4c-0.4,0.1-0.8,0.1-1.1,0.2
				c-0.1,0-0.1,0.1-0.2,0.1c-0.1,0.1-0.2,0.1-0.3,0.1c-0.2-0.2-0.2-0.4,0.1-0.5c0.3-0.2,0.6-0.2,0.9-0.2
				C169.8,83.6,169.8,83.4,170.1,83.3L170.1,83.3L170.1,83.3z"/>
			<path class="st58" d="M169.2,85.1c0.1,0.4,0.2,0.4,0.6,0.4c0.1,0,0.1,0,0.2-0.1c0-0.1,0-0.1,0.1-0.1s0.1,0.1,0.1,0.2
				c0,0.1,0,0.2,0.1,0.2c0.1,0.2,0.2,0.4,0.4,0.6c0,0.1,0,0.1,0,0.1c-0.2,0.2-0.4,0.3-0.7,0.3c-0.1,0-0.2,0-0.3-0.1
				c-0.1-0.1-0.2-0.2-0.4-0.2c-0.4-0.1-0.5-0.5-0.6-0.8c-0.1-0.2,0.1-0.3,0.2-0.5C169,85.1,169.1,85,169.2,85.1L169.2,85.1
				L169.2,85.1z"/>
			<path class="st59" d="M170.6,86.3c-0.3-0.1-0.4-0.3-0.4-0.6c0.2,0,0.4-0.1,0.6-0.2c0.1-0.1,0.1-0.1,0.2-0.1
				c0.4-0.1,0.4-0.2,0.4-0.5c0-0.1,0-0.2,0-0.3l1,0l0,0c0.1,0.1,0.1,0.1,0.1,0.2c-0.1,0.1-0.2,0.1-0.3,0c-0.1,0-0.2,0-0.2,0
				c-0.1,0-0.1,0.1-0.1,0.2c0,0.1,0.1,0.1,0.1,0.1c0.1,0,0.2,0,0.3,0c0.1,0.1-0.1,0.2-0.1,0.3c0,0,0,0.1,0,0.1c0,0,0,0.1-0.1,0.1
				c-0.1,0.1-0.3,0.2-0.4,0.3c-0.1,0.1-0.3,0.2-0.4,0.2c-0.1,0.1-0.2,0.2-0.4,0.2C170.7,86.3,170.6,86.4,170.6,86.3L170.6,86.3
				L170.6,86.3z"/>
			<path class="st60" d="M169.2,85.1c-0.3,0.1-0.4,0.3-0.3,0.6c0.1,0.3,0.2,0.6,0.6,0.7c0.1,0,0.2,0.1,0.2,0.2
				c-0.2,0.1-0.4,0.2-0.7,0c-0.1-0.1-0.2-0.1-0.3-0.1c-0.1,0-0.2,0-0.3-0.1c-0.2-0.3-0.3-1.1-0.1-1.5c0,0,0-0.1,0.1-0.1
				c0.3-0.1,0.6-0.2,0.8,0c0.1-0.1,0.2-0.1,0.3,0c0.1,0.2,0.1,0.3-0.2,0.3C169.3,85,169.2,85,169.2,85.1L169.2,85.1L169.2,85.1z"/>
			<path class="st61" d="M172.9,84.7h0.1c0,0,0,0,0,0.1c0,0.1-0.1,0.1-0.1,0.2c0,0.1-0.1,0.1-0.1,0.1s-0.1,0-0.2,0
				C172.7,84.8,172.8,84.8,172.9,84.7L172.9,84.7L172.9,84.7z"/>
			<path class="st62" d="M172.6,85c0,0,0.1,0,0.1-0.1c0.1,0.2,0,0.3-0.2,0.3c-0.1,0-0.1-0.1-0.1-0.1v0
				C172.6,85.1,172.6,85.1,172.6,85L172.6,85L172.6,85z"/>
			<path class="st63" d="M172.9,84.9l0.2-0.2c0.1,0,0.1-0.1,0.2-0.2c0.1-0.1,0.1-0.1,0.2-0.2l0.1-0.1c0,0,0.1,0,0.1-0.1
				c0.1,0.3-0.2,0.7-0.5,0.7C173,84.9,172.9,84.9,172.9,84.9L172.9,84.9L172.9,84.9z"/>
			<path class="st64" d="M173.3,84.5c0,0.1,0,0.3-0.2,0.2c0,0,0,0,0-0.1C173.1,84.6,173.2,84.5,173.3,84.5L173.3,84.5L173.3,84.5z"
				/>
			<path class="st33" d="M172.1,85.4c0-0.1,0.1-0.2,0.2-0.3c0-0.2,0.1-0.3,0.2-0.3c0-0.1,0-0.1-0.1-0.2h0.1c0,0.2,0,0.3,0,0.5
				C172.4,85.3,172.3,85.4,172.1,85.4L172.1,85.4L172.1,85.4z"/>
			<path class="st65" d="M172.1,85.4c0.1-0.1,0.3-0.2,0.4-0.3h0.1l0,0.1c-0.1,0.2-0.2,0.4-0.4,0.3C172.1,85.6,172,85.6,172.1,85.4
				L172.1,85.4L172.1,85.4L172.1,85.4z"/>
			<path class="st66" d="M173.1,84.9c0.3-0.1,0.4-0.4,0.5-0.7c0,0,0,0,0-0.1c0.1,0,0.1,0,0.1-0.1c0,0,0.1,0,0.1,0.1
				c-0.1,0.2,0,0.3,0.1,0.4c0,0.1,0.1,0.1,0.1,0.2c0,0.3,0.2,0.4,0.4,0.4c0,0.1-0.1,0.1-0.1,0.2c-0.1,0.2-0.4,0.2-0.6,0.2
				c-0.3,0.1-0.6,0-0.8-0.1C172.8,85.1,172.8,85,173.1,84.9L173.1,84.9L173.1,84.9z"/>
			<path class="st67" d="M173,85.3c0.1,0,0.2,0.1,0.4,0.1c0.1,0,0.2,0,0.4,0c0.1,0.1,0.2,0.1,0.3,0.3c-0.3,0.3-0.6,0.6-0.9,0.8
				c-0.2,0-0.3-0.2-0.4-0.3C172.5,85.9,172.7,85.4,173,85.3L173,85.3L173,85.3z"/>
			<path class="st68" d="M172.7,86.2c0.2,0.1,0.2,0.2,0.4,0.3c-0.1,0.1-0.2,0.2-0.3,0.3c-0.1,0-0.1,0.1-0.1,0.1c-0.1,0-0.2,0-0.2,0
				c-0.1-0.2-0.2-0.5-0.1-0.8C172.4,86,172.6,86.1,172.7,86.2L172.7,86.2L172.7,86.2z"/>
			<path class="st69" d="M174,85.7c-0.1-0.1-0.2-0.2-0.3-0.3c0.2-0.1,0.4-0.1,0.6-0.1C174.3,85.4,174.1,85.5,174,85.7L174,85.7
				L174,85.7z"/>
			<path class="st70" d="M165.5,82.3c-0.1,0-0.2,0-0.3,0c-0.1,0-0.3,0-0.5,0C165,82.2,165.3,82.2,165.5,82.3L165.5,82.3L165.5,82.3z
				"/>
			<path class="st71" d="M162.1,82.7c0.3,0,0.7,0,1,0.1c0.1,0.1,0.1,0.1,0.2,0.1c0.3,0,0.4,0.2,0.4,0.4c0,0.1-0.1,0.3-0.1,0.4
				c-0.3,0.4-0.5,0.4-0.9,0.2c-0.1-0.1-0.3-0.2-0.4-0.2c-0.2,0-0.3-0.1-0.4-0.1c-0.2-0.1-0.3-0.1-0.3-0.3c0-0.2,0.2-0.3,0.4-0.4
				C161.9,82.7,162,82.8,162.1,82.7L162.1,82.7L162.1,82.7z"/>
			<path class="st72" d="M163.5,83.7c0-0.1,0-0.3,0.1-0.4c0.1-0.2,0-0.3-0.2-0.4c-0.1,0-0.2,0-0.2-0.1c0.1,0,0.2,0,0.3-0.1
				c0.3-0.3,0.7-0.4,1.1-0.4c0.2,0,0.5-0.1,0.7,0.1c-0.1,0-0.1,0-0.1,0.1c-0.1,0.4-0.3,0.8-0.5,1.2c-0.1,0.3-0.3,0.4-0.6,0.3
				C163.8,83.8,163.6,83.8,163.5,83.7L163.5,83.7L163.5,83.7z"/>
			<path class="st73" d="M163.5,83.7c0.1,0,0.1,0,0.2,0c0.3,0,0.3,0,0.2,0.2c0,0,0,0,0,0c-0.2,0.1-0.4,0.1-0.6,0.2
				c-0.1,0-0.2,0-0.3,0c0,0-0.1,0-0.1,0c-0.2-0.1-0.4-0.2-0.6-0.2c-0.2,0-0.3-0.1-0.4-0.2c-0.3-0.1-0.7-0.1-0.9-0.4
				c-0.1-0.3,0-0.5,0.4-0.6c0.3-0.2,0.5-0.2,0.8-0.1c-0.1,0.2-0.3,0.2-0.5,0.4c-0.1,0.1-0.1,0.2,0,0.3c0.2,0.1,0.4,0.2,0.6,0.2
				s0.4,0.1,0.6,0.2c0.3,0.2,0.3,0.2,0.5,0C163.4,83.7,163.5,83.7,163.5,83.7L163.5,83.7L163.5,83.7z"/>
			<path class="st74" d="M161.3,82.8c-0.1,0.2-0.5,0.2-0.3,0.6c-0.1,0.2-0.3,0.2-0.5,0.2c-0.2,0-0.4-0.1-0.6-0.2
				c-0.1-0.1-0.1-0.2-0.1-0.2c0-0.2-0.1-0.3-0.3-0.3c-0.1,0-0.2-0.1-0.3-0.2c0.1,0,0.3-0.1,0.4-0.1c0.3,0.3,0.6,0.4,1,0.3
				c0.1,0,0.3,0.1,0.4-0.1C161.1,82.9,161.2,82.8,161.3,82.8L161.3,82.8L161.3,82.8z"/>
			<path class="st75" d="M157.9,83.3h0.3c0.1,0.1,0.3,0.1,0.4,0.3c0.1,0,0.3-0.1,0.4,0c0.1,0.1,0.2,0.2,0.1,0.4c0.1,0,0.1,0,0.2,0
				c0.1,0,0.2,0,0.2,0.1c0,0.1-0.1,0.1-0.1,0.2c-0.1,0.1-0.3,0.1-0.4,0.2c-0.2,0-0.4,0-0.6-0.1c-0.1,0-0.1,0-0.1-0.1
				c0,0,0-0.1,0-0.1c0.1-0.1,0.1-0.1,0-0.2c0,0-0.1-0.1-0.1-0.1c-0.3,0-0.4-0.2-0.4-0.4C157.7,83.4,157.8,83.3,157.9,83.3
				L157.9,83.3L157.9,83.3z"/>
			<path class="st76" d="M159,83.6c-0.1,0-0.3,0-0.4-0.1l0,0c0.1-0.1,0.2-0.1,0.3-0.1h0.1c0.1,0,0.3,0,0.5,0c0.1,0,0.3,0,0.5,0.1
				c0.1,0.1,0,0.1,0,0.2C159.5,83.8,159.2,83.8,159,83.6L159,83.6L159,83.6z"/>
			<path class="st75" d="M158.8,83.4c0,0.1-0.1,0.2-0.3,0.1C158.6,83.4,158.7,83.4,158.8,83.4z"/>
			<path class="st77" d="M159.8,83.7v-0.2c0-0.1,0.1-0.1,0.1-0.2c0.1,0,0.2-0.1,0.3,0c0.3,0.2,0.5,0.1,0.8,0.1
				c0.2,0.2,0.6,0.3,0.9,0.4c0,0.1,0,0.1,0,0.1c-0.1,0.1-0.2,0.1-0.3,0c-0.4-0.2-0.9-0.2-1.4-0.2C160,83.7,159.9,83.8,159.8,83.7
				C159.8,83.7,159.8,83.7,159.8,83.7L159.8,83.7L159.8,83.7z"/>
			<path class="st78" d="M155.9,83c0,0-0.1,0-0.1-0.1c0.2,0,0.4,0,0.6,0c0,0,0,0.1,0,0.1c-0.1,0.1-0.1,0-0.2,0
				C156,83.1,155.9,83.1,155.9,83L155.9,83L155.9,83z"/>
			<path class="st79" d="M156.3,83L156.3,83c0.1,0,0.1,0,0.1,0c0.1,0,0.3,0,0.4,0.1c0,0,0,0,0,0c-0.1,0.1-0.3,0-0.4,0
				C156.4,83.1,156.4,83.1,156.3,83C156.4,83.1,156.3,83,156.3,83L156.3,83L156.3,83z"/>
			<path class="st80" d="M157.4,82.9c0.1-0.1,0.2,0,0.4,0c0,0,0,0.1,0,0.1c0,0-0.1,0-0.1,0C157.5,83,157.5,83,157.4,82.9L157.4,82.9
				z"/>
			<path class="st81" d="M157.4,82.9c0.1,0,0.2,0,0.3,0C157.6,83.1,157.5,83.1,157.4,82.9C157.3,83,157.3,82.9,157.4,82.9
				L157.4,82.9L157.4,82.9L157.4,82.9z"/>
			<path class="st82" d="M157.8,82.9C157.8,82.9,157.8,82.9,157.8,82.9l0.3-0.1c0,0,0,0-0.1,0.1C157.9,83,157.8,83,157.8,82.9
				L157.8,82.9z"/>
			<path class="st83" d="M156.4,83L156.4,83c0.2,0.1,0.3,0,0.5,0c0.1,0,0.2-0.1,0.3-0.1c0,0,0.1,0,0.1,0c0.1,0,0.2,0,0.3,0.1v0.1
				c0,0.1,0,0.1-0.1,0.1c-0.2,0.1-0.2,0.2,0,0.3c0.1,0.1,0.1,0.2,0.1,0.3c0,0,0,0.1-0.1,0.1c0,0-0.1,0-0.1,0c0,0-0.1,0-0.1-0.1
				c0,0,0,0,0-0.1c-0.1-0.1-0.3-0.2-0.5-0.2c0,0-0.1,0-0.1,0c0,0-0.1,0.1-0.1,0.1c-0.1,0-0.1-0.1-0.1-0.2c0-0.1,0.2-0.2,0.3-0.3
				C156.6,83.2,156.4,83.2,156.4,83C156.3,83,156.4,83,156.4,83L156.4,83L156.4,83z"/>
			<path class="st84" d="M157.5,83.6h-0.2c0,0-0.1,0-0.1-0.1c0-0.1,0-0.1,0.1-0.1c0.1-0.1,0.2-0.2,0.3-0.2c0.1,0.1,0.2,0.1,0.3,0.2
				c0,0.1,0,0.1-0.1,0.2C157.8,83.7,157.7,83.7,157.5,83.6L157.5,83.6z"/>
			<path class="st85" d="M157.5,83.1c-0.1-0.1-0.2-0.1-0.4-0.1c0-0.1,0.1-0.1,0.1-0.1c0.1,0,0.2,0,0.3,0c0,0,0.1,0,0.1,0
				c0.1,0,0.1,0,0.2,0C157.9,83.2,157.7,83.1,157.5,83.1L157.5,83.1L157.5,83.1z"/>
			<path class="st86" d="M157.7,86.5c0,0-0.1-0.1-0.1-0.1c-0.1-0.2-0.3-0.3-0.4-0.6c-0.1-0.2,0-0.4,0.1-0.6c0.1-0.1,0.2-0.3,0.3-0.4
				c0.1,0,0.2,0.1,0.3,0.2c0,0.2,0,0.3-0.1,0.4c-0.1,0.2,0,0.3,0.2,0.4c0.2,0.1,0.4,0.1,0.5,0.3c0,0.1,0,0.2-0.1,0.2
				c-0.1,0.1-0.3,0.3-0.3,0.4c0,0.1-0.1,0.1-0.2,0.1c0,0-0.1,0-0.1-0.1C157.8,86.6,157.8,86.5,157.7,86.5L157.7,86.5L157.7,86.5z"/>
			<path class="st87" d="M157.6,84.8c0.1,0.2,0.1,0.3-0.1,0.4c-0.1,0-0.1,0.1-0.1,0.2c0,0.2-0.1,0.3-0.1,0.4c-0.1,0-0.1-0.1-0.1-0.1
				c0,0,0-0.1-0.1-0.1c0.1-0.2-0.1-0.4-0.1-0.6c0.2,0,0.4-0.2,0.5-0.4c0,0,0.1,0,0.1,0C157.6,84.7,157.6,84.7,157.6,84.8
				C157.6,84.8,157.6,84.8,157.6,84.8L157.6,84.8L157.6,84.8z"/>
			<path class="st88" d="M156.4,83L156.4,83c-0.1,0.1-0.1,0.2-0.2,0.2c-0.1,0-0.1,0-0.1,0c0,0-0.1,0-0.1-0.1l-0.1-0.1V83
				c0,0,0,0,0.1,0c0.1-0.1,0.2,0,0.3-0.1C156.2,83,156.3,83,156.4,83C156.3,83,156.4,83,156.4,83L156.4,83L156.4,83z"/>
			<path class="st89" d="M156.1,83c-0.1,0.1-0.2,0-0.3,0.1V83C155.9,83,156,83,156.1,83L156.1,83z"/>
			<path class="st90" d="M157,85.6c-0.2-0.1-0.2-0.3-0.4-0.5c0,0,0-0.1-0.1-0.1c-0.1-0.1-0.1-0.1-0.1-0.2c0-0.1,0.1-0.1,0.1-0.1
				c0.1,0,0.2,0.1,0.2,0.2c0,0,0,0,0,0C157,85.2,157.1,85.3,157,85.6L157,85.6L157,85.6z"/>
			<path class="st91" d="M156.1,84.3c-0.1-0.2-0.3-0.2-0.3-0.4c0.1-0.1,0.2,0.1,0.3,0.1C156.1,84.1,156.3,84.2,156.1,84.3
				C156.2,84.4,156.2,84.4,156.1,84.3L156.1,84.3L156.1,84.3L156.1,84.3z"/>
			<path class="st92" d="M156.4,84.8L156.4,84.8c0.1,0,0.1,0,0.1,0.1c0,0.1,0.1,0.1,0.1,0.2C156.5,85,156.4,84.9,156.4,84.8
				L156.4,84.8L156.4,84.8z"/>
			<path class="st93" d="M155.9,83.2h0.1c0.1,0.1,0.1,0.1,0.1,0.2c0,0.2,0.1,0.4,0.1,0.6c-0.1,0.1-0.2,0-0.3,0c0,0,0,0-0.1-0.1
				c0-0.1-0.1-0.2-0.1-0.3c0-0.1,0.1-0.1,0.1-0.2C155.9,83.3,155.9,83.2,155.9,83.2L155.9,83.2L155.9,83.2z"/>
			<path class="st94" d="M155.7,83.5c0.1,0.1,0.2,0.2,0.2,0.3c0,0-0.1,0-0.1,0C155.8,83.7,155.7,83.7,155.7,83.5c0,0.1-0.1,0-0.1,0
				L155.7,83.5L155.7,83.5L155.7,83.5z"/>
			<path class="st95" d="M155.7,83.6c0.1,0,0.1,0.1,0.1,0.2c0,0,0,0.1-0.1,0h0c0,0,0-0.1,0-0.1L155.7,83.6L155.7,83.6L155.7,83.6z"
				/>
			<path class="st96" d="M160.8,89.6c-0.6-0.4-1.1-0.9-1.6-1.4c-0.4-0.2-0.7-0.5-0.9-0.9v-0.1c0,0,0-0.1,0-0.1
				c0.2-0.2,0.7-0.3,0.9-0.2c0.1,0.1,0.2,0.1,0.4,0.1c0.5,0,0.8,0.3,1,0.7c0.3,0.2,0.3,0.2,0.3,0.6c0,0.3-0.1,0.7,0,1
				C160.9,89.4,160.9,89.5,160.8,89.6L160.8,89.6L160.8,89.6z"/>
			<path class="st97" d="M167.5,90.5l-0.1,0.1h-0.1c-0.1,0.1-0.2,0.1-0.3,0.2c-0.3,0.1-0.6,0-1,0h-0.1c-0.1-0.1-0.2,0-0.3,0
				c0,0-0.1,0-0.1,0c-0.1-0.1-0.1-0.2-0.1-0.4c0-0.2-0.1-0.5-0.4-0.6c-0.1,0-0.1-0.1-0.1-0.1c0,0,0-0.1,0.1-0.1
				c0.1,0,0.1-0.1,0.2-0.1c0.1,0,0.1,0,0.2,0c0.2,0,0.5-0.1,0.8,0c0.2,0,0.4,0,0.6,0c0,0,0.1,0,0.1,0c0.3,0.1,0.5,0.1,0.8,0
				c0.1,0,0.2-0.1,0.2,0c0.1,0,0.1,0.1,0.1,0.1s0,0.1,0,0.1C167.6,90,167.6,90.2,167.5,90.5L167.5,90.5L167.5,90.5z"/>
			<path class="st98" d="M164.3,90.7c-0.3,0-0.6-0.1-1-0.1c-0.1-0.1-0.2-0.1-0.2-0.1c-0.2-0.3,0-0.7,0.4-0.9
				c0.1-0.1,0.2-0.1,0.4-0.2c0.1,0,0.3,0,0.4,0c0.1,0,0.1,0.1,0.2,0.1C164.5,90,164.5,90.3,164.3,90.7L164.3,90.7z"/>
			<path class="st99" d="M163.8,89.5c-0.5,0.2-0.6,0.4-0.6,1c0,0-0.1,0-0.1,0c-0.3-0.1-0.6-0.1-0.9-0.2c0.1-0.2,0.1-0.4,0.2-0.7
				c0.1-0.3,0.3-0.4,0.6-0.4c0.1,0,0.1,0,0.1,0.1c0.1,0.1,0.2,0.1,0.4,0.1h0.1C163.7,89.4,163.8,89.4,163.8,89.5L163.8,89.5
				L163.8,89.5z"/>
			<path class="st100" d="M159.5,87.2c-0.2,0-0.3-0.1-0.4-0.1c-0.1,0-0.1-0.1-0.2-0.1c-0.2,0.1-0.4,0.2-0.6,0.3
				c-0.1-0.1-0.2-0.3-0.4-0.4c-0.1,0-0.1,0,0-0.1c0,0,0.1,0,0.1,0c0-0.3,0.3-0.4,0.4-0.6c0,0,0.1,0,0.1,0c0.1,0,0.1,0.1,0.1,0.1
				c0,0.3,0.2,0.4,0.5,0.4c0,0,0.1,0,0.1,0c0.2,0.1,0.4,0.1,0.6,0.3C159.9,87.2,159.7,87.1,159.5,87.2L159.5,87.2L159.5,87.2z"/>
			<path class="st101" d="M163,89.3c-0.4,0.1-0.6,0.3-0.6,0.7c0,0.2-0.1,0.3-0.2,0.3c-0.2-0.1-0.3-0.1-0.5-0.2
				c-0.1-0.1-0.2-0.1-0.2-0.2c0.1-0.3,0.3-0.4,0.6-0.5c0.1,0,0.2-0.1,0.3-0.2c0.2-0.2,0.4-0.3,0.7-0.1C163,89.2,163,89.2,163,89.3
				L163,89.3L163,89.3z"/>
			<path class="st102" d="M164.3,90.7c0-0.4,0.1-0.7,0.1-1.1c0.1-0.1,0.2-0.1,0.3-0.1c0.4,0.4,0.4,0.8,0.1,1.1
				C164.7,90.7,164.5,90.6,164.3,90.7L164.3,90.7L164.3,90.7L164.3,90.7z"/>
			<path class="st103" d="M164.4,90.7c0.1-0.1,0.3,0,0.5,0c0.1-0.1,0.3-0.1,0.4,0c0,0,0,0.1,0,0.1L164.4,90.7L164.4,90.7L164.4,90.7
				z"/>
			<path class="st100" d="M157.8,86.7C157.8,86.7,157.8,86.6,157.8,86.7c-0.1-0.1-0.1-0.1-0.2-0.2C157.8,86.5,157.9,86.5,157.8,86.7
				L157.8,86.7L157.8,86.7z"/>
			<path class="st104" d="M163,90.5c0,0,0.1,0,0.1,0c0.1,0,0.2,0,0.2,0.1C163.2,90.6,163.1,90.5,163,90.5L163,90.5z"/>
			<path class="st105" d="M165.6,90.7c0.1,0,0.2,0,0.3,0.1L165.6,90.7C165.6,90.7,165.6,90.7,165.6,90.7L165.6,90.7z"/>
			<path class="st106" d="M165.6,90.7L165.6,90.7c-0.1,0-0.2,0-0.3,0v0C165.4,90.6,165.4,90.6,165.6,90.7
				C165.6,90.7,165.6,90.7,165.6,90.7L165.6,90.7L165.6,90.7z"/>
			<path class="st107" d="M168.2,90.4c-0.2,0-0.4,0.1-0.6,0.1h-0.1c-0.1-0.1,0-0.3-0.1-0.4c-0.1-0.1,0-0.1,0.1-0.1
				c0.2-0.1,0.3-0.2,0.4-0.3c0.1-0.2,0.2-0.1,0.3-0.1c0.1,0,0.1,0.1,0.1,0.1c0,0.2,0.1,0.2,0.2,0.3
				C168.5,90.2,168.3,90.3,168.2,90.4L168.2,90.4L168.2,90.4z"/>
			<path class="st108" d="M169.2,84.8c-0.3,0-0.6,0-0.8,0.1c-0.1,0.1-0.1,0.1-0.2,0.1c-0.2-0.2-0.1-0.3,0-0.4
				c0.1-0.1,0.2-0.2,0.2-0.4c0-0.2,0.1-0.4,0.3-0.5c0.2-0.1,0.4-0.2,0.5-0.4c0.1-0.2,0.4-0.3,0.6-0.1c0.1,0.1,0.2,0.1,0.3,0.2
				c-0.2,0.3-0.2,0.5,0.1,0.8c0.1,0.1,0.1,0.1,0.1,0.2s-0.1,0.1-0.2,0.1c-0.3-0.1-0.5,0-0.8,0.1C169.1,84.5,169,84.6,169.2,84.8
				L169.2,84.8L169.2,84.8z"/>
			<path class="st109" d="M163.9,84c0.3,0,0.4-0.1,0.6-0.3s0.1-0.6,0.4-0.8c0.1-0.1,0-0.3,0.2-0.4c0.1,0.1,0.2,0.2,0.2,0.4
				c0,0.1,0.1,0.2,0.2,0.2c0.1,0,0.2,0,0.3,0.2c0,0.2,0.1,0.4,0,0.6c-0.1,0.2-0.3,0.2-0.5,0.2c-0.2-0.1-0.3-0.1-0.5,0
				c-0.2,0.1-0.5-0.1-0.7,0c-0.1,0-0.2,0-0.3,0.1c-0.1,0.1-0.3,0.1-0.4,0.1c0-0.2,0.1-0.2,0.2-0.2C163.7,84,163.8,84,163.9,84
				L163.9,84L163.9,84z"/>
			<path class="st110" d="M168.4,84.1c0.2,0.2,0.1,0.3-0.1,0.4c-0.1,0.1-0.3,0.1-0.3,0.3c0,0,0,0.1-0.1,0.1c-0.1,0-0.2,0-0.4,0
				c-0.1,0-0.1-0.1-0.2-0.1c-0.1-0.4-0.5-0.4-0.8-0.4c-0.4,0-0.7,0-1.1-0.2c0.2-0.1,0.4-0.2,0.7-0.3c0.2,0,0.4-0.1,0.6,0
				c0.1,0.1,0.3,0,0.4,0c0.2-0.1,0.5,0,0.7-0.1c0.1,0,0.1,0.1,0.1,0.1C168.3,84,168.3,84.1,168.4,84.1L168.4,84.1L168.4,84.1z"/>
			<path class="st111" d="M165.6,84.2c0.4-0.1,0.8,0.1,1.2,0c0.2,0,0.4,0.1,0.6,0.2c0.2,0.1,0.1,0.3,0.2,0.4c0,0.1-0.1,0.1-0.2,0.1
				c-0.1,0-0.2,0.1-0.3,0.1c-0.1,0-0.2,0-0.4,0c-0.1,0-0.2,0-0.3-0.1c-0.1-0.1-0.1-0.1-0.1-0.2c0-0.1-0.1-0.2-0.3-0.2
				c-0.2,0-0.4-0.1-0.5-0.1c-0.1,0-0.1-0.1-0.1-0.2L165.6,84.2L165.6,84.2L165.6,84.2z"/>
			<path class="st112" d="M165.5,84.2c0.2,0.1,0.4,0.2,0.6,0.2c0.2,0,0.3,0.1,0.4,0.2c-0.2,0.1-0.4,0.1-0.5,0
				c-0.3-0.1-0.6-0.2-0.9-0.1c-0.7-0.1-1.4-0.2-2.1-0.2c-0.1,0-0.3,0.1-0.4-0.2c0.1-0.1,0.1-0.1,0.2,0l0,0c0.1,0.1,0.2,0,0.4,0
				c0.1,0,0.1,0,0.2,0c0.1,0,0.3-0.1,0.4,0c0.1,0.1,0.2,0.1,0.3,0.1L165.5,84.2L165.5,84.2L165.5,84.2z"/>
			<path class="st113" d="M168,84.8C168,84.8,168.1,84.8,168,84.8c0.1,0,0.2,0,0.3,0c-0.2,0.4-0.1,0.9,0.1,1.3
				c0.1,0.2,0.1,0.2,0.3,0.2c0.1,0,0.2,0,0.2,0c0.2,0.3,0.5,0.2,0.8,0.2c0.1,0,0.2,0,0.3,0.1c0,0.1,0,0.1-0.1,0.2
				c-0.3,0.2-0.6,0.4-1,0.4c0,0-0.1,0-0.1,0c-0.1-0.2-0.4-0.2-0.5-0.5c0-0.1-0.1-0.1-0.2-0.2c-0.2-0.1-0.5-0.2-0.8-0.2
				c-0.3-0.1-0.4-0.3-0.4-0.6c0-0.2,0.1-0.4,0.3-0.5c0.2-0.1,0.3-0.2,0.5-0.3C167.8,84.8,167.9,84.9,168,84.8L168,84.8L168,84.8z"/>
			<path class="st114" d="M168.9,87.1c0.4-0.1,0.7-0.3,1-0.5c0.2-0.1,0.4-0.2,0.6-0.2c0.2,0.1,0.3,0.2,0.2,0.5
				c-0.2,0.3-0.5,0.4-0.8,0.3c-0.1,0-0.1,0-0.2,0.1c-0.3,0.3-0.7,0.4-1.1,0.5c-0.3,0.1-0.5-0.1-0.5-0.4c0.1-0.2,0.4-0.1,0.5-0.2
				C168.7,87.1,168.8,87.1,168.9,87.1L168.9,87.1L168.9,87.1z"/>
			<path class="st115" d="M170.7,86.8c0-0.2-0.1-0.3-0.2-0.5c0,0,0-0.1,0.1-0.1c0.2,0,0.4-0.2,0.6-0.3c0.1,0.2,0.2,0.3,0.4,0.4
				c0.2,0.2,0.1,0.4,0,0.6C171.2,87.3,170.8,87.2,170.7,86.8L170.7,86.8L170.7,86.8z"/>
			<path class="st116" d="M171.5,87c0-0.1,0-0.1,0-0.2c0-0.2,0-0.3-0.2-0.4c-0.2-0.1-0.1-0.3-0.1-0.4c0.1-0.1,0.3-0.2,0.4-0.2
				c0.1,0,0.3-0.1,0.4,0c0.1,0.1,0.3,0.2,0.2,0.4c0.1,0.2,0.2,0.4,0.2,0.7c-0.1,0.3-0.6,0.5-0.9,0.4C171.5,87.2,171.5,87.1,171.5,87
				L171.5,87L171.5,87z"/>
			<path class="st117" d="M172.2,86.1c-0.1-0.1-0.2-0.2-0.2-0.4c-0.1-0.1-0.1-0.2,0-0.3l0.1-0.1c0.1,0.1,0.2,0,0.3-0.1
				c0.1,0,0.1-0.1,0.2-0.2c0.1-0.1,0.2-0.1,0.2-0.3l0.1-0.1h0.2c-0.1,0.2-0.2,0.3-0.1,0.5c-0.1,0.2-0.2,0.4-0.3,0.6
				c-0.1,0.1-0.1,0.2,0,0.3C172.5,86.2,172.4,86.2,172.2,86.1L172.2,86.1L172.2,86.1z"/>
			<path class="st118" d="M172.4,84.8c0,0.1,0,0.3-0.2,0.3c-0.1,0-0.2,0.1-0.3,0.1c-0.1,0-0.3-0.1-0.3-0.2c-0.1-0.2,0.1-0.2,0.2-0.3
				C172,84.6,172.2,84.7,172.4,84.8L172.4,84.8L172.4,84.8z"/>
			<path class="st119" d="M172,85.5v0.3c-0.1,0-0.3,0.1-0.4,0C171.7,85.7,171.9,85.6,172,85.5L172,85.5L172,85.5z"/>
			<path class="st120" d="M171.1,88.6c-0.2,0.2-0.5,0.3-0.7,0.5c-0.4-0.3-1-0.2-1.2,0.3c-0.1,0.2-0.1,0.3,0.2,0.3
				c0.1,0,0.1,0,0.2,0.1c0,0.1-0.1,0.1-0.2,0.2c-0.1,0-0.2,0.1-0.3,0.1c-0.3-0.1-0.4-0.4-0.3-0.7c0.2-0.5,0.6-0.7,1-0.8
				c0.3-0.1,0.5-0.3,0.8-0.4c0.2,0,0.4-0.1,0.6,0c0.1,0,0.2,0,0.2,0.2C171.3,88.4,171.2,88.5,171.1,88.6L171.1,88.6L171.1,88.6z"/>
			<path class="st121" d="M171.4,88.3c-0.2-0.2-0.5-0.1-0.8-0.1c0,0,0,0-0.1,0c0-0.2,0.1-0.2,0.2-0.3c0.2-0.1,0.4-0.2,0.5-0.5
				c0.1-0.1,0.2-0.3,0.4-0.2c0.3-0.1,0.6-0.2,0.9-0.4c0.1,0,0.1,0,0.2,0.1C172.2,87.3,171.8,87.8,171.4,88.3L171.4,88.3L171.4,88.3z
				"/>
			<path class="st122" d="M162.8,84.1c-0.1,0-0.1,0-0.2,0.1c-0.2,0.2-0.4,0-0.6,0c-0.1-0.1-0.3-0.1-0.2-0.3v-0.1
				c0.1,0,0.2,0.1,0.3,0.1c0.1,0,0.1,0.1,0.2,0.1C162.5,83.8,162.7,84,162.8,84.1L162.8,84.1L162.8,84.1z"/>
			<path class="st72" d="M163.4,84.2h-0.2c0,0,0,0,0-0.1c0.2-0.1,0.4-0.2,0.7-0.1c-0.1,0.1-0.1,0.1-0.2,0.1
				C163.5,84.1,163.4,84.1,163.4,84.2z"/>
			<path class="st122" d="M163.2,84.1L163.2,84.1c-0.1,0-0.2,0.1-0.4,0L163.2,84.1L163.2,84.1z"/>
			<path class="st123" d="M159,83.6l0.8,0l0,0c0,0,0,0,0,0.1c0,0.2-0.2,0.4-0.2,0.6c-0.1,0-0.2,0.2-0.3,0.2c-0.1,0.1-0.3,0-0.4,0
				c0,0-0.1-0.1-0.1-0.1c0.1-0.1,0.3-0.1,0.4-0.3c0-0.1-0.1-0.1-0.1-0.1c-0.1,0-0.3,0-0.2-0.2C159,83.8,159,83.7,159,83.6L159,83.6
				L159,83.6z"/>
			<path class="st124" d="M157.5,83.6c0.1,0,0.2,0.1,0.3-0.1c0.1,0.3,0.4,0.3,0.6,0.4c0.1,0.1,0.2,0.1,0.2,0.2
				c0,0.1-0.2,0.1-0.3,0.1c-0.2-0.2-0.5-0.2-0.8-0.3C157.5,83.8,157.5,83.7,157.5,83.6L157.5,83.6L157.5,83.6z"/>
			<path class="st125" d="M157.5,83.9c0.3,0,0.6,0,0.8,0.3c0,0,0,0-0.1,0.1c0,0-0.1,0-0.1,0c-0.1-0.1-0.3-0.1-0.4-0.2
				c-0.1,0-0.1-0.1-0.2-0.1C157.5,84,157.4,84,157.5,83.9L157.5,83.9L157.5,83.9L157.5,83.9z"/>
			<path class="st126" d="M158.9,84.4C158.9,84.4,158.9,84.4,158.9,84.4C158.9,84.5,158.9,84.5,158.9,84.4c-0.2,0.1-0.4,0.2-0.6,0.1
				c0,0-0.1,0-0.1,0c-0.1-0.1,0-0.1,0.1-0.1C158.5,84.3,158.7,84.4,158.9,84.4L158.9,84.4L158.9,84.4z"/>
			<path class="st127" d="M158.3,84.3c0,0-0.1,0.1-0.1,0.1c-0.1,0.1-0.2,0.1-0.3,0.1c-0.1-0.2,0-0.2,0.1-0.2c0,0,0.1,0,0.1,0h0
				c0,0,0.1,0,0.1,0C158.2,84.3,158.3,84.3,158.3,84.3L158.3,84.3L158.3,84.3z"/>
			<path class="st128" d="M159.8,83.7L159.8,83.7c0.6,0,1.2-0.1,1.8,0.1c0.1,0,0.1,0,0.2,0c0,0.1,0.1,0.1,0.2,0.2
				c-0.1,0.1-0.2,0.1-0.4,0.1c-0.4-0.1-0.7-0.2-1.1-0.2c-0.2,0-0.3-0.1-0.5-0.1C160,83.8,159.9,83.8,159.8,83.7L159.8,83.7
				L159.8,83.7z"/>
			<path class="st129" d="M157.3,83c-0.1,0-0.1,0-0.1,0.1l0,0c-0.1,0-0.2,0-0.3,0C157,82.9,157.2,83,157.3,83L157.3,83L157.3,83
				L157.3,83z"/>
			<path class="st85" d="M156.9,83h0.3C157.1,83.1,157,83.1,156.9,83C156.8,83,156.8,83,156.9,83L156.9,83
				C156.9,83,156.9,83,156.9,83L156.9,83L156.9,83z"/>
			<path class="st130" d="M156.9,83L156.9,83c-0.1,0-0.3,0.1-0.5,0L156.9,83L156.9,83z"/>
			<path class="st131" d="M156.2,83.2c0-0.1,0.1-0.1,0.2-0.1c0.1,0.1,0.2,0.1,0.3,0.1c0.1,0,0.1,0,0.2,0.1c0,0.1,0,0.1-0.1,0.2
				c-0.1,0.1-0.2,0.1-0.3,0.2C156.2,83.6,156.1,83.4,156.2,83.2C156.2,83.2,156.2,83.2,156.2,83.2z"/>
			<path class="st132" d="M156.2,83.2c0,0.2,0.1,0.3,0.3,0.4c0,0.1,0,0.1,0.1,0.2c0.2,0.1,0.3,0.2,0.3,0.4c0,0,0,0.1,0,0.1
				c-0.1,0-0.1,0-0.1,0c-0.1-0.2-0.2-0.4-0.4-0.5c-0.1-0.1-0.1-0.2-0.2-0.4c-0.1,0-0.1-0.1-0.1-0.2H156.2L156.2,83.2L156.2,83.2z"/>
			<path class="st133" d="M157.5,83.9L157.5,83.9c0.1,0.1,0.2,0.1,0.2,0.2c-0.1,0.1-0.2,0-0.3,0c-0.1,0-0.2,0-0.2,0.1
				c0,0-0.1,0.1-0.1,0.1c-0.1,0-0.1-0.1-0.1-0.1c0-0.1,0-0.1,0-0.2c0.1-0.1,0.3,0,0.4-0.1C157.3,83.9,157.4,83.9,157.5,83.9
				C157.4,83.9,157.4,83.9,157.5,83.9L157.5,83.9L157.5,83.9z"/>
			<path class="st134" d="M156.7,83.6c0.2,0,0.6,0.1,0.7,0.3c-0.1,0.1-0.2,0-0.2,0c0,0-0.1,0-0.1,0c-0.1,0-0.1-0.1-0.2-0.1
				C156.8,83.7,156.7,83.7,156.7,83.6L156.7,83.6L156.7,83.6z"/>
			<path class="st135" d="M156.8,84.1c-0.1-0.1-0.2-0.3-0.2-0.4l0.1-0.1c0.1,0,0.1,0.1,0.1,0.1c0,0,0,0,0.1,0.1
				C156.9,83.9,156.9,84,156.8,84.1C156.8,84.1,156.8,84.1,156.8,84.1C156.8,84.1,156.8,84.1,156.8,84.1z"/>
			<path class="st136" d="M157.4,83.9C157.4,83.9,157.3,83.9,157.4,83.9c-0.2,0.1-0.3,0-0.4,0c0,0-0.1,0-0.1,0c0,0,0-0.1,0-0.1
				c0,0,0-0.1,0.1-0.1c0.1,0,0.1,0,0.1,0l0,0C157.1,83.8,157.2,83.8,157.4,83.9C157.3,83.9,157.3,83.9,157.4,83.9L157.4,83.9
				L157.4,83.9z"/>
			<path class="st137" d="M156.7,83.8c0,0-0.1-0.1-0.1-0.2l0.1-0.1c0.1,0,0.1,0,0.2,0.1c0,0,0,0,0,0.1
				C156.8,83.8,156.7,83.7,156.7,83.8C156.7,83.8,156.7,83.8,156.7,83.8z"/>
			<path class="st138" d="M157.3,83.9c-0.1,0-0.2,0-0.2-0.1C157.2,83.8,157.2,83.8,157.3,83.9L157.3,83.9L157.3,83.9L157.3,83.9z"/>
			<path class="st139" d="M158.5,86.1h-0.1c-0.2-0.1-0.4-0.2-0.6-0.2c-0.2-0.1-0.2-0.2-0.1-0.4c0.1-0.2,0.1-0.3,0.2-0.4
				c0.1-0.1,0.2,0,0.3,0c0.1,0,0.1,0.1,0.1,0.2c0.1,0.2,0.2,0.3,0.4,0.3c0,0,0.1,0,0.1,0.1c0,0,0,0,0.1,0.1
				C158.8,85.9,158.8,86,158.5,86.1L158.5,86.1L158.5,86.1z"/>
			<path class="st140" d="M158.1,85c-0.1,0-0.2,0-0.3-0.1c-0.1-0.1-0.2-0.1-0.2-0.2v-0.1c0.1-0.1,0.1,0,0.2,0
				C157.9,84.8,158,84.9,158.1,85C158.1,85,158.1,85,158.1,85L158.1,85L158.1,85z"/>
			<path class="st141" d="M157.4,84.7c-0.1,0.3-0.2,0.5-0.5,0.3l0,0c0-0.1,0.1-0.2,0.1-0.3C157.1,84.7,157.2,84.6,157.4,84.7
				C157.4,84.6,157.4,84.6,157.4,84.7L157.4,84.7L157.4,84.7z"/>
			<path class="st142" d="M157.4,84.7c0,0-0.1,0-0.1-0.1c0,0,0,0,0-0.1s0-0.1,0-0.1c0,0,0,0,0.1,0s0.1,0,0.1,0
				c0.1,0,0.1,0.1,0.1,0.1C157.5,84.6,157.5,84.7,157.4,84.7C157.5,84.7,157.4,84.7,157.4,84.7L157.4,84.7L157.4,84.7z"/>
			<path class="st143" d="M157.8,84.8c-0.1,0-0.1,0-0.2-0.1c0,0,0-0.1-0.1-0.1v0c0,0,0.1,0,0.1,0C157.7,84.7,157.8,84.7,157.8,84.8
				C157.8,84.8,157.8,84.8,157.8,84.8C157.8,84.8,157.8,84.8,157.8,84.8z"/>
			<path class="st144" d="M156.5,84.8C156.5,84.8,156.5,84.8,156.5,84.8l-0.1-0.1c0-0.1-0.1-0.3,0-0.4c0.1,0,0.2,0,0.2,0.1
				c0.1,0.1,0.1,0.2,0,0.4C156.7,84.8,156.7,84.8,156.5,84.8C156.6,84.8,156.6,84.8,156.5,84.8L156.5,84.8L156.5,84.8z"/>
			<path class="st145" d="M156.6,84.8L156.6,84.8c0.2-0.1,0.3-0.1,0.5,0c0,0.1-0.1,0.1-0.2,0.2C156.8,85,156.7,84.9,156.6,84.8
				L156.6,84.8z"/>
			<path class="st146" d="M155.8,83.8C155.8,83.8,155.8,83.8,155.8,83.8c0.1,0,0.1,0,0.1,0l0,0c0.1,0.1,0.3,0.1,0.2,0.3
				c0,0-0.1,0-0.1,0c-0.1,0-0.1-0.2-0.2-0.2L155.8,83.8L155.8,83.8L155.8,83.8z"/>
			<path class="st147" d="M156,84.1h0.1c0.1,0,0.1,0,0.1,0.1c0,0.1,0,0.2-0.1,0.2c0,0,0,0-0.1,0C156.2,84.2,156.1,84.2,156,84.1
				L156,84.1L156,84.1z"/>
			<path class="st148" d="M156.5,84.4c0.1,0.1,0.1,0.2,0,0.3c-0.1-0.1-0.2-0.2-0.2-0.3c0-0.1-0.1-0.2,0-0.3c0,0,0.1,0,0.1,0
				C156.5,84.2,156.6,84.3,156.5,84.4C156.5,84.4,156.5,84.4,156.5,84.4z"/>
			<path class="st149" d="M156.3,84.2c0,0.1,0.1,0.2,0,0.3c0-0.1,0-0.1-0.1-0.2L156.3,84.2C156.2,84.1,156.3,84.1,156.3,84.2
				C156.3,84.1,156.3,84.2,156.3,84.2L156.3,84.2L156.3,84.2z"/>
			<path class="st150" d="M156.1,83.3c0.1,0.3,0.4,0.4,0.5,0.6c0,0.1,0.1,0.1,0.1,0.2c0,0,0,0-0.1,0c-0.1,0-0.2-0.2-0.4-0.1h-0.1
				c0,0-0.1,0-0.1-0.1C156.1,83.7,156.1,83.5,156.1,83.3L156.1,83.3L156.1,83.3z"/>
			<path class="st95" d="M156.1,83.9c0,0,0.1,0,0.1,0.1c0.1,0.1,0,0.1,0,0.2l0,0c0,0-0.1,0-0.1-0.1c-0.1-0.1-0.2-0.1-0.2-0.3
				C156,83.8,156.1,83.9,156.1,83.9L156.1,83.9z"/>
			<path class="st151" d="M162.9,89.2c-0.3-0.1-0.5-0.1-0.6,0.2c0,0.1-0.1,0.1-0.1,0.1c-0.4,0-0.5,0.3-0.8,0.5
				c-0.2-0.1-0.4-0.2-0.6-0.4c0.1-0.3-0.1-0.6,0-0.9c0-0.1,0-0.3,0-0.4c0.1-0.3,0-0.4-0.3-0.5c0-0.1,0-0.1,0.1-0.1
				c0.3,0,0.5-0.2,0.8-0.1c0.2,0.1,0.2,0,0.2-0.2c0-0.1,0-0.2,0.1-0.2c0.2-0.1,0.3,0,0.5,0.1c0.1,0.1,0.1,0.2,0.1,0.4
				c-0.1,0.2-0.1,0.3-0.2,0.6c0,0.1-0.1,0.2-0.2,0.1c0.2,0.1,0.4,0.2,0.5,0.3c0.1,0.1,0.1,0.2,0.2,0.3c0.1,0,0.1,0.1,0.2,0.1
				C162.8,89,162.9,89,162.9,89.2C162.9,89.2,162.9,89.2,162.9,89.2L162.9,89.2L162.9,89.2z"/>
			<path class="st152" d="M161.7,87.3c-0.1,0.1-0.1,0.1,0,0.2c0,0.1,0.1,0.2,0,0.2c-0.1,0.1-0.2,0.1-0.3,0.1c-0.3-0.2-0.6,0-0.9,0.1
				c-0.1-0.1-0.2-0.3-0.3-0.4c-0.2-0.2-0.4-0.2-0.6-0.2c0.1-0.1,0.2-0.1,0.3-0.2c0-0.1,0.1-0.1,0.1-0.1c0.2,0,0.4,0.2,0.5,0.4
				c0.3,0.3,0.4,0.3,0.6,0c0.1-0.1,0.2-0.2,0.3-0.2C161.5,87.1,161.7,87.1,161.7,87.3L161.7,87.3L161.7,87.3z"/>
			<path class="st153" d="M165.5,90.7h-0.2c-0.1,0-0.3,0-0.5,0c0.1-0.3,0.1-0.7-0.1-1c0.1-0.1,0.1-0.1,0.2,0c0.1,0,0.1,0.1,0.2,0.1
				c0.2,0,0.3,0.2,0.3,0.3C165.5,90.2,165.5,90.4,165.5,90.7L165.5,90.7L165.5,90.7z"/>
			<path class="st154" d="M166.2,89.5c-0.3,0-0.6,0-0.8,0c-0.1-0.2-0.1-0.5,0.1-0.7c0.1-0.1,0.3-0.1,0.5-0.1
				C166.3,88.8,166.4,89.2,166.2,89.5L166.2,89.5L166.2,89.5z"/>
			<path class="st155" d="M165.4,88.9c0,0.2-0.1,0.5-0.1,0.7c-0.1,0-0.1,0-0.2,0c-0.1,0-0.3,0-0.4,0c-0.1-0.1-0.1-0.2-0.1-0.3
				c-0.1-0.2-0.1-0.3,0.1-0.5c0.1,0,0.2,0,0.3,0h0.3C165.3,88.8,165.4,88.8,165.4,88.9C165.4,88.8,165.4,88.8,165.4,88.9L165.4,88.9
				L165.4,88.9z"/>
			<path class="st156" d="M166.2,89.5c0-0.2-0.1-0.4,0-0.5c0-0.2-0.2-0.1-0.2-0.2c0.1-0.1,0.1-0.1,0.2-0.1c0.1,0,0.2,0.1,0.4,0.1
				c0.1,0,0.2,0.1,0.2,0.2c0.3,0.2,0.3,0.4,0,0.6L166.2,89.5L166.2,89.5L166.2,89.5z"/>
			<path class="st157" d="M166.7,89.6c0.2-0.3,0-0.5-0.2-0.7c0.1-0.1,0.2-0.1,0.4-0.1c0.5,0.1,0.5,0.2,0.2,0.6c0,0,0,0.1,0,0.1
				C167,89.5,166.9,89.6,166.7,89.6L166.7,89.6C166.8,89.6,166.8,89.6,166.7,89.6L166.7,89.6z"/>
			<path class="st158" d="M168.2,89.6c-0.1,0-0.2,0-0.4,0c0,0,0-0.1-0.1-0.1c0-0.1,0-0.1,0.1-0.1c0.1,0,0.2-0.1,0.2-0.2
				c0-0.1,0-0.2,0.1-0.2c0.4,0.1,0.5,0.3,0.3,0.6C168.4,89.7,168.3,89.7,168.2,89.6L168.2,89.6z"/>
			<path class="st159" d="M167.9,89.5l-0.1,0.1c-0.3,0.1-0.7,0.2-1,0l0,0c0.2-0.1,0.4-0.1,0.6-0.1c0.1,0,0.1-0.1,0.1-0.1
				s0.1-0.1,0.1-0.1c0,0,0.1,0,0.1,0C167.8,89.4,167.9,89.4,167.9,89.5L167.9,89.5L167.9,89.5z"/>
			<path class="st160" d="M164.8,89.5c0.1,0,0.3,0,0.4,0.1c0,0.1-0.1,0-0.1,0c-0.2-0.1-0.3,0-0.5,0c-0.1,0-0.2,0-0.2-0.1
				C164.4,89.3,164.6,89.3,164.8,89.5L164.8,89.5L164.8,89.5z"/>
			<path class="st161" d="M164.3,89.5c0.2,0.1,0.5,0,0.7,0.1c0,0,0,0-0.1,0h-0.2c-0.1,0-0.2,0-0.4,0c-0.1,0-0.1,0-0.2,0
				C164.2,89.5,164.2,89.5,164.3,89.5L164.3,89.5z"/>
			<path class="st162" d="M164.3,89.5c0,0-0.1,0-0.1,0.1c-0.1-0.1-0.3,0-0.4-0.1c-0.1-0.1-0.1,0-0.2-0.1c-0.1-0.1-0.2-0.1-0.3-0.2
				c0-0.1,0-0.2,0.1-0.2c0.1,0,0.1-0.1,0.2-0.2c0.3-0.1,0.7-0.1,1,0c0,0,0,0,0,0c-0.1,0.2-0.1,0.3,0.1,0.4c0.1,0.1,0.1,0.2,0,0.2
				C164.6,89.5,164.5,89.5,164.3,89.5L164.3,89.5L164.3,89.5z"/>
			<path class="st163" d="M163.3,89.3c0.1,0,0.2,0.1,0.2,0.2h-0.1c-0.1,0-0.1,0-0.2-0.1C163.3,89.4,163.3,89.3,163.3,89.3
				C163.3,89.3,163.3,89.3,163.3,89.3L163.3,89.3L163.3,89.3z"/>
			<path class="st164" d="M163.3,89.4c0.1,0,0.1,0,0.2,0.1c-0.1,0-0.3,0.2-0.4-0.1c0,0,0,0,0,0c0,0,0,0,0.1,0
				C163.2,89.3,163.2,89.3,163.3,89.4C163.3,89.4,163.3,89.4,163.3,89.4L163.3,89.4L163.3,89.4z"/>
			<path class="st165" d="M163,89.3c0,0-0.1-0.1-0.1-0.1l0,0c0.1-0.1,0.1-0.1,0.2,0c0.1,0.1,0,0.1,0,0.2l0,0
				C163.1,89.4,163.1,89.3,163,89.3L163,89.3L163,89.3z"/>
			<path class="st166" d="M158.5,86.1c0.2-0.2,0.2-0.3,0.2-0.6c0.1-0.1,0.2,0,0.2,0.1c0.1,0.2,0.3,0.4,0.5,0.5
				c0.1,0.1,0.1,0.3,0.1,0.4c0,0.1-0.1,0.2-0.3,0.2c-0.1,0-0.2,0-0.3,0C158.6,86.6,158.5,86.5,158.5,86.1L158.5,86.1L158.5,86.1z"/>
			<path class="st167" d="M159.2,86.7c0.3-0.1,0.2-0.4,0.2-0.6c0-0.1,0.1-0.1,0.1-0.1c0.2,0,0.3,0.2,0.4,0.3
				c0.1,0.2,0.3,0.4,0.1,0.6h-0.1C159.6,86.9,159.4,86.8,159.2,86.7L159.2,86.7L159.2,86.7z"/>
			<path class="st168" d="M168.2,90.4c0-0.2,0.1-0.3,0.2-0.4c0.2-0.1,0.3,0,0.5,0.1c0,0.2-0.1,0.1-0.2,0.1l0,0
				c-0.1,0.1-0.1,0.1-0.2,0.1C168.3,90.3,168.3,90.4,168.2,90.4L168.2,90.4L168.2,90.4z"/>
			<path class="st169" d="M168.9,90.1c-0.1-0.1-0.3-0.1-0.5-0.1c-0.3,0-0.3-0.1-0.2-0.4c0.1,0,0.1,0,0.2-0.1c0,0,0.1,0,0.1,0
				c0.1,0.1,0.1,0.2,0.2,0.3c0.1,0.1,0.2,0.2,0.3,0.2c0,0,0,0,0,0.1C169,90.1,169,90.1,168.9,90.1C168.9,90.2,168.9,90.1,168.9,90.1
				L168.9,90.1L168.9,90.1z"/>
			<path class="st170" d="M168,84.8c-0.1,0.1-0.3,0-0.4,0c0,0-0.1,0-0.1,0c0,0,0,0,0,0c0,0,0,0,0,0c0.1,0,0.1,0,0.2,0
				C167.8,84.8,167.9,84.8,168,84.8L168,84.8z"/>
			<path class="st171" d="M168.3,86.7c0.2,0.1,0.4,0.2,0.4,0.4c-0.3,0.1-0.7,0.2-1,0.1c0,0-0.1,0-0.1,0c-0.5,0.1-0.8-0.2-1.1-0.6
				c-0.1-0.1-0.2-0.2-0.4-0.3c0,0-0.1,0-0.1-0.1c-0.1-0.3-0.5-0.4-0.8-0.6c0,0,0,0-0.1-0.1c-0.3-0.4-0.2-0.6,0.2-0.8
				c0,0,0.1,0,0.1,0c0.3-0.1,0.6-0.1,0.9,0.1c0.1,0,0.2,0,0.3,0c0.1,0.1,0.1,0.2-0.1,0.3c-0.3,0.2-0.3,0.3-0.1,0.6
				c0.1,0.2,0.2,0.3,0.2,0.5c-0.1,0.1,0.1,0.1,0.1,0.1c0.3,0.1,0.7,0.1,1,0.1C168.1,86.6,168.2,86.6,168.3,86.7L168.3,86.7
				L168.3,86.7z"/>
			<path class="st172" d="M168.3,86.7c-0.5-0.1-1-0.2-1.5-0.2c-0.1,0-0.1,0-0.1,0c0-0.1,0-0.1,0-0.2c0.2-0.2,0.1-0.3-0.1-0.4
				c-0.4-0.4-0.3-0.5,0.1-0.8c0.1-0.1,0.1-0.2,0.1-0.2c0.1,0,0.2,0,0.4,0c0.1,0,0.2,0,0.3,0c0.1,0,0.1,0,0.2,0
				c-0.1,0.2-0.2,0.2-0.4,0.3c-0.3,0.2-0.4,0.3-0.2,0.7c0.1,0.3,0.3,0.4,0.6,0.4c0,0,0,0,0.1,0C167.8,86.2,168.2,86.5,168.3,86.7
				L168.3,86.7L168.3,86.7z"/>
			<path class="st173" d="M166.5,84.8c-0.3,0-0.6-0.1-0.9,0c-0.1-0.1-0.1-0.2-0.2-0.2c-0.1-0.1-0.1-0.1-0.2-0.1
				c-0.1,0-0.1,0-0.1-0.1c0.5-0.1,0.9,0.2,1.4,0.2C166.5,84.7,166.5,84.8,166.5,84.8L166.5,84.8L166.5,84.8z"/>
			<path class="st174" d="M167.5,84.9h-0.3C167.3,84.8,167.4,84.8,167.5,84.9L167.5,84.9L167.5,84.9L167.5,84.9z"/>
			<path class="st175" d="M165,84.4c0.1,0.1,0.3,0.1,0.4,0.2c0,0.1-0.1,0.1-0.1,0.1c-0.4,0-0.8,0-1.2-0.1c-0.2-0.3-0.5-0.2-0.8-0.2
				c-0.1-0.1-0.4,0-0.4-0.2c0.4,0.1,0.8,0.1,1.2,0.1C164.4,84.3,164.7,84.4,165,84.4L165,84.4L165,84.4z"/>
			<path class="st176" d="M162.9,84.2c0.1,0.2,0.3,0.1,0.4,0.2c-0.1,0.1-0.1,0.1-0.2,0.1c-0.4,0-0.7,0-1.1,0c-0.1,0-0.2,0-0.3-0.1
				c-0.1-0.1-0.1-0.1,0-0.2c0.1,0,0.2-0.1,0.3,0c0.2,0,0.4,0.1,0.6,0.1C162.7,84.2,162.8,84.2,162.9,84.2L162.9,84.2L162.9,84.2z"/>
			<path class="st177" d="M165.4,85.6c0.1,0.1,0.2,0.2,0.4,0.1c0.1,0,0.2,0.1,0.2,0.2c0,0.2,0.1,0.3,0.2,0.3
				c0.3,0.1,0.4,0.4,0.6,0.6c0.2,0.2,0.4,0.3,0.8,0.3c0.4,0,0.8,0,1.2,0h0.1c-0.2,0.2-0.4,0.2-0.7,0.2c-0.1,0.1-0.1,0.2-0.2,0.2
				c-0.7,0.2-1.3,0.3-2,0.3c-0.1,0-0.1,0-0.2,0c0-0.2-0.2-0.4-0.2-0.6c-0.1-0.2,0-0.5-0.1-0.8c0-0.1,0.1-0.3,0.2-0.4l0,0
				c0,0,0,0,0,0c-0.2,0-0.5,0.1-0.6-0.2C165,85.6,165.1,85.5,165.4,85.6L165.4,85.6L165.4,85.6z"/>
			<path class="st178" d="M165.7,87.8c0.6,0.1,1.3-0.1,1.9-0.3c0.2-0.1,0.4-0.1,0.6-0.2c0.2,0.4,0.2,0.3,0.5,0.3
				c0.3-0.1,0.5-0.2,0.8-0.3c0.1,0,0.1,0,0.1-0.1c0.1-0.2,0.2-0.2,0.4-0.1c0.1,0.1,0.2,0,0.3-0.1c0.1-0.1,0.3-0.1,0.4-0.2
				c0.2,0.3,0.5,0.3,0.8,0.2c0,0.1,0,0.1,0.1,0.2c-0.1,0.1-0.2,0.2-0.3,0.2c-0.4-0.3-0.8-0.1-1.2,0.1c-0.3,0.1-0.6,0.2-0.9,0.3
				c-0.1,0-0.3,0.1-0.4,0.2c-0.1,0-0.1,0-0.2,0.1c-0.1,0.1-0.2,0.1-0.2,0.3c0,0.1,0,0.2-0.1,0.3c0,0-0.1,0-0.1,0
				c-0.3-0.2-0.5-0.1-0.8,0c-0.1,0-0.1,0.1-0.2,0.1c-0.1,0-0.1,0-0.2,0c-0.2,0-0.3-0.2-0.4-0.4c-0.1-0.4-0.6-0.5-1-0.3
				c-0.1,0-0.1,0.1-0.2,0.1c-0.3,0-0.3-0.1-0.3-0.4c0.1-0.1,0.1-0.1,0.2-0.1c0.1,0,0.2,0,0.3,0C165.6,87.8,165.6,87.8,165.7,87.8
				L165.7,87.8L165.7,87.8z"/>
			<path class="st179" d="M169.5,89.8c-0.2,0-0.4,0.1-0.5-0.2c-0.1-0.2,0.1-0.4,0.1-0.6c0.1-0.2,0.8-0.4,1-0.3
				c0.1,0.1,0.2,0.2,0.2,0.3c-0.2,0.3-0.5,0.4-0.7,0.6C169.6,89.8,169.6,89.9,169.5,89.8L169.5,89.8L169.5,89.8z"/>
			<path class="st180" d="M168.9,90.1c-0.1,0.1-0.1,0.1-0.2,0.1c0,0,0,0-0.1,0C168.7,90.1,168.8,90.1,168.9,90.1
				C168.9,90.1,168.9,90.1,168.9,90.1L168.9,90.1L168.9,90.1z"/>
			<path class="st181" d="M169,90c-0.3,0-0.5-0.2-0.5-0.5c0-0.3,0.2-0.6,0.3-0.9c0.1-0.3,0.8-0.6,1.1-0.5c0.2,0.1,0.4-0.1,0.6,0h0.1
				c-0.4,0.3-0.8,0.5-1.3,0.7c-0.2,0.1-0.3,0.2-0.3,0.3c0,0.1-0.1,0.1-0.1,0.2C168.6,89.6,168.7,89.9,169,90C169,90,169.1,90,169,90
				C169,90,169,90,169,90L169,90L169,90z"/>
			<path class="st182" d="M169,90L169,90c0.1-0.1,0.2-0.1,0.3-0.1c-0.1,0-0.1,0.1-0.2,0.1C169.1,90.1,169.1,90.1,169,90L169,90
				L169,90z"/>
			<path class="st183" d="M170.5,88.2c-0.1,0-0.2,0.1-0.3,0.1c-0.1,0.1-0.2,0-0.3-0.1c-0.3-0.2-0.6-0.3-0.9-0.2
				c-0.1,0.1-0.2,0.1-0.3-0.1c0.1-0.1,0.2-0.2,0.3-0.2c0.5-0.1,0.9-0.3,1.3-0.5c0.3-0.1,0.5-0.1,0.8-0.1c0.2,0,0.2,0.2,0.2,0.3
				c0,0.3-0.3,0.4-0.5,0.5C170.7,88.1,170.6,88.1,170.5,88.2L170.5,88.2L170.5,88.2z"/>
			<path class="st184" d="M158.9,84.4h0.4c0,0,0.1,0,0.1,0c0.1,0,0.2,0,0.2,0.1c0,0.1,0,0.2-0.1,0.2c-0.1,0-0.2,0.1-0.2,0.2
				c0,0.2-0.1,0.3,0,0.4c0,0.1,0,0.1-0.1,0.2c-0.1,0.1-0.1,0.1-0.2,0c-0.2-0.1-0.3-0.3-0.5-0.3c0,0-0.1,0-0.1,0
				c-0.1-0.1-0.1-0.2-0.1-0.3c-0.1-0.2,0.1-0.4,0.3-0.5C158.9,84.5,158.9,84.5,158.9,84.4L158.9,84.4L158.9,84.4L158.9,84.4z"/>
			<path class="st185" d="M159.8,83.7c0.1,0,0.2,0,0.4,0.1c0,0.2-0.1,0.4-0.3,0.5c-0.1,0-0.1,0.1-0.2,0c0,0,0,0,0,0
				C159.5,84,159.7,83.9,159.8,83.7L159.8,83.7L159.8,83.7z"/>
			<path class="st185" d="M159.4,84.5c0,0-0.1,0-0.1,0c0-0.2,0.1-0.2,0.2-0.2l0,0C159.6,84.4,159.6,84.5,159.4,84.5L159.4,84.5
				L159.4,84.5z"/>
			<path class="st186" d="M157.7,84.1c0.1,0.1,0.3,0,0.4,0.2v0c-0.1,0.1-0.1,0-0.2,0c-0.1,0-0.1,0-0.1-0.1c0,0-0.1-0.1-0.1-0.1
				C157.7,84.1,157.7,84.1,157.7,84.1L157.7,84.1L157.7,84.1z"/>
			<path class="st187" d="M157.7,84.1L157.7,84.1c-0.1,0.1-0.1,0.1-0.1,0c0,0-0.1-0.1-0.1-0.1C157.6,84,157.7,84,157.7,84.1
				L157.7,84.1L157.7,84.1z"/>
			<path class="st188" d="M158.9,84.5c0,0.1,0.1,0.2-0.1,0.2c-0.2,0-0.3,0.1-0.3,0.3c0,0.1,0,0.2,0,0.3c-0.2,0-0.2-0.1-0.3-0.2
				c0,0,0-0.1,0-0.1c0.1-0.2-0.1-0.4,0.1-0.5C158.5,84.4,158.7,84.5,158.9,84.5L158.9,84.5L158.9,84.5z"/>
			<path class="st189" d="M158.3,84.4c0,0.2,0.1,0.4,0,0.6c-0.1,0-0.1,0-0.2-0.1c-0.1-0.1-0.1-0.2-0.2-0.2c-0.1-0.1-0.2-0.1-0.1-0.3
				c0,0,0.1,0,0.1,0L158.3,84.4C158.2,84.4,158.3,84.4,158.3,84.4L158.3,84.4L158.3,84.4z"/>
			<path class="st190" d="M157.9,84.4L157.9,84.4c-0.1,0.1,0,0.2-0.1,0.3c-0.1,0-0.1,0-0.1-0.1c0-0.1,0-0.1,0-0.2
				c0-0.1,0.1-0.1,0.2-0.1c0.1,0,0.2,0,0.3,0.1L157.9,84.4L157.9,84.4L157.9,84.4z"/>
			<path class="st191" d="M158.1,84.3h-0.4c0-0.1,0.1-0.1,0.1-0.1C158,84.3,158.1,84.3,158.1,84.3L158.1,84.3L158.1,84.3z"/>
			<path class="st192" d="M159.4,84.5c0.1-0.1,0.1-0.1,0.1-0.2c0.2,0,0.4-0.1,0.4-0.4c0-0.1,0.1-0.1,0.1-0.1c0.1,0,0.3,0.1,0.4,0.1
				c0.4,0,0.8,0.1,1.2,0.2l0.1,0.1c0,0.2-0.1,0.1-0.2,0.1c-0.4-0.2-0.8-0.1-1.2-0.1c-0.2,0-0.4,0.2-0.6,0.3c0,0-0.1,0-0.1,0
				C159.6,84.5,159.5,84.6,159.4,84.5L159.4,84.5L159.4,84.5z"/>
			<path class="st193" d="M156.6,84.1L156.6,84.1c0.1,0,0.1,0,0.2,0.1c0.1,0,0.1,0.1,0.1,0.1c0,0.1-0.1,0.2-0.2,0.1
				c-0.1,0-0.1,0-0.2-0.1c0-0.1-0.1-0.1-0.1-0.2c0,0,0,0,0,0C156.5,84.1,156.6,84.2,156.6,84.1L156.6,84.1L156.6,84.1z"/>
			<path class="st194" d="M156.9,84.3C156.9,84.3,156.8,84.2,156.9,84.3l-0.1-0.2l0,0c0,0,0,0,0.1,0
				C156.9,84.1,156.9,84.2,156.9,84.3c0.1-0.1,0.1,0,0.2,0c0,0,0,0,0,0c0.1,0,0.2,0.1,0.1,0.2C157,84.6,156.9,84.4,156.9,84.3
				L156.9,84.3L156.9,84.3z"/>
			<path class="st195" d="M157.1,84.2c-0.1-0.1,0-0.2,0.3-0.2c0.1,0.1,0.1,0.2,0,0.4c0,0,0,0-0.1,0
				C157.2,84.4,157.1,84.3,157.1,84.2L157.1,84.2L157.1,84.2z"/>
			<path class="st196" d="M157.3,84.4c0-0.1-0.1-0.2,0-0.4c0.1,0,0.2,0,0.3,0.1c0,0,0.1,0,0.1,0.1l0.1,0.1l-0.1,0.1c0,0-0.1,0-0.1,0
				C157.4,84.2,157.5,84.4,157.3,84.4L157.3,84.4C157.3,84.5,157.3,84.4,157.3,84.4L157.3,84.4L157.3,84.4z"/>
			<path class="st197" d="M156.9,83.9c0.1,0,0.3,0,0.4,0.1C157.2,84,157.1,84,156.9,83.9C156.9,83.9,156.9,83.9,156.9,83.9z"/>
			<path class="st198" d="M157.1,84.2c0.1,0,0.2,0,0.2,0.2C157.1,84.4,157.1,84.4,157.1,84.2L157.1,84.2L157.1,84.2L157.1,84.2z"/>
			<path class="st199" d="M156.9,83.9L156.9,83.9c0,0.2,0,0.2,0,0.3l-0.1-0.1C156.8,84,156.8,84,156.9,83.9L156.9,83.9L156.9,83.9
				L156.9,83.9z"/>
			<path class="st138" d="M156.9,83.7L156.9,83.7c0.1,0,0.1,0,0.2,0.1h-0.1C156.9,83.8,156.8,83.7,156.9,83.7L156.9,83.7L156.9,83.7
				z"/>
			<path class="st199" d="M156.9,83.7C156.9,83.7,156.9,83.8,156.9,83.7v0.2c-0.1,0-0.1,0-0.2-0.1h-0.1
				C156.7,83.7,156.8,83.7,156.9,83.7L156.9,83.7z"/>
			<path class="st200" d="M156.7,83.8c0.1,0,0.1,0,0.2,0.1v0.1c0,0.1,0,0.2,0,0.3h-0.1C156.9,84,156.8,83.9,156.7,83.8L156.7,83.8
				L156.7,83.8z"/>
			<path class="st201" d="M159.5,86.1l-0.1,0.1c-0.2-0.1-0.4-0.2-0.5-0.4c0-0.1-0.1-0.1-0.2-0.2h-0.1c0-0.1,0-0.1,0.1-0.2
				c0.2,0,0.2,0.1,0.4,0.2l0.1,0.1c0,0.1,0.1,0.2,0.2,0.2c0.1,0,0.1,0,0.1,0.1c0,0,0,0,0,0.1C159.5,85.9,159.5,86,159.5,86.1
				L159.5,86.1L159.5,86.1z"/>
			<path class="st202" d="M158.1,85L158.1,85c0.1-0.1,0.1-0.1,0.2,0c0.1,0.1,0.2,0.2,0.3,0.3c0.1,0,0.1,0.1,0.1,0.2
				C158.3,85.5,158.2,85.3,158.1,85L158.1,85z"/>
			<path class="st203" d="M158.6,85.5c-0.1-0.2-0.3-0.2-0.4-0.4c0,0,0,0,0.1,0c0.1,0.1,0.2,0.1,0.3,0.2c0,0,0,0,0.1,0
				c0.1,0,0.2,0,0.2,0.2C158.7,85.4,158.7,85.5,158.6,85.5L158.6,85.5L158.6,85.5L158.6,85.5z"/>
			<path class="st204" d="M158.3,85.1C158.3,85.1,158.2,85.1,158.3,85.1c-0.1,0-0.2,0-0.2-0.1c-0.1-0.1-0.2-0.1-0.3-0.2v-0.1
				c0.1-0.1,0.1,0,0.2,0c0.1,0,0.1,0.1,0.1,0.1C158.2,84.9,158.2,85,158.3,85.1C158.3,85,158.3,85,158.3,85.1L158.3,85.1L158.3,85.1
				z"/>
			<path class="st205" d="M156.9,84.3c0.1,0.1,0.2,0.2,0.4,0.2c0.1,0,0.1,0,0.1,0.1v0c0,0.2-0.1,0.1-0.2,0.2h-0.4c0-0.1,0-0.2,0-0.4
				C156.8,84.4,156.8,84.4,156.9,84.3L156.9,84.3L156.9,84.3z"/>
			<path class="st206" d="M157.4,84.5c0-0.3,0.1-0.3,0.3-0.3C157.7,84.4,157.6,84.5,157.4,84.5C157.4,84.5,157.4,84.5,157.4,84.5
				C157.4,84.5,157.4,84.5,157.4,84.5L157.4,84.5z"/>
			<path class="st207" d="M157.3,84.6c0,0-0.1,0-0.1-0.1c-0.1-0.1-0.1-0.1-0.2-0.2c0.1,0,0.2,0.1,0.2,0.1h0.1
				C157.3,84.4,157.3,84.5,157.3,84.6L157.3,84.6L157.3,84.6L157.3,84.6z"/>
			<path class="st208" d="M157.6,84.7c0,0-0.1,0-0.1,0c0-0.1-0.1-0.1-0.1-0.2l0,0C157.6,84.4,157.6,84.5,157.6,84.7
				C157.6,84.7,157.6,84.7,157.6,84.7L157.6,84.7L157.6,84.7z"/>
			<path class="st209" d="M158,84.8c-0.1,0-0.1,0-0.2-0.1c-0.1,0-0.1-0.1-0.1-0.1v0c0,0,0,0,0.1-0.1c0,0,0.1,0,0.1,0.1
				c0.1,0,0.1,0,0.2,0C158,84.7,158,84.8,158,84.8L158,84.8z"/>
			<path class="st210" d="M156.2,84.1V84l0,0c0.1,0,0.2,0.1,0.1,0.2L156.2,84.1C156.3,84.2,156.3,84.1,156.2,84.1L156.2,84.1
				L156.2,84.1z"/>
			<path class="st211" d="M156.4,84.2c-0.1-0.1-0.1-0.1-0.1-0.2c0.2-0.2,0.3,0.1,0.4,0.2C156.6,84.3,156.5,84.2,156.4,84.2
				L156.4,84.2L156.4,84.2z"/>
			<path class="st212" d="M165,85.9c0.1,0.1,0.2,0.2,0.4,0.2c0.1,0,0.2,0,0.3,0.1c0.1,0.2-0.1,0.3-0.1,0.4c-0.2,0-0.4-0.1-0.6-0.2
				c-0.4-0.1-0.6,0-0.7,0.3c-0.1,0.5-0.3,0.6-0.8,0.6c-0.2,0-0.4,0.1-0.6,0c-0.2,0-0.2,0.1-0.3,0.2c-0.1,0.1-0.3,0-0.4-0.1
				c-0.1,0-0.3-0.1-0.4-0.1c-0.1-0.1-0.3-0.1-0.4-0.2c-0.3,0-0.6-0.2-0.7-0.5c0-0.1,0-0.1,0.1-0.1c0.2-0.2,0.5-0.3,0.8,0
				c0.1,0.1,0.2,0.1,0.2,0c0.2-0.2,0.5-0.3,0.8-0.4c0.2-0.1,0.4-0.1,0.4-0.4c0-0.1,0.1-0.1,0.1-0.1c0.4-0.1,0.5-0.2,0.5-0.6
				c0-0.1,0-0.2,0.1-0.2c0.1-0.1,0.2-0.1,0.4,0c0,0,0.1,0,0.1,0c0,0,0.1,0,0.1,0c0.1,0.1,0.1,0.2,0.1,0.2c0,0.2,0.1,0.4,0.3,0.5
				C164.8,85.6,164.9,85.7,165,85.9L165,85.9L165,85.9z"/>
			<path class="st213" d="M162.8,89.1h-0.2c-0.2-0.4-0.2-0.8,0.1-1.2c0.1-0.1,0.2-0.2,0.3-0.3c0.1-0.1,0.2,0,0.3,0.1
				c0.2,0.2,0.2,0.3,0.2,0.6c0,0.2,0,0.4,0.1,0.6c0,0.1,0,0.1,0,0.2c0,0.1-0.1,0.1-0.1,0.1c-0.1,0-0.1,0.1-0.2,0
				C163.1,89.1,162.9,89,162.8,89.1L162.8,89.1L162.8,89.1z"/>
			<path class="st152" d="M162.9,87.6c-0.1,0.2-0.2,0.3-0.3,0.5c-0.1,0.3-0.1,0.7-0.1,1c-0.2-0.2-0.3-0.4-0.6-0.6
				c-0.1-0.1-0.3-0.1-0.3-0.3c0-0.1,0-0.2,0.1-0.2c0.1,0,0.1,0.1,0.1,0.1c0,0,0,0.1,0.1,0.1c0-0.3,0.3-0.6,0.2-0.9
				c0.1,0,0.2,0,0.4,0.1C162.7,87.4,162.8,87.4,162.9,87.6L162.9,87.6L162.9,87.6z"/>
			<path class="st214" d="M162.8,89.1c-0.1-0.1,0-0.2,0.1-0.1c0.1,0,0.2,0,0.4,0c0,0,0,0,0,0.1s0,0,0,0.1c0,0.1,0,0.1-0.1,0.1h-0.2
				C162.9,89.1,162.8,89.1,162.8,89.1L162.8,89.1L162.8,89.1z"/>
			<path class="st215" d="M160.7,86.7c0.1,0.2,0.4,0.3,0.7,0.5c-0.1,0.2-0.2,0.3-0.4,0.4c-0.2,0.1-0.3,0.1-0.4-0.1
				c-0.2-0.2-0.3-0.4-0.6-0.5c0.1-0.2-0.1-0.4-0.1-0.6c0-0.1,0.1-0.1,0.1-0.1c0.1,0,0.2,0.1,0.2,0.1c0.1,0.1,0.2,0.2,0.4,0.2
				C160.6,86.5,160.6,86.6,160.7,86.7L160.7,86.7L160.7,86.7z"/>
			<path class="st216" d="M165.4,88.2c0.1-0.2,0.2-0.2,0.4-0.2c0.3,0,0.6,0,0.8,0.3c0.1,0.1,0.1,0.2,0.1,0.3c0,0.2,0.1,0.3,0.2,0.4
				c0,0-0.1,0-0.1,0c-0.2,0-0.5,0-0.8,0c-0.1,0-0.2,0-0.2,0c-0.1,0.1-0.3,0-0.5,0v0C165.3,88.6,165.3,88.4,165.4,88.2L165.4,88.2
				L165.4,88.2z"/>
			<path class="st217" d="M165.4,88.2c0.1,0.2-0.1,0.5,0,0.7h-0.1c-0.1,0-0.2,0-0.3,0c-0.1,0-0.1,0-0.2,0c0,0-0.1-0.1-0.1-0.1
				c0-0.2,0-0.5-0.2-0.7c-0.1-0.1,0-0.3,0.2-0.3c0.1,0,0.3-0.1,0.4,0.1C165.2,88,165.3,88.1,165.4,88.2L165.4,88.2L165.4,88.2z"/>
			<path class="st218" d="M164.8,88.8c0.1,0,0.1,0,0.2,0c0,0,0,0,0,0c0,0,0,0,0,0c-0.1,0-0.2,0-0.4,0v0
				C164.7,88.7,164.8,88.7,164.8,88.8L164.8,88.8L164.8,88.8z"/>
			<path class="st219" d="M165,88.8L165,88.8c0.1,0,0.2-0.1,0.3,0H165L165,88.8L165,88.8z"/>
			<path class="st220" d="M166.1,88.8c0.2-0.1,0.5,0,0.8,0l0,0c0,0,0,0,0,0h-0.4C166.4,88.8,166.3,88.8,166.1,88.8L166.1,88.8z"/>
			<path class="st221" d="M167,89.5c0-0.1,0.1-0.2,0.1-0.2c0.2-0.2,0.2-0.3-0.1-0.3c0,0-0.1,0-0.1,0v0c0.1,0,0.3,0,0.4,0
				c0.2,0.2,0.3,0.4,0.2,0.6c0,0,0,0-0.1,0.1s-0.1,0-0.1,0c-0.1,0-0.1,0-0.2,0C167.1,89.5,167.1,89.5,167,89.5
				C167.1,89.5,167,89.5,167,89.5C167,89.5,167,89.5,167,89.5L167,89.5L167,89.5z"/>
			<path class="st222" d="M167.5,89.5c-0.2,0.1-0.5,0-0.7,0c0.1,0,0.1-0.1,0.2-0.1v0C167.2,89.5,167.4,89.4,167.5,89.5L167.5,89.5z"
				/>
			<path class="st223" d="M168.7,88c0.2,0,0.4,0,0.5-0.1s0.6,0.1,0.7,0.3c-0.4-0.1-0.6,0.2-1,0.4c-0.1,0-0.1,0.2-0.1,0.3
				c-0.1,0.3-0.2,0.5-0.3,0.7h-0.1c0.1-0.3,0-0.4-0.3-0.5c0,0-0.1,0-0.1,0c0-0.2,0.1-0.2,0.2-0.4c0-0.1,0-0.1,0-0.2
				C168.2,88.1,168.3,88,168.7,88L168.7,88L168.7,88z"/>
			<path class="st224" d="M168,89h0.1c0.1,0.3,0.1,0.4-0.2,0.5c-0.1,0-0.1,0-0.1-0.1c0,0,0,0,0,0C167.9,89.3,168,89.2,168,89L168,89
				L168,89z"/>
			<path class="st225" d="M167.5,89.4c0.1-0.2,0-0.4-0.1-0.5c0-0.1,0.1-0.1,0.1-0.1c0.2,0,0.2,0.2,0.4,0.3c0.1,0.1,0,0.2-0.1,0.2
				l-0.1,0.1C167.6,89.4,167.5,89.4,167.5,89.4L167.5,89.4L167.5,89.4z"/>
			<path class="st226" d="M167.7,89.4c0.1-0.1,0.1-0.2-0.1-0.3c-0.1,0-0.1-0.1-0.2-0.2c0.1-0.1,0.1-0.1,0.2,0c0,0,0.1,0,0.1,0
				c0.1,0,0.1,0.1,0.1,0.1c0,0,0.1,0.1,0.1,0.1c0,0.1,0,0.2-0.1,0.2c0,0,0,0-0.1,0.1l0,0C167.8,89.4,167.7,89.4,167.7,89.4
				L167.7,89.4L167.7,89.4z"/>
			<path class="st227" d="M167.5,89.4c0,0,0.1,0,0.1,0c0,0,0,0.1-0.1,0.1c-0.2,0-0.3,0-0.5-0.1c0,0,0,0,0.1,0
				C167.2,89.4,167.3,89.4,167.5,89.4C167.4,89.4,167.5,89.4,167.5,89.4L167.5,89.4L167.5,89.4z"/>
			<path class="st228" d="M164.8,88.8c-0.1,0-0.1,0-0.1,0c-0.1,0.1-0.3,0-0.4,0.1c-0.2,0-0.4-0.1-0.6,0c0,0-0.1,0-0.1,0
				c-0.2-0.3-0.2-0.5-0.2-0.8c0-0.2,0-0.3-0.1-0.4c0.1-0.1,0.2-0.1,0.3-0.1c0.4,0.1,0.8,0,1.1,0.2c0,0,0.1,0,0.1,0.1
				c-0.1,0.1-0.2,0.2,0,0.3c0.2,0.1,0.2,0.2,0.1,0.4C164.9,88.6,164.8,88.7,164.8,88.8L164.8,88.8L164.8,88.8z"/>
			<path class="st163" d="M163.5,88.9h0.1c-0.1,0.2-0.3,0.1-0.3,0.4l0,0c-0.1,0-0.1-0.1-0.1-0.2c0-0.1,0.1-0.1,0.1-0.2
				C163.4,88.9,163.5,88.9,163.5,88.9L163.5,88.9L163.5,88.9z"/>
			<path class="st229" d="M163.4,88.9c0,0.1-0.2,0.2-0.1,0.3v0.2c0,0-0.1,0-0.1,0c-0.1-0.1-0.1-0.3,0-0.4c0,0,0,0,0-0.1
				C163.3,88.9,163.3,88.9,163.4,88.9L163.4,88.9z"/>
			<path class="st230" d="M163.2,89c0,0.1,0,0.3,0,0.4c0,0,0,0-0.1,0C163.1,89.2,163.1,89.1,163.2,89C163.2,89,163.2,89,163.2,89
				L163.2,89L163.2,89z"/>
			<path class="st231" d="M163.2,89c0,0.1,0,0.2,0,0.4c0,0,0,0-0.1,0c0-0.1,0-0.1,0-0.2C163.1,89.2,163.1,89.1,163.2,89L163.2,89
				L163.2,89z"/>
			<path class="st232" d="M160,86.3c-0.1,0-0.1,0-0.2,0.1c-0.1-0.1-0.2-0.2-0.4-0.3c-0.1-0.1-0.1-0.1,0-0.2
				C159.7,85.9,159.9,86,160,86.3L160,86.3L160,86.3z"/>
			<path class="st233" d="M165,85.9c-0.1,0-0.2-0.1-0.2-0.1c-0.1-0.1-0.1-0.1-0.2-0.1c-0.4-0.1-0.4-0.4-0.4-0.8
				c0.1-0.1,0.2-0.1,0.3-0.1c0.1,0,0.2,0,0.4,0c0.1,0,0.1,0,0.2,0c0.1,0,0.3,0,0.4,0.1c0,0,0,0,0,0c-0.4,0.2-0.4,0.3-0.1,0.7
				C165.2,85.6,165.1,85.8,165,85.9L165,85.9L165,85.9z"/>
			<path class="st234" d="M165,84.9h-0.1c-0.3,0-0.5-0.1-0.8,0h0h0c-0.1-0.1-0.1-0.1-0.2-0.2c-0.1-0.1-0.1-0.1-0.1-0.2
				c0.1-0.1,0.2,0,0.3,0.1c0.2,0.1,0.5,0.1,0.7,0.1c0.2,0,0.4,0,0.6,0c0.1,0,0.1,0.1,0.1,0.2c0,0-0.1,0-0.1,0l0,0
				C165.3,84.8,165.2,84.8,165,84.9L165,84.9L165,84.9z"/>
			<path class="st235" d="M164.1,84.5h-0.4c-0.1,0.1-0.2,0.1-0.3,0.1c-0.3,0.1-0.5-0.2-0.8-0.1c-0.2,0.1-0.6,0-0.7,0.2
				c-0.1,0.1-0.2,0.1-0.3,0c-0.1-0.2-0.2-0.3-0.1-0.5c0.1,0,0.2,0,0.3-0.1c0.1,0.1,0.2,0.1,0.4,0.1l1.2,0h0.4
				C163.9,84.4,164,84.4,164.1,84.5C164.1,84.5,164.1,84.5,164.1,84.5z"/>
			<path class="st236" d="M164.6,87.8l-1.4-0.2c-0.1,0-0.2-0.1-0.3-0.1c-0.1,0-0.2-0.1-0.4-0.1c0-0.2,0.1-0.3,0.3-0.2
				c0.3,0.1,0.6,0,0.9-0.1c0.3-0.1,0.4-0.4,0.4-0.7c0-0.3,0.4-0.4,0.7-0.3c0.2,0.1,0.5,0.1,0.7,0.3c0.1,0.2,0,0.5,0.1,0.8
				c0,0.1,0.1,0.2,0.2,0.2c0.1,0,0.2,0,0.2,0.1c0,0.1-0.1,0.1-0.2,0.1c0,0,0,0-0.1,0.1c0,0,0,0-0.1,0c-0.1,0-0.2,0-0.3,0
				C165.1,87.8,164.9,87.8,164.6,87.8L164.6,87.8L164.6,87.8z"/>
			<path class="st171" d="M165.7,86c0.1,0,0.1,0,0.1,0.1c0,0.1-0.1,0-0.1,0C165.6,86.1,165.6,86.1,165.7,86
				C165.6,86,165.6,86,165.7,86L165.7,86z"/>
			<path class="st237" d="M167.7,88.9C167.7,88.9,167.6,88.9,167.7,88.9c-0.2-0.2-0.4,0-0.5-0.1c0.1-0.2,0.2-0.3,0.5-0.4
				c0.3-0.1,0.5,0,0.6,0.2c0,0.2,0,0.3-0.2,0.3l0,0c0,0-0.1,0-0.1,0c0,0-0.1,0-0.1,0C167.8,89,167.8,88.9,167.7,88.9L167.7,88.9
				L167.7,88.9z"/>
			<path class="st238" d="M167.2,88.8c0.1,0,0.3-0.1,0.5,0.1c-0.1,0-0.1-0.1-0.2,0c0,0-0.1,0-0.1,0c-0.1-0.1-0.3,0-0.4-0.1v0
				c0,0,0,0,0.1,0H167.2L167.2,88.8L167.2,88.8z"/>
			<path class="st239" d="M164.6,87.8c0.2-0.1,0.5,0,0.7,0c0,0,0,0,0,0l0,0c-0.1,0-0.1,0-0.2,0L164.6,87.8
				C164.7,87.8,164.7,87.8,164.6,87.8C164.6,87.8,164.6,87.8,164.6,87.8z"/>
			<path class="st240" d="M165.4,87.8L165.4,87.8l0.3,0C165.5,87.9,165.4,87.8,165.4,87.8z"/>
			<path class="st241" d="M160,86.3c-0.1-0.2-0.3-0.2-0.5-0.4c0,0,0,0,0,0c0-0.1-0.2-0.2-0.1-0.3v-0.2c0.1-0.2,0.2-0.3,0.3-0.4
				c0.1-0.2,0.3-0.2,0.5-0.1c0,0,0,0.1,0,0.1c-0.2,0.4,0,0.7,0.2,0.9c0.1,0.2,0.1,0.3-0.1,0.5C160.1,86.4,160.1,86.3,160,86.3
				L160,86.3L160,86.3z"/>
			<path class="st242" d="M160.1,84.8c-0.2,0-0.4,0.1-0.5,0.3c0,0.1-0.2,0.2-0.3,0.2v-0.5c0.1-0.1,0.1-0.2,0.2-0.2
				c0.1,0,0.1-0.1,0.1-0.1c0,0,0.1,0,0.1,0c0.1-0.1,0.3-0.1,0.4,0.1C160.2,84.7,160.2,84.8,160.1,84.8L160.1,84.8L160.1,84.8z"/>
			<path class="st243" d="M158.8,85.4c0-0.1-0.1-0.1-0.2-0.2c0.1-0.1,0.2-0.1,0.3,0l0.2,0.2c0,0,0,0.1,0,0.1
				C159,85.6,158.9,85.4,158.8,85.4L158.8,85.4L158.8,85.4z"/>
			<path class="st244" d="M159.1,85.6L159.1,85.6c0.1-0.1,0.1-0.1,0.2,0c0.1,0.1,0.2,0.2,0.1,0.3c0,0-0.1,0-0.1-0.1
				C159.2,85.8,159.2,85.8,159.1,85.6L159.1,85.6L159.1,85.6z"/>
			<path class="st188" d="M159.6,84.7c-0.1,0.1-0.1,0.2-0.2,0.2C159.3,84.7,159.4,84.7,159.6,84.7z"/>
			<path class="st245" d="M157.7,84.2C157.7,84.2,157.8,84.2,157.7,84.2l0.2,0.1c0,0-0.1,0-0.1,0.1s-0.1,0.1-0.1,0.1
				C157.6,84.3,157.7,84.3,157.7,84.2L157.7,84.2L157.7,84.2z"/>
			<path class="st246" d="M157.9,84.7c-0.1,0-0.1-0.1-0.1-0.1c0-0.1,0-0.2,0.1-0.2C157.8,84.6,157.9,84.6,157.9,84.7
				C158,84.7,157.9,84.7,157.9,84.7L157.9,84.7L157.9,84.7z"/>
			<path class="st247" d="M157.9,84.7C157.9,84.7,157.9,84.7,157.9,84.7c0.1,0,0.2,0,0.2,0.1C158.1,84.9,158,84.8,157.9,84.7
				C157.9,84.8,157.9,84.8,157.9,84.7L157.9,84.7z"/>
			<path class="st248" d="M157.7,84.2c0,0.1,0,0.1-0.1,0.2v0.2c0,0,0,0-0.1,0.1c0-0.1-0.1-0.1-0.2-0.2
				C157.5,84.4,157.7,84.4,157.7,84.2L157.7,84.2C157.7,84.2,157.7,84.2,157.7,84.2z"/>
			<path class="st249" d="M160.1,84.6c-0.1-0.1-0.3,0-0.4-0.1c0.1-0.3,0.3-0.4,0.5-0.4c0.3,0,0.5,0,0.8,0c0.2,0,0.3,0,0.4,0.2
				c0.1,0.1,0.1,0.3,0.1,0.4c0,0.1-0.1,0.1-0.1,0.1c-0.3,0.1-0.6,0-0.9-0.1c-0.1,0-0.1,0-0.2,0C160.2,84.7,160.2,84.7,160.1,84.6
				L160.1,84.6L160.1,84.6z"/>
			<path class="st250" d="M159.1,85.6l0.2,0.2C159.2,85.9,159.1,85.8,159.1,85.6z"/>
			<path class="st251" d="M161.5,84.7c0,0,0.1,0,0.1,0h0.4c0.2-0.1,0.4-0.1,0.6-0.1c0.2,0.2,0.4,0.1,0.6,0c0.1,0,0.1,0,0.2,0
				c0.1,0,0.2,0,0.2,0.1c0.1,0.1,0,0.3,0.1,0.4c0,0,0,0.1,0,0.1c0,0.1-0.5,0.4-0.6,0.4c-0.1,0-0.2,0-0.1,0.1c0.1,0.1,0,0.1,0,0.1
				c-0.1,0.1-0.3,0.2-0.4,0.2c-0.3,0.1-0.6,0.2-0.9,0.4c-0.1,0.1-0.2,0.1-0.3,0c-0.2-0.3-0.4-0.2-0.6-0.1c-0.1-0.2,0-0.3,0.1-0.3
				c0.3-0.2,0.3-0.5,0.5-0.8c0-0.1,0-0.1,0-0.2C161.3,85.1,161.4,84.9,161.5,84.7L161.5,84.7L161.5,84.7z"/>
			<path class="st252" d="M161.5,84.7c0,0.2-0.2,0.4,0,0.6c0,0,0,0.1,0,0.1c-0.2,0.3-0.2,0.6-0.5,0.8c-0.1,0.1-0.2,0.2-0.3,0.3
				c0,0,0,0.1-0.1,0.1c-0.1,0-0.1,0-0.1-0.1c-0.1-0.2,0-0.3,0.1-0.4c0.3-0.3,0.3-0.7-0.1-1c-0.2-0.2-0.1-0.4-0.1-0.6
				C160.7,84.6,161.1,84.7,161.5,84.7L161.5,84.7L161.5,84.7z"/>
			<path class="st253" d="M163.6,84.8c-0.1,0-0.2,0-0.2-0.1c-0.1-0.1-0.1-0.2,0-0.3h0.3c0.1,0.1,0.3,0.1,0.3,0.3
				C163.9,84.8,163.8,84.8,163.6,84.8L163.6,84.8L163.6,84.8z"/>
			<path class="st254" d="M164.1,84.8c0.3-0.1,0.5-0.1,0.8,0C164.6,84.8,164.4,84.8,164.1,84.8C164.1,84.8,164.1,84.8,164.1,84.8
				L164.1,84.8z"/>
			<path class="st255" d="M160.3,84.7c0.1,0.1,0.2,0.2,0.1,0.3c-0.1,0.1,0.1,0.1,0.1,0.1c0.4,0.2,0.6,0.8,0.2,1.1
				c-0.1,0.1-0.2,0.2-0.2,0.3c-0.1,0-0.2-0.1-0.4-0.2c0-0.1,0-0.1,0-0.2c0.1-0.2,0.1-0.2-0.1-0.4c-0.1-0.2-0.2-0.4-0.2-0.7
				c-0.1-0.2,0.2-0.2,0.2-0.3c0-0.1,0-0.1,0-0.2C160.2,84.6,160.2,84.6,160.3,84.7L160.3,84.7z"/>
			<path class="st256" d="M167.4,89.4c-0.1,0.1-0.2,0-0.4,0l0.1-0.1C167.2,89.4,167.3,89.4,167.4,89.4L167.4,89.4L167.4,89.4
				L167.4,89.4z"/>
			<path class="st257" d="M167.4,89.4c-0.1,0-0.2,0-0.2,0C167.2,89.4,167.3,89.4,167.4,89.4z"/>
			<path class="st258" d="M167.9,89h0.1c0.1,0.3,0,0.3-0.3,0.3c0,0,0,0,0-0.1C167.9,89.3,167.9,89.2,167.9,89
				C167.9,89.1,167.9,89,167.9,89L167.9,89z"/>
			<path class="st259" d="M167.9,89.1c0.1,0.2,0,0.2-0.1,0.2C167.8,89.3,167.8,89.2,167.9,89.1C167.9,89.1,167.9,89.1,167.9,89.1
				L167.9,89.1z"/>
			<path class="st260" d="M167.7,88.9c0.1-0.1,0.2,0,0.3,0.1c0,0.1-0.1,0.1-0.1,0.1C167.8,89,167.7,89,167.7,88.9L167.7,88.9
				L167.7,88.9z"/>
			<path class="st261" d="M167.8,89c0,0,0.1-0.1,0.1-0.1V89c0,0,0,0,0,0.1C167.9,89.1,167.9,89.1,167.8,89
				C167.8,89.1,167.8,89,167.8,89C167.8,89,167.8,89,167.8,89z"/>
			<path class="st262" d="M165,84.9c0.2-0.1,0.3-0.1,0.5,0L165,84.9L165,84.9z"/>
			<path class="st263" d="M163.4,84.5v0.3c-0.1,0-0.1,0-0.2,0c-0.2,0-0.4,0.1-0.6,0c-0.2,0-0.4,0-0.7,0c0-0.1,0.1-0.2,0.2-0.2
				c0.2,0,0.4-0.1,0.7-0.1C163,84.4,163.2,84.6,163.4,84.5L163.4,84.5L163.4,84.5z"/>
			<path class="st252" d="M162.6,84.8l0.6,0C163,84.9,162.8,84.9,162.6,84.8z"/>
		</g>
		<path class="st264" d="M195.9,196.5c0,4.9,18.6,37.2,21.6,57.9c0,0-20.1,10.2-52.6,10.2s-54-10.1-54-10.1c2.9-20.7,23-53,23-57.9
			s-4.6-16.5-4.6-16.5l-3.6,7.7c-17.2,0.2-27.5-10.1-27.5-10.1s3.1-10.4,12-32.4c8.9-22,19.4-24.6,27.7-27.2c4.7-1.4,9-3.1,11.9-4.2
			c1.9-0.7,3.2-1.3,3.5-1.4c0.1,0,0.1,0,0.1,0l11.4,65.9l0,0.1l11.5-66c0,0,1.3,0.6,3.5,1.4c2.9,1.1,7.3,2.8,12,4.2
			c8.3,2.6,18.8,5.1,27.8,27.2s12,32.4,12,32.4s-10.3,10.4-27.5,10.1l-3.6-7.7C200.6,180,195.9,191.6,195.9,196.5L195.9,196.5z"/>
		<path class="st265" d="M129.2,180.7c-0.3,0-0.5-0.2-0.6-0.4c-0.1-0.2-7-18,1.7-35.3c0.2-0.3,0.6-0.5,0.9-0.3
			c0.3,0.2,0.5,0.6,0.3,0.9c-8.4,16.8-1.8,34-1.7,34.2c0.1,0.4,0,0.7-0.4,0.9C129.4,180.7,129.3,180.7,129.2,180.7L129.2,180.7z"/>
		<path class="st265" d="M200.6,180.7c-0.1,0-0.2,0-0.2-0.1c-0.4-0.1-0.5-0.5-0.4-0.9c0.1-0.2,6.8-17.4-1.7-34.2
			c-0.2-0.3,0-0.7,0.3-0.9s0.7,0,0.9,0.3c8.7,17.3,1.8,35.1,1.7,35.3C201.1,180.5,200.8,180.7,200.6,180.7L200.6,180.7z"/>
		<g>
			
				<ellipse transform="matrix(0.9743 -0.2255 0.2255 0.9743 -39.7363 36.4555)" class="st266" cx="139.7" cy="192.2" rx="6.5" ry="6.9"/>
			
				<rect x="135.2" y="182.4" transform="matrix(0.9743 -0.2255 0.2255 0.9743 -38.1458 35.3913)" class="st267" width="1.3" height="4.6"/>
			<path class="st268" d="M180.5,144.5l-8,24.8c0,0-2,6.5,1.9,9.8"/>
			<path class="st269" d="M196.4,146.8l-1.8,26.3c0,0-0.5,6.6-5.4,8.1"/>
			<path class="st270" d="M135.6,183c0,0-12.4-46.6,11.6-69c8.7-8,26.9-8.6,35-1.5c3,2.6,5.1,6.2,5.8,10.2c0.5,2.9,1.2,9,0.8,11.8"
				/>
			<path class="st270" d="M180.1,145.5c0,0,0.1-13.7,10.5-10.4c0,0,8.7-0.5,5.8,12.4"/>
			<path class="st271" d="M186.2,180.4c-0.6-0.1-1.1,0-1.7,0.1c-0.6,0.2-0.9,0.7-0.9,1.3c0.1,0.4,0.4,0.6,0.7,0.8
				c0.3,0.1,0.7,0.2,1.1,0.2c0.6,0.1,1.3,0.1,1.9,0c0.6-0.1,1.3-0.3,1.8-0.7c0.1-0.1,0.1-0.1,0.2-0.2c0.2-0.4-0.1-1.4-0.5-1.5
				c-0.4,0-0.9,0-1.3,0.1C187.1,180.5,186.6,180.4,186.2,180.4L186.2,180.4L186.2,180.4z"/>
			<path class="st271" d="M172.9,178.7c0.2,0.3,0.4,0.6,0.6,0.9c0.6,0.6,1.4,1,2.3,1.2c0.4,0.1,0.8,0.2,1.2,0.2c0.4,0,0.8-0.2,1-0.6
				c0.3-0.6,0-1.3-0.5-1.7c-0.9-0.7-2.1-0.7-3.1-1.4c-0.4-0.4-1.1-0.3-1.4,0.2C172.7,177.8,172.6,178.3,172.9,178.7L172.9,178.7
				L172.9,178.7z"/>
			
				<ellipse transform="matrix(0.9743 -0.2255 0.2255 0.9743 -39.7354 36.4715)" class="st266" cx="139.8" cy="192.2" rx="6.5" ry="6.9"/>
			
				<ellipse transform="matrix(0.9743 -0.2255 0.2255 0.9743 -39.6943 36.1446)" class="st267" cx="138.4" cy="191.9" rx="5.2" ry="5.6"/>
		</g>
		<path class="st3" d="M176.4,98.2c-3.5,1.9-7.4,3-11.5,3s-7.9-1.1-11.5-3v14.8l5.6,31.5h11.8l5.6-32.1"/>
		<path class="st12" d="M173.6,100.5c-1.4,0.7-2.8,1.4-4.2,2.1c-0.7,0.3-1.4,0.7-2.2,0.9c-0.8,0.3-1.6,0.5-2.4,0.7l-0.3,0
			c-0.1,0-0.3,0-0.4,0c-0.2,0-0.4-0.1-0.7-0.1c-0.4-0.1-0.8-0.2-1.2-0.4c-0.8-0.3-1.5-0.6-2.2-0.9c-0.4-0.2-0.7-0.3-1.1-0.5
			s-0.7-0.4-1.1-0.6c-0.7-0.4-1.3-0.9-2-1.3c-0.1-0.1-0.1-0.1,0-0.2c0-0.1,0.1-0.1,0.2-0.1l2.3,0.8c0.4,0.1,0.8,0.3,1.1,0.4l1.1,0.3
			c0.7,0.2,1.3,0.4,2,0.6c0.5,0.2,1,0.3,1.4,0.4l0.6,0.1l0.2,0c1.5-0.3,2.9-0.7,4.4-1.2c1.5-0.5,3-0.9,4.6-1.2c0.1,0,0.1,0,0.2,0.1
			C173.8,100.5,173.7,100.5,173.6,100.5L173.6,100.5L173.6,100.5L173.6,100.5z"/>
	</g>
</g>
</svg>
