<?xml version="1.0" encoding="utf-8"?>
<!-- Generator: Adobe Illustrator 27.5.0, SVG Export Plug-In . SVG Version: 6.00 Build 0)  -->
<svg version="1.1" id="Dra_webinar" xmlns="http://www.w3.org/2000/svg" xmlns:xlink="http://www.w3.org/1999/xlink" x="0px"
	 y="0px" viewBox="0 0 320 571" style="enable-background:new 0 0 320 571;" xml:space="preserve">
<style type="text/css">
	.st0{opacity:0.35;fill:#E6E6E6;enable-background:new    ;}
	.st1{fill:#C7B299;}
	.st2{fill:#DCDAE0;}
	.st3{fill:#784D24;}
	.st4{fill:#FFFFFF;}
	.st5{fill:#E9C0A3;}
	.st6{fill:#E8C1A3;}
	.st7{fill:#E4B895;}
	.st8{fill:none;stroke:#E4B895;stroke-linecap:round;stroke-miterlimit:10;}
	.st9{fill:#5987BB;}
	.st10{fill:#6293D4;}
	.st11{fill:#5381C0;}
	.st12{fill:#E3E3E3;}
	.st13{fill:#C8C8C8;}
	.st14{fill:none;stroke:#C8C8C8;stroke-miterlimit:10;}
	.st15{fill:none;stroke:#000000;stroke-width:2;stroke-miterlimit:10;}
	.st16{fill:#050303;}
	.st17{fill:#E9C1A3;}
	.st18{fill:#8F5B27;}
	.st19{fill:#784D23;}
	.st20{fill:#461E0A;}
	.st21{fill:#D3A37F;}
	.st22{fill:#E9A78E;}
	.st23{fill:#EFAD99;}
	.st24{fill:#A38161;}
	.st25{fill:#322D26;}
	.st26{fill:#8C6239;}
	.st27{fill:none;stroke:#8C6239;stroke-width:2;stroke-miterlimit:10;}
	.st28{fill:#DC3F4B;}
	.st29{fill:#DF3E48;}
	.st30{fill:#EA2E39;}
	.st31{fill:#E7323A;}
	.st32{fill:#E3353E;}
	.st33{fill:#E43C45;}
	.st34{fill:#F0343C;}
	.st35{fill:#EC4E44;}
	.st36{fill:#F6B385;}
	.st37{fill:#E57A60;}
	.st38{fill:#E46148;}
	.st39{fill:#BD4430;}
	.st40{fill:#EE9D75;}
	.st41{fill:#E53B4A;}
	.st42{fill:#E34847;}
	.st43{fill:#F9A881;}
	.st44{fill:#E03D4A;}
	.st45{fill:#E33A48;}
	.st46{fill:#FCFBF3;}
	.st47{fill:#FEE2DC;}
	.st48{fill:#FFD9D4;}
	.st49{fill:#FEE9E1;}
	.st50{fill:#FEF1EC;}
	.st51{fill:#DD3737;}
	.st52{fill:#F97F76;}
	.st53{fill:#FEB4AD;}
	.st54{fill:#FDCBC8;}
	.st55{fill:#DD393C;}
	.st56{fill:#F54B54;}
	.st57{fill:#E83845;}
	.st58{fill:#E53D41;}
	.st59{fill:#E2413F;}
	.st60{fill:#E04E41;}
	.st61{fill:#EA294E;}
	.st62{fill:#E93748;}
	.st63{fill:#EA3249;}
	.st64{fill:#E5314C;}
	.st65{fill:#C44D3A;}
	.st66{fill:#D15B41;}
	.st67{fill:#C0362D;}
	.st68{fill:#D44D3E;}
	.st69{fill:#E53A4C;}
	.st70{fill:#E33D4E;}
	.st71{fill:#FBFCF4;}
	.st72{fill:#FEFCF3;}
	.st73{fill:#FCFDF6;}
	.st74{fill:#FFD4D4;}
	.st75{fill:#E44C55;}
	.st76{fill:#DF454C;}
	.st77{fill:#DC5657;}
	.st78{fill:#E54D51;}
	.st79{fill:#E13E47;}
	.st80{fill:#E3404C;}
	.st81{fill:#DD414D;}
	.st82{fill:#E24147;}
	.st83{fill:#F08C75;}
	.st84{fill:#ED3A4A;}
	.st85{fill:#E9394A;}
	.st86{fill:#EA3B48;}
	.st87{fill:#E83D46;}
	.st88{fill:#E2284A;}
	.st89{fill:#E4324A;}
	.st90{fill:#E43C49;}
	.st91{fill:#EC6E54;}
	.st92{fill:#F67D6E;}
	.st93{fill:#FF9A7E;}
	.st94{fill:#ED6B65;}
	.st95{fill:#FA706B;}
	.st96{fill:#DF3346;}
	.st97{fill:#DD2F49;}
	.st98{fill:#E03E4C;}
	.st99{fill:#E03A4D;}
	.st100{fill:#DB3D48;}
	.st101{fill:#D8453E;}
	.st102{fill:#E25B49;}
	.st103{fill:#D94748;}
	.st104{fill:#E86E5A;}
	.st105{fill:#F49F79;}
	.st106{fill:#C9312F;}
	.st107{fill:#C8392F;}
	.st108{fill:#D14036;}
	.st109{fill:#E13F49;}
	.st110{fill:#DD454D;}
	.st111{fill:#DC3C45;}
	.st112{fill:#DC3F45;}
	.st113{fill:#E0404D;}
	.st114{fill:#E03E48;}
	.st115{fill:#DE3E48;}
	.st116{fill:#DC534B;}
	.st117{fill:#D44B41;}
	.st118{fill:#EB7F68;}
	.st119{fill:#E16A5A;}
	.st120{fill:#DE4449;}
	.st121{fill:#E53B4E;}
	.st122{fill:#E73A4C;}
	.st123{fill:#E33A4E;}
	.st124{fill:#E0394D;}
	.st125{fill:#DE394A;}
	.st126{fill:#FDFAF8;}
	.st127{fill:#D7434E;}
	.st128{fill:#DB4150;}
	.st129{fill:#DA3F4E;}
	.st130{fill:#E03E4D;}
	.st131{fill:#FEFEF8;}
	.st132{fill:#DC4455;}
	.st133{fill:#D93F43;}
	.st134{fill:#DC434B;}
	.st135{fill:#E43E47;}
	.st136{fill:#DF2E4B;}
	.st137{fill:#DF2B47;}
	.st138{fill:#E13247;}
	.st139{fill:#FFE0EC;}
	.st140{fill:#FFD6E8;}
	.st141{fill:#DB3A4A;}
	.st142{fill:#F48772;}
	.st143{fill:#E84C56;}
	.st144{fill:#DD3140;}
	.st145{fill:#D7333A;}
	.st146{fill:#FE737E;}
	.st147{fill:#E73A48;}
	.st148{fill:#E3464A;}
	.st149{fill:#F85458;}
	.st150{fill:#ED5055;}
	.st151{fill:#EF444E;}
	.st152{fill:#E33A50;}
	.st153{fill:#E14255;}
	.st154{fill:#D93C47;}
	.st155{fill:#F36577;}
	.st156{fill:#E54F5D;}
	.st157{fill:#C73B40;}
	.st158{fill:#D23C46;}
	.st159{fill:#D94B3E;}
	.st160{fill:#D25944;}
	.st161{fill:#BD3D3B;}
	.st162{fill:#C14940;}
	.st163{fill:#CD2D32;}
	.st164{fill:#E13F4C;}
	.st165{fill:#DF3F4D;}
	.st166{fill:#DE414C;}
	.st167{fill:#FED6D8;}
	.st168{fill:#FFDADC;}
	.st169{fill:#FED1D2;}
	.st170{fill:#FECECA;}
	.st171{fill:#E7454F;}
	.st172{fill:#E24F53;}
	.st173{fill:#FED2D8;}
	.st174{fill:#E36A6C;}
	.st175{fill:#FFDCDE;}
	.st176{fill:#FED5D9;}
	.st177{fill:#DA454E;}
	.st178{fill:#DD4650;}
	.st179{fill:#E24252;}
	.st180{fill:#DE4150;}
	.st181{fill:#E4464C;}
	.st182{fill:#E04148;}
	.st183{fill:#F4E4E2;}
	.st184{fill:#FEF8F9;}
	.st185{fill:#FEFAF9;}
	.st186{fill:#DA394B;}
	.st187{fill:#F1D0D2;}
	.st188{fill:#D93949;}
	.st189{fill:#D63A45;}
	.st190{fill:#FCF9FC;}
	.st191{fill:#DC424E;}
	.st192{fill:#D53D3E;}
	.st193{fill:#F97D6A;}
	.st194{fill:#DF3F48;}
	.st195{fill:#DD474D;}
	.st196{fill:#DF424D;}
	.st197{fill:#FEF0E8;}
	.st198{fill:#D7354A;}
	.st199{fill:#E43C50;}
	.st200{fill:#EF4E5A;}
	.st201{fill:#FEF0E9;}
	.st202{fill:#FEE9E6;}
	.st203{fill:#FEC5DC;}
	.st204{fill:#FFB3D0;}
	.st205{fill:#D4384A;}
	.st206{fill:#C62F3C;}
	.st207{fill:#D84350;}
	.st208{fill:#FE7B89;}
	.st209{fill:#FF8698;}
	.st210{fill:#F96369;}
	.st211{fill:#F86978;}
	.st212{fill:#EF5E65;}
	.st213{fill:#EB555A;}
	.st214{fill:#DF4756;}
	.st215{fill:#E54355;}
	.st216{fill:#D94655;}
	.st217{fill:#E05361;}
	.st218{fill:#CE3544;}
	.st219{fill:#FF8CA5;}
	.st220{fill:#E95F69;}
	.st221{fill:#FE8E9D;}
	.st222{fill:#EE767C;}
	.st223{fill:#C33630;}
	.st224{fill:#C1282F;}
	.st225{fill:#FDFBFA;}
	.st226{fill:#DE424F;}
	.st227{fill:#EA4E5B;}
	.st228{fill:#DC3F4C;}
	.st229{fill:#D7414D;}
	.st230{fill:#DB444F;}
	.st231{fill:#D26260;}
	.st232{fill:#D97673;}
	.st233{fill:#DD8585;}
	.st234{fill:#FEC7C4;}
	.st235{fill:#E3585A;}
	.st236{fill:#E03F4D;}
	.st237{fill:#EE4D56;}
	.st238{fill:#FEB7BC;}
	.st239{fill:#FCA8B1;}
	.st240{fill:#EB6C6D;}
	.st241{fill:#DC4651;}
	.st242{fill:#FDC2CA;}
	.st243{fill:#F5A0A9;}
	.st244{fill:#E7717B;}
	.st245{fill:#D44351;}
	.st246{fill:#FEFAFB;}
	.st247{fill:#D03E4C;}
	.st248{fill:#D03946;}
	.st249{fill:#FCFCFD;}
	.st250{fill:#DB4251;}
	.st251{fill:#DC626E;}
	.st252{fill:#F08387;}
	.st253{fill:#E87779;}
	.st254{fill:#FEF6F3;}
	.st255{fill:#FFF7F1;}
	.st256{fill:#FDEAE2;}
	.st257{fill:#FEECED;}
	.st258{fill:#FE9FBD;}
	.st259{fill:#FDDBE0;}
	.st260{fill:#FDD4D5;}
	.st261{fill:#FD98AD;}
	.st262{fill:#D03748;}
	.st263{fill:#DB5158;}
	.st264{fill:#FEFBF8;}
	.st265{fill:#FEFBF7;}
	.st266{fill:#C83E4D;}
	.st267{fill:#DD8691;}
	.st268{fill:#FEF9F4;}
	.st269{fill:#F39B96;}
	.st270{fill:#FABBB6;}
	.st271{fill:#F65961;}
	.st272{fill:#FE6C76;}
	.st273{fill:#E25260;}
	.st274{fill:#F25F70;}
	.st275{fill:#EDAFB8;}
	.st276{fill:#C83A48;}
</style>
<ellipse class="st0" cx="161" cy="537.5" rx="147" ry="12.5"/>
<path class="st1" d="M93.7,56.5h186.6c2.6,0,4.7,2.3,4.7,5.1v471.3c0,2.8-2.1,5.1-4.7,5.1H93.7c-2.6,0-4.7-2.3-4.7-5.1V61.6
	C89,58.8,91.1,56.5,93.7,56.5z"/>
<path class="st2" d="M110.3,67.4h159.4c2.4,0,4.3,2.1,4.3,4.7v461.3c0,2.6-1.9,4.7-4.3,4.7H110.3c-2.4,0-4.3-2.1-4.3-4.7V72.1
	C106,69.5,107.9,67.4,110.3,67.4L110.3,67.4z"/>
<path class="st3" d="M127.5,144.2c0,0-38.3-11.9-59.4,25.1c0,0-9.7,21.6,11,62c4.2,8.2,10.5,15,18.4,19.8l39.2,23.7l23.8-10.6
	c0,0-6.6-5.3-7.9-27.7c0,0,11.9-1.3,15.8-43.5C168.4,193,167.1,146.8,127.5,144.2L127.5,144.2z"/>
<path class="st4" d="M144.1,299.1c0.4-0.1,0.8-0.2,1.2-0.1c0.8,0.2,1,1.1,1.2,1.9c2.8,13,3.9,26.2,3.3,39.5
	c-10.4-5.1-18.6-13.8-28.1-20.5c-1.8-1.3-3.7-2.6-4.8-4.5C111,304.8,138.3,300.9,144.1,299.1L144.1,299.1z"/>
<path class="st5" d="M46.5,349.7c-4.8,1.4-11,1.3-13.4-3c-0.8-1.7-1.2-3.6-1.2-5.5c-0.5-8.7,0-17.5,1.2-26.1
	c2.1-14.7,6.2-31.9,4.2-46.8c6.4-0.1,12,1.3,18.2-0.6c0.7,15.6-0.5,29.4-1.1,44.1l4.6-0.1c0.8,0,3.6,24.1,3.4,26.4
	C61.8,344.4,52.2,348,46.5,349.7L46.5,349.7z"/>
<path class="st6" d="M56.5,261.9c0.8-1.8,2.2-3.1,3.1-4.9c3.8-7.2,4.2-13.5,4.3-21.7c0-0.5,0-1.1-0.2-1.6c-0.9-2.3-5.9-1.3-7.6-3.2
	c-0.7-0.7-0.5-1.5-0.6-2.5c-0.6-5.2-0.4-10.6-1-15.7c0-1.4-0.5-2.7-1.3-3.8c-0.9-1-2.7-1.4-3.6-0.3c-0.4,0.6-0.6,1.4-0.5,2.1
	c-0.3,6.9-0.5,13.9,0.6,20.7c-0.6-1.3-1.4-2.5-2.5-3.5c-1.1-1-2.7-1.2-4.1-0.6c-1.1,0.7-1.8,1.9-1.7,3.3c0,1.3,0.3,2.6,0.8,3.8
	c-1-1-2.2-1.7-3.6-2.2c-0.4-0.2-0.9-0.3-1.3-0.2c-0.6,0.2-1.1,0.7-1.4,1.3c-0.9,1.8-0.7,3.9,0.4,5.6c-1.8-1.1-4.2-2-5.7-0.5
	c-1.1,1.1-0.9,2.8-0.7,4.4c0.1,0.9,1.6,1.9,1.4,2.8c-0.6,3.1-0.6,1.8,0.5,8.6c0.6,3.4,3.2,4.7,4.2,8c0.9,2.9,0.6,6.1,1,9.1
	c0.3,2.2,0.4,4.4,0.7,6.6c0.2,0.7,17.9-0.2,17.9-0.2c-0.1-1.4-0.1-2.9,0-4.3C56,270,55.2,264.6,56.5,261.9z"/>
<path class="st7" d="M54.3,231.2c-0.2-1.9-0.4-3.8-0.5-5.8c-0.1-1.9-0.3-3.8-0.2-5.8c0.1-1.9,0.1-3.9,0.2-5.7
	c0.2-1.8-0.2-3.6-1.2-5.1c-0.1-0.2-0.1-0.4,0.1-0.6c0.2-0.1,0.4-0.1,0.5,0c0.7,0.8,1.2,1.7,1.5,2.7c0.3,1,0.4,1.9,0.5,2.9
	c0.1,2,0.2,3.8,0.3,5.7s0.2,3.8,0.4,5.7s0.3,3.8,0.5,5.7c0.1,0.6-0.3,1.1-0.9,1.1S54.3,231.7,54.3,231.2L54.3,231.2L54.3,231.2
	L54.3,231.2z"/>
<path class="st8" d="M52.8,231.6c-0.2,0.9-0.1,1.7,0.2,2.5c0.7,1.3,2.5,1.7,3.4,2.9c0.6,1,0.9,2.3,0.7,3.5c-0.2,2.8-0.7,5.5-1.6,8.1
	"/>
<path class="st7" d="M51,237.1c-0.1,0.8,0.5,1.7,0.8,2.7c0.2,1.1,0.1,2.1-0.3,3.1c-0.1,0.2-0.2,0.4-0.3,0.6
	c-0.2,0.4-0.5,0.6-0.9,0.8c-0.2,0.1-0.4,0.1-0.5,0.2c-0.3,0.1-0.5,0.1-0.8,0.2c-1.1,0-2.2-0.3-3-1c-0.1-0.1-0.1-0.3,0-0.4l0,0
	c0.1-0.1,0.3-0.2,0.4-0.1c0,0,0,0,0,0l0,0c1,1,2.5,1.2,3.8,0.5c0.3-0.3,0.6-0.6,0.7-1c0.4-0.8,0.5-1.8,0.2-2.7
	c-0.5-0.9-0.8-1.9-1.1-2.9l0,0c0-0.3,0.2-0.5,0.4-0.6l0,0C50.7,236.6,50.9,236.8,51,237.1L51,237.1L51,237.1z"/>
<path class="st8" d="M46,243.3c0.1,1.1-0.4,2.2-1.2,2.9c-0.8,0.7-1.9,1-3,0.7c-0.6-0.1-1-0.5-1.3-0.9"/>
<path class="st8" d="M40.3,245.7l-0.2,1.3c0,0.5-0.1,0.9-0.3,1.3c-0.4,0.7-1,1.1-1.8,1.2c-0.8,0.1-1.5-0.2-2.1-0.7"/>
<path class="st7" d="M37,238.8l3.3,5.6c0.1,0.1,0,0.3-0.1,0.4c-0.1,0.1-0.3,0-0.3-0.1l0,0l-3.5-5.4l0,0c-0.1-0.2-0.1-0.4,0.1-0.5
	c0,0,0,0,0,0C36.7,238.6,36.9,238.7,37,238.8C37,238.8,37,238.8,37,238.8L37,238.8L37,238.8z"/>
<path class="st7" d="M43.1,235c0,0.5,0.2,1.1,0.3,1.6l0.6,1.6l1.3,3.1c0,0.1,0,0.2-0.1,0.2c0,0,0,0,0,0c-0.1,0-0.2,0-0.2-0.1l-1.5-3
	c-0.2-0.5-0.5-1-0.8-1.6c-0.2-0.6-0.4-1.1-0.5-1.8c0-0.2,0.1-0.4,0.3-0.4l0,0C42.8,234.6,43,234.8,43.1,235
	C43.1,235,43.1,235,43.1,235L43.1,235L43.1,235L43.1,235z"/>
<path class="st7" d="M31.6,244.7c-0.3,1.8-0.3,3.5,0,5.3c0.2,1.7,0.8,3.4,1.7,4.8c0.9,1.4,2.3,2.7,3.2,4.4c1,1.7,1.5,3.7,1.5,5.6
	l0,0c0,0.5-0.5,1-1,1s-1-0.5-1-1l0,0c0.1-1.7-0.2-3.3-1-4.8c-0.7-1.5-2-2.8-3-4.5c-0.9-1.7-1.5-3.6-1.6-5.5
	c-0.2-1.9-0.1-3.7,0.3-5.5c0-0.2,0.3-0.4,0.5-0.3S31.7,244.5,31.6,244.7L31.6,244.7L31.6,244.7L31.6,244.7z"/>
<path class="st6" d="M57.2,231.1c-1.3-0.8-2.9-0.8-4.2,0.1c-0.1,0-0.1,0.1-0.2,0.2c0,0.1-0.1,0.2-0.1,0.3c0,0.6,0.1,1.2,0.2,1.7
	c1-0.3,2.2-0.5,3.2-0.8c0.3-0.1,0.6-0.2,0.9-0.4C57.3,232,57.2,231.4,57.2,231.1z"/>
<path class="st9" d="M164.6,445.8c-11.9-12.8-23.1-27.6-25.3-44.9c13.3-2.5,26.9-5,39-11c0.7,5.3,1,10.7,1,16.1
	c0.2,11.7,0.4,23.4-0.3,35.1c-0.1,2.6,0.1,14.8-2.7,15.3C173.5,456.8,166.5,447.8,164.6,445.8z"/>
<path class="st10" d="M180.8,390.5c-9.5,4.3-20.3,12.2-33.2,12.2c-2.2,0-7.5,1.3-9.2,0c-1.9-1.5-2.1-4-2.8-6.4
	c-1.6-6-0.9-12.5-1.2-18.7c-0.1-1.5-1.7-2.6-2.2-4c-0.4-1.1-1-2.2-1.7-3.2c-1.6-2.5-3.8-3.4-5.4-5.9c-2.2-3.4-4.9-6.5-7.9-9.2
	c-4.7-3.8-8.9-2.8-13.7-6.6c-5.7-4.5-10.4-14-10.1-21.1c-7.3,7.5-14.5,13.5-24.2,17.6c-1.1,0.6-2.3,0.8-3.5,0.7
	c-2.3-0.3-3.6-2.7-4.4-4.8c-1.4-3.5-2.7-7-3.7-10.6c-2.3-8.3-5.1-14.6,0.2-21.4c3.1-3.5,6.6-6.7,10.5-9.2c8-5,16.5-9.2,25.4-12.6
	c8.9-3.3,13.1-0.2,16.8-3.3c0.4,0.7,0.9,1.3,1.3,2c4.3,6.6,8.2,13,12.2,19.4c5.9,9.6,11.9,19,19.5,28.4c-1.4-11-2.9-22.1-2.7-33.2
	v-1.4c0.3-7.6,1.4-15.3,0.4-22.9c-0.2-1-0.2-2-0.2-3l0,0c0-0.5,0.1-1,0.2-1.4c0.6-1.9,2.4-3.2,4-4.3c6.4-4.1,13.4-7.4,20.6-9.8
	c2.7-1,10-3.8,11.9-1.3c0.8,1-0.6,2.7,0,4c0.9,1.7,0.8,3.8,1.8,5.4c5.4,9.3,3.2,20.9,4.5,31.6c0.9,7.5,3.5,14.8,4.4,22.4
	C191.4,343.4,176.5,367,180.8,390.5z"/>
<path class="st11" d="M90.8,324.9c0.3,1.4,1.1,2.7,2.2,3.6l1.8-2c0.2-0.1,0.3-0.3,0.3-0.5c0-0.3-0.1-0.6-0.4-0.9
	c-1.2-1.4-2.3-2.8-3.2-4.4c-0.4-0.6-1.9-4.4-2.5-4.5C87.2,316,90.4,323.8,90.8,324.9L90.8,324.9z"/>
<ellipse transform="matrix(0.9289 -0.3704 0.3704 0.9289 -132.0979 69.8079)" class="st12" cx="115.7" cy="378.9" rx="8" ry="8.4"/>
<ellipse transform="matrix(0.9289 -0.3704 0.3704 0.9289 -132.1689 69.1384)" class="st13" cx="113.9" cy="378.7" rx="6.4" ry="6.8"/>
<rect x="109.9" y="367.7" transform="matrix(0.9289 -0.3704 0.3704 0.9289 -129.3602 67.3445)" class="st13" width="1.6" height="5.6"/>
<path class="st14" d="M156.2,313.5l-5.1,31.5c0,0-1.2,8.3,4.1,11.5"/>
<path class="st14" d="M175.8,313.7l1.2,33c0,0,0.2,8.6-6,11.1"/>
<path class="st15" d="M109,368.5c0,0-23.7-54.1,1.3-85.8c9-11.3,31-15.4,42.1-8.3c4.2,2.6,7.3,6.6,8.9,11.2
	c1.1,3.4,3.1,10.7,3.2,14.2"/>
<path class="st15" d="M156,314.8c0,0-2.4-16.7,10.8-14.6c0,0,10.5-2.3,9.4,14"/>
<path class="st16" d="M169.8,356c-0.7,0-1.4,0.2-2,0.4c-0.6,0.3-1,1-0.8,1.7c0.2,0.4,0.6,0.7,1,0.8c0.4,0.1,0.9,0.1,1.4,0.1
	c0.8,0,1.6-0.1,2.4-0.3c0.8-0.2,1.5-0.6,2-1.2c0.1-0.1,0.1-0.2,0.2-0.3c0.1-0.5-0.4-1.7-0.9-1.8c-0.5,0.1-1,0.2-1.5,0.4
	C170.9,355.8,170.3,355.9,169.8,356L169.8,356z"/>
<path class="st16" d="M153.3,356.3c0.3,0.4,0.6,0.7,0.9,1c0.9,0.6,1.9,1,3,1.1c0.5,0.1,1,0.1,1.4,0c0.5-0.1,0.9-0.4,1.1-0.9
	c0.2-0.8-0.2-1.6-0.9-1.9c-1.3-0.6-2.7-0.5-4-1.2c-0.6-0.3-1.4-0.1-1.7,0.5C152.9,355.4,153,355.9,153.3,356.3L153.3,356.3z"/>
<path class="st5" d="M130.1,303.8c-1.5,0.4-3,0.8-4.5,1.1c-0.6,0.1-1.2,0.2-1.7,0.1h-0.1c-3.9-6.4-7.8-12.8-12.2-19.4
	c-0.4-1.5-0.6-3-0.8-4.6c-0.5-4.6-0.7-9.2-0.9-13.8c0-1-0.7-5.6,0.3-6c0.4-0.2,2.2,0.9,2.7,1.1c1,0.3,1.9,0.7,2.9,1
	c1.7,0.6,4.8,0.4,6.4,1.3c0.7,0.4,0,1.8,0.5,2.4c0.1,0.1,0.2,0.3,0.3,0.5c0.3,0.6,0.5,1.3,0.5,2.1c0.2,1.8,0.1,3.7,0.1,5.5
	c0.1,6.6,1.3,13.1,3.5,19.3c1.1,3,2.4,6,2.9,9.1C130.1,303.5,130.1,303.7,130.1,303.8L130.1,303.8z"/>
<path class="st5" d="M141,299.2v1.4c-3.2,1.3-6.5,2.4-9.9,3.3c-0.2,0.1-0.4,0.1-0.6,0c0,0-0.1,0-0.1-0.1c-0.2-0.1-0.3-0.3-0.3-0.5
	c-1.7-3.7-2.9-7.6-3.8-11.6c-0.4-1.8-0.7-3.6-1.2-5.3c-0.6-2.3-1.6-4.5-1.8-6.9c0-1.1,0-2.1,0.1-3.2c0.1-2,0.1-4,0-6
	c-0.2-1-0.4-1.9-0.9-2.8c-0.4-1.1,0.5-1.6,1.1-1.9c1.5-0.9,3.8-1.1,5.4-1.7c1.8-0.7,3.5-2.6,5.2-3.5c-0.3,3.6,0.1,7.2,1.2,10.6
	c0.4,1.1,1.1,2.3,2.2,2.4c1,0.1,1.8-0.8,2.8-0.9c0.2,0,0.3,0,0.5,0.1c0.1,0.1,0.2,0.3,0.2,0.5l0,0c0,1,0.1,2,0.2,3
	C142.4,283.8,141.3,291.5,141,299.2L141,299.2z"/>
<path class="st17" d="M83.5,212.7l-0.4-3.3c0-1.2-0.3-2.3-0.9-3.4c-1.9-2.7-5.4-1.6-7.2,0.6s-1.6,4.5-0.8,7c0.6,2.2,2.4,3.9,4.7,4.2
	c2,0.3,3.8-1,4.2-2.9v-0.1C83.4,214.2,83.6,213.5,83.5,212.7z"/>
<path class="st7" d="M81.3,210.6c0-0.6-0.2-1.3-0.4-1.9c-0.1-0.4-0.4-0.6-0.8-0.7H80v-1.2c0-0.4-0.1-0.7-0.3-1.1
	c-0.3-0.3-0.6-0.6-1.1-0.6c-0.6-0.1-1.3-0.1-1.9,0.1c-0.5,0.2-0.9,0.6-1.3,0.9c-0.2,0.1-0.3,0.3-0.4,0.6c-0.1,0.2-0.1,0.5,0,0.7
	c0.2,0.4,0.6,0.7,1,0.7l0,0c0.1,0,0.3,0,0.4,0.1l0,0l0.1,0.1l0,0l0.1,0.1l0.3,0.3l0.1,0.1v0.1c0.1,0.1,0.2,0.2,0.2,0.3l0.1,0.1
	c-0.3,0.2-0.7,0.5-0.9,0.9c-0.7,0.9-0.9,2-0.8,3.1c0.5,2.2,2.2,3.8,4.4,4.1c0.6,0.1,1.1-0.3,1.2-0.9c0.2-1.3,0.2-2.6,0.1-3.9
	C81.4,211.8,81.4,211.2,81.3,210.6L81.3,210.6z"/>
<path class="st5" d="M84.5,231.3c0.4,3.6,1.1,7.1,2.1,10.5c1.7,6.3,5.4,11.8,10.6,15.8c5.5,4.5,13.2,7.4,20.2,8.5
	c0.6,0.1,1.2,0.1,1.8,0c1.4-0.3,2.9-0.5,4.3-0.6c1-7.3-1.4-18-2.4-25.3c-0.3-2.9-1.1-5.8-2.5-8.4c-0.8-1.1-1.4-2.2-2-3.4
	c-0.6-1.8-0.7-3.7-0.4-5.6l2.1-29.2c0.3-4.3,0.6-8.8-0.6-13c-0.1-0.6-0.4-1.1-0.9-1.5c-0.7-0.3-1.6-0.3-2.3,0
	c-5.7,1.6-11.3,3.2-17,4.9c-5,1.5-11.4,2.6-15.9,5.2c-3.3,1.9-2.9,4.5-2.2,7.9c1,5.1,1.1,9.4,1.9,14.5
	C82.3,217.8,84,224.9,84.5,231.3z"/>
<path class="st17" d="M117.8,186.3l-0.6,20.1c0,3.8-0.4,7.6-1.3,11.3c-0.6,2.2-1.6,4.3-1.8,6.6s0.3,4.8,2.2,6.1
	c0.6,0.3,1.2,0.7,1.8,1.2c0.9,0.9,0.8,2.4,0.8,3.6c-0.4,9.6,0.4,19.3,2.5,28.8c0.2,0.8,0.4,1.5,0.8,2.3c0.6,0.7,1.5-0.6,2.4-0.9
	c3.4-1.3,6.6-2.9,9.7-4.8c7.9-4.6,16.3-9.8,19.5-18.4c1-3.1,1.6-6.3,1.8-9.6c1-12.2,0.7-24.5-0.8-36.6c-0.6-5-1.6-10.2-4.7-14.1
	c-2-2.2-4.4-4.1-7.1-5.4c-5.4-2.9-11.1-5-17.1-6.1c-3.3-0.6-7.5-1-8.3,3S117.9,182.3,117.8,186.3z"/>
<path class="st17" d="M153.1,207l-0.1-3.3c-0.2-1.2-0.1-2.4,0.3-3.5c1.4-3,5.1-2.5,7.2-0.7c2.2,1.8,2.4,4.2,2,6.8
	c-0.2,2.3-1.7,4.3-3.9,5c-1.9,0.7-3.9-0.3-4.7-2.1v-0.1C153.5,208.6,153.1,207.8,153.1,207z"/>
<path class="st7" d="M155,203.8c-0.1-0.6-0.1-1.3,0.1-1.9c0.1-0.4,0.3-0.7,0.7-0.8h0.1c-0.1-0.4-0.1-0.8-0.2-1.2
	c-0.1-0.4,0-0.8,0.1-1.1c0.2-0.4,0.6-0.7,1-0.8c0.6-0.3,1.3-0.3,1.9-0.2c0.5,0.1,1,0.4,1.5,0.7c0.2,0.1,0.4,0.3,0.5,0.5
	c0.1,0.2,0.2,0.5,0.1,0.7c-0.1,0.4-0.4,0.8-0.9,0.9l0,0l-0.4,0.1l0,0l-0.1,0.1l0,0l-0.1,0.1l-0.2,0.3l-0.1,0.1v0.1l-0.2,0.3
	c0,0,0,0.1,0,0.1c0.4,0.2,0.8,0.4,1.1,0.7c0.8,0.7,1.3,1.8,1.3,2.9c-0.1,2.2-1.6,4.1-3.7,4.8c-0.6,0.2-1.2-0.1-1.4-0.6
	c-0.4-1.2-0.6-2.5-0.8-3.8C155.1,205,155.1,204.4,155,203.8L155,203.8z"/>
<path class="st3" d="M71.5,204.1c0.8,1.6,5.8,0.6,7.2-0.6s-0.3-2.1,0.6-3.7c2.4-4.1,6.9-6.6,11.5-7.9c4.6-1.4,9.3-1.8,14-2.8
	c4.2-0.9,8.3-2.2,12.2-4c2.4-1.1,4.9-2.5,5.8-5c0.6-1.7,0.8-4.1,2.6-4.3c5.5,6.9,13.6,12.2,21.5,16.1c3.2,1.6,6.7,3.5,7.6,7
	c0.2,0.7,0.5,1.6,1.1,1.4c0.3-0.1,0.5-0.3,0.7-0.5c2.9-3.7,5.9-8,5.1-12.7c-0.8-4.3-4.7-7.3-8.3-9.8l-10.8-7.5
	c-1.6-1.3-3.4-2.2-5.4-2.9c-2.5-0.5-5-0.4-7.5,0.2c-12.8,2.6-29.7,3.8-40.3,11.3c-3.8,2.6-6.6,6.9-10.6,9.2
	c-2.4,1.4-3.1,3.6-5.3,5.3C71.3,194.7,71.7,201.4,71.5,204.1L71.5,204.1z"/>
<path class="st18" d="M126.8,151.4c-0.1,2.8-0.7,5.6-1.9,8.2c-1.1,2.6-2.5,5.1-4.2,7.4l-0.6,0.9l-0.7,0.9c-0.5,0.6-1,1.1-1.6,1.7
	c-1.1,1-2.3,2-3.6,2.8c-2.5,1.5-5.2,2.7-8,3.6c-1.4,0.4-2.7,0.8-4.1,1.1s-2.7,0.6-4,0.8c-2.6,0.5-5.1,1-7.7,1.5
	c-5,1.2-9.7,2.7-14,6.3c1-2.7,2.7-5.1,4.9-7c2.2-1.9,4.7-3.4,7.3-4.6c2.6-1.1,5.2-2.1,7.9-2.8c2.6-0.7,5.1-1.4,7.5-2.2
	c1.2-0.4,2.4-0.8,3.5-1.2c1.1-0.4,2.2-0.9,3.3-1.4c1-0.5,2-1.1,3-1.8c0.4-0.4,0.9-0.7,1.3-1.1l0.7-0.6l0.7-0.7
	c1.9-1.8,3.7-3.6,5.4-5.6C123.8,155.8,125.4,153.7,126.8,151.4L126.8,151.4z"/>
<path class="st19" d="M103.4,195.8c-0.6,0-1.1,0-1.7,0.1c-0.5,0-1,0.1-1.5,0.2c-1.5,0.4-2.9,1.1-4.2,1.8c-0.6,0.4-1.2,0.8-1.7,1.3
	c-0.7,0.6-1.4,1.2-2,1.9c-0.2,0.1-0.2,0.3-0.2,0.5c0,0.4,0,0.9-0.1,1.3c0.3-0.5,0.6-0.9,1.1-1.3c1.3-0.9,2.7-1.6,4.2-2.2
	c1.5-0.7,3.1-1.1,4.8-1.3c0.6,0,1.2,0,1.8,0l2.6,0.1c0.3,0,0.6,0,0.9-0.1c0.4-0.1,0.7-0.5,0.7-0.9c0.1-0.6-0.3-1.2-1-1.4
	c-0.1,0-0.2,0-0.3,0C105.7,195.9,104.5,195.8,103.4,195.8L103.4,195.8z"/>
<path class="st19" d="M131.7,193.9c0.6-0.1,1.1-0.2,1.7-0.3c0.5-0.1,1-0.1,1.6-0.1c1.5,0.1,3.1,0.4,4.5,0.9c0.6,0.3,1.3,0.6,1.9,0.9
	c0.8,0.4,1.6,0.9,2.3,1.4c0.2,0.1,0.3,0.3,0.3,0.5c0.1,0.4,0.2,0.9,0.3,1.3c-0.4-0.4-0.8-0.8-1.3-1.1c-1.5-0.6-3-1-4.5-1.3
	c-1.6-0.4-3.3-0.5-4.9-0.3c-0.6,0.1-1.2,0.2-1.8,0.4l-2.6,0.6c-0.3,0.1-0.6,0.1-0.9,0.1c-0.4-0.1-0.8-0.3-0.9-0.7
	c-0.2-0.6,0.1-1.3,0.7-1.5c0.1,0,0.2-0.1,0.3-0.1C129.5,194.5,130.6,194.1,131.7,193.9L131.7,193.9z"/>
<path class="st20" d="M130.4,201.1c-1,0.8-1.7,2-1.9,3.2c-0.5,1.5-0.5,3.1,0,4.6c0.1,0.5,0.5,1,1,1.3c0.4,0.1,0.8,0.2,1.1,0.1
	c1.6-0.1,3.2-0.3,4.7-0.5c0.3,0,0.5-0.1,0.8-0.2c0.9-0.4,1-1.6,0.9-2.5v-1.3c0-0.2,0-0.5-0.2-0.7c-0.1-0.1-0.3-0.1-0.5-0.1
	c-0.6,0-1.1,0-1.7-0.1c-0.6-0.1-1.1-0.4-1.4-0.9c-0.6-1.1,0.8-2.3,0.2-3.1S131.1,200.5,130.4,201.1L130.4,201.1z"/>
<path class="st20" d="M100.9,203.6c-1,0.8-1.8,1.9-2.1,3.1c-0.6,1.5-0.6,3.1-0.2,4.6c0.1,0.6,0.5,1,1,1.3c0.4,0.1,0.8,0.2,1.1,0.2
	c1.6,0,3.2-0.1,4.8-0.3c0.3,0,0.5-0.1,0.8-0.2c0.9-0.4,1-1.5,1.1-2.5l0.1-1.3c0-0.2,0-0.5-0.2-0.7c-0.1-0.1-0.3-0.1-0.5-0.1
	c-0.6,0-1.1-0.1-1.7-0.2c-0.6-0.1-1-0.5-1.3-1c-0.5-1.1,1-2.3,0.4-3.1S101.6,203.1,100.9,203.6z"/>
<path class="st21" d="M126.4,229.3c0.1,0.4,0,0.5-0.1,0.5L126,230c-0.2,0.1-0.4,0.3-0.7,0.4c-0.5,0.2-1,0.3-1.5,0.5
	c-1,0.4-2.1,0.6-3.1,0.6c-1.1,0.1-2.2-0.2-3.2-0.8c-0.9-0.6-1.7-1.5-2-2.6c0-0.1,0-0.1,0.1-0.1h0.1c0.5,0.1,1,0.3,1.5,0.5
	c0.5,0.1,0.9,0.4,1.3,0.5c0.8,0.4,1.6,0.7,2.4,0.9c0.9,0.2,1.8,0.2,2.7,0.1c0.4-0.1,0.9-0.3,1.3-0.5l0.6-0.3l0.3-0.1
	c0.1-0.1,0.2-0.1,0.5,0.1l0,0C126.3,229.1,126.4,229.2,126.4,229.3z"/>
<path class="st21" d="M133.7,261.1c-1.6,1.2-3.1,2.5-4.8,3.6c-0.8,0.6-1.7,1.1-2.5,1.7c-0.9,0.6-1.9,1-2.9,1.4l-0.4,0.1
	c-0.2,0-0.4,0.1-0.6,0.1c-0.3,0-0.6,0-0.9,0c-0.5,0-1-0.1-1.5-0.2c-1-0.2-2-0.4-2.9-0.6c-0.5-0.1-0.9-0.2-1.5-0.4s-1-0.3-1.5-0.5
	c-0.9-0.4-1.9-0.8-2.8-1.2c-0.1,0-0.1-0.2-0.1-0.2c0-0.1,0.1-0.1,0.2-0.1l3,0.5c0.5,0.1,1,0.1,1.4,0.2l1.4,0.1
	c0.9,0.1,1.8,0.1,2.6,0.3c0.6,0.1,1.3,0.2,1.9,0.2h0.8l0.3-0.1c1.8-0.7,3.5-1.5,5.2-2.5c1.7-1,3.6-1.9,5.4-2.6c0.1,0,0.2,0,0.2,0.1
	C133.9,261,133.9,261.1,133.7,261.1L133.7,261.1L133.7,261.1z"/>
<path class="st21" d="M120.8,255.7c0.2,0.1,0.4,0.1,0.6,0c0.1,0,0.2-0.1,0.3-0.2l0.7-0.5c0.5-0.3,1-0.8,1.3-1.3
	c-0.1-0.1-0.3-0.1-0.4-0.1l-2.3,0.1c-0.7-0.1-1.4,0-2.1,0.1C117.7,254.5,120.2,255.6,120.8,255.7z"/>
<path class="st22" d="M88.6,221.8c-0.1,0.8,0.1,1.6,0.5,2.2c0.7,1.1,1.7,1.9,2.9,2.3c1.2,0.4,2.5,0.5,3.7,0.4c1,0.1,2.1-0.3,2.8-1
	c1.5-2,0.5-6.4-2.2-6.8C94.2,218.5,89.2,219.5,88.6,221.8z"/>
<path class="st23" d="M141.3,216.7c-0.6,1.1-0.6,2.4,0.2,3.4c1.1,1.4,3,1.5,4.8,1.6l1.9,0.1c0.7,0.1,1.5,0,2.2-0.2
	c0.7-0.2,1.3-0.8,1.5-1.5c0.1-0.4,0-0.9-0.1-1.4C150.4,214.5,144,212.5,141.3,216.7L141.3,216.7z"/>
<path class="st24" d="M280.4,537.2L182.6,569c-5.8,0-10.6-4.3-10.6-9.6l-1-497.7c0-5.3,4.7-9.6,10.6-9.6l98.9,5.8
	c5.8,0,10.6,4.3,10.6,9.6v460.1C291,532.9,286.2,537.2,280.4,537.2z"/>
<path class="st1" d="M189.5,291.4c-3.6,0-6.5-2.9-6.5-6.5l0,0v-42c0.4-3.6,3.5-6.2,7.1-5.9c3.1,0.3,5.6,2.8,5.9,5.9v42
	C196,288.5,193.1,291.4,189.5,291.4z"/>
<path d="M196.7,263.9c0,6.1-3.1,11.1-7,11.1s-7-5-7-11.1s3.1-11.1,7-11.1S196.7,257.7,196.7,263.9z"/>
<path class="st1" d="M291,132c-2.2,0-4-1.8-4-4V90.1c0.1-2.3,2-4,4.2-3.9c2.1,0.1,3.7,1.8,3.8,3.9v37.8C295,130.2,293.2,132,291,132
	L291,132z"/>
<path class="st1" d="M291,494.9c-2.2,0-4-1.8-4-4v-36.8c-0.1-2.2,1.6-4.1,3.8-4.2s4.1,1.6,4.2,3.8c0,0.1,0,0.3,0,0.4v36.7
	C295,493.1,293.2,494.9,291,494.9L291,494.9L291,494.9z"/>
<path class="st25" d="M192.3,281.1c0,1.4-1.2,2.6-2.6,2.6s-2.6-1.2-2.6-2.6s1.2-2.6,2.6-2.6l0,0
	C191.1,278.5,192.3,279.7,192.3,281.1z"/>
<polygon class="st25" points="189.7,280.9 187.8,287 192.2,287 "/>
<path class="st26" d="M269,541c-0.7,0-1.3-0.6-2-1.4V59.8c0.8-0.8,1.4-1.4,2.1-1.3c0.6,0.1,1.1,0.6,0.9,1.3v479.8
	C270.3,540.4,269.7,541,269,541L269,541z"/>
<path class="st26" d="M246.6,548c-0.7,0-1.3-0.6-1.6-1.4l0,0V56.1c0.3-0.8,0.8-1.5,1.5-1.6c0.7-0.1,1.4,0.5,1.4,1.3
	c0,0.1,0,0.2,0.1,0.2v490.5C247.9,547.3,247.4,548,246.6,548L246.6,548z"/>
<path class="st26" d="M224.1,555c-0.7,0-1.3-0.6-1.1-1.4l0,0V55c-0.1-0.8,0.5-1.4,1.2-1.3c0.6,0.1,1.1,0.6,1.8,1.3v498.5
	C225.4,554.3,224.9,555,224.1,555L224.1,555L224.1,555z"/>
<path class="st26" d="M200.6,563c-0.7,0-1.3-0.7-1.6-1.5V55c0.4-0.8,1.1-1.4,1.8-1.3c0.6,0.1,1.1,0.6,1.2,1.3v506.5
	C201.9,562.3,201.4,563,200.6,563L200.6,563z"/>
<path class="st26" d="M181,569c0,0-2.3-0.2-3-1V54.9c0.7-0.8,1.4-1.4,2.1-1.3c0.6,0.1,1.1,0.6,0.9,1.3V569z"/>
<line class="st27" x1="295" y1="464" x2="287" y2="464"/>
<line class="st27" x1="295" y1="479" x2="287" y2="479"/>
<line class="st27" x1="295" y1="102" x2="287" y2="102"/>
<line class="st27" x1="295" y1="117" x2="287" y2="117"/>
<g>
	<path class="st28" d="M128.8,238.9c0.3,0,0.5,0.1,0.8,0.1c0.5,0,1.1,0.1,1.6,0.2c0,0.1,0,0.3,0.1,0.4c0.1,0.4,0.1,0.7-0.2,0.9
		c-0.1,0-0.1,0.1-0.2,0.1c-0.1,0.1-0.3,0-0.4,0.1c-0.1,0-0.2,0.1-0.3,0.1c-0.2,0-0.4,0.1-0.7,0.1c-0.1,0-0.3,0-0.4,0
		c-0.2-0.2-0.3-0.4-0.3-0.7c0-0.2-0.1-0.3-0.2-0.4C128.5,239.4,128.6,239.1,128.8,238.9L128.8,238.9z"/>
	<path class="st29" d="M131.1,240.5c0-0.1-0.1-0.1,0-0.1c0.3-0.1,0.2-0.3,0.1-0.5c0-0.1-0.1-0.3-0.1-0.4c0-0.1,0-0.2,0.1-0.2
		c0.4,0,0.8,0.1,1.2,0.2c0,0.2-0.2,0.3-0.4,0.5c-0.1,0.1-0.2,0.2-0.2,0.4c-0.1,0.1-0.2,0.1-0.2,0.1c0,0-0.1,0.1-0.1,0.1
		c-0.1,0-0.1,0-0.2,0C131.2,240.5,131.1,240.5,131.1,240.5L131.1,240.5z"/>
	<path class="st30" d="M134.1,240.3c-0.1,0-0.1,0.1-0.2,0.1c-0.1,0.1-0.3,0-0.3-0.1c-0.2-0.3-0.6-0.4-0.5-0.8c0.2,0,0.4,0,0.6,0
		c0.1,0,0.1,0,0.2,0c0.4,0,0.5,0.2,0.3,0.6C134.2,240.2,134.2,240.2,134.1,240.3L134.1,240.3z"/>
	<path class="st31" d="M133.1,239.5c0.2,0.3,0.4,0.7,0.8,0.9c-0.2,0.1-0.3,0.3-0.5,0.4c-0.1,0-0.2,0-0.2-0.1c0-0.3-0.2-0.4-0.4-0.4
		c-0.3-0.4-0.3-0.6,0-0.8C132.9,239.5,133,239.5,133.1,239.5L133.1,239.5z"/>
	<path class="st32" d="M132.8,239.5c-0.1,0.3-0.1,0.5,0,0.8c-0.1,0.1-0.1,0.1-0.3,0.1c-0.1,0-0.3,0-0.4-0.1c-0.1-0.5,0-0.8,0.4-0.8
		C132.7,239.5,132.8,239.5,132.8,239.5L132.8,239.5z"/>
	<path class="st33" d="M132.7,239.5c-0.2,0.1-0.4,0.3-0.4,0.5c0,0.1,0,0.2-0.1,0.3c0,0,0,0-0.1,0c-0.1,0-0.2,0-0.3,0
		c0,0-0.1,0-0.1-0.1c0-0.4,0.4-0.6,0.6-0.8C132.5,239.4,132.6,239.4,132.7,239.5L132.7,239.5z"/>
	<path class="st34" d="M134.3,240.1c0-0.4-0.1-0.6-0.5-0.6c0.2-0.1,0.4,0,0.6-0.1c0.3,0,0.3,0,0.3,0.3
		C134.5,239.9,134.4,240,134.3,240.1L134.3,240.1z"/>
	<path class="st35" d="M134.6,239.7c0-0.2-0.1-0.3-0.3-0.3c0.1-0.1,0.1-0.1,0.2-0.1c0.1,0,0.1,0,0.2,0c0.1,0.1,0,0.1,0,0.2
		C134.7,239.6,134.6,239.7,134.6,239.7z"/>
	<path class="st36" d="M134.9,239.4c0.1,0,0.2,0.1,0.1,0.2c-0.1,0.1-0.1,0-0.1-0.1C134.9,239.5,134.9,239.4,134.9,239.4z"/>
	<path class="st37" d="M134.9,239.4c0,0,0,0.1,0,0.1c0,0,0,0-0.1,0c0,0-0.1-0.1-0.1-0.1c-0.1,0-0.1,0-0.2,0
		C134.6,239.3,134.8,239.3,134.9,239.4L134.9,239.4z"/>
	<path class="st38" d="M134.7,239.4c0.1,0,0.1,0,0.1,0.1c0,0-0.1,0.1-0.1,0.1C134.7,239.5,134.7,239.4,134.7,239.4L134.7,239.4z"/>
	<path class="st39" d="M108.2,240.2c-0.1-0.1-0.2-0.2-0.3-0.3c0-0.1,0-0.1,0.1-0.2c0,0,0.1,0,0.1,0c0.4,0,0.6,0.2,0.9,0.3
		c0,0.2-0.2,0.4-0.2,0.6c0,0-0.1,0.1-0.1,0.1c-0.1,0-0.1,0-0.1,0c-0.1,0-0.1-0.1-0.2-0.1C108.3,240.5,108.3,240.4,108.2,240.2
		L108.2,240.2z"/>
	<path class="st40" d="M108.1,239.8C108.1,239.8,108.1,239.7,108.1,239.8c0.1-0.1,0.2,0,0.4-0.1c0,0,0,0.1,0.1,0.1
		C108.4,239.8,108.2,239.8,108.1,239.8L108.1,239.8z"/>
	<path class="st41" d="M123.6,238.2C123.6,238.2,123.7,238.2,123.6,238.2c0.2,0,0.3,0,0.4,0c0.3-0.1,0.6-0.1,0.9,0
		c0.1,0,0.2,0,0.3,0c0.5,0.1,1.1,0.3,1.6,0.4c0.1,0.2,0.2,0.3,0,0.5c-0.1,0-0.2,0-0.3-0.1c-0.5-0.3-1-0.3-1.5,0
		c-0.2,0.2-0.5,0.2-0.8,0.3c-0.3,0-0.6,0-0.9,0c-0.3,0-0.6-0.1-0.8-0.3c-0.3-0.3-0.6-0.3-0.9-0.5c0-0.1,0.1-0.2,0.2-0.2
		c0.5-0.1,0.9-0.2,1.3-0.2C123.4,238.1,123.5,238.1,123.6,238.2L123.6,238.2z"/>
	<path class="st42" d="M125,238.2c-0.3,0-0.6,0-0.9,0c0.1-0.1,0.1-0.1,0.2-0.1c0.2,0,0.3,0,0.5,0C124.9,238.1,125,238.1,125,238.2z"
		/>
	<path class="st43" d="M124.8,238.1c-0.2,0-0.3,0-0.5,0C124.5,238.1,124.6,238.1,124.8,238.1z"/>
	<path class="st44" d="M128.8,238.9c-0.1,0.4-0.1,0.7,0.1,1c0.1,0.3,0.1,0.6,0.3,0.9c-0.1,0.2-0.7,0.4-1,0.3
		c-0.2-0.1-0.2-0.4-0.2-0.6c-0.1-0.4-0.2-0.8-0.4-1.2c0.2-0.2,0.3-0.4,0.5-0.6C128.3,238.8,128.6,238.8,128.8,238.9L128.8,238.9z"/>
	<path class="st45" d="M128,238.8c0,0.3-0.1,0.6-0.4,0.6c0,0-0.1,0-0.1,0.1c-0.3,0-0.5,0-0.6-0.4c0-0.2-0.2-0.3-0.1-0.5
		C127.3,238.7,127.7,238.7,128,238.8L128,238.8z"/>
	<path class="st46" d="M128.2,241.1c0.3-0.1,0.7-0.1,1-0.3c0.1,0,0.2,0,0.3-0.1c0.1,0,0.2,0,0.3,0c0.2,0,0.3,0.1,0.2,0.3
		c-0.1,0.1-0.2,0.1-0.4,0.1c-0.2,0-0.4,0-0.5,0.1c-0.1,0-0.2,0.1-0.2,0.3c0,0.4-0.1,0.6-0.5,0.7c-0.2,0.1-0.3,0.1-0.4,0.2
		c-0.2,0.1-0.4,0.3-0.7,0.2c-0.1-0.2-0.3-0.3-0.6-0.2c-0.5,0.1-0.7-0.1-0.8-0.5c0.1-0.2,0.4-0.2,0.4-0.5
		C127,241.1,127.5,241,128.2,241.1L128.2,241.1z"/>
	<path class="st47" d="M130.5,240.6c0.1-0.1,0.3,0,0.4-0.1c0.3,0.1,0.4,0.3,0,0.6c-0.2,0.1-0.3,0.3-0.4,0.5c-0.1,0.1-0.1,0.1-0.2,0
		C130.1,241.3,130.3,241,130.5,240.6L130.5,240.6z"/>
	<path class="st48" d="M130.9,241.1c0.3-0.2,0.3-0.4,0-0.6c0-0.1,0.1-0.1,0.1-0.1l0.1,0c0.1,0,0.3,0,0.3,0.2c0,0.1-0.1,0.3-0.2,0.3
		c-0.1,0.1-0.2,0.2-0.3,0.2C130.9,241.2,130.9,241.2,130.9,241.1L130.9,241.1z"/>
	<path class="st49" d="M130.5,240.6c0,0.1,0.1,0.2,0,0.3c-0.2,0.2-0.1,0.5-0.1,0.8c0,0,0,0,0,0c0,0-0.1,0-0.1-0.1
		c-0.1-0.2-0.1-0.4-0.1-0.6c0-0.1,0-0.3,0.1-0.4C130.3,240.6,130.4,240.6,130.5,240.6L130.5,240.6z"/>
	<path class="st50" d="M130.2,240.7c0,0.1,0,0.3,0,0.4c0,0-0.1,0-0.1,0c0,0,0,0,0,0c-0.1-0.3-0.4-0.2-0.6-0.3
		C129.7,240.7,130,240.7,130.2,240.7L130.2,240.7z"/>
	<path class="st51" d="M133.1,241.3c0,0-0.1,0.1-0.1,0.1c-0.2,0.1-0.4,0-0.5-0.2c-0.2-0.3-0.1-0.7,0.2-0.9c0.1,0,0.2,0,0.3,0
		c0.4,0,0.4,0,0.5,0.4c0,0.1,0,0.1,0.1,0.2C133.3,241,133.1,241.1,133.1,241.3z"/>
	<path class="st52" d="M131.8,240.3c0,0,0.1,0,0.1,0c0,0,0,0.1,0,0.1c0,0.1-0.1,0.2-0.2,0.2c-0.1,0-0.2-0.1-0.2-0.2
		C131.6,240.3,131.7,240.3,131.8,240.3L131.8,240.3z"/>
	<path class="st53" d="M131.5,240.3c0.1,0,0.1,0.1,0.2,0.1c0,0,0,0.1,0,0.1c-0.1,0.1-0.1,0.1-0.2,0.1
		C131.4,240.6,131.4,240.5,131.5,240.3C131.4,240.4,131.5,240.4,131.5,240.3L131.5,240.3z"/>
	<path class="st54" d="M131.4,240.4c0.1,0.1,0.1,0.1,0.1,0.2c0,0.1,0,0.1-0.1,0.1c0-0.2-0.2-0.2-0.3-0.3
		C131.3,240.4,131.3,240.4,131.4,240.4L131.4,240.4z"/>
	<path class="st55" d="M132.6,240.3c0,0.1-0.1,0.2-0.1,0.4c-0.1,0.5,0,0.6,0.4,0.7c-0.1,0.1-0.1,0.2-0.2,0.3
		c-0.2,0.2-0.4,0.1-0.5-0.1c-0.2-0.3-0.3-0.6-0.4-0.9c0-0.1,0-0.2,0.1-0.3c0-0.1,0.1-0.2,0.2-0.1c0,0,0,0,0.1,0
		C132.3,240.2,132.5,240.2,132.6,240.3L132.6,240.3z"/>
	<path class="st56" d="M132.1,240.3c-0.1,0-0.1,0.1-0.1,0.1c-0.1,0-0.1,0-0.1-0.1c0,0,0,0,0-0.1C132,240.1,132,240.1,132.1,240.3
		L132.1,240.3z"/>
	<path class="st57" d="M119.8,238.5c0.2,0,0.4,0.1,0.6,0.1c0.2,0,0.4,0,0.6,0c0.1,0.1,0.1,0.1,0,0.2c-0.4,0-0.9,0.1-1.3,0.1
		c-0.3,0-0.5,0.1-0.7,0.3c-0.2,0.2-0.4,0.3-0.6,0.3c-0.4-0.1-0.8-0.1-1.2-0.1c-0.4-0.1-0.7,0.1-1,0.2c-0.1,0-0.3,0-0.4-0.1
		c-0.1-0.3,0.2-0.4,0.4-0.4c0.2-0.1,0.5-0.1,0.6-0.3c0,0,0.1-0.1,0.1-0.1c0.6-0.1,1.2-0.2,1.8-0.1
		C119,238.5,119.4,238.6,119.8,238.5L119.8,238.5z"/>
	<path class="st58" d="M113.9,239.2c0,0,0.1,0,0.1-0.1c0,0,0.1,0,0.1,0c0.3,0.1,0.6,0.1,0.8,0c0.2-0.1,0.4-0.1,0.7-0.2
		c0.3,0,0.6,0,0.9-0.2c0.1,0,0.1,0,0.2,0c-0.1,0.3-0.4,0.3-0.6,0.4c-0.2,0-0.4,0.1-0.5,0.3c0,0.1,0,0.2-0.1,0.2
		c-0.4,0.1-0.8,0.2-1.2,0C114.1,239.6,113.9,239.5,113.9,239.2L113.9,239.2z"/>
	<path class="st59" d="M116.8,238.7c-0.4,0.2-0.8,0.3-1.2,0.3c-0.3,0-0.5,0.3-0.9,0.3c-0.2,0-0.4,0-0.5-0.2c0.5-0.1,1-0.2,1.4-0.3
		c0.1,0,0.3,0,0.4-0.1c0.2-0.1,0.5-0.1,0.7-0.1c0,0,0,0,0.1,0C116.8,238.6,116.8,238.7,116.8,238.7L116.8,238.7z"/>
	<path class="st60" d="M116.7,238.6c-0.2,0.1-0.5,0.1-0.7,0.1C116.2,238.6,116.5,238.6,116.7,238.6z"/>
	<path class="st61" d="M112.3,239.7c0.1-0.1,0.2-0.1,0.3-0.2c0,0,0.1,0,0.1,0c0.2,0,0.4,0,0.5,0.2c0.1,0.2,0.1,0.4-0.1,0.6
		c0,0-0.1,0.1-0.1,0.1c-0.1,0-0.2,0.1-0.4,0.2c0,0-0.1,0-0.1,0c-0.2-0.1-0.5-0.1-0.6-0.4C111.9,240,112.1,239.8,112.3,239.7
		L112.3,239.7z"/>
	<path class="st62" d="M113.3,239.4l0.1,0c0.1,0,0.2,0.1,0.2,0.1c0.6,0.1,0.6,0.2,0.7,0.8c0,0.1-0.1,0.2-0.2,0.3
		c-0.2,0-0.4,0.1-0.6-0.1c-0.1,0-0.1-0.1-0.1-0.2c0-0.4-0.3-0.6-0.6-0.7C113,239.4,113.2,239.5,113.3,239.4L113.3,239.4z"/>
	<path class="st63" d="M112.9,239.5c0.6,0.2,0.6,0.3,0.7,0.9c-0.2,0.2-0.4,0.2-0.6,0c0-0.1,0.1-0.1,0.1-0.2c0.1-0.3,0-0.5-0.3-0.6
		c-0.1,0-0.1,0-0.1,0C112.7,239.5,112.8,239.5,112.9,239.5z"/>
	<path class="st64" d="M111.9,239.7C111.9,239.7,112,239.7,111.9,239.7c0.2,0,0.3,0,0.4,0c-0.1,0.2-0.2,0.4-0.2,0.5
		c-0.1,0.1-0.2,0.1-0.3,0.1c-0.2,0-0.4-0.1-0.4-0.2c0,0,0-0.1,0-0.1c0.1-0.2,0.4,0,0.5-0.2C111.8,239.8,111.9,239.8,111.9,239.7
		L111.9,239.7z"/>
	<path class="st65" d="M108.1,239.8c0.1,0,0.3,0,0.4,0c0.1,0.1,0.1,0,0.2,0.1c0.1,0.1,0.3,0.1,0.4,0.2c0,0,0,0.1,0,0.1
		c0,0-0.1,0-0.1,0C108.7,240.1,108.4,239.8,108.1,239.8L108.1,239.8z"/>
	<path class="st66" d="M109.1,240c-0.2,0-0.3-0.1-0.4-0.2c0.1,0,0.2,0,0.3,0c0,0,0,0,0.1,0.1C109.1,240,109.2,239.9,109.1,240
		C109.2,240,109.2,240,109.1,240C109.2,240.1,109.2,240.1,109.1,240L109.1,240z"/>
	<path class="st67" d="M109.1,240.1C109.1,240.1,109.1,240.1,109.1,240.1c0.1,0,0.2,0,0.3,0c0.2,0.3-0.1,0.4-0.3,0.5
		c0,0-0.1,0-0.1,0c0,0,0,0,0,0C108.7,240.3,108.7,240.3,109.1,240.1L109.1,240.1z"/>
	<path class="st68" d="M109,240.9c-0.1-0.1-0.2-0.2-0.3-0.3c0,0,0.1,0,0.1,0l0,0c0.1,0.1,0.1,0,0.2,0.1
		C109.1,240.8,109.1,240.9,109,240.9L109,240.9z"/>
	<path class="st69" d="M120.9,238.7c0,0,0-0.1,0.1-0.1c0.1-0.1,0.3,0,0.4,0c0.1,0,0.3,0,0.4,0c0.4-0.1,0.7,0.1,1,0.4
		c0.2,0.1,0.3,0.2,0.5,0.2c0.5,0.1,1.1,0.1,1.6-0.1c0.1,0,0.1,0,0.1-0.1c0.3-0.4,0.8-0.3,1.2-0.3c0.3,0,0.5,0.2,0.7,0.4
		c0.2,0.2,0.4,0.3,0.6,0.3c0,0.2-0.1,0.2-0.3,0.2c-0.2,0-0.3-0.1-0.5-0.2c-0.2-0.1-0.4-0.1-0.6,0.1c-0.1,0.1-0.2,0.2-0.3,0.3
		c-0.3,0.2-0.5,0.5-0.7,0.8c-0.1,0-0.2,0-0.2,0c-0.3-0.3-0.7-0.2-1-0.1c-0.3,0.1-0.7,0.1-1,0c-0.3,0-0.7,0.1-1,0.2
		c-0.1,0.1-0.2,0.1-0.3,0.2c-0.1,0-0.1,0-0.2,0c-0.6,0-1.2,0-1.8,0c-0.1,0-0.2,0-0.3-0.1c-0.1-0.2,0.1-0.2,0.2-0.2
		c0.3,0,0.5-0.2,0.8-0.1c0.1,0,0.3,0,0.4-0.1c0.2-0.1,0.4-0.1,0.5,0c0.2,0,0.4,0.1,0.5-0.2c0.1-0.2,0-0.6-0.2-0.7
		c-0.4-0.2-0.6-0.6-0.7-1C120.8,238.7,120.9,238.7,120.9,238.7L120.9,238.7z"/>
	<path class="st70" d="M127.2,239.5c0.1,0,0.2,0,0.3-0.1c0,0,0,0,0.1,0c0.4,0.5,0.4,1.1,0.5,1.7c-0.5,0.1-0.9,0.2-1.4,0.3
		c-0.1,0-0.2,0.1-0.3,0.1c-0.1,0.1-0.2,0.2-0.4,0.1c-0.3-0.3-0.3-0.5,0-0.7c0.3-0.2,0.7-0.2,1.1-0.2
		C126.8,239.9,126.8,239.7,127.2,239.5L127.2,239.5z"/>
	<path class="st71" d="M126.1,241.9c0.2,0.5,0.3,0.5,0.7,0.4c0.1,0,0.2,0,0.2-0.1c0-0.1,0-0.2,0.1-0.1c0.1,0,0.1,0.1,0.1,0.2
		c0,0.1,0.1,0.2,0.1,0.3c0.2,0.3,0.3,0.5,0.6,0.8c0,0.1,0,0.1,0,0.2c-0.2,0.2-0.5,0.4-0.8,0.4c-0.1,0-0.2,0-0.4-0.1
		c-0.1-0.1-0.3-0.2-0.5-0.3c-0.5-0.1-0.6-0.6-0.8-1c-0.1-0.3,0-0.5,0.2-0.6C125.8,241.8,126,241.7,126.1,241.9L126.1,241.9z"/>
	<path class="st72" d="M127.9,243.3c-0.3-0.1-0.5-0.3-0.5-0.8c0.3,0,0.5-0.1,0.7-0.3c0.1-0.1,0.2-0.1,0.3-0.2
		c0.4-0.1,0.5-0.2,0.4-0.6c0-0.1,0-0.2-0.1-0.3c0.4,0,0.9,0,1.3,0l0,0c0.1,0.1,0.1,0.2,0.1,0.2c-0.1,0.1-0.2,0.1-0.3,0.1
		c-0.1,0-0.2,0-0.3,0c-0.1,0-0.2,0.1-0.2,0.2c0,0.1,0.1,0.1,0.2,0.1c0.1,0,0.3,0,0.4,0c0.1,0.2-0.1,0.2-0.1,0.4c0,0,0,0.1,0,0.1
		c0,0-0.1,0.1-0.1,0.1c-0.2,0.1-0.3,0.2-0.5,0.4c-0.2,0.1-0.3,0.3-0.5,0.3c-0.2,0.1-0.3,0.2-0.5,0.3
		C128.2,243.3,128.1,243.4,127.9,243.3L127.9,243.3z"/>
	<path class="st73" d="M126.1,241.9c-0.4,0.2-0.5,0.4-0.4,0.8c0.1,0.4,0.3,0.7,0.8,0.8c0.1,0,0.2,0.1,0.3,0.2
		c-0.3,0.2-0.5,0.3-0.8,0c-0.1-0.1-0.2-0.1-0.4-0.1c-0.2,0-0.3,0-0.4-0.2c-0.3-0.4-0.4-1.4-0.2-1.8c0,0,0.1-0.1,0.1-0.1
		c0.3-0.1,0.7-0.2,1,0c0.1-0.1,0.3-0.1,0.4-0.1c0.1,0.2,0.1,0.4-0.2,0.3C126.2,241.8,126.2,241.8,126.1,241.9L126.1,241.9z"/>
	<path class="st74" d="M130.9,241.1c0,0,0.1,0,0.1,0c0,0,0,0.1,0,0.1c0,0.1-0.1,0.1-0.1,0.2c-0.1,0.1-0.1,0.1-0.2,0.2
		s-0.1,0.1-0.2,0C130.5,241.4,130.7,241.3,130.9,241.1L130.9,241.1z"/>
	<path class="st75" d="M130.5,241.6c0.1,0,0.1-0.1,0.2-0.1c0.1,0.2,0,0.3-0.2,0.4c-0.1,0-0.1-0.1-0.1-0.2l0,0
		C130.4,241.7,130.5,241.6,130.5,241.6L130.5,241.6z"/>
	<path class="st76" d="M130.8,241.4l0.2-0.2c0.2,0,0.2-0.2,0.3-0.3c0.1-0.1,0.1-0.2,0.2-0.2c0,0,0,0,0.1-0.1c0.1,0,0.1-0.1,0.2-0.1
		c0.1,0.4-0.2,0.9-0.6,1C131,241.5,130.9,241.5,130.8,241.4L130.8,241.4z"/>
	<path class="st77" d="M131.3,240.9c0,0.1,0,0.3-0.3,0.3c0,0,0,0,0-0.1C131.1,241.1,131.2,241,131.3,240.9L131.3,240.9z"/>
	<path class="st46" d="M129.8,242.1c0-0.1,0.1-0.2,0.2-0.3c0-0.2,0.1-0.3,0.2-0.5c0-0.1,0-0.2-0.1-0.3c0,0,0.1,0,0.1,0
		c0,0.2,0.1,0.4,0.1,0.6C130.2,242,130.1,242.1,129.8,242.1L129.8,242.1z"/>
	<path class="st78" d="M129.8,242.1c0.2-0.1,0.3-0.3,0.5-0.4c0,0,0,0,0.1,0l0.1,0.1c0,0.3-0.3,0.5-0.5,0.5
		C129.9,242.3,129.8,242.3,129.8,242.1C129.8,242.2,129.8,242.1,129.8,242.1L129.8,242.1z"/>
	<path class="st79" d="M131.1,241.4c0.4-0.1,0.5-0.5,0.6-0.9c0,0,0,0,0-0.1c0.1,0,0.1-0.1,0.2-0.1c0,0,0.1,0,0.1,0.1
		c-0.1,0.2,0.1,0.4,0.1,0.5c0,0.1,0.1,0.2,0.1,0.2c0,0.3,0.2,0.4,0.5,0.4c0,0.1-0.1,0.1-0.1,0.2c-0.2,0.2-0.5,0.2-0.7,0.3
		c-0.4,0.1-0.7,0.1-1-0.1C130.7,241.7,130.7,241.6,131.1,241.4L131.1,241.4z"/>
	<path class="st80" d="M130.9,242c0.2,0,0.3,0.1,0.5,0.1c0.2,0,0.3,0,0.5-0.1c0.1,0.1,0.3,0.1,0.3,0.3c-0.3,0.4-0.8,0.8-1.1,1.1
		c-0.3,0-0.4-0.2-0.6-0.4C130.4,242.7,130.6,242.2,130.9,242L130.9,242z"/>
	<path class="st81" d="M130.6,243.1c0.2,0,0.3,0.3,0.5,0.4c-0.1,0.1-0.2,0.3-0.3,0.4c-0.1,0-0.1,0.1-0.2,0.1c-0.1,0-0.2,0-0.3,0
		c-0.1-0.3-0.3-0.6-0.2-1C130.3,242.9,130.5,243,130.6,243.1L130.6,243.1z"/>
	<path class="st82" d="M132.3,242.3c-0.1-0.1-0.2-0.2-0.3-0.3c0.2-0.1,0.5-0.1,0.7-0.2C132.6,242,132.4,242.1,132.3,242.3
		L132.3,242.3z"/>
	<path class="st83" d="M121.4,238.6c-0.1,0-0.3,0-0.4,0c-0.2,0-0.4,0-0.6,0C120.7,238.5,121.1,238.5,121.4,238.6L121.4,238.6z"/>
	<path class="st84" d="M117.1,239.2c0.4,0,0.9-0.1,1.3,0.1c0.1,0.1,0.2,0.1,0.3,0c0.3,0,0.5,0.2,0.5,0.5c0,0.2-0.1,0.4-0.1,0.5
		c-0.4,0.5-0.6,0.6-1.1,0.2c-0.2-0.1-0.4-0.2-0.6-0.2c-0.2,0-0.4-0.1-0.6-0.1c-0.2-0.1-0.4-0.2-0.4-0.4c0-0.3,0.2-0.4,0.4-0.6
		C116.8,239.3,117,239.3,117.1,239.2L117.1,239.2z"/>
	<path class="st85" d="M118.9,240.4c0-0.2,0-0.3,0.1-0.5c0.1-0.3,0-0.4-0.3-0.5c-0.1,0-0.2,0-0.3-0.1c0.1,0,0.3,0,0.4-0.2
		c0.3-0.4,0.8-0.5,1.3-0.5c0.3,0,0.6-0.1,0.9,0c-0.1,0-0.1,0-0.2,0.1c-0.1,0.6-0.4,1.1-0.6,1.6c-0.2,0.4-0.4,0.5-0.8,0.4
		C119.3,240.6,119,240.6,118.9,240.4L118.9,240.4z"/>
	<path class="st86" d="M118.9,240.4c0.1,0,0.2,0,0.3,0c0.3,0,0.3,0,0.2,0.3c0,0,0,0,0,0c-0.3,0.1-0.6,0.1-0.8,0.3
		c-0.1,0-0.3,0-0.4,0c0,0-0.1,0-0.1,0c-0.2-0.1-0.5-0.2-0.8-0.2c-0.2,0-0.4-0.1-0.6-0.2c-0.4-0.1-0.8-0.1-1.1-0.5
		c-0.2-0.4-0.1-0.6,0.5-0.8c0.3-0.2,0.7-0.2,1-0.2c-0.2,0.2-0.4,0.3-0.6,0.5c-0.1,0.2-0.1,0.3,0.1,0.4c0.2,0.1,0.5,0.2,0.8,0.2
		c0.3,0,0.5,0.2,0.7,0.3c0.4,0.2,0.4,0.2,0.7-0.1C118.8,240.5,118.8,240.5,118.9,240.4L118.9,240.4z"/>
	<path class="st87" d="M116,239.5c-0.2,0.2-0.6,0.3-0.4,0.7c-0.2,0.2-0.4,0.2-0.6,0.2c-0.3,0-0.5-0.1-0.8-0.2
		c-0.1-0.1-0.1-0.2-0.2-0.3c-0.1-0.2-0.2-0.3-0.4-0.3c-0.2,0-0.3-0.1-0.4-0.2c0.2,0,0.3-0.1,0.5-0.1c0.4,0.4,0.8,0.4,1.3,0.3
		c0.2,0,0.3,0.1,0.5-0.1C115.8,239.5,115.9,239.5,116,239.5L116,239.5z"/>
	<path class="st88" d="M111.7,240.3c0.1,0,0.2,0,0.3,0c0.2,0.2,0.4,0.2,0.6,0.3c0.2,0,0.4-0.1,0.5,0c0.1,0.1,0.3,0.3,0.1,0.5
		c0.1,0,0.1,0,0.2,0c0.1,0,0.2,0,0.3,0.1c0,0.1-0.1,0.2-0.1,0.2c-0.1,0.2-0.4,0.1-0.5,0.3c-0.2,0.1-0.5,0-0.7,0
		c-0.1,0-0.1,0-0.2-0.1c0-0.1,0-0.1,0-0.1c0.1-0.1,0.2-0.2,0-0.3c0,0-0.1-0.1-0.1-0.1c-0.3,0-0.5-0.2-0.6-0.5
		C111.6,240.4,111.6,240.3,111.7,240.3L111.7,240.3z"/>
	<path class="st89" d="M113.1,240.6c-0.2,0-0.4,0.1-0.5-0.1l0,0c0.1-0.1,0.2-0.1,0.3-0.2c0,0,0,0,0.1,0c0.2,0,0.4,0,0.6,0
		c0.2,0,0.4,0,0.6,0.1c0.1,0.1,0.1,0.2,0,0.2C113.8,240.8,113.5,240.8,113.1,240.6L113.1,240.6z"/>
	<path class="st88" d="M113,240.4c0,0.2-0.2,0.2-0.3,0.2C112.7,240.4,112.8,240.4,113,240.4z"/>
	<path class="st90" d="M114.2,240.6c0-0.1,0-0.1,0-0.2c0-0.1,0.1-0.1,0.1-0.2c0.1-0.1,0.2-0.1,0.3-0.1c0.3,0.2,0.7,0.1,1,0
		c0.3,0.3,0.7,0.3,1.1,0.4c0,0.1,0,0.1,0,0.2c-0.1,0.1-0.3,0.1-0.4,0.1c-0.6-0.2-1.1-0.1-1.7-0.2
		C114.5,240.7,114.4,240.7,114.2,240.6C114.2,240.6,114.2,240.6,114.2,240.6L114.2,240.6z"/>
	<path class="st91" d="M109.2,240c0,0-0.1-0.1-0.1-0.1c0.2,0,0.5,0,0.7,0c0,0,0,0.1,0,0.1c-0.1,0.1-0.2,0.1-0.3,0.1
		C109.4,240.1,109.3,240.1,109.2,240L109.2,240z"/>
	<path class="st92" d="M109.8,240C109.8,240,109.8,239.9,109.8,240c0.1-0.1,0.1-0.1,0.2-0.1c0.2,0,0.4-0.1,0.5,0c0,0,0,0,0,0
		c-0.2,0.1-0.3,0.1-0.5,0.1C109.9,240.1,109.9,240.1,109.8,240C109.8,240,109.8,240,109.8,240L109.8,240z"/>
	<path class="st93" d="M111.1,239.8c0.1-0.1,0.3-0.1,0.5-0.1c0,0,0,0.1,0,0.1c0,0-0.1,0.1-0.1,0.1
		C111.3,239.9,111.2,239.9,111.1,239.8z"/>
	<path class="st94" d="M111.1,239.8c0.1,0,0.2,0,0.3,0c-0.1,0.2-0.2,0.2-0.4,0.1C111.1,239.9,111,239.9,111.1,239.8L111.1,239.8
		C111.1,239.8,111.1,239.8,111.1,239.8L111.1,239.8z"/>
	<path class="st95" d="M111.6,239.8C111.6,239.8,111.6,239.8,111.6,239.8c0.1-0.1,0.2-0.1,0.3-0.1c0,0,0,0-0.1,0.1
		C111.8,239.9,111.7,239.9,111.6,239.8z"/>
	<path class="st96" d="M109.8,240C109.8,240,109.9,240,109.8,240c0.2,0,0.4,0,0.6,0c0.1,0,0.2-0.1,0.4-0.1c0,0,0.1,0,0.1,0
		c0.1,0,0.3,0,0.4,0.1c0,0,0,0,0,0.1c0,0.1,0,0.1-0.1,0.2c-0.2,0.2-0.2,0.3,0.1,0.4c0.1,0.1,0.1,0.2,0.1,0.4c0,0.1,0,0.1-0.1,0.1
		c-0.1,0-0.1,0-0.2,0c-0.1,0-0.1,0-0.1-0.1c0,0,0-0.1-0.1-0.1c-0.2-0.2-0.4-0.2-0.7-0.3c0,0-0.1,0-0.1,0.1c0,0-0.1,0.1-0.2,0.1
		c-0.1,0-0.1-0.1-0.1-0.2c0-0.2,0.2-0.2,0.3-0.4C110.1,240.2,109.9,240.3,109.8,240C109.8,240,109.8,240,109.8,240L109.8,240z"/>
	<path class="st97" d="M111.3,240.7c-0.1,0-0.2,0-0.3,0c-0.1,0-0.1,0-0.2-0.1c0-0.1,0-0.1,0.1-0.2c0.1-0.1,0.2-0.3,0.4-0.3
		c0.1,0.1,0.3,0.1,0.4,0.2c0,0.1,0,0.2-0.1,0.3C111.6,240.8,111.6,240.8,111.3,240.7z"/>
	<path class="st98" d="M111.3,240c-0.1-0.1-0.3-0.1-0.5-0.1c0-0.2,0.1-0.1,0.2-0.1c0.1,0,0.3,0,0.4-0.1c0,0,0.1,0,0.1,0
		c0.1,0,0.2,0,0.3,0C111.8,240.1,111.5,240,111.3,240L111.3,240z"/>
	<path class="st99" d="M111.7,244.3c-0.1,0-0.1-0.1-0.2-0.1c-0.1-0.3-0.4-0.4-0.5-0.7c-0.1-0.3-0.1-0.5,0.1-0.7
		c0.1-0.2,0.2-0.3,0.3-0.5c0.2-0.1,0.3,0,0.4,0.2c0.1,0.2,0,0.4-0.1,0.6c-0.1,0.3,0,0.4,0.3,0.5c0.2,0.1,0.4,0.1,0.6,0.3
		c0,0.1,0,0.2-0.1,0.3c-0.1,0.2-0.3,0.3-0.4,0.6c0,0.1-0.1,0.1-0.2,0.1c0,0-0.1-0.1-0.1-0.1C111.8,244.4,111.8,244.3,111.7,244.3
		L111.7,244.3z"/>
	<path class="st100" d="M111.4,242.2c0.1,0.2,0.1,0.4-0.1,0.5c-0.1,0-0.2,0.1-0.2,0.2c0,0.2-0.1,0.3-0.1,0.5c-0.1,0-0.1-0.1-0.2-0.1
		c0,0-0.1-0.1-0.1-0.1c0.1-0.3-0.2-0.5-0.2-0.7c0.3,0,0.5-0.2,0.6-0.5c0,0,0.1,0,0.1,0C111.4,242,111.5,242,111.4,242.2
		C111.5,242.1,111.5,242.2,111.4,242.2L111.4,242.2z"/>
	<path class="st101" d="M109.8,240C109.8,240,109.8,240,109.8,240c-0.1,0.2-0.1,0.2-0.3,0.3c-0.1,0-0.1,0-0.2,0c0,0-0.1,0-0.1-0.1
		c0,0-0.1,0-0.1-0.1c0,0,0,0,0-0.1c0,0,0,0,0.1,0c0.1-0.1,0.2,0,0.3-0.1C109.6,240,109.7,240,109.8,240
		C109.8,240,109.8,240,109.8,240L109.8,240z"/>
	<path class="st102" d="M109.5,240c-0.1,0.1-0.2,0.1-0.3,0.1c0,0,0,0,0-0.1C109.3,240,109.4,240,109.5,240L109.5,240z"/>
	<path class="st103" d="M110.8,243.2c-0.2-0.1-0.3-0.4-0.5-0.6c0,0,0-0.1-0.1-0.1c-0.1-0.1-0.2-0.1-0.2-0.2c0-0.1,0.1-0.1,0.1-0.1
		c0.1,0,0.2,0.1,0.3,0.2c0,0,0,0,0,0C110.7,242.7,110.9,242.9,110.8,243.2L110.8,243.2z"/>
	<path class="st104" d="M109.6,241.7c-0.1-0.2-0.3-0.3-0.4-0.5c0.2-0.1,0.3,0.1,0.4,0.1c0.1,0.1,0.2,0.2,0.2,0.4
		C109.7,241.7,109.7,241.7,109.6,241.7C109.7,241.7,109.6,241.7,109.6,241.7L109.6,241.7z"/>
	<path class="st105" d="M110,242.2C110,242.2,110.1,242.2,110,242.2c0.1,0,0.1,0,0.1,0.1c0,0.1,0.1,0.1,0.1,0.2
		C110.1,242.5,110,242.4,110,242.2L110,242.2z"/>
	<path class="st106" d="M109.3,240.2c0,0,0.1,0,0.1,0c0.1,0.1,0.1,0.1,0.2,0.2c0,0.2,0.2,0.5,0.1,0.8c-0.1,0.2-0.2,0-0.4,0
		c0,0-0.1,0-0.1-0.1c-0.1-0.1-0.1-0.3-0.2-0.4c0-0.1,0.1-0.2,0.2-0.2C109.3,240.4,109.3,240.3,109.3,240.2L109.3,240.2z"/>
	<path class="st107" d="M109,240.6c0.2,0.1,0.3,0.2,0.3,0.4c-0.1,0-0.1,0-0.1,0c-0.1-0.1-0.1-0.2-0.1-0.2c0,0-0.1-0.1-0.1-0.1
		C108.9,240.6,109,240.6,109,240.6L109,240.6z"/>
	<path class="st108" d="M109,240.8c0.1,0,0.1,0.1,0.2,0.2c0,0.1,0,0.1-0.1,0.1l0,0c0,0,0-0.1-0.1-0.1C109,240.8,109,240.8,109,240.8
		L109,240.8z"/>
	<path class="st109" d="M115.7,248c-0.8-0.5-1.4-1.1-2.1-1.7c-0.5-0.2-0.9-0.6-1.1-1.1c0,0,0,0,0-0.1c0,0,0-0.1,0-0.1
		c0.2-0.2,0.8-0.4,1.1-0.3c0.1,0.1,0.3,0.1,0.5,0.1c0.6-0.1,1,0.4,1.3,0.8c0.4,0.2,0.4,0.2,0.4,0.7c0,0.4-0.1,0.8,0.1,1.2
		C115.9,247.8,115.9,247.9,115.7,248L115.7,248z"/>
	<path class="st110" d="M124.4,248.8c0,0-0.1,0-0.1,0.1c-0.1,0-0.1,0-0.2,0c-0.1,0.1-0.2,0.2-0.3,0.2c-0.4,0.1-0.8,0.1-1.2,0.1
		c-0.1,0-0.1,0-0.2,0c-0.1,0-0.3,0-0.4,0c0,0-0.1,0-0.1,0c-0.1-0.1-0.2-0.3-0.2-0.4c-0.1-0.3-0.1-0.6-0.5-0.7
		c-0.1,0-0.1-0.1-0.1-0.1c0,0,0-0.1,0.1-0.1c0.1,0,0.2-0.1,0.2-0.1c0.1,0,0.2,0,0.3,0c0.3-0.1,0.6-0.1,1-0.1c0.2,0,0.5,0,0.7,0
		c0,0,0.1,0,0.1,0c0.3,0.1,0.7,0.1,1,0c0.1,0,0.2-0.1,0.3,0c0.1,0,0.1,0.1,0.1,0.2c0,0.1,0,0.1,0,0.2
		C124.4,248.1,124.3,248.5,124.4,248.8L124.4,248.8z"/>
	<path class="st111" d="M120.3,249.2c-0.4,0.1-0.8-0.1-1.2,0c-0.1-0.1-0.2-0.1-0.3-0.1c-0.2-0.4-0.1-0.9,0.4-1.2
		c0.1-0.1,0.3-0.2,0.4-0.2c0.2,0,0.4,0,0.5,0c0.1,0.1,0.2,0.1,0.3,0.1C120.5,248.3,120.5,248.8,120.3,249.2L120.3,249.2z"/>
	<path class="st112" d="M119.6,247.8c-0.6,0.3-0.8,0.6-0.8,1.2c0,0.1-0.1,0-0.1,0.1c-0.4-0.1-0.8,0-1.1-0.2c0.1-0.3,0.2-0.6,0.2-0.8
		c0.1-0.3,0.4-0.5,0.7-0.5c0.1,0,0.1,0,0.2,0.1c0.1,0.2,0.3,0.1,0.5,0.1c0.1,0,0.1,0,0.1,0C119.5,247.6,119.6,247.7,119.6,247.8
		L119.6,247.8z"/>
	<path class="st113" d="M114.1,245.1c-0.2,0-0.4,0-0.5-0.1c-0.1,0-0.2-0.1-0.3-0.1c-0.2,0.1-0.5,0.2-0.7,0.4
		c-0.2-0.1-0.3-0.4-0.5-0.5c-0.1,0-0.1,0-0.1-0.1c0,0,0.1,0,0.1,0c0-0.4,0.4-0.5,0.5-0.8c0,0,0.1,0,0.1,0c0.1,0,0.1,0.1,0.1,0.1
		c0,0.4,0.3,0.5,0.7,0.5c0.1,0,0.1,0,0.2,0c0.3,0.1,0.6,0.1,0.8,0.3C114.5,245,114.2,245,114.1,245.1L114.1,245.1z"/>
	<path class="st114" d="M118.6,247.6c-0.4,0.1-0.7,0.4-0.7,0.9c0,0.2-0.1,0.3-0.3,0.4c-0.2-0.1-0.4-0.1-0.7-0.2
		c-0.1-0.1-0.3-0.1-0.3-0.2c0.1-0.4,0.4-0.6,0.7-0.7c0.1-0.1,0.2-0.1,0.3-0.2c0.2-0.3,0.5-0.3,0.9-0.2
		C118.5,247.4,118.6,247.4,118.6,247.6L118.6,247.6z"/>
	<path class="st115" d="M120.3,249.2c0-0.4,0-0.9,0-1.3c0.1-0.2,0.3-0.1,0.4-0.1c0.5,0.4,0.6,1,0.2,1.4
		C120.7,249.2,120.5,249.1,120.3,249.2C120.3,249.2,120.3,249.2,120.3,249.2L120.3,249.2z"/>
	<path class="st116" d="M120.4,249.2c0.2-0.1,0.4,0,0.6-0.1c0.2-0.2,0.4-0.2,0.6-0.1c0,0,0,0.1,0,0.1
		C121.1,249.2,120.7,249.2,120.4,249.2L120.4,249.2z"/>
	<path class="st113" d="M111.9,244.5C111.9,244.5,111.8,244.5,111.9,244.5c-0.1-0.1-0.2-0.2-0.2-0.2
		C111.8,244.2,111.9,244.3,111.9,244.5L111.9,244.5z"/>
	<path class="st117" d="M118.7,249.1c0,0,0.1,0,0.1-0.1c0.1,0,0.2,0,0.3,0.1C118.9,249.1,118.8,249.1,118.7,249.1L118.7,249.1z"/>
	<path class="st118" d="M121.9,249.1c0.1,0,0.3,0,0.4,0C122.2,249.2,122,249.2,121.9,249.1C121.9,249.1,121.9,249.1,121.9,249.1
		L121.9,249.1z"/>
	<path class="st119" d="M121.9,249.1C121.9,249.1,121.9,249.2,121.9,249.1c-0.1,0.1-0.3,0.1-0.4,0.1c0,0,0,0,0-0.1
		C121.6,249,121.7,249,121.9,249.1C121.9,249.1,121.9,249.1,121.9,249.1L121.9,249.1z"/>
	<path class="st120" d="M125.2,248.7c-0.2,0.1-0.5,0.1-0.7,0.2c0,0-0.1,0-0.1,0c-0.1-0.2-0.1-0.4-0.2-0.5c-0.1-0.1,0-0.1,0.1-0.2
		c0.2-0.1,0.3-0.2,0.4-0.4c0.1-0.2,0.2-0.2,0.4-0.1c0.1,0,0.1,0.1,0.1,0.1c0,0.2,0.1,0.3,0.2,0.4
		C125.5,248.4,125.3,248.5,125.2,248.7L125.2,248.7z"/>
	<path class="st121" d="M126.1,241.5c-0.3,0-0.7,0.1-1,0.1c-0.1,0.1-0.2,0.1-0.3,0.1c-0.3-0.2-0.1-0.4,0-0.5
		c0.2-0.1,0.3-0.3,0.3-0.5c0-0.3,0.1-0.5,0.4-0.7c0.2-0.1,0.4-0.3,0.6-0.5c0.2-0.3,0.4-0.4,0.7-0.2c0.1,0.1,0.3,0.1,0.4,0.2
		c-0.3,0.5-0.3,0.6,0.1,1c0.1,0.1,0.1,0.2,0.1,0.3s-0.1,0.1-0.2,0.1c-0.3-0.1-0.6,0-0.9,0.2C126,241.2,125.9,241.3,126.1,241.5
		L126.1,241.5z"/>
	<path class="st122" d="M119.4,240.8c0.4,0,0.5-0.1,0.7-0.4c0.2-0.3,0.1-0.7,0.4-1c0.1-0.1,0-0.4,0.3-0.5c0.1,0.2,0.3,0.3,0.3,0.5
		c0,0.1,0.1,0.2,0.3,0.3c0.1,0,0.3,0,0.3,0.2c0.1,0.2,0.2,0.5,0.1,0.8c-0.1,0.3-0.3,0.3-0.6,0.2c-0.2-0.1-0.4-0.1-0.6,0.1
		c-0.3,0.2-0.6-0.1-0.9,0.1c-0.1,0.1-0.3,0.1-0.4,0.1c-0.1,0.2-0.3,0.1-0.5,0.1c-0.1-0.2,0.1-0.2,0.2-0.2
		C119.1,240.8,119.2,240.8,119.4,240.8L119.4,240.8z"/>
	<path class="st123" d="M125.1,240.7c0.2,0.2,0.1,0.3-0.1,0.5c-0.1,0.1-0.4,0.2-0.3,0.4c0,0,0,0.1-0.1,0.1c-0.1,0-0.3,0-0.4,0
		c-0.1,0-0.2-0.1-0.2-0.2c-0.2-0.5-0.6-0.4-1-0.4c-0.5,0-0.9,0-1.4-0.1c0.2-0.2,0.5-0.3,0.8-0.4c0.3-0.1,0.5-0.1,0.8,0
		c0.2,0.1,0.4,0,0.6-0.1c0.3-0.1,0.6,0,0.9-0.2c0.1,0,0.1,0.1,0.2,0.1C124.9,240.6,125,240.7,125.1,240.7L125.1,240.7z"/>
	<path class="st124" d="M121.6,241c0.5-0.1,1.1,0.1,1.6,0c0.2,0,0.5,0.1,0.7,0.2c0.2,0.1,0.1,0.4,0.3,0.5c0,0.1-0.1,0.1-0.2,0.1
		c-0.1,0-0.3,0.1-0.4,0.1c-0.1,0-0.3,0-0.4,0c-0.1,0-0.3,0-0.4,0c-0.1-0.1-0.1-0.2-0.2-0.3c-0.1-0.2-0.2-0.3-0.4-0.2
		c-0.2,0.1-0.5-0.1-0.7-0.1c-0.1,0-0.1-0.1-0.1-0.2L121.6,241L121.6,241z"/>
	<path class="st125" d="M121.4,241c0.2,0.2,0.5,0.3,0.7,0.2c0.3,0,0.4,0.1,0.5,0.3c-0.2,0.2-0.5,0.1-0.7,0c-0.4-0.1-0.7-0.2-1.1-0.1
		c-0.9,0-1.7-0.1-2.6-0.2c-0.2,0-0.4,0.1-0.4-0.2c0.1-0.1,0.2-0.1,0.3,0l0,0c0.2,0.1,0.3,0,0.5,0c0.1,0,0.2,0,0.3,0
		c0.2-0.1,0.3-0.1,0.5-0.1c0.1,0.1,0.2,0.1,0.4,0.1C120.3,241,120.8,241,121.4,241L121.4,241z"/>
	<path class="st126" d="M124.7,241.6C124.7,241.6,124.7,241.6,124.7,241.6c0.2,0,0.3,0,0.4,0c-0.2,0.6,0,1.1,0.2,1.6
		c0.1,0.2,0.1,0.3,0.4,0.2c0.1,0,0.2,0,0.2,0c0.3,0.3,0.6,0.2,1,0.2c0.1,0,0.2,0,0.3,0.1c0,0.1,0,0.2-0.1,0.2
		c-0.4,0.2-0.7,0.5-1.2,0.6c-0.1,0-0.1,0-0.1,0c-0.2-0.2-0.5-0.3-0.7-0.5c-0.1-0.1-0.2-0.2-0.3-0.2c-0.3-0.2-0.7-0.2-1-0.3
		c-0.3-0.1-0.5-0.4-0.6-0.8c-0.1-0.3,0.1-0.5,0.4-0.7c0.2-0.1,0.4-0.3,0.6-0.4C124.4,241.6,124.5,241.7,124.7,241.6L124.7,241.6z"/>
	<path class="st127" d="M125.8,244.5c0.5-0.1,0.9-0.4,1.3-0.7c0.3-0.1,0.5-0.2,0.8-0.3c0.3,0.1,0.4,0.2,0.3,0.6
		c-0.2,0.3-0.6,0.5-1,0.5c-0.1,0-0.2,0-0.3,0.1c-0.4,0.4-0.9,0.6-1.4,0.7c-0.4,0.1-0.6-0.1-0.6-0.5c0.2-0.3,0.4-0.2,0.7-0.3
		C125.7,244.5,125.8,244.5,125.8,244.5L125.8,244.5z"/>
	<path class="st128" d="M128.1,244c0-0.3-0.2-0.4-0.3-0.6c0,0,0.1-0.1,0.1-0.1c0.3-0.1,0.5-0.3,0.8-0.4c0.2,0.2,0.3,0.4,0.5,0.5
		c0.3,0.2,0.1,0.5,0,0.8C128.8,244.6,128.3,244.5,128.1,244L128.1,244z"/>
	<path class="st129" d="M129.2,244.2c0-0.1,0-0.2,0-0.3c0.1-0.4,0.1-0.4-0.3-0.5c-0.3-0.1-0.1-0.3-0.2-0.5c0.2-0.1,0.3-0.2,0.5-0.3
		c0.2,0,0.3-0.1,0.5-0.1c0.2,0.1,0.4,0.2,0.3,0.5c0.2,0.3,0.3,0.6,0.3,0.9c-0.1,0.4-0.7,0.6-1.1,0.6
		C129.1,244.4,129.1,244.3,129.2,244.2L129.2,244.2z"/>
	<path class="st130" d="M130.1,243c-0.1-0.2-0.3-0.2-0.3-0.4c-0.1-0.1-0.1-0.2,0-0.3c0,0,0,0,0.1-0.1c0.2,0.1,0.3,0,0.4-0.1
		c0.1-0.1,0.2-0.1,0.3-0.2c0.1-0.1,0.2-0.2,0.2-0.3c0,0,0.1-0.1,0.1-0.1c0.1,0,0.2,0,0.3,0c-0.1,0.2-0.3,0.4-0.1,0.6
		c-0.1,0.2-0.2,0.5-0.3,0.7c-0.1,0.1-0.1,0.3,0,0.4C130.4,243.1,130.3,243.1,130.1,243L130.1,243z"/>
	<path class="st131" d="M130.2,241.3c0,0.2,0,0.3-0.2,0.5c-0.1,0-0.2,0.1-0.4,0.1c-0.2,0-0.3,0-0.4-0.2c-0.1-0.2,0.1-0.3,0.2-0.4
		C129.7,241.1,129.9,241.3,130.2,241.3L130.2,241.3z"/>
	<path class="st132" d="M129.7,242.2c0,0.1,0,0.2,0,0.3c-0.2,0-0.3,0.1-0.5,0C129.4,242.5,129.5,242.4,129.7,242.2L129.7,242.2z"/>
	<path class="st133" d="M128.8,246.2c-0.3,0.2-0.6,0.5-0.9,0.7c-0.5-0.4-1.3-0.2-1.5,0.4c-0.1,0.3-0.1,0.4,0.2,0.4
		c0.1,0,0.2,0,0.2,0.1c0,0.1-0.1,0.2-0.2,0.2c-0.1,0-0.3,0.1-0.4,0.1c-0.4-0.1-0.6-0.4-0.4-0.8c0.2-0.6,0.7-0.9,1.3-1.1
		c0.4-0.1,0.6-0.4,1-0.6c0.2,0,0.5-0.1,0.7-0.1c0.1,0,0.3,0,0.3,0.2C129,245.9,128.9,246.1,128.8,246.2L128.8,246.2z"/>
	<path class="st134" d="M129.1,245.8c-0.3-0.2-0.7-0.1-1-0.1c0,0-0.1,0-0.1,0c0-0.2,0.1-0.3,0.3-0.3c0.3-0.1,0.5-0.3,0.6-0.6
		c0.1-0.1,0.2-0.4,0.5-0.3c0.4-0.1,0.8-0.3,1.1-0.5c0.1,0,0.2,0,0.3,0.1C130.1,244.6,129.6,245.2,129.1,245.8L129.1,245.8z"/>
	<path class="st135" d="M118.1,241c-0.1,0-0.2,0-0.3,0.1c-0.2,0.3-0.5,0.1-0.8,0.1c-0.1-0.1-0.4-0.1-0.3-0.4c0,0,0-0.1,0-0.1
		c0.1,0,0.2,0.1,0.4,0.1c0.1,0,0.2,0.1,0.2,0.1C117.7,240.6,117.8,240.9,118.1,241L118.1,241z"/>
	<path class="st85" d="M118.8,241c-0.1,0-0.2,0-0.3,0c0,0,0,0,0-0.1c0.2-0.2,0.5-0.2,0.8-0.2c-0.1,0.1-0.2,0.1-0.3,0.1
		C118.9,240.9,118.8,240.9,118.8,241z"/>
	<path class="st135" d="M118.5,241C118.5,241,118.5,241,118.5,241c-0.2,0.1-0.3,0.1-0.4,0C118.2,241,118.4,241,118.5,241z"/>
	<path class="st136" d="M113.1,240.6c0.3,0,0.7,0,1,0l0,0c0,0,0,0.1,0.1,0.1c0,0.3-0.2,0.5-0.3,0.7c-0.2,0-0.2,0.2-0.3,0.3
		c-0.2,0.1-0.3,0.1-0.5,0c-0.1,0-0.1-0.1-0.1-0.1c0.2-0.2,0.4-0.2,0.5-0.4c0-0.1-0.1-0.1-0.1-0.1c-0.2,0-0.3,0-0.3-0.2
		C113.2,240.8,113.2,240.7,113.1,240.6L113.1,240.6z"/>
	<path class="st137" d="M111.3,240.7c0.1,0,0.3,0.1,0.4-0.1c0.1,0.3,0.5,0.4,0.8,0.5c0.1,0.1,0.3,0.1,0.2,0.3c0,0.2-0.2,0.1-0.3,0.1
		c-0.3-0.2-0.7-0.2-1-0.4C111.3,240.9,111.3,240.8,111.3,240.7L111.3,240.7z"/>
	<path class="st138" d="M111.3,241c0.4,0,0.7,0,1,0.4c0,0,0,0-0.1,0.1c0,0-0.1,0-0.1,0c-0.2-0.2-0.4-0.1-0.5-0.2
		c-0.1,0-0.2-0.1-0.3-0.1C111.3,241.2,111.3,241.2,111.3,241C111.3,241.1,111.3,241.1,111.3,241L111.3,241z"/>
	<path class="st139" d="M113.1,241.6C113.1,241.6,113.1,241.6,113.1,241.6c0.1,0.1,0,0.1,0,0.1c-0.2,0.1-0.5,0.1-0.8,0.1
		c0,0-0.1,0-0.1,0c-0.1-0.1,0-0.1,0.1-0.2C112.6,241.5,112.9,241.6,113.1,241.6L113.1,241.6z"/>
	<path class="st140" d="M112.4,241.5c0,0-0.1,0.1-0.1,0.1c-0.1,0.1-0.2,0.1-0.4,0.1c-0.2-0.2,0-0.2,0.1-0.3c0,0,0.1,0,0.1,0
		c0,0,0,0,0,0c0,0,0.1,0,0.1,0C112.3,241.6,112.3,241.5,112.4,241.5L112.4,241.5z"/>
	<path class="st141" d="M114.2,240.7C114.2,240.7,114.2,240.6,114.2,240.7c0.8-0.1,1.5-0.2,2.3,0.1c0.1,0,0.2,0,0.3,0
		c0,0.2,0.2,0.2,0.3,0.3c-0.1,0.2-0.3,0.1-0.5,0.2c-0.5-0.1-0.9-0.2-1.4-0.2c-0.2,0-0.4,0-0.6-0.1
		C114.5,240.8,114.3,240.8,114.2,240.7L114.2,240.7z"/>
	<path class="st142" d="M111.1,239.9c-0.1,0-0.1,0-0.2,0.1l0,0c-0.1,0.1-0.2,0.1-0.3,0C110.7,239.7,110.9,239.9,111.1,239.9
		C111.1,239.8,111.1,239.9,111.1,239.9L111.1,239.9z"/>
	<path class="st98" d="M110.5,239.9c0.1,0,0.2,0,0.3,0C110.8,240,110.6,240,110.5,239.9C110.4,240,110.4,240,110.5,239.9
		L110.5,239.9C110.5,239.9,110.5,239.9,110.5,239.9L110.5,239.9z"/>
	<path class="st143" d="M110.5,240C110.5,240,110.5,240,110.5,240c-0.2,0-0.4,0.1-0.6,0C110.1,240,110.3,240,110.5,240L110.5,240z"
		/>
	<path class="st144" d="M109.6,240.2c0-0.1,0.2-0.1,0.3-0.1c0.1,0.2,0.3,0.1,0.4,0.1c0.1,0,0.2,0,0.2,0.1c0,0.1,0,0.2-0.1,0.2
		c-0.1,0.1-0.2,0.2-0.4,0.3C109.7,240.7,109.5,240.5,109.6,240.2L109.6,240.2z"/>
	<path class="st145" d="M109.6,240.2c0,0.3,0.2,0.4,0.4,0.5c0,0.1,0.1,0.2,0.1,0.2c0.2,0.1,0.3,0.3,0.4,0.5c0,0,0,0.1,0,0.1
		c-0.1,0-0.1,0-0.2,0c-0.2-0.2-0.3-0.5-0.6-0.6c-0.1-0.1-0.2-0.3-0.2-0.5c-0.1-0.1-0.1-0.1-0.1-0.2
		C109.5,240.2,109.5,240.2,109.6,240.2L109.6,240.2z"/>
	<path class="st146" d="M111.3,241.1C111.3,241.1,111.3,241.1,111.3,241.1c0.1,0.1,0.3,0.1,0.2,0.2c-0.1,0.1-0.2,0-0.4,0
		c-0.1,0-0.3,0-0.3,0.2c0,0-0.1,0.1-0.1,0.1c-0.1,0-0.2-0.1-0.2-0.2c0-0.1,0-0.2,0-0.3c0.2-0.1,0.3-0.1,0.5-0.1c0,0,0.1,0,0.1,0
		C111.2,241.1,111.2,241.1,111.3,241.1L111.3,241.1z"/>
	<path class="st147" d="M110.2,240.7c0.3-0.1,0.7,0.1,0.8,0.3c-0.1,0.1-0.2,0-0.3,0c0,0-0.1,0-0.1,0c-0.1,0-0.2-0.1-0.3-0.1
		C110.4,240.8,110.3,240.8,110.2,240.7L110.2,240.7z"/>
	<path class="st148" d="M110.4,241.4c-0.1-0.2-0.3-0.3-0.3-0.5c0,0,0-0.1,0.1-0.1c0.1,0,0.1,0.1,0.2,0.1c0,0,0,0,0.1,0.1
		C110.5,241,110.5,241.2,110.4,241.4C110.5,241.4,110.5,241.4,110.4,241.4L110.4,241.4z"/>
	<path class="st149" d="M111.2,241.1C111.2,241.1,111.1,241.1,111.2,241.1c-0.2,0.1-0.4,0-0.6,0c0,0-0.1,0-0.1,0c0,0,0-0.1,0-0.1
		c0-0.1,0-0.1,0.1-0.1c0.1,0,0.1,0,0.2,0l0,0C110.9,241,111,241,111.2,241.1C111.1,241.1,111.1,241.1,111.2,241.1L111.2,241.1z"/>
	<path class="st150" d="M110.3,240.9c-0.1-0.1-0.1-0.1-0.1-0.2c0,0,0,0,0.1-0.1c0.1,0,0.2,0,0.3,0.1c0,0,0,0,0,0.1
		C110.5,240.9,110.3,240.8,110.3,240.9L110.3,240.9z"/>
	<path class="st151" d="M111.1,241c-0.1,0-0.2,0-0.3-0.1C110.9,240.9,111,240.9,111.1,241C111.1,241,111.1,241,111.1,241L111.1,241z
		"/>
	<path class="st152" d="M112.7,243.7c0,0-0.1,0-0.1,0c-0.3-0.1-0.5-0.2-0.8-0.3c-0.3-0.1-0.3-0.2-0.2-0.5c0.1-0.2,0.1-0.4,0.2-0.6
		c0.1-0.1,0.2,0,0.3,0c0.1,0,0.1,0.1,0.2,0.2c0.1,0.2,0.3,0.3,0.6,0.3c0.1,0,0.1,0,0.1,0.1c0,0,0.1,0.1,0.1,0.1
		C113.1,243.5,113,243.6,112.7,243.7L112.7,243.7z"/>
	<path class="st153" d="M112.1,242.4c-0.1,0-0.2,0-0.3-0.1c-0.1-0.1-0.2-0.1-0.3-0.2c0,0,0,0,0-0.1c0.1-0.1,0.2,0,0.3,0
		C111.9,242.1,112,242.2,112.1,242.4C112.1,242.4,112.1,242.4,112.1,242.4L112.1,242.4z"/>
	<path class="st154" d="M111.2,242c0,0.4-0.2,0.6-0.6,0.5l0,0c-0.1-0.2,0.1-0.2,0.2-0.3c0.1-0.1,0.2-0.2,0.3-0.2
		C111.2,241.9,111.2,241.9,111.2,242L111.2,242z"/>
	<path class="st155" d="M111.2,242c0,0-0.1,0-0.1-0.1c0,0,0,0,0-0.1c0,0,0-0.1,0-0.1c0,0,0.1,0,0.1,0c0,0,0.1,0,0.1,0
		c0.1,0,0.1,0.1,0.1,0.2c0,0,0,0.1,0,0.1C111.3,242,111.3,242,111.2,242L111.2,242z"/>
	<path class="st156" d="M111.7,242.2c-0.1,0-0.2,0-0.3-0.1c0,0,0-0.1-0.1-0.1l0,0c0,0,0.1-0.1,0.1,0
		C111.6,242,111.7,242,111.7,242.2C111.7,242.1,111.7,242.2,111.7,242.2L111.7,242.2z"/>
	<path class="st157" d="M110.2,242.3C110.2,242.3,110.1,242.2,110.2,242.3c-0.1-0.1-0.1-0.1-0.1-0.1c0-0.2-0.2-0.3,0-0.5
		c0.1,0,0.2,0,0.3,0.1c0.1,0.2,0.1,0.3,0,0.4c0,0-0.1,0-0.1,0C110.2,242.3,110.2,242.3,110.2,242.3L110.2,242.3z"/>
	<path class="st158" d="M110.3,242.2C110.3,242.2,110.3,242.2,110.3,242.2c0.2-0.2,0.4-0.2,0.6,0c0,0.1-0.2,0.2-0.3,0.3
		C110.4,242.5,110.4,242.3,110.3,242.2L110.3,242.2z"/>
	<path class="st159" d="M109.1,241c0,0,0.1,0,0.1-0.1c0,0,0,0,0.1,0.1l0,0c0.1,0.1,0.3,0.1,0.3,0.3c0,0-0.1,0-0.1,0
		c-0.1,0-0.2-0.2-0.3-0.2C109.1,241.1,109.1,241,109.1,241L109.1,241z"/>
	<path class="st160" d="M109.5,241.3c0,0,0.1,0,0.1,0c0.1,0,0.1,0,0.2,0.1c0,0.1,0,0.2-0.1,0.3c0,0,0,0-0.1,0
		C109.7,241.5,109.5,241.4,109.5,241.3L109.5,241.3z"/>
	<path class="st161" d="M110.1,241.7c0.1,0.1,0.1,0.3,0,0.4c-0.1-0.1-0.2-0.2-0.3-0.3c0-0.1-0.1-0.3,0-0.4c0,0,0.1,0,0.1,0
		C110.1,241.5,110.2,241.6,110.1,241.7L110.1,241.7z"/>
	<path class="st162" d="M109.8,241.5c0,0.1,0.1,0.2,0,0.4c0-0.1-0.1-0.1-0.1-0.2C109.7,241.6,109.7,241.5,109.8,241.5
		C109.7,241.4,109.8,241.4,109.8,241.5C109.8,241.4,109.8,241.4,109.8,241.5L109.8,241.5z"/>
	<path class="st163" d="M109.5,240.4c0.1,0.4,0.5,0.4,0.7,0.8c0,0.1,0.1,0.2,0.2,0.3c0,0,0,0-0.1,0c-0.2,0-0.3-0.2-0.5-0.2
		c0,0-0.1,0-0.1,0c-0.1,0-0.1,0-0.1-0.1C109.5,240.9,109.5,240.6,109.5,240.4L109.5,240.4z"/>
	<path class="st108" d="M109.6,241.1c0,0,0.1,0,0.1,0.1c0.1,0.1,0.1,0.1,0,0.2l0,0c0,0-0.1,0-0.1-0.1c-0.1-0.1-0.3-0.2-0.3-0.3
		C109.4,241.1,109.5,241.1,109.6,241.1L109.6,241.1z"/>
	<path class="st164" d="M118.4,247.4c-0.3-0.1-0.6,0-0.8,0.3c0,0.1-0.1,0.1-0.2,0.2c-0.5,0-0.6,0.5-0.9,0.6
		c-0.3-0.1-0.6-0.3-0.8-0.5c0.1-0.4-0.2-0.7-0.1-1.1c0-0.2,0-0.4,0-0.6c0.1-0.3,0-0.5-0.3-0.6c0-0.1,0-0.2,0.1-0.2
		c0.3,0,0.7-0.2,1-0.1c0.2,0.1,0.3,0,0.3-0.2c0-0.1,0-0.2,0.1-0.3c0.2-0.1,0.4,0,0.6,0.1c0.1,0.1,0.1,0.3,0.1,0.5
		c-0.1,0.2-0.2,0.5-0.2,0.7c0,0.1-0.1,0.2-0.3,0.1c0.3,0.1,0.5,0.2,0.7,0.3c0.1,0.1,0.1,0.3,0.3,0.3c0.1,0,0.1,0.1,0.2,0.1
		C118.4,247.2,118.4,247.3,118.4,247.4C118.5,247.4,118.4,247.4,118.4,247.4L118.4,247.4z"/>
	<path class="st165" d="M116.9,245.1c-0.1,0.1-0.1,0.1,0,0.2c0.1,0.1,0.1,0.2,0,0.3c-0.1,0.1-0.2,0.1-0.4,0.1
		c-0.4-0.2-0.8,0.1-1.2,0.1c-0.2-0.1-0.3-0.3-0.4-0.5c-0.2-0.2-0.5-0.3-0.8-0.3c0.1-0.1,0.2-0.2,0.3-0.3c0-0.1,0.1-0.1,0.2-0.1
		c0.3,0,0.5,0.3,0.7,0.5c0.3,0.3,0.5,0.3,0.8,0c0.1-0.1,0.2-0.2,0.3-0.3C116.6,244.8,116.8,244.8,116.9,245.1L116.9,245.1z"/>
	<path class="st166" d="M121.8,249.1c-0.1,0-0.2,0-0.3,0c-0.2,0-0.4,0-0.6,0c0.2-0.5,0.1-0.9-0.2-1.3c0.1-0.1,0.2-0.1,0.3,0
		c0.1,0,0.2,0.1,0.2,0.1c0.2,0,0.3,0.2,0.4,0.4C121.7,248.6,121.8,248.8,121.8,249.1L121.8,249.1z"/>
	<path class="st167" d="M122.6,247.7c-0.3,0-0.7,0.1-1,0.1c-0.2-0.3-0.2-0.6,0-0.9c0.2-0.1,0.4-0.1,0.6-0.1
		C122.7,246.8,122.8,247.2,122.6,247.7L122.6,247.7z"/>
	<path class="st168" d="M121.6,246.9c0,0.3,0,0.6,0,0.9c-0.1,0-0.2,0-0.3,0c-0.2,0-0.3,0-0.5,0c-0.1-0.1-0.1-0.2-0.2-0.3
		c-0.2-0.2-0.2-0.4,0-0.6c0.1-0.1,0.3,0,0.4,0c0.1,0,0.2,0,0.4,0C121.5,246.8,121.5,246.8,121.6,246.9
		C121.6,246.8,121.6,246.8,121.6,246.9L121.6,246.9z"/>
	<path class="st169" d="M122.6,247.7c0-0.2-0.1-0.4-0.1-0.7c0-0.2-0.2-0.1-0.3-0.2c0.1-0.1,0.2-0.1,0.3-0.2c0.2,0,0.3,0,0.5,0.1
		c0.1,0,0.2,0.1,0.3,0.2c0.4,0.3,0.4,0.5,0.1,0.8C123.1,247.7,122.8,247.7,122.6,247.7L122.6,247.7z"/>
	<path class="st170" d="M123.3,247.7c0.2-0.4,0-0.7-0.3-0.9c0.1-0.2,0.3-0.1,0.5-0.1c0.7,0.1,0.7,0.2,0.3,0.8c0,0,0,0.1,0,0.1
		c-0.1,0.1-0.2,0.2-0.3,0.1C123.4,247.7,123.4,247.7,123.3,247.7C123.3,247.7,123.3,247.7,123.3,247.7L123.3,247.7z"/>
	<path class="st171" d="M125.2,247.6c-0.2,0-0.3,0-0.4,0.1c0,0,0-0.1-0.1-0.1c0-0.1,0-0.1,0.1-0.1c0.2,0,0.3-0.1,0.2-0.3
		c0-0.1,0-0.2,0.1-0.3c0.4,0.1,0.6,0.4,0.4,0.7C125.4,247.7,125.3,247.7,125.2,247.6z"/>
	<path class="st172" d="M124.8,247.5c0,0-0.1,0-0.1,0.1c-0.4,0.2-0.9,0.3-1.3,0.1l0,0c0.2-0.1,0.5-0.1,0.8-0.1
		c0.1,0,0.1-0.1,0.1-0.1c0.1,0,0.1-0.1,0.2-0.1c0.1,0,0.1,0,0.1,0C124.7,247.4,124.8,247.4,124.8,247.5L124.8,247.5z"/>
	<path class="st173" d="M120.8,247.7c0.2,0,0.4-0.1,0.5,0.1c0,0.1-0.1,0.1-0.2,0.1c-0.2-0.1-0.4,0-0.6,0c-0.1,0-0.2,0-0.3,0
		C120.4,247.5,120.6,247.5,120.8,247.7L120.8,247.7z"/>
	<path class="st174" d="M120.2,247.8c0.3,0.1,0.6-0.1,0.9,0.1c0,0-0.1,0-0.1,0c-0.1,0-0.2,0-0.3,0c-0.1,0-0.3,0-0.4,0
		c-0.1,0-0.2,0-0.3,0C120.1,247.8,120.1,247.7,120.2,247.8L120.2,247.8z"/>
	<path class="st175" d="M120.2,247.8c-0.1,0-0.1,0-0.1,0.1c-0.2-0.1-0.3,0-0.5-0.1c-0.1-0.1-0.2,0-0.3-0.1c-0.1-0.1-0.3-0.1-0.4-0.3
		c0-0.1,0-0.3,0.1-0.3c0.1,0,0.2-0.2,0.3-0.2c0.4-0.2,0.8-0.1,1.3-0.1c0,0,0,0,0,0c-0.1,0.2-0.1,0.4,0.1,0.5c0.1,0.1,0.1,0.2,0,0.3
		C120.6,247.7,120.4,247.7,120.2,247.8L120.2,247.8z"/>
	<path class="st176" d="M119,247.5c0.1,0,0.3,0.1,0.3,0.2c0,0-0.1,0-0.1,0c-0.1-0.1-0.2,0-0.2,0C118.9,247.6,118.9,247.6,119,247.5
		C119,247.5,119,247.5,119,247.5L119,247.5z"/>
	<path class="st177" d="M119,247.7c0.1,0,0.2,0,0.2,0.1c-0.2,0-0.4,0.2-0.5-0.1c0,0,0,0,0,0c0,0,0,0,0.1,0
		C118.8,247.6,118.9,247.6,119,247.7C118.9,247.6,118.9,247.6,119,247.7L119,247.7z"/>
	<path class="st178" d="M118.6,247.6c0,0-0.1-0.1-0.1-0.1l0,0c0.1-0.1,0.2-0.1,0.3,0c0.1,0.1,0.1,0.1,0,0.2l0,0
		C118.7,247.6,118.6,247.6,118.6,247.6L118.6,247.6z"/>
	<path class="st179" d="M112.7,243.7c0.2-0.2,0.3-0.4,0.2-0.7c0.1-0.1,0.2,0,0.3,0.1c0.1,0.3,0.4,0.4,0.7,0.6
		c0.1,0.2,0.1,0.3,0.1,0.5c0,0.2-0.2,0.3-0.3,0.3c-0.1,0-0.3,0-0.4,0C112.8,244.4,112.7,244.3,112.7,243.7L112.7,243.7z"/>
	<path class="st180" d="M113.6,244.5c0.4-0.2,0.2-0.5,0.2-0.8c0-0.1,0.1-0.1,0.1-0.1c0.2,0,0.4,0.2,0.5,0.3c0.1,0.3,0.4,0.5,0.1,0.8
		l-0.2,0C114.1,244.7,113.9,244.6,113.6,244.5L113.6,244.5z"/>
	<path class="st181" d="M125.2,248.7c0-0.2,0.1-0.3,0.2-0.5c0.2-0.2,0.4-0.1,0.6,0.1c0,0.2-0.2,0.1-0.3,0.2l0,0
		c-0.1,0.1-0.2,0.2-0.3,0.2C125.4,248.6,125.3,248.6,125.2,248.7L125.2,248.7z"/>
	<path class="st182" d="M126,248.3c-0.2-0.1-0.4-0.1-0.6-0.1c-0.4,0-0.4-0.1-0.3-0.5c0.1,0,0.2,0,0.3-0.1c0,0,0.1,0,0.1,0
		c0.1,0.1,0.2,0.2,0.3,0.4c0.1,0.1,0.2,0.2,0.4,0.2c0,0,0,0.1,0,0.1C126.2,248.3,126.2,248.3,126,248.3
		C126.1,248.3,126,248.3,126,248.3L126,248.3z"/>
	<path class="st183" d="M124.7,241.6c-0.2,0.1-0.3,0-0.5,0.1c-0.1,0-0.1,0.1-0.2,0c0,0,0,0,0-0.1c0,0,0,0,0,0c0.1,0,0.2,0,0.3,0
		C124.4,241.6,124.5,241.6,124.7,241.6z"/>
	<path class="st184" d="M125.1,244c0.2,0.2,0.5,0.2,0.6,0.5c-0.4,0.1-0.8,0.3-1.3,0.2c0,0-0.1,0-0.1,0c-0.7,0.2-1.1-0.2-1.5-0.7
		c-0.1-0.2-0.3-0.3-0.5-0.4c0,0-0.1,0-0.1-0.1c-0.2-0.4-0.6-0.5-1-0.7c0,0,0,0-0.1-0.1c-0.4-0.5-0.4-0.8,0.2-1c0.1,0,0.1,0,0.2,0
		c0.4-0.1,0.8-0.2,1.1,0c0.1,0,0.3,0,0.4,0c0.2,0.2,0.1,0.3-0.1,0.4c-0.3,0.3-0.3,0.4,0,0.7c0.2,0.2,0.3,0.4,0.2,0.7
		c-0.1,0.2,0.1,0.1,0.2,0.1c0.4,0.1,0.9,0.1,1.3,0.1C124.9,243.8,125,243.8,125.1,244L125.1,244z"/>
	<path class="st185" d="M125.1,244c-0.6-0.1-1.3-0.1-1.9-0.1c-0.1,0-0.1,0-0.2,0c-0.1-0.1,0-0.2,0-0.2c0.2-0.2,0.1-0.4-0.1-0.6
		c-0.5-0.5-0.4-0.6,0.1-1c0.1-0.1,0.1-0.2,0.1-0.3c0.1,0,0.3,0,0.4,0c0.1,0,0.3,0,0.4,0c0.1,0,0.1,0,0.2,0c-0.1,0.2-0.3,0.3-0.5,0.4
		c-0.4,0.2-0.5,0.4-0.3,0.8c0.2,0.4,0.4,0.5,0.8,0.4c0,0,0,0,0.1,0C124.4,243.4,125,243.7,125.1,244L125.1,244z"/>
	<path class="st186" d="M122.7,241.7c-0.4,0-0.8,0-1.2,0.1c-0.1-0.1-0.2-0.2-0.3-0.2c-0.1-0.1-0.2-0.1-0.3-0.2c-0.1,0-0.2,0-0.1-0.2
		c0.6-0.1,1.2,0.2,1.8,0.2C122.7,241.5,122.7,241.6,122.7,241.7L122.7,241.7z"/>
	<path class="st187" d="M124,241.7c-0.1,0-0.3,0-0.4,0C123.7,241.6,123.8,241.7,124,241.7C124,241.7,124,241.7,124,241.7L124,241.7z
		"/>
	<path class="st188" d="M120.9,241.3c0.2,0.1,0.4,0.1,0.5,0.2c0,0.1-0.1,0.1-0.1,0.1c-0.5,0-1,0.1-1.5,0c-0.3-0.3-0.6-0.2-1-0.2
		c-0.2-0.1-0.5,0.1-0.5-0.3c0.5,0,1,0.1,1.5,0.1C120.1,241.2,120.4,241.3,120.9,241.3L120.9,241.3z"/>
	<path class="st189" d="M118.2,241.1c0.1,0.2,0.4,0.1,0.5,0.2c-0.1,0.1-0.2,0.1-0.3,0.1c-0.4,0-0.9,0-1.3,0.1c-0.2,0-0.3,0-0.4-0.2
		c-0.1-0.1-0.1-0.1-0.1-0.2c0.1-0.1,0.3-0.1,0.4-0.1c0.3,0,0.5,0.1,0.8,0.1C117.9,241.2,118.1,241.1,118.2,241.1L118.2,241.1z"/>
	<path class="st190" d="M121.3,242.7c0.2,0.1,0.3,0.2,0.5,0.1c0.1-0.1,0.2,0.1,0.2,0.2c0,0.2,0.1,0.3,0.3,0.4
		c0.4,0.1,0.6,0.5,0.8,0.7c0.3,0.3,0.6,0.4,1,0.4c0.5,0,1-0.1,1.5-0.1c0,0,0.1,0,0.1,0c-0.2,0.2-0.6,0.2-0.8,0.3
		c-0.1,0.1-0.1,0.2-0.3,0.2c-0.8,0.2-1.7,0.5-2.6,0.5c-0.1,0-0.2,0-0.3,0c0-0.3-0.2-0.5-0.3-0.7c-0.1-0.3-0.1-0.6-0.1-0.9
		c0-0.2,0.1-0.4,0.2-0.5c0,0,0,0,0,0c0,0,0,0,0,0c-0.3,0-0.6,0.1-0.8-0.3C120.9,242.7,121,242.6,121.3,242.7L121.3,242.7z"/>
	<path class="st191" d="M121.8,245.5c0.8,0,1.6-0.2,2.4-0.4c0.3-0.1,0.5-0.2,0.8-0.2c0.2,0.5,0.2,0.4,0.7,0.3c0.4-0.1,0.7-0.3,1-0.5
		c0.1,0,0.1-0.1,0.2-0.1c0.1-0.2,0.2-0.3,0.5-0.2c0.1,0.1,0.3,0,0.4-0.1c0.2-0.1,0.3-0.2,0.5-0.3c0.3,0.4,0.7,0.3,1,0.2
		c0,0.1,0,0.2,0.1,0.3c-0.1,0.1-0.3,0.2-0.4,0.3c-0.6-0.4-1.1-0.1-1.6,0.2c-0.4,0.2-0.8,0.3-1.2,0.4c-0.2,0-0.3,0.1-0.5,0.2
		c-0.1,0.1-0.2,0.1-0.3,0.1c-0.2,0.1-0.3,0.2-0.2,0.4c0,0.1,0,0.3-0.1,0.4c-0.1,0-0.1,0-0.2,0c-0.4-0.3-0.7-0.1-1,0.1
		c-0.1,0.1-0.1,0.2-0.3,0.2c-0.1,0-0.2,0-0.2,0c-0.3,0-0.4-0.2-0.5-0.5c-0.1-0.5-0.9-0.6-1.2-0.4c-0.1,0-0.1,0.1-0.2,0.1
		c-0.4,0-0.4-0.1-0.4-0.4c0.1-0.1,0.2-0.1,0.2-0.1C121.5,245.5,121.6,245.4,121.8,245.5C121.8,245.5,121.8,245.5,121.8,245.5
		L121.8,245.5z"/>
	<path class="st192" d="M126.8,247.9c-0.2,0-0.5,0.1-0.6-0.2c-0.1-0.3,0-0.5,0.2-0.7c0.2-0.3,1-0.6,1.3-0.5c0.2,0.1,0.2,0.2,0.3,0.4
		c-0.2,0.3-0.6,0.5-0.8,0.8C127,247.8,126.9,247.9,126.8,247.9L126.8,247.9z"/>
	<path class="st193" d="M126.1,248.3c-0.1,0.1-0.2,0.1-0.3,0.1c0,0,0,0-0.1,0C125.8,248.3,125.9,248.3,126.1,248.3
		C126.1,248.2,126.1,248.3,126.1,248.3L126.1,248.3z"/>
	<path class="st194" d="M126.2,248.1c-0.4,0-0.7-0.3-0.7-0.6c0-0.4,0.2-0.8,0.3-1.1c0.1-0.4,0.9-0.8,1.4-0.7c0.2,0.2,0.5-0.2,0.7,0
		c0,0,0,0,0.1,0c-0.4,0.5-1,0.7-1.6,0.9c-0.2,0.1-0.3,0.2-0.4,0.4c0,0.1-0.1,0.2-0.1,0.3C125.7,247.6,125.8,248,126.2,248.1
		C126.2,248.1,126.2,248.1,126.2,248.1C126.2,248.1,126.2,248.1,126.2,248.1L126.2,248.1z"/>
	<path class="st195" d="M126.2,248.1C126.2,248.1,126.2,248.1,126.2,248.1c0.1-0.1,0.3-0.1,0.4-0.1c-0.1,0-0.1,0.1-0.2,0.1
		C126.3,248.2,126.3,248.2,126.2,248.1C126.2,248.2,126.2,248.1,126.2,248.1z"/>
	<path class="st196" d="M128,245.7c-0.1,0-0.3,0.1-0.4,0.2c-0.1,0.1-0.2,0-0.3-0.1c-0.4-0.2-0.7-0.4-1.2-0.1
		c-0.1,0.1-0.3,0.1-0.4-0.1c0.1-0.1,0.2-0.2,0.3-0.2c0.6-0.1,1.1-0.4,1.6-0.7c0.3-0.2,0.7-0.2,1-0.2c0.2,0,0.2,0.2,0.3,0.3
		c0,0.4-0.3,0.5-0.6,0.7C128.2,245.6,128.1,245.6,128,245.7L128,245.7z"/>
	<path class="st197" d="M113.2,241.6c0.2,0,0.3,0,0.5,0c0,0,0.1-0.1,0.1-0.1c0.1,0,0.2,0,0.3,0.1c0,0.1,0,0.2-0.1,0.3
		c-0.1,0-0.3,0.1-0.2,0.3c0,0.2-0.1,0.4,0,0.6c0,0.1,0,0.1-0.1,0.2c-0.1,0.1-0.2,0.1-0.3,0c-0.2-0.1-0.4-0.4-0.7-0.3
		c0,0-0.1,0-0.1,0c-0.1-0.1-0.1-0.2-0.1-0.3c-0.1-0.3,0.1-0.6,0.4-0.6C113.1,241.8,113.1,241.7,113.2,241.6L113.2,241.6L113.2,241.6
		z"/>
	<path class="st198" d="M114.2,240.7c0.2,0,0.3-0.1,0.5,0.1c0,0.3-0.1,0.5-0.4,0.7c-0.1,0.1-0.2,0.1-0.3,0c0,0,0,0,0,0
		C113.9,241.1,114.1,240.9,114.2,240.7L114.2,240.7z"/>
	<path class="st198" d="M113.8,241.6c0,0-0.1,0-0.1,0c0-0.2,0.1-0.3,0.3-0.3l0,0C114,241.5,114,241.6,113.8,241.6L113.8,241.6z"/>
	<path class="st199" d="M111.6,241.2c0.2,0.1,0.4,0,0.5,0.2l0,0c-0.1,0.1-0.2,0.1-0.3,0.1c-0.1,0-0.1,0-0.2-0.1c0,0-0.1-0.1-0.1-0.1
		C111.6,241.3,111.6,241.3,111.6,241.2L111.6,241.2z"/>
	<path class="st200" d="M111.6,241.2c0,0,0,0.1,0,0.1c-0.1,0-0.1,0-0.1-0.1c0,0-0.1-0.1-0.1-0.1
		C111.4,241.2,111.5,241.2,111.6,241.2L111.6,241.2z"/>
	<path class="st201" d="M113.2,241.7c0,0.1,0.1,0.2-0.1,0.2c-0.3,0-0.4,0.1-0.3,0.4c0,0.1,0,0.3,0.1,0.4c-0.2,0.1-0.3-0.1-0.4-0.2
		c0,0,0-0.1,0-0.1c0.1-0.2-0.2-0.5,0.1-0.7C112.6,241.7,112.9,241.6,113.2,241.7L113.2,241.7z"/>
	<path class="st202" d="M112.3,241.7c0,0.2,0.2,0.5,0,0.7c-0.1,0-0.2,0-0.3-0.1c-0.1-0.1-0.1-0.2-0.2-0.3c-0.1-0.1-0.3-0.2-0.1-0.4
		c0,0,0.1,0,0.1,0C112,241.7,112.1,241.7,112.3,241.7C112.3,241.7,112.3,241.7,112.3,241.7L112.3,241.7z"/>
	<path class="st203" d="M111.8,241.7C111.8,241.7,111.8,241.7,111.8,241.7c-0.2,0.1,0,0.2-0.1,0.3c-0.1,0-0.1,0-0.2-0.1
		c-0.1-0.1,0-0.2,0-0.3c0.1-0.1,0.1-0.2,0.2-0.2c0.1,0,0.3,0,0.4,0L111.8,241.7L111.8,241.7z"/>
	<path class="st204" d="M112.1,241.5l-0.4,0c0-0.1,0.1-0.1,0.1-0.1C111.9,241.5,112,241.5,112.1,241.5
		C112.1,241.5,112.1,241.5,112.1,241.5L112.1,241.5z"/>
	<path class="st205" d="M113.8,241.6c0.1-0.1,0.1-0.2,0.1-0.3c0.3,0,0.5-0.1,0.5-0.5c0-0.1,0.1-0.2,0.2-0.2c0.2,0,0.3,0.1,0.5,0.1
		c0.5,0,1,0.1,1.5,0.2c0,0,0,0.1,0.1,0.1c0,0.2-0.2,0.2-0.3,0.2c-0.5-0.2-1-0.1-1.5-0.1c-0.3,0-0.5,0.3-0.7,0.4c-0.1,0-0.1,0-0.1,0
		C114,241.7,113.9,241.7,113.8,241.6L113.8,241.6z"/>
	<path class="st206" d="M110.3,241.4C110.3,241.4,110.3,241.4,110.3,241.4c0.1,0,0.1,0,0.2,0.1c0.1,0,0.1,0.1,0.1,0.2
		c0,0.1-0.1,0.2-0.2,0.2c-0.1,0-0.2,0-0.3-0.1c0-0.1-0.1-0.2-0.1-0.3c0,0,0,0,0,0C110,241.3,110.2,241.5,110.3,241.4L110.3,241.4z"
		/>
	<path class="st207" d="M110.5,241.6c0,0,0-0.1-0.1-0.1c0,0,0,0,0-0.1l0,0c0,0,0,0,0.1,0c0,0,0,0.1,0.1,0.1c0,0,0.1,0.1,0.1,0.1
		c0,0,0,0,0,0c0.1,0,0.3,0.1,0.2,0.3C110.7,241.9,110.6,241.8,110.5,241.6L110.5,241.6z"/>
	<path class="st208" d="M110.8,241.5c-0.1-0.2,0-0.3,0.3-0.3c0.1,0.1,0.2,0.3,0,0.4c0,0-0.1,0-0.1,0
		C111,241.6,110.8,241.6,110.8,241.5L110.8,241.5z"/>
	<path class="st209" d="M111.1,241.7c0-0.2-0.1-0.3,0-0.5c0.1,0,0.3,0,0.4,0.1c0,0,0.1,0,0.1,0.1c0,0,0,0,0.1,0.1c0,0,0,0-0.1,0.1
		c0,0-0.1,0-0.1,0c-0.3-0.1-0.2,0.2-0.4,0.3c0,0,0,0-0.1,0C111.1,241.8,111.1,241.7,111.1,241.7L111.1,241.7z"/>
	<path class="st210" d="M110.6,241.1c0.2,0,0.3,0,0.5,0.1c-0.2,0.1-0.3,0-0.5,0.1C110.5,241.1,110.5,241.1,110.6,241.1z"/>
	<path class="st211" d="M110.8,241.5c0.1,0,0.2,0,0.3,0.2C110.9,241.7,110.8,241.6,110.8,241.5L110.8,241.5
		C110.7,241.5,110.8,241.5,110.8,241.5L110.8,241.5z"/>
	<path class="st212" d="M110.6,241.1c0,0,0,0.1,0,0.1c0,0.1,0,0.2,0,0.3c0,0,0,0-0.1-0.1C110.5,241.3,110.5,241.2,110.6,241.1
		C110.5,241,110.5,241,110.6,241.1L110.6,241.1z"/>
	<path class="st151" d="M110.5,240.8C110.5,240.8,110.5,240.8,110.5,240.8c0.1,0,0.2,0.1,0.3,0.1c-0.1,0-0.1,0-0.2,0
		C110.5,240.9,110.5,240.9,110.5,240.8L110.5,240.8z"/>
	<path class="st212" d="M110.5,240.8c0,0,0,0.1,0.1,0.1c0,0,0,0-0.1,0.1c-0.1,0-0.1,0-0.2-0.1c0,0,0,0-0.1,0
		C110.3,240.8,110.4,240.8,110.5,240.8L110.5,240.8z"/>
	<path class="st213" d="M110.3,240.9c0.1,0,0.1,0,0.2,0.1c0,0,0,0,0,0.1c0,0.1,0,0.2,0,0.3c0,0,0,0-0.1,0
		C110.5,241.2,110.4,241.1,110.3,240.9L110.3,240.9z"/>
	<path class="st214" d="M113.9,243.6c0,0-0.1,0-0.1,0.1c-0.3-0.1-0.5-0.2-0.6-0.5c0-0.1-0.1-0.2-0.2-0.2c0,0,0,0-0.1,0
		c0-0.1,0-0.2,0.1-0.2c0.2,0,0.3,0.1,0.5,0.2c0,0,0,0,0.1,0.1c0,0.1,0.1,0.2,0.3,0.2c0.1,0,0.1,0,0.1,0.1c0,0,0,0.1,0,0.1
		C114,243.5,113.9,243.6,113.9,243.6L113.9,243.6z"/>
	<path class="st215" d="M112.1,242.4C112.1,242.4,112.1,242.4,112.1,242.4c0.1-0.1,0.1-0.1,0.2,0c0.1,0.1,0.3,0.2,0.4,0.3
		c0.1,0.1,0.2,0.1,0.1,0.2C112.4,243,112.2,242.7,112.1,242.4L112.1,242.4z"/>
	<path class="st216" d="M112.8,242.9c-0.2-0.2-0.4-0.3-0.5-0.5c0,0,0,0,0.1,0c0.1,0.1,0.3,0.2,0.4,0.2c0,0,0,0,0.1,0
		c0.1,0,0.2,0,0.2,0.2C113,242.9,112.9,243,112.8,242.9C112.8,243,112.8,243,112.8,242.9L112.8,242.9z"/>
	<path class="st217" d="M112.4,242.4C112.4,242.4,112.3,242.4,112.4,242.4c-0.1,0-0.2,0-0.3-0.1c-0.1-0.1-0.3-0.1-0.4-0.2
		c0,0,0,0,0-0.1c0.1-0.1,0.2,0,0.3,0c0.1,0,0.1,0.1,0.2,0.1C112.2,242.3,112.3,242.3,112.4,242.4
		C112.3,242.4,112.4,242.4,112.4,242.4L112.4,242.4z"/>
	<path class="st218" d="M110.5,241.6c0.1,0.1,0.3,0.2,0.5,0.2c0.1,0,0.1,0,0.1,0.1c0,0,0,0,0,0.1c0,0.2-0.2,0.2-0.3,0.3
		c-0.2,0-0.3,0-0.5,0c0-0.1,0-0.3,0-0.4C110.4,241.7,110.5,241.7,110.5,241.6L110.5,241.6z"/>
	<path class="st219" d="M111.2,241.8c0-0.5,0-0.5,0.4-0.4c0.1,0.2-0.1,0.3-0.3,0.4C111.3,241.8,111.2,241.8,111.2,241.8
		C111.2,241.8,111.2,241.8,111.2,241.8z"/>
	<path class="st220" d="M111.1,241.9c0,0-0.1,0-0.1-0.1c-0.1-0.1-0.2-0.2-0.3-0.3c0.1,0,0.2,0.1,0.3,0.1c0,0,0,0,0.1,0
		C111.1,241.7,111.1,241.8,111.1,241.9C111.1,241.8,111.1,241.9,111.1,241.9L111.1,241.9z"/>
	<path class="st221" d="M111.5,242c0,0-0.1,0-0.1,0c0-0.1-0.1-0.1-0.1-0.2l0,0C111.4,241.7,111.5,241.8,111.5,242
		C111.5,242,111.5,242,111.5,242L111.5,242z"/>
	<path class="st222" d="M112,242.2c-0.1,0-0.2,0-0.3-0.1c-0.1,0-0.1-0.1-0.2-0.1l0,0c0,0,0,0,0.1-0.1c0,0,0.1,0,0.1,0.1
		c0.1,0,0.1,0,0.2,0C111.9,242.1,112,242.1,112,242.2z"/>
	<path class="st223" d="M109.7,241.4c0-0.1,0-0.1,0-0.2l0,0c0.2,0,0.2,0.1,0.2,0.3l0,0C109.9,241.5,109.8,241.5,109.7,241.4
		C109.8,241.4,109.8,241.4,109.7,241.4L109.7,241.4z"/>
	<path class="st224" d="M109.9,241.5c-0.1-0.1-0.1-0.2-0.2-0.3c0.3-0.2,0.4,0.1,0.5,0.2C110.2,241.6,110,241.4,109.9,241.5
		L109.9,241.5z"/>
	<path class="st225" d="M120.9,243.1c0.1,0.2,0.3,0.2,0.4,0.2c0.1,0,0.2,0,0.3,0.1c0.1,0.2,0,0.4-0.1,0.5c-0.3,0-0.5-0.1-0.8-0.2
		c-0.5-0.1-0.7,0-0.8,0.5c-0.1,0.6-0.3,0.8-0.9,0.9c-0.3,0-0.5,0.1-0.8,0.1c-0.2,0-0.2,0.2-0.4,0.3c-0.2,0.1-0.3,0-0.4-0.1
		c-0.2,0-0.4-0.2-0.6-0.1c-0.2-0.1-0.3-0.1-0.5-0.2c-0.4,0-0.8-0.2-0.9-0.6c0-0.1,0-0.1,0.1-0.2c0.3-0.2,0.6-0.4,0.9,0
		c0.1,0.1,0.2,0.1,0.3,0c0.3-0.3,0.6-0.4,1-0.6c0.2-0.1,0.5-0.1,0.5-0.5c0-0.1,0.1-0.1,0.2-0.2c0.5-0.2,0.6-0.3,0.6-0.8
		c0-0.1,0-0.2,0.1-0.3c0.1-0.1,0.3-0.1,0.5,0c0,0,0.1,0,0.1,0c0,0,0.1,0,0.1,0c0.1,0.1,0.1,0.2,0.1,0.3c0.1,0.3,0.1,0.5,0.5,0.6
		C120.6,242.8,120.8,242.9,120.9,243.1L120.9,243.1z"/>
	<path class="st226" d="M118.2,247.2l-0.3,0c-0.3-0.5-0.3-1,0-1.5c0.1-0.2,0.2-0.3,0.3-0.4c0.2-0.1,0.3,0,0.4,0
		c0.2,0.2,0.3,0.4,0.3,0.7c0,0.3,0,0.5,0.2,0.7c0,0.1,0.1,0.2,0,0.3c0,0.1-0.1,0.1-0.2,0.1c-0.1,0-0.2,0.1-0.2,0.1
		C118.7,247.3,118.5,247.2,118.2,247.2L118.2,247.2z"/>
	<path class="st165" d="M118.3,245.4c0,0.2-0.3,0.4-0.3,0.6c-0.1,0.4-0.1,0.8,0,1.3c-0.2-0.2-0.4-0.5-0.8-0.7
		c-0.2-0.1-0.3-0.1-0.4-0.3c0-0.1,0-0.2,0.1-0.2c0.1,0,0.1,0.1,0.1,0.2c0,0.1,0,0.1,0.1,0.1c0-0.4,0.3-0.7,0.3-1.1
		c0.1,0,0.3,0,0.5,0.1C118.1,245.2,118.2,245.2,118.3,245.4L118.3,245.4z"/>
	<path class="st227" d="M118.2,247.2c-0.1-0.1,0-0.2,0.1-0.2c0.1,0,0.3,0,0.5,0c0,0,0,0.1,0,0.1c0,0,0,0.1,0,0.1
		c0,0.1,0,0.1-0.1,0.2c-0.1,0-0.2,0-0.3,0C118.4,247.4,118.3,247.3,118.2,247.2L118.2,247.2z"/>
	<path class="st228" d="M115.5,244.3c0.2,0.3,0.6,0.4,0.9,0.6c-0.1,0.2-0.3,0.4-0.4,0.5c-0.2,0.1-0.4,0.1-0.6-0.1
		c-0.2-0.2-0.4-0.5-0.7-0.6c0.1-0.3-0.2-0.5-0.2-0.8c0-0.1,0.1-0.1,0.2-0.2c0.1,0,0.2,0.1,0.3,0.1c0.2,0.1,0.3,0.2,0.5,0.3
		C115.4,244.2,115.4,244.3,115.5,244.3L115.5,244.3z"/>
	<path class="st229" d="M121.6,246c0.1-0.2,0.2-0.3,0.4-0.3c0.4,0,0.7,0,1,0.3c0.1,0.1,0.2,0.2,0.2,0.3c0,0.3,0.1,0.4,0.3,0.5
		c0,0-0.1,0-0.1,0c-0.3,0-0.6,0-0.9,0c-0.1,0-0.2,0-0.3,0c-0.2,0.1-0.4,0-0.6,0.1l0,0C121.4,246.5,121.4,246.2,121.6,246L121.6,246z
		"/>
	<path class="st230" d="M121.6,246c0.1,0.3,0,0.6,0,0.9c0,0-0.1,0-0.1,0c-0.1,0-0.3,0-0.4,0c-0.1,0-0.2,0-0.3,0c0,0-0.1-0.1-0.1-0.1
		c0-0.3-0.1-0.6-0.3-0.8c-0.2-0.2,0-0.3,0.2-0.4c0.2,0,0.4-0.1,0.5,0.1C121.2,245.8,121.4,245.9,121.6,246L121.6,246z"/>
	<path class="st231" d="M120.8,246.8c0.1,0,0.2,0,0.3,0c0,0,0,0,0,0c0,0,0,0,0,0c-0.2,0-0.3,0-0.5,0l0,0
		C120.7,246.7,120.7,246.8,120.8,246.8L120.8,246.8z"/>
	<path class="st232" d="M121.1,246.9C121.1,246.9,121.1,246.8,121.1,246.9c0.1-0.1,0.3-0.1,0.4,0
		C121.3,246.8,121.2,246.8,121.1,246.9L121.1,246.9z"/>
	<path class="st233" d="M122.5,246.8c0.3-0.1,0.6,0,1-0.1c0,0,0,0,0,0c0,0,0,0,0,0c-0.2,0-0.4,0-0.5,0
		C122.8,246.8,122.7,246.8,122.5,246.8L122.5,246.8z"/>
	<path class="st234" d="M123.6,247.5c0-0.1,0.1-0.2,0.1-0.3c0.2-0.3,0.2-0.3-0.2-0.4c0,0-0.1,0-0.1,0l0,0c0.2,0,0.3-0.1,0.5,0
		c0.3,0.2,0.4,0.5,0.3,0.7c0,0,0,0.1-0.1,0.1c0,0-0.1,0-0.1,0c-0.1,0-0.2,0-0.3,0c0,0-0.1,0-0.1,0
		C123.7,247.6,123.7,247.6,123.6,247.5C123.6,247.5,123.6,247.5,123.6,247.5L123.6,247.5z"/>
	<path class="st235" d="M124.3,247.6c-0.3,0.1-0.6,0-0.9,0.1c0.1,0,0.2-0.1,0.3-0.1l0,0C123.8,247.5,124.1,247.4,124.3,247.6
		L124.3,247.6z"/>
	<path class="st236" d="M125.6,245.6c0.2,0,0.5,0,0.7-0.2c0.2-0.1,0.8,0.1,1,0.4c-0.5,0-0.8,0.3-1.2,0.6c-0.1,0.1-0.1,0.2-0.2,0.3
		c-0.1,0.3-0.2,0.6-0.4,0.9c0,0-0.1,0-0.1,0c0.1-0.4,0-0.5-0.4-0.6c0,0-0.1,0-0.1,0c0-0.2,0.1-0.3,0.2-0.5c0-0.1,0-0.2,0-0.3
		C125,245.7,125.1,245.6,125.6,245.6L125.6,245.6z"/>
	<path class="st237" d="M124.9,246.9c0,0,0.1,0,0.1,0c0.1,0.4,0.1,0.5-0.2,0.6c-0.1,0-0.2,0-0.2-0.1c0,0,0,0,0,0
		C124.8,247.3,124.9,247.1,124.9,246.9C124.9,246.9,124.9,246.9,124.9,246.9z"/>
	<path class="st238" d="M124.2,247.4c0.2-0.3-0.1-0.4-0.2-0.6c0-0.1,0.1-0.1,0.1-0.1c0.2,0,0.3,0.3,0.5,0.4c0.1,0.1,0,0.2-0.1,0.3
		l-0.1,0.1C124.3,247.5,124.2,247.5,124.2,247.4L124.2,247.4z"/>
	<path class="st239" d="M124.5,247.4c0.1-0.2,0.1-0.3-0.1-0.4c-0.1,0-0.2-0.2-0.2-0.3c0.1-0.1,0.2-0.1,0.3-0.1c0,0,0.1,0,0.1,0
		c0.1,0,0.1,0.1,0.2,0.2c0,0.1,0.1,0.1,0.1,0.2c0,0.1,0,0.2-0.1,0.3c0,0-0.1,0-0.1,0.1l0,0C124.5,247.4,124.5,247.4,124.5,247.4
		L124.5,247.4z"/>
	<path class="st240" d="M124.2,247.4c0,0,0.1,0,0.1,0c0,0,0,0.1-0.1,0.1c-0.2,0-0.4,0.1-0.6,0c0,0,0,0,0.1,0
		C123.8,247.5,124,247.5,124.2,247.4C124.2,247.5,124.2,247.5,124.2,247.4L124.2,247.4z"/>
	<path class="st241" d="M120.8,246.8c-0.1,0-0.1,0-0.2,0.1c-0.2,0.1-0.3,0.1-0.5,0.1c-0.3,0-0.5-0.1-0.8,0.1c0,0-0.1,0-0.1,0
		c-0.2-0.3-0.3-0.7-0.3-1.1c0-0.2-0.1-0.4-0.2-0.5c0.1-0.1,0.2-0.1,0.4-0.1c0.5,0.1,1,0,1.4,0.2c0,0,0.1,0.1,0.1,0.1
		c-0.1,0.1-0.2,0.3,0,0.4c0.2,0.1,0.2,0.3,0.2,0.5C120.9,246.6,120.8,246.7,120.8,246.8L120.8,246.8z"/>
	<path class="st176" d="M119.2,247c0,0,0.1,0,0.1,0c0,0.2-0.4,0.2-0.4,0.5l0,0c-0.2,0-0.2-0.1-0.1-0.3c0-0.1,0.1-0.1,0.2-0.2
		C119.1,247,119.2,247,119.2,247L119.2,247z"/>
	<path class="st242" d="M119,247c0,0.1-0.2,0.3-0.1,0.4c0,0.1,0,0.1,0,0.2c0,0-0.1,0-0.1,0c-0.1-0.2-0.1-0.3,0-0.5c0,0,0,0,0-0.1
		C118.9,247.1,119,247.1,119,247z"/>
	<path class="st243" d="M118.8,247.2c0,0.2,0,0.3,0,0.5c0,0-0.1,0-0.1-0.1C118.7,247.5,118.7,247.3,118.8,247.2
		C118.8,247.2,118.8,247.2,118.8,247.2L118.8,247.2z"/>
	<path class="st244" d="M118.8,247.2c0,0.1,0,0.3,0,0.4c0,0,0,0-0.1,0c0-0.1,0-0.1,0-0.2C118.7,247.3,118.7,247.2,118.8,247.2
		L118.8,247.2z"/>
	<path class="st245" d="M114.6,243.9c-0.1,0-0.1,0-0.2,0.1c-0.2-0.1-0.3-0.3-0.5-0.3c-0.1-0.1-0.1-0.1,0-0.2
		C114.2,243.4,114.5,243.6,114.6,243.9L114.6,243.9z"/>
	<path class="st246" d="M120.9,243.1c-0.1,0-0.2-0.1-0.3-0.1c-0.1-0.1-0.1-0.2-0.2-0.2c-0.6-0.1-0.6-0.5-0.6-0.9
		c0.1-0.1,0.2-0.1,0.4-0.1c0.2,0,0.3,0,0.5-0.1c0.1,0,0.2,0,0.2,0c0.2,0,0.4,0,0.6,0.1c0,0,0,0,0,0c-0.5,0.2-0.5,0.4-0.1,0.9
		C121.1,242.7,121,242.9,120.9,243.1L120.9,243.1z"/>
	<path class="st247" d="M120.9,241.8c-0.1,0-0.1,0-0.2,0c-0.3,0-0.6,0-1,0l0,0l0,0c-0.1-0.1-0.2-0.1-0.3-0.2
		c-0.1-0.1-0.2-0.1-0.1-0.2c0.1-0.1,0.3,0,0.4,0.1c0.3,0.1,0.6,0,0.9,0c0.2,0,0.5,0,0.7,0c0.2,0,0.2,0.2,0.2,0.3c0,0-0.1,0-0.1,0
		l0,0C121.2,241.8,121,241.8,120.9,241.8L120.9,241.8z"/>
	<path class="st248" d="M119.7,241.5c-0.1,0-0.3,0-0.4,0c-0.1,0.1-0.2,0.1-0.4,0.1c-0.3,0.1-0.7-0.2-1,0c-0.3,0.1-0.7,0-0.9,0.3
		c-0.1,0.1-0.3,0.1-0.4,0c-0.2-0.2-0.3-0.4-0.2-0.7c0.1,0,0.2,0,0.3-0.1c0.1,0.1,0.3,0.1,0.5,0.1c0.5,0,1,0,1.5,0c0.2,0,0.4,0,0.6,0
		C119.5,241.3,119.6,241.3,119.7,241.5L119.7,241.5z"/>
	<path class="st249" d="M120.5,245.6l-1.8-0.1c-0.1,0-0.3-0.1-0.4-0.1c-0.2,0-0.3-0.1-0.5-0.1c0-0.3,0.1-0.4,0.4-0.3
		c0.4,0.1,0.7,0,1.1-0.1c0.4-0.1,0.5-0.5,0.5-0.8c0-0.3,0.5-0.6,0.8-0.4c0.3,0.1,0.6,0.1,0.9,0.4c0.2,0.3,0,0.6,0.1,0.9
		c0,0.1,0.1,0.2,0.2,0.3c0.1,0,0.2,0,0.2,0.2c0,0.2-0.1,0.1-0.2,0.2c0,0-0.1,0-0.1,0.1c0,0,0,0-0.1,0c-0.1,0-0.2,0-0.3,0
		C121.1,245.6,120.8,245.5,120.5,245.6L120.5,245.6z"/>
	<path class="st184" d="M121.8,243.2c0.1,0,0.1,0,0.1,0.1c0,0.1-0.1,0.1-0.2,0.1c0,0-0.1,0-0.1-0.1
		C121.7,243.2,121.7,243.2,121.8,243.2L121.8,243.2z"/>
	<path class="st250" d="M124.4,246.8C124.4,246.8,124.4,246.8,124.4,246.8c-0.2-0.2-0.5,0-0.6-0.1c0.2-0.2,0.3-0.4,0.6-0.5
		c0.3-0.1,0.6,0,0.8,0.3c0,0.2,0,0.4-0.2,0.5l0,0c0,0-0.1,0.1-0.1,0c0,0-0.1,0-0.1,0C124.6,246.9,124.6,246.8,124.4,246.8
		L124.4,246.8z"/>
	<path class="st251" d="M123.8,246.7c0.2,0,0.4-0.1,0.6,0.1c-0.1,0-0.2-0.1-0.3,0c-0.1,0-0.1,0-0.1,0.1c-0.2-0.1-0.3,0-0.5-0.1
		c0,0,0,0,0,0c0,0,0,0,0.1,0C123.6,246.7,123.7,246.7,123.8,246.7L123.8,246.7z"/>
	<path class="st252" d="M120.5,245.6c0.3-0.1,0.6,0,0.9-0.1c0,0,0,0,0,0c0,0,0,0,0,0c-0.1,0-0.2,0-0.3,0
		C121,245.6,120.8,245.6,120.5,245.6C120.6,245.6,120.6,245.6,120.5,245.6L120.5,245.6z"/>
	<path class="st253" d="M121.4,245.6C121.4,245.6,121.4,245.5,121.4,245.6l0.3-0.1C121.7,245.6,121.6,245.6,121.4,245.6z"/>
	<path class="st254" d="M114.6,243.9c-0.2-0.2-0.4-0.3-0.7-0.4c0,0,0,0,0-0.1c0-0.1-0.3-0.2-0.2-0.4c0-0.1,0-0.1,0-0.2
		c0.1-0.2,0.2-0.4,0.3-0.6c0.2-0.2,0.4-0.3,0.6-0.2c0,0,0,0.1,0,0.1c-0.3,0.5,0,0.8,0.3,1.2c0.1,0.2,0.1,0.4-0.1,0.7
		C114.7,244,114.7,243.9,114.6,243.9L114.6,243.9z"/>
	<path class="st255" d="M114.7,242.1c-0.3,0-0.5,0.1-0.6,0.4c0,0.1-0.2,0.2-0.3,0.3c0-0.2,0-0.4,0-0.6c0-0.1,0.1-0.2,0.3-0.3
		c0.1,0,0.1-0.1,0.1-0.2c0,0,0.1,0,0.1,0c0.2-0.1,0.4-0.1,0.5,0.1C114.8,241.9,114.8,242,114.7,242.1L114.7,242.1z"/>
	<path class="st256" d="M113,242.9c-0.1-0.1-0.2-0.1-0.2-0.2c0.1-0.1,0.2-0.2,0.4,0c0.1,0.1,0.2,0.2,0.3,0.3c0,0,0,0.1,0,0.1
		C113.3,243.1,113.2,242.9,113,242.9L113,242.9z"/>
	<path class="st257" d="M113.5,243.1c0,0,0-0.1,0-0.1c0.1,0,0.2,0,0.3,0.1c0.1,0.1,0.2,0.2,0.2,0.4c0,0-0.1,0-0.1-0.1
		C113.6,243.4,113.5,243.3,113.5,243.1C113.5,243.1,113.5,243.1,113.5,243.1L113.5,243.1z"/>
	<path class="st201" d="M113.9,241.9c-0.1,0.1-0.1,0.2-0.3,0.3C113.6,241.9,113.8,241.9,113.9,241.9z"/>
	<path class="st258" d="M111.6,241.4C111.6,241.4,111.7,241.4,111.6,241.4c0.1,0,0.2,0,0.2,0.1c0,0-0.1,0-0.1,0.1
		c0,0-0.1,0.1-0.1,0.1C111.5,241.6,111.6,241.5,111.6,241.4L111.6,241.4z"/>
	<path class="st259" d="M111.9,242.1c-0.1,0-0.1-0.1-0.2-0.1c0-0.1,0-0.2,0.1-0.3C111.7,241.8,111.9,241.9,111.9,242.1
		C111.9,242,111.9,242.1,111.9,242.1L111.9,242.1z"/>
	<path class="st260" d="M111.9,242.1C111.9,242.1,111.9,242,111.9,242.1c0.2,0,0.2,0,0.3,0.2c-0.1,0-0.1,0-0.2-0.1
		C111.9,242.2,111.9,242.1,111.9,242.1L111.9,242.1z"/>
	<path class="st261" d="M111.6,241.4c0,0.1,0,0.2-0.1,0.3c0,0.1,0,0.2,0,0.3c0,0,0,0-0.1,0.1c0-0.1-0.1-0.2-0.3-0.2
		C111.3,241.7,111.5,241.6,111.6,241.4C111.6,241.4,111.6,241.4,111.6,241.4L111.6,241.4z"/>
	<path class="st262" d="M114.7,241.8c-0.1-0.1-0.3,0-0.5-0.1c0.1-0.4,0.4-0.5,0.6-0.5c0.3-0.1,0.7,0,1-0.1c0.2,0,0.4,0,0.5,0.2
		c0.1,0.2,0.2,0.4,0.1,0.6c0,0.1-0.1,0.1-0.1,0.1c-0.4,0.1-0.8,0-1.2,0c-0.1,0-0.2,0-0.3,0C114.8,241.9,114.7,241.9,114.7,241.8
		L114.7,241.8z"/>
	<path class="st263" d="M113.5,243.1l0.3,0.2C113.5,243.4,113.5,243.3,113.5,243.1z"/>
	<path class="st264" d="M116.4,241.9c0,0,0.1,0,0.1,0c0.1,0,0.3,0,0.4,0c0.2-0.2,0.5-0.1,0.8-0.1c0.3,0.2,0.5,0.2,0.8,0
		c0.1,0,0.2,0,0.3,0c0.1,0,0.2,0,0.3,0.2c0.1,0.2,0,0.4,0.1,0.5c0,0,0,0.1,0,0.1c0,0.1-0.6,0.5-0.7,0.5c-0.2,0-0.2,0-0.1,0.2
		c0.1,0.1,0.1,0.1,0,0.2c-0.2,0.1-0.4,0.2-0.5,0.3c-0.4,0.1-0.8,0.3-1.1,0.6c-0.1,0.1-0.3,0.2-0.4,0c-0.3-0.3-0.5-0.2-0.8-0.1
		c-0.1-0.2,0-0.3,0.2-0.4c0.3-0.2,0.3-0.7,0.6-1c0.1-0.1,0-0.2,0-0.2C116.1,242.3,116.2,242.1,116.4,241.9L116.4,241.9z"/>
	<path class="st265" d="M116.4,241.9c0,0.3-0.2,0.5,0.1,0.8c0,0,0,0.1,0,0.1c-0.3,0.3-0.2,0.8-0.6,1.1c-0.1,0.1-0.3,0.2-0.3,0.4
		c0,0,0,0.1-0.1,0.1c-0.1,0-0.1,0-0.2-0.1c-0.2-0.2-0.1-0.4,0.1-0.5c0.4-0.4,0.3-0.8-0.2-1.2c-0.3-0.2-0.2-0.5-0.2-0.7
		C115.4,241.7,115.9,241.9,116.4,241.9L116.4,241.9z"/>
	<path class="st266" d="M119.1,241.9c-0.1,0-0.2,0-0.3-0.1c-0.1-0.1-0.1-0.2,0-0.3c0.1,0,0.3,0,0.4,0c0.2,0.1,0.4,0.1,0.4,0.4
		C119.5,241.8,119.3,241.9,119.1,241.9L119.1,241.9z"/>
	<path class="st267" d="M119.7,241.8c0.3-0.1,0.6-0.1,1,0C120.4,241.8,120.1,241.8,119.7,241.8C119.7,241.9,119.7,241.8,119.7,241.8
		L119.7,241.8z"/>
	<path class="st268" d="M114.9,241.8c0.1,0.1,0.3,0.2,0.1,0.4c-0.1,0.1,0.1,0.1,0.1,0.2c0.5,0.3,0.8,1,0.3,1.4
		c-0.1,0.1-0.2,0.2-0.2,0.4c-0.2,0-0.3-0.1-0.5-0.2c0-0.1,0-0.1,0-0.2c0.1-0.2,0-0.3-0.1-0.5c-0.2-0.2-0.3-0.5-0.4-0.8
		c-0.1-0.2,0.2-0.2,0.3-0.4c0-0.1,0-0.2,0-0.3C114.7,241.8,114.8,241.8,114.9,241.8z"/>
	<path class="st269" d="M124.1,247.5c-0.1,0.1-0.3,0.1-0.4,0.1c0,0,0.1,0,0.1-0.1C123.9,247.4,124,247.4,124.1,247.5L124.1,247.5
		L124.1,247.5z"/>
	<path class="st270" d="M124.1,247.4c-0.1,0-0.2,0-0.3,0C123.9,247.4,124,247.4,124.1,247.4z"/>
	<path class="st271" d="M124.8,246.9c0,0,0.1,0,0.1,0c0.1,0.3,0,0.4-0.3,0.5c0,0,0,0,0-0.1C124.7,247.2,124.7,247.1,124.8,246.9
		C124.7,247,124.8,246.9,124.8,246.9z"/>
	<path class="st272" d="M124.8,247c0.1,0.2,0,0.3-0.2,0.3c0-0.1,0-0.2,0.1-0.3C124.7,247,124.7,247,124.8,247L124.8,247z"/>
	<path class="st273" d="M124.4,246.8c0.1-0.1,0.2,0,0.3,0.1c-0.1,0.1-0.1,0.1-0.2,0.1C124.5,246.9,124.5,246.9,124.4,246.8
		L124.4,246.8z"/>
	<path class="st274" d="M124.6,246.9c0.1-0.1,0.1-0.1,0.2-0.1c0,0,0,0,0,0.1c0,0,0,0,0,0.1c0,0-0.1,0-0.1,0.1
		C124.6,247,124.6,247,124.6,246.9L124.6,246.9z"/>
	<path class="st275" d="M120.9,241.8c0.2-0.1,0.4-0.1,0.6,0C121.3,241.8,121.1,241.8,120.9,241.8z"/>
	<path class="st276" d="M118.9,241.5c0,0.1,0,0.2,0,0.3c-0.1,0-0.2,0-0.3,0c-0.3,0.1-0.5,0.1-0.8,0c-0.3,0-0.6,0-0.8,0
		c0-0.1,0.1-0.2,0.2-0.2c0.3,0,0.6-0.2,0.8-0.2C118.3,241.3,118.6,241.6,118.9,241.5L118.9,241.5z"/>
	<path class="st265" d="M117.8,241.8c0.3,0,0.5,0,0.8,0C118.3,241.9,118.1,242,117.8,241.8z"/>
</g>
</svg>
