<svg xmlns="http://www.w3.org/2000/svg" xmlns:xlink="http://www.w3.org/1999/xlink" viewBox="0 0 857 700"><defs><style>.cls-1,.cls-10,.cls-16,.cls-17,.cls-30{fill:none;}.cls-2{clip-path:url(#clip-path);}.cls-3{fill:#c7b299;}.cls-4{fill:#dcdae0;}.cls-5{fill:#784d24;}.cls-6{fill:#fff;}.cls-7{fill:#e9c0a3;}.cls-8{fill:#e8c1a3;}.cls-9{fill:#e4b895;}.cls-10{stroke:#e4b895;stroke-linecap:round;}.cls-10,.cls-16,.cls-17,.cls-30{stroke-miterlimit:10;}.cls-11{fill:#5987bb;}.cls-12{fill:#6293d4;}.cls-13{fill:#5381c0;}.cls-14{fill:#e3e3e3;}.cls-15{fill:#c8c8c8;}.cls-16{stroke:#c8c8c8;}.cls-17{stroke:#000;}.cls-17,.cls-30{stroke-width:2px;}.cls-18{fill:#050303;}.cls-19{fill:#e9c1a3;}.cls-20{fill:#8f5b27;}.cls-21{fill:#784d23;}.cls-22{fill:#461e0a;}.cls-23{fill:#d3a37f;}.cls-24{fill:#fffffe;}.cls-25{fill:#e9a78e;}.cls-26{fill:#efad99;}.cls-27{fill:#a38161;}.cls-28{fill:#322d26;}.cls-29{fill:#8c6239;}.cls-30{stroke:#8c6239;}.cls-31{fill:#e6e6e6;}.cls-32{fill:#8c2b87;}.cls-33{fill:#f8f7f9;}.cls-34{isolation:isolate;}.cls-35{fill:#020202;}</style><clipPath id="clip-path"><rect class="cls-1" x="-1" y="-4" width="864" height="706"/></clipPath></defs><g id="Dra_webinar" data-name="Dra webinar"><g class="cls-2"><rect class="cls-3" x="579.56" y="148.76" width="260.58" height="588.46" rx="4.06"/><rect class="cls-4" x="602" y="162.57" width="223.48" height="574.66" rx="3.71"/><path class="cls-5" d="M630.87,266.52s-50.91-15.79-79,33.35c0,0-12.95,28.77,14.57,82.42A65.92,65.92,0,0,0,591,408.68l52.17,31.57,31.58-14s-8.76-7-10.52-36.85c0,0,15.79-1.73,21.06-57.91C685.27,331.45,683.51,270,630.87,266.52Z"/><path class="cls-6" d="M653,472.62a2.84,2.84,0,0,1,1.55-.19c1,.27,1.38,1.45,1.61,2.46a203.31,203.31,0,0,1,4.38,52.53c-13.89-6.75-24.73-18.35-37.31-27.31-2.4-1.73-4.94-3.41-6.38-6C609,480.14,645.27,475,653,472.62Z"/><path class="cls-7" d="M523.08,539.87c-6.33,1.84-14.6,1.72-17.84-4-1.23-2.19-1.45-4.8-1.58-7.31a178.52,178.52,0,0,1,1.59-34.73c2.83-19.61,8.21-42.46,5.62-62.31,8.56-.18,16,1.73,24.16-.86.86,20.71-.72,39.12-1.52,58.67l6.17-.16c1.14,0,4.77,32.07,4.51,35.13C543.46,532.9,530.71,537.62,523.08,539.87Z"/><path class="cls-8" d="M536.37,423.07c1-2.4,2.92-4.18,4.16-6.5,5.09-9.6,5.52-18,5.76-28.86a5.34,5.34,0,0,0-.24-2.1c-1.22-3-7.88-1.77-10-4.23-.87-1-.63-2-.78-3.28-.81-6.9-.54-14.07-1.35-20.94-.2-1.81-.47-3.71-1.65-5.09s-3.59-1.83-4.72-.42a4.66,4.66,0,0,0-.72,2.79c-.36,9.19-.72,18.45.79,27.51a13.65,13.65,0,0,0-3.35-4.67,4.51,4.51,0,0,0-7.71,3.52,15.32,15.32,0,0,0,1,5,13.62,13.62,0,0,0-4.77-2.94,3.36,3.36,0,0,0-1.8-.23,3,3,0,0,0-1.8,1.72,7.4,7.4,0,0,0,.54,7.46c-2.34-1.44-5.65-2.59-7.58-.67-1.43,1.44-1.21,3.77-.86,5.78.2,1.27,2.12,2.46,1.85,3.72-.86,4.09-.86,2.45.69,11.45.79,4.59,4.32,6.24,5.61,10.69,1.14,3.87.81,8.14,1.27,12.15.34,3,.53,5.85.86,8.84.23,1,23.79-.27,23.79-.27-.07-1.91-.05-3.81.07-5.72C535.78,433.85,534.75,426.73,536.37,423.07Z"/><path class="cls-9" d="M534,382.2q-.39-3.81-.65-7.63c-.16-2.55-.33-5.09-.31-7.64s.07-5.13.1-7.64-.25-5.05-1.8-7a.33.33,0,0,1,0-.47h0a.34.34,0,0,1,.48,0,8.56,8.56,0,0,1,1.84,3.5,17.55,17.55,0,0,1,.56,3.88c.12,2.59.17,5.07.33,7.61s.26,5.06.45,7.58.41,5,.68,7.56a.87.87,0,1,1-1.72.19h0Z"/><path class="cls-10" d="M531.58,382.85a6,6,0,0,0,.26,3.37c.86,1.78,3.28,2.28,4.47,3.87a6.75,6.75,0,0,1,.86,4.61,45.18,45.18,0,0,1-2.1,10.86"/><path class="cls-9" d="M528.66,390.08c0,1.17.86,2.29,1.17,3.64a6.51,6.51,0,0,1-.39,4.06,5.36,5.36,0,0,1-.48.92,2.33,2.33,0,0,1-.78.78,4.48,4.48,0,0,1-1,.39,3.7,3.7,0,0,1-1,.21,5.9,5.9,0,0,1-3.84-1.34.3.3,0,0,1,0-.41.29.29,0,0,1,.4,0h0a5.26,5.26,0,0,0,3.46,1.23,3.24,3.24,0,0,0,.86-.19,4.31,4.31,0,0,0,.86-.35,2.94,2.94,0,0,0,1-1.43,5.85,5.85,0,0,0,.32-3.67c-.36-1.22-1.22-2.26-1.42-3.8a.44.44,0,1,1,.87-.11Z"/><path class="cls-8" d="M537.31,382.15a5.45,5.45,0,0,0-5.58.07,1,1,0,0,0-.24.22.78.78,0,0,0-.09.42,11.13,11.13,0,0,0,.27,2.31c1.37-.44,3-.63,4.32-1.07a3.62,3.62,0,0,0,1.19-.53C537.53,383.3,537.35,382.59,537.31,382.15Z"/><path class="cls-11" d="M680.28,667.75c-15.79-17-30.66-36.71-33.65-59.75,17.74-3.29,35.75-6.67,51.92-14.67a164,164,0,0,1,1.32,21.38c.28,15.53.56,31.14-.38,46.68-.22,3.45.17,19.71-3.55,20.3C692.07,682.33,682.74,670.4,680.28,667.75Z"/><path class="cls-12" d="M701.36,594.22c-12.58,5.73-27.06,16.21-44.17,16.26-2.92,0-10,1.73-12.29,0-2.58-2-2.84-5.39-3.66-8.52-2.11-8-1.22-16.6-1.6-24.83-.09-2-2.3-3.45-2.92-5.36a19.75,19.75,0,0,0-2.2-4.32c-2.13-3.39-5-4.51-7.17-7.89s-7.42-9.78-10.52-12.29c-6.27-5.07-11.88-3.75-18.18-8.78-7.54-6-13.81-18.63-13.41-28.07-9.76,9.95-19.32,18-32.17,23.39a9.07,9.07,0,0,1-4.63,1c-3-.46-4.74-3.6-5.92-6.41a124.92,124.92,0,0,1-4.9-14c-3.07-11-6.81-19.39.2-28.42,3-3.84,9.93-9.7,14-12.28A188.15,188.15,0,0,1,585.63,457c11.87-4.39,17.44-.3,22.44-4.39.59.86,1.17,1.73,1.72,2.63,5.76,8.76,11,17.33,16.2,25.77,7.9,12.81,15.87,25.34,25.89,37.8-1.91-14.67-3.84-29.4-3.52-44.19l0-1.86c.36-10.18,1.82-20.39.54-30.49a23.87,23.87,0,0,1-.32-4.05h0a6.89,6.89,0,0,1,.32-1.91c.8-2.59,3.12-4.31,5.33-5.72,8.48-5.63,17.83-9.69,27.45-13.06,3.63-1.28,13.36-5.05,15.79-1.73,1,1.39-.86,3.58,0,5.27,1.16,2.24,1.11,5,2.37,7.19,7.15,12.39,4.32,27.85,6,42.07,1.18,10,4.71,19.7,5.88,29.76C715.45,531.58,695.62,562.92,701.36,594.22Z"/><path class="cls-13" d="M582,507c.61,1.81,1.32,3.75,2.89,4.85l2.4-2.72a1.54,1.54,0,0,0,.43-.74,1.52,1.52,0,0,0-.53-1.13,47,47,0,0,1-4.32-5.81c-.51-.86-2.51-5.84-3.27-6C577.31,495.05,581.49,505.45,582,507Z"/><ellipse class="cls-14" cx="615.18" cy="578.68" rx="10.66" ry="11.2" transform="translate(-170.59 269.02) rotate(-21.74)"/><ellipse class="cls-15" cx="612.81" cy="578.47" rx="8.53" ry="9.07" transform="translate(-170.68 268.13) rotate(-21.74)"/><rect class="cls-15" x="607.39" y="563.85" width="2.13" height="7.46" transform="translate(-166.95 265.74) rotate(-21.74)"/><path class="cls-16" d="M669,491.84l-6.75,42s-1.61,11,5.5,15.36"/><path class="cls-16" d="M695.15,492.05l1.64,43.86s.26,11.49-8,14.78"/><path class="cls-17" d="M606.29,564.85s-31.58-72,1.73-114.06c11.93-15.08,41.27-20.55,56-11a28.33,28.33,0,0,1,11.69,14.94c1.49,4.49,4.13,14.26,4.23,18.91"/><path class="cls-17" d="M668.77,493.5s-3.27-22.16,14.39-19.37c0-.06,13.92-3,12.45,18.64"/><path class="cls-18" d="M687.17,548.25a7.07,7.07,0,0,0-2.68.56,2,2,0,0,0-1.12,2.27,1.91,1.91,0,0,0,1.35,1.12,5.66,5.66,0,0,0,1.79.08,14.33,14.33,0,0,0,3.12-.45,5.32,5.32,0,0,0,2.66-1.61,1.13,1.13,0,0,0,.26-.45c.17-.72-.5-2.27-1.25-2.35a8.55,8.55,0,0,0-2,.51C688.62,548.07,687.87,548.17,687.17,548.25Z"/><path class="cls-18" d="M665.21,548.72a9.91,9.91,0,0,0,1.23,1.28,8.21,8.21,0,0,0,4.06,1.43,5.74,5.74,0,0,0,1.94,0,2.06,2.06,0,0,0,1.48-1.14,2.18,2.18,0,0,0-1.25-2.55c-1.73-.86-3.65-.64-5.37-1.57a1.66,1.66,0,0,0-2.09,2.55Z"/><path class="cls-7" d="M634.41,479.34c-2,.56-4,1.05-6,1.47a5.81,5.81,0,0,1-2.31.16H626c-5.23-8.44-10.44-17-16.2-25.77a46.3,46.3,0,0,1-1-6.09c-.64-6.08-.95-12.21-1.15-18.33,0-1.34-1-7.46.42-8,.56-.22,2.89,1.17,3.55,1.42,1.25.45,2.58.86,3.82,1.35,2.26.86,6.34.49,8.46,1.68.86.51,0,2.44.61,3.23a3.75,3.75,0,0,1,.42.62,6.68,6.68,0,0,1,.72,2.74c.25,2.44.16,4.87.19,7.31a78.14,78.14,0,0,0,4.69,25.64c1.44,4,3.23,7.92,3.81,12.08A4.46,4.46,0,0,1,634.41,479.34Z"/><path class="cls-7" d="M648.43,472.68l0,1.87a118.84,118.84,0,0,1-13.15,4.31,1.2,1.2,0,0,1-.75,0l-.14-.08a1.45,1.45,0,0,1-.44-.63,74.22,74.22,0,0,1-5-15.43c-.51-2.36-.86-4.74-1.54-7.06-.87-3-2.14-6-2.39-9.1a32,32,0,0,1,.11-4.27,71.17,71.17,0,0,0,0-8,14.19,14.19,0,0,0-1.16-3.66c-.61-1.5.72-2.17,1.4-2.59,2-1.14,5-1.46,7.18-2.3,2.39-.93,4.71-3.45,6.95-4.62A39,39,0,0,0,641,435.24c.5,1.46,1.39,3.1,2.94,3.22,1.32.11,2.46-1,3.77-1.13a1,1,0,0,1,.64.12,1.16,1.16,0,0,1,.31.66h0a23,23,0,0,0,.32,4.06C650.25,452.3,648.8,462.5,648.43,472.68Z"/><path class="cls-19" d="M572.49,357.65l-.61-4.31c-.21-1.53-.27-3.18-1.19-4.48-2.55-3.6-7.18-2.06-9.61.77s-2.14,6-1.09,9.33a7.57,7.57,0,0,0,6.19,5.62,4.91,4.91,0,0,0,5.62-3.88v-.13A4.37,4.37,0,0,0,572.49,357.65Z"/><path class="cls-9" d="M569.59,354.28a8.15,8.15,0,0,0-.57-2.54,2.17,2.17,0,0,0-1.1-1.07h-.1a11.78,11.78,0,0,0,0-1.46,2.68,2.68,0,0,0-.4-1.41A2.23,2.23,0,0,0,566,347a4.33,4.33,0,0,0-2.59.15,6.37,6.37,0,0,0-1.81,1.23,1.64,1.64,0,0,0-.53.74,1.41,1.41,0,0,0,0,.95c.23.56.78.92,1.38,1.48h0c.18-.55.36-.53.53-.49h0l.15.08h0a1.29,1.29,0,0,1,.17.16c.14.12.27.25.4.38l.11.12.07.08c.11.13.22.27.32.41l.07.12a6.14,6.14,0,0,0-1.24,1.15,5.23,5.23,0,0,0-1,4.09,7,7,0,0,0,5.94,5.44,1.46,1.46,0,0,0,1.72-1.16h0a30.8,30.8,0,0,0,.19-5.17A21.88,21.88,0,0,0,569.59,354.28Z"/><path class="cls-7" d="M573.72,382.44a84.83,84.83,0,0,0,2.73,13.94,39.82,39.82,0,0,0,14,21.06c7.28,6,17.55,9.79,26.93,11.3a5.08,5.08,0,0,0,2.39,0,27.55,27.55,0,0,1,5.78-.73c1.26-9.77-1.81-24-3.21-33.7-.55-3.88-1.34-7.81-3.32-11.21a34.75,34.75,0,0,1-2.59-4.56c-.91-2.35-.75-5-.57-7.48l2.73-38.91c.41-5.77.8-11.68-.75-17.25a3.46,3.46,0,0,0-1.18-2,3.69,3.69,0,0,0-3-.05q-11.34,3.07-22.56,6.57c-6.68,2.05-15.1,3.45-21.19,6.9-4.36,2.48-3.89,6-3,10.47,1.36,6.75,1.47,12.45,2.51,19.26C570.74,364.45,573.05,373.93,573.72,382.44Z"/><path class="cls-19" d="M618,322.58l-.77,26.74c-.14,5.06-.3,10.18-1.68,15-.86,2.92-2.09,5.73-2.43,8.74s.46,6.41,3,8.13a13.63,13.63,0,0,1,2.38,1.61c1.16,1.24,1.13,3.15,1,4.85a145.93,145.93,0,0,0,3.36,38.25,13,13,0,0,0,1,3c.86,1,2-.79,3.17-1.2A72.51,72.51,0,0,0,640,421.28c10.49-6.1,21.73-13.08,25.93-24.47A47.57,47.57,0,0,0,668.26,384a240.85,240.85,0,0,0-1.06-48.69c-.82-6.63-2.06-13.57-6.29-18.74a30.77,30.77,0,0,0-9.49-7.19,79.57,79.57,0,0,0-22.79-8.22c-4.46-.86-10-1.29-11,4S618.16,317.17,618,322.58Z"/><path class="cls-19" d="M664.66,350.13l-.16-4.39c0-1.53-.27-3.17.41-4.61,1.89-4,6.71-3.27,9.59-.87s3.15,5.56,2.69,9a7.57,7.57,0,0,1-5.13,6.6,4.89,4.89,0,0,1-6.21-2.89v-.13A4.26,4.26,0,0,1,664.66,350.13Z"/><path class="cls-9" d="M667,346.59a8.33,8.33,0,0,1,.13-2.59,1.51,1.51,0,0,1,.92-1.1h.07a12.08,12.08,0,0,1-.25-1.58,2.6,2.6,0,0,1,.14-1.46,2.2,2.2,0,0,1,1.28-1.06,4.35,4.35,0,0,1,2.59-.3,6.55,6.55,0,0,1,2,.87,1.58,1.58,0,0,1,.65.63,1.41,1.41,0,0,1,.16.94,1.5,1.5,0,0,1-1.2,1.15h0a2.76,2.76,0,0,0-.51.16h0l-.13.1h0l-.15.18-.32.45-.09.14-.06.09c-.08.15-.16.3-.23.45l-.06.13a5.87,5.87,0,0,1,1.42.92,5.23,5.23,0,0,1,1.73,3.86,7,7,0,0,1-4.91,6.38,1.47,1.47,0,0,1-1.86-.86,33,33,0,0,1-1.09-5.09A12.08,12.08,0,0,1,667,346.59Z"/><path class="cls-5" d="M556.41,346.23c1.1,2.19,7.65.87,9.49-.74s-.42-2.82.86-4.92C570,335.15,576,331.82,582,330s12.42-2.39,18.6-3.69A78.46,78.46,0,0,0,616.9,321c3.17-1.43,6.49-3.35,7.71-6.6.86-2.24,1.15-5.43,3.5-5.75,7.35,9.14,18.12,16.24,28.57,21.47,4.23,2.11,9,4.68,10.11,9.27.21.86.63,2.06,1.52,1.89a1.65,1.65,0,0,0,.87-.71c3.82-4.94,7.86-10.7,6.74-16.84-1-5.73-6.21-9.65-11-13l-14.29-10a23.69,23.69,0,0,0-7.16-3.86c-3.23-.86-6.65-.36-9.93.29-17,3.4-39.45,5-53.59,15-5,3.53-8.74,9.24-14,12.29-3.18,1.82-4.16,4.75-7,7S556.64,342.62,556.41,346.23Z"/><path class="cls-20" d="M630,276.18a31.17,31.17,0,0,1-3.21,10.49,57.74,57.74,0,0,1-5.85,9.36l-.87,1.08-.95,1.12a12.68,12.68,0,0,1-1,1.07l-1,1a32.91,32.91,0,0,1-4.69,3.45A47.28,47.28,0,0,1,602,308.32c-1.78.55-3.54,1-5.31,1.47s-3.54.82-5.28,1.18c-3.46.71-6.91,1.45-10.23,2.34-6.63,1.83-13.09,4.36-18.18,9.61a22.81,22.81,0,0,1,6.9-8.59,41.14,41.14,0,0,1,9.72-5.52,86.63,86.63,0,0,1,10.43-3.45c3.45-.93,6.85-1.8,10.13-2.84,1.65-.5,3.26-1,4.82-1.67a43.9,43.9,0,0,0,4.53-2.05,36.93,36.93,0,0,0,4.15-2.59c.61-.52,1.28-1,1.85-1.56l.86-.86.93-.92a93.29,93.29,0,0,0,6.9-7.83A50.79,50.79,0,0,0,630,276.18Z"/><path class="cls-21" d="M598.78,335.14a13.15,13.15,0,0,0-2.26.08,11.77,11.77,0,0,0-2,.33,25.56,25.56,0,0,0-5.65,2.45,18.51,18.51,0,0,0-2.21,1.73,22.3,22.3,0,0,0-2.59,2.46.84.84,0,0,0-.32.69,16.49,16.49,0,0,1-.07,1.72,7.28,7.28,0,0,1,1.41-1.72,26,26,0,0,1,5.56-2.9A17.85,17.85,0,0,1,597,338.3c.79-.05,1.58,0,2.37,0l3.51.1a3.67,3.67,0,0,0,1.19-.1,1.45,1.45,0,0,0,1-1.17,1.56,1.56,0,0,0-1.29-1.79,1.24,1.24,0,0,0-.43,0C601.81,335.3,600.29,335.17,598.78,335.14Z"/><path class="cls-21" d="M636.47,332.62a14,14,0,0,1,2.23-.37,11.8,11.8,0,0,1,2.06-.09,25.37,25.37,0,0,1,6,1.26,16.67,16.67,0,0,1,2.51,1.23,24,24,0,0,1,3.07,1.88.84.84,0,0,1,.45.6,15.86,15.86,0,0,0,.42,1.68,7.09,7.09,0,0,0-1.73-1.4,26.92,26.92,0,0,0-6-1.73,18.21,18.21,0,0,0-6.58-.36,23.29,23.29,0,0,0-2.32.48l-3.45.81a3.55,3.55,0,0,1-1.21.14,1.46,1.46,0,0,1-1.2-.95,1.55,1.55,0,0,1,.9-2,1.17,1.17,0,0,1,.41-.1C633.54,333.4,635,333,636.47,332.62Z"/><path class="cls-22" d="M635.41,342.2a7.76,7.76,0,0,0-2.59,4.31,10,10,0,0,0,0,6.12,2.85,2.85,0,0,0,1.36,1.72,3.36,3.36,0,0,0,1.54.15q3.15-.18,6.29-.68a3.92,3.92,0,0,0,1-.28c1.13-.57,1.28-2.1,1.27-3.38v-1.73a1.13,1.13,0,0,0-.27-.86,1.12,1.12,0,0,0-.66-.18,12,12,0,0,1-2.24-.14,2.57,2.57,0,0,1-1.8-1.21c-.74-1.41,1.11-3.12.26-4.17S636.28,341.55,635.41,342.2Z"/><path class="cls-22" d="M595.55,345.57a7.82,7.82,0,0,0-2.78,4.18,10.17,10.17,0,0,0-.34,6.1,2.84,2.84,0,0,0,1.28,1.77,3.46,3.46,0,0,0,1.53.23,60.51,60.51,0,0,0,6.31-.36,3.19,3.19,0,0,0,1-.21c1.17-.52,1.39-2,1.45-3.31l.08-1.73a.81.81,0,0,0-.87-1.07,12,12,0,0,1-2.23-.26,2.55,2.55,0,0,1-1.72-1.31c-.66-1.44,1.27-3.05.49-4.14S596.45,345,595.55,345.57Z"/><path class="cls-23" d="M629.37,382.51a.49.49,0,0,1-.24.56c-.14.09-.27.2-.41.28a7.83,7.83,0,0,1-.91.47c-.62.28-1.27.47-1.91.7a11.41,11.41,0,0,1-4.06.61,7.42,7.42,0,0,1-5.66-2.42A8.42,8.42,0,0,1,615,381a.09.09,0,0,1,0-.12h.07a16.36,16.36,0,0,1,1.79.86c.3.12.57.27.86.41a5.54,5.54,0,0,0,.87.37c.27.11.54.25.82.37s.55.21.86.34a8.82,8.82,0,0,0,.86.31,5.11,5.11,0,0,0,.86.2,8.71,8.71,0,0,0,3.7-.07,6.67,6.67,0,0,0,.86-.28,9.2,9.2,0,0,0,.86-.39c.28-.15.56-.28.87-.43l.42-.22a.5.5,0,0,1,.57,0h0A.2.2,0,0,1,629.37,382.51Z"/><path class="cls-23" d="M639.14,421.83c-2.18,1.47-4.31,3.08-6.49,4.56-1.1.74-2.22,1.48-3.39,2.14a18.21,18.21,0,0,1-3.73,1.77l-.52.16a3.72,3.72,0,0,1-.67.08,6.61,6.61,0,0,1-1.09,0c-.69-.07-1.35-.16-2-.26-1.32-.21-2.59-.47-3.92-.76-.64-.14-1.27-.24-2-.41s-1.3-.35-1.94-.56a38.53,38.53,0,0,1-3.74-1.45.15.15,0,0,1-.08-.2h0a.2.2,0,0,1,.19-.09c1.29.27,2.58.56,3.87.8.65.12,1.29.24,1.92.33l2,.2c1.32.14,2.59.33,3.92.49q1,.13,1.92.21c.31,0,.63.05.87,0a.81.81,0,0,0,.31,0l.44-.12a43.15,43.15,0,0,0,6.9-3.45,71.7,71.7,0,0,1,7.05-3.71.16.16,0,0,1,.21.06.16.16,0,0,1-.06.21h0Z"/><path class="cls-23" d="M618,414.9a1.47,1.47,0,0,0,.78,0,1.72,1.72,0,0,0,.37-.22l.86-.63a4.83,4.83,0,0,0,1.73-1.72c-.1-.17-.34-.18-.54-.17l-3.13.13c-.74,0-2.17-.19-2.83.2C613.84,413.29,617.22,414.75,618,414.9Z"/><path class="cls-24" d="M641.52,393.53c.46.86-.12,1.93-.68,2.75l-5.51,8.14a3.81,3.81,0,0,1-4,2.14q-8.7.22-17.39.09a5.25,5.25,0,0,1-1.88-.26,4.87,4.87,0,0,1-1.84-1.53c-1.07-1.25-6.63-7.13-5.71-8.84s9.54-1,11.44-1.1Z"/><path class="cls-25" d="M579.14,369.75a3.74,3.74,0,0,0,.7,3,7.7,7.7,0,0,0,3.87,3,13.51,13.51,0,0,0,4.94.48c1.36-.06,2.9-.26,3.71-1.36,2-2.72.69-8.56-3-9.1C586.64,365.35,580,366.7,579.14,369.75Z"/><path class="cls-26" d="M649.21,363a4,4,0,0,0,.22,4.53c1.43,1.81,4.05,2,6.35,2.08l2.48.06a8.67,8.67,0,0,0,3-.27,3,3,0,0,0,2-2,3.31,3.31,0,0,0-.17-1.79C661.32,360,652.76,357.41,649.21,363Z"/><path class="cls-27" d="M833.84,738l-131.5,6.89c-7.75,0-14.06-5.1-14.06-11.38V155.38c0-6.28,6.31-11.38,14.06-11.38l131.52,6.89c7.75,0,14,5.09,14,11.38V726.62C847.89,732.9,841.61,738,833.84,738Z"/><path class="cls-3" d="M713.31,462.15a8.61,8.61,0,0,1-8.63-8.61V398a8.63,8.63,0,0,1,17.25,0v55.59A8.61,8.61,0,0,1,713.31,462.15Z"/><path d="M722.9,425.74c0,8.18-4.18,14.8-9.33,14.8s-9.33-6.62-9.33-14.8,4.18-14.8,9.33-14.8S722.9,417.57,722.9,425.74Z"/><path class="cls-3" d="M848.34,251.57a5.61,5.61,0,0,1-5.61-5.61h0V194.44a5.63,5.63,0,0,1,7.17-5.72,5.09,5.09,0,0,1,2,1,5.75,5.75,0,0,1,2.05,4.69V246A5.61,5.61,0,0,1,848.34,251.57Z"/><path class="cls-3" d="M848.21,699.26a5.46,5.46,0,0,1-5.48-5.46V643.5a5.62,5.62,0,0,1,11.22-.43v50.67a5.55,5.55,0,0,1-5.56,5.52Z"/><path class="cls-28" d="M717,448.69a3.45,3.45,0,1,1-3.45-3.45A3.45,3.45,0,0,1,717,448.69Z"/><polygon class="cls-28" points="713.57 448.72 711.08 456.8 717.01 456.8 713.57 448.72"/><path class="cls-29" d="M817.71,737.19V153.25a1.75,1.75,0,0,1,1.16-1.71,1.73,1.73,0,0,1,2.29,1.63V737.26a1.74,1.74,0,0,1-2.29,1.64A1.77,1.77,0,0,1,817.71,737.19Z"/><path class="cls-29" d="M787.51,739.69V148.84a1.75,1.75,0,0,1,1.16-1.71,1.73,1.73,0,0,1,2.29,1.63v591a1.73,1.73,0,0,1-2.29,1.64A1.77,1.77,0,0,1,787.51,739.69Z"/><path class="cls-29" d="M757.31,738.88V147.57a1.76,1.76,0,0,1,1.16-1.71,1.73,1.73,0,0,1,2.29,1.64V739a1.73,1.73,0,0,1-2.29,1.64A1.77,1.77,0,0,1,757.31,738.88Z"/><path class="cls-29" d="M726.25,743.12V147.57a1.76,1.76,0,0,1,1.16-1.71,1.73,1.73,0,0,1,2.29,1.64V743.2a1.73,1.73,0,0,1-2.29,1.63A1.76,1.76,0,0,1,726.25,743.12Z"/><path class="cls-29" d="M698.64,743V147.44a1.76,1.76,0,0,1,1.16-1.71,1.73,1.73,0,0,1,2.29,1.64v595.7a1.73,1.73,0,0,1-2.29,1.64A1.76,1.76,0,0,1,698.64,743Z"/><line class="cls-30" x1="853.95" y1="657.84" x2="842.73" y2="657.84"/><line class="cls-30" x1="853.95" y1="677.69" x2="842.73" y2="677.69"/><line class="cls-30" x1="853.09" y1="210.02" x2="842.73" y2="210.02"/><line class="cls-30" x1="853.09" y1="229.87" x2="842.73" y2="229.87"/><path class="cls-31" d="M124.1,238H470.78l38.08,24.56V77.26C508.86,71.59,502,67,493.47,67H124.1c-8.5,0-15.4,4.59-15.4,10.26V227.74C108.7,233.41,115.6,238,124.1,238Z"/><path class="cls-32" d="M137.24,226H483.92L522,250.57V65.26C522,59.6,515.11,55,506.61,55H137.24c-8.5,0-15.4,4.6-15.4,10.26V215.74C121.88,221.4,128.78,226,137.24,226Z"/><path class="cls-31" d="M476.17,222H104.36C94.22,222,86,215.12,86,206.63V64.37C86,55.88,94.22,49,104.36,49H476.17c10.14,0,18.36,6.88,18.36,15.37V206.63C494.53,215.12,486.31,222,476.17,222Z"/><path class="cls-6" d="M482.14,217H110.33C100.19,217,92,210.12,92,201.63V59.37C92,50.88,100.19,44,110.33,44H482.14c10.14,0,18.36,6.88,18.36,15.37V201.63C500.5,210.12,492.28,217,482.14,217Z"/><ellipse class="cls-32" cx="127.21" cy="39.96" rx="28.82" ry="29.35" transform="translate(-2.94 68.96) rotate(-30)"/><circle class="cls-31" cx="84.26" cy="66.19" r="33.49"/><path class="cls-32" d="M95.39,10.8a7.31,7.31,0,1,1-10-2.67,7.33,7.33,0,0,1,10,2.67Z"/><path class="cls-32" d="M70.39,16.47a3.65,3.65,0,1,1-5-1.34,3.66,3.66,0,0,1,5,1.34Z"/><path class="cls-6" d="M97.61,55.13a3.65,3.65,0,1,1-5-1.34,3.66,3.66,0,0,1,5,1.34Z"/><circle class="cls-33" cx="79.78" cy="61.27" r="33.49"/><g class="cls-34"><g class="cls-34"><path class="cls-35" d="M178.76,127.46H177.4l-1.12-2.93H171.5l-1.12,2.93H169l4.11-10.56h1.52Zm-6.8-4.13h3.86l-1.94-5.2Z"/></g><g class="cls-34"><path class="cls-35" d="M183.84,119.3a3.88,3.88,0,0,1,1.46.26,3.16,3.16,0,0,1,1.1.73,3.76,3.76,0,0,1,.75,1.14l-1.22.57a2.43,2.43,0,0,0-.77-1.17,2.16,2.16,0,0,0-1.36-.41,2.52,2.52,0,0,0-1.37.36,2.26,2.26,0,0,0-.88,1,4.47,4.47,0,0,0,0,3.27,2.23,2.23,0,0,0,.88,1,2.52,2.52,0,0,0,1.37.36,2.71,2.71,0,0,0,1.08-.19,2,2,0,0,0,.76-.56,2.12,2.12,0,0,0,.4-.9l1.19.42a3.77,3.77,0,0,1-.75,1.26,3.17,3.17,0,0,1-1.13.81,3.83,3.83,0,0,1-1.51.28,3.88,3.88,0,0,1-2-.5,3.4,3.4,0,0,1-1.38-1.43,5.22,5.22,0,0,1,0-4.46,3.4,3.4,0,0,1,1.38-1.43A4,4,0,0,1,183.84,119.3Z"/><path class="cls-35" d="M194.28,119.46v1.1h-5.79v-1.1Zm-2.91-2.27v8.06a1.07,1.07,0,0,0,.34.88,1.23,1.23,0,0,0,.86.29,1.78,1.78,0,0,0,.8-.16,2.17,2.17,0,0,0,.61-.43l.45,1.07a2.94,2.94,0,0,1-.87.53,3.25,3.25,0,0,1-1.16.19,3,3,0,0,1-1.14-.21,1.89,1.89,0,0,1-.84-.69,2.3,2.3,0,0,1-.33-1.24v-7.94Z"/><path class="cls-35" d="M199.08,127.62a3.5,3.5,0,0,1-1.44-.29,2.39,2.39,0,0,1-1.11-.93,3.09,3.09,0,0,1-.42-1.69v-5.25h1.28v4.91a2.1,2.1,0,0,0,.53,1.67,2.15,2.15,0,0,0,1.48.46,2.62,2.62,0,0,0,.88-.15,2.12,2.12,0,0,0,.78-.48,2.26,2.26,0,0,0,.54-.84,3.22,3.22,0,0,0,.2-1.22v-4.35h1.28v8H202l-.08-1.21a2.5,2.5,0,0,1-1.12,1A4,4,0,0,1,199.08,127.62Z"/><path class="cls-35" d="M210.73,122.29a1.88,1.88,0,0,0-.48-1.38,1.8,1.8,0,0,0-1.36-.49,2.64,2.64,0,0,0-1.41.36,2.11,2.11,0,0,0-.84,1.16l-1-.64a2.78,2.78,0,0,1,1.18-1.45,4.36,4.36,0,0,1,3.71-.25,2.39,2.39,0,0,1,1.11.89A2.65,2.65,0,0,1,212,122v3.87c0,.38.2.58.61.58a2.33,2.33,0,0,0,.59-.08l-.06,1a1.83,1.83,0,0,1-.83.16,2.07,2.07,0,0,1-.84-.17,1.35,1.35,0,0,1-.57-.54,1.76,1.76,0,0,1-.21-.9v-.16l.32,0a2.11,2.11,0,0,1-.66,1,3.13,3.13,0,0,1-1,.58,3.75,3.75,0,0,1-1.13.18,3.51,3.51,0,0,1-1.31-.24,2.11,2.11,0,0,1-1-.73,2,2,0,0,1-.36-1.2,2,2,0,0,1,.6-1.49,3.26,3.26,0,0,1,1.67-.79l3.17-.62v1l-2.58.53a3.1,3.1,0,0,0-1.17.45,1,1,0,0,0-.38.8,1,1,0,0,0,.39.81,1.73,1.73,0,0,0,1.11.31,3.24,3.24,0,0,0,.89-.12A2.24,2.24,0,0,0,210,126a1.67,1.67,0,0,0,.53-.62,1.91,1.91,0,0,0,.19-.89Z"/><path class="cls-35" d="M216.33,115.78v9.65a1.22,1.22,0,0,0,.23.84,1,1,0,0,0,.72.23,2,2,0,0,0,.52,0,5.18,5.18,0,0,0,.56-.17l-.2,1.12a2.58,2.58,0,0,1-.56.16,3.36,3.36,0,0,1-.63.06,1.83,1.83,0,0,1-1.45-.53,2.38,2.38,0,0,1-.47-1.61v-9.7Z"/><path class="cls-35" d="M220.65,117.92a.9.9,0,0,1-.69-.26,1,1,0,0,1,0-1.39.9.9,0,0,1,.69-.27.94.94,0,0,1,.7.27,1.06,1.06,0,0,1,0,1.39A.94.94,0,0,1,220.65,117.92Zm.64,1.54v8H220v-8Z"/><path class="cls-35" d="M223.69,127.46v-1l4.19-4.92,1-1-1.42,0h-3.73v-1.1h6.58v1l-4.2,4.91-1,1,1.55,0h3.76v1.1Z"/></g><g class="cls-34"><path class="cls-35" d="M237.58,122.29a1.88,1.88,0,0,0-.48-1.38,1.81,1.81,0,0,0-1.36-.49,2.59,2.59,0,0,0-1.41.36,2.08,2.08,0,0,0-.85,1.16l-1-.64a2.82,2.82,0,0,1,1.18-1.45,4.38,4.38,0,0,1,3.72-.25,2.44,2.44,0,0,1,1.11.89,2.73,2.73,0,0,1,.41,1.55v3.87a.52.52,0,0,0,.6.58,2.41,2.41,0,0,0,.6-.08l-.07,1a1.81,1.81,0,0,1-.83.16,2,2,0,0,1-.83-.17,1.32,1.32,0,0,1-.58-.54,1.76,1.76,0,0,1-.21-.9v-.16l.32,0a2,2,0,0,1-.65,1,3.23,3.23,0,0,1-1,.58,3.82,3.82,0,0,1-1.14.18,3.51,3.51,0,0,1-1.31-.24,2.11,2.11,0,0,1-1-.73,2,2,0,0,1-.36-1.2A2,2,0,0,1,233,124a3.3,3.3,0,0,1,1.67-.79l3.17-.62v1l-2.57.53a3,3,0,0,0-1.17.45.94.94,0,0,0-.39.8,1,1,0,0,0,.4.81,1.73,1.73,0,0,0,1.11.31,3.3,3.3,0,0,0,.89-.12,2.34,2.34,0,0,0,.76-.37,1.65,1.65,0,0,0,.52-.62,1.92,1.92,0,0,0,.2-.89Z"/></g><g class="cls-34"><path class="cls-35" d="M251.52,119.46v1.1h-5.79v-1.1Zm-2.91-2.27v8.06a1.07,1.07,0,0,0,.34.88,1.23,1.23,0,0,0,.86.29,1.78,1.78,0,0,0,.8-.16,2.17,2.17,0,0,0,.61-.43l.45,1.07a2.94,2.94,0,0,1-.87.53,3.25,3.25,0,0,1-1.16.19,3,3,0,0,1-1.14-.21,1.89,1.89,0,0,1-.84-.69,2.3,2.3,0,0,1-.33-1.24v-7.94Z"/><path class="cls-35" d="M256.32,127.62a3.5,3.5,0,0,1-1.44-.29,2.39,2.39,0,0,1-1.11-.93,3.09,3.09,0,0,1-.42-1.69v-5.25h1.28v4.91a2.1,2.1,0,0,0,.53,1.67,2.15,2.15,0,0,0,1.48.46,2.62,2.62,0,0,0,.88-.15,2.12,2.12,0,0,0,.78-.48,2.26,2.26,0,0,0,.54-.84,3.22,3.22,0,0,0,.2-1.22v-4.35h1.28v8H259.2l-.08-1.21a2.5,2.5,0,0,1-1.12,1A4,4,0,0,1,256.32,127.62Z"/><path class="cls-35" d="M266.18,127.62a4.57,4.57,0,0,1-2.15-.5,3.47,3.47,0,0,1-1.51-1.4l1.08-.79a2.64,2.64,0,0,0,1,1.15,3.05,3.05,0,0,0,1.64.42,2.3,2.3,0,0,0,1.32-.33,1,1,0,0,0,.48-.85,1,1,0,0,0-.21-.62,1.4,1.4,0,0,0-.83-.41l-1.92-.4a3,3,0,0,1-1.67-.8,2,2,0,0,1-.5-1.39,2.05,2.05,0,0,1,.37-1.2,2.64,2.64,0,0,1,1.08-.87,3.78,3.78,0,0,1,1.64-.33,4.11,4.11,0,0,1,2,.46,2.87,2.87,0,0,1,1.21,1.32l-1.07.7a1.88,1.88,0,0,0-.88-1,2.79,2.79,0,0,0-2.25-.17,1.39,1.39,0,0,0-.62.44,1,1,0,0,0-.22.63,1,1,0,0,0,.24.65,1.46,1.46,0,0,0,.9.42l2,.42a2.81,2.81,0,0,1,1.57.74,1.84,1.84,0,0,1,.44,1.24,2.23,2.23,0,0,1-.4,1.33,2.61,2.61,0,0,1-1.12.87A4.28,4.28,0,0,1,266.18,127.62Z"/><path class="cls-35" d="M280.5,119.3a3.88,3.88,0,0,1,1.46.26,3.16,3.16,0,0,1,1.1.73,3.76,3.76,0,0,1,.75,1.14l-1.21.57a2.44,2.44,0,0,0-.78-1.17,2.15,2.15,0,0,0-1.35-.41,2.56,2.56,0,0,0-1.38.36,2.32,2.32,0,0,0-.88,1,4.61,4.61,0,0,0,0,3.27,2.29,2.29,0,0,0,.88,1,2.56,2.56,0,0,0,1.38.36,2.78,2.78,0,0,0,1.08-.19,2,2,0,0,0,.75-.56,2.13,2.13,0,0,0,.41-.9l1.18.42a3.92,3.92,0,0,1-.74,1.26,3.3,3.3,0,0,1-1.14.81,3.8,3.8,0,0,1-1.51.28,3.91,3.91,0,0,1-2-.5,3.4,3.4,0,0,1-1.38-1.43,5.32,5.32,0,0,1,0-4.46,3.4,3.4,0,0,1,1.38-1.43A4,4,0,0,1,280.5,119.3Z"/><path class="cls-35" d="M289.46,119.3a4,4,0,0,1,2,.5,3.5,3.5,0,0,1,1.37,1.43,5.32,5.32,0,0,1,0,4.46,3.5,3.5,0,0,1-1.37,1.43,4.27,4.27,0,0,1-4,0,3.4,3.4,0,0,1-1.38-1.43,5.32,5.32,0,0,1,0-4.46,3.4,3.4,0,0,1,1.38-1.43A4,4,0,0,1,289.46,119.3Zm0,1.11a2.57,2.57,0,0,0-1.39.36,2.42,2.42,0,0,0-.89,1,4.47,4.47,0,0,0,0,3.27,2.39,2.39,0,0,0,.89,1.06,2.8,2.8,0,0,0,2.78,0,2.39,2.39,0,0,0,.89-1.06,4.47,4.47,0,0,0,0-3.27,2.42,2.42,0,0,0-.89-1A2.57,2.57,0,0,0,289.46,120.41Z"/><path class="cls-35" d="M295.75,127.46v-8h1.12l.11,1.79-.21-.17a2.79,2.79,0,0,1,.69-1,2.54,2.54,0,0,1,1-.56,3.88,3.88,0,0,1,1.18-.18,3.63,3.63,0,0,1,1.56.33,2.6,2.6,0,0,1,1.13,1,3.19,3.19,0,0,1,.43,1.71v5.12h-1.28v-4.67a2.44,2.44,0,0,0-.57-1.85,2,2,0,0,0-1.4-.52,2.65,2.65,0,0,0-1.15.27,2.25,2.25,0,0,0-1,.88,3.11,3.11,0,0,0-.37,1.64v4.25Z"/><path class="cls-35" d="M309,119.3a4,4,0,0,1,2,.5,3.44,3.44,0,0,1,1.37,1.43,5.32,5.32,0,0,1,0,4.46,3.44,3.44,0,0,1-1.37,1.43,3.9,3.9,0,0,1-2,.5,3.93,3.93,0,0,1-2-.5,3.44,3.44,0,0,1-1.37-1.43,5.22,5.22,0,0,1,0-4.46A3.44,3.44,0,0,1,307,119.8,4,4,0,0,1,309,119.3Zm0,1.11a2.59,2.59,0,0,0-1.39.36,2.49,2.49,0,0,0-.89,1,4.47,4.47,0,0,0,0,3.27,2.46,2.46,0,0,0,.89,1.06,2.6,2.6,0,0,0,1.39.37,2.55,2.55,0,0,0,1.39-.37,2.33,2.33,0,0,0,.89-1.06,4.34,4.34,0,0,0,0-3.27,2.35,2.35,0,0,0-.89-1A2.54,2.54,0,0,0,309,120.41Z"/><path class="cls-35" d="M318.56,119.3a3.9,3.9,0,0,1,1.47.26,3.12,3.12,0,0,1,1.09.73,4,4,0,0,1,.76,1.14l-1.22.57a2.38,2.38,0,0,0-.78-1.17,2.11,2.11,0,0,0-1.35-.41,2.52,2.52,0,0,0-1.37.36,2.26,2.26,0,0,0-.88,1,4.47,4.47,0,0,0,0,3.27,2.23,2.23,0,0,0,.88,1,2.52,2.52,0,0,0,1.37.36,2.71,2.71,0,0,0,1.08-.19,1.85,1.85,0,0,0,.75-.56,2,2,0,0,0,.41-.9l1.19.42a3.94,3.94,0,0,1-.75,1.26,3.17,3.17,0,0,1-1.13.81,3.85,3.85,0,0,1-1.52.28,3.93,3.93,0,0,1-2-.5,3.44,3.44,0,0,1-1.37-1.43,5.22,5.22,0,0,1,0-4.46,3.44,3.44,0,0,1,1.37-1.43A4,4,0,0,1,318.56,119.3Z"/><path class="cls-35" d="M324.85,117.92a.9.9,0,0,1-.69-.26,1,1,0,0,1,0-1.39.9.9,0,0,1,.69-.27.94.94,0,0,1,.7.27,1.06,1.06,0,0,1,0,1.39A.94.94,0,0,1,324.85,117.92Zm.64,1.54v8h-1.28v-8Z"/><path class="cls-35" d="M328.47,127.46v-8h1.12l.08,1.25a2.61,2.61,0,0,1,1.12-1.07,3.24,3.24,0,0,1,1.44-.34,3.55,3.55,0,0,1,1.6.38,2.65,2.65,0,0,1,1.15,1.19,2.33,2.33,0,0,1,.72-.89,3.32,3.32,0,0,1,1-.51,3.7,3.7,0,0,1,1.05-.17,3.57,3.57,0,0,1,1.47.32,2.78,2.78,0,0,1,1.14,1,3.07,3.07,0,0,1,.45,1.73v5.12h-1.28v-5a1.78,1.78,0,0,0-1.89-2,2.4,2.4,0,0,0-1.17.3,2.35,2.35,0,0,0-.87.9,3,3,0,0,0-.33,1.46v4.38H334v-5a2,2,0,0,0-.54-1.57,2,2,0,0,0-1.34-.48,2.29,2.29,0,0,0-1.08.28,2.24,2.24,0,0,0-.92.89,3,3,0,0,0-.37,1.6v4.27Z"/><path class="cls-35" d="M344.35,117.92a.9.9,0,0,1-1-1,1,1,0,1,1,1,1Zm.65,1.54v8h-1.29v-8Z"/><path class="cls-35" d="M351.31,127.62a4,4,0,0,1-2-.5,3.4,3.4,0,0,1-1.38-1.43,5.22,5.22,0,0,1,0-4.46,3.42,3.42,0,0,1,1.36-1.43,3.86,3.86,0,0,1,2-.5,3.65,3.65,0,0,1,1.92.48,3.2,3.2,0,0,1,1.2,1.3,4,4,0,0,1,.42,1.85,3.94,3.94,0,0,1,0,.5c0,.15,0,.28,0,.4h-6.47v-1.14h5.91l-.66.13a2.4,2.4,0,0,0-.63-1.78,2.27,2.27,0,0,0-1.66-.62,2.47,2.47,0,0,0-1.35.36,2.38,2.38,0,0,0-.88,1,4.4,4.4,0,0,0,0,3.27,2.33,2.33,0,0,0,.9,1,2.63,2.63,0,0,0,1.4.36,2.73,2.73,0,0,0,1.43-.33,2.53,2.53,0,0,0,.89-.92l1,.59a3.25,3.25,0,0,1-.78,1,3.38,3.38,0,0,1-1.1.62A4.46,4.46,0,0,1,351.31,127.62Z"/></g><g class="cls-34"><path class="cls-35" d="M357.68,127.46v-8h1.12l.12,1.79-.21-.17a2.79,2.79,0,0,1,.69-1,2.47,2.47,0,0,1,1-.56,3.82,3.82,0,0,1,1.17-.18,3.65,3.65,0,0,1,1.57.33,2.66,2.66,0,0,1,1.13,1,3.19,3.19,0,0,1,.42,1.71v5.12h-1.28v-4.67a2.44,2.44,0,0,0-.57-1.85,2,2,0,0,0-1.4-.52,2.72,2.72,0,0,0-1.15.27,2.28,2.28,0,0,0-1,.88,3.11,3.11,0,0,0-.38,1.64v4.25Z"/></g><g class="cls-34"><path class="cls-35" d="M372.27,119.46v1.1h-5.79v-1.1Zm-2.91-2.27v8.06a1.07,1.07,0,0,0,.34.88,1.23,1.23,0,0,0,.86.29,1.78,1.78,0,0,0,.8-.16,2.17,2.17,0,0,0,.61-.43l.45,1.07a2.94,2.94,0,0,1-.87.53,3.25,3.25,0,0,1-1.16.19,3,3,0,0,1-1.14-.21,1.89,1.89,0,0,1-.84-.69,2.3,2.3,0,0,1-.33-1.24v-7.94Z"/><path class="cls-35" d="M377.49,119.3a4,4,0,0,1,2,.5,3.44,3.44,0,0,1,1.37,1.43,5.32,5.32,0,0,1,0,4.46,3.44,3.44,0,0,1-1.37,1.43,4.27,4.27,0,0,1-4,0,3.4,3.4,0,0,1-1.38-1.43,5.32,5.32,0,0,1,0-4.46,3.4,3.4,0,0,1,1.38-1.43A4,4,0,0,1,377.49,119.3Zm0,1.11a2.57,2.57,0,0,0-1.39.36,2.42,2.42,0,0,0-.89,1,4.47,4.47,0,0,0,0,3.27,2.39,2.39,0,0,0,.89,1.06,2.8,2.8,0,0,0,2.78,0,2.39,2.39,0,0,0,.89-1.06,4.47,4.47,0,0,0,0-3.27,2.42,2.42,0,0,0-.89-1A2.57,2.57,0,0,0,377.49,120.41Z"/><path class="cls-35" d="M386.66,127.62a4.57,4.57,0,0,1-2.15-.5,3.56,3.56,0,0,1-1.52-1.4l1.09-.79a2.68,2.68,0,0,0,1,1.15,3.08,3.08,0,0,0,1.64.42,2.31,2.31,0,0,0,1.33-.33,1,1,0,0,0,.48-.85,1,1,0,0,0-.21-.62,1.4,1.4,0,0,0-.83-.41l-1.92-.4a3,3,0,0,1-1.67-.8,2,2,0,0,1-.5-1.39,2.05,2.05,0,0,1,.37-1.2,2.67,2.67,0,0,1,1.07-.87,3.81,3.81,0,0,1,1.64-.33,4.08,4.08,0,0,1,2,.46,2.89,2.89,0,0,1,1.22,1.32l-1.07.7a1.92,1.92,0,0,0-.88-1,2.64,2.64,0,0,0-1.27-.33,2.61,2.61,0,0,0-1,.16,1.39,1.39,0,0,0-.62.44,1,1,0,0,0-.22.63,1,1,0,0,0,.24.65,1.46,1.46,0,0,0,.9.42l2,.42a2.78,2.78,0,0,1,1.56.74,1.8,1.8,0,0,1,.45,1.24,2.23,2.23,0,0,1-.4,1.33,2.67,2.67,0,0,1-1.12.87A4.28,4.28,0,0,1,386.66,127.62Z"/><path class="cls-35" d="M401,119.3a3.88,3.88,0,0,1,1.46.26,3.16,3.16,0,0,1,1.1.73,3.76,3.76,0,0,1,.75,1.14l-1.22.57a2.43,2.43,0,0,0-.77-1.17,2.15,2.15,0,0,0-1.35-.41,2.53,2.53,0,0,0-1.38.36,2.32,2.32,0,0,0-.88,1,4.61,4.61,0,0,0,0,3.27,2.29,2.29,0,0,0,.88,1,2.53,2.53,0,0,0,1.38.36,2.78,2.78,0,0,0,1.08-.19,2,2,0,0,0,.75-.56,2.26,2.26,0,0,0,.41-.9l1.18.42a3.92,3.92,0,0,1-.74,1.26,3.3,3.3,0,0,1-1.14.81,3.8,3.8,0,0,1-1.51.28,3.88,3.88,0,0,1-2-.5,3.4,3.4,0,0,1-1.38-1.43,5.32,5.32,0,0,1,0-4.46A3.4,3.4,0,0,1,399,119.8,4,4,0,0,1,401,119.3Z"/><path class="cls-35" d="M409.94,119.3a4,4,0,0,1,2,.5,3.42,3.42,0,0,1,1.36,1.43,5.22,5.22,0,0,1,0,4.46,3.42,3.42,0,0,1-1.36,1.43,4,4,0,0,1-2,.5,3.88,3.88,0,0,1-2-.5,3.4,3.4,0,0,1-1.38-1.43,5.32,5.32,0,0,1,0-4.46,3.4,3.4,0,0,1,1.38-1.43A4,4,0,0,1,409.94,119.3Zm0,1.11a2.54,2.54,0,0,0-1.39.36,2.42,2.42,0,0,0-.89,1,4.47,4.47,0,0,0,0,3.27,2.39,2.39,0,0,0,.89,1.06,2.8,2.8,0,0,0,2.78,0,2.46,2.46,0,0,0,.89-1.06,4.47,4.47,0,0,0,0-3.27,2.49,2.49,0,0,0-.89-1A2.57,2.57,0,0,0,409.94,120.41Z"/><path class="cls-35" d="M416.22,127.46v-8h1.12l.12,1.79-.21-.17a2.79,2.79,0,0,1,.69-1,2.47,2.47,0,0,1,1-.56,3.86,3.86,0,0,1,1.17-.18,3.65,3.65,0,0,1,1.57.33,2.6,2.6,0,0,1,1.13,1,3.19,3.19,0,0,1,.42,1.71v5.12H422v-4.67a2.44,2.44,0,0,0-.57-1.85,2,2,0,0,0-1.4-.52,2.72,2.72,0,0,0-1.15.27,2.28,2.28,0,0,0-.95.88,3.11,3.11,0,0,0-.38,1.64v4.25Z"/></g><g class="cls-34"><path class="cls-35" d="M156.51,146.82a4.12,4.12,0,0,1-2-.49,3.43,3.43,0,0,1-1.38-1.44,5.22,5.22,0,0,1,0-4.46,3.42,3.42,0,0,1,1.36-1.43,3.9,3.9,0,0,1,2-.5,3.64,3.64,0,0,1,1.91.48,3.18,3.18,0,0,1,1.21,1.31,4,4,0,0,1,.41,1.84c0,.18,0,.35,0,.5a4,4,0,0,1,0,.4h-6.46v-1.14h5.9l-.66.13a2.36,2.36,0,0,0-.63-1.77,2.23,2.23,0,0,0-1.65-.63A2.49,2.49,0,0,0,155,140a2.45,2.45,0,0,0-.88,1,4,4,0,0,0-.31,1.64,3.88,3.88,0,0,0,.32,1.63,2.41,2.41,0,0,0,.91,1.05,2.58,2.58,0,0,0,1.4.36,2.78,2.78,0,0,0,1.43-.33,2.62,2.62,0,0,0,.89-.92l1,.59a3.39,3.39,0,0,1-.77,1,3.43,3.43,0,0,1-1.11.62A4.44,4.44,0,0,1,156.51,146.82Z"/></g><g class="cls-34"><path class="cls-35" d="M168.63,138.66l-3.17,4.27h-.08l-2.75,3.73h-1.49l3.49-4.59h.09l2.4-3.41Zm-5.7,0,2.39,3.34.08.12,3.28,4.54h-1.57l-2.48-3.47-.15-.18-3.15-4.35Z"/><path class="cls-35" d="M170.69,150V138.66h1.12l.11,2-.17-.22a2.72,2.72,0,0,1,.62-1,2.84,2.84,0,0,1,1-.67,3.35,3.35,0,0,1,1.28-.24,3.44,3.44,0,0,1,1.8.5,3.56,3.56,0,0,1,1.32,1.42,4.72,4.72,0,0,1,.5,2.24,4.56,4.56,0,0,1-.51,2.23,3.57,3.57,0,0,1-1.33,1.44,3.54,3.54,0,0,1-1.83.49,3,3,0,0,1-1.73-.49,2.71,2.71,0,0,1-1.07-1.24l.16-.24V150Zm3.79-4.32a2.24,2.24,0,0,0,1.85-.83,3.47,3.47,0,0,0,.67-2.21,3.52,3.52,0,0,0-.65-2.21,2.18,2.18,0,0,0-1.82-.83,2.39,2.39,0,0,0-1.34.38,2.44,2.44,0,0,0-.9,1.05,3.82,3.82,0,0,0-.32,1.61,4,4,0,0,0,.31,1.6,2.52,2.52,0,0,0,.88,1.07A2.34,2.34,0,0,0,174.48,145.7Z"/><path class="cls-35" d="M184.07,146.82a4.12,4.12,0,0,1-2-.49,3.43,3.43,0,0,1-1.38-1.44,5.22,5.22,0,0,1,0-4.46A3.42,3.42,0,0,1,182,139a3.9,3.9,0,0,1,2-.5,3.64,3.64,0,0,1,1.91.48,3.18,3.18,0,0,1,1.21,1.31,4.08,4.08,0,0,1,.41,1.84c0,.18,0,.35,0,.5a4,4,0,0,1,0,.4H181v-1.14h5.9l-.66.13a2.36,2.36,0,0,0-.63-1.77,2.23,2.23,0,0,0-1.65-.63,2.49,2.49,0,0,0-1.36.36,2.38,2.38,0,0,0-.88,1,4,4,0,0,0-.31,1.64,3.88,3.88,0,0,0,.32,1.63,2.35,2.35,0,0,0,.91,1.05,2.58,2.58,0,0,0,1.4.36,2.78,2.78,0,0,0,1.43-.33,2.62,2.62,0,0,0,.89-.92l1,.59a3.39,3.39,0,0,1-.77,1,3.54,3.54,0,0,1-1.11.62A4.44,4.44,0,0,1,184.07,146.82Z"/></g><g class="cls-34"><path class="cls-35" d="M190.06,146.66v-8h1l.18,1.31a2.3,2.3,0,0,1,1-1.1,3.13,3.13,0,0,1,1.58-.37l.46,0a1.29,1.29,0,0,1,.42.13l-.22,1.17a2.22,2.22,0,0,0-.39-.1,4.37,4.37,0,0,0-.59,0,2,2,0,0,0-1,.29,2.2,2.2,0,0,0-.84.87,3,3,0,0,0-.34,1.48v4.32Z"/></g><g class="cls-34"><path class="cls-35" d="M200.91,138.66v1.1h-5.79v-1.1ZM198,136.39v8.06a1.07,1.07,0,0,0,.34.88,1.23,1.23,0,0,0,.86.29,1.78,1.78,0,0,0,.8-.16,2.17,2.17,0,0,0,.61-.43l.45,1.07a2.75,2.75,0,0,1-.87.53,3.25,3.25,0,0,1-1.16.19,3,3,0,0,1-1.14-.21,1.89,1.89,0,0,1-.84-.69,2.3,2.3,0,0,1-.33-1.24v-7.94Z"/><path class="cls-35" d="M206.13,138.5a4,4,0,0,1,2,.5,3.5,3.5,0,0,1,1.37,1.43,5.32,5.32,0,0,1,0,4.46,3.53,3.53,0,0,1-1.37,1.44,4.35,4.35,0,0,1-4,0,3.43,3.43,0,0,1-1.38-1.44,5.32,5.32,0,0,1,0-4.46,3.4,3.4,0,0,1,1.38-1.43A4,4,0,0,1,206.13,138.5Zm0,1.11a2.57,2.57,0,0,0-1.39.36,2.42,2.42,0,0,0-.89,1.05,4.47,4.47,0,0,0,0,3.27,2.39,2.39,0,0,0,.89,1.06,2.8,2.8,0,0,0,2.78,0,2.39,2.39,0,0,0,.89-1.06,4.47,4.47,0,0,0,0-3.27,2.42,2.42,0,0,0-.89-1.05A2.57,2.57,0,0,0,206.13,139.61Z"/><path class="cls-35" d="M215.3,146.82a4.69,4.69,0,0,1-2.15-.49,3.58,3.58,0,0,1-1.52-1.41l1.09-.79a2.76,2.76,0,0,0,1,1.16,3.17,3.17,0,0,0,1.64.41,2.31,2.31,0,0,0,1.33-.33,1,1,0,0,0,.48-.85,1,1,0,0,0-.21-.62,1.4,1.4,0,0,0-.83-.41l-1.92-.4a3,3,0,0,1-1.67-.8,2,2,0,0,1-.5-1.39,2.05,2.05,0,0,1,.37-1.2,2.67,2.67,0,0,1,1.07-.87,3.81,3.81,0,0,1,1.64-.33,4.08,4.08,0,0,1,2,.46,2.89,2.89,0,0,1,1.22,1.32l-1.07.7a1.92,1.92,0,0,0-.88-1,2.64,2.64,0,0,0-1.27-.33,2.61,2.61,0,0,0-1,.16,1.39,1.39,0,0,0-.62.44,1,1,0,0,0-.22.63,1,1,0,0,0,.24.65,1.46,1.46,0,0,0,.9.42l2,.42a2.78,2.78,0,0,1,1.56.74,1.81,1.81,0,0,1,.45,1.25,2.22,2.22,0,0,1-.4,1.32,2.67,2.67,0,0,1-1.12.87A4.28,4.28,0,0,1,215.3,146.82Z"/><path class="cls-35" d="M229.65,146.82a4.12,4.12,0,0,1-2-.49,3.43,3.43,0,0,1-1.38-1.44,5.32,5.32,0,0,1,0-4.46A3.48,3.48,0,0,1,227.6,139a3.9,3.9,0,0,1,2-.5,3.61,3.61,0,0,1,1.91.48,3.18,3.18,0,0,1,1.21,1.31,4,4,0,0,1,.42,1.84c0,.18,0,.35,0,.5a4,4,0,0,1-.05.4h-6.46v-1.14h5.9l-.65.13a2.37,2.37,0,0,0-.64-1.77,2.23,2.23,0,0,0-1.65-.63,2.43,2.43,0,0,0-1.35.36,2.4,2.4,0,0,0-.89,1,4,4,0,0,0-.31,1.64,3.88,3.88,0,0,0,.32,1.63,2.41,2.41,0,0,0,.91,1.05,2.6,2.6,0,0,0,1.4.36,2.78,2.78,0,0,0,1.43-.33,2.62,2.62,0,0,0,.89-.92l1,.59a3.6,3.6,0,0,1-.78,1,3.49,3.49,0,0,1-1.1.62A4.55,4.55,0,0,1,229.65,146.82Z"/><path class="cls-35" d="M235.54,146.66v-8h1.12l.11,1.79-.21-.17a2.67,2.67,0,0,1,.69-1,2.44,2.44,0,0,1,1-.57,3.86,3.86,0,0,1,1.17-.18,3.65,3.65,0,0,1,1.57.33,2.6,2.6,0,0,1,1.13,1,3.19,3.19,0,0,1,.42,1.71v5.12h-1.28V142a2.44,2.44,0,0,0-.56-1.85,2,2,0,0,0-1.4-.52,2.65,2.65,0,0,0-1.15.27,2.25,2.25,0,0,0-1,.88,3.11,3.11,0,0,0-.37,1.64v4.25Z"/><path class="cls-35" d="M254.24,146.82a4.06,4.06,0,0,1-2-.49,3.39,3.39,0,0,1-1.39-1.44,5.32,5.32,0,0,1,0-4.46,3.48,3.48,0,0,1,1.36-1.43,3.9,3.9,0,0,1,2-.5,3.61,3.61,0,0,1,1.91.48,3.18,3.18,0,0,1,1.21,1.31,4,4,0,0,1,.42,1.84c0,.18,0,.35,0,.5a4,4,0,0,1-.05.4h-6.46v-1.14h5.9l-.65.13a2.36,2.36,0,0,0-.63-1.77,2.27,2.27,0,0,0-1.66-.63,2.47,2.47,0,0,0-1.35.36,2.32,2.32,0,0,0-.88,1,3.87,3.87,0,0,0-.32,1.64,3.73,3.73,0,0,0,.33,1.63,2.33,2.33,0,0,0,.9,1.05,2.63,2.63,0,0,0,1.4.36,2.75,2.75,0,0,0,1.43-.33,2.62,2.62,0,0,0,.89-.92l1,.59a3.42,3.42,0,0,1-.78,1,3.38,3.38,0,0,1-1.1.62A4.51,4.51,0,0,1,254.24,146.82Z"/></g><g class="cls-34"><path class="cls-35" d="M260.38,146.66v-8h1.12l.12,1.79-.21-.17a2.67,2.67,0,0,1,.69-1,2.38,2.38,0,0,1,1-.57,3.82,3.82,0,0,1,1.17-.18,3.65,3.65,0,0,1,1.57.33,2.66,2.66,0,0,1,1.13,1,3.19,3.19,0,0,1,.42,1.71v5.12h-1.28V142a2.44,2.44,0,0,0-.57-1.85,2,2,0,0,0-1.4-.52,2.72,2.72,0,0,0-1.15.27,2.28,2.28,0,0,0-.95.88,3.11,3.11,0,0,0-.38,1.64v4.25Z"/></g><g class="cls-34"><path class="cls-35" d="M274.75,138.66v1.1H269.2v-1.1Zm-1.33-3.76a2.9,2.9,0,0,1,.79.1,1.38,1.38,0,0,1,.57.27l-.33,1a1.33,1.33,0,0,0-.42-.19,2.57,2.57,0,0,0-.5-.05,1.61,1.61,0,0,0-1.07.33,1.32,1.32,0,0,0-.38,1v9.21H270.8v-9.34a2.8,2.8,0,0,1,.16-1,2,2,0,0,1,.49-.77,2.09,2.09,0,0,1,.82-.49A3.35,3.35,0,0,1,273.42,134.9Z"/></g><g class="cls-34"><path class="cls-35" d="M279.58,146.82a4.12,4.12,0,0,1-2-.49,3.43,3.43,0,0,1-1.38-1.44,5.22,5.22,0,0,1,0-4.46,3.42,3.42,0,0,1,1.36-1.43,3.9,3.9,0,0,1,2-.5,3.64,3.64,0,0,1,1.91.48,3.18,3.18,0,0,1,1.21,1.31,4,4,0,0,1,.41,1.84c0,.18,0,.35,0,.5a4,4,0,0,1,0,.4h-6.46v-1.14h5.9l-.66.13a2.36,2.36,0,0,0-.63-1.77,2.23,2.23,0,0,0-1.65-.63,2.49,2.49,0,0,0-1.36.36,2.45,2.45,0,0,0-.88,1,4,4,0,0,0-.31,1.64,3.88,3.88,0,0,0,.32,1.63,2.41,2.41,0,0,0,.91,1.05,2.6,2.6,0,0,0,1.4.36,2.78,2.78,0,0,0,1.43-.33,2.62,2.62,0,0,0,.89-.92l1,.59a3.39,3.39,0,0,1-.77,1,3.43,3.43,0,0,1-1.11.62A4.44,4.44,0,0,1,279.58,146.82Z"/><path class="cls-35" d="M285.47,146.66v-8h1l.17,1.31a2.32,2.32,0,0,1,1-1.1,3.07,3.07,0,0,1,1.57-.37l.46,0a1.29,1.29,0,0,1,.42.13l-.22,1.17a2.22,2.22,0,0,0-.39-.1,4.27,4.27,0,0,0-.59,0,2,2,0,0,0-1,.29,2.35,2.35,0,0,0-.84.87,3,3,0,0,0-.33,1.48v4.32Z"/><path class="cls-35" d="M292,146.66v-8h1.12l.08,1.25a2.64,2.64,0,0,1,1.13-1.07,3.2,3.2,0,0,1,1.43-.34,3.52,3.52,0,0,1,1.6.38,2.67,2.67,0,0,1,1.16,1.19,2.33,2.33,0,0,1,.72-.89,3.21,3.21,0,0,1,1-.51,3.7,3.7,0,0,1,1.05-.17,3.49,3.49,0,0,1,1.46.32,2.74,2.74,0,0,1,1.15,1,3.07,3.07,0,0,1,.45,1.73v5.12h-1.28v-5a2,2,0,0,0-.55-1.57,2,2,0,0,0-1.34-.48,2.26,2.26,0,0,0-2,1.2,3,3,0,0,0-.33,1.46v4.38h-1.28v-5a1.78,1.78,0,0,0-1.89-2,2.35,2.35,0,0,0-1.08.28,2.3,2.3,0,0,0-.92.89,3.1,3.1,0,0,0-.37,1.6v4.27Z"/><path class="cls-35" d="M310.59,146.82a4.09,4.09,0,0,1-2-.49,3.43,3.43,0,0,1-1.38-1.44,5.22,5.22,0,0,1,0-4.46,3.42,3.42,0,0,1,1.36-1.43,3.87,3.87,0,0,1,2-.5,3.64,3.64,0,0,1,1.91.48,3.18,3.18,0,0,1,1.21,1.31,4.08,4.08,0,0,1,.41,1.84c0,.18,0,.35,0,.5s0,.28,0,.4h-6.47v-1.14h5.91l-.66.13a2.36,2.36,0,0,0-.63-1.77,2.24,2.24,0,0,0-1.66-.63,2.47,2.47,0,0,0-1.35.36,2.38,2.38,0,0,0-.88,1,4.4,4.4,0,0,0,0,3.27,2.33,2.33,0,0,0,.9,1.05,2.63,2.63,0,0,0,1.4.36,2.79,2.79,0,0,0,1.44-.33,2.59,2.59,0,0,0,.88-.92l1,.59a3.39,3.39,0,0,1-.77,1,3.54,3.54,0,0,1-1.11.62A4.44,4.44,0,0,1,310.59,146.82Z"/><path class="cls-35" d="M319.59,146.82a3.47,3.47,0,0,1-3.15-1.93,4.68,4.68,0,0,1-.49-2.23,4.48,4.48,0,0,1,.52-2.25,3.68,3.68,0,0,1,1.4-1.42,3.63,3.63,0,0,1,1.85-.49,2.91,2.91,0,0,1,1.72.51,2.42,2.42,0,0,1,1,1.36l-.16.12V135h1.28v11.68h-1.12l-.11-1.93.17-.1a2.28,2.28,0,0,1-.53,1.19,2.81,2.81,0,0,1-1,.75A3.39,3.39,0,0,1,319.59,146.82Zm.13-1.12a2.39,2.39,0,0,0,1.34-.38,2.5,2.5,0,0,0,.88-1.1,4.08,4.08,0,0,0,.31-1.67,3.61,3.61,0,0,0-.31-1.57,2.4,2.4,0,0,0-.87-1,2.34,2.34,0,0,0-1.28-.35,2.3,2.3,0,0,0-1.89.83,3.41,3.41,0,0,0-.67,2.21,3.46,3.46,0,0,0,.65,2.21A2.22,2.22,0,0,0,319.72,145.7Z"/><path class="cls-35" d="M331.18,141.49a1.88,1.88,0,0,0-.48-1.38,1.81,1.81,0,0,0-1.36-.49,2.59,2.59,0,0,0-1.41.36,2.08,2.08,0,0,0-.85,1.16l-1-.64a2.8,2.8,0,0,1,1.19-1.45,4.36,4.36,0,0,1,3.71-.25,2.45,2.45,0,0,1,1.11.89,2.73,2.73,0,0,1,.41,1.55v3.87c0,.38.2.58.61.58a2.33,2.33,0,0,0,.59-.08l-.07,1a1.81,1.81,0,0,1-.83.16,2,2,0,0,1-.83-.17,1.32,1.32,0,0,1-.58-.54,1.76,1.76,0,0,1-.2-.9V145l.32,0a2.11,2.11,0,0,1-.66,1,3.23,3.23,0,0,1-1,.58,3.77,3.77,0,0,1-1.14.18,3.55,3.55,0,0,1-1.31-.24,2.16,2.16,0,0,1-1-.73,2.15,2.15,0,0,1,.24-2.68,3.23,3.23,0,0,1,1.68-.8l3.16-.62v1.05l-2.57.53a3,3,0,0,0-1.17.45.93.93,0,0,0-.38.8,1,1,0,0,0,.39.81,1.73,1.73,0,0,0,1.11.31,3.24,3.24,0,0,0,.89-.12,2.34,2.34,0,0,0,.76-.37,1.77,1.77,0,0,0,.53-.62,2,2,0,0,0,.19-.89Z"/><path class="cls-35" d="M338.68,146.82a3.47,3.47,0,0,1-3.15-1.93,4.68,4.68,0,0,1-.5-2.23,4.48,4.48,0,0,1,.53-2.25A3.65,3.65,0,0,1,337,139a3.7,3.7,0,0,1,1.86-.49,2.93,2.93,0,0,1,1.72.51,2.47,2.47,0,0,1,1,1.36l-.16.12V135h1.28v11.68H341.5l-.12-1.93.18-.1a2.28,2.28,0,0,1-.53,1.19,2.89,2.89,0,0,1-1,.75A3.43,3.43,0,0,1,338.68,146.82Zm.13-1.12a2.34,2.34,0,0,0,1.33-.38,2.51,2.51,0,0,0,.89-1.1,4.25,4.25,0,0,0,.31-1.67A3.76,3.76,0,0,0,341,141a2.28,2.28,0,0,0-2.16-1.36,2.28,2.28,0,0,0-1.88.83,3.41,3.41,0,0,0-.68,2.21,3.46,3.46,0,0,0,.66,2.21A2.22,2.22,0,0,0,338.81,145.7Z"/><path class="cls-35" d="M348.94,146.82a4.09,4.09,0,0,1-2-.49,3.43,3.43,0,0,1-1.38-1.44,5.22,5.22,0,0,1,0-4.46,3.42,3.42,0,0,1,1.36-1.43,3.87,3.87,0,0,1,2-.5,3.64,3.64,0,0,1,1.91.48,3.18,3.18,0,0,1,1.21,1.31,4.08,4.08,0,0,1,.41,1.84c0,.18,0,.35,0,.5a4,4,0,0,1-.05.4h-6.46v-1.14h5.9l-.66.13a2.36,2.36,0,0,0-.63-1.77,2.23,2.23,0,0,0-1.65-.63,2.49,2.49,0,0,0-1.36.36,2.38,2.38,0,0,0-.88,1,4.4,4.4,0,0,0,0,3.27,2.39,2.39,0,0,0,.9,1.05,2.64,2.64,0,0,0,1.41.36,2.78,2.78,0,0,0,1.43-.33,2.62,2.62,0,0,0,.89-.92l1,.59a3.39,3.39,0,0,1-.77,1,3.54,3.54,0,0,1-1.11.62A4.44,4.44,0,0,1,348.94,146.82Z"/><path class="cls-35" d="M357.71,146.82a4.76,4.76,0,0,1-2.16-.49,3.55,3.55,0,0,1-1.51-1.41l1.09-.79a2.7,2.7,0,0,0,1,1.16,3.14,3.14,0,0,0,1.64.41,2.31,2.31,0,0,0,1.33-.33,1,1,0,0,0,.48-.85,1,1,0,0,0-.22-.62,1.37,1.37,0,0,0-.82-.41l-1.92-.4a2.94,2.94,0,0,1-1.67-.8,2,2,0,0,1-.51-1.39,2.06,2.06,0,0,1,.38-1.2,2.67,2.67,0,0,1,1.07-.87,3.78,3.78,0,0,1,1.64-.33,4.08,4.08,0,0,1,2,.46,2.89,2.89,0,0,1,1.22,1.32l-1.07.7a2,2,0,0,0-.88-1,2.64,2.64,0,0,0-1.27-.33,2.61,2.61,0,0,0-1,.16,1.43,1.43,0,0,0-.63.44,1,1,0,0,0-.21.63,1,1,0,0,0,.24.65,1.46,1.46,0,0,0,.89.42l2,.42a2.78,2.78,0,0,1,1.57.74,1.81,1.81,0,0,1,.45,1.25,2.22,2.22,0,0,1-.4,1.32,2.67,2.67,0,0,1-1.12.87A4.31,4.31,0,0,1,357.71,146.82Z"/><path class="cls-35" d="M368.71,146.66v-8h1.12l.08,1.25a2.64,2.64,0,0,1,1.13-1.07,3.16,3.16,0,0,1,1.43-.34,3.52,3.52,0,0,1,1.6.38,2.67,2.67,0,0,1,1.16,1.19,2.33,2.33,0,0,1,.72-.89,3.1,3.1,0,0,1,1-.51,3.7,3.7,0,0,1,1.05-.17,3.49,3.49,0,0,1,1.46.32,2.74,2.74,0,0,1,1.15,1,3.07,3.07,0,0,1,.45,1.73v5.12h-1.28v-5a2,2,0,0,0-.55-1.57,2,2,0,0,0-1.34-.48,2.26,2.26,0,0,0-2,1.2,3,3,0,0,0-.33,1.46v4.38h-1.28v-5a1.78,1.78,0,0,0-1.89-2,2.35,2.35,0,0,0-1.08.28,2.3,2.3,0,0,0-.92.89,3.1,3.1,0,0,0-.37,1.6v4.27Z"/><path class="cls-35" d="M384.6,137.12a.9.9,0,0,1-.69-.26.92.92,0,0,1-.27-.69.94.94,0,0,1,.27-.7.9.9,0,0,1,.69-.26.94.94,0,0,1,.7.26,1,1,0,0,1,.26.7,1,1,0,0,1-.26.69A.94.94,0,0,1,384.6,137.12Zm.64,1.54v8H384v-8Z"/><path class="cls-35" d="M391.53,138.5a3.88,3.88,0,0,1,1.46.26,3.16,3.16,0,0,1,1.1.73,3.76,3.76,0,0,1,.75,1.14l-1.22.58a2.35,2.35,0,0,0-.77-1.18,2.15,2.15,0,0,0-1.35-.41,2.53,2.53,0,0,0-1.38.36,2.32,2.32,0,0,0-.88,1,4.61,4.61,0,0,0,0,3.27,2.29,2.29,0,0,0,.88,1.05,2.53,2.53,0,0,0,1.38.36,2.78,2.78,0,0,0,1.08-.19,2,2,0,0,0,.75-.56,2.13,2.13,0,0,0,.41-.9l1.18.42a3.92,3.92,0,0,1-.74,1.26,3.3,3.3,0,0,1-1.14.81,3.8,3.8,0,0,1-1.51.28,4,4,0,0,1-2-.49,3.43,3.43,0,0,1-1.38-1.44,5.32,5.32,0,0,1,0-4.46,3.4,3.4,0,0,1,1.38-1.43A4,4,0,0,1,391.53,138.5Z"/></g><g class="cls-34"><path class="cls-35" d="M400.85,138.5a4,4,0,0,1,2,.5,3.44,3.44,0,0,1,1.37,1.43,5.22,5.22,0,0,1,0,4.46,3.47,3.47,0,0,1-1.37,1.44,4.33,4.33,0,0,1-4,0,3.43,3.43,0,0,1-1.38-1.44,5.22,5.22,0,0,1,0-4.46,3.4,3.4,0,0,1,1.38-1.43A4,4,0,0,1,400.85,138.5Zm0,1.11a2.6,2.6,0,0,0-1.4.36,2.4,2.4,0,0,0-.88,1.05,4.34,4.34,0,0,0,0,3.27,2.37,2.37,0,0,0,.88,1.06,2.81,2.81,0,0,0,2.79,0,2.46,2.46,0,0,0,.89-1.06,4.47,4.47,0,0,0,0-3.27,2.49,2.49,0,0,0-.89-1.05A2.59,2.59,0,0,0,400.85,139.61Z"/></g><g class="cls-34"><path class="cls-35" d="M411.91,138.66v1.1h-5.79v-1.1ZM409,136.39v8.06a1.07,1.07,0,0,0,.34.88,1.23,1.23,0,0,0,.86.29,1.78,1.78,0,0,0,.8-.16,2.17,2.17,0,0,0,.61-.43l.45,1.07a2.75,2.75,0,0,1-.87.53,3.25,3.25,0,0,1-1.16.19,3,3,0,0,1-1.14-.21,1.89,1.89,0,0,1-.84-.69,2.3,2.3,0,0,1-.33-1.24v-7.94Z"/><path class="cls-35" d="M414.46,137.12a.94.94,0,0,1-.7-.26,1,1,0,0,1-.26-.69,1,1,0,0,1,.26-.7.94.94,0,0,1,.7-.26.9.9,0,0,1,.69.26.94.94,0,0,1,.27.7.92.92,0,0,1-.27.69A.9.9,0,0,1,414.46,137.12Zm.64,1.54v8h-1.28v-8Z"/><path class="cls-35" d="M421.39,138.5a3.88,3.88,0,0,1,1.46.26,3.16,3.16,0,0,1,1.1.73,4,4,0,0,1,.75,1.14l-1.22.58a2.42,2.42,0,0,0-.77-1.18,2.16,2.16,0,0,0-1.36-.41A2.52,2.52,0,0,0,420,140a2.26,2.26,0,0,0-.88,1,4.47,4.47,0,0,0,0,3.27,2.23,2.23,0,0,0,.88,1.05,2.52,2.52,0,0,0,1.37.36,2.71,2.71,0,0,0,1.08-.19,2,2,0,0,0,.76-.56,2.12,2.12,0,0,0,.4-.9l1.19.42a3.77,3.77,0,0,1-.75,1.26,3.17,3.17,0,0,1-1.13.81,3.8,3.8,0,0,1-1.51.28,4,4,0,0,1-2-.49,3.43,3.43,0,0,1-1.38-1.44,5.22,5.22,0,0,1,0-4.46,3.4,3.4,0,0,1,1.38-1.43A4,4,0,0,1,421.39,138.5Z"/><path class="cls-35" d="M431.71,141.49a1.88,1.88,0,0,0-.48-1.38,1.81,1.81,0,0,0-1.36-.49,2.59,2.59,0,0,0-1.41.36,2.08,2.08,0,0,0-.85,1.16l-1-.64a2.82,2.82,0,0,1,1.18-1.45,4.38,4.38,0,0,1,3.72-.25,2.51,2.51,0,0,1,1.11.89,2.73,2.73,0,0,1,.41,1.55v3.87a.52.52,0,0,0,.6.58,2.41,2.41,0,0,0,.6-.08l-.07,1a1.81,1.81,0,0,1-.83.16,2,2,0,0,1-.83-.17,1.32,1.32,0,0,1-.58-.54,1.76,1.76,0,0,1-.21-.9V145l.32,0a2,2,0,0,1-.65,1,3.23,3.23,0,0,1-1,.58,3.82,3.82,0,0,1-1.14.18,3.51,3.51,0,0,1-1.31-.24,2.11,2.11,0,0,1-1-.73,2.15,2.15,0,0,1,.24-2.68,3.23,3.23,0,0,1,1.67-.8l3.17-.62v1.05l-2.57.53a3,3,0,0,0-1.17.45.94.94,0,0,0-.39.8,1,1,0,0,0,.4.81,1.73,1.73,0,0,0,1.11.31,3.3,3.3,0,0,0,.89-.12,2.34,2.34,0,0,0,.76-.37,1.65,1.65,0,0,0,.52-.62,1.92,1.92,0,0,0,.2-.89Z"/><path class="cls-35" d="M439,146.82a4.69,4.69,0,0,1-2.15-.49,3.5,3.5,0,0,1-1.51-1.41l1.08-.79a2.72,2.72,0,0,0,1,1.16,3.14,3.14,0,0,0,1.64.41,2.3,2.3,0,0,0,1.32-.33,1,1,0,0,0,.48-.85,1,1,0,0,0-.21-.62,1.4,1.4,0,0,0-.83-.41l-1.92-.4a3,3,0,0,1-1.67-.8,2,2,0,0,1-.5-1.39,2.05,2.05,0,0,1,.37-1.2,2.64,2.64,0,0,1,1.08-.87,3.78,3.78,0,0,1,1.64-.33,4.13,4.13,0,0,1,2,.46,2.92,2.92,0,0,1,1.21,1.32L441,141a1.92,1.92,0,0,0-.88-1,2.79,2.79,0,0,0-2.25-.17,1.39,1.39,0,0,0-.62.44,1,1,0,0,0-.22.63,1,1,0,0,0,.24.65,1.46,1.46,0,0,0,.9.42l2,.42a2.81,2.81,0,0,1,1.57.74,1.85,1.85,0,0,1,.44,1.25,2.22,2.22,0,0,1-.4,1.32,2.61,2.61,0,0,1-1.12.87A4.28,4.28,0,0,1,439,146.82Z"/><path class="cls-35" d="M445.16,144.74a1.06,1.06,0,0,1,.75,1.79,1.11,1.11,0,0,1-1.5,0,1,1,0,0,1,.75-1.79Z"/></g></g><path class="cls-10" d="M523.53,398.37A4.66,4.66,0,0,1,522,402.2a4.54,4.54,0,0,1-4,.94,2.68,2.68,0,0,1-1.77-1.25"/><path class="cls-10" d="M515.92,401.52l-.21,1.72a5.56,5.56,0,0,1-.42,1.8,3,3,0,0,1-2.4,1.58,3.86,3.86,0,0,1-2.79-.86"/><path class="cls-9" d="M511.08,392.53l4.49,7.36a.22.22,0,0,1-.08.31.23.23,0,0,1-.31-.08h0l-4.65-7.24h0a.33.33,0,0,1,.16-.43.34.34,0,0,1,.39.08Z"/><path class="cls-9" d="M519.38,387.32a7.86,7.86,0,0,0,.49,2.09c.26.67.58,1.37.86,2.06l1.78,4.15a.15.15,0,0,1-.08.2h0a.13.13,0,0,1-.19-.07h0l-1.94-4.07c-.33-.69-.65-1.33-1-2.05a9,9,0,0,1-.6-2.28A.32.32,0,0,1,519,387h0a.33.33,0,0,1,.36.29h0Z"/><path class="cls-9" d="M504.16,400.15a23.15,23.15,0,0,0-.05,7.1,17.58,17.58,0,0,0,2.26,6.59c1.24,2,3,3.67,4.25,5.93a15,15,0,0,1,1.9,7.32h0a.87.87,0,0,1-1.73,0h0a13.24,13.24,0,0,0-1.49-6.62c-1-2.06-2.71-3.81-4-6a18.37,18.37,0,0,1-2.16-7.11,23.91,23.91,0,0,1,.31-7.36.36.36,0,0,1,.43-.29.37.37,0,0,1,.29.42Z"/></g></g></svg>