<?xml version="1.0" encoding="UTF-8"?>
<svg id="Dra_webinar" data-name="Dra webinar" xmlns="http://www.w3.org/2000/svg" viewBox="0 0 320 571">
  <defs>
    <style>
      .cls-1 {
        fill: #8c6239;
      }

      .cls-2 {
        fill: #e9a78e;
      }

      .cls-3 {
        fill: #fff;
      }

      .cls-4 {
        fill: #e6e6e6;
        opacity: .35;
      }

      .cls-5 {
        stroke: #c8c8c8;
      }

      .cls-5, .cls-6, .cls-7, .cls-8 {
        fill: none;
        stroke-miterlimit: 10;
      }

      .cls-9 {
        fill: #d3a37f;
      }

      .cls-10 {
        fill: #c7b299;
      }

      .cls-11 {
        fill: #8f5b27;
      }

      .cls-12 {
        fill: #efad99;
      }

      .cls-13 {
        fill: #784d23;
      }

      .cls-14 {
        fill: #e8c1a3;
      }

      .cls-15 {
        fill: #e4b895;
      }

      .cls-16 {
        fill: #5987bb;
      }

      .cls-17 {
        fill: #6293d4;
      }

      .cls-18 {
        fill: #322d26;
      }

      .cls-6 {
        stroke: #000;
      }

      .cls-6, .cls-8 {
        stroke-width: 2px;
      }

      .cls-19 {
        fill: #461e0a;
      }

      .cls-20 {
        fill: #fffffe;
      }

      .cls-21 {
        fill: #c8c8c8;
      }

      .cls-22 {
        fill: #e9c1a3;
      }

      .cls-23 {
        fill: #e9c0a3;
      }

      .cls-24 {
        fill: #050303;
      }

      .cls-25 {
        fill: #784d24;
      }

      .cls-7 {
        stroke: #e4b895;
        stroke-linecap: round;
      }

      .cls-26 {
        fill: #dcdae0;
      }

      .cls-27 {
        fill: #5381c0;
      }

      .cls-8 {
        stroke: #8c6239;
      }

      .cls-28 {
        fill: #a38161;
      }

      .cls-29 {
        fill: #e3e3e3;
      }
    </style>
  </defs>
  <ellipse class="cls-4" cx="161" cy="537.5" rx="147" ry="12.5"/>
  <path class="cls-10" d="m93.7,56.48h186.6c2.6,0,4.7,2.29,4.7,5.12v471.28c0,2.83-2.1,5.12-4.7,5.12H93.7c-2.6,0-4.7-2.29-4.7-5.12V61.6c0-2.83,2.1-5.12,4.7-5.12Z"/>
  <path class="cls-26" d="m110.3,67.37h159.4c2.37,0,4.3,2.1,4.3,4.68v461.26c0,2.59-1.93,4.68-4.3,4.68H110.3c-2.37,0-4.3-2.1-4.3-4.68V72.06c0-2.59,1.93-4.68,4.3-4.68Z"/>
  <path class="cls-25" d="m127.49,144.18s-38.26-11.87-59.37,25.07c0,0-9.74,21.63,11,62,4.18,8.17,10.54,15.03,18.38,19.8l39.22,23.74,23.75-10.56s-6.6-5.27-7.92-27.7c0,0,11.88-1.32,15.84-43.54,0,0-1.32-46.17-40.9-48.81Z"/>
  <path class="cls-3" d="m144.12,299.12c.37-.15.77-.2,1.17-.14.75.2,1,1.09,1.2,1.85,2.81,12.96,3.92,26.24,3.3,39.49-10.44-5.08-18.59-13.8-28.05-20.54-1.8-1.28-3.71-2.56-4.79-4.48-5.9-10.53,21.35-14.39,27.17-16.18Z"/>
  <path class="cls-23" d="m46.46,349.67c-4.76,1.39-11,1.3-13.41-3-.81-1.72-1.22-3.6-1.19-5.5-.45-8.72-.05-17.47,1.2-26.11,2.13-14.74,6.17-31.92,4.22-46.84,6.44-.14,12,1.33,18.16-.65.65,15.57-.54,29.42-1.14,44.11l4.64-.13c.85,0,3.58,24.11,3.39,26.41-.55,6.48-10.15,10.05-15.87,11.71Z"/>
  <path class="cls-14" d="m56.45,261.87c.79-1.8,2.2-3.14,3.12-4.88,3.83-7.22,4.15-13.53,4.34-21.7.05-.53-.01-1.07-.18-1.58-.92-2.29-5.93-1.33-7.56-3.18-.65-.74-.47-1.49-.59-2.47-.61-5.16-.39-10.57-1-15.74-.05-1.37-.49-2.7-1.28-3.83-.88-1-2.71-1.37-3.56-.31-.4.63-.59,1.36-.54,2.1-.27,6.9-.54,13.86.59,20.68-.57-1.33-1.42-2.53-2.49-3.51-1.12-.98-2.71-1.22-4.06-.6-1.1.71-1.76,1.95-1.74,3.26.04,1.29.3,2.56.77,3.76-1.03-.97-2.25-1.72-3.59-2.2-.42-.19-.89-.26-1.35-.18-.62.2-1.12.67-1.36,1.27-.89,1.8-.73,3.95.41,5.6-1.76-1.08-4.24-2-5.7-.5-1.07,1.08-.9,2.84-.66,4.35.15.95,1.59,1.85,1.39,2.8-.64,3.06-.63,1.83.52,8.61.59,3.44,3.23,4.68,4.22,8,.86,2.91.61,6.12,1,9.13.26,2.25.4,4.39.66,6.65.17.72,17.89-.2,17.89-.2-.07-1.44-.07-2.87,0-4.31.3-2.92-.47-8.27.75-11.02Z"/>
  <path class="cls-15" d="m54.3,231.18c-.2-1.91-.36-3.82-.49-5.75-.11-1.92-.26-3.83-.2-5.76.06-1.93.1-3.87.16-5.74.19-1.8-.25-3.62-1.24-5.14-.13-.18-.11-.43.06-.57.16-.14.39-.14.55,0,.69.77,1.19,1.69,1.46,2.69.26.96.42,1.95.47,2.94.12,2,.18,3.82.34,5.73s.21,3.79.36,5.68.31,3.78.52,5.67c.06.55-.34,1.05-.89,1.11-.55.06-1.05-.34-1.11-.89h0v.03Z"/>
  <path class="cls-7" d="m52.85,231.64c-.17.85-.1,1.72.2,2.53.67,1.34,2.46,1.71,3.36,2.91.63,1.04.86,2.27.66,3.47-.19,2.77-.72,5.51-1.57,8.15"/>
  <path class="cls-15" d="m51,237.05c-.06.8.54,1.67.83,2.71.23,1.05.13,2.14-.3,3.13-.09.21-.2.41-.32.61-.22.36-.52.65-.9.83-.18.08-.36.15-.55.2-.26.09-.53.14-.8.16-1.09.03-2.15-.32-3-1-.13-.12-.13-.33,0-.45,0,0,0,0,0,0,.1-.14.29-.17.43-.07,0,0,.02.01.03.02h0c1,1,2.54,1.21,3.77.52.33-.26.57-.61.71-1,.37-.84.45-1.79.23-2.68-.47-.91-.85-1.87-1.13-2.86h0c-.04-.27.15-.53.42-.57,0,0,0,0,0,0,.28-.04.53.16.57.43v.03Z"/>
  <path class="cls-7" d="m46.05,243.3c.07,1.09-.37,2.16-1.19,2.88-.83.7-1.94.96-3,.71-.56-.11-1.04-.46-1.33-.95"/>
  <path class="cls-7" d="m40.3,245.67l-.15,1.31c-.03.46-.14.92-.32,1.34-.36.68-1.03,1.13-1.8,1.2-.76.06-1.51-.18-2.1-.67"/>
  <path class="cls-15" d="m37,238.84l3.35,5.55c.07.12.03.28-.09.36-.12.07-.27.04-.35-.08h0l-3.53-5.41h0c-.12-.16-.08-.39.08-.5,0,0,.02-.01.03-.02.16-.11.38-.08.49.08,0,.01.01.02.02.03h0Z"/>
  <path class="cls-15" d="m43.06,234.99c.05.53.16,1.06.34,1.56l.64,1.55,1.3,3.14c.04.09,0,.19-.09.22,0,0,0,0-.01,0-.09.04-.19,0-.23-.09l-1.49-3c-.25-.52-.5-1-.75-1.55-.24-.56-.39-1.15-.46-1.75-.02-.2.12-.39.33-.41,0,0,0,0,0,0,.2-.02.39.12.41.33,0,0,0,0,0,.01h0v-.02Z"/>
  <path class="cls-15" d="m31.62,244.67c-.27,1.75-.27,3.53,0,5.28.24,1.71.83,3.36,1.72,4.84.91,1.43,2.28,2.72,3.24,4.45.98,1.72,1.5,3.67,1.51,5.65h0c0,.55-.45,1-1,1s-1-.45-1-1h0c.09-1.67-.25-3.33-1-4.83-.72-1.51-2-2.83-3-4.51-.91-1.69-1.46-3.55-1.61-5.46-.17-1.85-.07-3.72.32-5.54.04-.23.26-.38.49-.34s.38.26.34.49h0v-.03Z"/>
  <path class="cls-14" d="m57.15,231.11c-1.3-.77-2.92-.75-4.19.06-.07.04-.13.1-.18.16-.05.1-.07.2-.06.31,0,.59.07,1.17.2,1.74,1-.33,2.22-.47,3.25-.8.32-.09.62-.22.89-.41.24-.2.13-.73.09-1.06Z"/>
  <path class="cls-16" d="m164.64,445.81c-11.87-12.81-23.05-27.59-25.28-44.92,13.34-2.47,26.87-5,39-11,.69,5.33,1.02,10.7,1,16.08.21,11.69.43,23.41-.29,35.09-.15,2.59.13,14.81-2.66,15.26-2.95.45-9.92-8.52-11.77-10.51Z"/>
  <path class="cls-17" d="m180.83,390.55c-9.46,4.3-20.34,12.18-33.2,12.22-2.19,0-7.5,1.33-9.24,0-1.94-1.47-2.14-4.05-2.76-6.4-1.58-6-.91-12.48-1.2-18.67-.06-1.48-1.72-2.62-2.19-4-.42-1.13-.98-2.21-1.66-3.21-1.59-2.55-3.78-3.4-5.38-5.94-2.25-3.4-4.91-6.5-7.92-9.24-4.71-3.81-8.93-2.82-13.66-6.59-5.66-4.51-10.36-14-10.08-21.11-7.34,7.48-14.53,13.52-24.19,17.58-1.07.56-2.27.82-3.48.74-2.27-.34-3.56-2.7-4.44-4.81-1.44-3.46-2.66-7.01-3.67-10.62-2.31-8.29-5.12-14.58.16-21.36,3.08-3.55,6.63-6.66,10.55-9.24,8.02-5.03,16.52-9.25,25.38-12.58,8.92-3.3,13.12-.22,16.84-3.3.45.66.88,1.32,1.32,2,4.32,6.59,8.24,13,12.17,19.37,5.94,9.63,11.93,19,19.48,28.42-1.44-11-2.89-22.1-2.66-33.22v-1.4c.28-7.65,1.38-15.33.41-22.92-.16-.99-.24-2-.23-3h0c.01-.49.09-.97.23-1.44.61-1.91,2.35-3.2,4-4.3,6.45-4.12,13.38-7.41,20.64-9.81,2.73-1,10-3.8,11.87-1.32.77,1-.65,2.69,0,4,.87,1.68.83,3.77,1.78,5.41,5.37,9.31,3.23,20.93,4.49,31.62.88,7.54,3.53,14.81,4.42,22.37,2.82,23.64-12.09,47.21-7.78,70.75Z"/>
  <path class="cls-27" d="m90.76,324.93c.32,1.4,1.08,2.67,2.17,3.62l1.8-2c.16-.15.27-.34.32-.55,0-.33-.14-.64-.39-.85-1.19-1.37-2.27-2.83-3.22-4.37-.39-.62-1.89-4.39-2.46-4.49-1.78-.31,1.39,7.51,1.78,8.64Z"/>
  <ellipse class="cls-29" cx="115.72" cy="378.86" rx="8.02" ry="8.42" transform="translate(-132.1 69.81) rotate(-21.74)"/>
  <ellipse class="cls-21" cx="113.94" cy="378.71" rx="6.41" ry="6.82" transform="translate(-132.17 69.14) rotate(-21.74)"/>
  <rect class="cls-21" x="109.87" y="367.7" width="1.6" height="5.61" transform="translate(-129.36 67.34) rotate(-21.74)"/>
  <path class="cls-5" d="m156.18,313.55l-5.07,31.55s-1.21,8.28,4.14,11.54"/>
  <path class="cls-5" d="m175.81,313.73l1.24,33s.19,8.64-6,11.11"/>
  <path class="cls-6" d="m109.02,368.46s-23.72-54.09,1.28-85.76c9-11.33,31-15.44,42.12-8.29,4.17,2.61,7.31,6.57,8.88,11.23,1.12,3.38,3.1,10.72,3.18,14.21"/>
  <path class="cls-6" d="m155.96,314.82s-2.45-16.66,10.82-14.57c0-.05,10.47-2.26,9.37,14"/>
  <path class="cls-24" d="m169.82,355.98c-.69.01-1.37.16-2,.42-.65.3-1,1.01-.84,1.71.19.42.56.72,1,.83.44.09.9.12,1.35.06.79-.02,1.58-.13,2.35-.33.77-.2,1.47-.62,2-1.21.09-.1.15-.21.19-.34.13-.54-.37-1.71-.94-1.77-.52.06-1.04.19-1.53.39-.53.1-1.1.18-1.58.24Z"/>
  <path class="cls-24" d="m153.3,356.33c.27.37.59.7.93,1,.89.61,1.92.98,3,1.06.48.08.97.08,1.45,0,.49-.08.91-.4,1.12-.85.2-.78-.2-1.59-.94-1.92-1.27-.65-2.74-.48-4-1.17-.59-.34-1.35-.13-1.69.46-.26.45-.21,1.02.13,1.42Z"/>
  <path class="cls-23" d="m130.15,303.77c-1.47.42-3,.79-4.48,1.11-.57.15-1.16.19-1.74.12h-.1c-3.93-6.35-7.85-12.78-12.17-19.37-.36-1.51-.61-3.04-.76-4.58-.48-4.57-.71-9.18-.87-13.78,0-1-.73-5.61.32-6,.42-.16,2.18.88,2.67,1.07,1,.34,1.92.66,2.87,1,1.7.64,4.77.37,6.36,1.27.68.38,0,1.83.46,2.43.12.14.23.3.32.46.33.64.51,1.34.54,2.06.18,1.83.12,3.66.14,5.5.09,6.58,1.29,13.09,3.53,19.27,1.08,3,2.42,6,2.86,9.11.02.11.04.22.05.33Z"/>
  <path class="cls-23" d="m141,299.17v1.4c-3.23,1.28-6.53,2.37-9.88,3.26-.18.06-.38.06-.56,0-.04-.01-.08-.03-.11-.06-.16-.12-.27-.29-.33-.48-1.68-3.72-2.94-7.61-3.77-11.6-.39-1.76-.68-3.56-1.16-5.3-.64-2.27-1.61-4.48-1.8-6.85-.03-1.07,0-2.14.08-3.2.12-2,.12-4,0-6-.15-.97-.44-1.91-.86-2.79-.45-1.13.54-1.63,1.06-1.93,1.47-.86,3.76-1.1,5.39-1.73,1.8-.7,3.54-2.56,5.23-3.47-.26,3.58.14,7.18,1.18,10.61.37,1.09,1.05,2.33,2.21,2.43,1,.07,1.84-.77,2.83-.86.17-.03.34,0,.48.09.13.13.22.31.24.5h0c-.01,1,.07,2.01.23,3,.92,7.65-.18,15.36-.46,22.98Z"/>
  <path class="cls-22" d="m83.51,212.69l-.45-3.26c-.03-1.18-.34-2.33-.9-3.37-1.91-2.7-5.39-1.55-7.22.59-1.83,2.14-1.61,4.52-.82,7,.57,2.21,2.4,3.87,4.65,4.22,1.96.33,3.84-.96,4.23-2.91v-.11c.42-.64.6-1.4.51-2.16Z"/>
  <path class="cls-15" d="m81.28,210.6c-.04-.65-.18-1.3-.41-1.91-.14-.35-.45-.61-.82-.69h-.05v-1.21c0-.37-.1-.74-.3-1.06-.26-.34-.64-.56-1.06-.62-.63-.15-1.3-.12-1.91.11-.49.23-.94.55-1.34.93-.18.14-.32.34-.39.56-.08.23-.08.48,0,.71.17.4.55.67.98.69h0c.13,0,.26.02.39.05h0l.11.06h0l.14.12.29.29.09.09v.06c.08.1.16.2.23.31l.06.08c-.35.24-.65.54-.91.87-.67.87-.95,1.99-.77,3.08.46,2.17,2.22,3.8,4.39,4.08.58.1,1.13-.28,1.25-.87.15-1.29.2-2.6.14-3.9.04-.61-.02-1.22-.1-1.83Z"/>
  <path class="cls-23" d="m84.53,231.32c.4,3.55,1.08,7.06,2.06,10.49,1.71,6.28,5.41,11.84,10.55,15.83,5.53,4.53,13.19,7.36,20.25,8.49.59.14,1.21.14,1.8,0,1.42-.34,2.88-.53,4.34-.56,1-7.34-1.36-18-2.41-25.33-.28-2.94-1.13-5.79-2.5-8.41-.76-1.09-1.43-2.24-2-3.43-.55-1.82-.7-3.74-.43-5.62l2.11-29.23c.31-4.34.6-8.78-.56-13-.11-.6-.42-1.15-.89-1.54-.72-.33-1.55-.33-2.27,0-5.67,1.57-11.33,3.22-17,4.95-5,1.54-11.36,2.6-15.93,5.2-3.28,1.87-2.92,4.54-2.25,7.87,1,5.08,1.1,9.36,1.89,14.48,1.01,6.29,2.74,13.42,3.24,19.81Z"/>
  <path class="cls-22" d="m117.82,186.32l-.58,20.08c.04,3.8-.38,7.6-1.26,11.3-.62,2.19-1.57,4.31-1.83,6.57s.35,4.82,2.22,6.11c.64.34,1.24.74,1.79,1.21.88.94.85,2.37.79,3.65-.43,9.65.42,19.32,2.52,28.75.17.78.43,1.55.78,2.27.63.73,1.47-.6,2.38-.91,3.39-1.28,6.65-2.89,9.72-4.82,7.89-4.6,16.33-9.84,19.49-18.4,1.02-3.11,1.61-6.34,1.75-9.61.97-12.2.7-24.46-.8-36.6-.61-5-1.55-10.19-4.73-14.08-2-2.25-4.41-4.08-7.11-5.41-5.37-2.91-11.15-4.99-17.14-6.15-3.35-.65-7.49-1-8.26,3s.38,8.98.27,13.04Z"/>
  <path class="cls-22" d="m153.11,207.03l-.11-3.29c-.18-1.16-.08-2.35.3-3.47,1.42-3,5.05-2.46,7.22-.67,2.17,1.79,2.36,4.18,2,6.77-.16,2.29-1.68,4.26-3.85,5-1.88.67-3.95-.28-4.67-2.14v-.1c-.54-.57-.86-1.32-.89-2.1Z"/>
  <path class="cls-15" d="m155.03,203.77c-.08-.65-.05-1.31.09-1.95.07-.37.33-.68.69-.82h.05c-.08-.39-.15-.79-.19-1.19-.06-.37-.03-.75.11-1.1.22-.38.58-.66,1-.8.61-.26,1.28-.34,1.93-.21.53.14,1.04.36,1.5.67.2.11.37.28.49.48.12.21.16.46.11.7-.09.45-.45.79-.9.87h0l-.39.12h0l-.09.08h0l-.12.14-.23.33-.08.11v.07l-.18.34s0,.06,0,.09c.39.18.75.41,1.07.7.82.74,1.3,1.79,1.3,2.9-.09,2.22-1.57,4.14-3.69,4.79-.56.2-1.18-.09-1.4-.64-.37-1.25-.65-2.53-.82-3.82-.17-.63-.23-1.25-.25-1.86Z"/>
  <path class="cls-25" d="m71.52,204.11c.83,1.64,5.75.63,7.15-.56s-.31-2.12.64-3.7c2.45-4.08,6.9-6.57,11.46-7.95,4.56-1.38,9.33-1.79,14-2.77,4.22-.89,8.32-2.23,12.25-4,2.38-1.08,4.88-2.52,5.8-5,.63-1.67.85-4.08,2.63-4.31,5.52,6.86,13.6,12.2,21.48,16.13,3.17,1.59,6.74,3.52,7.59,7,.16.66.48,1.55,1.15,1.42.28-.09.51-.28.66-.53,2.87-3.71,5.91-8,5.07-12.66-.78-4.31-4.67-7.26-8.26-9.77l-10.75-7.5c-1.62-1.27-3.44-2.25-5.39-2.9-2.47-.5-5.02-.43-7.46.22-12.77,2.55-29.65,3.76-40.29,11.26-3.76,2.65-6.56,6.94-10.56,9.24-2.38,1.36-3.12,3.57-5.27,5.27-2.15,1.7-1.73,8.37-1.9,11.11Z"/>
  <path class="cls-11" d="m126.83,151.44c-.09,2.83-.74,5.62-1.9,8.2-1.13,2.59-2.53,5.06-4.18,7.35l-.62.85-.73.9c-.5.59-1.04,1.15-1.6,1.68-1.12,1.04-2.34,1.98-3.64,2.79-2.51,1.52-5.19,2.72-8,3.57-1.36.42-2.72.77-4.06,1.11s-2.68.59-4,.84c-2.63.49-5.14,1-7.65,1.54-5,1.19-9.73,2.68-14,6.31.98-2.72,2.66-5.14,4.88-7,2.2-1.87,4.67-3.4,7.32-4.55,2.56-1.11,5.19-2.05,7.88-2.79,2.58-.74,5.11-1.4,7.52-2.17,1.21-.36,2.39-.76,3.53-1.21,1.12-.42,2.22-.9,3.29-1.43,1.03-.53,2.04-1.12,3-1.77.44-.35.93-.67,1.35-1.05l.66-.56.71-.67c1.89-1.78,3.71-3.62,5.44-5.57,1.78-1.98,3.39-4.11,4.8-6.37Z"/>
  <path class="cls-13" d="m103.37,195.76c-.57-.02-1.14,0-1.7.07-.52.04-1.03.12-1.53.25-1.48.44-2.91,1.06-4.24,1.84-.59.38-1.15.81-1.67,1.28-.71.57-1.38,1.19-2,1.85-.16.12-.24.32-.23.52,0,.43-.01.87-.06,1.3.29-.48.64-.92,1.06-1.3,1.3-.89,2.71-1.62,4.18-2.18,1.51-.71,3.13-1.14,4.79-1.26.6-.03,1.19-.03,1.79,0l2.64.08c.31.02.61,0,.91-.08.39-.13.67-.47.73-.88.11-.64-.32-1.24-.96-1.35-.11-.02-.22-.02-.32,0-1.11,0-2.25-.1-3.39-.13Z"/>
  <path class="cls-13" d="m131.7,193.87c.55-.14,1.11-.23,1.68-.28.51-.06,1.03-.08,1.55-.06,1.54.13,3.06.45,4.53.95.65.26,1.28.56,1.89.91.8.42,1.57.9,2.31,1.42.18.09.31.26.34.46.08.43.18.86.3,1.28-.37-.42-.81-.78-1.3-1.06-1.46-.61-2.98-1.04-4.54-1.29-1.62-.39-3.29-.48-4.94-.27-.59.09-1.17.21-1.75.36l-2.57.61c-.3.09-.6.12-.91.11-.41-.05-.75-.33-.89-.72-.23-.61.08-1.29.69-1.52.1-.04.2-.06.31-.07,1.1-.24,2.2-.57,3.3-.83Z"/>
  <path class="cls-19" d="m130.35,201.07c-.98.84-1.66,1.98-1.92,3.25-.48,1.49-.48,3.1,0,4.59.15.54.51,1.01,1,1.28.37.13.76.16,1.15.11,1.58-.09,3.16-.26,4.72-.51.26-.04.51-.12.75-.24.85-.43,1-1.58.95-2.54v-1.31c.04-.24-.04-.48-.2-.66-.15-.09-.32-.14-.49-.13-.56.01-1.12-.02-1.68-.11-.56-.1-1.06-.43-1.36-.91-.55-1.06.84-2.34.2-3.13s-2.42-.21-3.12.31Z"/>
  <path class="cls-19" d="m100.94,203.61c-1.02.79-1.76,1.89-2.09,3.14-.56,1.47-.64,3.07-.25,4.59.14.56.5,1.04,1,1.33.36.14.75.2,1.14.17,1.59,0,3.17-.1,4.75-.27.26,0,.52-.06.76-.16.88-.39,1-1.53,1.09-2.49l.06-1.31c.04-.24-.02-.48-.16-.67-.14-.1-.32-.15-.49-.15-.56-.02-1.13-.08-1.68-.2-.56-.13-1.03-.5-1.3-1-.5-1.09,1-2.3.37-3.12s-2.53-.32-3.2.14Z"/>
  <path class="cls-9" d="m126.39,231.27c.09.36,0,.47-.11.54l-.32.23c-.22.14-.45.26-.69.36-.48.21-1,.34-1.46.52-1,.38-2.07.58-3.14.57-1.11.08-2.22-.2-3.17-.78-.94-.6-1.65-1.51-2-2.57-.01-.06.02-.12.08-.14h.07c.5.12.99.28,1.46.48.47.13.86.35,1.28.47.78.37,1.58.69,2.41.95.89.22,1.81.24,2.7.06.45-.11.89-.28,1.29-.51l.62-.31.31-.15c.1-.06.21-.09.5.12h0c.08.02.14.08.17.16Z"/>
  <path class="cls-9" d="m133.74,261.14c-1.58,1.2-3.12,2.45-4.77,3.61-.82.57-1.65,1.15-2.53,1.66-.9.57-1.86,1.03-2.86,1.37l-.41.13c-.19.04-.38.07-.57.08-.29.02-.57.02-.86,0-.53-.05-1-.13-1.54-.21-1-.16-2-.37-2.94-.62-.48-.12-.94-.2-1.47-.35s-1-.3-1.47-.47c-.95-.35-1.87-.76-2.77-1.22-.09-.05-.12-.16-.08-.25.03-.07.11-.11.19-.1l3,.47c.48.07,1,.15,1.44.19l1.42.11c.87.07,1.75.15,2.61.27.61.08,1.3.16,1.86.2h.8l.3-.08c1.78-.68,3.51-1.51,5.16-2.47,1.74-1,3.55-1.87,5.42-2.61.09-.03.19,0,.23.1.03.08,0,.16-.06.21h-.11Z"/>
  <path class="cls-9" d="m117.8,255.73c.19.05.39.05.58,0,.1-.04.2-.1.28-.17l.66-.47c.54-.32,1-.77,1.32-1.31-.08-.13-.26-.14-.41-.13l-2.35.1c-.71-.09-1.43-.04-2.12.15-1.07.65,1.47,1.71,2.04,1.83Z"/>
  <path class="cls-20" d="m135.5,239.66c.34.66-.09,1.45-.51,2.07l-4.14,6.11c-.29.5-.68.92-1.15,1.25-.58.28-1.21.4-1.85.36-4.36.11-8.72.14-13.08.07-.48.02-.95-.05-1.41-.19-.54-.27-1.02-.66-1.38-1.15-.8-.94-5-5.37-4.29-6.65.71-1.28,7.17-.75,8.59-.83l19.22-1.04Z"/>
  <path class="cls-2" d="m88.6,221.78c-.14.78.05,1.59.52,2.23.7,1.06,1.72,1.85,2.92,2.27,1.2.35,2.46.48,3.71.37,1.03.09,2.05-.27,2.79-1,1.48-2,.52-6.43-2.21-6.83-2.09-.34-7.12.67-7.73,2.96Z"/>
  <path class="cls-12" d="m141.3,216.7c-.65,1.06-.59,2.41.17,3.4,1.07,1.37,3,1.52,4.77,1.56l1.87.05c.73.07,1.47.01,2.19-.16.73-.2,1.31-.77,1.53-1.5.08-.45.04-.92-.12-1.35-1.32-4.22-7.76-6.15-10.41-2Z"/>
  <path class="cls-28" d="m280.4,537.2l-97.84,31.79c-5.84,0-10.57-4.3-10.57-9.6l-1-497.71c0-5.31,4.73-9.61,10.57-9.61l98.87,5.8c5.84,0,10.57,4.29,10.57,9.6v460.11c-.03,5.32-4.76,9.62-10.6,9.62Z"/>
  <path class="cls-10" d="m189.52,291.42c-3.6,0-6.52-2.92-6.52-6.52h0v-42c.35-3.59,3.54-6.22,7.13-5.87,3.11.3,5.58,2.76,5.87,5.87v42c0,3.59-2.89,6.5-6.48,6.52Z"/>
  <path d="m196.67,263.88c0,6.14-3.14,11.12-7,11.12s-7-5-7-11.12,3.14-11.13,7-11.13,7,4.98,7,11.13Z"/>
  <path class="cls-10" d="m291.01,132c-2.21,0-4.01-1.81-4.01-4.01v-37.91c.11-2.27,1.99-4.02,4.2-3.91,2.06.1,3.7,1.8,3.8,3.91v37.8c0,2.27-1.78,4.11-3.99,4.12h0Z"/>
  <path class="cls-10" d="m291,494.9c-2.21,0-4-1.79-4-4v-36.75c-.11-2.21,1.59-4.09,3.8-4.2s4.09,1.59,4.2,3.8c0,.13,0,.26,0,.39v36.74c0,2.21-1.79,4-4,4h0Z"/>
  <path class="cls-18" d="m192.3,281.13c0,1.43-1.16,2.59-2.59,2.59s-2.59-1.16-2.59-2.59c0-1.43,1.16-2.59,2.59-2.59h0c1.43,0,2.59,1.16,2.59,2.59Z"/>
  <polygon class="cls-18" points="189.66 280.93 187.79 287 192.25 287 189.66 280.93"/>
  <path class="cls-1" d="m268.98,540.99c-.71,0-1.29-.63-1.98-1.41V59.78c.76-.78,1.39-1.36,2.1-1.29.63.06,1.13.6.9,1.29v479.81c.28.78-.3,1.41-1.02,1.41Z"/>
  <path class="cls-1" d="m246.65,547.99c-.71,0-1.29-.63-1.65-1.41h0V56.07c.29-.79.82-1.49,1.54-1.56.72-.07,1.35.51,1.41,1.3,0,.08,0,.17.06.25v490.5c-.06.79-.63,1.42-1.35,1.42Z"/>
  <path class="cls-1" d="m224.13,554.99c-.71,0-1.29-.64-1.13-1.44h0V55.02c-.1-.8.53-1.39,1.24-1.32.63.06,1.13.62,1.76,1.32v498.53c-.58.8-1.15,1.45-1.86,1.45h0Z"/>
  <path class="cls-1" d="m200.65,562.99c-.71,0-1.29-.65-1.65-1.46V55.03c.43-.81,1.06-1.41,1.77-1.34.63.06,1.13.63,1.23,1.34v506.51c-.06.8-.63,1.45-1.35,1.45Z"/>
  <path class="cls-1" d="m181,568.99s-2.32-.18-3-1V54.93c.74-.82,1.37-1.42,2.08-1.35.63.06,1.13.63.92,1.35v514.06Z"/>
  <line class="cls-8" x1="295" y1="464" x2="287" y2="464"/>
  <line class="cls-8" x1="295" y1="479" x2="287" y2="479"/>
  <line class="cls-8" x1="295" y1="102" x2="287" y2="102"/>
  <line class="cls-8" x1="295" y1="117" x2="287" y2="117"/>
</svg>