<svg xmlns="http://www.w3.org/2000/svg" xmlns:xlink="http://www.w3.org/1999/xlink" viewBox="0 0 1094 863"><defs><style>.cls-1,.cls-7,.cls-8{fill:none;}.cls-2{isolation:isolate;}.cls-3{clip-path:url(#clip-path);}.cls-4{fill:#fff;}.cls-5{fill:#e3e3e3;}.cls-6{fill:#c8c8c8;}.cls-7{stroke:#c8c8c8;stroke-width:2px;}.cls-7,.cls-8{stroke-miterlimit:10;}.cls-8{stroke:#000;stroke-width:3px;}.cls-9{fill:#050303;}.cls-10{fill:#ecbc96;}.cls-11{fill:#c9cbc2;}.cls-12{fill:#afafaf;}.cls-13{fill:#2c364e;}.cls-14{fill:#edba91;}.cls-15{fill:#e3ad7f;}.cls-16{fill:#e7af84;}.cls-17{fill:#e29c72;}.cls-18{fill:#db9b6e;}.cls-19{fill:#d68e5f;}.cls-20{fill:#622d02;}.cls-21{fill:#612a01;}.cls-22{fill:#723701;}.cls-23{fill:#5f2c01;}.cls-24{fill:#602e03;}.cls-25{fill:#e6e6e6;mix-blend-mode:multiply;}.cls-26{fill:#f9f9f9;}.cls-27{fill:#f8f7f9;}.cls-28{font-size:40px;font-family:Poppins-Bold, Poppins;font-weight:700;}.cls-29{font-size:16px;font-family:WorkSans-Regular, Work Sans;}.cls-30{letter-spacing:-0.02em;}.cls-31{letter-spacing:0.03em;}.cls-32{letter-spacing:-0.01em;}.cls-33{letter-spacing:-0.01em;}.cls-34{letter-spacing:-0.01em;}.cls-35{letter-spacing:0em;}.cls-36{letter-spacing:0.03em;}.cls-37,.cls-52{letter-spacing:-0.01em;}.cls-38{letter-spacing:-0.02em;}.cls-39{letter-spacing:0.03em;}.cls-40{letter-spacing:-0.02em;}.cls-41{letter-spacing:-0.02em;}.cls-42{letter-spacing:-0.01em;}.cls-43{letter-spacing:0em;}.cls-44{letter-spacing:0.02em;}.cls-45{letter-spacing:-0.02em;}.cls-46{letter-spacing:0.02em;}.cls-47{letter-spacing:-0.03em;}.cls-48{letter-spacing:0.02em;}.cls-49{letter-spacing:-0.04em;}.cls-50,.cls-54{letter-spacing:-0.02em;}.cls-51{letter-spacing:-0.01em;}.cls-52,.cls-53,.cls-54,.cls-55{font-family:WorkSans-Italic, Work Sans;font-style:italic;}.cls-55{letter-spacing:-0.01em;}.cls-56{letter-spacing:-0.01em;}.cls-57{letter-spacing:-0.01em;}.cls-58{letter-spacing:0.58em;}.cls-59{letter-spacing:0.63em;}.cls-60{letter-spacing:0.63em;}.cls-61{letter-spacing:0.07em;}.cls-62{letter-spacing:0.07em;}.cls-63{letter-spacing:0.07em;}.cls-64{letter-spacing:-0.04em;}.cls-65{letter-spacing:-0.06em;}.cls-66{letter-spacing:-0.03em;}.cls-67{letter-spacing:-0.04em;}.cls-68{letter-spacing:-0.03em;}.cls-69{letter-spacing:-0.04em;}.cls-70{letter-spacing:-0.01em;}.cls-71{letter-spacing:-0.01em;}.cls-72{letter-spacing:-0.01em;}.cls-73{letter-spacing:-0.03em;}.cls-74{letter-spacing:-0.03em;}</style><clipPath id="clip-path"><rect class="cls-1" x="19.2" y="-5.21" width="1065" height="864"/></clipPath></defs><g class="cls-2"><g id="parocociodimicosis"><g class="cls-3"><path class="cls-4" d="M403.47,754.5l18.44,295.29H164.06l32-233.06L156.3,651.88l123.76-52.59L393.4,643.8l34.7,17.31a32,32,0,0,1,16.61,20.33l43.86,217.63-59.48,11.87Z"/><path class="cls-4" d="M164.93,752.61l-18.45,295.28H404.33L393.15,661.36,290.83,648.09,156.3,651.88l-16,7.34a31.93,31.93,0,0,0-16.61,20.33L79.83,897.17l59.47,11.88Z"/><ellipse class="cls-5" cx="211.43" cy="721.81" rx="18.15" ry="19.17" transform="translate(-153.43 64.1) rotate(-12.69)"/><ellipse class="cls-6" cx="207.46" cy="720.94" rx="14.52" ry="15.52" transform="translate(-156.53 64.96) rotate(-12.97)"/><polygon class="cls-6" points="199.22 695.72 202.74 694.82 205.87 707.21 202.35 708.11 199.22 695.72"/><path class="cls-7" d="M340.61,721.76l-4.13,72.65s-.81,19.05,12,25.2"/><path class="cls-7" d="M384.84,717.55,395.24,792s2.43,19.53-10.93,26.56"/><path class="cls-8" d="M201.43,697s.41-71.7,38.63-89c30.25-13.7,68.79-13,94.91,11.18a74.3,74.3,0,0,1,20.92,35.32c2.75,10.16,6.31,25.06,6.63,35.24"/><path class="cls-8" d="M340.4,724.64s-9.38-37.17,21-35.51c-.09-.11,23-7.56,24.32,29.58"/><path class="cls-9" d="M381.11,814.66a11.94,11.94,0,0,0-4.44,1.43c-1.3.88-2.17,2.64-1.5,4.06a3.29,3.29,0,0,0,2.47,1.66,9.31,9.31,0,0,0,3.06-.18,25.06,25.06,0,0,0,5.2-1.3,9.15,9.15,0,0,0,4.22-3.21,1.91,1.91,0,0,0,.36-.81c.17-1.25-1.24-3.78-2.52-3.79-1,0-2.43.93-3.37,1.23C383.45,814.11,382.29,814.41,381.11,814.66Z"/><path class="cls-9" d="M344,819.3a15.43,15.43,0,0,0,2.31,2c2.07,1.33,4.64,1.59,7.1,1.68a9.28,9.28,0,0,0,3.28-.31,3.47,3.47,0,0,0,2.31-2.19c.49-1.71-.91-3.47-2.55-4.12-3-1.19-6.29-.46-9.36-1.73A2.83,2.83,0,0,0,344,819.3Z"/><polygon class="cls-10" points="260.32 577.84 254.87 616.18 287.54 625.31 312.95 628.96 316.57 583.31 260.32 577.84"/><polygon class="cls-11" points="247.96 595.42 241.24 631.31 288.75 815.36 343.07 632.62 327.77 594.82 291.25 615.71 247.96 595.42"/><polygon class="cls-12" points="253.88 657.17 288.02 640.13 321.41 658.78 289.21 617.74 253.88 657.17"/><path class="cls-13" d="M289.21,617.74l-25.44,27L280,661a12.88,12.88,0,0,1,3.64,9.84l-6.82,103.64,12.44,44.35,13.56-49.08-7.15-97.87a12.4,12.4,0,0,1,2.07-7.8l12.39-19.3Z"/><path class="cls-14" d="M224.57,468.28l-.42-8.28c-.15-2.91,0-6-1.51-8.63-4.18-7.19-13.11-5.06-18.12-.11s-5,11-3.55,17.4c1.35,6,4.65,9.84,10.67,11.6a9.21,9.21,0,0,0,11.16-6.38c0-.09,0-.17,0-.26A8.09,8.09,0,0,0,224.57,468.28Z"/><path class="cls-15" d="M220.19,461.48a15.36,15.36,0,0,0-.65-4.87,2.86,2.86,0,0,0-1.91-1.91l-.13,0a25.71,25.71,0,0,0,.21-3,5.06,5.06,0,0,0-.5-2.74,4.33,4.33,0,0,0-2.57-1.79,8.19,8.19,0,0,0-4.85-.12,11.69,11.69,0,0,0-3.59,2,3,3,0,0,0-1.11,1.31,2.66,2.66,0,0,0-.14,1.78,2.81,2.81,0,0,0,2.45,2h-.08a6.61,6.61,0,0,1,1,.22h0a2.71,2.71,0,0,0,.25.17l0,0,.31.33c.23.26.45.52.67.79l.2.25a.91.91,0,0,1,.11.16,7.6,7.6,0,0,1,.52.82,1.67,1.67,0,0,1,.12.23,11.37,11.37,0,0,0-2.51,2,9.93,9.93,0,0,0-2.61,7.55c.53,5.72,4.91,9.76,10.24,11.21a2.76,2.76,0,0,0,3.35-1.92,61.55,61.55,0,0,0,1.2-9.75C220.26,464.58,220.25,463,220.19,461.48Z"/><path class="cls-14" d="M350,468.28l.43-8.28c.15-2.91,0-6,1.5-8.63,4.19-7.19,13.11-5.06,18.12-.11s5,11,3.56,17.4c-1.35,6-4.66,9.84-10.67,11.6a9.2,9.2,0,0,1-11.16-6.38,2.38,2.38,0,0,1-.05-.26A8.14,8.14,0,0,1,350,468.28Z"/><path class="cls-15" d="M354.34,461.48a15.36,15.36,0,0,1,.65-4.87,2.84,2.84,0,0,1,1.9-1.91l.13,0a28,28,0,0,1-.21-3,5.06,5.06,0,0,1,.51-2.74,4.33,4.33,0,0,1,2.57-1.79,8.19,8.19,0,0,1,4.85-.12,11.64,11.64,0,0,1,3.58,2,3.1,3.1,0,0,1,1.12,1.31,2.66,2.66,0,0,1,.13,1.78,2.8,2.8,0,0,1-2.44,2h.08a7,7,0,0,0-1,.22h0l-.26.17,0,0-.3.33c-.23.26-.45.52-.67.79l-.2.25-.12.16a9.54,9.54,0,0,0-.52.82l-.12.23a11.2,11.2,0,0,1,2.52,2,9.89,9.89,0,0,1,2.6,7.55c-.52,5.72-4.9,9.76-10.24,11.21a2.76,2.76,0,0,1-3.35-1.92,61.55,61.55,0,0,1-1.2-9.75C354.27,464.58,354.27,463,354.34,461.48Z"/><path class="cls-16" d="M288.73,521l-.9,74C347.71,585.8,355,549.28,355,549.28L357.7,389.5l-68.06,6.39-.91,90.39Z"/><path class="cls-10" d="M218.86,386.76l-1.81,160.69s12.7,38.35,72.59,47.48v-76.7l7.26-1.82-5.44-32.87-1.82-87.65Z"/><path class="cls-17" d="M243.36,400.45a21.5,21.5,0,0,1,7.59,0,51,51,0,0,1,7.21,1.8c2.33.75,4.52,1.57,6.73,2.18a57.21,57.21,0,0,0,6.81,1.46,108.34,108.34,0,0,0,14.15,1c4.77.07,9.67,0,14.45-.06a75.29,75.29,0,0,0,14-1.32c2.26-.48,4.53-1.15,6.88-1.8s4.79-1.3,7.22-1.79c4.87-1,9.76-1.59,14.6-2.14l1.81-.19a14,14,0,0,1,2.15-.09,4.54,4.54,0,0,1,2.79,1.07,5.7,5.7,0,0,1,1.38,2.21,25.55,25.55,0,0,1,1.66,7.55,1.43,1.43,0,0,1-2.83.31h0a23.22,23.22,0,0,0-2-6.49,2,2,0,0,0-.54-.85,1.35,1.35,0,0,0-.59-.08c-.73,0-2.12.32-3.27.49-4.78.78-9.51,1.65-14.11,2.75-2.31.56-4.54,1.23-6.85,2s-4.68,1.48-7.17,2.06a74.44,74.44,0,0,1-14.95,1.67c-4.92.1-9.73.15-14.68.09A102.76,102.76,0,0,1,270.88,411a61.23,61.23,0,0,1-7.39-1.7,53.82,53.82,0,0,1-7-2.64C252,404.66,248,402.45,243.36,400.45Z"/><path class="cls-18" d="M275.91,516.27a.7.7,0,0,1,.76.06l.58.32,1.16.64a15.55,15.55,0,0,0,2.42,1.11,18,18,0,0,0,5.17.89,23.83,23.83,0,0,0,5.08-.59c1.71-.23,3.31-.82,5.16-1.25h0a.11.11,0,0,1,.1.17,10.67,10.67,0,0,1-4.79,3l-.69.21c-.23.06-.48.08-.71.12a14,14,0,0,1-1.44.14,22.51,22.51,0,0,1-2.86-.23,22,22,0,0,1-5.39-1.55c-.85-.36-1.71-.69-2.54-1.11a11.8,11.8,0,0,1-1.21-.68c-.2-.12-.39-.27-.58-.4a.71.71,0,0,1-.35-.71.17.17,0,0,1,.11-.16Z"/><path class="cls-19" d="M260.65,587.45c4.55,1.13,8.9,2.79,13.28,4.28,2.19.76,4.38,1.49,6.57,2.16a39.6,39.6,0,0,0,6.59,1.51l.81.08c.19,0,.4,0,.67-.07.51-.08,1.06-.22,1.6-.35,1.1-.27,2.2-.59,3.31-.91l6.65-2c1.11-.34,2.27-.61,3.33-.95s2.16-.74,3.24-1.14c2.17-.8,4.3-1.71,6.45-2.59a.19.19,0,0,1,.24.1.2.2,0,0,1-.07.23c-2,1.2-4.08,2.26-6.17,3.3-1,.51-2.12,1-3.22,1.42s-2.21.78-3.29,1.19c-2.17.81-4.37,1.59-6.59,2.31-1.12.34-2.24.68-3.39,1-.58.15-1.16.27-1.8.37a6.73,6.73,0,0,1-1.06.08l-.92-.1a34.79,34.79,0,0,1-6.93-1.72c-2.23-.74-4.4-1.59-6.56-2.46-4.32-1.73-8.51-3.73-12.84-5.38h0a.19.19,0,0,1-.11-.23A.19.19,0,0,1,260.65,587.45Z"/><path class="cls-19" d="M288.1,580.88a2.25,2.25,0,0,0,1.26,0,2.19,2.19,0,0,0,.59-.35l1.44-1a8.13,8.13,0,0,0,2.83-2.85c-.16-.28-.55-.3-.88-.28l-5.06.22c-1.21,0-3.53-.31-4.58.31C281.4,578.27,286.87,580.63,288.1,580.88Z"/><path class="cls-20" d="M211.17,426.24l-2.11-19.41c-1.46-13.37-2.7-27.79,4-39.4a22.29,22.29,0,0,0,2.23-4.31,19.58,19.58,0,0,0,.57-5.46c.28-10.33,4.79-22,12.05-29.34s10.35-12.05,18.81-12.5a6.39,6.39,0,0,1,3.07.43c1.63.79,2.46,2.59,3.33,4.18a38.65,38.65,0,0,0,31,20.68c13.54,1.3,30.59-2.48,44.12-1a45,45,0,0,1,10,2.09c4.79,1.67,9.1,4.47,13.26,7.38a40.79,40.79,0,0,1,8.14,7c3.44,4.11,2.2,8.42,2.5,13.78,1.41,24.79,3.63,53-4.87,76.75-1-14.18-.1-30.19-1.06-44.37a6.72,6.72,0,0,0-.72-3.12c-1.64-2.65-5.6-1.78-8.52-.75a92,92,0,0,1-24.47,4.4c-6,.28-12,1.69-18,1.94-14.75.62-25.82,1.67-44-.89-4.64-.66-8.69-3.54-13.12-5.09a47.91,47.91,0,0,0-21.31-2.32,4.24,4.24,0,0,0-1.82.51,4.52,4.52,0,0,0-1.54,3c-1.6,7-3.19,15.86-4.37,23-1,6.2,1,18.28-1.37,23.7C212.87,444,211.69,431.09,211.17,426.24Z"/><path class="cls-21" d="M240.92,388.11a39.42,39.42,0,0,1-7.68-3.57c-5.88-3.83-9.41-10.56-10.88-17.45s-1.13-14-.78-21.08c-4.94,4-6.74,10.85-6.77,17.24a21.34,21.34,0,0,0,1.15,7.66,28.34,28.34,0,0,0,4.72,7.33c5.84,7.27,12.28,15,21.25,17.39,1.92.53,9.89,1.66,10.21-1.57C252.44,391,243,388.9,240.92,388.11Z"/><path class="cls-22" d="M239.32,358.35c1,14.09,6.55,29,18.75,36q-7-2.33-13.92-5c-6.39-2.46-12.93-5.29-17.48-10.43-3.6-4.08-5.67-9.33-6.79-14.67-2.13-10.16-.92-21.17,4.21-30.17,2.09-3.65,21.27-23.29,22.15-12.35.39,4.73-4.65,12-5.68,17A70.93,70.93,0,0,0,239.32,358.35Z"/><path class="cls-23" d="M241.09,439.4l5.79-5,2.89-2.51a15.26,15.26,0,0,1,1.6-1.23,16.25,16.25,0,0,1,1.81-1.07,15.2,15.2,0,0,1,4.05-1.41,15.71,15.71,0,0,1,2.22-.24,15.18,15.18,0,0,1,2.07.12,37.29,37.29,0,0,1,3.92.54,7.34,7.34,0,0,1,1.94.55,3.87,3.87,0,0,1,.94.57,2.14,2.14,0,0,1,.64,1.41.71.71,0,0,1-.26.63l-.12.1a3.57,3.57,0,0,1-1.14.73,1.8,1.8,0,0,1-.45.06,2.26,2.26,0,0,1-.45,0,10.76,10.76,0,0,1-1.78-.19c-1.21-.12-2.41-.43-3.63-.49l-1.73-.14a9.51,9.51,0,0,0-1.58.06,12.62,12.62,0,0,0-3.19.83,11.44,11.44,0,0,0-1.55.72c-.5.27-1,.58-1.56.9l-3.32,1.9-6.63,3.82a.43.43,0,0,1-.57-.16A.41.41,0,0,1,241.09,439.4Z"/><path class="cls-23" d="M331.83,440.08l-6.63-3.82-3.32-1.9c-.58-.32-1.05-.63-1.56-.9a11.92,11.92,0,0,0-1.54-.72,12.8,12.8,0,0,0-3.2-.83,9.48,9.48,0,0,0-1.58-.06l-1.73.14c-1.21.06-2.42.37-3.63.49a10.76,10.76,0,0,1-1.78.19,2.26,2.26,0,0,1-.45,0,1.8,1.8,0,0,1-.45-.06,3.44,3.44,0,0,1-1.13-.73l-.12-.09a.74.74,0,0,1-.27-.64,2.14,2.14,0,0,1,.64-1.41,4.07,4.07,0,0,1,.94-.57,7.41,7.41,0,0,1,2-.55,36.58,36.58,0,0,1,3.92-.54,14.93,14.93,0,0,1,2.06-.12,15.55,15.55,0,0,1,2.22.24,15.15,15.15,0,0,1,4.06,1.41,18.3,18.3,0,0,1,1.81,1.07,14.13,14.13,0,0,1,1.59,1.23l2.89,2.51,5.79,5a.41.41,0,0,1,0,.59A.41.41,0,0,1,331.83,440.08Z"/><path class="cls-24" d="M261.76,450.17a10.31,10.31,0,0,1,4,5.23,13.42,13.42,0,0,1,1,8,3.72,3.72,0,0,1-1.5,2.45,4.33,4.33,0,0,1-2,.45,81.85,81.85,0,0,1-8.29.13,4.12,4.12,0,0,1-1.35-.19c-1.57-.57-2-2.55-2.2-4.22l-.27-2.29a1.45,1.45,0,0,1,.2-1.18,1.37,1.37,0,0,1,.83-.34,15.55,15.55,0,0,0,2.89-.56,3.38,3.38,0,0,0,2.15-1.89c.73-2-2-3.89-1-5.4S260.53,449.45,261.76,450.17Z"/><path class="cls-24" d="M316.21,450.17a10.24,10.24,0,0,1,4,5.23,13.27,13.27,0,0,1,1,8,3.68,3.68,0,0,1-1.5,2.45,4.28,4.28,0,0,1-2,.45,81.9,81.9,0,0,1-8.29.13,4.09,4.09,0,0,1-1.35-.19c-1.57-.57-2-2.55-2.21-4.22l-.27-2.29a1.45,1.45,0,0,1,.21-1.18,1.35,1.35,0,0,1,.83-.34,15.71,15.71,0,0,0,2.89-.56,3.43,3.43,0,0,0,2.15-1.89c.72-2-2-3.89-1-5.4S315,449.45,316.21,450.17Z"/><ellipse class="cls-24" cx="289.64" cy="551.1" rx="12.7" ry="18.26"/><path class="cls-25" d="M972.57,351.89h-546l-36.14,37.47V106.6c0-8.65,6.55-15.66,14.62-15.66h567.5c8.07,0,14.62,7,14.62,15.66V336.24C987.19,344.88,980.64,351.89,972.57,351.89Z"/><path class="cls-11" d="M959.42,334.44h-546L377.3,371.91V89.15c0-8.65,6.54-15.66,14.61-15.66H959.42c8.07,0,14.61,7,14.61,15.66V318.79C974,327.44,967.49,334.44,959.42,334.44Z"/><rect class="cls-25" x="403.14" y="65.13" width="605.12" height="263.29" rx="15.37"/><rect class="cls-4" x="386.46" y="56.36" width="616.34" height="263.29" rx="15.37"/><path class="cls-11" d="M1018.16,353.14a3.63,3.63,0,1,1-5.13-.23A3.62,3.62,0,0,1,1018.16,353.14Z"/><path class="cls-4" d="M1032.37,338.27a3.63,3.63,0,1,1-5.12-.23A3.62,3.62,0,0,1,1032.37,338.27Z"/><circle class="cls-11" cx="1005.5" cy="327.26" r="7.26" transform="translate(631.33 1316.26) rotate(-87.31)"/><circle class="cls-11" cx="1002.92" cy="291.28" r="17.6" transform="translate(-18.8 74.99) rotate(-4.24)"/><circle class="cls-26" cx="979.63" cy="341.41" r="17.75" transform="matrix(0.07, -1, 1, 0.07, 572.61, 1295.64)"/><ellipse class="cls-11" cx="380" cy="73.23" rx="28.82" ry="29.35" transform="translate(103.76 344.25) rotate(-55.36)"/><circle class="cls-25" cx="352.42" cy="115.35" r="33.49"/><path class="cls-11" d="M338.76,60.53a7.31,7.31,0,1,1-10.16,1.86A7.3,7.3,0,0,1,338.76,60.53Z"/><path class="cls-11" d="M318.55,76.38a3.65,3.65,0,1,1-5.09.93A3.65,3.65,0,0,1,318.55,76.38Z"/><path class="cls-4" d="M359.74,99.64a3.65,3.65,0,1,1-5.08.93A3.65,3.65,0,0,1,359.74,99.64Z"/><circle class="cls-27" cx="346.26" cy="112.82" r="33.49"/><text class="cls-28" transform="translate(586.25 97.6)">¿Qué es la <tspan x="-159.48" y="48">Paracoccidioidomicosis ? </tspan></text><text class="cls-29" transform="translate(401.71 170.11)">L<tspan class="cls-30" x="9.57" y="0">a</tspan><tspan class="cls-31" x="18.25" y="0"> </tspan><tspan x="24.16" y="0">pa</tspan><tspan class="cls-32" x="43.25" y="0">r</tspan><tspan x="49.55" y="0">acoccidiomicosis</tspan><tspan class="cls-31" x="182.41" y="0"> </tspan><tspan x="188.32" y="0">es</tspan><tspan class="cls-31" x="205.98" y="0"> </tspan><tspan x="211.89" y="0">un</tspan><tspan class="cls-30" x="231.67" y="0">a</tspan><tspan class="cls-31" x="240.35" y="0"> </tspan><tspan x="246.26" y="0">e</tspan><tspan class="cls-33" x="255.49" y="0">n</tspan><tspan class="cls-34" x="265.29" y="0">f</tspan><tspan class="cls-35" x="271.35" y="0">ermedad</tspan><tspan class="cls-36" x="340.71" y="0"> </tspan><tspan x="346.62" y="0">mic</tspan><tspan class="cls-37" x="375.08" y="0">ó</tspan><tspan x="384.54" y="0">tic</tspan><tspan class="cls-38" x="404.46" y="0">a</tspan><tspan class="cls-39" x="413.14" y="0"> </tspan><tspan class="cls-35" x="419.05" y="0">endémic</tspan><tspan class="cls-38" x="485.91" y="0">a</tspan><tspan class="cls-31" x="494.6" y="0"> </tspan><tspan class="cls-40" x="500.51" y="0">e</tspan><tspan class="cls-41" x="509.43" y="0">x</tspan><tspan x="517.64" y="0">clusi</tspan><tspan class="cls-42" x="554.06" y="0">v</tspan><tspan class="cls-38" x="562.17" y="0">a</tspan><tspan class="cls-43" x="570.86" y="0"> </tspan><tspan x="0" y="19.2">de</tspan><tspan class="cls-44" x="19.26" y="19.2"> </tspan><tspan x="24.97" y="19.2">países</tspan><tspan class="cls-44" x="74.41" y="19.2"> </tspan><tspan x="80.12" y="19.2">l</tspan><tspan class="cls-45" x="85.02" y="19.2">a</tspan><tspan class="cls-43" x="93.75" y="19.2">tinoamericanos,</tspan><tspan class="cls-46" x="218.74" y="19.2"> </tspan><tspan class="cls-43" x="224.45" y="19.2">es</tspan><tspan class="cls-46" x="242.11" y="19.2"> </tspan><tspan class="cls-43" x="247.82" y="19.2">causad</tspan><tspan class="cls-38" x="303.23" y="19.2">a</tspan><tspan class="cls-44" x="311.92" y="19.2"> </tspan><tspan x="317.63" y="19.2">po</tspan><tspan class="cls-30" x="337.26" y="19.2">r</tspan><tspan class="cls-44" x="343.42" y="19.2"> </tspan><tspan x="349.13" y="19.2">a</tspan><tspan class="cls-47" x="358.18" y="19.2">l</tspan><tspan class="cls-44" x="362.52" y="19.2"> </tspan><tspan x="368.23" y="19.2">menos</tspan><tspan class="cls-44" x="420.64" y="19.2"> </tspan><tspan x="426.35" y="19.2">cinco</tspan><tspan class="cls-44" x="468.03" y="19.2"> </tspan><tspan x="473.74" y="19.2">especies</tspan><tspan class="cls-48" x="541.55" y="19.2"> </tspan><tspan x="547.26" y="19.2">de</tspan><tspan class="cls-49" x="566.52" y="19.2">l</tspan><tspan class="cls-35" x="570.86" y="19.2"> </tspan><tspan x="0" y="38.4">géne</tspan><tspan class="cls-50" x="36.88" y="38.4">r</tspan><tspan x="43.15" y="38.4">o</tspan><tspan class="cls-51" x="52.75" y="38.4"> </tspan><tspan class="cls-52" x="58.04" y="38.4">P</tspan><tspan class="cls-53" x="67.66" y="38.4">a</tspan><tspan class="cls-54" x="77.52" y="38.4">r</tspan><tspan class="cls-53" x="83.47" y="38.4">a</tspan><tspan class="cls-55" x="93.33" y="38.4">c</tspan><tspan class="cls-53" x="101.85" y="38.4">o</tspan><tspan class="cls-55" x="111.37" y="38.4">c</tspan><tspan class="cls-53" x="119.9" y="38.4">cidioides</tspan><tspan x="187.47" y="38.4">.</tspan><tspan class="cls-51" x="191.72" y="38.4"> </tspan><tspan x="197.02" y="38.4">L</tspan><tspan class="cls-30" x="206.58" y="38.4">a</tspan><tspan class="cls-56" x="215.27" y="38.4"> </tspan><tspan x="220.57" y="38.4">e</tspan><tspan class="cls-33" x="229.8" y="38.4">n</tspan><tspan class="cls-34" x="239.59" y="38.4">f</tspan><tspan class="cls-35" x="245.66" y="38.4">ermedad</tspan><tspan class="cls-56" x="315.02" y="38.4"> </tspan><tspan x="320.31" y="38.4">se</tspan><tspan class="cls-57" x="337.97" y="38.4"> </tspan><tspan class="cls-35" x="343.27" y="38.4">adquie</tspan><tspan class="cls-50" x="395.75" y="38.4">r</tspan><tspan x="402.02" y="38.4">e</tspan><tspan class="cls-51" x="411.25" y="38.4"> </tspan><tspan class="cls-35" x="416.55" y="38.4">po</tspan><tspan class="cls-30" x="436.18" y="38.4">r</tspan><tspan class="cls-51" x="442.34" y="38.4"> </tspan><tspan x="447.63" y="38.4">l</tspan><tspan class="cls-30" x="452.53" y="38.4">a</tspan><tspan class="cls-56" x="461.21" y="38.4"> </tspan><tspan x="466.51" y="38.4">inhalación</tspan><tspan class="cls-51" x="546.3" y="38.4"> </tspan><tspan x="551.59" y="38.4">de </tspan><tspan x="0" y="57.6">estructu</tspan><tspan class="cls-32" x="66.3" y="57.6">r</tspan><tspan x="72.61" y="57.6">as</tspan><tspan class="cls-58" x="90.09" y="57.6"> </tspan><tspan class="cls-43" x="104.76" y="57.6">fúngicas</tspan><tspan class="cls-59" x="170.04" y="57.6"> </tspan><tspan class="cls-35" x="185.56" y="57.6">de</tspan><tspan class="cls-60" x="204.83" y="57.6"> </tspan><tspan class="cls-35" x="220.36" y="57.6">p</tspan><tspan class="cls-50" x="230.39" y="57.6">r</tspan><tspan x="236.66" y="57.6">opagación</tspan><tspan class="cls-59" x="315.63" y="57.6"> </tspan><tspan class="cls-35" x="331.16" y="57.6">llamadas</tspan><tspan class="cls-60" x="401.83" y="57.6"> </tspan><tspan x="417.36" y="57.6">mic</tspan><tspan class="cls-50" x="445.82" y="57.6">r</tspan><tspan x="452.09" y="57.6">oconidias</tspan><tspan class="cls-59" x="526.19" y="57.6"> </tspan><tspan class="cls-35" x="541.71" y="57.6">que </tspan><tspan x="0" y="76.8">p</tspan><tspan class="cls-50" x="10.03" y="76.8">r</tspan><tspan x="16.3" y="76.8">ovienen</tspan><tspan class="cls-61" x="76.75" y="76.8"> </tspan><tspan x="83.26" y="76.8">de</tspan><tspan class="cls-47" x="102.53" y="76.8">l</tspan><tspan class="cls-62" x="106.86" y="76.8"> </tspan><tspan x="113.38" y="76.8">suel</tspan><tspan class="cls-41" x="145.81" y="76.8">o</tspan><tspan x="155.09" y="76.8">.</tspan><tspan class="cls-61" x="159.34" y="76.8"> </tspan><tspan x="165.85" y="76.8">L</tspan><tspan class="cls-38" x="175.42" y="76.8">a</tspan><tspan class="cls-63" x="184.11" y="76.8"> </tspan><tspan class="cls-35" x="190.62" y="76.8">pa</tspan><tspan class="cls-32" x="209.71" y="76.8">r</tspan><tspan x="216.01" y="76.8">acoccidioidomicosis</tspan><tspan class="cls-62" x="372.76" y="76.8"> </tspan><tspan x="379.27" y="76.8">es</tspan><tspan class="cls-61" x="396.93" y="76.8"> </tspan><tspan x="403.44" y="76.8">un</tspan><tspan class="cls-38" x="423.22" y="76.8">a</tspan><tspan class="cls-63" x="431.91" y="76.8"> </tspan><tspan x="438.42" y="76.8">i</tspan><tspan class="cls-33" x="442.67" y="76.8">n</tspan><tspan class="cls-32" x="452.46" y="76.8">f</tspan><tspan x="458.53" y="76.8">ección</tspan><tspan class="cls-62" x="509.44" y="76.8"> </tspan><tspan x="515.95" y="76.8">n</tspan><tspan class="cls-41" x="525.85" y="76.8">a</tspan><tspan x="534.59" y="76.8">tu</tspan><tspan class="cls-32" x="551.17" y="76.8">r</tspan><tspan x="557.47" y="76.8">a</tspan><tspan class="cls-47" x="566.53" y="76.8">l</tspan><tspan x="570.86" y="76.8"> </tspan><tspan x="0" y="96">de</tspan><tspan class="cls-64" x="19.26" y="96"> </tspan><tspan x="24.09" y="96">los</tspan><tspan class="cls-64" x="47.02" y="96"> </tspan><tspan x="51.84" y="96">humanos</tspan><tspan class="cls-65" x="123.85" y="96"> </tspan><tspan class="cls-66" x="128.33" y="96">y</tspan><tspan class="cls-67" x="136.18" y="96"> </tspan><tspan x="141.01" y="96">de</tspan><tspan class="cls-64" x="160.27" y="96"> </tspan><tspan x="165.09" y="96">cie</tspan><tspan class="cls-68" x="187.54" y="96">r</tspan><tspan class="cls-43" x="193.59" y="96">tas</tspan><tspan class="cls-69" x="217.78" y="96"> </tspan><tspan class="cls-35" x="222.6" y="96">especies</tspan><tspan class="cls-69" x="290.41" y="96"> </tspan><tspan class="cls-35" x="295.23" y="96">de</tspan><tspan class="cls-69" x="314.5" y="96"> </tspan><tspan class="cls-35" x="319.32" y="96">armadillos.</tspan><tspan class="cls-69" x="405.58" y="96"> </tspan><tspan class="cls-35" x="410.4" y="96">E</tspan><tspan class="cls-49" x="420.61" y="96">l</tspan><tspan class="cls-64" x="424.95" y="96"> </tspan><tspan x="429.77" y="96">hábit</tspan><tspan class="cls-45" x="469.72" y="96">a</tspan><tspan x="478.46" y="96">t</tspan><tspan class="cls-64" x="485.16" y="96"> </tspan><tspan x="489.99" y="96">p</tspan><tspan class="cls-50" x="500.02" y="96">r</tspan><tspan x="506.29" y="96">eciso</tspan><tspan class="cls-64" x="546.77" y="96"> </tspan><tspan x="551.6" y="96">de </tspan><tspan x="0" y="115.2">este</tspan><tspan class="cls-70" x="33.6" y="115.2"> </tspan><tspan x="38.97" y="115.2">mic</tspan><tspan class="cls-50" x="67.43" y="115.2">r</tspan><tspan x="73.7" y="115.2">oo</tspan><tspan class="cls-66" x="92.9" y="115.2">r</tspan><tspan x="99.03" y="115.2">ganismo</tspan><tspan class="cls-71" x="164.03" y="115.2"> </tspan><tspan class="cls-43" x="169.4" y="115.2">permanece</tspan><tspan class="cls-72" x="256.82" y="115.2"> </tspan><tspan x="262.19" y="115.2">sin</tspan><tspan class="cls-72" x="284.78" y="115.2"> </tspan><tspan x="290.15" y="115.2">ide</tspan><tspan class="cls-33" x="313.67" y="115.2">n</tspan><tspan x="323.46" y="115.2">tifica</tspan><tspan class="cls-30" x="362.98" y="115.2">r</tspan><tspan class="cls-73" x="369.14" y="115.2"> </tspan><tspan class="cls-42" x="374.12" y="115.2">y</tspan><tspan class="cls-30" x="382.16" y="115.2">a</tspan><tspan class="cls-72" x="390.85" y="115.2"> </tspan><tspan x="396.22" y="115.2">que</tspan><tspan class="cls-70" x="425.36" y="115.2"> </tspan><tspan x="430.72" y="115.2">no</tspan><tspan class="cls-70" x="450.23" y="115.2"> </tspan><tspan x="455.59" y="115.2">se</tspan><tspan class="cls-72" x="473.26" y="115.2"> </tspan><tspan x="478.62" y="115.2">han</tspan><tspan class="cls-70" x="507.49" y="115.2"> </tspan><tspan x="512.85" y="115.2">log</tspan><tspan class="cls-32" x="535.86" y="115.2">r</tspan><tspan x="542.16" y="115.2">ado </tspan><tspan x="0" y="134.4">hace</tspan><tspan class="cls-30" x="37.15" y="134.4">r</tspan><tspan x="43.31" y="134.4" xml:space="preserve"> aislamie</tspan><tspan class="cls-33" x="113.2" y="134.4">n</tspan><tspan x="122.99" y="134.4">tos di</tspan><tspan class="cls-50" x="167.47" y="134.4">r</tspan><tspan x="173.74" y="134.4">ectos </tspan><tspan class="cls-30" x="222.13" y="134.4">a</tspan><tspan x="230.81" y="134.4" xml:space="preserve"> pa</tspan><tspan class="cls-74" x="255.36" y="134.4">r</tspan><tspan class="cls-35" x="261.41" y="134.4">ti</tspan><tspan class="cls-30" x="272.37" y="134.4">r</tspan><tspan x="278.53" y="134.4" xml:space="preserve"> de</tspan><tspan class="cls-49" x="303.25" y="134.4">l</tspan><tspan class="cls-35" x="307.58" y="134.4" xml:space="preserve"> suel</tspan><tspan class="cls-45" x="345.47" y="134.4">o</tspan><tspan x="354.75" y="134.4">.</tspan></text></g></g></g></svg>