<?xml version="1.0" encoding="UTF-8"?>
<svg id="Capa_2" data-name="Capa 2" xmlns="http://www.w3.org/2000/svg" viewBox="0 0 569.82 553.6">
  <defs>
    <style>
      .cls-1, .cls-2, .cls-3 {
        fill: #fff;
      }

      .cls-4 {
        fill: none;
      }

      .cls-4, .cls-2, .cls-3 {
        stroke: #fff;
        stroke-miterlimit: 10;
      }

      .cls-4, .cls-3 {
        stroke-width: 4.88px;
      }
    </style>
  </defs>
  <g id="Capa_1-2" data-name="Capa 1">
    <g>
      <path class="cls-2" d="m317.04,318.82l4.59.06c-1.2,2.77-1.88,6-3.82,8.09-1,1.09-4.28.29-6.46-.06-.46-.08-1-2-.87-2.91.32-1.92-1.19-4.93,2.52-5.2,1.33-.1,2.67,0,4,0l1.15,2.18-1.11-2.16Z"/>
      <path class="cls-2" d="m160.07,342.36c-3.48-2.72-3.24-9.14-.57-11.21.26-.21,2.25.92,2.22,1.34-.54,7.11,4.11,4.28,7.47,4.05.85.04,1.68.19,2.49.44-.59,1.14-1,3.05-1.81,3.3-3.46,1.03-7.12,1.55-9.8,2.08Z"/>
      <path class="cls-2" d="m293.74,218.11l3.08-1.38,1.5,5.15c-1.63.24-3.27.31-4.91.23-1.7-.24-1.71-.93.33-4Z"/>
      <path class="cls-2" d="m262.51,233.57c3.03-.31,6.07-.46,9.12-.44.6,0,1.79,2.09,1.54,2.81-1.23,3.62-6.53,6.6-8.45,4.72-1.31-1.26-1.31-3.82-2.21-7.09Z"/>
      <path class="cls-2" d="m354.41,224.17c2.45-1.27,4.86-2.59,7.36-3.68.23-.1,1.71,1.5,1.56,1.94-1.23,3.51-4,4.7-7.52,4.34-.4-.04-.77-.26-1-.59-.21-.65-.34-1.33-.4-2.01Z"/>
      <path class="cls-2" d="m345.35,273.98c-.89.84-2.34,2.52-2.58,2.37-2.3-1.52-3.18-5.2-1.58-6.23.92-.59,3.24-.8,3.37-.5.45,1.41.71,2.87.78,4.35h0Z"/>
      <path class="cls-2" d="m316.12,364.61c1.7-.9,3.54-2.66,5.07-2.42,1.18.18,2,2.87,2.93,4.44-1.49.19-3,.68-4.45.46-1.21-.19-2.29-1.2-3.43-1.84l-.12-.64Z"/>
      <path class="cls-2" d="m441.29,153.55c5.1-.31,5.67.37,4.23,5.09h-.16l-3.23-1.76-.23-.76c-.16-.68-.32-1.36-.49-2l-.12-.57Z"/>
      <path class="cls-2" d="m513.1,255.53c1.77-.76,3.57-1.43,5.41-2,.56-.15,1.36.6,2,.93-.66.65-1.31,1.83-2,1.84-1.85-.11-3.68-.36-5.49-.75l.08-.02Z"/>
      <path class="cls-2" d="m243.52,130.21c1.32-2.34,4.03-3.51,6.64-2.88l.06.25-2.8,4.89-.72.22-3-1.89-.18-.59Z"/>
      <path class="cls-2" d="m329.86,110.77c-.62.77-1.26,2.18-1.83,2.15-1-.05-1.89-1-2.83-1.58.66-.62,1.28-1.69,2-1.75.85-.07,1.77.71,2.66,1.12v.06Z"/>
      <path class="cls-2" d="m425.79,131.44c1.38-.26,2.41-.78,3-.46.63.53.94,1.35.81,2.17-.55.65-1.4.98-2.24.85-.61-.18-.88-1.33-1.57-2.56Z"/>
      <path class="cls-2" d="m218.53,56.83c-.8.44-1.63,1.28-2.4,1.23-1.35-.23-2.67-.62-3.93-1.15l2.81-2.16h.15l3.37,2.13v-.05Z"/>
      <path class="cls-2" d="m370.05,505.67c-.06,1.38.2,2.48-.22,2.93-.55.7-1.57.83-2.27.28-.7-.55-.83-1.57-.27-2.28h0c.33-.49,1.45-.49,2.77-.93Z"/>
      <path class="cls-2" d="m286.69,508.33c.73.66,2.09,1.36,2,1.95-.07,1-1.06,1.89-1.66,2.83-.65-.64-1.72-1.21-1.83-1.92s.58-1.82.92-2.73l.57-.13Z"/>
      <path class="cls-2" d="m165.96,60.43l4.13.88c-.19.46-.39,1.33-.57,1.33-1.45,0-2.89-.22-4.33-.36l.77-1.85Z"/>
      <path class="cls-2" d="m277,50.21c-1.13-.64-2.23-1.34-3.29-2.1-.42-.33-.52-1.06-.78-1.61.63,0,1.56-.2,1.83.13.85,1.15,1.62,2.36,2.31,3.62l-.07-.04Z"/>
      <path class="cls-2" d="m338.23,96.91c.53-1.17,1.05-2.34,1.58-3.52.42.44,1.14.83,1.21,1.31.29,2.1-.83,2.75-2.76,2.33l-.03-.12Z"/>
      <path class="cls-2" d="m504.28,184.4c-.07-1.3-.14-2.47-.2-3.64.57.14,1.48.11,1.64.45.33.76.45,1.6.34,2.42-.02.25-.91.41-1.78.77Z"/>
      <path class="cls-2" d="m497.6,290.97l-1.44-2.34c.89.01,1.77.18,2.6.5.71.43,1.09,1.38,1.62,2.09l-2.78-.25Z"/>
      <path class="cls-2" d="m408.18,477.56c-.6-1.31-3.89,1.24-2.88-1.92.14-.44,2.73-.09,4.18-.1l.09.42c-.39.38-.66.86-.78,1.39l-.61.21Z"/>
      <path class="cls-2" d="m397.59,494.3c-.13-.69-.45-1.52-.27-1.65.73-.45,1.5-.81,2.3-1.1l.75,2-2.78.75Z"/>
      <path class="cls-2" d="m111.5,383.95c-1.79,1.09-3.18.88-3.62-1.36-.08-.45.64-1.05,1-1.58l2.56,2.38.06.56Z"/>
      <path class="cls-2" d="m74.22,351.67c-.61-.02-1.21-.12-1.79-.31-.62-.36-1.2-.77-1.73-1.25.42-.43.9-1.27,1.25-1.22,1.17.24,2.32.57,3.44,1h0c-.35.53-.66,1.09-.93,1.67l-.24.11Z"/>
      <path class="cls-2" d="m212.73,474.96c1.52.38,2.54.39,3.23.87.64.63,1.17,1.37,1.57,2.18-.91-.04-1.81-.22-2.66-.54-.72-.36-1.16-1.31-2.14-2.51Z"/>
      <path class="cls-2" d="m55.57,333.33c.65-1.15,1.37-2.26,2.14-3.33.34-.43,1.08-.54,1.64-.79,0,.63.22,1.58-.1,1.84-1.17.86-2.4,1.63-3.67,2.33v-.05Z"/>
      <path class="cls-2" d="m176.51,89v-3.29c0-.09.59-.16.91-.23-.3,1.17-.59,2.34-.89,3.51h-.02Z"/>
      <path class="cls-2" d="m464.64,284.88l2.26,3.86h-.05l-2.52-3.77.31-.09Z"/>
      <path class="cls-2" d="m159.46,98.53c-.16.28-.37.53-.61.74-.71.48-1.47.9-2.21,1.34-.07-.31-.31-.77-.18-.91.58-.64,1.22-1.23,1.91-1.75.19-.14.62,0,.94.08l.15.5Z"/>
      <path class="cls-2" d="m81.02,197.63c-.16.28-.35.54-.58.77-.71.53-1.47,1-2.2,1.5-.07-.31-.32-.78-.19-.92.59-.64,1.24-1.23,1.94-1.75.19-.13.62.07.94.12l.09.28Z"/>
      <path class="cls-2" d="m169.91,84.73c.28.16.53.37.75.6.49.72.92,1.48,1.37,2.22-.31.08-.77.32-.91.19-.65-.58-1.25-1.23-1.78-1.92-.14-.19,0-.62.09-1l.48-.09Z"/>
      <path class="cls-2" d="m512.18,302.42l1.58-.8c0,.6.13,1.32-.15,1.76s-1,.57-1.53.84c.03-.6.07-1.2.1-1.8Z"/>
      <path class="cls-2" d="m244.97,458.78c0,.62.26,1.2.07,1.55s-.85.72-1.3,1.07c-.14-.46-.52-1-.36-1.37s.84-.7,1.59-1.25Z"/>
      <path class="cls-2" d="m178.54,72.81c-.59-.04-1.17-.18-1.7-.43-.27-.19-.18-.87-.26-1.34.57.01,1.13.13,1.65.36.29.21.18.91.31,1.41Z"/>
      <path class="cls-2" d="m451.21,393.17c.57,0,1.26-.11,1.68.16s.55,1,.81,1.47c-.57,0-1.27.1-1.69-.17s-.55-.95-.8-1.46Z"/>
      <path class="cls-2" d="m64.41,310.04c.3.13.58.32.82.55.55.72,1,1.49,1.53,2.24-.32.08-.8.33-.94.2-.66-.61-1.25-1.28-1.77-2-.14-.18.1-.63.17-.95l.19-.04Z"/>
      <path class="cls-2" d="m458.25,384.57c-.32.58-.7,1.11-1.15,1.6-.5.34-1.04.6-1.61.79.05-.61-.12-1.58.19-1.77.8-.36,1.66-.61,2.53-.73l.04.11Z"/>
      <path class="cls-2" d="m410.53,462.31c-1.59-2.66-.94-3.89,2.23-3.49h0l-1.93,3.41-.3.08Z"/>
      <path class="cls-2" d="m433.95,453c.29.15.55.35.78.58.53.71,1,1.47,1.49,2.21-.32.08-.79.33-.93.2-.65-.61-1.25-1.28-1.77-2-.13-.19.08-.63.13-.95l.3-.04Z"/>
      <path class="cls-2" d="m373.63,474.52c0-.59-.12-1.29.15-1.72s1-.56,1.5-.83c0,.59.12,1.29-.16,1.73s-.97.56-1.49.82Z"/>
      <path class="cls-2" d="m344.99,462.11c1.28,2.63.67,4-2.45,3.56v-.13l1.57-3.16.88-.27Z"/>
      <path class="cls-2" d="m492.29,278.27l1.57-.8c0,.59.13,1.31-.15,1.75s-1,.57-1.52.84c.04-.6.07-1.19.1-1.79Z"/>
      <path class="cls-2" d="m252.41,494.81l1.38-1.08c.15.48.55,1.08.39,1.41s-.87.72-1.34,1.06l-.43-1.39Z"/>
      <path class="cls-2" d="m391.1,466.99c0-1.12,0-2.24.14-3.36,0-.1.6-.15.92-.23-.24,1.17-.47,2.35-.71,3.52l-.35.07Z"/>
      <path class="cls-2" d="m336.02,497.78l1.55-.78c0,.58.13,1.29-.15,1.72s-1,.56-1.51.83c.04-.59.07-1.18.11-1.77Z"/>
      <path class="cls-2" d="m164.41,75.82c1.12,0,2.25.07,3.37.19.11,0,.16.6.23.91l-3.52-.67-.08-.43Z"/>
      <path class="cls-2" d="m137.54,86.7c.06-1.13.09-2.25.22-3.37,0-.11.59-.16.91-.23l-.51,3.48-.62.12Z"/>
      <path class="cls-2" d="m384.04,91.82l1.55-.8c0,.59.13,1.3-.15,1.73s-1,.57-1.5.83c.03-.59.07-1.17.1-1.76Z"/>
      <path class="cls-2" d="m407.71,99.11c1.12,0,2.24,0,3.36.12.11,0,.16.61.24.93l-3.56-.81-.04-.24Z"/>
      <path class="cls-2" d="m271.04,55.77c.2-.26.34-.61.6-.78.73-.5,1.51-.93,2.27-1.39.08.32.33.8.2.94-.6.68-1.27,1.29-2,1.83-.18.14-.63-.06-1-.11l-.07-.49Z"/>
      <path class="cls-2" d="m189.13,68.34l2.77-.68h0l-1,1.71h-.07l-1.7-1.03Z"/>
      <path class="cls-2" d="m187.6,63.8c.3-.05.7-.24.87-.12.2.23.26.55.15.84-.13.18-.57.14-.87.19l-.15-.91Z"/>
      <path class="cls-2" d="m168.69,74.81l-1.66.81,1.64-.9.02.09Z"/>
      <path class="cls-2" d="m502.41,241.7c1.69-1.19,2.39-.84,2,1.26l-.45.11-.61-.47-.73-.27-.21-.63Z"/>
      <path class="cls-2" d="m484.25,221.19l1.76-.62-1.6,1.12-.16-.5Z"/>
      <path class="cls-2" d="m338.26,97.03l-1.68.81,1.65-.93.03.12Z"/>
      <path class="cls-2" d="m306.16,69.11c.28,0,.65-.22.8-.1.18.22.23.51.14.78-.13.17-.53.13-.82.18l-.12-.86Z"/>
      <path class="cls-2" d="m277.07,50.2c.28.55.55,1.11.83,1.66l-.9-1.65h.07Z"/>
      <path class="cls-2" d="m478.41,172.91l1.68-.78-1.68.98v-.2Z"/>
      <path class="cls-2" d="m479.82,176.63c0,.31.25.71.12.88-.23.2-.55.26-.84.15-.18-.13-.15-.57-.2-.88l.92-.15Z"/>
      <path class="cls-2" d="m506.46,216.03l1.65-.81-1.63.9-.02-.09Z"/>
      <path class="cls-2" d="m270.94,60.47l.67,1.75c-.36-.55-.72-1.1-1.09-1.65l.42-.1Z"/>
      <path class="cls-2" d="m270.52,60.57c-.2-.92-.41-1.84-.62-2.76l.33-.08c.24.91.48,1.82.71,2.74l-.42.1Z"/>
      <path class="cls-2" d="m188.17,46.57c-.26-.56-.52-1.11-.77-1.66.3.54.61,1.08.92,1.62l-.15.04Z"/>
      <path class="cls-2" d="m144.03,59.96l.85-.15-.71,1-.14-.85Z"/>
      <path class="cls-2" d="m518.14,259.71c.27,0,.64-.21.78-.1.18.21.23.5.14.76-.13.17-.53.13-.8.18l-.12-.84Z"/>
      <path class="cls-2" d="m162.07,79.72l-.14-.84,1,.7-.86.14Z"/>
      <path class="cls-2" d="m371.52,87.11c0,.27.21.64.1.79-.21.17-.5.22-.76.13-.16-.13-.12-.52-.17-.8l.83-.12Z"/>
      <path class="cls-2" d="m431.41,118.37l1.66-.85-1.65.88v-.03Z"/>
      <path class="cls-2" d="m375.63,81.69l1.78-.58c-.54.41-1.09.81-1.64,1.21l-.14-.63Z"/>
      <path class="cls-2" d="m485.56,173.73c.27,0,.64-.22.79-.1.17.22.22.51.13.77-.13.16-.52.12-.8.17l-.12-.84Z"/>
      <path class="cls-2" d="m476.1,157.43l-.84-1.65.87,1.64h-.03Z"/>
      <path class="cls-2" d="m476.13,157.42l.86,1.67c-.3-.55-.6-1.1-.89-1.66h.03Z"/>
      <path class="cls-2" d="m438.41,112.7c0-.27-.09-.54-.14-.81l.95.68-.81.13Z"/>
      <path class="cls-2" d="m408.34,91.23c.28-.05.66-.22.81-.11.18.22.23.52.14.79-.14.17-.54.13-.82.18-.06-.29-.06-.58-.13-.86Z"/>
      <path class="cls-2" d="m434.66,103.36l-.15-.85,1,.71-.85.14Z"/>
      <path class="cls-2" d="m431.08,100.4l.82-.14-.69,1c-.04-.32-.09-.59-.13-.86Z"/>
      <path class="cls-2" d="m73.41,329.85c-.27-.55-.55-1.11-.82-1.67l.9,1.65-.08.02Z"/>
      <path class="cls-2" d="m82.21,331.6l.94-.18-.74,1.11c-.08-.31-.14-.62-.2-.93Z"/>
      <path class="cls-2" d="m59.23,337.72l-1.65.84,1.64-.89v.05Z"/>
      <path class="cls-2" d="m275.27,468.2l.84-.14-.7,1-.14-.86Z"/>
      <path class="cls-2" d="m70.21,304.36l-1.67.72,1.61-1,.06.28Z"/>
      <path class="cls-2" d="m73.27,322.55l.77,1.39-1,.25v-1.59l.23-.05Z"/>
      <path class="cls-2" d="m73.06,322.6l-.75-1.68,1,1.63-.25.05Z"/>
      <path class="cls-2" d="m64.17,310.11l-.76-1.69c.31.54.62,1.08.94,1.62l-.18.07Z"/>
      <path class="cls-2" d="m94.59,400.53l.82-.13-.69.93c-.04-.22-.08-.53-.13-.8Z"/>
      <path class="cls-2" d="m181.85,452.11c-.05-.27-.09-.54-.14-.81l.94.69-.8.12Z"/>
      <path class="cls-2" d="m186.41,448.71c.05.31.25.72.13.89-.24.2-.57.26-.86.16-.19-.14-.15-.59-.21-.9l.94-.15Z"/>
      <path class="cls-2" d="m302.73,496.75l.83-.14-.69,1c-.05-.31-.09-.59-.14-.86Z"/>
      <path class="cls-2" d="m193.62,450.35l-1.66.85,1.65-.89v.04Z"/>
      <path class="cls-2" d="m193.61,450.31l1.66-.84-1.65.88v-.04Z"/>
      <path class="cls-2" d="m178.03,430.11c.3-.06.7-.24.86-.12.19.23.25.54.15.82-.14.18-.56.14-.86.2l-.15-.9Z"/>
      <path class="cls-2" d="m76.68,367.36c-1.6,1.35-2.25.9-2.07-1.1l.74-.2c.32.45.75.79,1.26,1l.07.3Z"/>
      <path class="cls-2" d="m399.53,454.21c.27-.05.65-.22.8-.1.18.21.23.51.13.77-.13.17-.53.13-.81.18l-.12-.85Z"/>
      <path class="cls-2" d="m409.97,437.73c-.53-.38-1.08-.74-1.65-1.07h0c.35-.53.64-1.09.87-1.68l.36-.06c.19.92.37,1.84.56,2.76l-.14.05Z"/>
      <path class="cls-2" d="m81.92,239.32l.81-.14-.69.94-.12-.8Z"/>
      <path class="cls-2" d="m87.71,291.19c.25.58.49,1.15.74,1.72l-1-1.65.26-.07Z"/>
      <path class="cls-2" d="m51.62,290.11c-.05-.27-.09-.54-.14-.81l1,.68-.86.13Z"/>
      <path class="cls-2" d="m407.49,469.32c-.05-.29-.1-.57-.14-.85l1,.71-.86.14Z"/>
      <path class="cls-2" d="m88.28,271.51c.27,0,.64-.22.79-.1.17.21.22.5.13.76-.13.16-.52.12-.8.17l-.12-.83Z"/>
      <path class="cls-2" d="m370.49,458.8l.6,1.76-1.08-1.66.48-.1Z"/>
      <path class="cls-2" d="m371.34,457.31c-.35.46-.63.96-.85,1.49l-.48.1c-.27-.9-.53-1.8-.8-2.7l.85-.2c.28.43.69.76,1.17.93l.11.38Z"/>
      <path class="cls-2" d="m395.55,468.35l.9-.17-.74,1.06c-.06-.3-.11-.6-.16-.89Z"/>
      <path class="cls-2" d="m112.58,103.27c.24.59.48,1.17.73,1.75-.35-.56-.69-1.12-1-1.68l.27-.07Z"/>
      <path class="cls-2" d="m499.67,336.61c.25.47.5.94.76,1.41l-1,.26v-1.6l.24-.07Z"/>
      <path class="cls-2" d="m105.59,119.11c.29,0,.68-.23.83-.11.19.22.24.53.14.8-.13.17-.54.13-.83.19-.05-.27-.09-.56-.14-.88Z"/>
      <path class="cls-2" d="m113.85,97.11l-1.64.84,1.63-.87v.03Z"/>
      <path class="cls-2" d="m132.73,114.51c-.39.46-.7.97-.93,1.53l-.3.06c-1.37-1.69-1-2.33,1.15-1.88l.08.29Z"/>
      <path class="cls-2" d="m71.2,194.97c.27,0,.64-.21.78-.09.17.21.22.49.13.75-.13.17-.52.13-.79.17l-.12-.83Z"/>
      <path class="cls-2" d="m472.17,412.93l2.75-.69.06.23c-.36.46-.64.97-.85,1.52l-.44.13-.7-.56-.77-.44-.05-.19Z"/>
      <path class="cls-2" d="m446.88,403.41l.66,1.7-1-1.6.34-.1Z"/>
      <path class="cls-2" d="m383.92,472.11c.28,0,.65-.22.8-.1.18.21.23.51.13.77-.13.17-.52.13-.81.18l-.12-.85Z"/>
      <path class="cls-2" d="m94.19,235.76c0-.28-.1-.56-.14-.83l1,.69-.86.14Z"/>
      <path class="cls-2" d="m76.25,209.89l.81-.13-.68.93c-.04-.27-.09-.53-.13-.8Z"/>
      <path class="cls-2" d="m85.41,209.64l-1.65.82c.55-.29,1.09-.59,1.63-.89l.02.07Z"/>
      <path class="cls-2" d="m494.17,369.79c.27,0,.64-.21.78-.1.17.21.22.5.13.76-.13.16-.52.12-.79.17l-.12-.83Z"/>
      <path class="cls-2" d="m470.48,364.11l1.66-.79-1.63.91-.03-.12Z"/>
      <path class="cls-2" d="m474.99,388.78l.83-.14-.7,1c-.04-.32-.08-.59-.13-.86Z"/>
      <path class="cls-2" d="m77.97,156.61c.31-.05.72-.25.89-.12.2.23.26.56.15.85-.14.18-.58.14-.88.2-.06-.31-.11-.62-.16-.93Z"/>
      <path class="cls-2" d="m461.59,393.95c-.17-.61-.35-1.23-.53-1.84.43.55.85,1.1,1.27,1.66l-.74.18Z"/>
      <path class="cls-2" d="m435.41,382.76c1.12,0,2.24.05,3.35.15.11,0,.16.6.24.91l-3.53-.74-.06-.32Z"/>
      <path class="cls-2" d="m444.24,383.7l-.67-1.69,1,1.6-.33.09Z"/>
      <path class="cls-2" d="m449.31,379.55l.84,1.66-.89-1.65h.05Z"/>
      <path class="cls-2" d="m447.58,378.59l-1.71.8,1.67-1,.04.2Z"/>
      <path class="cls-2" d="m447.54,378.42c.38-.47.66-1,.83-1.58l.46-.1.48,2.81h0c-.54-.35-1.1-.67-1.68-1l-.09-.13Z"/>
      <path class="cls-2" d="m447.7,425.22l1.58-.79c0,.6.13,1.32-.15,1.75s-1,.58-1.53.85c.03-.6.07-1.21.1-1.81Z"/>
      <path class="cls-2" d="m447.56,417.92c.21.59.41,1.19.61,1.79l-1.17-1.6.56-.19Z"/>
      <path class="cls-2" d="m236.29,93.87l2.78-.46c1.41.74,3.45,1.33,2,3.43-.42.59-2.21.47-3.29.25-.92-.36-1.78-.88-2.53-1.52v-.06c.3-.56.65-1.11,1.04-1.64Z"/>
      <path class="cls-2" d="m244.88,99.11l-1.05,1.73c-.16-.62-.33-1.24-.49-1.86l1.54.13Z"/>
      <path class="cls-2" d="m237.14,92.16c-.19.59-.49,1.13-.88,1.6l-.93-1.63,1.81.03Z"/>
      <path class="cls-2" d="m233.71,101.78l-2.69.65,2.69-.65Z"/>
      <path class="cls-2" d="m232.41,96.2l2.76-.69v.06l-2.78.65.02-.02Z"/>
      <path class="cls-2" d="m232.41,96.22l-1.65.85,1.65-.87v.02Z"/>
      <path class="cls-2" d="m443.73,253.29l4.76-3.86c2.75,3.92-2.23,3.12-3,4.9l-.31.08c-.51-.34-.99-.72-1.45-1.12Z"/>
      <path class="cls-2" d="m446.16,265.41c.28-.05.66-.23.82-.11.18.22.24.52.14.79-.14.18-.54.14-.83.19-.05-.29-.09-.58-.13-.87Z"/>
      <path class="cls-2" d="m445.5,254.33l.72,1.72-1-1.64.28-.08Z"/>
      <path class="cls-2" d="m301.57,435.78l1.72-.77-1.66,1-.06-.23Z"/>
      <path class="cls-2" d="m393.87,392.98l-3.82,2.4h0l3.82-2.39h0Z"/>
      <path class="cls-2" d="m395.6,394.04l.86,1.65c-.29-.55-.58-1.1-.88-1.65h.02Z"/>
      <path class="cls-2" d="m390.05,395.38l-1.65.86,1.65-.86Z"/>
      <path class="cls-2" d="m377.16,195.11c-.73-.07-1.62.07-1.8-.23-.34-.75-.58-1.54-.69-2.36.65-.07,1.79-.35,1.87-.17.3.9.51,1.82.62,2.76Z"/>
      <path class="cls-2" d="m382.41,195.81c.27,0,.64-.21.78-.1.18.21.23.51.14.77-.13.16-.53.12-.8.17l-.12-.84Z"/>
      <path class="cls-2" d="m371.05,266.62c-.22-1.13-.25-2.3-.09-3.44.22-.74,1.34-1.2,2.06-1.79-.05.9-.19,1.8-.42,2.67-.41.89-.9,1.74-1.46,2.54l-.09.02Z"/>
      <path class="cls-2" d="m372.25,253.2l.84.46.81.53-1.66.89c0-.63,0-1.25.01-1.88Z"/>
      <path class="cls-2" d="m107.14,307.46c0-.3-.11-.59-.16-.89l1,.73-.84.16Z"/>
      <path class="cls-2" d="m115.47,305.4c0-.27-.09-.55-.14-.82l1,.69-.86.13Z"/>
      <path class="cls-2" d="m439.96,425.76l1.66-.8-1.64.91-.02-.11Z"/>
      <path class="cls-2" d="m134.93,438.16l1.67-.88v1.83c-.57-.29-1.13-.6-1.67-.95Z"/>
      <path class="cls-2" d="m95.69,196.85c.23.58.45,1.15.68,1.72l-1-1.63.32-.09Z"/>
      <path class="cls-2" d="m228.41,424.49c.19.8.39,1.6.58,2.4-.18-.78-.38-1.6-.58-2.4Z"/>
      <path class="cls-2" d="m277.15,321.41l1.43-.23c-.03.57-.17,1.12-.41,1.64-.2.27-.87.18-1.33.26.1-.56.2-1.12.31-1.67Z"/>
      <path class="cls-2" d="m350.93,428.32c-.24-.56-.47-1.13-.7-1.69l1,1.61-.3.08Z"/>
      <path class="cls-2" d="m353.31,370.55c.22.25.59.46.65.73.26,1.26.44,2.53.65,3.79-.56-.03-1.12-.1-1.67-.21,0-1.42.11-2.85.21-4.27l.16-.04Z"/>
      <path class="cls-2" d="m99.65,333.78c-.07,1.12-.11,2.24-.24,3.35,0,.12-.58.16-.9.24.18-1.16.35-2.31.52-3.47l.62-.12Z"/>
      <path class="cls-2" d="m211.46,421.11l.66,2.7-.66-2.7Z"/>
      <path class="cls-2" d="m212.5,419.35c-.31.59-.66,1.15-1.05,1.69l-.84-1.3,1.89-.39Z"/>
      <path class="cls-2" d="m127.91,348.74c-.58-.17-1.11-.49-1.53-.93.02-.31.08-.61.17-.91.37-.9.78-1.78,1.17-2.67.47.96.84,1.96,1.1,3,.08.41-.58.99-.91,1.51Z"/>
      <path class="cls-2" d="m250.72,340.94l1.7-.65-1.61,1-.09-.35Z"/>
      <path class="cls-2" d="m225.02,65.74l-.84-1.69c.31.56.62,1.11.92,1.67l-.08.02Z"/>
      <path class="cls-2" d="m197.03,78.17c-.41-.43-.87-.8-1.39-1.09v-.09l1.29-.83.72,1.83-.62.18Z"/>
      <path class="cls-2" d="m195.64,77.11l-1.65.8c.55-.29,1.09-.59,1.63-.89l.02.09Z"/>
      <path class="cls-2" d="m234.29,430.21c.21-.58.56-1.11,1-1.55.2.84.4,1.67.61,2.51-.59-.22-1.14-.55-1.61-.96Z"/>
      <path class="cls-2" d="m428.19,193.98l2.18-.53-2.18.53Z"/>
      <path class="cls-2" d="m324.23,445.11c-.25.59-.57,1.14-.94,1.66l-.88-1.66h1.82Z"/>
      <path class="cls-2" d="m427.02,269.11c.19,1.16.19,2.33,0,3.49-.23.73-1.36,1.19-2.08,1.78.02-.89.15-1.78.37-2.65.4-.9.88-1.76,1.44-2.57l.27-.05Z"/>
      <path class="cls-2" d="m443.28,281.28l.65,1.71-1-1.61.35-.1Z"/>
      <path class="cls-2" d="m441.61,287.42c-.58-.25-1.13-.57-1.63-.95l1.65-.89c-.01.61-.01,1.23-.02,1.84Z"/>
      <path class="cls-2" d="m129.07,305.02l-2.8,2.14c-.28-1.17-.56-2.34-.85-3.52l3.47.64.18.74Z"/>
      <path class="cls-2" d="m187.85,335.77l1.67-.78-1.63.93-.04-.15Z"/>
      <path class="cls-2" d="m354.13,82.87l.63,1.71-1.07-1.6.44-.11Z"/>
      <path class="cls-2" d="m239.67,157.52c-.19-.59-.39-1.18-.58-1.76l1.15,1.62-.57.14Z"/>
      <path class="cls-2" d="m301.64,242.52l-1.73.61,1.61-1.09.12.48Z"/>
      <path class="cls-2" d="m239.49,312.67c-2.11-1.58-.15-2.7.45-4l-.45,4Z"/>
      <path class="cls-2" d="m216.49,296.52c-2.29-2.67.61-4,1.48-5.91,3.59,2.99,3.55,3.15-1.48,5.91Z"/>
      <path class="cls-2" d="m253.57,212.85l.72,1.75c-.35-.56-.7-1.11-1.06-1.66l.34-.09Z"/>
      <path class="cls-2" d="m98.48,215.23c.23.93.45,1.85.68,2.78-.23-.9-.45-1.85-.68-2.78Z"/>
      <path class="cls-2" d="m299.09,346.91l-4.07-4.8c.3-.57.6-1.14.93-1.7l.2-.05,4.31.45-1.37,6.1Z"/>
      <path class="cls-2" d="m295.95,340.44c-.26-.56-.51-1.12-.77-1.69l1,1.64-.23.05Z"/>
      <path class="cls-2" d="m190.89,160.83l-1.75.62,1.63-1.12.12.5Z"/>
      <path class="cls-2" d="m94.41,368.77l-.62-1.76,1.13,1.63-.51.13Z"/>
      <path class="cls-2" d="m220.99,242.53l1.75-.69-1.65,1.09-.1-.4Z"/>
      <path class="cls-2" d="m315.11,134.71c-.59-.18-1.14-.51-1.58-.94l1.8-.56c-.08.5-.15,1-.22,1.5Z"/>
      <path class="cls-2" d="m419.9,373.48c-.25.57-.59,1.1-1,1.57l-.86-1.62,1.86.05Z"/>
      <path class="cls-2" d="m162.12,362.62c.24-.57.58-1.09,1-1.54l3.38,1.94-4.38-.4Z"/>
      <path class="cls-2" d="m107.5,216.11c.21.87.42,1.75.64,2.62-.22-.86-.43-1.74-.64-2.62Z"/>
      <path class="cls-2" d="m99.55,213.51l2.73-.66-2.73.66Z"/>
      <path class="cls-2" d="m376.76,296.04l.85.52.85.53-1.3.83c-.14-.63-.27-1.25-.4-1.88Z"/>
      <path class="cls-2" d="m119.41,223.36c-.25-.57-.5-1.14-.74-1.72.33.55.67,1.1,1,1.65l-.26.07Z"/>
      <path class="cls-2" d="m293.83,270.79l-1.72.63,1.61-1.06.11.43Z"/>
      <path class="cls-2" d="m202.79,214.86c.09-.56.4-1.06.85-1.4l.92,1.52-1.77-.12Z"/>
      <path class="cls-2" d="m147.32,150.46c-.59-.25-1.15-.56-1.68-.93l2.74-.66c-.29.57-.64,1.1-1.06,1.59Z"/>
      <path class="cls-2" d="m344.84,136.27c-.59-.15-1.13-.47-1.56-.91l2.41-.57c-.11.57-.41,1.1-.85,1.48Z"/>
      <path class="cls-2" d="m146.56,152.23c.08-.59.38-1.12.83-1.5l3.4,1.95-4.23-.45Z"/>
      <path class="cls-2" d="m214.91,168.89c-2.15,1.7-4.25,3.44-6.48,5-.2.14-2-1.14-1.89-1.6.53-3.65,3-5.33,6.51-5.64.4-.04.8.1,1.09.38.32.59.58,1.21.77,1.86Z"/>
      <path class="cls-2" d="m247.64,266.8c.72-1,1.82-2.92,2.08-2.82,2.55,1.06,4.11,4.5,2.74,5.82-.79.75-3,1.4-3.21,1.13-.71-1.3-1.25-2.68-1.6-4.12h0Z"/>
      <path class="cls-2" d="m384.74,123.11c-1.14.91-2.25,2.49-3.43,2.53-.9,0-1.88-1.85-2.83-2.89,1.03-.47,2.13-.81,3.25-1,.99.13,1.94.42,2.83.87l.18.49Z"/>
      <path class="cls-2" d="m117.41,248.17c.5,1.69.82,2.76,1.14,3.83-1.14.23-2.5.94-3.37.55s-1.13-1.89-1.67-2.9l3.9-1.48Z"/>
      <path class="cls-2" d="m178.93,368.47c.43,1.16,1.2,2.32,1.21,3.49-.17,1.2-.59,2.35-1.21,3.39-.1.24-.52.33-.8.49-.33-1.17-.56-2.37-.7-3.58.02-1.15.18-2.29.47-3.4.03-.15.51-.2,1.03-.39Z"/>
      <path class="cls-2" d="m72.35,243.99l1.86,2c-.88.16-1.77.16-2.65,0-.77-.29-1.33-1.14-2-1.74l2.79-.26Z"/>
      <path class="cls-2" d="m55.86,235.52l-1.4,1.08c-.08-.59-.38-1.26-.19-1.75s.88-.75,1.35-1.12l.24,1.79Z"/>
      <path class="cls-2" d="m79.98,255.44l-1.39,1.09c-.08-.59-.37-1.26-.18-1.74s.86-.75,1.33-1.12l.24,1.77Z"/>
      <path class="cls-2" d="m271.78,400.58l4.19-1.86c.67,2.33,1.33,4.67,2,7-2.22.14-4.48.62-6.65.33s-2.3-1.25.46-5.47Z"/>
      <path class="cls-2" d="m56.13,281.59l.82-.14-.69.94c-.04-.28-.08-.53-.13-.8Z"/>
      <path class="cls-2" d="m45.29,282.8l1.86,2c-.88.16-1.78.16-2.66,0-.77-.29-1.32-1.14-2-1.74l2.8-.26Z"/>
      <path class="cls-2" d="m30.08,277.79l-1.4,1.08c-.08-.59-.38-1.27-.19-1.75s.88-.75,1.35-1.12l.24,1.79Z"/>
      <path class="cls-2" d="m63.67,202.95l.82-.14-.69.94c-.04-.27-.09-.53-.13-.8Z"/>
      <path class="cls-2" d="m266.49,334.22c-1.77,1.42-3.5,3.86-5.32,3.93-1.4,0-2.92-2.88-4.38-4.48,1.68-.55,3.34-1.46,5-1.52,1.44-.06,2.92.86,4.38,1.35l.32.72Z"/>
      <path class="cls-2" d="m141.19,215.29c.51,1.69.82,2.76,1.14,3.83-1.14.23-2.5.94-3.36.55s-1.14-1.88-1.68-2.89l3.9-1.49Z"/>
      <path class="cls-2" d="m181.81,350l1.86,2c-.88.16-1.77.16-2.65,0-.77-.29-1.33-1.14-2-1.75l2.79-.25Z"/>
      <path class="cls-2" d="m37.62,199.11l-1.4,1.08c-.09-.59-.39-1.27-.19-1.75s.87-.75,1.34-1.12c.04.63.17,1.23.25,1.79Z"/>
      <path class="cls-2" d="m222.13,128.62l2.62-4.83c.51.4,1.52,1,1.45,1.19-.56,1.8-1.33,3.54-2,5.29l-2.07-1.65Z"/>
      <path class="cls-2" d="m341.55,67.66c-.26.73-.65,1.41-1.16,2-.34.27-1.16-.09-1.77-.16.34-.67.52-1.53,1.06-1.93.37-.32,1.21.02,1.87.09Z"/>
      <path class="cls-2" d="m308.83,56.16c.13.79.26,1.58.4,2.36-.18-.79-.35-1.58-.53-2.37h.13Z"/>
      <path class="cls-2" d="m312.53,66.23l-1.12-.12,1.23-1c-.02.4-.07.76-.11,1.12Z"/>
      <path class="cls-2" d="m135.23,147.71c-.15.28-.35.54-.58.77-.71.54-1.46,1-2.2,1.5-.07-.31-.32-.78-.19-.92.59-.64,1.24-1.23,1.94-1.74.19-.14.62.06.94.11l.09.28Z"/>
      <path class="cls-2" d="m108.96,140.6c.27-.05.64-.22.78-.1.18.21.23.5.13.76-.13.16-.52.12-.79.17l-.12-.83Z"/>
      <path class="cls-2" d="m98.15,180.45l.81-.13-.68.93c-.04-.26-.09-.53-.13-.8Z"/>
      <path class="cls-2" d="m146.34,171.2c.44,1.17,1.21,2.33,1.22,3.5s-.73,2.28-1.21,3.39c-.1.24-.53.33-.8.49-.33-1.17-.56-2.37-.7-3.58.02-1.15.17-2.29.46-3.4.03-.15.51-.21,1.03-.4Z"/>
      <path class="cls-2" d="m85.57,173.51l.82-.14-.69.94c-.04-.26-.09-.53-.13-.8Z"/>
      <path class="cls-2" d="m172.12,158.83l1.85,2c-.88.16-1.77.16-2.65,0-.77-.29-1.33-1.15-2-1.75l2.8-.25Z"/>
      <path class="cls-2" d="m62.47,178.95l-1.4,1.09c-.09-.59-.39-1.27-.19-1.75s.87-.76,1.34-1.13c.08.6.19,1.19.25,1.79Z"/>
      <path class="cls-2" d="m393.83,375.43c2.63-3.48,8.92-4.28,12.19-1.37.66.59.57,2,.82,3.06l-13.7,1.37.69-3.06Z"/>
      <path class="cls-2" d="m371.93,336.98l-2.45-4.09c1.64.48,3.48.64,4.85,1.53s2,2.41,3,3.66l-5.4-1.1Z"/>
      <path class="cls-2" d="m457.02,349.05c-.12-.69-.44-1.52-.26-1.65.73-.45,1.5-.82,2.3-1.11l.74,2-2.78.76Z"/>
      <path class="cls-2" d="m404.34,339.99c1.53.38,2.55.39,3.24.87.64.63,1.17,1.37,1.57,2.18-.91-.04-1.81-.22-2.66-.54-.72-.39-1.16-1.31-2.15-2.51Z"/>
      <path class="cls-2" d="m469.96,317.11c-1.59-2.66-.94-3.89,2.24-3.49h0l-1.94,3.41-.3.08Z"/>
      <path class="cls-2" d="m470.26,316.97c.29.15.56.34.79.57.53.72,1,1.48,1.49,2.22-.32.08-.8.32-.93.2-.66-.6-1.25-1.28-1.77-2-.14-.18.07-.62.12-.94l.3-.05Z"/>
      <path class="cls-2" d="m433.07,329.27c0-.59-.13-1.3.15-1.72s1-.56,1.5-.83c0,.59.11,1.29-.17,1.73s-.97.56-1.48.82Z"/>
      <path class="cls-2" d="m404.41,316.83c1.28,2.63.68,4-2.45,3.56v-.13l1.55-3.15.9-.28Z"/>
      <path class="cls-2" d="m450.53,321.74c0-1.12.05-2.24.15-3.36,0-.1.59-.16.91-.23-.23,1.17-.47,2.34-.7,3.52l-.36.07Z"/>
      <path class="cls-2" d="m430.85,359.71l1.55-.78c0,.59.13,1.3-.15,1.72s-1,.57-1.51.83c.03-.59.07-1.18.11-1.77Z"/>
      <path class="cls-2" d="m362.17,351.5l.82-.14-.69,1c-.04-.32-.09-.59-.13-.86Z"/>
      <path class="cls-2" d="m458.96,308.96c.28-.05.65-.22.8-.1.18.21.23.51.14.77-.13.17-.53.13-.81.18-.05-.29-.09-.57-.13-.85Z"/>
      <path class="cls-2" d="m473.84,314.63c-.53-.38-1.08-.74-1.64-1.07h0c.35-.53.64-1.09.87-1.68l.36-.06c.19.92.37,1.84.56,2.76l-.15.05Z"/>
      <path class="cls-2" d="m401.97,320.39c-1.63,1.5-2.23,1.06-2-1l.53-.14c.41.41.88.75,1.4,1l.07.14Z"/>
      <path class="cls-2" d="m466.93,324.11l-.15-.84,1,.71-.85.13Z"/>
      <path class="cls-2" d="m429.93,313.55l.6,1.76c-.36-.55-.73-1.1-1.09-1.66l.49-.1Z"/>
      <path class="cls-2" d="m430.77,312.05c-.34.47-.62.97-.84,1.5l-.49.1c-.26-.9-.53-1.8-.79-2.71l.85-.19c.28.43.69.76,1.17.93l.1.37Z"/>
      <path class="cls-2" d="m431.93,310.11c1.31,1.67.93,2.31-1.16,1.92l-.1-.37c.41-.41.72-.91.91-1.46l.35-.09Z"/>
      <path class="cls-2" d="m454.98,323.11l.91-.16-.75,1.06c-.05-.32-.1-.62-.16-.9Z"/>
      <path class="cls-2" d="m443.41,326.88c.27,0,.65-.22.79-.1.18.21.23.51.14.77-.13.17-.53.13-.81.18l-.12-.85Z"/>
      <path class="cls-2" d="m410.41,283.11l-.69-1.7,1,1.62-.31.08Z"/>
      <path class="cls-2" d="m474.41,279.88c-.46-.79-1.33-1.59-1.3-2.36.18-1.37.52-2.71,1-4,.75.91,1.49,1.83,2.24,2.75v.14c-.67,1.15-1.35,2.29-2,3.43l.06.04Z"/>
      <path class="cls-2" d="m460.96,204.63c-.24,1.33-.5,2.74-.76,4.15-.47-.17-1.34-.35-1.34-.53,0-1.44.13-2.89.23-4.34l1.87.72Z"/>
      <path class="cls-2" d="m432.7,216c1.1,0,2.2-.11,3.29-.08.09,0,.18.59.26.9l-3.54-.79v-.03Z"/>
      <path class="cls-2" d="m422.69,199.22c-.28-.16-.53-.36-.75-.59-.5-.7-.95-1.44-1.41-2.17.31-.08.76-.33.9-.21.66.56,1.27,1.19,1.81,1.87.15.18,0,.61-.05.93l-.5.17Z"/>
      <path class="cls-2" d="m436.78,209.27c-.15.28-.35.54-.58.77-.7.51-1.45,1-2.18,1.44-.08-.32-.33-.77-.21-.92.56-.67,1.19-1.28,1.87-1.82.18-.15.62,0,1,.06l.1.47Z"/>
      <path class="cls-2" d="m448.94,217.56c.03-.59.15-1.17.38-1.71.19-.28.87-.21,1.34-.3,0,.57-.1,1.13-.32,1.66-.2.29-.93.24-1.4.35Z"/>
      <path class="cls-2" d="m445.54,203.56c0,1.12,0,2.25-.1,3.37,0,.11-.59.18-.9.26l.57-3.54.43-.09Z"/>
      <path class="cls-2" d="m433.89,176.97c1.13,0,2.25,0,3.38.13.11,0,.17.58.25.9l-3.49-.41-.14-.62Z"/>
      <path class="cls-2" d="m453.71,228.01c.26.92.51,1.84.76,2.75h0l-1.74-1v-.07c.32-.53.68-1.1.98-1.68Z"/>
      <path class="cls-2" d="m458.21,226.36c.06.3.27.69.15.86-.23.21-.55.28-.84.18-.18-.13-.15-.57-.22-.87l.91-.17Z"/>
      <path class="cls-2" d="m446.66,207.77l-.85-1.66.94,1.6-.09.06Z"/>
      <path class="cls-2" d="m475.41,226.43l1.64-.82-1.6,1-.04-.18Z"/>
      <path class="cls-2" d="m460.81,182.69c.05.28.11.57.17.85l-1-.68.83-.17Z"/>
      <path class="cls-2" d="m441.57,201.29l.84-.18-.67,1c-.07-.27-.12-.54-.17-.82Z"/>
      <path class="cls-2" d="m416.61,152.5l-1.73.77,1.66-1.07.07.3Z"/>
      <path class="cls-2" d="m400.55,145.97c.06.28.25.66.14.82-.22.2-.52.26-.8.17-.18-.13-.15-.55-.21-.84l.87-.15Z"/>
      <path class="cls-2" d="m422.8,153.59c-.29-.54-.58-1.08-.88-1.62.31.54.61,1.08.92,1.61h-.04Z"/>
      <path class="cls-2" d="m405.95,172.96c-.47-.36-.99-.64-1.54-.85l-.07-.3c1.65-1.41,2.3-1.06,1.91,1.1l-.3.05Z"/>
      <path class="cls-2" d="m457.34,263.81l1.67-.88-1.65,1-.02-.12Z"/>
      <path class="cls-2" d="m444.12,236.19c.42-.42.77-.89,1.05-1.41h.09l.86,1.27-1.81.77-.19-.63Z"/>
      <path class="cls-2" d="m445.17,234.78l-.85-1.63.93,1.6-.08.03Z"/>
      <path class="cls-2" d="m370.41,188.57c.23-.6.52-1.17.88-1.7.24.9.49,1.81.74,2.71-.58-.27-1.12-.61-1.62-1.01Z"/>
      <path class="cls-2" d="m368.64,187.86c.59.06,1.14.34,1.53.79l-1.86,3.46.33-4.25Z"/>
      <path class="cls-2" d="m481.61,240.94c-1.15.47-2.29,1.28-3.46,1.32-1.2-.14-2.37-.52-3.43-1.11-.23-.1-.34-.52-.5-.79,1.16-.36,2.35-.63,3.55-.8,1.15-.01,2.29.11,3.41.37.15.02.23.5.43,1.01Z"/>
      <path class="cls-2" d="m351.3,306.62c-1.53.62-3.05,1.69-4.6,1.75s-3.07-.88-4.57-1.48c-.31-.13-.45-.69-.67-1,1.54-.49,3.13-.85,4.73-1.07,1.53-.02,3.05.15,4.54.49.2,0,.29.62.57,1.31Z"/>
      <path class="cls-2" d="m406.41,243.58c-.8.43-1.63,1.28-2.4,1.22-1.35-.23-2.67-.62-3.93-1.15l2.81-2.16h.15l3.37,2.13v-.04Z"/>
      <path class="cls-2" d="m374.32,262.86l4.13.88c-.19.47-.38,1.33-.57,1.33-1.44,0-2.89-.21-4.33-.35l.77-1.86Z"/>
      <path class="cls-2" d="m384.88,291.44v-3.29c0-.1.6-.16.91-.24-.29,1.17-.59,2.35-.89,3.52h-.02Z"/>
      <path class="cls-2" d="m367.82,300.96c-.16.28-.37.53-.61.74-.71.48-1.47.9-2.21,1.35-.07-.31-.3-.77-.18-.91.58-.65,1.22-1.24,1.92-1.76.18-.14.61.05.93.08l.15.5Z"/>
      <path class="cls-2" d="m386.9,275.25c-.58-.04-1.16-.18-1.69-.43-.27-.2-.19-.88-.27-1.34.57,0,1.13.12,1.65.36.29.21.22.91.31,1.41Z"/>
      <path class="cls-2" d="m372.81,278.25c1.12.05,2.25.08,3.37.2.11,0,.16.59.24.91l-3.53-.68-.08-.43Z"/>
      <path class="cls-2" d="m325.41,273.44c.06-1.12.09-2.25.22-3.37,0-.11.59-.16.91-.23l-.51,3.48-.62.12Z"/>
      <path class="cls-2" d="m397.49,270.78l2.77-.68h0l-1,1.71h-.07l-1.7-1.03Z"/>
      <path class="cls-2" d="m395.97,266.24c.29-.06.7-.25.86-.13.2.23.26.55.15.84-.13.18-.56.14-.87.2-.05-.31-.1-.61-.14-.91Z"/>
      <path class="cls-2" d="m377.05,277.25l-1.64.86,1.63-.9v.04Z"/>
      <path class="cls-2" d="m376.07,233.31c-.26-.55-.52-1.11-.77-1.66.3.54.61,1.08.92,1.62l-.15.04Z"/>
      <path class="cls-2" d="m331.93,246.7l.85-.15-.71,1-.14-.85Z"/>
      <path class="cls-2" d="m370.41,282.16l-.14-.84,1,.7-.86.14Z"/>
      <path class="cls-2" d="m300.48,290.02c.24.58.48,1.16.73,1.74l-1-1.68.27-.06Z"/>
      <path class="cls-2" d="m293.49,305.88c.29,0,.68-.23.83-.11.19.22.24.53.14.8-.13.17-.54.13-.83.19-.05-.3-.09-.59-.14-.88Z"/>
      <path class="cls-2" d="m301.75,283.86l-1.64.83,1.63-.87v.04Z"/>
      <path class="cls-2" d="m320.63,301.25c-.38.46-.7.98-.93,1.53l-.3.06c-1.37-1.69-1-2.32,1.15-1.88l.08.29Z"/>
      <path class="cls-2" d="m412.92,252.49l-.84-1.7.92,1.67-.08.03Z"/>
      <path class="cls-2" d="m405.41,280.6c-.41-.43-.87-.79-1.38-1.09v-.08l1.3-.84.72,1.84-.64.17Z"/>
      <path class="cls-2" d="m404.01,279.51l-1.66.81,1.63-.89.03.08Z"/>
      <path class="cls-2" d="m335.22,337.2c-.59-.25-1.15-.56-1.68-.93l2.74-.66c-.29.57-.64,1.1-1.06,1.59Z"/>
      <path class="cls-2" d="m334.46,338.98c.08-.59.37-1.13.83-1.51l3.4,1.95-4.23-.44Z"/>
      <path class="cls-2" d="m390.75,227.57c.44,1.16,1.21,2.33,1.22,3.49s-.73,2.29-1.21,3.4c-.1.23-.53.33-.8.48-.33-1.17-.56-2.36-.7-3.57.02-1.15.17-2.29.46-3.4.03-.15.51-.21,1.03-.4Z"/>
      <path class="cls-2" d="m189.3,288.92c.53.75,1.45,1.48,1.48,2.25-.08,1.36-.32,2.7-.72,4l-2.45-2.56v-.14l1.75-3.58-.06.03Z"/>
      <path class="cls-2" d="m225.83,327.21c-1.09.13-2.18.28-3.27.34-.1,0-.23-.57-.34-.88l3.6.5v.04Z"/>
      <path class="cls-2" d="m237.14,343.11c.29.13.56.31.8.52.56.66,1.06,1.36,1.58,2.05-.3.11-.73.39-.88.28-.72-.51-1.39-1.08-2-1.71-.16-.17,0-.62,0-.94l.5-.2Z"/>
      <path class="cls-2" d="m222.3,334.24c.13-.29.3-.57.51-.81.67-.57,1.37-1.08,2.06-1.61.11.31.4.74.29.89-.51.72-1.08,1.39-1.72,2-.17.16-.63,0-.95,0l-.19-.47Z"/>
      <path class="cls-2" d="m209.51,326.95c.03.59-.05,1.17-.24,1.73-.16.29-.85.28-1.3.41-.06-.57,0-1.14.18-1.68.18-.3.88-.3,1.36-.46Z"/>
      <path class="cls-2" d="m214.03,340.63c-.08-1.12-.17-2.25-.18-3.37,0-.11.58-.22.88-.33-.09,1.19-.19,2.38-.28,3.57l-.42.13Z"/>
      <path class="cls-2" d="m227.76,366.21c-1.13.06-2.26.15-3.38.14-.11,0-.22-.57-.33-.88l3.52.13.19.61Z"/>
      <path class="cls-2" d="m203.93,316.91c-.33-.9-.65-1.79-1-2.68h0l1.81.83v.05c-.24.6-.53,1.2-.81,1.8Z"/>
      <path class="cls-2" d="m199.58,318.91c-.09-.29-.32-.67-.22-.85.21-.22.52-.31.82-.24.19.12.2.55.29.85l-.89.24Z"/>
      <path class="cls-2" d="m212.57,336.52l1,1.56-1.07-1.52.07-.04Z"/>
      <path class="cls-2" d="m182.41,320.21l-1.56.95,1.51-1.09.05.14Z"/>
      <path class="cls-2" d="m200.47,362.65l-.24-.83,1.07.6-.83.23Z"/>
      <path class="cls-2" d="m218.16,342.57l-.81.24c.19-.35.39-.7.59-1.05.07.27.15.54.22.81Z"/>
      <path class="cls-2" d="m246.93,389.23l1.66-.91-1.57,1.2-.09-.29Z"/>
      <path class="cls-2" d="m263.46,394.46c-.08-.28-.3-.65-.2-.81.2-.22.5-.31.78-.23.19.11.19.53.28.81l-.86.23Z"/>
      <path class="cls-2" d="m240.67,388.63l1,1.54-1-1.53h0Z"/>
      <path class="cls-2" d="m255.92,367.98c.5.33,1.05.59,1.62.76l.1.29c-1.54,1.54-2.21,1.25-2-.93l.28-.12Z"/>
      <path class="cls-2" d="m197.46,281.51l-1.59,1,1.56-1.11.03.11Z"/>
      <path class="cls-2" d="m212.84,307.99c-.38.45-.7.95-.93,1.49h-.09l-1-1.2,1.74-.91.28.62Z"/>
      <path class="cls-2" d="m211.91,309.48l1,1.56c-.35-.51-.7-1-1.06-1.52l.06-.04Z"/>
      <path class="cls-2" d="m290.08,349.59c-.18.62-.43,1.21-.74,1.77-.32-.88-.64-1.77-.95-2.65.6.22,1.16.52,1.69.88Z"/>
      <path class="cls-2" d="m291.93,350.11c-.59-.01-1.16-.25-1.58-.66l1.57-3.6c0,1.46,0,2.88,0,4.26Z"/>
      <path class="cls-2" d="m175.09,306.24c1.11-.56,2.18-1.45,3.34-1.59,1.21.05,2.41.33,3.51.84.24.07.38.49.57.74-1.13.46-2.29.82-3.48,1.09-1.15.1-2.3.06-3.44-.1-.18,0-.25-.48-.5-.98Z"/>
      <path class="cls-2" d="m170.41,281.87c1.11-.56,2.18-1.45,3.34-1.59,1.21.04,2.41.33,3.51.84.24.07.38.48.57.74-1.13.45-2.29.82-3.48,1.08-1.14.1-2.29.07-3.43-.09-.18-.02-.29-.49-.51-.98Z"/>
      <path class="cls-2" d="m297.23,399.01c.91.08,2.07-.15,2.68.32.99.95,1.87,2.01,2.61,3.16l-3.53.21-.15-.05-1.6-3.64h0Z"/>
      <path class="cls-2" d="m350.05,395.81c-.6.92-1.19,1.85-1.85,2.72-.05.08-.58-.2-.88-.31l2.7-2.42h.03Z"/>
      <path class="cls-2" d="m369,378.8c.29-.14.6-.23.92-.28.86,0,1.72.08,2.58.12-.11.3-.17.81-.35.86-.84.21-1.7.34-2.57.39-.24,0-.49-.38-.73-.59l.15-.5Z"/>
      <path class="cls-2" d="m370.29,404.53c-.14-.29-.23-.6-.29-.92,0-.87.07-1.74.11-2.61.3.12.82.18.86.36.22.85.35,1.72.39,2.59,0,.23-.38.48-.59.73l-.48-.15Z"/>
      <path class="cls-2" d="m339.33,408.11c.43.45,1,.81,1.17,1.3.11.31-.34.83-.54,1.26-.4-.4-1-.74-1.16-1.22s.32-.88.53-1.34Z"/>
      <path class="cls-2" d="m352.69,413.49c-.9-.67-1.82-1.32-2.68-2-.09-.07.2-.58.31-.88l2.55,2.52-.18.36Z"/>
      <path class="cls-2" d="m381.09,419.5c-.68.9-1.34,1.82-2.07,2.67-.07.09-.58-.2-.88-.31l2.37-2.61.58.25Z"/>
      <path class="cls-2" d="m328.05,405.9l-2.68-1h0l1.8-.85h.06l.82,1.85Z"/>
      <path class="cls-2" d="m326.78,410.52c-.28-.13-.72-.19-.79-.39-.03-.3.1-.6.34-.78.22-.07.55.2.84.32l-.39.85Z"/>
      <path class="cls-2" d="m348.61,411.95l1.83.26-1.86-.17.03-.09Z"/>
      <path class="cls-2" d="m316.68,424.49c-.1.6-.19,1.21-.29,1.81,0-.62.09-1.24.14-1.86l.15.05Z"/>
      <path class="cls-2" d="m360.77,438.05l-.8-.35,1.15-.43-.35.78Z"/>
      <path class="cls-2" d="m356.85,411.58l-.35.77-.42-1.12.77.35Z"/>
      <path class="cls-2" d="m411.05,419.7c.13-.62.25-1.23.37-1.85l-.09,2-.28-.15Z"/>
      <path class="cls-2" d="m425.71,410.45c-.26-.12-.69-.19-.75-.37-.03-.29.09-.58.33-.75.21-.06.53.2.8.32l-.38.8Z"/>
      <path class="cls-2" d="m406.55,424.11l1.83.23-1.84-.2v-.03Z"/>
      <path class="cls-2" d="m400.62,399.11c.58-.17,1.13-.42,1.63-.74l.28.11c.19,2.17-.47,2.49-2,.92l.09-.29Z"/>
      <path class="cls-2" d="m296.84,388c-.09.62-.17,1.24-.26,1.87.06-.64.11-1.27.17-1.9l.09.03Z"/>
      <path class="cls-2" d="m326.99,393.33c.09.58.28,1.15.54,1.68v.09h-1.54c.14-.64.29-1.28.43-1.92l.57.15Z"/>
      <path class="cls-2" d="m327.53,395.01l1.82.26-1.85-.17.03-.09Z"/>
      <path class="cls-2" d="m408.6,361.16c.36.54.65,1.11.88,1.71l-2.64-1c.56-.31,1.15-.55,1.76-.71Z"/>
      <path class="cls-2" d="m410.23,360.11c-.39.45-.94.73-1.53.79l-1.73-3.52,3.26,2.73Z"/>
      <path class="cls-2" d="m276.01,451.66c.28-1.21.29-2.61.94-3.58s1.88-1.49,2.9-2.14c.21-.14.62,0,.94,0-.38,1.15-.86,2.27-1.42,3.35-.66.94-1.43,1.8-2.29,2.56-.11.16-.53-.06-1.07-.19Z"/>
      <path class="cls-2" d="m200.46,432.04l-2.94-3c.42-.28,1.07-.89,1.22-.78,1.18.83,2.27,1.79,3.39,2.72l-1.67,1.06Z"/>
      <path class="cls-2" d="m207.67,402.45c-.61.91-1.19,1.84-1.85,2.71-.06.08-.58-.2-.89-.31l2.7-2.42.04.02Z"/>
      <path class="cls-2" d="m227.14,404.11c.29-.13.6-.22.91-.27.87,0,1.73.08,2.59.12-.12.3-.18.81-.36.86-.84.21-1.7.34-2.57.38-.23,0-.48-.38-.73-.58l.16-.51Z"/>
      <path class="cls-2" d="m210.76,409.68c-.14-.29-.23-.6-.29-.92,0-.87.07-1.74.11-2.61.3.11.82.17.86.35.22.85.35,1.72.4,2.59,0,.24-.39.49-.6.74l-.48-.15Z"/>
      <path class="cls-2" d="m196.94,414.74c.43.45,1,.81,1.17,1.3.12.32-.33.84-.53,1.26-.41-.4-1-.73-1.17-1.22-.12-.33.33-.87.53-1.34Z"/>
      <path class="cls-2" d="m210.31,420.11c-.9-.67-1.83-1.32-2.69-2-.08-.07.2-.58.32-.89l2.54,2.53-.17.36Z"/>
      <path class="cls-2" d="m238.71,426.11c-.68.89-1.34,1.81-2.07,2.67-.07.08-.58-.2-.88-.32.78-.87,1.57-1.74,2.36-2.6l.59.25Z"/>
      <path class="cls-2" d="m185.67,412.53l-2.68-1h0c.61-.28,1.21-.56,1.8-.85h.07c.26.64.55,1.25.81,1.85Z"/>
      <path class="cls-2" d="m184.41,417.11c-.28-.12-.72-.19-.78-.39-.04-.3.09-.6.34-.77.21-.08.55.2.83.32l-.39.84Z"/>
      <path class="cls-2" d="m206.23,418.58l1.82.26-1.85-.17.03-.09Z"/>
      <path class="cls-2" d="m174.29,431.11c-.09.61-.19,1.21-.28,1.81,0-.62.09-1.24.14-1.86l.14.05Z"/>
      <path class="cls-2" d="m218.41,444.69l-.79-.36,1.15-.43-.36.79Z"/>
      <path class="cls-2" d="m214.46,418.21l-.35.78-.41-1.13.76.35Z"/>
      <path class="cls-2" d="m268.67,426.34c.12-.62.24-1.24.37-1.86l-.09,2-.28-.14Z"/>
      <path class="cls-2" d="m283.32,417.11c-.26-.12-.68-.18-.74-.37-.03-.29.09-.57.33-.74.2-.07.52.19.8.31l-.39.8Z"/>
      <path class="cls-2" d="m264.17,430.73l1.82.23-1.83-.19v-.04Z"/>
      <path class="cls-2" d="m258.23,405.76c.58-.17,1.13-.42,1.63-.75l.29.12c.18,2.16-.48,2.48-2,.92l.08-.29Z"/>
      <path class="cls-2" d="m154.41,394.63c-.08.62-.17,1.25-.25,1.87.06-.63.11-1.27.17-1.9l.08.03Z"/>
      <path class="cls-2" d="m184.6,399.97c.1.58.28,1.14.54,1.67v.09h-1.53l.42-1.93.57.17Z"/>
      <path class="cls-2" d="m185.14,401.64l1.82.26-1.85-.17.03-.09Z"/>
      <path class="cls-2" d="m266.22,367.79c.36.54.65,1.11.88,1.71l-2.64-1c.56-.3,1.15-.54,1.76-.71Z"/>
      <path class="cls-2" d="m267.85,366.75c-.39.44-.94.72-1.53.78l-1.74-3.52,3.27,2.74Z"/>
      <path class="cls-2" d="m137.25,415.55c.29-1.21.3-2.6.94-3.58.82-.89,1.81-1.62,2.91-2.14.21-.13.62,0,.93,0-.38,1.15-.85,2.28-1.41,3.36-.67.94-1.43,1.79-2.29,2.56-.11.15-.54-.07-1.08-.2Z"/>
      <path class="cls-2" d="m316.53,244.18l4.14.06c-1.08,2.49-1.69,5.42-3.44,7.29-.92,1-3.86.26-5.82-.06-.42-.06-.93-1.77-.79-2.62.29-1.73-1.07-4.45,2.28-4.69,1.19-.09,2.4,0,3.6,0,.35.65.69,1.31,1,2l-.97-1.98Z"/>
      <path class="cls-2" d="m275.25,258.55l1.44-.23c-.03.57-.18,1.13-.42,1.64-.19.27-.86.18-1.32.26l.3-1.67Z"/>
      <path class="cls-2" d="m248.82,278.11l1.7-.65-1.6,1-.1-.35Z"/>
      <path class="cls-2" d="m237.6,249.81c-2.11-1.58-.16-2.7.45-4l-.45,4Z"/>
      <path class="cls-2" d="m297.2,284.05l-4.07-4.77c.29-.57.6-1.14.92-1.7l.21-.05,4.3.45-1.36,6.07Z"/>
      <path class="cls-2" d="m294.05,277.58c-.25-.56-.51-1.12-.76-1.69l1,1.64-.24.05Z"/>
      <path class="cls-2" d="m291.6,243.02c.29-.05.67-.23.83-.11.19.22.24.53.14.8-.13.17-.54.13-.84.19-.04-.29-.08-.59-.13-.88Z"/>
      <path class="cls-2" d="m223.94,264.35c-1.09.13-2.18.28-3.27.34-.1,0-.23-.57-.34-.88l3.59.5.02.04Z"/>
      <path class="cls-2" d="m235.25,280.28c.29.14.56.31.8.52.56.66,1.06,1.36,1.58,2.05-.3.11-.73.39-.88.28-.72-.5-1.39-1.07-2-1.71-.16-.17,0-.62,0-.94l.5-.2Z"/>
      <path class="cls-2" d="m220.41,271.38c.13-.29.31-.57.52-.81.66-.57,1.37-1.08,2.06-1.61.11.31.4.74.29.89-.51.72-1.09,1.39-1.73,2-.17.16-.62,0-.94,0l-.2-.47Z"/>
      <path class="cls-2" d="m207.62,264.11c.03.59-.05,1.17-.24,1.73-.17.29-.85.28-1.3.41-.05-.57,0-1.14.17-1.68.16-.33.88-.33,1.37-.46Z"/>
      <path class="cls-2" d="m288.19,286.73c-.18.62-.43,1.21-.74,1.77l-1-2.65c.61.22,1.2.52,1.74.88Z"/>
      <path class="cls-2" d="m290.04,287.29c-.59-.01-1.16-.25-1.59-.66l1.57-3.6c0,1.42,0,2.84.02,4.26Z"/>
      <path class="cls-2" d="m265.95,303.89c-.39.44-.93.72-1.52.78l-1.74-3.56,3.26,2.78Z"/>
      <path class="cls-2" d="m249.98,202.5c-.81.44-1.64,1.28-2.4,1.23-1.35-.23-2.67-.62-3.93-1.15l2.81-2.16h.15l3.37,2.13v-.05Z"/>
      <path class="cls-2" d="m197.41,206.11l4.13.88c-.19.46-.38,1.33-.57,1.33-1.44,0-2.89-.22-4.33-.36l.77-1.85Z"/>
      <path class="cls-2" d="m207.96,234.67v-3.29c0-.09.6-.16.91-.24-.29,1.18-.59,2.35-.88,3.52h-.03Z"/>
      <path class="cls-2" d="m190.9,244.2c-.16.27-.37.52-.6.74-.72.48-1.47.9-2.21,1.34-.08-.31-.31-.77-.19-.91.58-.64,1.23-1.23,1.92-1.75.18-.14.61,0,.93.08l.15.5Z"/>
      <path class="cls-2" d="m201.35,230.4c.28.16.53.36.75.6.5.72.92,1.48,1.38,2.22-.32.08-.78.32-.92.19-.65-.58-1.24-1.22-1.77-1.92-.14-.19.05-.63.09-.95l.47-.14Z"/>
      <path class="cls-2" d="m209.98,218.48c-.59-.03-1.16-.18-1.69-.43-.27-.19-.19-.87-.27-1.34.57.01,1.13.13,1.65.36.29.21.22.91.31,1.41Z"/>
      <path class="cls-2" d="m195.89,221.49c1.13.05,2.25.07,3.37.19.11,0,.16.59.24.91l-3.52-.67-.09-.43Z"/>
      <path class="cls-2" d="m168.98,232.37c.06-1.13.1-2.25.22-3.37,0-.11.6-.16.91-.24-.17,1.17-.34,2.33-.5,3.49l-.63.12Z"/>
      <path class="cls-2" d="m220.57,214.01l2.77-.68h0l-1,1.71h-.06l-1.71-1.03Z"/>
      <path class="cls-2" d="m219.05,209.47c.3-.05.7-.24.86-.12.2.23.26.55.16.84-.14.18-.57.14-.88.19-.05-.27-.09-.61-.14-.91Z"/>
      <path class="cls-2" d="m200.13,220.48l-1.65.81,1.63-.9.02.09Z"/>
      <path class="cls-2" d="m219.61,192.24c-.26-.56-.51-1.11-.77-1.66l.92,1.62-.15.04Z"/>
      <path class="cls-2" d="m175.47,205.63l.86-.15-.72,1-.14-.85Z"/>
      <path class="cls-2" d="m193.52,225.39l-.15-.84,1,.7-.85.14Z"/>
      <path class="cls-2" d="m145.3,242.78l-1.65.83,1.64-.86v.03Z"/>
      <path class="cls-2" d="m256.46,211.41l-.84-1.69.93,1.67-.09.02Z"/>
      <path class="cls-2" d="m228.47,223.84c-.4-.43-.87-.8-1.38-1.09v-.09l1.3-.83.72,1.83-.64.18Z"/>
      <path class="cls-2" d="m227.09,222.75l-1.65.8,1.62-.89.03.09Z"/>
      <path class="cls-2" d="m325.41,205.81c-.87-.3-2.05-.35-2.52-.95-.74-1.16-1.34-2.39-1.79-3.69l3.48.63.13.09c.23,1.3.46,2.61.7,3.92h0Z"/>
      <path class="cls-2" d="m287.35,169.33l2.13,3.65c-.47.17-1.24.6-1.36.47-1-1.09-1.79-2.29-2.66-3.45l1.89-.67Z"/>
      <path class="cls-2" d="m273.31,196.36c.81-.75,1.6-1.51,2.44-2.2.08-.06.52.33.79.51l-3.2,1.71-.03-.02Z"/>
      <path class="cls-2" d="m254.79,190.11c-.33.05-.67.05-1,0-.83-.2-1.65-.48-2.48-.72.18-.27.36-.75.55-.75.87,0,1.74.07,2.59.23.23.05.38.49.57.75l-.23.49Z"/>
      <path class="cls-2" d="m272.03,188.6c.07.33.09.67.06,1-.2.85-.48,1.67-.72,2.51-.27-.18-.76-.37-.76-.55,0-.88.07-1.75.24-2.61,0-.23.49-.38.75-.57l.43.22Z"/>
      <path class="cls-2" d="m286.65,186.97c-.36-.46-.64-.99-.82-1.55,0-.33.52-.73.81-1.09.31.48.79.95.85,1.46.03.32-.53.77-.84,1.18Z"/>
      <path class="cls-2" d="m274.95,178.56c.72.87,1.46,1.72,2.12,2.63.07.08-.33.51-.51.78-.63-1-1.25-2-1.87-3.06l.26-.35Z"/>
      <path class="cls-2" d="m248.79,165.97c.88-.71,1.74-1.45,2.65-2.1.09-.07.51.33.78.51l-2.92,2-.51-.41Z"/>
      <path class="cls-2" d="m297.08,191.79l2.37,1.6h0l-1.95.39h-.06c-.12-.67-.24-1.33-.36-1.99Z"/>
      <path class="cls-2" d="m299.41,187.61c.24.18.65.35.67.56-.04.3-.24.56-.52.68-.22,0-.48-.33-.73-.52l.58-.72Z"/>
      <path class="cls-2" d="m278.55,181.03l-1.72-.69,1.77.61-.05.08Z"/>
      <path class="cls-2" d="m312.55,176.44c.23-.57.47-1.13.71-1.69-.2.59-.39,1.18-.58,1.77l-.13-.08Z"/>
      <path class="cls-2" d="m272.95,152.78l.68.53-1.22.15.54-.68Z"/>
      <path class="cls-2" d="m270.46,179.43l.53-.67c0,.4.09.79.13,1.19l-.66-.52Z"/>
      <path class="cls-2" d="m225.16,155.45l-1.72-.65,1.74.62-.02.03Z"/>
      <path class="cls-2" d="m323.15,216.6l.69-1.76c-.21.6-.41,1.21-.62,1.81l-.07-.05Z"/>
      <path class="cls-2" d="m295.13,204.25c.04-.59,0-1.18-.13-1.76l.05-.07,1.49.39-.88,1.77-.53-.33Z"/>
      <path class="cls-2" d="m295,202.49l-1.7-.68,1.75.61-.05.07Z"/>
      <path class="cls-2" d="m340.33,163.85c-.57,1.1-.91,2.45-1.76,3.25-1.01.67-2.14,1.15-3.33,1.39-.24.08-.6-.17-.9-.27.64-1.03,1.37-2.01,2.17-2.92.87-.76,1.82-1.41,2.84-1.95.12-.07.49.24.98.5Z"/>
      <path class="cls-2" d="m370.93,148.01c-2.13-.19-4.83.37-6.26-.72-2.46-1.9-4.14-4.83-6.14-7.33l8.25-.56.34.12,3.81,8.5h0Z"/>
      <path class="cls-2" d="m302.41,96.65l4.34,4.45c-.61.41-1.56,1.31-1.78,1.16-1.75-1.21-3.37-2.62-5-4l2.44-1.61Z"/>
      <path class="cls-2" d="m286.92,153.48c.89-1.35,1.74-2.73,2.71-4,.08-.11.86.29,1.31.45l-4,3.59-.02-.04Z"/>
      <path class="cls-2" d="m258.21,151.24c-.43.2-.88.33-1.34.41-1.27,0-2.54-.1-3.82-.15.17-.44.26-1.2.52-1.27,1.24-.32,2.51-.52,3.79-.59.34,0,.72.55,1.08.86l-.23.74Z"/>
      <path class="cls-2" d="m282.31,142.85c.21.43.35.88.43,1.35,0,1.28-.08,2.56-.13,3.85-.45-.17-1.21-.26-1.28-.52-.33-1.25-.53-2.53-.6-3.82,0-.34.56-.72.87-1.08l.71.22Z"/>
      <path class="cls-2" d="m302.63,135.27c-.64-.66-1.46-1.18-1.73-1.91-.17-.46.49-1.23.77-1.86.61.59,1.47,1.08,1.73,1.79.18.49-.47,1.29-.77,1.98Z"/>
      <path class="cls-2" d="m282.89,127.44c1.34,1,2.7,1.94,4,3,.12.1-.3.86-.46,1.31l-3.77-3.7.23-.61Z"/>
      <path class="cls-2" d="m268.52,116.55c1-1.33,2-2.68,3-3.95.11-.12.86.29,1.31.46-1.16,1.28-2.31,2.57-3.47,3.86l-.84-.37Z"/>
      <path class="cls-2" d="m319.27,138.44l3.95,1.43h0c-.89.41-1.77.83-2.65,1.26h-.09c-.4-.91-.8-1.8-1.21-2.69Z"/>
      <path class="cls-2" d="m321.11,131.62c.41.18,1.06.27,1.16.56.06.44-.13.88-.49,1.15-.32.11-.82-.29-1.23-.47.18-.41.37-.83.56-1.24Z"/>
      <path class="cls-2" d="m288.91,129.68l-2.69-.36,2.74.23-.05.13Z"/>
      <path class="cls-2" d="m335.88,110.94c.14-.89.28-1.78.41-2.67-.06.91-.13,1.83-.19,2.74l-.22-.07Z"/>
      <path class="cls-2" d="m270.79,91.31l1.17.51-1.69.64.52-1.15Z"/>
      <path class="cls-2" d="m276.78,130.3l.51-1.15c.21.55.42,1.1.62,1.66l-1.13-.51Z"/>
      <path class="cls-2" d="m203.41,112.25l-2.7-.32,2.72.27-.02.05Z"/>
      <path class="cls-2" d="m365.41,164.56c.11-.92.23-1.84.35-2.76-.08.94-.15,1.87-.23,2.81l-.12-.05Z"/>
      <path class="cls-2" d="m320.94,156.95c-.15-.86-.42-1.69-.81-2.47v-.13h2.27c-.2.94-.41,1.89-.62,2.84l-.84-.24Z"/>
      <path class="cls-2" d="m320.13,154.48l-2.72-.37,2.72.23v.14Z"/>
      <path class="cls-2" d="m358.58,115.89c-.41,1.79-.41,3.84-1.36,5.28s-2.76,2.21-4.26,3.18c-.31.2-.91,0-1.37-.06.54-1.72,1.23-3.39,2.06-5,.97-1.39,2.09-2.66,3.35-3.79.15-.12.79.2,1.58.39Z"/>
      <path class="cls-2" d="m403.23,188.61c-.63,2.69-.63,5.79-2.05,8s-4.17,3.33-6.43,4.79c-.48.31-1.38,0-2.08-.09,1-2.51,1.72-5.2,3.11-7.48,1.46-2.1,3.15-4.02,5.06-5.72.23-.27,1.19.21,2.39.5Z"/>
      <path class="cls-2" d="m100.41,209.52l.82-.14-.69.94c-.07-.21-.13-.53-.13-.8Z"/>
      <path class="cls-2" d="m112.65,205.96c0-.28-.09-.56-.14-.83l1,.69-.86.14Z"/>
      <path class="cls-2" d="m114.16,167.05c.22.58.45,1.15.68,1.72-.35-.54-.7-1.08-1-1.63l.32-.09Z"/>
      <path class="cls-2" d="m116.95,185.43c.23.93.45,1.85.67,2.78-.21-.93-.44-1.85-.67-2.78Z"/>
      <path class="cls-2" d="m209.41,131.03l-1.75.62,1.62-1.12.13.5Z"/>
      <path class="cls-2" d="m125.97,186.32l.63,2.63-.63-2.63Z"/>
      <path class="cls-2" d="m118.02,183.71l2.73-.66-2.73.66Z"/>
      <path class="cls-2" d="m137.85,193.56l-.75-1.72c.34.55.68,1.1,1,1.65l-.25.07Z"/>
      <path class="cls-2" d="m165.79,120.66c-.59-.25-1.16-.56-1.68-.93l2.73-.66c-.29.57-.64,1.1-1.05,1.59Z"/>
      <path class="cls-2" d="m165.02,122.43c.08-.58.38-1.12.83-1.5l3.41,1.95-4.24-.45Z"/>
      <path class="cls-2" d="m175.66,189.85l1.54,5.19c-1.55.31-3.39,1.27-4.56.74s-1.54-2.55-2.27-3.92l5.29-2.01Z"/>
      <path class="cls-2" d="m193.94,175.83l.85-.15-.71,1-.14-.85Z"/>
      <path class="cls-2" d="m163.76,212.98l-1.64.84,1.64-.87v.03Z"/>
      <path class="cls-2" d="m197.41,271.35l3.09-1.38,1.5,5.15c-1.62.24-3.26.33-4.9.25-1.75-.26-1.75-.92.31-4.02Z"/>
      <path class="cls-2" d="m166.66,295.47c2.66-.27,5.33-.4,8-.39.52,0,1.56,1.83,1.35,2.47-1.09,3.17-5.73,5.78-7.42,4.13-1.12-1.1-1.11-3.35-1.93-6.21Z"/>
      <path class="cls-2" d="m157.21,266.11l.72,1.75-1.05-1.67.33-.08Z"/>
      <path class="cls-2" d="m124.63,295.79l1.78-.68-1.65,1.09-.13-.41Z"/>
      <path class="cls-2" d="m106.41,268.11c.1-.56.4-1.06.85-1.4.31.51.62,1,.92,1.52l-1.77-.12Z"/>
      <path class="cls-2" d="m152.47,331.35l1.7-.65-1.61,1-.09-.35Z"/>
      <path class="cls-2" d="m141.24,303.11c-2.11-1.58-.16-2.7.45-4l-.45,4Z"/>
      <path class="cls-2" d="m127.58,317.62c-1.09.13-2.18.28-3.27.34-.1,0-.23-.57-.34-.88l3.6.5v.04Z"/>
      <path class="cls-2" d="m138.89,333.55c.29.13.56.31.8.52.56.66,1.06,1.36,1.58,2.05-.3.1-.73.39-.88.28-.72-.5-1.39-1.08-2-1.71-.16-.17,0-.62,0-.94l.5-.2Z"/>
      <path class="cls-2" d="m124.05,324.65c.13-.29.3-.57.51-.81.67-.57,1.37-1.08,2.06-1.61.11.31.4.74.29.89-.51.72-1.08,1.39-1.72,2-.17.16-.63,0-.95,0l-.19-.47Z"/>
      <path class="cls-2" d="m111.26,317.36c.03.59-.05,1.17-.24,1.73-.16.29-.85.28-1.3.41-.06-.57,0-1.14.18-1.68.18-.31.88-.32,1.36-.46Z"/>
      <path class="cls-2" d="m153.62,255.77c-.8.44-1.63,1.28-2.4,1.23-1.35-.23-2.67-.62-3.93-1.15l2.81-2.16h.15l3.37,2.13v-.05Z"/>
      <path class="cls-2" d="m101.05,259.37l4.13.88c-.19.46-.39,1.33-.57,1.32-1.45,0-2.89-.21-4.34-.35l.78-1.85Z"/>
      <path class="cls-2" d="m111.6,287.94v-3.29c0-.09.6-.16.92-.24-.3,1.18-.6,2.35-.89,3.52h-.03Z"/>
      <path class="cls-2" d="m94.55,297.47c-.17.27-.37.52-.61.74-.72.48-1.47.9-2.21,1.34-.07-.31-.31-.77-.19-.91.58-.64,1.23-1.23,1.92-1.75.19-.14.61,0,.93.07l.16.51Z"/>
      <path class="cls-2" d="m105,283.67c.27.17.53.37.75.6.49.72.92,1.48,1.37,2.22-.31.08-.78.32-.92.19-.65-.58-1.25-1.23-1.77-1.93-.14-.18,0-.62.09-.94l.48-.14Z"/>
      <path class="cls-2" d="m113.63,271.75c-.59-.03-1.17-.18-1.7-.43-.27-.19-.19-.87-.26-1.34.57,0,1.13.13,1.65.36.28.21.21.91.31,1.41Z"/>
      <path class="cls-2" d="m99.53,274.75c1.13.06,2.26.08,3.38.2.1,0,.15.59.23.91l-3.52-.67-.09-.44Z"/>
      <path class="cls-2" d="m124.21,267.28l2.77-.68h0c-.35.56-.69,1.13-1,1.71h-.07l-1.7-1.03Z"/>
      <path class="cls-2" d="m122.69,262.74c.3-.05.7-.25.87-.12.19.23.25.55.15.83-.14.19-.57.15-.87.2l-.15-.91Z"/>
      <path class="cls-2" d="m103.78,273.75l-1.66.81,1.63-.9.03.09Z"/>
      <path class="cls-2" d="m123.26,245.51l-.78-1.66c.31.54.62,1.08.92,1.62l-.14.04Z"/>
      <path class="cls-2" d="m97.16,278.66l-.15-.84,1,.7-.85.14Z"/>
      <path class="cls-2" d="m160.1,264.68l-.84-1.69.93,1.67-.09.02Z"/>
      <path class="cls-2" d="m132.12,277.11c-.41-.43-.87-.8-1.39-1.09v-.09l1.29-.83.72,1.83-.62.18Z"/>
      <path class="cls-2" d="m130.73,276.02l-1.65.8,1.63-.89.02.09Z"/>
      <path class="cls-2" d="m102.56,220.59c.64,1.71,1.77,3.42,1.79,5.14s-1.07,3.36-1.79,5c-.14.35-.77.48-1.18.71-.47-1.72-.8-3.48-1-5.26.04-1.69.27-3.37.69-5,0-.23.72-.31,1.49-.59Z"/>
      <path class="cls-2" d="m162.68,237.72c.43,1.17,1.2,2.33,1.21,3.5-.17,1.2-.59,2.35-1.21,3.39-.1.24-.52.33-.8.49-.33-1.17-.56-2.37-.7-3.58.02-1.15.18-2.29.47-3.4.03-.15.5-.2,1.03-.4Z"/>
      <path class="cls-2" d="m176.95,249.63c.81-.75,1.6-1.51,2.45-2.2.07-.06.51.33.79.51l-3.21,1.71-.03-.02Z"/>
      <path class="cls-2" d="m158.41,243.42c-.33.05-.67.05-1,0-.84-.2-1.66-.48-2.49-.72.19-.27.37-.75.55-.75.87,0,1.74.07,2.59.23.23.05.38.49.57.75l-.22.49Z"/>
      <ellipse class="cls-4" cx="284.91" cy="276.8" rx="282.47" ry="274.36"/>
      <path class="cls-3" d="m416.34,356.11c-5.26-1.61-10.24-3.99-14.79-7.08,1.06,4.28,6.8,6.08,14.79,7.08Z"/>
      <path class="cls-3" d="m401.55,348.99c-7.33-4.71-20.17-13.08-34.56-23.57,11.56,9.28,23.14,17.77,34.56,23.57Z"/>
      <path class="cls-3" d="m193.1,515.95c-7.56-1.89-16.93-5.78-21.76-12.9-2.52-3.95-6.77-6.47-11.45-6.78-12.31-.59-33.13-7-51.2-21.4,29.1,26.53,63.79,46.17,101.5,57.49-2.26-1.68-4.11-3.84-5.42-6.33-2.43-4.84-6.36-8.76-11.67-10.08Z"/>
      <path class="cls-3" d="m549.02,280.11c0-145.43-117.89-263.31-263.31-263.31-43.09-.05-85.54,10.52-123.57,30.78,5.65-2.44,11.55-4.75,17.78-6.85,17.71-5.95,37.22-2.42,51.73,9.34,4.51,3.65,8.79,7.43,12.49,10.87,7.3,6.77,13.44,14.68,18.2,23.42,2.62,4.92,5.53,9.69,8.71,14.27,7.58,10.46,12.16,22.8,13.23,35.68,2.1,28.09.69,69.46-15,91.07-4.7,6.54-7.59,14.2-8.37,22.21-1.47,14.1-9.9,35-45.24,55.92-38.35,22.6-58.26,34.85-75.65,38.29-8.07,1.59-14.58,7.27-18.16,14.68-2.08,4.14-4.68,8-7.73,11.48,7.12-3.04,14.55-5.27,22.16-6.67,20.81-.91,30.78-13.09,40.76-19.47s22.62-7.18,32.43-21c11.45-16.12,55.63-49.82,64.85-50.93,16-1.91,33.61,8.23,51.92,22.19-20.64-19.5-36.79-40.68-35.7-58.69,2.23-37.08-9.55-125.55,21.15-144.24,8.82-5.37,16.35-12.6,23.41-20.14,4.99-5.39,11.05-9.68,17.8-12.6,21.2-9.09,44.89,0,44.89,0,0,0,193.32,80,132.21,289.27-3.7,9-23.8,26.7-48.16,24.79,8.86,5.42,14.7,11.63,15.73,16.37,3.74,17.18,8.73,46.76-23.7,71.88-28,21.66-59.64,62.77-95.82,51.63-7.32-2.25-15.43,1.58-17.57,8.92-2.05,6.77-6.38,12.63-12.26,16.56,115.23-28.06,200.79-131.89,200.79-255.72Z"/>
      <path class="cls-3" d="m431.08,357.27c7.83.52,16.27,1.14,24.1,2.78-10.64-3.77-17.51-3.15-24.1-2.78Z"/>
      <path class="cls-3" d="m89.58,387.58c-5.08,2.84-10.44,5.14-16,6.87-7.77-1.07-18-2.12-28.05-6.6,12.02,26.7,28.41,51.21,48.48,72.53-10.49-12.87-17.14-28.43-19.18-44.91,5.16-8.2,8.13-18.36,14.75-27.89Z"/>
      <path class="cls-3" d="m162.14,47.54c-47.73,20.64-75.39,52.48-91.31,80.44,23.77-33.55,55.03-61.09,91.31-80.44Z"/>
      <path class="cls-3" d="m45.5,172.25c5.2-2.78,9.17-7.42,11.1-13,3.78-10.84,8.54-21.32,14.23-31.3-9.86,13.91-18.35,28.74-25.33,44.3Z"/>
      <path class="cls-3" d="m29.88,186.01c-39.34,148.5-12.92,189.1,15.6,201.84-30.79-68.57-30.79-147.03,0-215.6-2.54,1.38-5.3,2.31-8.16,2.73-2.71.39-5.4,3.33-7.44,11.03Z"/>
      <path class="cls-3" d="m481.85,370.49c-8.24-4.96-17.25-8.49-26.67-10.44,9.06,6.71,18.12,9.77,26.67,10.44Z"/>
      <path class="cls-3" d="m431.08,357.27c-5.33-.35-10.37-.66-14.74-1.2,4.8,1.28,9.79,1.69,14.74,1.2Z"/>
      <path class="cls-3" d="m210.19,532.36c10.55,8.18,35,14.18,86.59,14.76,26.16.3,42-4.58,51.45-11.27-45.49,11.1-93.12,9.9-138-3.49h-.04Z"/>
      <path class="cls-3" d="m326.25,292.11c12.88,11.94,26.49,23.06,40.74,33.32-13.73-11.04-27.42-23.19-40.74-33.32Z"/>
      <path class="cls-3" d="m93.96,460.38c4.37,5.35,9.31,10.21,14.73,14.49-5.1-4.64-10.01-9.47-14.73-14.49Z"/>
      <path class="cls-3" d="m89.58,387.58c9.27-5.06,17.57-11.7,24.55-19.62-12.15,5.34-19.45,12.28-24.55,19.62Z"/>
      <path class="cls-2" d="m433.34,306.11l-1.58-6.09c-.29-1.05-.58-2.1-.91-3.17s-.71-2.13-1.07-3.18c-1.48-4.18-3.31-8.23-5.47-12.11-4.26-7.54-9.39-14.56-15.29-20.9-2.88-3.14-5.87-6.15-8.93-9.05s-6.22-5.69-9.4-8.41-6.33-5.35-9.16-8.27c-2.9-2.83-5.27-6.16-7-9.83-.56-1.3-1.91-.9-1.45.55,1.44,4.04,3.58,7.8,6.3,11.12,2.63,3.36,5.57,6.41,8.4,9.43s5.58,6.1,8.23,9.24,5.17,6.36,7.57,9.64,4.58,6.68,6.62,10.13c2,3.43,3.79,6.97,5.35,10.62,1.53,3.58,2.78,7.27,3.73,11.05,1,3.68,1.52,7.55,2.28,11.79.3,2.39,1.48,4.57,3.32,6.13,1.33,1.06,3.11,1.38,4.73.85,1.55-.56,2.79-1.73,3.45-3.24.83-2,.93-4.23.28-6.3Z"/>
      <path class="cls-2" d="m497.41,252.95c-2.09-2.95-4.74-5.46-7.8-7.39-1.45-.93-2.98-1.74-4.58-2.4-1.51-.63-3.05-1.15-4.63-1.58-6.15-1.64-11.88-1.76-17-2-10.24-.37-20.24-.76-29.86-2.23-4.74-.69-9.42-1.75-14-3.16-1.12-.36-2.25-.7-3.34-1.13l-1.66-.6-1.61-.68c-2.16-.86-4.3-2-6.53-3.09-4.44-2.27-9.08-4.89-14.34-7.05-2.72-1.13-5.54-2.02-8.41-2.67-3.09-.66-6.25-.89-9.4-.68-2.88.27-2.14,4.08.25,3.94,2.75-.08,5.5.25,8.15,1,2.55.75,5.03,1.76,7.38,3,4.51,2.56,8.85,5.4,13,8.51,4.26,3.1,8.78,5.84,13.51,8.18,4.84,2.34,9.85,4.3,15,5.85,10.16,2.98,20.57,4.99,31.11,6,4.54.32,9.04.96,13.49,1.92.94.24,1.85.53,2.67.83.8.27,1.58.61,2.33,1,1.44.73,2.76,1.68,3.92,2.81,1.07.84,2.36,1.36,3.72,1.48,1.74.37,3.53.46,5.3.27,1.86-.17,3.51-1.28,4.37-2.94.88-1.7.77-4.52-1.04-7.19Z"/>
      <path class="cls-2" d="m458.68,150.23l-18.54,21.88-9.23,11-4.59,5.45c-1.49,1.75-3,3.4-4.42,4.89-1.38,1.41-2.88,2.7-4.48,3.86-1.51,1.07-3.15,1.94-4.87,2.61-3.58,1.44-8,2.26-12.73,3.2-2.41.49-4.85,1-7.51,1.73-2.69.75-5.31,1.76-7.81,3-2.68,1.32-5.16,3-7.37,5-2.42,2.17-4.36,4.81-5.72,7.76-1.07,2.86,2.73,3.73,3.61,1.61,1.19-2.4,2.9-4.51,5-6.17,2.01-1.56,4.24-2.81,6.63-3.68,2.3-.86,4.69-1.48,7.12-1.84,2.41-.35,4.81-.5,7.21-.62,4.81-.24,9.67-.26,14.73-1.36,2.59-.56,5.11-1.43,7.49-2.6,2.37-1.19,4.63-2.6,6.75-4.19,2.1-1.55,4.05-3.2,5.91-4.84s3.63-3.24,5.41-4.87c3.54-3.26,7-6.59,10.36-10,6.74-6.78,12.86-14.14,18.3-22,4.4-6.44-6-15.94-11.25-9.82Z"/>
      <path class="cls-2" d="m426.13,123.43c-3.71,8.85-8.3,17.29-13.72,25.21-1.36,2-2.75,4-4.11,5.59-1.19,1.52-2.59,2.87-4.16,4-1.67,1.08-3.48,1.94-5.37,2.56-2.13.77-4.58,1.48-7.18,2.41-2.88.95-5.62,2.3-8.13,4-1.37.96-2.62,2.07-3.73,3.32-1.09,1.23-2.04,2.57-2.83,4-1.46,2.65-2.5,5.51-3.08,8.48-.54,2.69-.87,5.42-1,8.16-.16,2.66-.2,5.17-.27,7.69l-.18,7.56c-.09,5.05-.18,10.09-.26,15.12,0,.25.53.29.57.05,1.64-9.94,3.41-19.92,5.36-29.82,1.05-4.88,2.54-9.76,5.3-13.34s6.58-5.23,11.24-6.24c2.32-.53,4.8-.94,7.44-1.59,2.87-.65,5.64-1.71,8.22-3.13,2.6-1.55,4.96-3.48,7-5.72,1.84-2,3.56-4.09,5.17-6.28,6.38-8.46,11.38-17.89,14.8-27.92,1.64-5.12-9.29-8.53-11.08-4.11Z"/>
      <path class="cls-2" d="m333.27,137.32c1.43,7.76,3.83,15.3,7.14,22.46,1.66,3.58,3.54,7.06,5.63,10.42,2.09,3.38,4.4,6.54,6.6,9.51s4.33,5.85,6.16,8.76c1.84,2.94,3.44,6.03,4.79,9.22,2.76,6.75,5.04,13.68,6.82,20.75,0,.17.58.08.57-.1-.47-7.43-.89-14.87-2.36-22.34-.74-3.79-1.82-7.51-3.21-11.11-1.44-3.58-3.07-7.08-4.88-10.49-1.74-3.37-3.45-6.6-4.94-9.84s-2.9-6.54-4.19-9.85c-2.58-6.61-4.71-13.3-6.67-20.08-.9-3.35-12.15-1.29-11.46,2.69Z"/>
      <path class="cls-2" d="m311.28,178.54c11.09,4.99,21.51,11.32,31.05,18.86,4.78,3.81,9.49,8.08,14.38,12.32s9.83,8.37,14.83,12.45c.12.1.5-.27.41-.4-3.93-5.12-7.71-10.4-11.47-15.71s-7.47-10.69-11.86-15.77c-8.76-10.18-20.21-18.57-33.15-22.77-3.33-1.05-6.95,9.81-4.19,11.02Z"/>
      <path class="cls-2" d="m189.25,429.11l6,1.74c1.05.29,2.1.57,3.2.83s2.19.47,3.28.7c4.35.85,8.77,1.34,13.2,1.46,8.66.18,17.31-.66,25.77-2.51,4.17-.88,8.29-1.92,12.34-3.08s8.06-2.45,12-3.8,7.82-2.73,11.78-3.68c3.91-1.03,7.97-1.37,12-1,1.4.18,1.75-1.18.26-1.52-4.21-.81-8.54-.9-12.78-.24-4.22.55-8.35,1.53-12.39,2.42s-8.09,1.69-12.14,2.38-8.11,1.21-12.15,1.6-8.09.54-12.09.54c-3.97-.02-7.93-.29-11.87-.81-3.86-.5-7.67-1.31-11.4-2.41-3.68-1-7.28-2.54-11.31-4-2.22-.96-4.72-1.06-7-.26-1.59.61-2.77,1.98-3.14,3.64-.31,1.61.05,3.27,1,4.61,1.35,1.74,3.28,2.94,5.44,3.39Z"/>
      <path class="cls-2" d="m180.12,380.18c1.8,3.14,4.2,5.89,7.07,8.09,1.36,1.06,2.81,2.01,4.33,2.82,1.44.76,2.93,1.43,4.46,2,6,2.2,11.67,2.86,16.72,3.55,10.16,1.33,20.08,2.66,29.52,5,4.65,1.14,9.21,2.63,13.64,4.47,1.08.46,2.18.91,3.23,1.43l1.58.76,1.55.83c2.06,1.06,4.09,2.35,6.21,3.69,4.2,2.67,8.58,5.72,13.61,8.36,2.6,1.39,5.32,2.54,8.12,3.46,3.01.94,6.14,1.46,9.29,1.56,2.9,0,2.52-3.86.13-4-2.74-.18-5.44-.78-8-1.78-2.47-1-4.84-2.25-7.06-3.72-4.26-2.97-8.32-6.21-12.17-9.7-3.95-3.49-8.2-6.64-12.69-9.41-4.59-2.79-9.39-5.21-14.36-7.23-9.83-3.91-20.02-6.88-30.41-8.87-4.49-.74-8.91-1.8-13.25-3.17-.88-.32-1.74-.68-2.58-1.08-.77-.36-1.51-.77-2.22-1.24-1.37-.87-2.59-1.94-3.64-3.18-.99-.94-2.22-1.57-3.56-1.82-1.7-.53-3.48-.78-5.26-.76-1.87-.01-3.62.94-4.62,2.52-1.08,1.78-1.23,4.59.36,7.42Z"/>
      <path class="cls-2" d="m267.33,526.41c.84-9.51,1.68-19.02,2.53-28.54l1.21-14.29.6-7.09c.2-2.29.44-4.48.79-6.54.31-1.95.79-3.88,1.43-5.75.61-1.74,1.44-3.4,2.46-4.94,2.1-3.24,5.2-6.44,8.55-10,1.69-1.78,3.39-3.6,5.13-5.74,1.77-2.18,3.32-4.52,4.64-7,1.43-2.62,2.49-5.42,3.14-8.33.7-3.19.74-6.49.11-9.69-.77-3-4.37-1.47-3.87.77.42,2.65.24,5.35-.52,7.92-.73,2.43-1.84,4.74-3.28,6.83-1.38,2.03-2.97,3.92-4.75,5.61-1.77,1.68-3.64,3.19-5.53,4.68-3.78,3-7.75,5.79-11.24,9.6-1.8,1.95-3.35,4.12-4.61,6.46-1.25,2.34-2.29,4.78-3.1,7.31-.82,2.48-1.46,5-2,7.37s-1.09,4.73-1.6,7.09c-1,4.71-1.93,9.43-2.69,14.16-1.59,9.43-2.33,18.97-2.23,28.53.1,7.85,14.09,9.62,14.83,1.58Z"/>
      <path class="cls-2" d="m313.02,524.9c1.05-2.6,2.28-5.2,3.55-8.07,1.41-3.08,2.52-6.29,3.32-9.58.39-1.73.66-3.49.83-5.26.07-.87.15-1.75.16-2.62v-1.43c0,.41-.05.82-.17,1.21-.09.34-.2.68-.35,1-.13.23-.27.46-.43.68-.11.15-.23.3-.37.43l-.22.21c-.06.05-.13.1-.2.14h.06c.05-.03.11-.06.17-.07.46-.18.93-.34,1.41-.47,1.16-.32,2.53-.63,4-.92l4.47-.93c1.73-.35,3.44-.8,5.11-1.35.52-.19,1-.37,1.65-.66.34-.16.68-.34,1-.53.44-.25.86-.54,1.26-.86.29-.23.56-.48.8-.75.15-.15.28-.3.42-.46l.19-.24c.07-.09.17-.24.25-.36.32-.51.59-1.05.81-1.62.24-.71.37-1.44.39-2.19.04-.33.04-.67,0-1-.04-.34-.1-.67-.19-1-.08-.31-.2-.68-.28-.9l-.25-.19-.42-.89c-.98-1.82-2.21-3.5-3.64-5-2.29-2.36-4.73-4.57-7.3-6.61-2.38-2-4.72-3.81-6.85-5.65-1.06-.93-2.07-1.85-3-2.75-.79-.78-1.51-1.63-2.14-2.55-.17-.26-.33-.53-.46-.81v-.07l-.1-.36-.22-.71c-.15-.44-.31-.89-.47-1.3-.65-1.67-1.36-3.14-2.06-4.56-1.41-2.83-2.84-5.44-4.11-8-1.22-2.35-2.19-4.82-2.89-7.37-.24-.9-.32-1.83-.24-2.75,0-.17.06-.29.08-.44l.07-.18h0v-.11l.24-.51c.16-.32.3-.66.41-1,.1-.39.19-.78.26-1.17.12-.78.12-1.58,0-2.36-.12-.69-.32-1.36-.6-2-.25-.54-.54-1.06-.87-1.56-.57-.83-1.21-1.61-1.93-2.32-1.22-1.17-2.52-2.25-3.9-3.23-2.56-1.86-5.1-3.45-7.26-5.16-.98-.73-1.86-1.58-2.62-2.53-.23-.3-.4-.64-.52-1-.1-.23-.1-.48,0-.71,0-.11-.43-.41-.51-.26-.23.31-.35.68-.36,1.06.02.51.15,1.01.4,1.45.65,1.19,1.47,2.28,2.44,3.23,2,2.09,4.37,4,6.59,6.13,1.13,1.03,2.19,2.15,3.16,3.34.49.6.91,1.25,1.27,1.94.38.67.61,1.41.66,2.18.06.74-.12,1.48-.53,2.11l-.58,1c-.19.35-.34.72-.46,1.1-.45,1.53-.58,3.13-.41,4.71.38,3.1,1.12,6.14,2.21,9.07,1,2.91,2.13,5.76,3.14,8.56.5,1.4,1,2.79,1.31,4.13.1.34.16.66.24,1l.08.47v.24l.09.37c.22.97.56,1.9,1,2.79,1.64,2.94,3.69,5.63,6.08,8,2.17,2.3,4.4,4.42,6.54,6.51,2.06,1.95,4,4.01,5.81,6.19.69.81,1.26,1.72,1.69,2.69l.06.21v.05c1.64-.65-3.65,1.49,3.67-1.46h.06c.08-.02.17-.02.25,0h0c-.12-.03-.23-.09-.32-.16,0-.05-.33-.22-.47-.38-.09-.08-.17-.16-.24-.26l-.1-.14-.17-.19c-.23-.26-.44-.53-.62-.83-.1-.15-.14-.27-.27-.46l-.38-.58-.19-.34h-.07l-.55.16c-1,.26-2.39.52-3.8.75l-4.45.72c-1.55.26-3.14.55-4.88,1-.98.24-1.94.55-2.87.92-.25.09-.55.23-.85.37l-.45.22-.52.3-.52.32-.62.47c-.22.17-.44.35-.64.55-.25.26-.5.54-.73.83s-.22.27-.35.45-.26.43-.38.65c-.24.45-.44.93-.59,1.42-.15.57-.25,1.15-.28,1.73v1.55c0,.64-.08,1.27-.14,1.9-.13,1.24-.32,2.47-.58,3.69-.64,2.57-1.47,5.08-2.5,7.52-1.08,2.68-2.31,5.6-3.35,8.68-.5,1.38-.27,2.91.61,4.08.88,1.12,2.1,1.92,3.47,2.29,1.35.42,2.8.46,4.17.11,1.36-.34,2.45-1.36,2.88-2.7Z"/>
      <path class="cls-2" d="m376.85,469.2c-5.65-5.5-11.98-10.27-18.82-14.19-3.43-1.97-6.98-3.72-10.62-5.26-3.65-1.56-7.37-2.8-10.88-4s-6.91-2.27-10.08-3.58c-3.2-1.35-6.29-2.94-9.24-4.76-6.13-3.94-11.97-8.3-17.49-13.05-.14-.11-.52.26-.41.41,4.68,5.79,9.31,11.63,14.82,16.88,2.79,2.67,5.8,5.09,9,7.24,3.23,2.09,6.57,4.01,10,5.75,3.37,1.74,6.62,3.39,9.72,5.18s6.14,3.67,9.1,5.62c5.92,3.91,11.53,8.14,17,12.55,2.77,2.25,10.77-5.94,7.9-8.79Z"/>
      <path class="cls-2" d="m364.87,421.89c4.6-11.25,10.58-21.89,17.78-31.68,3.65-4.91,7.76-9.76,11.83-14.8s8-10.11,11.94-15.24c.1-.12-.29-.49-.41-.39-5,4.09-10.14,8.05-15.32,12s-10.43,7.83-15.36,12.38c-9.85,9.1-17.86,20.8-21.62,33.91-.93,3.37,10.04,6.61,11.16,3.82Z"/>
      <path class="cls-2" d="m289.62,423.92c1.9-.02,3.78-.41,5.54-1.13,1.49-.52,2.81-1.43,3.83-2.63,1.74-2.74-1.49-3.76-3.73-3.76-1.9.02-3.78.41-5.54,1.13-1.22.5-3.08,1.44-3.83,2.63-1.74,2.74,1.49,3.76,3.73,3.76Z"/>
      <path class="cls-2" d="m290.55,422.51c1.93-.12,3.78-.8,5.33-1.95,1.07-.81,2.41-2.3,2.48-3.75.18-3.7-3.6-4.61-6.53-4.61-1.93.12-3.78.8-5.33,1.95-1.06.81-2.41,2.3-2.48,3.75-.18,3.7,3.6,4.61,6.53,4.61Z"/>
      <path class="cls-2" d="m291.12,424.58c1.91.09,3.81-.25,5.57-1,1.53-.63,2.82-1.73,3.7-3.14.67-1.11.59-2.52-.19-3.56-1.04-1.1-2.48-1.73-4-1.74-1.91-.09-3.81.25-5.57,1-1.53.63-2.83,1.73-3.7,3.14-.67,1.11-.59,2.52.19,3.56,1.03,1.09,2.45,1.72,3.95,1.74h.05Z"/>
      <path class="cls-2" d="m287.89,421.32c3.35,0,7.23-.66,10-2.68.65-.47,1.88-1.27,1.62-2.25s-1.83-1.13-2.53-1.13c-3.35,0-7.23.65-10,2.68-.65.47-1.88,1.27-1.62,2.25s1.82,1.13,2.53,1.13Z"/>
      <path class="cls-2" d="m288.41,419.7c3.51,0,6.96-.93,10-2.69.54-.33,1.94-1,1.72-1.86s-1.92-.76-2.43-.76c-3.51,0-6.96.93-10,2.68-.55.34-1.95,1-1.73,1.87s1.92.76,2.43.76h.01Z"/>
      <path class="cls-2" d="m254.8,230.93c-3.22-1.8-6.59-3.32-10.08-4.54-3.36-1.15-6.8-2.08-10.28-2.8-6.62-1.29-13.31-2.19-20.03-2.67l-4.86-.39-4.7-.41c-3.11-.3-6.18-.64-9.18-1.11-2.96-.43-5.89-1-8.79-1.73-2.8-.68-5.54-1.57-8.2-2.67-2.56-1.02-4.99-2.31-7.27-3.86-.54-.39-1.14-.73-1.64-1.17l-1.55-1.25c-.51-.44-1-.92-1.45-1.37-.49-.46-.97-.94-1.41-1.45-1.86-2.06-3.76-4.71-6.2-7.48-1.29-1.47-2.69-2.84-4.2-4.08-1.53-1.25-3.17-2.35-4.9-3.3-3.12-1.68-6.36-3.09-9.71-4.24l-4.45-1.65c-.72-.27-1.4-.55-2.09-.83l-1-.43-.92-.43c-4.86-2.3-9.12-6.26-9.89-10.21-.03-.26-.13-.52-.29-.73-.13-.22-.31-.41-.51-.57-.44-.34-.97-.54-1.52-.6-.56-.07-1.13.12-1.54.51-.25.22-.43.51-.54.82-.11.39-.15.8-.13,1.2.41,3.25,1.79,6.3,3.94,8.76,2.13,2.53,4.67,4.69,7.5,6.39,5.68,3.41,12,5.55,17,9.06,2.45,1.69,4.58,3.81,6.28,6.25,1.79,2.46,3.4,5.26,5.45,8.07.51.7,1.07,1.4,1.65,2.06s1.15,1.37,1.76,2l1.91,1.87c.63.64,1.34,1.16,2,1.74,2.74,2.26,5.72,4.2,8.88,5.81,12.6,6.46,26.49,8.38,39.19,10.07,6.34.86,12.49,1.78,18.31,3.14,2.83.66,5.63,1.47,8.38,2.43,2.6.93,5.12,2.05,7.55,3.37,1,.59,2.1,1.01,3.24,1.24.99.18,2,.2,3,.07,1.96-.28,3.77-1.23,5.12-2.68,1.4-1.53,1.96-3.65,1.51-5.67-.26-1.26-.82-2.43-1.64-3.42-1.01-1.28-2.27-2.34-3.7-3.12Z"/>
      <path class="cls-1" d="m224.41,221.88c-8.3.2-16-.81-21.91-4.34-2.84-1.62-5.24-3.9-7-6.65-.39-.64-.72-1.31-1-2-.32-.72-.57-1.46-.76-2.22-.47-1.98-.83-3.98-1.08-6-.18-1.15-.37-2.39-.63-3.66s-.53-2.52-.86-3.75c-1.93-7.4-5.25-14.36-9.77-20.53-1.48-2-3.06-3.91-4.75-5.73l-4.69-4.89c-2.9-3.16-5.3-6.22-6.43-9.45-.54-1.75-4.85-1.45-4.42,1.19.91,4.46,3.38,8.53,6,12.28s5.41,7.37,7.44,11.23c2.05,3.83,3.62,7.9,4.66,12.12.51,2.07.89,4.17,1.15,6.28.24,2.12.38,4.25.41,6.38,0,2.45.16,4.91.47,7.34.4,2.82,1.24,5.57,2.49,8.13,2.54,5.05,6.35,9.36,11.06,12.5,2.28,1.56,4.73,2.87,7.29,3.91,2.5,1,5.08,1.78,7.72,2.33,5.01.99,10.13,1.36,15.23,1.11,4.77-.23,6.63-4.35,6.27-8.19s-2.89-7.5-6.89-7.39Z"/>
      <path class="cls-2" d="m201.83,223.84c-4.28.19-8.83.13-13.61.24-5.03.04-10.05.51-15,1.39-4.81.99-9.55,2.26-14.21,3.8-4.43,1.39-8.59,2.69-12.63,3.53-1.98.42-3.98.72-6,.89-2.08.18-4.25.26-6.51.3-4.52.1-9.38.05-14.5.64-1.28.16-2.54.33-3.88.6-1.35.26-2.69.59-4,1-2.62.79-5.14,1.86-7.53,3.2-2.47,1.39-4.72,3.12-6.68,5.16-2.06,2.13-3.68,4.66-4.74,7.43-.51,1.08-.06,2.37,1.02,2.88.1.05.2.09.31.12,1.13.35,2.36-.17,2.88-1.24,2.2-4.05,5.79-7.16,10.11-8.77,2.07-.85,4.24-1.45,6.45-1.8,2.2-.34,4.42-.47,6.64-.4,4.48.09,9,.76,13.67,1.3,2.35.27,4.75.5,7.22.61,2.51.11,5.02.05,7.52-.16,10-.88,19.14-3.73,27.42-4.6,4.25-.4,8.53-.55,12.8-.44,4.49,0,9.2.15,14.16-.14,2.1-.06,4.04-1.13,5.2-2.88.98-1.65,1.34-3.6,1-5.49-.25-1.89-1.05-3.66-2.29-5.1-1.2-1.4-2.98-2.17-4.82-2.07Z"/>
      <path class="cls-1" d="m188.87,230.11c-3,.18-5.93.96-8.61,2.31-2.4,1.2-4.62,2.74-6.58,4.58-1.9,1.76-3.58,3.74-5,5.9-.34.55-.69,1.09-1,1.66l-.92,1.75c-.5,1.08-1,2.15-1.37,3.22-1.41,3.9-2.59,7.88-3.55,11.92-.76,3.27-1.85,6.46-3.24,9.52-1.41,2.77-3.28,5.29-5.53,7.43-2.46,2.32-5.2,4.33-8.14,6-6.11,3.56-13.18,6.22-20.43,8.69-2.07.71-1,4.84,1.19,4.43,7.65-1.49,15.37-2.95,23-5.81,3.9-1.43,7.61-3.34,11.05-5.68,3.63-2.5,6.79-5.64,9.31-9.26,2.36-3.62,4.3-7.49,5.8-11.54,1.48-3.76,2.76-7.28,4.25-10.25.37-.75.76-1.45,1.14-2.13l.55-.83c.19-.27.41-.53.61-.81.84-1.06,1.78-2.03,2.81-2.9,1.57-1.44,3.53-2.37,5.63-2.69.33,0,.55-.21.87-.65s.68-.91,1.14-1.51c1.14-1.42,2.14-2.94,3-4.54.96-1.71,1.1-3.77.37-5.59-.5-1-1.29-1.83-2.26-2.38-1.26-.65-2.68-.94-4.09-.84Z"/>
      <path class="cls-2" d="m178.93,250.11c5.97,2.95,11.53,6.68,16.53,11.08,5.32,4.63,9.79,10.16,13.22,16.32.31.55,2.08-.07,1.93-.71-1.54-7.45-4.17-14.64-7.79-21.34-3.77-7.03-8.79-13.31-14.8-18.55-1-.93-2.48-.65-3.84.27-1.55,1.15-2.85,2.62-3.81,4.3-1.03,1.63-1.79,3.42-2.25,5.3-.34,1.65-.16,2.86.81,3.33Z"/>
      <path class="cls-2" d="m32.72,190.4c-.51,11,1.54,21.9,4.76,32.15,3.35,10.11,7.45,19.95,12.27,29.45,2.31,4.54,4.35,9.22,6.12,14,1.6,4.72,2.63,9.61,3.07,14.57,1,10,0,20.35-1.2,30.65-.33,2.95,1.78,3.24,2.27.31,1.68-10.28,3.37-20.66,3-31.28-.14-5.35-.93-10.66-2.35-15.82-1.53-5.09-3.38-10.08-5.53-14.94-4.16-9.46-7.7-19.17-10.62-29.08-2.75-9.81-4.42-19.82-4-29.68.07-1.05.02-2.11-.16-3.15-.08-.8-.28-1.59-.6-2.33-.37-1.1-1.28-1.93-2.41-2.21-1.18-.08-2.29.52-2.87,1.55-.51.72-.91,1.52-1.18,2.36-.32,1.13-.51,2.28-.57,3.45Z"/>
      <path class="cls-2" d="m436.74,449.11c-1.47-.56-2.91-1.21-4.4-1.68l-4.45-1.43c-3-.8-6-1.61-9-2.17-6-1.23-12-2.07-17.85-2.76s-11.72-1.32-17.45-2.09c-5.66-.74-11.28-1.77-16.83-3.09l-4.05-1.12c-1.35-.38-2.64-.88-4-1.31s-2.61-1-3.91-1.48-2.6-1.13-3.89-1.69c-5.19-2.36-10.37-5.11-15.74-7.74-5.46-2.81-11.15-5.15-17-7-6.2-1.94-12.74-2.51-19.18-1.67-2.89.42-2.28,2.93.35,2.61,6.03-.65,12.13.14,17.8,2.29,5.54,2.09,10.87,4.72,15.9,7.84,5.08,3,10,6.23,15.21,9.19,2.61,1.46,5.26,2.93,8,4.14,1.39.6,2.77,1.26,4.19,1.81l4.28,1.58c5.76,1.95,11.64,3.54,17.6,4.77,5.88,1.21,11.73,2.16,17.49,3.09s11.43,1.85,17,3c2.78.51,5.47,1.2,8.19,1.83l4,1.11c1.34.36,2.61.86,3.93,1.26.51.16,1.03.29,1.55.39.46.11.93.19,1.4.25.83.09,1.66.04,2.47-.14,1.34-.25,2.52-1.04,3.25-2.19.64-1.16.6-2.58-.1-3.71-.45-.76-1.02-1.44-1.71-2-.42-.37-.86-.7-1.33-1-.55-.33-1.13-.63-1.72-.89Z"/>
    </g>
  </g>
</svg>