<svg xmlns="http://www.w3.org/2000/svg" viewBox="0 0 107 67"><defs><style>.cls-1{fill:#263238;}.cls-2{fill:#ff725e;}.cls-3{fill:#fff;}</style></defs><g id="CAJON"><rect class="cls-1" x="3.8" y="3.15" width="100" height="61.98" rx="7.87"/><circle class="cls-2" cx="53.8" cy="34.99" r="7.62"/><path class="cls-3" d="M52,37.21V32.72a.29.29,0,0,1,.43-.25l4,2.26a.29.29,0,0,1,0,.5l-4,2.23A.29.29,0,0,1,52,37.21Z"/><path class="cls-3" d="M9.52,58v.16H8.76v-.12l.41-.39c.1-.09.12-.15.12-.21s-.07-.15-.19-.15a.29.29,0,0,0-.24.11l-.14-.1a.46.46,0,0,1,.39-.17c.22,0,.37.11.37.29a.41.41,0,0,1-.17.32L9,58Z"/><path class="cls-3" d="M9.62,57.51a.11.11,0,0,1,.12-.12.12.12,0,0,1,.12.12.12.12,0,0,1-.12.12A.12.12,0,0,1,9.62,57.51Zm0,.55a.12.12,0,0,1,.12-.12.12.12,0,0,1,0,.24A.12.12,0,0,1,9.62,58.06Z"/><path class="cls-3" d="M10.33,57.15v1h-.19v-.86H9.93v-.16Z"/><path class="cls-3" d="M11.44,57.94h-.18v.23h-.18v-.23h-.56v-.13l.5-.66h.21l-.48.63h.34v-.21h.17v.21h.18Z"/><rect class="cls-3" x="13.11" y="57.53" width="77.45" height="0.35"/><rect class="cls-2" x="13.05" y="57.15" width="24.2" height="0.94"/><path class="cls-2" d="M38,57.71a1.18,1.18,0,1,1-1.18-1.18A1.18,1.18,0,0,1,38,57.71Z"/><path class="cls-3" d="M92.51,57.7a.34.34,0,0,1-.37.33c-.28,0-.44-.18-.44-.51a.48.48,0,0,1,.5-.54.5.5,0,0,1,.26.06l-.07.15a.3.3,0,0,0-.19,0c-.19,0-.31.12-.31.35h0a.35.35,0,0,1,.27-.11A.32.32,0,0,1,92.51,57.7Zm-.18,0c0-.11-.08-.18-.21-.18a.18.18,0,0,0-.2.18c0,.09.07.17.21.17A.18.18,0,0,0,92.33,57.71Z"/><path class="cls-3" d="M92.6,57.35a.12.12,0,0,1,.12-.12.12.12,0,1,1,0,.24A.12.12,0,0,1,92.6,57.35Zm0,.55a.12.12,0,0,1,.12-.12.12.12,0,1,1,0,.24A.12.12,0,0,1,92.6,57.9Z"/><path class="cls-3" d="M93,57.5c0-.33.19-.52.43-.52s.43.19.43.52-.19.53-.43.53S93,57.84,93,57.5Zm.67,0c0-.24-.1-.36-.24-.36s-.23.12-.23.36.09.36.23.36S93.63,57.75,93.63,57.5Z"/><path class="cls-3" d="M93.94,57.5c0-.33.19-.52.43-.52s.43.19.43.52-.19.53-.43.53S93.94,57.84,93.94,57.5Zm.67,0c0-.24-.1-.36-.24-.36s-.23.12-.23.36.09.36.23.36S94.61,57.75,94.61,57.5Z"/><polygon class="cls-3" points="96.45 57.44 96.09 57.44 96.09 56.42 97.11 56.42 97.11 56.78 96.45 56.78 96.45 57.44"/><polygon class="cls-3" points="97.11 58.77 96.09 58.77 96.09 57.75 96.45 57.75 96.45 58.42 97.11 58.42 97.11 58.77"/><polygon class="cls-3" points="98.73 58.77 97.72 58.77 97.72 58.42 98.38 58.42 98.38 57.75 98.73 57.75 98.73 58.77"/><polygon class="cls-3" points="98.73 57.44 98.38 57.44 98.38 56.78 97.72 56.78 97.72 56.42 98.73 56.42 98.73 57.44"/><path class="cls-3" d="M85.55,9.18a2.19,2.19,0,0,1,.55,0c.36,0,.9,0,1.56-.05h.1v.1c0,.79,0,1.69,0,2.67v.3l-.21-.21-.28-.28-.71-.72h.16l-1.11,1-.19.16v-.24c0-.82,0-1.5,0-2a5,5,0,0,1,0-.7,4.62,4.62,0,0,1,.06.77c0,.47,0,1.13,0,1.9l-.18-.07,1.1-1,.09-.08.08.08.72.72.28.28-.21.08c0-1,0-1.88,0-2.67l.1.1c-.62,0-1.13,0-1.5,0A5.48,5.48,0,0,1,85.55,9.18Z"/><path class="cls-3" d="M93.3,9.51s-.17.23-.52.66-.87,1.05-1.5,1.76l-.2.23v-.31c0-.41,0-.86,0-1.32V10.4l0,.09c-.33-.32-.64-.63-.94-.91L90,9.37h.3c.92,0,1.71,0,2.24.08s.82,0,.8,0l-.91.05c-.55,0-1.28,0-2.14,0l.09-.2.94.9,0,0v1.5l-.2-.07c.59-.65,1.12-1.19,1.52-1.6Z"/><path class="cls-3" d="M93.3,9.51c0,.07-.42.31-1,.56a2.89,2.89,0,0,1-1.1.33,3,3,0,0,1,1-.56A2.89,2.89,0,0,1,93.3,9.51Z"/><path class="cls-3" d="M97.08,9.18a.71.71,0,0,1,.37,0,1.43,1.43,0,0,1,.88.54,1.54,1.54,0,0,1,.25,1.5,1.6,1.6,0,0,1-3,0,1.56,1.56,0,0,1,.25-1.5,1.46,1.46,0,0,1,.88-.54.76.76,0,0,1,.38,0s-.14,0-.36.09a1.53,1.53,0,0,0-.76.55,1.4,1.4,0,0,0-.18,1.32,1.38,1.38,0,0,0,2.59,0,1.4,1.4,0,0,0-.18-1.32,1.49,1.49,0,0,0-.76-.55C97.21,9.2,97.08,9.2,97.08,9.18Z"/><path class="cls-3" d="M97.58,11.31s-.37-.2-.72-.55l0,0v-.05h0c0-.5,0-.91.12-.91s.12.41.12.91h0l0-.09C97.39,10.94,97.63,11.26,97.58,11.31Z"/><path class="cls-3" d="M60.85,11.21c0,.07-10.27.12-23,.12S15,11.28,15,11.21s10.27-.12,23-.12S60.85,11.14,60.85,11.21Z"/><circle class="cls-3" cx="10.97" cy="11.21" r="1.81"/></g></svg>