<?xml version="1.0" encoding="UTF-8"?>
<svg id="home" xmlns="http://www.w3.org/2000/svg" viewBox="0 0 61 66">
  <defs>
    <style>
      .cls-1 {
        fill: #fff;
      }

      .cls-2 {
        fill: #f6f6f6;
      }

      .cls-2, .cls-3, .cls-4 {
        stroke: #d1d4d3;
        stroke-miterlimit: 10;
      }

      .cls-3 {
        fill: none;
      }

      .cls-4 {
        fill: #ecedea;
      }

      .cls-5 {
        fill: #ed1e79;
      }

      .cls-6 {
        fill: #d40075;
      }
    </style>
  </defs>
  <g>
    <g>
      <path class="cls-4" d="m46.68,61.02h-29.58c-3.07,0-5.57-2.55-5.57-5.7V12.5c0-3.15,2.49-5.7,5.57-5.7h20.6s14.54,15.49,14.54,15.49v33.03c0,3.15-2.49,5.7-5.57,5.7Z"/>
      <path class="cls-2" d="m37.13,7.12v11.1c0,2.24,1.78,4.06,3.97,4.06h10.83c.33,0,.5-.41.26-.65l-14.43-14.78c-.24-.24-.64-.07-.64.27Z"/>
    </g>
    <path class="cls-3" d="m19.21,18.19c5.92,0,9.94-.04,15.85-.04"/>
    <path class="cls-3" d="m19.55,31.08c7.87-.01,15.74-.03,23.61-.04"/>
    <line class="cls-3" x1="20.41" y1="37.75" x2="43.85" y2="37.75"/>
    <line class="cls-3" x1="43.68" y1="44.8" x2="26.23" y2="44.8"/>
    <line class="cls-3" x1="44.37" y1="50.97" x2="20.76" y2="50.97"/>
    <line class="cls-3" x1="18.81" y1="24.78" x2="44.01" y2="24.78"/>
  </g>
  <g>
    <rect class="cls-6" x="4.61" y="40.21" width="28.04" height="11.76" rx="4.09" ry="4.09"/>
    <rect class="cls-5" x="4.3" y="39.61" width="27.74" height="11.76" rx="4.09" ry="4.09"/>
  </g>
  <g>
    <path class="cls-1" d="m12.87,46.9v1.79s-1.24,0-1.24,0v-5.12s2,0,2,0c.61,0,1.07.15,1.39.45.32.3.48.71.48,1.22,0,.32-.07.6-.21.85-.14.25-.35.44-.63.59-.28.14-.62.21-1.02.21h-.77Zm1.38-1.65c0-.45-.25-.67-.75-.67h-.63v1.33h.63c.5,0,.75-.22.75-.66Z"/>
    <path class="cls-1" d="m20.4,47.46c-.21.39-.52.69-.93.91s-.88.33-1.42.33h-1.93s0-5.12,0-5.12h1.93c.55,0,1.03.11,1.43.32.4.21.71.51.92.9.21.39.32.83.32,1.33s-.11.95-.32,1.34Zm-1.33-.26c.27-.26.4-.62.4-1.08s-.13-.82-.4-1.08c-.27-.26-.64-.38-1.12-.38h-.59v2.92h.59c.48,0,.86-.13,1.12-.38Z"/>
    <path class="cls-1" d="m24.76,43.58v.98s-2.1,0-2.1,0v1.12h1.62s0,.94,0,.94h-1.62v2.07s-1.24,0-1.24,0v-5.12s3.34,0,3.34,0Z"/>
  </g>
</svg>