<svg id="ilustracion_recuerda" data-name="ilustracion recuerda" xmlns="http://www.w3.org/2000/svg" viewBox="0 0 61 66"><defs><style>.cls-1{fill:#ecedea;}.cls-1,.cls-2,.cls-3{stroke:#d1d4d3;stroke-miterlimit:10;}.cls-2{fill:#f6f6f6;}.cls-3{fill:none;}.cls-4{fill:#e47663;}.cls-5{fill:#ff735d;}.cls-6{fill:#fff;}</style></defs><path class="cls-1" d="M47.23,60.75H17.65a5.63,5.63,0,0,1-5.56-5.7V12.23a5.63,5.63,0,0,1,5.56-5.7H38.26L52.8,22v33A5.64,5.64,0,0,1,47.23,60.75Z"/><path class="cls-2" d="M37.68,6.86V18a4,4,0,0,0,4,4.06H52.47a.38.38,0,0,0,.27-.65L38.31,6.59A.37.37,0,0,0,37.68,6.86Z"/><path class="cls-3" d="M19.75,17.93c5.92,0,9.94-.05,15.86-.05"/><path class="cls-3" d="M20.1,30.82l23.6,0"/><line class="cls-3" x1="20.96" y1="37.49" x2="44.4" y2="37.49"/><line class="cls-3" x1="44.22" y1="44.54" x2="26.78" y2="44.54"/><line class="cls-3" x1="44.91" y1="50.71" x2="21.3" y2="50.71"/><line class="cls-3" x1="19.36" y1="24.51" x2="44.56" y2="24.51"/><rect class="cls-4" x="5.15" y="39.94" width="28.04" height="11.76" rx="4.09"/><rect class="cls-5" x="4.85" y="39.34" width="27.74" height="11.76" rx="4.09"/><path class="cls-6" d="M13.42,46.64v1.79H12.18V43.31h2a2,2,0,0,1,1.39.46A1.58,1.58,0,0,1,16.05,45a1.73,1.73,0,0,1-.21.85,1.48,1.48,0,0,1-.63.58,2.26,2.26,0,0,1-1,.22ZM14.79,45c0-.45-.24-.68-.74-.68h-.63v1.33h.63C14.55,45.64,14.79,45.42,14.79,45Z"/><path class="cls-6" d="M20.94,47.2a2.3,2.3,0,0,1-.92.91,3.08,3.08,0,0,1-1.43.32H16.66V43.31h1.93a3,3,0,0,1,1.43.32,2.22,2.22,0,0,1,.92.9,2.65,2.65,0,0,1,.32,1.33A2.68,2.68,0,0,1,20.94,47.2Zm-1.33-.26a1.66,1.66,0,0,0,0-2.16,1.58,1.58,0,0,0-1.12-.38H17.9v2.92h.59A1.54,1.54,0,0,0,19.61,46.94Z"/><path class="cls-6" d="M25.3,43.31v1H23.2v1.12h1.63v.94H23.2v2.07H22V43.31Z"/></svg>