<?xml version="1.0" encoding="UTF-8"?>
<svg id="Capa_2" data-name="Capa 2" xmlns="http://www.w3.org/2000/svg" viewBox="0 0 22.46 22.46">
  <defs>
    <style>
      .cls-1 {
        fill: #fff;
      }
    </style>
  </defs>
  <g id="Capa_1-2" data-name="Capa 1">
    <path class="cls-1" d="m11.23,0C5.03,0,0,5.03,0,11.23s5.03,11.23,11.23,11.23,11.23-5.03,11.23-11.23S17.44,0,11.23,0Zm1.17,17.68c0,.4-.32.72-.72.72h-1.3c-.4,0-.72-.32-.72-.72v-8.56c0-.4.32-.72.72-.72h1.3c.4,0,.72.32.72.72v8.56Zm-1.36-10.72c-1.13,0-1.7-.49-1.7-1.46s.57-1.48,1.7-1.48,1.7.49,1.7,1.48-.57,1.46-1.7,1.46Z"/>
  </g>
</svg>