<svg xmlns="http://www.w3.org/2000/svg" viewBox="0 0 170.79 101.65"><defs><style>.cls-1{fill:#fff;}.cls-2{fill:#e43012;}</style></defs><g id="Capa_2" data-name="Capa 2"><g id="OBJECTS"><path class="cls-1" d="M48.29,26.25c0-.89-.33-1.2-1.39-1.2h-.34v-.36h.63c.47,0,2.27.07,2.59.07s1.37-.05,2.06-.07h.63v.36h-.36c-1,0-1.37.31-1.37,1.2v10.4c0,.9.34,1.19,1.39,1.19h.34v.37h-.63c-.38,0-2-.07-2.58-.07s-1.39,0-2.09.07h-.61v-.37h.34c1.06,0,1.39-.29,1.39-1.19Z"/><path class="cls-1" d="M56.17,28.5a2.32,2.32,0,0,0-1.37-.83h-.32v-.29h.27l1.74.06c.24,0,.92-.06,1.06-.06h.29L64.68,35V29c0-.95-.41-1.32-1.45-1.32h-.31v-.29h.33l1.7.06,1.4-.06h.2l0,.29c-.95.08-1.2.33-1.2,1.18v9.48H65l-8.17-9.08v6.82c0,1.43.32,1.82,1.51,1.82h.3v.31h-.34l-1.78-.06L55,38.2h-.29v-.31c1.21-.11,1.46-.32,1.46-1.2Z"/><path class="cls-1" d="M68.6,35.69a2.86,2.86,0,0,0,1,1.41,3.76,3.76,0,0,0,2.31.71c1.55,0,2.59-.82,2.59-2,0-.87-.5-1.35-2.37-2.25a8.51,8.51,0,0,1-2.62-1.68A2.59,2.59,0,0,1,68.75,30c0-1.69,1.34-2.81,3.37-2.81a7.82,7.82,0,0,1,2,.28,3.57,3.57,0,0,0,.74.11.24.24,0,0,0,.26-.15h.31l0,2.31h-.25a3.14,3.14,0,0,0-.51-1.1,2.85,2.85,0,0,0-2.3-.94c-1.29,0-2.14.63-2.14,1.56s.49,1.27,2.21,2.07C74.69,32.35,76,33.28,76,35c0,2-1.58,3.32-3.93,3.32a8.66,8.66,0,0,1-1.91-.24,3.29,3.29,0,0,0-.64-.09.43.43,0,0,0-.43.2H68.8l0-.26c-.14-.84-.3-1.63-.43-2.16Z"/><path class="cls-1" d="M81.83,28.15H79.65c-1.27,0-1.6.31-1.7,1.61h-.31l0-2.6H78a1.22,1.22,0,0,0,.42.2,1.65,1.65,0,0,0,.48.06h7.85a1.27,1.27,0,0,0,.9-.26h.29l0,2.6h-.3c-.11-1.3-.43-1.61-1.71-1.61H83.79v8.78c0,.61.18,1,1.13,1h.27v.31h-.52l-2.07-.06c-.23,0-1.11.06-1.67.06h-.5v-.31h.32c.81,0,1.08-.24,1.08-1Z"/><path class="cls-1" d="M91.06,28.63c0-.72-.27-1-1.11-1h-.27v-.29h.5c.38,0,1.82.06,2.07.06s1.1,0,1.65-.06h.51v.29h-.29c-.83,0-1.1.24-1.1,1V37c0,.71.27.95,1.12.95h.27v.3H93.9c-.3,0-1.6-.06-2.06-.06s-1.12,0-1.67.06h-.49v-.3H90c.84,0,1.11-.24,1.11-.95Z"/><path class="cls-1" d="M100.3,28.15H98.13c-1.28,0-1.6.31-1.71,1.61h-.31l.06-2.6h.29a1.18,1.18,0,0,0,.41.2,1.65,1.65,0,0,0,.48.06h7.86a1.26,1.26,0,0,0,.89-.26h.29l.06,2.6h-.31c-.11-1.3-.43-1.61-1.71-1.61h-2.17v8.78c0,.61.18,1,1.13,1h.27v.31h-.52l-2.07-.06c-.23,0-1.11.06-1.67.06h-.5v-.31h.32c.81,0,1.08-.24,1.08-1Z"/><path class="cls-1" d="M109.46,28.63c0-.74-.27-1-1.11-1h-.27v-.29h.5l2.07.06c.41,0,1.33-.06,1.67-.06h.5v.29h-.28c-.83,0-1.12.24-1.12,1v6.12c0,2.13,1,3.08,3.06,3.08s3.14-1,3.14-2.93v-6c0-1-.22-1.18-1.13-1.18h-.31v-.29h.36l1.75.06c.46,0,1-.06,1.38-.06h.43v.29h-.36c-.81,0-1.11.24-1.11.9V34.4c0,3.16-2.1,3.94-4.66,3.94-1.15,0-4.51-.25-4.51-3.64Z"/><path class="cls-1" d="M125.87,28.15H123.7c-1.28,0-1.6.31-1.71,1.61h-.31l.06-2.6H122a1.18,1.18,0,0,0,.41.2,1.7,1.7,0,0,0,.48.06h7.86a1.26,1.26,0,0,0,.89-.26H132l.06,2.6h-.31c-.11-1.3-.43-1.61-1.71-1.61h-2.17v8.78c0,.61.18,1,1.13,1h.27v.31h-.52l-2.07-.06c-.23,0-1.11.06-1.67.06h-.5v-.31h.32c.81,0,1.08-.24,1.08-1Z"/><path class="cls-1" d="M136.94,29.14a8.84,8.84,0,0,0-.7,3.78c0,1.61.38,4.91,3.52,4.91a2.8,2.8,0,0,0,2.59-1.41,8.92,8.92,0,0,0,.68-3.7c0-3.18-1.28-5-3.47-5a2.77,2.77,0,0,0-2.62,1.43m8.3,3.59a5.37,5.37,0,0,1-5.62,5.61A5.3,5.3,0,0,1,134,32.77a5.61,5.61,0,0,1,11.21,0"/><path class="cls-1" d="M48.52,45.23a2.86,2.86,0,0,0-1.71-1h-.4v-.37h.33l2.18.07c.29,0,1.15-.07,1.33-.07h.36l8.56,9.51V45.85c0-1.19-.52-1.65-1.82-1.65H57v-.37h.41l2.13.07,1.76-.07h.24l0,.37c-1.18.09-1.5.41-1.5,1.47V57.52h-.4L49.39,46.17V54.7c0,1.79.41,2.27,1.89,2.27h.38v.39h-.42c-.32,0-1.87-.07-2.23-.07-.2,0-1.64.07-1.95.07H46.7V57c1.5-.14,1.82-.39,1.82-1.49Z"/><path class="cls-1" d="M68.17,49l-1.42,3.7H69.6Zm.37-2.68h.62l3.48,8.84C73.38,57,73.88,57,74.49,57v.31H74l-2-.05c-.51,0-.86.05-1.49.05H70V57c.47,0,.93,0,.93-.62a2.79,2.79,0,0,0-.25-1l-.81-2H66.5l-.7,1.83a3.22,3.22,0,0,0-.24,1.07c0,.75.7.75,1.1.75v.31h-.38c-.22,0-1.22-.05-1.53-.05s-.75.05-1.13.05h-.43V57c1.13,0,1.35-.27,2.19-2.46Z"/><path class="cls-1" d="M86.28,55.14a18.28,18.28,0,0,0-.65,2.17,21.25,21.25,0,0,1-2.91.18A11.38,11.38,0,0,1,79,56.87,4.94,4.94,0,0,1,75.84,52a5.5,5.5,0,0,1,2-4.41,6.25,6.25,0,0,1,4.27-1.31l1.51.06c.65,0,1.32.07,1.55.07H86c0,.64,0,.86,0,1.38v1H85.7a1.45,1.45,0,0,0-.64-1.32A4.8,4.8,0,0,0,82.51,47c-3,0-4.46,1.57-4.46,4.82S79.83,57,82.74,57A4.09,4.09,0,0,0,85,56.43a2.34,2.34,0,0,0,1-1.29Z"/><path class="cls-1" d="M89.69,47.77c0-.71-.27-1-1.11-1h-.27v-.29h.5l2.07,0,1.65,0H93v.29h-.29c-.83,0-1.1.24-1.1,1V56.1c0,.71.27.95,1.12.95H93v.29h-.51c-.3,0-1.6-.05-2.06-.05s-1.12,0-1.67.05h-.49v-.29h.27c.84,0,1.11-.24,1.11-.95Z"/><path class="cls-1" d="M98.05,48.29a8.76,8.76,0,0,0-.7,3.77c0,1.61.38,4.92,3.52,4.92a2.79,2.79,0,0,0,2.59-1.42,8.85,8.85,0,0,0,.68-3.7c0-3.17-1.27-5-3.47-5a2.78,2.78,0,0,0-2.62,1.43m8.3,3.59a5.37,5.37,0,0,1-5.62,5.61,5.3,5.3,0,0,1-5.59-5.57,5.61,5.61,0,0,1,11.21,0"/><path class="cls-1" d="M110,47.64a2.29,2.29,0,0,0-1.37-.82h-.32v-.29h.27l1.74,0c.23,0,.92,0,1.06,0h.29l6.84,7.6v-6c0-1-.41-1.32-1.45-1.32h-.31v-.29h.33l1.7,0,1.4,0h.2l0,.29c-1,.07-1.2.33-1.2,1.17v9.48h-.33l-8.17-9.07v6.81c0,1.44.32,1.82,1.51,1.82h.3v.31h-.34l-1.78-.05-1.56.05h-.29V57c1.2-.11,1.46-.31,1.46-1.19Z"/><path class="cls-1" d="M126.4,49,125,52.72h2.85Zm.38-2.68h.61l3.49,8.84c.74,1.85,1.24,1.85,1.85,1.85v.31h-.47l-2-.05c-.51,0-.87.05-1.5.05h-.55V57c.47,0,.93,0,.93-.62a2.79,2.79,0,0,0-.25-1l-.81-2h-3.38l-.7,1.83a3.44,3.44,0,0,0-.23,1.07c0,.75.7.75,1.1.75v.31h-.38c-.22,0-1.22-.05-1.53-.05s-.75.05-1.13.05h-.43V57c1.13,0,1.34-.27,2.19-2.46Z"/><path class="cls-1" d="M135.93,47.77c0-.71-.27-1-1.12-1h-.27v-.29h.51l2.07,0c.23,0,1.11,0,1.67,0h.5l0,.29H139c-.84,0-1.11.24-1.11,1v8.14c0,.62.29.79,1.36.79,1.71,0,2.3-.33,3.06-1.67h.3l-.75,2.31h-.34c-.36,0-2.64-.05-4.1-.05-.86,0-2.17.05-2.46.05h-.43v-.29h.27c.85,0,1.12-.24,1.12-.94Z"/><path class="cls-1" d="M151.65,55.84c0,.79.29.95,1.64.95,3.16,0,4.51-1.43,4.51-4.76,0-5.16-3.62-5.16-4.64-5.16a14.48,14.48,0,0,0-1.51.1Zm-2-8c0-.72-.26-.94-1.1-.94h-.34v-.33c.18,0,1.22-.09,2.35-.16.76-.06,1.58-.09,2.07-.09,3,0,4.76.53,6.07,1.85A4.54,4.54,0,0,1,160,51.42a6.05,6.05,0,0,1-1.65,4.22,6.56,6.56,0,0,1-5.11,1.7c-.39,0-1.43-.05-2.15-.05l-2.37.05h-.43V57h.32c.82,0,1.1-.22,1.1-.93Z"/><path class="cls-1" d="M163.3,47.75c0-.71-.28-.93-1.12-.93h-.27v-.29h.7l3.13,0,3.41,0h.72l0,2.36h-.29c-.05-1.23-.59-1.72-1.85-1.72h-2.51v4.16h2.17a1.31,1.31,0,0,0,1.44-1.27l.32,0v3.29h-.31c-.14-1-.66-1.44-1.92-1.44h-1.72v3.8a.81.81,0,0,0,.91.93H168A2.58,2.58,0,0,0,170.47,55h.32L170,57.34c-.52,0-3-.05-3.82-.05-.56,0-3.24,0-3.85.05h-.47V57h.29c.84,0,1.12-.24,1.12-1Z"/><path class="cls-1" d="M47,73.36a3.47,3.47,0,0,0,1.28,1.77,4.67,4.67,0,0,0,2.89.89c1.93,0,3.24-1,3.24-2.52,0-1.1-.63-1.7-3-2.82a10.84,10.84,0,0,1-3.28-2.11,3.25,3.25,0,0,1-1-2.36c0-2.11,1.69-3.51,4.23-3.51a10.13,10.13,0,0,1,2.49.35,4.37,4.37,0,0,0,.92.14.32.32,0,0,0,.34-.19h.38l0,2.89H55.3a3.55,3.55,0,0,0-.63-1.38,3.59,3.59,0,0,0-2.87-1.17c-1.62,0-2.67.79-2.67,2,0,1,.6,1.58,2.76,2.59,2.76,1.31,4.42,2.48,4.42,4.63,0,2.48-2,4.15-4.92,4.15a10.19,10.19,0,0,1-2.38-.3,4.44,4.44,0,0,0-.81-.11.54.54,0,0,0-.53.25h-.39l0-.32c-.18-1.05-.38-2-.54-2.7Z"/><path class="cls-1" d="M63,68.16,61.6,71.87h2.86Zm.38-2.67H64l3.49,8.83c.73,1.86,1.24,1.86,1.85,1.86v.31h-.47l-2-.06c-.5,0-.86.06-1.49.06h-.55v-.31c.46,0,.93,0,.93-.63a2.74,2.74,0,0,0-.25-1l-.81-2H61.35l-.7,1.83a3.33,3.33,0,0,0-.23,1.06c0,.76.7.76,1.09.76v.31h-.37c-.22,0-1.23-.06-1.53-.06s-.76.06-1.13.06h-.43v-.31c1.13,0,1.34-.28,2.19-2.46Z"/><path class="cls-1" d="M72.55,66.92c0-.72-.27-1-1.12-1h-.27v-.3h.51l2.06,0c.23,0,1.12,0,1.67,0h.51l0,.3h-.27c-.85,0-1.11.23-1.11,1v8.14c0,.62.28.78,1.36.78,1.71,0,2.3-.32,3.06-1.66h.3l-.75,2.31h-.35c-.35,0-2.64-.06-4.09-.06-.86,0-2.17.06-2.46.06h-.43v-.3h.27c.85,0,1.12-.23,1.12-.93Z"/><path class="cls-1" d="M81.84,66.92c0-.74-.27-1-1.12-1h-.27v-.3H81l2.06,0c.42,0,1.33,0,1.67,0h.51V66h-.29c-.83,0-1.11.23-1.11,1V73c0,2.13,1,3.08,3,3.08s3.14-1,3.14-2.93v-6c0-1-.21-1.17-1.13-1.17h-.3v-.3h.36l1.74,0c.47,0,1,0,1.38,0h.43V66h-.36c-.81,0-1.11.23-1.11.89v5.83c0,3.15-2.1,3.94-4.65,3.94-1.15,0-4.51-.25-4.51-3.64Z"/><path class="cls-1" d="M97.43,75c0,.79.29,1,1.64,1,3.16,0,4.51-1.43,4.51-4.77C103.58,66,100,66,98.94,66c-.59,0-.81,0-1.51.09Zm-2-8c0-.71-.25-.93-1.1-.93H94v-.33c.18,0,1.22-.09,2.35-.17.76-.05,1.59-.09,2.07-.09,3,0,4.76.53,6.07,1.85a4.56,4.56,0,0,1,1.24,3.27,6,6,0,0,1-1.65,4.21A6.56,6.56,0,0,1,99,76.49c-.4,0-1.44-.06-2.16-.06l-2.37.06H94v-.31h.32c.83,0,1.1-.22,1.1-.94Z"/><path class="cls-1" d="M0,21.33C9.27,15,25.05,16.22,33.21,22V0H0Z"/><path class="cls-1" d="M0,85.48v16.17H33.21v-16C18.7,94.08,5.24,88.59,0,85.48"/><path class="cls-1" d="M16.36,58.19C9.82,56.85,3.05,54.71,0,52V70.41C0,75.53,6.71,80.8,17.77,80.8c4.8,0,15-1.14,15-10S21.16,59.17,16.36,58.19"/><path class="cls-1" d="M14.7,26C5.3,26,.35,31,.35,36.83c0,11.23,23.46,9.26,32.49,15.35,0-5.28,0-9.86,0-13.45,0-4-7.37-12.78-18.16-12.78m1.9,16.24a5.36,5.36,0,1,1,5.26-5.36,5.31,5.31,0,0,1-5.26,5.36"/><path class="cls-2" d="M22.13,36.82a5.39,5.39,0,1,1-5.39-5.37,5.38,5.38,0,0,1,5.39,5.37"/></g></g></svg>