<?xml version="1.0" encoding="UTF-8"?>
<svg id="Capa_2" data-name="Capa 2" xmlns="http://www.w3.org/2000/svg" viewBox="0 0 27.13 166">
  <defs>
    <style>
      .cls-1 {
        fill: #fff;
      }

      .cls-2 {
        fill: #d63384;
      }
    </style>
  </defs>
  <g id="Capa_1-2" data-name="Capa 1">
    <g>
      <path class="cls-2" d="m27,166c.85-9.73-2.7-14.13-5.21-17.42-3.51-4.59-6.27-6.3-11.52-11.33-2.02-1.93-3.66-3.96-5.01-5.97-2.97-4.42-4.5-9.64-4.55-14.96-.23-22.8-.47-45.59-.7-68.39,0-2.63.38-5.27,1.29-7.74.99-2.7,2.57-5.39,5.91-8.63,4.86-4.73,7.97-5.86,13.25-12.48,2.78-3.49,6.83-8.27,6.56-19.07v166Z"/>
      <g>
        <path class="cls-1" d="m18.61,95.52v2l-2.25.77v3.54l2.25.77v1.97l-9.24-3.37v-2.31l9.24-3.37Zm-3.68,5.88v-2.67l-4.03,1.34,4.03,1.33Z"/>
        <path class="cls-1" d="m11.47,91.46c0-.93.2-1.66.6-2.18.4-.52.89-.86,1.46-1.03l.64,1.79c-.85.19-1.27.65-1.27,1.39,0,.53.19.94.56,1.24.37.29.93.44,1.67.44s1.3-.15,1.66-.45c.36-.3.54-.72.54-1.24,0-.81-.42-1.3-1.25-1.46l.56-1.74c.63.16,1.13.51,1.53,1.06.39.55.59,1.25.59,2.12,0,.73-.14,1.37-.43,1.91-.29.55-.7.97-1.25,1.27-.54.3-1.19.45-1.96.45s-1.42-.15-1.96-.45c-.54-.3-.96-.72-1.25-1.26-.29-.54-.43-1.15-.43-1.85Z"/>
        <path class="cls-1" d="m11.47,83.69c0-.93.2-1.66.6-2.18.4-.52.89-.86,1.46-1.03l.64,1.79c-.85.19-1.27.65-1.27,1.39,0,.53.19.94.56,1.24.37.29.93.44,1.67.44s1.3-.15,1.66-.45c.36-.3.54-.72.54-1.24,0-.81-.42-1.3-1.25-1.46l.56-1.74c.63.16,1.13.51,1.53,1.06.39.55.59,1.25.59,2.12,0,.73-.14,1.37-.43,1.91-.29.55-.7.97-1.25,1.27-.54.3-1.19.45-1.96.45s-1.42-.15-1.96-.45c-.54-.3-.96-.72-1.25-1.26-.29-.54-.43-1.15-.43-1.85Z"/>
        <path class="cls-1" d="m18.75,75.85c0,1.1-.32,1.98-.96,2.65s-1.53.99-2.68.99c-.77,0-1.42-.15-1.96-.45-.54-.3-.96-.72-1.25-1.25-.29-.54-.43-1.15-.43-1.84s.14-1.31.43-1.81.67-.87,1.16-1.13c.49-.26,1.05-.39,1.67-.39.19,0,.36,0,.53.01s.32.02.45.04v4.94c.54-.07.94-.26,1.21-.57.27-.3.4-.7.4-1.18,0-.41-.08-.74-.24-.99s-.38-.45-.66-.59l.59-1.53c.55.22.98.62,1.28,1.18s.46,1.2.46,1.92Zm-5.87.11c0,.91.5,1.45,1.5,1.64v-3.15c-.49.06-.86.21-1.11.47-.26.26-.39.6-.39,1.04Z"/>
        <path class="cls-1" d="m18.75,68.32c0,.71-.13,1.36-.38,1.94-.25.58-.61,1.06-1.06,1.42l-1.12-1.11c.34-.22.61-.52.83-.9.21-.37.32-.82.32-1.33,0-.36-.05-.66-.16-.88-.11-.22-.28-.33-.51-.33-.15,0-.28.05-.39.15-.11.1-.19.31-.26.62l-.25,1.23c-.17.81-.42,1.39-.76,1.73s-.78.51-1.32.51c-.38,0-.74-.11-1.08-.34-.34-.23-.61-.57-.82-1.03-.21-.46-.31-1.03-.31-1.71,0-1.42.43-2.44,1.3-3.05l1.12,1.15c-.33.21-.58.47-.75.81-.17.33-.26.68-.26,1.04,0,.82.23,1.23.69,1.23.15,0,.28-.07.39-.2.11-.13.2-.37.27-.71l.29-1.43c.14-.69.38-1.19.71-1.48.33-.3.73-.45,1.2-.45.67,0,1.23.27,1.67.81.44.54.66,1.3.66,2.3Z"/>
        <path class="cls-1" d="m11.47,60.65c0-.7.15-1.32.43-1.86.29-.54.71-.96,1.25-1.27.54-.3,1.19-.46,1.96-.46s1.42.15,1.96.46c.54.3.96.73,1.25,1.27.29.54.43,1.16.43,1.86s-.14,1.33-.43,1.87c-.29.54-.7.96-1.25,1.26-.54.3-1.19.45-1.96.45s-1.42-.15-1.96-.45c-.54-.3-.96-.72-1.25-1.26-.29-.54-.43-1.16-.43-1.87Zm1.43,0c0,.52.18.93.55,1.23.37.29.92.44,1.66.44s1.29-.15,1.66-.44.55-.7.55-1.23-.18-.92-.55-1.21-.92-.44-1.66-.44-1.29.15-1.66.44c-.37.29-.55.7-.55,1.21Z"/>
        <path class="cls-1" d="m18.75,52.78c0,.71-.13,1.36-.38,1.94-.25.58-.61,1.06-1.06,1.42l-1.12-1.11c.34-.22.61-.52.83-.9.21-.37.32-.82.32-1.33,0-.36-.05-.66-.16-.88-.11-.22-.28-.33-.51-.33-.15,0-.28.05-.39.15-.11.1-.19.31-.26.62l-.25,1.23c-.17.81-.42,1.39-.76,1.73s-.78.51-1.32.51c-.38,0-.74-.11-1.08-.34-.34-.23-.61-.57-.82-1.03-.21-.46-.31-1.03-.31-1.71,0-1.42.43-2.44,1.3-3.05l1.12,1.15c-.33.21-.58.47-.75.81-.17.33-.26.68-.26,1.04,0,.82.23,1.23.69,1.23.15,0,.28-.07.39-.2.11-.13.2-.37.27-.71l.29-1.43c.14-.69.38-1.19.71-1.48.33-.3.73-.45,1.2-.45.67,0,1.23.27,1.67.81.44.54.66,1.3.66,2.3Z"/>
      </g>
      <path class="cls-1" d="m7.77,118.54c0,3.64,2.95,6.59,6.59,6.59s6.59-2.95,6.59-6.59-2.95-6.59-6.59-6.59-6.59,2.95-6.59,6.59Zm10.37-.69c.23,0,.42.19.42.42v.76c0,.23-.19.42-.42.42h-5.02c-.23,0-.42-.19-.42-.42v-.76c0-.23.19-.42.42-.42h5.02Zm-6.29.8c0,.66-.29,1-.86,1s-.87-.33-.87-1,.29-1,.87-1,.86.33.86,1Z"/>
    </g>
  </g>
</svg>