<svg xmlns="http://www.w3.org/2000/svg" viewBox="0 0 1094 863"><defs><style>.cls-1{isolation:isolate;}.cls-2{fill:#e6e6e6;mix-blend-mode:multiply;}.cls-3{fill:#f0e3ed;}.cls-4{fill:#fff;}.cls-5{fill:#f9f9f9;}.cls-6{fill:#f8f7f9;}.cls-19,.cls-29,.cls-30,.cls-32,.cls-7{fill:none;}.cls-8{fill:#603813;}.cls-9{fill:#34220e;}.cls-10{fill:#edc4a6;}.cls-11{fill:#fbf1e1;}.cls-12{fill:#fafef8;}.cls-13{fill:#473117;}.cls-14{fill:#074959;}.cls-15{fill:#efb88f;}.cls-16{fill:#cba284;}.cls-17{fill:#cb9775;}.cls-18{fill:#602e03;}.cls-19,.cls-32{stroke:#e5b897;}.cls-19,.cls-30,.cls-32{stroke-linecap:round;}.cls-19,.cls-29,.cls-32{stroke-miterlimit:10;}.cls-19{stroke-width:0.75px;}.cls-20{fill:#e5b897;}.cls-21{fill:#211b1b;}.cls-22{opacity:0.07;}.cls-23{fill:#f4f5f4;}.cls-24{fill:#f7f8fa;}.cls-25,.cls-28{fill:#e3e3e3;}.cls-26{fill:#c8c8c8;}.cls-27{opacity:0.05;}.cls-28{opacity:0.42;}.cls-29{stroke:#c8c8c8;stroke-width:2px;}.cls-30{stroke:#000;stroke-linejoin:round;stroke-width:3px;}.cls-31{fill:#050303;}</style></defs><g class="cls-1"><g id="Aspergilosis"><path class="cls-2" d="M983.3,380.77H488.9l-54.32,34V103.9c0-7.86,9.84-14.23,22-14.23H983.3c12.13,0,22,6.37,22,14.23V366.55C1005.26,374.4,995.43,380.77,983.3,380.77Z"/><path class="cls-3" d="M963.53,364.92H469.13l-54.32,34V88c0-7.85,9.83-14.22,22-14.22H963.53c12.13,0,22,6.37,22,14.22V350.7C985.49,358.55,975.66,364.92,963.53,364.92Z"/><rect class="cls-2" x="453.66" y="66.22" width="583.29" height="293.22" rx="15.37"/><rect class="cls-4" x="445.45" y="58.25" width="583.29" height="293.22" rx="15.37"/><path class="cls-3" d="M1009.06,396.83a5,5,0,1,1-6.19-3.52A5,5,0,0,1,1009.06,396.83Z"/><path class="cls-4" d="M1036,387.41a5,5,0,1,1-6.19-3.52A5,5,0,0,1,1036,387.41Z"/><circle class="cls-3" cx="1009.72" cy="356.88" r="10.07" transform="translate(199.35 1057.03) rotate(-60.29)"/><circle class="cls-3" cx="1029.18" cy="310.82" r="24.4" transform="translate(344.25 1139.5) rotate(-67.23)"/><circle class="cls-5" cx="968.86" cy="358.07" r="24.6" transform="translate(164.08 1005.55) rotate(-59.1)"/><ellipse class="cls-3" cx="458.67" cy="76.3" rx="39.96" ry="40.69" transform="translate(23.31 239.58) rotate(-30)"/><circle class="cls-2" cx="399.1" cy="112.69" r="46.42"/><path class="cls-3" d="M414.54,35.9a10.13,10.13,0,1,1-13.84-3.71A10.13,10.13,0,0,1,414.54,35.9Z"/><path class="cls-3" d="M379.81,43.76a5.07,5.07,0,1,1-6.92-1.86A5.06,5.06,0,0,1,379.81,43.76Z"/><path class="cls-4" d="M417.61,97.35a5.07,5.07,0,1,1-6.92-1.85A5.06,5.06,0,0,1,417.61,97.35Z"/><circle class="cls-6" cx="392.9" cy="105.87" r="46.42"/><path class="cls-7" d="M438.35,243.89a.43.43,0,0,0,.09.82"/><path class="cls-8" d="M165.16,338.86c-28.28,43.63-31.26,115.49,8,153.23,21.23,18.34,51.56,21,79.62,20.91,45.5,3.15,74.64-19,89.5-61.53,23.83-47.75-5.82-100.83-38.05-136.72C261.12,289.43,195.25,296.22,165.16,338.86Z"/><path class="cls-9" d="M192.48,385.79a51.37,51.37,0,0,0-18.58,31c-20.88,73.83,55.77,113.42,108,88.33C320.74,492.71,330,405,282,384.39,266.42,375.82,235.88,354.06,192.48,385.79Z"/><path class="cls-10" d="M202.19,357.6c-9.5,13.64-12.17,30.77-14.24,47.27-3.63,20.88-2.55,43.5,12.13,60.12,8.16,12,20.37,19.4,32.21,27.33,9,7.07,20,7.82,29.3,1,25.58-12.74,36.14-38,42.93-64.82A57.53,57.53,0,0,0,291,367.75c-11.91-11.67-49.43-40.38-65.63-29.93C216.75,343.76,208.31,348.82,202.19,357.6Z"/><path class="cls-10" d="M180.86,393.75c-7.19,2.16-8,12.8-1.83,16.73a58.18,58.18,0,0,1,8,5c2.66-4.66,3.47-14,3.3-19.52C189.62,391.42,185.1,392.48,180.86,393.75Z"/><path class="cls-10" d="M311.72,392.64c8.4,5.44,7.25,17.06-.69,22.3-1.71,2.11-3.06,5.26-5.77,5.23V405.38C304,398.06,300.7,391.14,311.72,392.64Z"/><path class="cls-11" d="M181.36,412.05c-5.17,2.13-2.52,12.83,3.38,11.68C189.1,423.78,192.24,407.14,181.36,412.05Z"/><path class="cls-12" d="M304.92,408.57c-1.77,1-1.54,15.53,2.69,11.93C314.41,418.54,313.24,406.14,304.92,408.57Z"/><path class="cls-13" d="M225.59,371.13c-6.94.78-18.51,7.61-17.85,15.15,4.87-8.6,16.1-11.1,25.28-12.09C237.13,369.39,228.28,370.6,225.59,371.13Z"/><path class="cls-13" d="M271.17,371.1c6.93.78,18.51,7.59,17.87,15.13-4.88-8.59-16.12-11.08-25.3-12.06C259.63,369.38,268.48,370.58,271.17,371.1Z"/><path class="cls-14" d="M219.76,390.93c-3.77,5.27-1.37,15.64,6.46,14.32C235,402.1,228.82,382,219.76,390.93Z"/><path class="cls-14" d="M269.67,390.82c-2.34,3.3-2.5,9.36.62,12.21C284.35,412.53,282.56,380.14,269.67,390.82Z"/><path class="cls-15" d="M298.44,422.64c.2,8.09-18.22,8.1-18,0C280.21,414.57,298.65,414.56,298.44,422.64Z"/><path class="cls-15" d="M212.49,422.7c.2,8.08-18.23,8.09-18,0C194.25,414.63,212.69,414.62,212.49,422.7Z"/><path class="cls-16" d="M240.86,429.55a8,8,0,0,0,7.24,4.92,10.77,10.77,0,0,0,8.11-3.68,1.57,1.57,0,0,0-1.9-2.44c-.34.15.33-.1,0,0l-.29.09-.64.19a7.2,7.2,0,0,1-.78.16h-.48a30,30,0,0,1-3.41.21c-1.68,0-3.35-.08-5-.09a1.57,1.57,0,0,0,0,3.12c1.78,0,3.55.12,5.34.09a17.09,17.09,0,0,0,6.93-1.19l-1.89-2.46a8.31,8.31,0,0,1-.65.68l-.34.31-.24.19h0a10.6,10.6,0,0,1-1.55.93l-.21.1h0l-.5.18a6.18,6.18,0,0,1-.84.24l-.43.09c-.34.07.21,0-.17,0a6.17,6.17,0,0,1-.86,0,4.73,4.73,0,0,1-2.69-.74,2.71,2.71,0,0,1-.35-.24c.24.18-.09-.08-.13-.12a6.34,6.34,0,0,1-.63-.64h0l-.14-.19-.26-.42c-.18-.32-.34-.65-.49-1a1.57,1.57,0,0,0-2.13-.56,1.59,1.59,0,0,0-.55,2.14Z"/><path class="cls-17" d="M252.28,466.58a16.35,16.35,0,0,1-3.19,2,6.28,6.28,0,0,1-2.31.44,3.75,3.75,0,0,1-.67,0h0l-.37-.08a9.67,9.67,0,0,1-1.39-.42,28.68,28.68,0,0,1-3.19-1.46l-.79,2.91,10.33.43a1.56,1.56,0,1,0,.29-3.11h-.29l-10.33-.44a1.58,1.58,0,0,0-.79,2.91,17.62,17.62,0,0,0,7.27,2.44A12.06,12.06,0,0,0,254,469.4a1.56,1.56,0,0,0-1.57-2.69h0Z"/><path class="cls-18" d="M259.64,459.19c.2,19.52-21.23,19.53-21,0C238.4,439.69,259.82,439.68,259.64,459.19Z"/><path class="cls-8" d="M244.73,348.77c19.29,8.31,42.54,13.84,56.13,31,2.77,4.45,2.61,11.67,7.53,14.14,20.42-13.69,5.52-41.38-14.92-46-18-9.24-37.92-18-58.3-18.57C221.85,332.18,240.54,346.75,244.73,348.77Z"/><path class="cls-8" d="M189.84,383.8a46.56,46.56,0,0,1,13.63-16.29C214,357.8,219.22,342.44,232,336c-2.88-7.86-18.4-2-23.57,1.4C201.68,344.38,188.21,374.47,189.84,383.8Z"/><path class="cls-10" d="M443.75,564.81c-8.59-21.84-7.28-43.48.29-65.63,3.32-4.47,13.69.51,18.31-2.6,7-11.38,8.51-26.43,13.95-38.81,1.12-5.55,8.55-12.72,12.83-6.27-.92,16.76-7,34-13.19,49.66,10.67-14.54,26.34-4,14.78,10.69,13.35-8.06,19.89,2.85,10.27,13.18,9.7-3.66,17.16,2.51,11.67,12-.89,2-4.55,3.13-4.66,5.32-.34,7.06.34,4.37-6.07,18.48-13,16.19-14.56,10.65-21.07,34.46-1.86,4.77-1,10.48-2.77,15.25-.79,1.47-41.35-11.84-41.35-11.84C438.2,590.65,444.34,574,443.75,564.81Z"/><path class="cls-19" d="M476.78,530.23c-2.47,6,5.33,13.31,10.62,8.83"/><path class="cls-19" d="M488,538.56c-2,5.55,1.29,12.41,7.81,9.37"/><path class="cls-20" d="M509.38,541.63a37,37,0,0,1-2.11,11.59,29.21,29.21,0,0,1-6.45,10c-2.77,2.87-5.75,5.32-8.43,8a32.26,32.26,0,0,0-6.61,8.86,1.55,1.55,0,1,1-2.77-1.38h0a35.18,35.18,0,0,1,7.54-9.36c2.91-2.66,6-5,8.68-7.61a27.27,27.27,0,0,0,6.39-9.08,36.24,36.24,0,0,0,2.44-11h0a.66.66,0,0,1,1.32,0Z"/><path class="cls-21" d="M270.3,777.26a2.33,2.33,0,0,1,2.73,3c-2.91,33.07-2.27,66.36-1.62,99.56q-26.61.84-53.25.22c.07-28.76-.14-57.55.19-86.31.14-11.53,1.19-16.26,13.06-16.4C244.37,777.17,257.34,777.27,270.3,777.26Z"/><polygon class="cls-22" points="327.58 614.06 326.21 633.47 338.56 659.6 327.58 614.06"/><path class="cls-3" d="M284.14,573.89C279.72,643,258.93,712.62,256,781.83c-8.45.55-17.53-.47-23.38-.15-.55-35.75-3.14-70.82-3.82-106.55-1.39-34.56-20.88-72.26-20.86-106.74C222.7,571.39,269,575.2,284.14,573.89Z"/><path class="cls-23" d="M484.15,609.68c-5.58,44.48-33.06,84.19-43.43,128.14-7.08,18.75-29.81,24.15-44.7,10.72-24.89-26-39.81-60.56-60.38-90,8.13,26.4-38.36,83.42-45.52,117-5.59,10.12,7,13.28,12.62,18.79,19.46,24.28,40.22,53.28,41.65,84.54-23,7.47-58.26.3-82.23,1.44C245,779.45,260.64,686.2,260.64,686.2l23.5-108.15s3.87-11.55,1.37-22.19c-2.65-11.29-24.8-24.05-19.42-27.71,4.74-3.23,22.18,6.92,22.18,6.92s8.12,4.7,11.42,16.67c4.19,6.79,13.31,9.18,21.29,9.3,30.07-1.47,71,76.64,85,101.58a531,531,0,0,0,27-73.88l46.3,14.79C482.34,604.25,484.87,606.37,484.15,609.68Z"/><path class="cls-24" d="M234.44,869.45c-.43,4-1.4,10.86-1.4,10.86s-23.57,0-31.78-1c-3.43-.42-51.5-3.15-61.61-1.86A406.94,406.94,0,0,1,166,810.05c8.81-18.15,26.89-24.2,17.5-46.17-4.16-13.86-5.46-23.74-11.11-37.42-2.09-5.19-2.15-17.48-7-20.94-17.46-16.23-13.1-35.61-15.18-58.07-57,94.64-95.75,57.69,4.22,140.53,16.95,11.58-20,12.21-27.67,50.8-35.67-26.46-73.44-53.63-96-92.86C7.24,710.29,71.45,664.79,88.92,635.58c11.12-15,20.43-31.33,31.93-46.06S146.5,561.4,164,554.9c9.52-3.52,20.42-5.28,27.3-12.76,10.05-15.11,33.18-15.35,33.18-15.35a108.06,108.06,0,0,1-11.09,13.87c-1.75,1.76-10.92,6-11.08,9.71-.38,8.55,9.73,38.81,9.73,38.81s24.5,70.62,20.87,116.45C230.52,757.57,234.15,817.66,234.44,869.45Z"/><path class="cls-25" d="M210.35,655.08c4.68,22.4-27.69,29.32-32.58,7C173.08,639.65,205.46,632.73,210.35,655.08Z"/><path class="cls-26" d="M177.42,660.42c-4.09-17.92,22.46-23.6,26.07-5.57C207.57,672.76,181,678.45,177.42,660.42Z"/><polygon class="cls-26" points="183.77 632.97 185.75 630.79 189.47 643.68 186.21 644.38 183.77 632.97"/><path class="cls-22" d="M155.68,619.72l-24.92,55.47C143.16,653.72,155.51,652.38,155.68,619.72Z"/><path class="cls-27" d="M170.44,722.18c4.95,8.84,10.61,34.1,17.14,56.64,30.85,7.61,64.75,8,96.15,3,3.41-.8,5.85-1.38,5.63-5.56,5.62-23.57,25.29-52.69,30.91-66.56-12.14,0-23,1.43-35.17,1.41-12.09-.89-25.64-4.09-37.7-4.43-26.37,1.79-55.9,12.21-80.58-1C167.36,707,167.27,714.56,170.44,722.18Z"/><path class="cls-28" d="M189.85,549s-11.08,22.19-20.77,33.29L194,585,176,600.3l20.82,29.1s22.19,22.17,27.75,40.19l8.33,22.17s-1.41-38.82-19.47-97c-10.52-33.91-10.61-46.52-5.58-51.29a49.33,49.33,0,0,1,9.7-6.94l4.16-5.55S199.54,531,189.85,549Z"/><path class="cls-28" d="M304.13,547.65s10.88,22.28,20.48,33.46l-25,2.54,17.88,15.42L296.45,628s-22.38,22-28.09,39.94L259.83,690s1.75-38.8,20.31-96.86c10.81-33.82,11-46.43,6-51.24a49.49,49.49,0,0,0-9.64-7l-4.11-5.58S294.59,529.54,304.13,547.65Z"/><path d="M185.6,638.72a4,4,0,0,1-1.15-1.93l-.67-2.09c-.44-1.4-.85-2.8-1.25-4.2q-1.2-4.21-2.19-8.48a170.67,170.67,0,0,1-3.14-17.24c-1.45-11.57-1.75-23.48.8-35a53.73,53.73,0,0,1,6.46-16.5,41.2,41.2,0,0,1,12.3-12.84,37.53,37.53,0,0,1,8.1-3.86,81.93,81.93,0,0,1,8.49-2.42,135.77,135.77,0,0,1,17.33-2.73,169.71,169.71,0,0,1,35,.23,117.19,117.19,0,0,1,17.27,3.22,67.21,67.21,0,0,1,16.41,6.62,38.24,38.24,0,0,1,7.18,5.4,29.78,29.78,0,0,1,3,3.42l1.3,1.82,1.21,1.88a65.13,65.13,0,0,1,6.88,16.32,132.6,132.6,0,0,1,3.47,17.22,38.35,38.35,0,0,1,.44,9c-.13,1.49-.29,2.88-.36,4.29s-.09,2.83-.08,4.25v0a1.5,1.5,0,0,1-3,0h0c0-1.48,0-3,.12-4.44s.26-3,.4-4.38a36.15,36.15,0,0,0-.36-8.34,129.18,129.18,0,0,0-3.32-16.86,62.1,62.1,0,0,0-6.52-15.65l-1.13-1.78-1.22-1.72a26.89,26.89,0,0,0-2.73-3.11,35.58,35.58,0,0,0-6.67-5,64.12,64.12,0,0,0-15.73-6.38,116,116,0,0,0-16.88-3.2,168.06,168.06,0,0,0-34.45-.31,133.08,133.08,0,0,0-17,2.63,79,79,0,0,0-8.23,2.33,34.87,34.87,0,0,0-7.58,3.56,38.91,38.91,0,0,0-11.51,12.14,51.21,51.21,0,0,0-6.09,15.76,82.64,82.64,0,0,0-1.76,17,124.72,124.72,0,0,0,1.11,17.15,168.51,168.51,0,0,0,3.11,17q1,4.2,2.18,8.36c.39,1.38.8,2.76,1.23,4.13l.67,2a4.17,4.17,0,0,1,.25,2.18v0a1,1,0,0,1-1.18.81A1,1,0,0,1,185.6,638.72Z"/><path class="cls-29" d="M292.45,629.65l7.93,71.57s2.35,18.72,15.92,22.6"/><path class="cls-29" d="M338.72,639,304.4,704.71s-9.23,17.1-23.5,16.14"/><path class="cls-30" d="M292.45,634.32s0-38,28.9-28.93c-.07-.12,24.07-1.61,16.28,34.32"/><path class="cls-31" d="M276,719.09c-2.63-.38-7.08.13-6.72,3.63,2.37,4.4,10.87,3.33,14.41.71,1.36-1,.42-4.25-.92-4.7C280.6,718.67,278.19,719.39,276,719.09Z"/><path class="cls-31" d="M313,725.75c2.12,4,9.75,8.29,13.51,4.53,1.79-5.62-6.49-5.61-9.58-8.11C314.34,720.28,311.18,722.86,313,725.75Z"/><path class="cls-4" d="M189.85,544.84s-9.69,25-19.39,36l22.19,2-16.63,16,20.81,26.33s22.2,22.17,27.76,40.19l8.33,22.17s-1.41-38.81-19.47-97c-10.52-33.91-6.46-43.75-1.42-48.52a49.33,49.33,0,0,1,9.7-6.94l2.77-8.32S199.54,526.81,189.85,544.84Z"/><path class="cls-4" d="M304.17,543.49s9.47,25,19.07,36.22L301,581.49l16.49,16.19-21,26.15s-22.38,22-28.1,39.95l-8.52,22.1s1.75-38.8,20.31-96.86c10.81-33.82,2.56-38.7-1.6-44.24a78.14,78.14,0,0,1-6.94-11.09l-4.17-8.31S294.63,525.38,304.17,543.49Z"/><path class="cls-10" d="M280,544.78c9.71,12.47,5.23,19.28,4.18,30.49-15.12,1.21-76.25-4.11-76.25-4.11s-3.17-10.69-1.4-19.4c.52-2.57,2.65-6.4,4.11-8.83a9.44,9.44,0,0,1,4-3.7c.28-.13.39-.15.16,0,24.94-20.81,2.15-58.73,15.82-58,4.75-.24,29.47-.33,34.49-.19C263.63,502.72,265,527.59,280,544.78Z"/><path class="cls-20" d="M462,497.61a67.35,67.35,0,0,0,3.92-12.08c1-4.15,1.76-8.45,2.95-12.68a78.38,78.38,0,0,1,4.29-12.55,34.22,34.22,0,0,1,7.59-10.92.68.68,0,0,1,1,0l0,0a.7.7,0,0,1,0,.94,32.68,32.68,0,0,0-6.52,10.81,75.82,75.82,0,0,0-3.33,12.37c-.77,4.24-1.68,8.5-2.66,12.78A70.08,70.08,0,0,1,465.16,499a1.72,1.72,0,1,1-3.14-1.39Z"/><path class="cls-32" d="M469,500.91c-4.16,16.8-17.06-3.36-15.57,35.71"/><path class="cls-20" d="M471.17,514.54a17.94,17.94,0,0,0-3.54,5.35,12.89,12.89,0,0,0-1.15,6.21,5.18,5.18,0,0,0,1.07,2.77,4.25,4.25,0,0,0,2.51,1.5,12.44,12.44,0,0,0,6.28-.64h0a.52.52,0,0,1,.65.34.54.54,0,0,1-.34.66h0a14.37,14.37,0,0,1-6.82.64,5.48,5.48,0,0,1-3.1-1.83,6.3,6.3,0,0,1-1.39-3.33,14.48,14.48,0,0,1,1.15-6.75,25.29,25.29,0,0,1,3.41-6,.79.79,0,0,1,1.11-.14h0a.78.78,0,0,1,.14,1.09h0Z"/><path class="cls-20" d="M500.42,526.57l-10.63,10h0a.37.37,0,0,1-.52,0,.36.36,0,0,1,0-.51l10.42-10.26a.52.52,0,0,1,.74.07.54.54,0,0,1,0,.68h0Z"/><path class="cls-20" d="M489.38,514.22a26.71,26.71,0,0,1-4.35,6.47c-1.68,2-3.42,3.8-4.95,5.81a.33.33,0,0,1-.48.08.34.34,0,0,1-.09-.48h0C481,524,482.65,522,484.2,520a25.9,25.9,0,0,0,3.85-6.35.72.72,0,0,1,1.35.52Z"/><path class="cls-10" d="M459.87,497.29c4.82-1.48,12.25,1.93,7.94,7.38C465.41,502.45,457.68,501.66,459.87,497.29Z"/><path class="cls-17" d="M227.67,490.18c4.86,4.82,10.77,9.18,17.7,10.19s13.45-2,18.68-6.5c1.53-1.32-.69-3.51-2.2-2.2-4.63,4-10.41,6.69-16.64,5.55s-11.09-5-15.34-9.22a1.56,1.56,0,0,0-2.2,2.21h0Z"/><path class="cls-10" d="M144.43,852.06a6.31,6.31,0,0,1-1.6-.35l-.44-.14a4.26,4.26,0,0,1-1.37-.71,69.83,69.83,0,0,1-15.19-14.29,26.51,26.51,0,0,1-2.54-4.5,10.35,10.35,0,0,1-.3-5.65,5.63,5.63,0,0,1,4.4-3.33,7.77,7.77,0,0,1,6-12.81h.26a9.15,9.15,0,0,1,1.1-9.81,7.46,7.46,0,0,1,5.52-2.38,6.88,6.88,0,0,1,3,.66,4.89,4.89,0,0,1,0-1.87,7.41,7.41,0,0,1,1.79-3.54,7.17,7.17,0,0,1,3.1-2.24,9.8,9.8,0,0,1,3.14-.36h.48a11.26,11.26,0,0,1,3.24.36,12.61,12.61,0,0,1,4.36,2.68c5.63,4.66,16.7,14.53,18.31,18.55a7.75,7.75,0,0,1,.51,3.65l0,.23a5.53,5.53,0,0,1-1.25,2.84,13.64,13.64,0,0,1-3.24,3.51,6.09,6.09,0,0,1-3.4,1.13h-.34c.9,2.35-.23,5.26-2.05,6.88-2,1.79-4.65,2.53-7,3.14a9.94,9.94,0,0,1-1,6.59,7.2,7.2,0,0,1-6,3.78,1.53,1.53,0,0,0-.6.06,1.32,1.32,0,0,0-.31.52c-.21.51-.34.9-.45,1.25a6.68,6.68,0,0,1-1.19,2.31,12.87,12.87,0,0,1-2.66,2.51,4.49,4.49,0,0,0-.55.43,3,3,0,0,1-1.27.77,6.55,6.55,0,0,1-1,.07h-.37a5.54,5.54,0,0,0-.83.06Z"/><path class="cls-20" d="M151.77,791.23a11.09,11.09,0,0,1,3.1.33,12.4,12.4,0,0,1,4.18,2.59c6.82,5.65,16.73,14.77,18.16,18.35a7.44,7.44,0,0,1,.46,3.67,5,5,0,0,1-1.16,2.58,13.24,13.24,0,0,1-3.11,3.39,5.66,5.66,0,0,1-3.12,1A4,4,0,0,1,169,823c1.54,2.19.55,5.41-1.45,7.2s-4.71,2.49-7.31,3.14a9.66,9.66,0,0,1-.8,6.71,6.71,6.71,0,0,1-5.58,3.53,1.59,1.59,0,0,0-.85.13,1.47,1.47,0,0,0-.52.76c-.66,1.58-.54,2.09-1.58,3.45a12.59,12.59,0,0,1-2.48,2.36c-.46.23-1.17,1.08-1.68,1.16a6.41,6.41,0,0,1-.9.06h-.37a5.33,5.33,0,0,0-.9.07h-.15a9.73,9.73,0,0,1-1.93-.47,3.76,3.76,0,0,1-1.2-.64,69.69,69.69,0,0,1-15.09-14.19,27.1,27.1,0,0,1-2.46-4.36,9.82,9.82,0,0,1-.3-5.31c.74-2,2.82-2.89,4.94-3.17a7.27,7.27,0,0,1,5-12.64,6.27,6.27,0,0,1,1.14.1c-1.85-3.09-1.8-7.39.6-10.08a7,7,0,0,1,5.14-2.21,5.92,5.92,0,0,1,4.29,1.69.93.93,0,0,0,.14.14l-.14-.14a4,4,0,0,1-.84-3.32,7,7,0,0,1,1.68-3.29,6.76,6.76,0,0,1,2.87-2.1,9.38,9.38,0,0,1,3-.33h.48m0-1h-.48a10.32,10.32,0,0,0-3.3.38,7.67,7.67,0,0,0-3.32,2.4,8,8,0,0,0-1.91,3.77,5.89,5.89,0,0,0-.07,1.18,7.48,7.48,0,0,0-2.39-.38,7.94,7.94,0,0,0-5.89,2.55,9.54,9.54,0,0,0-1.48,9.65,8.26,8.26,0,0,0-6.38,13,5.76,5.76,0,0,0-4,3.45,10.63,10.63,0,0,0,.29,6,26.3,26.3,0,0,0,2.63,4.65,70,70,0,0,0,15.28,14.38,4.64,4.64,0,0,0,1.53.79l.42.12a6.3,6.3,0,0,0,1.76.38,1.36,1.36,0,0,0,.29,0,5.55,5.55,0,0,1,.76,0h.37a7.58,7.58,0,0,0,1-.07,3.35,3.35,0,0,0,1.53-.89,4.43,4.43,0,0,1,.44-.36,12.9,12.9,0,0,0,2.84-2.66A7.15,7.15,0,0,0,153,846c.12-.35.24-.72.44-1.2,0-.09.09-.22.13-.29h.32a7.73,7.73,0,0,0,6.45-4,10.3,10.3,0,0,0,1.08-6.46,15.89,15.89,0,0,0,6.83-3.14,7.28,7.28,0,0,0,2.4-6.75A6.7,6.7,0,0,0,174,823a13.93,13.93,0,0,0,3.37-3.63,6,6,0,0,0,1.34-3.11l0-.22a8.3,8.3,0,0,0-.55-3.87c-1.64-4.11-12.79-14.06-18.45-18.75a13.19,13.19,0,0,0-4.54-2.77,11.65,11.65,0,0,0-3.38-.38Z"/><path class="cls-20" d="M134.54,828.63c.31.06.41.31.61.46l.52.53,1.08,1c.73.68,1.46,1.34,2.21,2,1.51,1.3,3,2.55,4.61,3.78,3.13,2.46,6.32,4.83,9.44,7.36a1,1,0,0,1,.15,1.4,1,1,0,0,1-1.41.15l0,0h0l-8.91-8c-1.48-1.35-2.94-2.72-4.35-4.14-.71-.71-1.4-1.43-2.08-2.16l-1-1.12-.49-.56c-.14-.21-.38-.33-.41-.64a.09.09,0,0,1,.06-.08Z"/><path class="cls-20" d="M143.56,817.07c6.12,5.22,11.87,10.85,18.08,15.82a1,1,0,0,1,.16,1.41,1,1,0,0,1-1.41.15l0,0c-6-5.38-11.48-11.29-17.29-16.79a.38.38,0,0,1,0-.53A.4.4,0,0,1,143.56,817.07Z"/><path class="cls-20" d="M153.14,807.68c3,2.47,6,4.93,9,7.53q2.19,1.95,4.29,4c1.41,1.36,2.8,2.71,4.28,4a1,1,0,0,1-1.32,1.51l-.12-.12c-1.23-1.52-2.54-3-3.85-4.4s-2.67-2.81-4-4.17c-2.77-2.71-5.65-5.32-8.61-7.85a.33.33,0,0,1,.42-.5Z"/><path d="M500.93,165.57a7.82,7.82,0,0,1-2.52-6.26,7.52,7.52,0,0,1,2.46-6,9.9,9.9,0,0,1,6.58-2.24v-3.56h6.44v8h-2.68a10,10,0,0,0-4.48.82,3,3,0,0,0-1.6,2.94,2.85,2.85,0,0,0,.76,2.12,2.75,2.75,0,0,0,2,.76,2.89,2.89,0,0,0,3.08-3h6.44a8.34,8.34,0,0,1-1,4.38,7.67,7.67,0,0,1-3.34,3.12,11.77,11.77,0,0,1-5.4,1.14A10,10,0,0,1,500.93,165.57Zm6.16-21.3v-6.84h7.12v6.84Z"/><path d="M538.89,165l-3.68-5a16,16,0,0,1-3.08.32,14.3,14.3,0,0,1-7.22-1.86,13.72,13.72,0,0,1-5.16-5.18,15.63,15.63,0,0,1,0-14.94,13.74,13.74,0,0,1,5.16-5.16,15,15,0,0,1,14.48,0,13.55,13.55,0,0,1,5.14,5.16,14.84,14.84,0,0,1,1.88,7.46,15,15,0,0,1-1.5,6.72,13.64,13.64,0,0,1-4.14,5l6.32,7.48Zm-12.1-13.28a7.56,7.56,0,0,0,10.66,0,9.8,9.8,0,0,0,0-11.84,7.61,7.61,0,0,0-10.68,0,9.87,9.87,0,0,0,0,11.86Z"/><path d="M572.45,137.67V160h-6.88v-4a7.36,7.36,0,0,1-2.86,3.12,8.35,8.35,0,0,1-4.42,1.16,7.72,7.72,0,0,1-6.1-2.56,10.25,10.25,0,0,1-2.26-7v-13h6.8v12.12a5,5,0,0,0,1.18,3.54,4.16,4.16,0,0,0,3.18,1.26,4.21,4.21,0,0,0,3.28-1.32,5.39,5.39,0,0,0,1.2-3.76V137.67Z"/><path d="M598.17,150.07H582.69a5.18,5.18,0,0,0,1.28,3.62,4.14,4.14,0,0,0,3,1.1,4,4,0,0,0,2.52-.76,3.53,3.53,0,0,0,1.32-2H598a9.4,9.4,0,0,1-1.92,4.22,10.3,10.3,0,0,1-3.76,2.92,11.85,11.85,0,0,1-5.08,1.06,12,12,0,0,1-5.82-1.38,9.9,9.9,0,0,1-4-4,13.68,13.68,0,0,1,0-12.18,9.73,9.73,0,0,1,4-4,13.13,13.13,0,0,1,11.68,0,9.63,9.63,0,0,1,3.9,3.82,11.38,11.38,0,0,1,1.38,5.66A9.73,9.73,0,0,1,598.17,150.07Zm-7.9-6.18a4.35,4.35,0,0,0-3-1.1,4.48,4.48,0,0,0-3.12,1.12,4.7,4.7,0,0,0-1.4,3.28h8.72A4.1,4.1,0,0,0,590.27,143.89ZM593,132l-9.64,4.12v-4.64l9.64-4.64Z"/><path d="M630.93,150.07H615.45a5.18,5.18,0,0,0,1.28,3.62,4.14,4.14,0,0,0,3,1.1,4,4,0,0,0,2.52-.76,3.53,3.53,0,0,0,1.32-2h7.24a9.4,9.4,0,0,1-1.92,4.22,10.3,10.3,0,0,1-3.76,2.92,11.85,11.85,0,0,1-5.08,1.06,12,12,0,0,1-5.82-1.38,9.9,9.9,0,0,1-4-4,13.68,13.68,0,0,1,0-12.18,9.73,9.73,0,0,1,4-4,13.13,13.13,0,0,1,11.68,0,9.63,9.63,0,0,1,3.9,3.82,11.38,11.38,0,0,1,1.38,5.66A9.73,9.73,0,0,1,630.93,150.07Zm-7.9-6.18a4.35,4.35,0,0,0-3-1.1,4.48,4.48,0,0,0-3.12,1.12,4.7,4.7,0,0,0-1.4,3.28h8.72A4.1,4.1,0,0,0,623,143.89Z"/><path d="M649.59,139.51a9.23,9.23,0,0,1,3.18,5.6h-6.4a3.57,3.57,0,0,0-1.26-2.14,3.81,3.81,0,0,0-2.46-.78,2.71,2.71,0,0,0-1.76.5,1.74,1.74,0,0,0-.6,1.42,1.68,1.68,0,0,0,1.1,1.56,17.54,17.54,0,0,0,3.46,1,34.6,34.6,0,0,1,4.2,1.22,7,7,0,0,1,2.84,2,5.58,5.58,0,0,1,1.2,3.76,5.8,5.8,0,0,1-1,3.4,6.79,6.79,0,0,1-3,2.32,11.72,11.72,0,0,1-4.64.84,12,12,0,0,1-7.24-2,8.44,8.44,0,0,1-3.32-5.72h6.6a3,3,0,0,0,1.22,2.2,4.58,4.58,0,0,0,2.74.76,2.56,2.56,0,0,0,1.76-.54,1.81,1.81,0,0,0,.6-1.42,1.71,1.71,0,0,0-1.1-1.66,20.22,20.22,0,0,0-3.58-1.06,29.34,29.34,0,0,1-4.08-1.12,6.72,6.72,0,0,1-2.76-1.94,5.41,5.41,0,0,1-1.16-3.66,6,6,0,0,1,2.28-4.86,9.94,9.94,0,0,1,6.44-1.86A10.25,10.25,0,0,1,649.59,139.51Z"/><path d="M671.73,130.39V160h-6.84v-29.6Z"/><path d="M689.33,138.55a7,7,0,0,1,2.72,3.16v-4h6.8V160h-6.8v-4a7,7,0,0,1-2.72,3.16,8.13,8.13,0,0,1-4.4,1.16,9,9,0,0,1-4.94-1.38,9.48,9.48,0,0,1-3.44-4,15.35,15.35,0,0,1,0-12.18,9.49,9.49,0,0,1,3.44-4,9,9,0,0,1,4.94-1.38A8.13,8.13,0,0,1,689.33,138.55Zm-5.74,6.28a6.64,6.64,0,0,0,0,8,5,5,0,0,0,7.08,0,6.4,6.4,0,0,0,0-7.94,4.67,4.67,0,0,0-3.54-1.46A4.6,4.6,0,0,0,683.59,144.83Z"/><path d="M729.09,154.83h-10.6L716.73,160h-7.2l10.36-28.08h7.88L738.13,160h-7.28Zm-1.76-5.2-3.52-10.4-3.56,10.4Z"/><path d="M755.67,139.51a9.23,9.23,0,0,1,3.18,5.6h-6.4a3.57,3.57,0,0,0-1.26-2.14,3.81,3.81,0,0,0-2.46-.78,2.71,2.71,0,0,0-1.76.5,1.74,1.74,0,0,0-.6,1.42,1.68,1.68,0,0,0,1.1,1.56,17.54,17.54,0,0,0,3.46,1,34.6,34.6,0,0,1,4.2,1.22,7,7,0,0,1,2.84,2,5.58,5.58,0,0,1,1.2,3.76,5.8,5.8,0,0,1-1,3.4,6.79,6.79,0,0,1-3,2.32,11.72,11.72,0,0,1-4.64.84,12,12,0,0,1-7.24-2,8.44,8.44,0,0,1-3.32-5.72h6.6a3,3,0,0,0,1.22,2.2,4.58,4.58,0,0,0,2.74.76,2.56,2.56,0,0,0,1.76-.54,1.81,1.81,0,0,0,.6-1.42,1.71,1.71,0,0,0-1.1-1.66,20.22,20.22,0,0,0-3.58-1.06,29.34,29.34,0,0,1-4.08-1.12,6.72,6.72,0,0,1-2.76-1.94,5.41,5.41,0,0,1-1.16-3.66,6,6,0,0,1,2.28-4.86,9.94,9.94,0,0,1,6.44-1.86A10.25,10.25,0,0,1,755.67,139.51Z"/><path d="M781.83,138.77a9.49,9.49,0,0,1,3.44,4,15.35,15.35,0,0,1,0,12.18,9.48,9.48,0,0,1-3.44,4,9,9,0,0,1-4.94,1.38,8.11,8.11,0,0,1-4.4-1.16,6.72,6.72,0,0,1-2.68-3.16v14.68H763v-33h6.84v4a6.72,6.72,0,0,1,2.68-3.16,8.11,8.11,0,0,1,4.4-1.16A9,9,0,0,1,781.83,138.77Zm-10.68,6.08a6.4,6.4,0,0,0,0,7.94,5,5,0,0,0,7.08,0,6.64,6.64,0,0,0,0-8,4.6,4.6,0,0,0-3.54-1.44A4.67,4.67,0,0,0,771.15,144.85Z"/><path d="M811.09,150.07H795.61a5.18,5.18,0,0,0,1.28,3.62,4.14,4.14,0,0,0,3,1.1,4,4,0,0,0,2.52-.76,3.53,3.53,0,0,0,1.32-2h7.24a9.4,9.4,0,0,1-1.92,4.22,10.3,10.3,0,0,1-3.76,2.92,11.85,11.85,0,0,1-5.08,1.06,12,12,0,0,1-5.82-1.38,9.9,9.9,0,0,1-4-4,13.68,13.68,0,0,1,0-12.18,9.73,9.73,0,0,1,4-4,13.13,13.13,0,0,1,11.68,0,9.63,9.63,0,0,1,3.9,3.82,11.38,11.38,0,0,1,1.38,5.66A9.73,9.73,0,0,1,811.09,150.07Zm-7.9-6.18a4.35,4.35,0,0,0-3-1.1,4.48,4.48,0,0,0-3.12,1.12,4.7,4.7,0,0,0-1.4,3.28h8.72A4.1,4.1,0,0,0,803.19,143.89Z"/><path d="M825,138.63a8.44,8.44,0,0,1,4.38-1.2v7.32h-2a6.79,6.79,0,0,0-4.22,1.16,4.66,4.66,0,0,0-1.5,3.92V160h-6.84V137.67h6.84v4.2A9.65,9.65,0,0,1,825,138.63Z"/><path d="M845.13,138.55a7,7,0,0,1,2.72,3.16v-4h6.8v22.2a12.83,12.83,0,0,1-1.2,5.62,9.22,9.22,0,0,1-3.68,4,11.81,11.81,0,0,1-6.16,1.48,12.64,12.64,0,0,1-8.06-2.38,9.7,9.7,0,0,1-3.62-6.46h6.76a3.38,3.38,0,0,0,1.46,2.12,5.25,5.25,0,0,0,3,.76,4.82,4.82,0,0,0,3.42-1.22,5.11,5.11,0,0,0,1.3-3.9V156a7,7,0,0,1-2.72,3.16,8.13,8.13,0,0,1-4.4,1.16,9,9,0,0,1-4.94-1.38,9.42,9.42,0,0,1-3.44-4,15.35,15.35,0,0,1,0-12.18,9.42,9.42,0,0,1,3.44-4,9,9,0,0,1,4.94-1.38A8.13,8.13,0,0,1,845.13,138.55Zm-5.74,6.28a6.64,6.64,0,0,0,0,8,5,5,0,0,0,7.08,0,6.4,6.4,0,0,0,0-7.94,4.67,4.67,0,0,0-3.54-1.46A4.6,4.6,0,0,0,839.39,144.83Z"/><path d="M859.85,128.81a4.8,4.8,0,0,1,5.92,0,3.36,3.36,0,0,1,1.12,2.58,3.32,3.32,0,0,1-1.12,2.54,4.8,4.8,0,0,1-5.92,0,3.29,3.29,0,0,1-1.12-2.54A3.33,3.33,0,0,1,859.85,128.81Zm6.36,8.86V160h-6.84V137.67Z"/><path d="M877.77,130.39V160h-6.84v-29.6Z"/><path d="M898.87,138.77a10.18,10.18,0,0,1,4.12,4,13.07,13.07,0,0,1,0,12.16,10.18,10.18,0,0,1-4.12,4,13.52,13.52,0,0,1-11.9,0,10.11,10.11,0,0,1-4.14-4,13.07,13.07,0,0,1,0-12.16,10.11,10.11,0,0,1,4.14-4,13.52,13.52,0,0,1,11.9,0Zm-9.24,6a5.72,5.72,0,0,0-1.34,4.1,5.64,5.64,0,0,0,1.34,4.08,4.57,4.57,0,0,0,6.58,0,5.72,5.72,0,0,0,1.32-4.08,5.81,5.81,0,0,0-1.32-4.1,4.52,4.52,0,0,0-6.58,0Z"/><path d="M923,139.51a9.23,9.23,0,0,1,3.18,5.6h-6.4a3.57,3.57,0,0,0-1.26-2.14,3.85,3.85,0,0,0-2.46-.78,2.7,2.7,0,0,0-1.76.5,1.74,1.74,0,0,0-.6,1.42,1.66,1.66,0,0,0,1.1,1.56,17.32,17.32,0,0,0,3.46,1,35.71,35.71,0,0,1,4.2,1.22,7,7,0,0,1,2.84,2,5.58,5.58,0,0,1,1.2,3.76,5.8,5.8,0,0,1-1,3.4,6.9,6.9,0,0,1-3,2.32,11.76,11.76,0,0,1-4.64.84,12,12,0,0,1-7.24-2,8.41,8.41,0,0,1-3.32-5.72h6.6a3,3,0,0,0,1.22,2.2,4.56,4.56,0,0,0,2.74.76,2.56,2.56,0,0,0,1.76-.54,1.81,1.81,0,0,0,.6-1.42,1.71,1.71,0,0,0-1.1-1.66,20.5,20.5,0,0,0-3.58-1.06,28.57,28.57,0,0,1-4.08-1.12,6.72,6.72,0,0,1-2.76-1.94,5.36,5.36,0,0,1-1.16-3.66,6,6,0,0,1,2.28-4.86,9.92,9.92,0,0,1,6.44-1.86A10.28,10.28,0,0,1,923,139.51Z"/><path d="M930.73,128.81a4.8,4.8,0,0,1,5.92,0,3.36,3.36,0,0,1,1.12,2.58,3.32,3.32,0,0,1-1.12,2.54,4.8,4.8,0,0,1-5.92,0,3.29,3.29,0,0,1-1.12-2.54A3.33,3.33,0,0,1,930.73,128.81Zm6.36,8.86V160h-6.84V137.67Z"/><path d="M956.71,139.51a9.23,9.23,0,0,1,3.18,5.6h-6.4a3.57,3.57,0,0,0-1.26-2.14,3.85,3.85,0,0,0-2.46-.78,2.7,2.7,0,0,0-1.76.5,1.74,1.74,0,0,0-.6,1.42,1.66,1.66,0,0,0,1.1,1.56,17.32,17.32,0,0,0,3.46,1,35.71,35.71,0,0,1,4.2,1.22,7,7,0,0,1,2.84,2,5.58,5.58,0,0,1,1.2,3.76,5.8,5.8,0,0,1-1,3.4,6.9,6.9,0,0,1-3,2.32,11.76,11.76,0,0,1-4.64.84,12,12,0,0,1-7.24-2,8.41,8.41,0,0,1-3.32-5.72h6.6a3,3,0,0,0,1.22,2.2,4.56,4.56,0,0,0,2.74.76,2.56,2.56,0,0,0,1.76-.54,1.81,1.81,0,0,0,.6-1.42,1.71,1.71,0,0,0-1.1-1.66,20.5,20.5,0,0,0-3.58-1.06,28.57,28.57,0,0,1-4.08-1.12,6.72,6.72,0,0,1-2.76-1.94,5.36,5.36,0,0,1-1.16-3.66,6,6,0,0,1,2.28-4.86,9.92,9.92,0,0,1,6.44-1.86A10.28,10.28,0,0,1,956.71,139.51Z"/><path d="M979.09,131.85a7.82,7.82,0,0,1,2.52,6.26,7.52,7.52,0,0,1-2.46,6,9.92,9.92,0,0,1-6.58,2.24v3.56h-6.44v-8h2.68a10,10,0,0,0,4.48-.82,3,3,0,0,0,1.6-2.94,2.89,2.89,0,0,0-.76-2.12,2.75,2.75,0,0,0-2-.76,3,3,0,0,0-2.26.86,3,3,0,0,0-.82,2.18h-6.44a8.16,8.16,0,0,1,1-4.38,7.62,7.62,0,0,1,3.34-3.12,11.77,11.77,0,0,1,5.4-1.14A10,10,0,0,1,979.09,131.85Zm-6.16,21.3V160h-7.12v-6.84Z"/><path d="M526.91,199.32v3.85h4.29v1.12h-4.29v3.94h4.77v1.18h-6.23V198.13h6.23v1.19Z"/><path d="M538.69,201.29a3.25,3.25,0,0,1,1.1,2.09H538.4a2.06,2.06,0,0,0-.65-1.29,2.14,2.14,0,0,0-1.48-.5,1.82,1.82,0,0,0-1.22.37,1.25,1.25,0,0,0-.44,1,1,1,0,0,0,.29.78,2,2,0,0,0,.74.44,12.49,12.49,0,0,0,1.21.33,11.05,11.05,0,0,1,1.57.46,2.49,2.49,0,0,1,1,.74,2.11,2.11,0,0,1,.42,1.38,2.16,2.16,0,0,1-.81,1.74,3.24,3.24,0,0,1-2.15.67,4.12,4.12,0,0,1-2.56-.75,3,3,0,0,1-1.17-2.09h1.41a1.82,1.82,0,0,0,.7,1.29,2.51,2.51,0,0,0,1.62.5,1.7,1.7,0,0,0,1.18-.39,1.28,1.28,0,0,0,.42-1,1.1,1.1,0,0,0-.3-.82,2,2,0,0,0-.76-.46,10.34,10.34,0,0,0-1.23-.34,12,12,0,0,1-1.56-.45,2.42,2.42,0,0,1-1-.71,2,2,0,0,1-.41-1.32,2.18,2.18,0,0,1,.82-1.78,3.31,3.31,0,0,1,2.22-.68A3.52,3.52,0,0,1,538.69,201.29Z"/><path d="M561.46,200.63v8.78H560v-2.06a3,3,0,0,1-1.19,1.64,3.53,3.53,0,0,1-2,.57,3.25,3.25,0,0,1-2.46-1,3.91,3.91,0,0,1-.94-2.82v-5.12h1.45v5a2.89,2.89,0,0,0,.67,2,2.42,2.42,0,0,0,1.83.71,2.49,2.49,0,0,0,1.92-.78,3.19,3.19,0,0,0,.72-2.26v-4.67Z"/><path d="M570.9,201.47a3.93,3.93,0,0,1,1,2.84v5.1h-1.46v-5a2.8,2.8,0,0,0-.67-2,2.4,2.4,0,0,0-1.82-.7,2.48,2.48,0,0,0-1.92.77,3.22,3.22,0,0,0-.72,2.27v4.65H563.8v-8.78h1.46v2.08a3,3,0,0,1,1.19-1.65,3.48,3.48,0,0,1,2-.58A3.26,3.26,0,0,1,570.9,201.47Z"/><path d="M579.86,201.16a3.32,3.32,0,0,1,1.24,1.71v-2.24h1.45v8.78H581.1v-2.24a3.32,3.32,0,0,1-1.24,1.71,3.62,3.62,0,0,1-2.17.64,4,4,0,0,1-2.08-.54,3.67,3.67,0,0,1-1.43-1.56,5.78,5.78,0,0,1,0-4.79,3.64,3.64,0,0,1,1.43-1.57,4,4,0,0,1,2.08-.54A3.62,3.62,0,0,1,579.86,201.16ZM576,202.67a3.84,3.84,0,0,0,0,4.72,2.82,2.82,0,0,0,2.15.85,3,3,0,0,0,1.55-.4,2.73,2.73,0,0,0,1.06-1.12,3.54,3.54,0,0,0,.39-1.69,3.58,3.58,0,0,0-.39-1.7,2.7,2.7,0,0,0-1.06-1.13,3.08,3.08,0,0,0-1.55-.39A2.83,2.83,0,0,0,576,202.67Z"/><path d="M604.72,205.33h-7a3.12,3.12,0,0,0,.85,2.26,2.81,2.81,0,0,0,2,.75,2.87,2.87,0,0,0,1.77-.54,2.22,2.22,0,0,0,.87-1.43h1.55A3.57,3.57,0,0,1,604,208a3.62,3.62,0,0,1-1.43,1.12,4.72,4.72,0,0,1-2,.4,4.56,4.56,0,0,1-2.24-.54,3.75,3.75,0,0,1-1.52-1.56,5.4,5.4,0,0,1,0-4.79,3.72,3.72,0,0,1,1.52-1.57,4.56,4.56,0,0,1,2.24-.54,4.48,4.48,0,0,1,2.24.54,3.7,3.7,0,0,1,1.45,1.46,4,4,0,0,1,.51,2A4.49,4.49,0,0,1,604.72,205.33ZM603,203a2.31,2.31,0,0,0-1-1,3.13,3.13,0,0,0-1.4-.32,2.88,2.88,0,0,0-2,.74,3,3,0,0,0-.88,2.19h5.61A2.86,2.86,0,0,0,603,203Z"/><path d="M613.79,201.47a3.93,3.93,0,0,1,1,2.84v5.1h-1.46v-5a2.8,2.8,0,0,0-.67-2,2.4,2.4,0,0,0-1.82-.7,2.48,2.48,0,0,0-1.92.77,3.22,3.22,0,0,0-.72,2.27v4.65h-1.46v-8.78h1.46v2.08a3,3,0,0,1,1.19-1.65,3.48,3.48,0,0,1,2-.58A3.26,3.26,0,0,1,613.79,201.47Z"/><path d="M619.24,199a1.88,1.88,0,0,0-.45,1.44v.24h2.08v1.28h-2.08v7.5h-1.46v-7.5h-1.26v-1.28h1.26v-.35q0-3.17,3.54-3v1.28A2.39,2.39,0,0,0,619.24,199Z"/><path d="M630.46,205.33h-7a3.08,3.08,0,0,0,.86,2.26,2.78,2.78,0,0,0,2,.75,2.83,2.83,0,0,0,1.77-.54,2.14,2.14,0,0,0,.87-1.43h1.55a3.57,3.57,0,0,1-.71,1.63,3.62,3.62,0,0,1-1.43,1.12,4.7,4.7,0,0,1-2,.4,4.53,4.53,0,0,1-2.24-.54,3.83,3.83,0,0,1-1.53-1.56,5.49,5.49,0,0,1,0-4.79,3.8,3.8,0,0,1,1.53-1.57,4.53,4.53,0,0,1,2.24-.54,4.46,4.46,0,0,1,2.23.54,3.79,3.79,0,0,1,1.46,1.46,4.13,4.13,0,0,1,.5,2A3.72,3.72,0,0,1,630.46,205.33ZM628.74,203a2.33,2.33,0,0,0-1-1,3.12,3.12,0,0,0-1.39-.32,2.93,2.93,0,0,0-2,.74,3,3,0,0,0-.88,2.19h5.62A3,3,0,0,0,628.74,203Z"/><path d="M635.15,201a3.75,3.75,0,0,1,2-.51v1.59h-.45a3.15,3.15,0,0,0-2,.63,2.54,2.54,0,0,0-.78,2.09v4.62h-1.46v-8.78h1.46v1.77A3.26,3.26,0,0,1,635.15,201Z"/><path d="M651.85,201.47a4,4,0,0,1,.94,2.84v5.1h-1.46v-5a2.85,2.85,0,0,0-.63-2,2.24,2.24,0,0,0-1.74-.69,2.42,2.42,0,0,0-1.85.76,3.23,3.23,0,0,0-.69,2.24v4.65H645v-5a2.8,2.8,0,0,0-.64-2,2.24,2.24,0,0,0-1.73-.69,2.41,2.41,0,0,0-1.86.76,3.23,3.23,0,0,0-.7,2.24v4.65h-1.45v-8.78H640v2a2.84,2.84,0,0,1,1.15-1.59,3.31,3.31,0,0,1,1.89-.56,3.34,3.34,0,0,1,1.95.57,3.08,3.08,0,0,1,1.17,1.67,3.23,3.23,0,0,1,1.23-1.65,3.43,3.43,0,0,1,2-.59A3.24,3.24,0,0,1,651.85,201.47Z"/><path d="M663.06,205.33h-7a3.12,3.12,0,0,0,.86,2.26,3.06,3.06,0,0,0,3.74.21,2.14,2.14,0,0,0,.87-1.43h1.56a3.7,3.7,0,0,1-.72,1.63,3.55,3.55,0,0,1-1.43,1.12,4.64,4.64,0,0,1-2,.4,4.56,4.56,0,0,1-2.24-.54,3.83,3.83,0,0,1-1.53-1.56,5.49,5.49,0,0,1,0-4.79,3.8,3.8,0,0,1,1.53-1.57,4.56,4.56,0,0,1,2.24-.54,4.44,4.44,0,0,1,2.23.54,3.73,3.73,0,0,1,1.46,1.46,4.13,4.13,0,0,1,.5,2A4.58,4.58,0,0,1,663.06,205.33ZM661.33,203a2.33,2.33,0,0,0-1-1,3.12,3.12,0,0,0-1.39-.32,2.93,2.93,0,0,0-2,.74,3.07,3.07,0,0,0-.88,2.19h5.62A3,3,0,0,0,661.33,203Z"/><path d="M670.79,201.16a3.22,3.22,0,0,1,1.24,1.71v-5.3h1.46v11.84H672v-2.24a3.22,3.22,0,0,1-1.24,1.71,3.58,3.58,0,0,1-2.17.64,4,4,0,0,1-2.07-.54,3.76,3.76,0,0,1-1.44-1.56,5.78,5.78,0,0,1,0-4.79,3.72,3.72,0,0,1,1.44-1.57,4,4,0,0,1,2.07-.54A3.58,3.58,0,0,1,670.79,201.16Zm-3.9,1.51a3.84,3.84,0,0,0,0,4.72,2.82,2.82,0,0,0,2.15.85,2.92,2.92,0,0,0,1.54-.4,2.75,2.75,0,0,0,1.07-1.12A3.54,3.54,0,0,0,672,205a3.58,3.58,0,0,0-.38-1.7,2.72,2.72,0,0,0-1.07-1.13,3,3,0,0,0-1.54-.39A2.83,2.83,0,0,0,666.89,202.67Z"/><path d="M681.58,201.16a3.32,3.32,0,0,1,1.24,1.71v-2.24h1.45v8.78h-1.45v-2.24a3.32,3.32,0,0,1-1.24,1.71,3.6,3.6,0,0,1-2.17.64,4,4,0,0,1-2.08-.54,3.67,3.67,0,0,1-1.43-1.56,5.78,5.78,0,0,1,0-4.79,3.64,3.64,0,0,1,1.43-1.57,4,4,0,0,1,2.08-.54A3.6,3.6,0,0,1,681.58,201.16Zm-3.91,1.51a3.88,3.88,0,0,0,0,4.72,2.83,2.83,0,0,0,2.16.85,3,3,0,0,0,1.54-.4,2.73,2.73,0,0,0,1.06-1.12,3.54,3.54,0,0,0,.39-1.69,3.58,3.58,0,0,0-.39-1.7,2.7,2.7,0,0,0-1.06-1.13,3,3,0,0,0-1.54-.39A2.84,2.84,0,0,0,677.67,202.67Z"/><path d="M692.36,201.16a3.27,3.27,0,0,1,1.24,1.71v-5.3h1.46v11.84H693.6v-2.24a3.27,3.27,0,0,1-1.24,1.71,3.58,3.58,0,0,1-2.17.64,4,4,0,0,1-2.08-.54,3.8,3.8,0,0,1-1.43-1.56,5.78,5.78,0,0,1,0-4.79,3.77,3.77,0,0,1,1.43-1.57,4,4,0,0,1,2.08-.54A3.58,3.58,0,0,1,692.36,201.16Zm-3.9,1.51a3.84,3.84,0,0,0,0,4.72,2.81,2.81,0,0,0,2.15.85,2.92,2.92,0,0,0,1.54-.4,2.75,2.75,0,0,0,1.07-1.12,3.66,3.66,0,0,0,.38-1.69,3.7,3.7,0,0,0-.38-1.7,2.72,2.72,0,0,0-1.07-1.13,3,3,0,0,0-1.54-.39A2.82,2.82,0,0,0,688.46,202.67Z"/><path d="M722.48,201.47a3.93,3.93,0,0,1,.94,2.84v5.1H722v-5a2.85,2.85,0,0,0-.63-2,2.24,2.24,0,0,0-1.74-.69,2.4,2.4,0,0,0-1.84.76,3.18,3.18,0,0,0-.7,2.24v4.65h-1.46v-5a2.85,2.85,0,0,0-.63-2,2.26,2.26,0,0,0-1.73-.69,2.45,2.45,0,0,0-1.87.76,3.23,3.23,0,0,0-.69,2.24v4.65h-1.46v-8.78h1.46v2a2.78,2.78,0,0,1,1.14-1.59,3.54,3.54,0,0,1,3.84,0,1.27,1.27,0,1,0,2.41,0,3.4,3.4,0,0,1,2-.59A3.22,3.22,0,0,1,722.48,201.47Z"/><path d="M725.69,197.4a1.2,1.2,0,0,1,1.44,0,.92.92,0,0,1,0,1.3,1.16,1.16,0,0,1-1.44,0,.92.92,0,0,1,0-1.3Zm1.44,3.23v8.78h-1.46v-8.78Z"/><path d="M736.14,201.41a3.79,3.79,0,0,1,1.36,2.4H736a2.2,2.2,0,0,0-.87-1.48,2.82,2.82,0,0,0-1.77-.53,2.77,2.77,0,0,0-1.4.35,2.47,2.47,0,0,0-1,1.08,3.75,3.75,0,0,0-.39,1.8,3.8,3.8,0,0,0,.39,1.8,2.58,2.58,0,0,0,1,1.08,2.88,2.88,0,0,0,1.4.35,2.83,2.83,0,0,0,1.77-.54,2.25,2.25,0,0,0,.87-1.49h1.54a3.79,3.79,0,0,1-1.36,2.41,4.33,4.33,0,0,1-2.79.88,4.52,4.52,0,0,1-2.23-.54,3.77,3.77,0,0,1-1.53-1.56,5.49,5.49,0,0,1,0-4.79,3.74,3.74,0,0,1,1.53-1.57,4.52,4.52,0,0,1,2.23-.54A4.28,4.28,0,0,1,736.14,201.41Z"/><path d="M745.65,201.06a3.83,3.83,0,0,1,1.57,1.57,5.32,5.32,0,0,1,0,4.79,3.87,3.87,0,0,1-1.57,1.56,5,5,0,0,1-4.53,0,3.93,3.93,0,0,1-1.57-1.56,5.23,5.23,0,0,1,0-4.79,3.89,3.89,0,0,1,1.57-1.57,5,5,0,0,1,4.53,0Zm-3.71,1.09a2.59,2.59,0,0,0-1.07,1.08,4.11,4.11,0,0,0,0,3.58,2.59,2.59,0,0,0,1.07,1.08,3.16,3.16,0,0,0,2.89,0,2.61,2.61,0,0,0,1.08-1.08,4.21,4.21,0,0,0,0-3.58,2.61,2.61,0,0,0-1.08-1.08,3.16,3.16,0,0,0-2.89,0Zm4.07-4.08-3.41,1.87v-1l3.41-2Z"/><path d="M753.88,208.13v1.28h-1.09a2.76,2.76,0,0,1-2-.64,2.86,2.86,0,0,1-.67-2.14v-4.74h-1.31v-1.26h1.31v-2.19h1.47v2.19h2.28v1.26h-2.28v4.77a1.64,1.64,0,0,0,.32,1.16,1.47,1.47,0,0,0,1.08.31Z"/><path d="M755.67,197.4a1.08,1.08,0,0,1,.72-.24,1,1,0,0,1,.72.24.89.89,0,0,1,0,1.3,1,1,0,0,1-.72.25,1.09,1.09,0,0,1-.72-.25.92.92,0,0,1,0-1.3Zm1.44,3.23v8.78h-1.45v-8.78Z"/><path d="M766.12,201.41a3.79,3.79,0,0,1,1.36,2.4H766a2.25,2.25,0,0,0-.88-1.48,2.81,2.81,0,0,0-1.76-.53,2.75,2.75,0,0,0-1.4.35,2.49,2.49,0,0,0-1,1.08,3.75,3.75,0,0,0-.38,1.8,3.8,3.8,0,0,0,.38,1.8,2.6,2.6,0,0,0,1,1.08,2.85,2.85,0,0,0,1.4.35,2.82,2.82,0,0,0,1.76-.54,2.3,2.3,0,0,0,.88-1.49h1.53a3.79,3.79,0,0,1-1.36,2.41,4.28,4.28,0,0,1-2.78.88,4.56,4.56,0,0,1-2.24-.54,3.83,3.83,0,0,1-1.53-1.56,5.49,5.49,0,0,1,0-4.79,3.8,3.8,0,0,1,1.53-1.57,4.56,4.56,0,0,1,2.24-.54A4.23,4.23,0,0,1,766.12,201.41Z"/><path d="M775.15,201.16a3.22,3.22,0,0,1,1.24,1.71v-2.24h1.46v8.78h-1.46v-2.24a3.22,3.22,0,0,1-1.24,1.71,3.57,3.57,0,0,1-2.16.64,4,4,0,0,1-2.08-.54,3.76,3.76,0,0,1-1.44-1.56,5.78,5.78,0,0,1,0-4.79,3.72,3.72,0,0,1,1.44-1.57,4,4,0,0,1,2.08-.54A3.57,3.57,0,0,1,775.15,201.16Zm-3.9,1.51a3.84,3.84,0,0,0,0,4.72,2.82,2.82,0,0,0,2.15.85,3,3,0,0,0,1.55-.4,2.79,2.79,0,0,0,1.06-1.12,3.54,3.54,0,0,0,.38-1.69,3.58,3.58,0,0,0-.38-1.7A2.76,2.76,0,0,0,775,202.2a3.08,3.08,0,0,0-1.55-.39A2.83,2.83,0,0,0,771.25,202.67Z"/><path d="M797.77,201.16a3.27,3.27,0,0,1,1.24,1.71v-2.24h1.46v8.78H799v-2.24a3.27,3.27,0,0,1-1.24,1.71,3.58,3.58,0,0,1-2.17.64,4,4,0,0,1-2.08-.54,3.8,3.8,0,0,1-1.43-1.56,5.78,5.78,0,0,1,0-4.79,3.77,3.77,0,0,1,1.43-1.57,4,4,0,0,1,2.08-.54A3.58,3.58,0,0,1,797.77,201.16Zm-3.9,1.51a3.84,3.84,0,0,0,0,4.72,2.81,2.81,0,0,0,2.15.85,2.92,2.92,0,0,0,1.54-.4,2.75,2.75,0,0,0,1.07-1.12A3.66,3.66,0,0,0,799,205a3.7,3.7,0,0,0-.38-1.7,2.72,2.72,0,0,0-1.07-1.13,3,3,0,0,0-1.54-.39A2.82,2.82,0,0,0,793.87,202.67Z"/><path d="M808.56,201.16a3.32,3.32,0,0,1,1.24,1.71v-2.24h1.45v8.93a4.48,4.48,0,0,1-.51,2.16,3.7,3.7,0,0,1-1.44,1.47,4.32,4.32,0,0,1-2.16.53,4.67,4.67,0,0,1-2.9-.86,3.79,3.79,0,0,1-1.42-2.31h1.44a2.46,2.46,0,0,0,1,1.38,3,3,0,0,0,1.83.51,2.72,2.72,0,0,0,2-.76,2.84,2.84,0,0,0,.78-2.12v-2.39a3.32,3.32,0,0,1-1.24,1.71,3.62,3.62,0,0,1-2.17.64,4,4,0,0,1-2.08-.54,3.67,3.67,0,0,1-1.43-1.56,5.78,5.78,0,0,1,0-4.79,3.64,3.64,0,0,1,1.43-1.57,4,4,0,0,1,2.08-.54A3.62,3.62,0,0,1,808.56,201.16Zm-3.91,1.51a3.84,3.84,0,0,0,0,4.72,2.82,2.82,0,0,0,2.15.85,3,3,0,0,0,1.55-.4,2.73,2.73,0,0,0,1.06-1.12,3.54,3.54,0,0,0,.39-1.69,3.58,3.58,0,0,0-.39-1.7,2.7,2.7,0,0,0-1.06-1.13,3.08,3.08,0,0,0-1.55-.39A2.83,2.83,0,0,0,804.65,202.67Z"/><path d="M816.29,201a3.75,3.75,0,0,1,2-.51v1.59h-.45a3.13,3.13,0,0,0-2,.63,2.54,2.54,0,0,0-.78,2.09v4.62h-1.46v-8.78H815v1.77A3.26,3.26,0,0,1,816.29,201Z"/><path d="M827.73,205.33h-7a3.12,3.12,0,0,0,.85,2.26,2.81,2.81,0,0,0,2,.75,2.87,2.87,0,0,0,1.77-.54,2.22,2.22,0,0,0,.87-1.43h1.55a3.66,3.66,0,0,1-2.14,2.75,4.72,4.72,0,0,1-2,.4,4.56,4.56,0,0,1-2.24-.54,3.75,3.75,0,0,1-1.52-1.56,5.4,5.4,0,0,1,0-4.79,3.72,3.72,0,0,1,1.52-1.57,4.56,4.56,0,0,1,2.24-.54,4.48,4.48,0,0,1,2.24.54,3.7,3.7,0,0,1,1.45,1.46,4,4,0,0,1,.51,2A4.49,4.49,0,0,1,827.73,205.33ZM826,203a2.31,2.31,0,0,0-1-1,3.13,3.13,0,0,0-1.4-.32,2.88,2.88,0,0,0-2,.74,3,3,0,0,0-.88,2.19h5.61A2.86,2.86,0,0,0,826,203Z"/><path d="M834.84,201.29a3.25,3.25,0,0,1,1.1,2.09h-1.39a2.06,2.06,0,0,0-.65-1.29,2.14,2.14,0,0,0-1.48-.5,1.82,1.82,0,0,0-1.22.37,1.25,1.25,0,0,0-.44,1,1,1,0,0,0,.29.78,2,2,0,0,0,.74.44,12.49,12.49,0,0,0,1.21.33,11.05,11.05,0,0,1,1.57.46,2.49,2.49,0,0,1,1,.74,2.11,2.11,0,0,1,.42,1.38,2.16,2.16,0,0,1-.81,1.74,3.24,3.24,0,0,1-2.15.67,4.12,4.12,0,0,1-2.56-.75,3,3,0,0,1-1.17-2.09h1.41a1.82,1.82,0,0,0,.7,1.29,2.51,2.51,0,0,0,1.62.5,1.7,1.7,0,0,0,1.18-.39,1.28,1.28,0,0,0,.42-1,1.1,1.1,0,0,0-.3-.82,2,2,0,0,0-.76-.46,10.34,10.34,0,0,0-1.23-.34,12,12,0,0,1-1.56-.45,2.42,2.42,0,0,1-1-.71,2,2,0,0,1-.41-1.32,2.18,2.18,0,0,1,.82-1.78,3.31,3.31,0,0,1,2.22-.68A3.52,3.52,0,0,1,834.84,201.29Z"/><path d="M838,197.4a1.2,1.2,0,0,1,1.44,0,.92.92,0,0,1,0,1.3,1.16,1.16,0,0,1-1.44,0,.92.92,0,0,1,0-1.3Zm1.44,3.23v8.78H838v-8.78Z"/><path d="M845.17,207.86l2.72-7.23h1.57L846,209.41h-1.73l-3.44-8.78h1.57Z"/><path d="M856.65,201.16a3.27,3.27,0,0,1,1.24,1.71v-2.24h1.46v8.78h-1.46v-2.24a3.27,3.27,0,0,1-1.24,1.71,3.58,3.58,0,0,1-2.17.64,4,4,0,0,1-2.08-.54,3.8,3.8,0,0,1-1.43-1.56,5.78,5.78,0,0,1,0-4.79,3.77,3.77,0,0,1,1.43-1.57,4,4,0,0,1,2.08-.54A3.58,3.58,0,0,1,856.65,201.16Zm-3.9,1.51a3.84,3.84,0,0,0,0,4.72,2.81,2.81,0,0,0,2.15.85,2.92,2.92,0,0,0,1.54-.4,2.75,2.75,0,0,0,1.07-1.12,3.66,3.66,0,0,0,.38-1.69,3.7,3.7,0,0,0-.38-1.7,2.72,2.72,0,0,0-1.07-1.13,3,3,0,0,0-1.54-.39A2.82,2.82,0,0,0,852.75,202.67Z"/><path d="M879.27,201.13a3.35,3.35,0,0,1,1.24,1.58v-2.08H882v12.94h-1.46v-6.3a3.59,3.59,0,0,1-1.26,1.65,3.47,3.47,0,0,1-2,.6,4.05,4.05,0,0,1-2.11-.55,3.8,3.8,0,0,1-1.48-1.57,4.92,4.92,0,0,1-.54-2.36,5,5,0,0,1,.54-2.36,3.87,3.87,0,0,1,1.48-1.57,4,4,0,0,1,2.11-.56A3.57,3.57,0,0,1,879.27,201.13Zm-3.89,1.54a3.84,3.84,0,0,0,0,4.73,2.87,2.87,0,0,0,2.15.84,3,3,0,0,0,1.51-.39,2.84,2.84,0,0,0,1.08-1.12,3.42,3.42,0,0,0,.4-1.7,3.48,3.48,0,0,0-.4-1.71A2.91,2.91,0,0,0,879,202.2a3,3,0,0,0-1.51-.39A2.84,2.84,0,0,0,875.38,202.67Z"/><path d="M892.09,200.63v8.78h-1.45v-2.06a3,3,0,0,1-1.19,1.64,3.53,3.53,0,0,1-2,.57,3.25,3.25,0,0,1-2.46-1,3.91,3.91,0,0,1-.94-2.82v-5.12h1.45v5a2.89,2.89,0,0,0,.67,2,2.42,2.42,0,0,0,1.83.71,2.49,2.49,0,0,0,1.92-.78,3.19,3.19,0,0,0,.72-2.26v-4.67Z"/><path d="M902.45,205.33h-7a3.08,3.08,0,0,0,.86,2.26,2.78,2.78,0,0,0,2,.75,2.83,2.83,0,0,0,1.77-.54,2.14,2.14,0,0,0,.87-1.43h1.56a3.7,3.7,0,0,1-.72,1.63,3.55,3.55,0,0,1-1.43,1.12,4.7,4.7,0,0,1-2,.4,4.53,4.53,0,0,1-2.24-.54,3.83,3.83,0,0,1-1.53-1.56,5.49,5.49,0,0,1,0-4.79,3.8,3.8,0,0,1,1.53-1.57,4.53,4.53,0,0,1,2.24-.54,4.44,4.44,0,0,1,2.23.54,3.79,3.79,0,0,1,1.46,1.46,4.13,4.13,0,0,1,.5,2A4.58,4.58,0,0,1,902.45,205.33ZM900.72,203a2.33,2.33,0,0,0-1-1,3.12,3.12,0,0,0-1.39-.32,2.93,2.93,0,0,0-2,.74,3,3,0,0,0-.88,2.19H901A3,3,0,0,0,900.72,203Z"/><path d="M922,201.16a3.32,3.32,0,0,1,1.24,1.71v-2.24h1.45v8.78h-1.45v-2.24a3.32,3.32,0,0,1-1.24,1.71,3.62,3.62,0,0,1-2.17.64,4,4,0,0,1-2.08-.54,3.67,3.67,0,0,1-1.43-1.56,5.78,5.78,0,0,1,0-4.79,3.64,3.64,0,0,1,1.43-1.57,4,4,0,0,1,2.08-.54A3.62,3.62,0,0,1,922,201.16Zm-3.91,1.51a3.84,3.84,0,0,0,0,4.72,2.82,2.82,0,0,0,2.15.85,3,3,0,0,0,1.55-.4,2.73,2.73,0,0,0,1.06-1.12,3.54,3.54,0,0,0,.39-1.69,3.58,3.58,0,0,0-.39-1.7,2.7,2.7,0,0,0-1.06-1.13,3.08,3.08,0,0,0-1.55-.39A2.83,2.83,0,0,0,918.11,202.67Z"/><path d="M929.3,199a1.84,1.84,0,0,0-.46,1.44v.24h2.08v1.28h-2.08v7.5h-1.46v-7.5h-1.26v-1.28h1.26v-.35q0-3.17,3.54-3v1.28A2.34,2.34,0,0,0,929.3,199Z"/><path d="M940.52,205.33h-7a3.07,3.07,0,0,0,.85,2.26,2.81,2.81,0,0,0,2,.75,2.87,2.87,0,0,0,1.77-.54,2.22,2.22,0,0,0,.87-1.43h1.55a3.66,3.66,0,0,1-2.14,2.75,4.72,4.72,0,0,1-2,.4,4.56,4.56,0,0,1-2.24-.54,3.83,3.83,0,0,1-1.53-1.56,5.49,5.49,0,0,1,0-4.79,3.8,3.8,0,0,1,1.53-1.57,4.56,4.56,0,0,1,2.24-.54,4.41,4.41,0,0,1,2.23.54,3.73,3.73,0,0,1,1.46,1.46,4,4,0,0,1,.5,2A4.58,4.58,0,0,1,940.52,205.33ZM938.79,203a2.28,2.28,0,0,0-1-1,3.09,3.09,0,0,0-1.39-.32,2.88,2.88,0,0,0-2,.74,3,3,0,0,0-.88,2.19h5.61A2.94,2.94,0,0,0,938.79,203Z"/><path d="M949.16,201.41a3.79,3.79,0,0,1,1.36,2.4H949a2.2,2.2,0,0,0-.87-1.48,2.82,2.82,0,0,0-1.77-.53,2.77,2.77,0,0,0-1.4.35,2.47,2.47,0,0,0-1,1.08,3.75,3.75,0,0,0-.39,1.8,3.8,3.8,0,0,0,.39,1.8,2.58,2.58,0,0,0,1,1.08,2.88,2.88,0,0,0,1.4.35,2.83,2.83,0,0,0,1.77-.54,2.25,2.25,0,0,0,.87-1.49h1.54a3.79,3.79,0,0,1-1.36,2.41,4.3,4.3,0,0,1-2.78.88,4.53,4.53,0,0,1-2.24-.54,3.77,3.77,0,0,1-1.53-1.56,5.49,5.49,0,0,1,0-4.79,3.74,3.74,0,0,1,1.53-1.57,4.53,4.53,0,0,1,2.24-.54A4.25,4.25,0,0,1,949.16,201.41Z"/><path d="M956.62,208.13v1.28h-1.09a2.77,2.77,0,0,1-2-.64,2.9,2.9,0,0,1-.67-2.14v-4.74h-1.31v-1.26h1.31v-2.19h1.48v2.19h2.27v1.26h-2.27v4.77a1.65,1.65,0,0,0,.31,1.16,1.5,1.5,0,0,0,1.08.31Z"/><path d="M964.16,201.16a3.32,3.32,0,0,1,1.24,1.71v-2.24h1.45v8.78H965.4v-2.24a3.32,3.32,0,0,1-1.24,1.71,3.6,3.6,0,0,1-2.17.64,4,4,0,0,1-2.08-.54,3.73,3.73,0,0,1-1.43-1.56,5.78,5.78,0,0,1,0-4.79,3.7,3.7,0,0,1,1.43-1.57,4,4,0,0,1,2.08-.54A3.6,3.6,0,0,1,964.16,201.16Zm-3.91,1.51a3.88,3.88,0,0,0,0,4.72,2.83,2.83,0,0,0,2.16.85,3,3,0,0,0,1.54-.4,2.73,2.73,0,0,0,1.06-1.12,3.54,3.54,0,0,0,.39-1.69,3.58,3.58,0,0,0-.39-1.7A2.7,2.7,0,0,0,964,202.2a3,3,0,0,0-1.54-.39A2.84,2.84,0,0,0,960.25,202.67Z"/><path d="M533.47,224.53h-7a3.07,3.07,0,0,0,.85,2.26,2.81,2.81,0,0,0,2,.75,2.87,2.87,0,0,0,1.77-.54,2.22,2.22,0,0,0,.87-1.43h1.55a3.66,3.66,0,0,1-2.14,2.75,4.72,4.72,0,0,1-2,.4,4.56,4.56,0,0,1-2.24-.54,3.83,3.83,0,0,1-1.53-1.56,5.49,5.49,0,0,1,0-4.79,3.8,3.8,0,0,1,1.53-1.57,4.56,4.56,0,0,1,2.24-.54,4.41,4.41,0,0,1,2.23.54,3.73,3.73,0,0,1,1.46,1.46,4,4,0,0,1,.5,2A4.58,4.58,0,0,1,533.47,224.53Zm-1.73-2.33a2.28,2.28,0,0,0-1-1,3.09,3.09,0,0,0-1.39-.32,2.88,2.88,0,0,0-2,.74,3,3,0,0,0-.88,2.19h5.61A2.94,2.94,0,0,0,531.74,222.2Z"/><path d="M540.58,220.49a3.29,3.29,0,0,1,1.1,2.09h-1.39a2.06,2.06,0,0,0-.65-1.29,2.14,2.14,0,0,0-1.48-.5,1.84,1.84,0,0,0-1.23.37,1.28,1.28,0,0,0-.44,1,1.06,1.06,0,0,0,.3.78,2,2,0,0,0,.74.44q.44.15,1.2.33a11.24,11.24,0,0,1,1.58.46,2.4,2.4,0,0,1,1,.74,2.05,2.05,0,0,1,.43,1.38,2.16,2.16,0,0,1-.81,1.74,3.25,3.25,0,0,1-2.15.67,4.12,4.12,0,0,1-2.56-.75,3,3,0,0,1-1.17-2.09h1.41a1.81,1.81,0,0,0,.69,1.29,2.54,2.54,0,0,0,1.63.5,1.65,1.65,0,0,0,1.17-.39,1.26,1.26,0,0,0,.43-1,1.07,1.07,0,0,0-.31-.82,1.9,1.9,0,0,0-.75-.46,10.92,10.92,0,0,0-1.23-.34,12,12,0,0,1-1.56-.45,2.42,2.42,0,0,1-1-.71,2,2,0,0,1-.41-1.32,2.18,2.18,0,0,1,.82-1.78,3.31,3.31,0,0,1,2.22-.68A3.52,3.52,0,0,1,540.58,220.49Z"/><path d="M550.64,220.26a3.7,3.7,0,0,1,1.43,1.57,5.78,5.78,0,0,1,0,4.79,3.73,3.73,0,0,1-1.43,1.56,4,4,0,0,1-2.08.54,3.58,3.58,0,0,1-2.17-.64,3.3,3.3,0,0,1-1.22-1.71v6.4h-1.46V219.83h1.46v2.24a3.3,3.3,0,0,1,1.22-1.71,3.58,3.58,0,0,1,2.17-.64A4,4,0,0,1,550.64,220.26Zm-4,1.14a2.74,2.74,0,0,0-1.08,1.13,3.7,3.7,0,0,0-.38,1.7,3.66,3.66,0,0,0,.38,1.69,2.78,2.78,0,0,0,1.08,1.12,2.94,2.94,0,0,0,1.53.4,2.84,2.84,0,0,0,2.17-.85,3.84,3.84,0,0,0,0-4.72,2.85,2.85,0,0,0-2.17-.86A3,3,0,0,0,546.61,221.4Z"/><path d="M562.51,224.53h-7a3.07,3.07,0,0,0,.85,2.26,3.06,3.06,0,0,0,3.74.21,2.19,2.19,0,0,0,.88-1.43h1.55a3.66,3.66,0,0,1-2.14,2.75,4.72,4.72,0,0,1-2,.4,4.56,4.56,0,0,1-2.24-.54,3.83,3.83,0,0,1-1.53-1.56,5.49,5.49,0,0,1,0-4.79,3.8,3.8,0,0,1,1.53-1.57,4.56,4.56,0,0,1,2.24-.54,4.44,4.44,0,0,1,2.23.54,3.73,3.73,0,0,1,1.46,1.46,4,4,0,0,1,.5,2A4.58,4.58,0,0,1,562.51,224.53Zm-1.73-2.33a2.28,2.28,0,0,0-1-1,3.09,3.09,0,0,0-1.39-.32,2.88,2.88,0,0,0-2,.74,3,3,0,0,0-.88,2.19h5.61A2.94,2.94,0,0,0,560.78,222.2Z"/><path d="M571.15,220.61a3.83,3.83,0,0,1,1.36,2.4H571a2.2,2.2,0,0,0-.87-1.48,2.82,2.82,0,0,0-1.77-.53,2.77,2.77,0,0,0-1.4.35,2.47,2.47,0,0,0-1,1.08,3.75,3.75,0,0,0-.39,1.8,3.8,3.8,0,0,0,.39,1.8,2.58,2.58,0,0,0,1,1.08,2.88,2.88,0,0,0,1.4.35,2.83,2.83,0,0,0,1.77-.54,2.25,2.25,0,0,0,.87-1.49h1.54a3.83,3.83,0,0,1-1.36,2.41,4.33,4.33,0,0,1-2.79.88,4.58,4.58,0,0,1-2.24-.54,3.75,3.75,0,0,1-1.52-1.56,5.4,5.4,0,0,1,0-4.79,3.72,3.72,0,0,1,1.52-1.57,4.58,4.58,0,0,1,2.24-.54A4.28,4.28,0,0,1,571.15,220.61Z"/><path d="M574.43,216.6a1.2,1.2,0,0,1,1.44,0,.92.92,0,0,1,0,1.3,1.16,1.16,0,0,1-1.44,0,.92.92,0,0,1,0-1.3Zm1.44,3.23v8.78h-1.46v-8.78Z"/><path d="M584,220.36a3.27,3.27,0,0,1,1.24,1.71v-2.24h1.46v8.78h-1.46v-2.24a3.27,3.27,0,0,1-1.24,1.71,3.58,3.58,0,0,1-2.17.64,4,4,0,0,1-2.08-.54,3.8,3.8,0,0,1-1.43-1.56,5.78,5.78,0,0,1,0-4.79,3.77,3.77,0,0,1,1.43-1.57,4,4,0,0,1,2.08-.54A3.58,3.58,0,0,1,584,220.36Zm-3.9,1.51a3.84,3.84,0,0,0,0,4.72,2.81,2.81,0,0,0,2.15.85,2.92,2.92,0,0,0,1.54-.4,2.75,2.75,0,0,0,1.07-1.12,3.66,3.66,0,0,0,.38-1.69,3.7,3.7,0,0,0-.38-1.7,2.72,2.72,0,0,0-1.07-1.13,3,3,0,0,0-1.54-.39A2.82,2.82,0,0,0,580.07,221.87Z"/><path d="M590.44,216.77v11.84H589V216.77Z"/><path d="M606.05,220.67a3.93,3.93,0,0,1,.94,2.84v5.1h-1.46v-5a2.85,2.85,0,0,0-.63-2,2.24,2.24,0,0,0-1.74-.69,2.4,2.4,0,0,0-1.84.76,3.18,3.18,0,0,0-.7,2.24v4.65h-1.46v-5a2.8,2.8,0,0,0-.64-2,2.22,2.22,0,0,0-1.72-.69,2.45,2.45,0,0,0-1.87.76,3.23,3.23,0,0,0-.69,2.24v4.65h-1.46v-8.78h1.46v2a2.78,2.78,0,0,1,1.14-1.59,3.54,3.54,0,0,1,3.84,0,1.27,1.27,0,1,0,2.41,0,3.38,3.38,0,0,1,2-.59A3.24,3.24,0,0,1,606.05,220.67Z"/><path d="M617.26,224.53h-7a3.07,3.07,0,0,0,.85,2.26,2.81,2.81,0,0,0,2,.75,2.87,2.87,0,0,0,1.77-.54,2.22,2.22,0,0,0,.87-1.43h1.55a3.66,3.66,0,0,1-2.14,2.75,4.72,4.72,0,0,1-2,.4,4.56,4.56,0,0,1-2.24-.54,3.83,3.83,0,0,1-1.53-1.56,5.49,5.49,0,0,1,0-4.79,3.8,3.8,0,0,1,1.53-1.57,4.56,4.56,0,0,1,2.24-.54,4.41,4.41,0,0,1,2.23.54,3.73,3.73,0,0,1,1.46,1.46,4,4,0,0,1,.5,2A4.58,4.58,0,0,1,617.26,224.53Zm-1.73-2.33a2.28,2.28,0,0,0-1-1,3.09,3.09,0,0,0-1.39-.32,2.88,2.88,0,0,0-2,.74,3,3,0,0,0-.88,2.19h5.61A2.94,2.94,0,0,0,615.53,222.2Z"/><path d="M626.33,220.67a3.93,3.93,0,0,1,.95,2.84v5.1h-1.46v-5a2.8,2.8,0,0,0-.67-2,2.41,2.41,0,0,0-1.83-.7,2.48,2.48,0,0,0-1.92.77,3.22,3.22,0,0,0-.72,2.27v4.65h-1.45v-8.78h1.45v2.08a3,3,0,0,1,1.2-1.65,3.48,3.48,0,0,1,2-.58A3.26,3.26,0,0,1,626.33,220.67Z"/><path d="M633.71,227.33v1.28h-1.09a2.77,2.77,0,0,1-2-.64,2.9,2.9,0,0,1-.66-2.14v-4.74h-1.31v-1.26H630v-2.19h1.47v2.19h2.27v1.26h-2.27v4.77a1.65,1.65,0,0,0,.31,1.16,1.5,1.5,0,0,0,1.08.31Z"/><path d="M643.5,224.53h-7a3.07,3.07,0,0,0,.85,2.26,2.81,2.81,0,0,0,2,.75,2.87,2.87,0,0,0,1.77-.54,2.22,2.22,0,0,0,.87-1.43h1.55a3.66,3.66,0,0,1-2.14,2.75,4.72,4.72,0,0,1-2,.4,4.56,4.56,0,0,1-2.24-.54,3.83,3.83,0,0,1-1.53-1.56,5.49,5.49,0,0,1,0-4.79,3.8,3.8,0,0,1,1.53-1.57,4.56,4.56,0,0,1,2.24-.54,4.41,4.41,0,0,1,2.23.54,3.73,3.73,0,0,1,1.46,1.46,4,4,0,0,1,.5,2A4.58,4.58,0,0,1,643.5,224.53Zm-1.73-2.33a2.28,2.28,0,0,0-1-1,3.09,3.09,0,0,0-1.39-.32,2.88,2.88,0,0,0-2,.74,3,3,0,0,0-.88,2.19h5.61A2.94,2.94,0,0,0,641.77,222.2Z"/><path d="M659.28,216.77v11.84h-1.45V216.77Z"/><path d="M667.87,220.26a3.81,3.81,0,0,1,1.56,1.57,5.32,5.32,0,0,1,0,4.79,3.84,3.84,0,0,1-1.56,1.56,4.73,4.73,0,0,1-2.27.54,4.66,4.66,0,0,1-2.26-.54,4,4,0,0,1-1.58-1.56,5.32,5.32,0,0,1,0-4.79,3.91,3.91,0,0,1,1.58-1.57,4.66,4.66,0,0,1,2.26-.54A4.73,4.73,0,0,1,667.87,220.26Zm-3.72,1.09a2.59,2.59,0,0,0-1.07,1.08,4.11,4.11,0,0,0,0,3.58,2.59,2.59,0,0,0,1.07,1.08,3.18,3.18,0,0,0,2.9,0,2.59,2.59,0,0,0,1.07-1.08,4.11,4.11,0,0,0,0-3.58,2.59,2.59,0,0,0-1.07-1.08,3.18,3.18,0,0,0-2.9,0Z"/><path d="M677.05,220.49a3.29,3.29,0,0,1,1.1,2.09h-1.4a2,2,0,0,0-.64-1.29,2.14,2.14,0,0,0-1.48-.5,1.84,1.84,0,0,0-1.23.37,1.28,1.28,0,0,0-.44,1,1.06,1.06,0,0,0,.3.78,2,2,0,0,0,.73.44c.3.1.7.21,1.21.33a11.24,11.24,0,0,1,1.58.46,2.4,2.4,0,0,1,1,.74,2.11,2.11,0,0,1,.43,1.38,2.16,2.16,0,0,1-.81,1.74,3.25,3.25,0,0,1-2.15.67,4.12,4.12,0,0,1-2.56-.75,3,3,0,0,1-1.17-2.09H673a1.81,1.81,0,0,0,.69,1.29,2.52,2.52,0,0,0,1.63.5,1.65,1.65,0,0,0,1.17-.39,1.29,1.29,0,0,0,.43-1,1.11,1.11,0,0,0-.31-.82,1.9,1.9,0,0,0-.75-.46,10.92,10.92,0,0,0-1.23-.34,12,12,0,0,1-1.56-.45,2.42,2.42,0,0,1-1-.71,2,2,0,0,1-.41-1.32,2.2,2.2,0,0,1,.81-1.78,3.36,3.36,0,0,1,2.23-.68A3.52,3.52,0,0,1,677.05,220.49Z"/><path d="M699.46,220.26a3.72,3.72,0,0,1,1.44,1.57,5.78,5.78,0,0,1,0,4.79,3.76,3.76,0,0,1-1.44,1.56,4,4,0,0,1-2.08.54,3.62,3.62,0,0,1-2.17-.64,3.3,3.3,0,0,1-1.22-1.71v6.4h-1.45V219.83H694v2.24a3.3,3.3,0,0,1,1.22-1.71,3.62,3.62,0,0,1,2.17-.64A4,4,0,0,1,699.46,220.26Zm-4,1.14a2.72,2.72,0,0,0-1.07,1.13,3.58,3.58,0,0,0-.38,1.7,3.54,3.54,0,0,0,.38,1.69,2.75,2.75,0,0,0,1.07,1.12,3,3,0,0,0,1.54.4,2.82,2.82,0,0,0,2.16-.85,3.84,3.84,0,0,0,0-4.72A2.82,2.82,0,0,0,697,221,3.07,3.07,0,0,0,695.43,221.4Z"/><path d="M711.13,219.83v8.78h-1.46v-2.06a3,3,0,0,1-1.19,1.64,3.52,3.52,0,0,1-2,.57,3.25,3.25,0,0,1-2.47-1,3.91,3.91,0,0,1-.94-2.82v-5.12h1.46v5a2.84,2.84,0,0,0,.67,2,2.39,2.39,0,0,0,1.82.71,2.49,2.49,0,0,0,1.92-.78,3.19,3.19,0,0,0,.72-2.26v-4.67Z"/><path d="M714.92,216.77v11.84h-1.46V216.77Z"/><path d="M730.53,220.67a4,4,0,0,1,.93,2.84v5.1H730v-5a2.85,2.85,0,0,0-.63-2,2.25,2.25,0,0,0-1.74-.69,2.4,2.4,0,0,0-1.85.76,3.23,3.23,0,0,0-.7,2.24v4.65h-1.45v-5a2.8,2.8,0,0,0-.64-2,2.24,2.24,0,0,0-1.73-.69,2.41,2.41,0,0,0-1.86.76,3.18,3.18,0,0,0-.7,2.24v4.65h-1.46v-8.78h1.46v2a2.82,2.82,0,0,1,1.14-1.59,3.56,3.56,0,0,1,3.85,0,3.13,3.13,0,0,1,1.17,1.67,3.23,3.23,0,0,1,1.23-1.65,3.42,3.42,0,0,1,1.95-.59A3.26,3.26,0,0,1,730.53,220.67Z"/><path d="M740,220.26a3.89,3.89,0,0,1,1.57,1.57,5.4,5.4,0,0,1,0,4.79,3.93,3.93,0,0,1-1.57,1.56,5,5,0,0,1-4.53,0,4,4,0,0,1-1.58-1.56,5.32,5.32,0,0,1,0-4.79,3.91,3.91,0,0,1,1.58-1.57,5,5,0,0,1,4.53,0Zm-3.72,1.09a2.65,2.65,0,0,0-1.07,1.08,4.11,4.11,0,0,0,0,3.58,2.65,2.65,0,0,0,1.07,1.08,3,3,0,0,0,1.45.35,3,3,0,0,0,1.45-.35,2.59,2.59,0,0,0,1.07-1.08,4.11,4.11,0,0,0,0-3.58,2.59,2.59,0,0,0-1.07-1.08,3,3,0,0,0-1.45-.35A3,3,0,0,0,736.25,221.35Z"/><path d="M751.11,220.67a3.93,3.93,0,0,1,.94,2.84v5.1H750.6v-5a2.8,2.8,0,0,0-.67-2,2.41,2.41,0,0,0-1.83-.7,2.48,2.48,0,0,0-1.92.77,3.22,3.22,0,0,0-.72,2.27v4.65H744v-8.78h1.45v2.08a3,3,0,0,1,1.2-1.65,3.46,3.46,0,0,1,2-.58A3.26,3.26,0,0,1,751.11,220.67Z"/><path d="M762.31,224.53h-7a3.07,3.07,0,0,0,.85,2.26,2.81,2.81,0,0,0,2,.75,2.87,2.87,0,0,0,1.77-.54,2.22,2.22,0,0,0,.87-1.43h1.55a3.66,3.66,0,0,1-2.14,2.75,4.72,4.72,0,0,1-2,.4,4.56,4.56,0,0,1-2.24-.54,3.75,3.75,0,0,1-1.52-1.56,5.4,5.4,0,0,1,0-4.79,3.72,3.72,0,0,1,1.52-1.57,4.56,4.56,0,0,1,2.24-.54,4.48,4.48,0,0,1,2.24.54,3.7,3.7,0,0,1,1.45,1.46,4,4,0,0,1,.51,2A4.49,4.49,0,0,1,762.31,224.53Zm-1.73-2.33a2.31,2.31,0,0,0-1-1,3.16,3.16,0,0,0-1.4-.32,2.88,2.88,0,0,0-2,.74,3,3,0,0,0-.88,2.19h5.61A2.94,2.94,0,0,0,760.58,222.2Z"/><path d="M769.42,220.49a3.29,3.29,0,0,1,1.1,2.09h-1.39a2.06,2.06,0,0,0-.65-1.29,2.14,2.14,0,0,0-1.48-.5,1.86,1.86,0,0,0-1.23.37,1.28,1.28,0,0,0-.44,1,1.06,1.06,0,0,0,.3.78,2,2,0,0,0,.74.44q.43.15,1.2.33a11.24,11.24,0,0,1,1.58.46,2.4,2.4,0,0,1,1,.74,2.05,2.05,0,0,1,.43,1.38,2.16,2.16,0,0,1-.81,1.74,3.25,3.25,0,0,1-2.15.67,4.12,4.12,0,0,1-2.56-.75,3,3,0,0,1-1.17-2.09h1.41a1.81,1.81,0,0,0,.69,1.29,2.54,2.54,0,0,0,1.63.5,1.65,1.65,0,0,0,1.17-.39,1.26,1.26,0,0,0,.43-1,1.07,1.07,0,0,0-.31-.82,1.9,1.9,0,0,0-.75-.46,10.92,10.92,0,0,0-1.23-.34,12,12,0,0,1-1.56-.45,2.42,2.42,0,0,1-1-.71,2,2,0,0,1-.41-1.32,2.18,2.18,0,0,1,.82-1.78,3.31,3.31,0,0,1,2.22-.68A3.52,3.52,0,0,1,769.42,220.49Z"/><path d="M785.52,219.83l2.84,6.91,2.64-6.91h1.62l-5.22,12.94h-1.65l1.83-4.3-3.7-8.64Z"/><path d="M811.45,220.49a3.24,3.24,0,0,1,1.09,2.09h-1.39a2,2,0,0,0-.65-1.29,2.12,2.12,0,0,0-1.48-.5,1.82,1.82,0,0,0-1.22.37,1.28,1.28,0,0,0-.44,1,1.06,1.06,0,0,0,.3.78,1.9,1.9,0,0,0,.73.44c.3.1.7.21,1.21.33a11.24,11.24,0,0,1,1.58.46,2.4,2.4,0,0,1,1,.74,2.11,2.11,0,0,1,.42,1.38,2.15,2.15,0,0,1-.8,1.74,3.25,3.25,0,0,1-2.15.67,4.17,4.17,0,0,1-2.57-.75,3,3,0,0,1-1.16-2.09h1.4a1.86,1.86,0,0,0,.7,1.29,2.52,2.52,0,0,0,1.63.5,1.65,1.65,0,0,0,1.17-.39,1.28,1.28,0,0,0,.42-1,1.1,1.1,0,0,0-.3-.82,1.9,1.9,0,0,0-.75-.46,10.92,10.92,0,0,0-1.23-.34,12,12,0,0,1-1.56-.45,2.52,2.52,0,0,1-1-.71,2,2,0,0,1-.4-1.32,2.2,2.2,0,0,1,.81-1.78,3.36,3.36,0,0,1,2.23-.68A3.52,3.52,0,0,1,811.45,220.49Z"/><path d="M822.59,224.53h-7a3.12,3.12,0,0,0,.85,2.26,2.81,2.81,0,0,0,2,.75,2.85,2.85,0,0,0,1.77-.54,2.22,2.22,0,0,0,.87-1.43h1.55a3.57,3.57,0,0,1-.71,1.63,3.62,3.62,0,0,1-1.43,1.12,4.72,4.72,0,0,1-2,.4,4.52,4.52,0,0,1-2.23-.54,3.77,3.77,0,0,1-1.53-1.56,5.49,5.49,0,0,1,0-4.79,3.74,3.74,0,0,1,1.53-1.57,4.9,4.9,0,0,1,4.47,0,3.7,3.7,0,0,1,1.45,1.46,4,4,0,0,1,.51,2A3.72,3.72,0,0,1,822.59,224.53Zm-1.72-2.33a2.38,2.38,0,0,0-1-1,3.13,3.13,0,0,0-1.4-.32,2.9,2.9,0,0,0-2,.74,3,3,0,0,0-.88,2.19h5.62A3,3,0,0,0,820.87,222.2Z"/><path d="M831.67,220.67a4,4,0,0,1,.94,2.84v5.1h-1.46v-5a2.8,2.8,0,0,0-.67-2,2.39,2.39,0,0,0-1.82-.7,2.48,2.48,0,0,0-1.92.77A3.22,3.22,0,0,0,826,224v4.65h-1.46v-8.78H826v2.08a3,3,0,0,1,1.19-1.65,3.49,3.49,0,0,1,2-.58A3.28,3.28,0,0,1,831.67,220.67Z"/><path d="M841.1,220.26a3.89,3.89,0,0,1,1.57,1.57,5.4,5.4,0,0,1,0,4.79,3.93,3.93,0,0,1-1.57,1.56,5,5,0,0,1-4.53,0,4,4,0,0,1-1.58-1.56,5.32,5.32,0,0,1,0-4.79,3.91,3.91,0,0,1,1.58-1.57,5,5,0,0,1,4.53,0Zm-3.71,1.09a2.61,2.61,0,0,0-1.08,1.08,4.21,4.21,0,0,0,0,3.58,2.61,2.61,0,0,0,1.08,1.08,3.16,3.16,0,0,0,2.89,0,2.59,2.59,0,0,0,1.07-1.08,4.11,4.11,0,0,0,0-3.58,2.59,2.59,0,0,0-1.07-1.08,3.16,3.16,0,0,0-2.89,0Z"/><path d="M850.28,220.49a3.29,3.29,0,0,1,1.1,2.09H850a2.06,2.06,0,0,0-.65-1.29,2.14,2.14,0,0,0-1.48-.5,1.84,1.84,0,0,0-1.23.37,1.28,1.28,0,0,0-.44,1,1.06,1.06,0,0,0,.3.78,2,2,0,0,0,.74.44q.43.15,1.2.33a11.24,11.24,0,0,1,1.58.46,2.4,2.4,0,0,1,1,.74,2.05,2.05,0,0,1,.43,1.38,2.16,2.16,0,0,1-.81,1.74,3.25,3.25,0,0,1-2.15.67,4.12,4.12,0,0,1-2.56-.75,3,3,0,0,1-1.17-2.09h1.41a1.81,1.81,0,0,0,.69,1.29,2.54,2.54,0,0,0,1.63.5,1.65,1.65,0,0,0,1.17-.39,1.26,1.26,0,0,0,.43-1,1.07,1.07,0,0,0-.31-.82A1.9,1.9,0,0,0,849,225a10.92,10.92,0,0,0-1.23-.34,12,12,0,0,1-1.56-.45,2.42,2.42,0,0,1-1-.71,2,2,0,0,1-.41-1.32,2.18,2.18,0,0,1,.82-1.78,3.31,3.31,0,0,1,2.22-.68A3.52,3.52,0,0,1,850.28,220.49Z"/><path d="M872.69,220.26a3.72,3.72,0,0,1,1.44,1.57,5.78,5.78,0,0,1,0,4.79,3.76,3.76,0,0,1-1.44,1.56,4,4,0,0,1-2.08.54,3.57,3.57,0,0,1-2.16-.64,3.31,3.31,0,0,1-1.23-1.71v6.4h-1.45V219.83h1.45v2.24a3.31,3.31,0,0,1,1.23-1.71,3.57,3.57,0,0,1,2.16-.64A4,4,0,0,1,872.69,220.26Zm-4,1.14a2.72,2.72,0,0,0-1.07,1.13,3.58,3.58,0,0,0-.38,1.7,3.54,3.54,0,0,0,.38,1.69,2.75,2.75,0,0,0,1.07,1.12,3,3,0,0,0,1.54.4,2.84,2.84,0,0,0,2.17-.85,3.88,3.88,0,0,0,0-4.72,2.85,2.85,0,0,0-2.17-.86A3.07,3.07,0,0,0,868.66,221.4Z"/><path d="M882.32,220.36a3.32,3.32,0,0,1,1.24,1.71v-2.24H885v8.78h-1.45v-2.24a3.32,3.32,0,0,1-1.24,1.71,3.6,3.6,0,0,1-2.17.64,4,4,0,0,1-2.08-.54,3.73,3.73,0,0,1-1.43-1.56,5.78,5.78,0,0,1,0-4.79,3.7,3.7,0,0,1,1.43-1.57,4,4,0,0,1,2.08-.54A3.6,3.6,0,0,1,882.32,220.36Zm-3.9,1.51a3.84,3.84,0,0,0,0,4.72,2.79,2.79,0,0,0,2.15.85,3,3,0,0,0,1.54-.4,2.73,2.73,0,0,0,1.06-1.12,3.54,3.54,0,0,0,.39-1.69,3.58,3.58,0,0,0-.39-1.7,2.7,2.7,0,0,0-1.06-1.13,3,3,0,0,0-1.54-.39A2.8,2.8,0,0,0,878.42,221.87Z"/><path d="M890.05,220.19a3.75,3.75,0,0,1,2-.51v1.59h-.45a3.1,3.1,0,0,0-2,.63,2.51,2.51,0,0,0-.79,2.09v4.62h-1.46v-8.78h1.46v1.77A3.26,3.26,0,0,1,890.05,220.19Z"/><path d="M899.25,220.36a3.32,3.32,0,0,1,1.24,1.71v-2.24h1.45v8.78h-1.45v-2.24a3.32,3.32,0,0,1-1.24,1.71,3.62,3.62,0,0,1-2.17.64,4,4,0,0,1-2.08-.54,3.67,3.67,0,0,1-1.43-1.56,5.78,5.78,0,0,1,0-4.79,3.64,3.64,0,0,1,1.43-1.57,4,4,0,0,1,2.08-.54A3.62,3.62,0,0,1,899.25,220.36Zm-3.91,1.51a3.84,3.84,0,0,0,0,4.72,2.82,2.82,0,0,0,2.15.85A3,3,0,0,0,899,227a2.73,2.73,0,0,0,1.06-1.12,3.54,3.54,0,0,0,.39-1.69,3.58,3.58,0,0,0-.39-1.7A2.7,2.7,0,0,0,899,221.4a3.08,3.08,0,0,0-1.55-.39A2.83,2.83,0,0,0,895.34,221.87Z"/><path d="M911.37,220.67a3.93,3.93,0,0,1,.94,2.84v5.1h-1.46v-5a2.8,2.8,0,0,0-.67-2,2.39,2.39,0,0,0-1.82-.7,2.48,2.48,0,0,0-1.92.77,3.22,3.22,0,0,0-.72,2.27v4.65h-1.46v-8.78h1.46v2.08a3,3,0,0,1,1.19-1.65,3.49,3.49,0,0,1,2-.58A3.28,3.28,0,0,1,911.37,220.67Z"/><path d="M920.32,220.36a3.32,3.32,0,0,1,1.24,1.71v-2.24H923v8.78h-1.45v-2.24a3.32,3.32,0,0,1-1.24,1.71,3.6,3.6,0,0,1-2.17.64,4,4,0,0,1-2.08-.54,3.73,3.73,0,0,1-1.43-1.56,5.78,5.78,0,0,1,0-4.79,3.7,3.7,0,0,1,1.43-1.57,4,4,0,0,1,2.08-.54A3.6,3.6,0,0,1,920.32,220.36Zm-3.9,1.51a3.84,3.84,0,0,0,0,4.72,2.79,2.79,0,0,0,2.15.85,3,3,0,0,0,1.54-.4,2.73,2.73,0,0,0,1.06-1.12,3.54,3.54,0,0,0,.39-1.69,3.58,3.58,0,0,0-.39-1.7,2.7,2.7,0,0,0-1.06-1.13,3,3,0,0,0-1.54-.39A2.8,2.8,0,0,0,916.42,221.87Z"/><path d="M930.48,220.49a3.29,3.29,0,0,1,1.1,2.09h-1.4a2,2,0,0,0-.64-1.29,2.16,2.16,0,0,0-1.49-.5,1.82,1.82,0,0,0-1.22.37,1.28,1.28,0,0,0-.44,1,1.06,1.06,0,0,0,.3.78,1.9,1.9,0,0,0,.73.44c.3.1.7.21,1.21.33a11.24,11.24,0,0,1,1.58.46,2.4,2.4,0,0,1,1,.74,2.11,2.11,0,0,1,.43,1.38,2.16,2.16,0,0,1-.81,1.74,3.25,3.25,0,0,1-2.15.67,4.17,4.17,0,0,1-2.57-.75,3,3,0,0,1-1.16-2.09h1.41a1.81,1.81,0,0,0,.69,1.29,2.52,2.52,0,0,0,1.63.5,1.65,1.65,0,0,0,1.17-.39,1.28,1.28,0,0,0,.42-1,1.1,1.1,0,0,0-.3-.82,1.9,1.9,0,0,0-.75-.46,10.92,10.92,0,0,0-1.23-.34,12,12,0,0,1-1.56-.45,2.42,2.42,0,0,1-1-.71,2,2,0,0,1-.41-1.32,2.2,2.2,0,0,1,.81-1.78,3.36,3.36,0,0,1,2.23-.68A3.52,3.52,0,0,1,930.48,220.49Z"/><path d="M939.38,220.36a3.32,3.32,0,0,1,1.24,1.71v-2.24h1.45v8.78h-1.45v-2.24a3.32,3.32,0,0,1-1.24,1.71,3.62,3.62,0,0,1-2.17.64,4,4,0,0,1-2.08-.54,3.67,3.67,0,0,1-1.43-1.56,5.78,5.78,0,0,1,0-4.79,3.64,3.64,0,0,1,1.43-1.57,4,4,0,0,1,2.08-.54A3.62,3.62,0,0,1,939.38,220.36Zm-3.91,1.51a3.84,3.84,0,0,0,0,4.72,2.82,2.82,0,0,0,2.15.85,3,3,0,0,0,1.55-.4,2.73,2.73,0,0,0,1.06-1.12,3.54,3.54,0,0,0,.39-1.69,3.58,3.58,0,0,0-.39-1.7,2.7,2.7,0,0,0-1.06-1.13,3.08,3.08,0,0,0-1.55-.39A2.83,2.83,0,0,0,935.47,221.87Z"/><path d="M945.85,216.77v11.84h-1.46V216.77Z"/><path d="M956.2,224.53h-7a3.07,3.07,0,0,0,.85,2.26,2.81,2.81,0,0,0,2,.75,2.87,2.87,0,0,0,1.77-.54,2.22,2.22,0,0,0,.87-1.43h1.55a3.66,3.66,0,0,1-2.14,2.75,4.72,4.72,0,0,1-2,.4,4.56,4.56,0,0,1-2.24-.54,3.83,3.83,0,0,1-1.53-1.56,5.49,5.49,0,0,1,0-4.79,3.8,3.8,0,0,1,1.53-1.57,4.56,4.56,0,0,1,2.24-.54,4.44,4.44,0,0,1,2.23.54,3.73,3.73,0,0,1,1.46,1.46,4,4,0,0,1,.5,2A4.58,4.58,0,0,1,956.2,224.53Zm-1.73-2.33a2.28,2.28,0,0,0-1-1,3.09,3.09,0,0,0-1.39-.32,2.88,2.88,0,0,0-2,.74,3,3,0,0,0-.88,2.19h5.61A2.94,2.94,0,0,0,954.47,222.2Z"/><path d="M963.31,220.49a3.29,3.29,0,0,1,1.1,2.09H963a2.06,2.06,0,0,0-.65-1.29,2.14,2.14,0,0,0-1.48-.5,1.86,1.86,0,0,0-1.23.37,1.28,1.28,0,0,0-.44,1,1.06,1.06,0,0,0,.3.78,2,2,0,0,0,.74.44q.43.15,1.2.33a11.24,11.24,0,0,1,1.58.46,2.4,2.4,0,0,1,1,.74,2.05,2.05,0,0,1,.43,1.38,2.16,2.16,0,0,1-.81,1.74,3.25,3.25,0,0,1-2.15.67A4.12,4.12,0,0,1,959,228a3,3,0,0,1-1.17-2.09h1.41a1.81,1.81,0,0,0,.69,1.29,2.54,2.54,0,0,0,1.63.5,1.65,1.65,0,0,0,1.17-.39,1.26,1.26,0,0,0,.43-1,1.07,1.07,0,0,0-.31-.82,1.9,1.9,0,0,0-.75-.46,10.92,10.92,0,0,0-1.23-.34,12,12,0,0,1-1.56-.45,2.42,2.42,0,0,1-1-.71,2,2,0,0,1-.41-1.32,2.18,2.18,0,0,1,.82-1.78,3.31,3.31,0,0,1,2.22-.68A3.52,3.52,0,0,1,963.31,220.49Z"/><path d="M967.51,226.9v1.71h-1.76V226.9Z"/><path d="M526.91,243.27v4.54h-1.46V236.53H529a4,4,0,0,1,2.89.91,3.22,3.22,0,0,1,1,2.47,3.15,3.15,0,0,1-1,2.47,4.15,4.15,0,0,1-2.86.89Zm3.91-1.78a2.08,2.08,0,0,0,.59-1.58,2.11,2.11,0,0,0-.59-1.61,2.72,2.72,0,0,0-1.91-.55h-2v4.3h2A2.72,2.72,0,0,0,530.82,241.49Z"/><path d="M542.4,239v8.78h-1.46v-2.06a3,3,0,0,1-1.19,1.64,3.52,3.52,0,0,1-2,.57,3.25,3.25,0,0,1-2.47-1,3.91,3.91,0,0,1-.94-2.82V239h1.46v5a2.84,2.84,0,0,0,.67,2,2.39,2.39,0,0,0,1.82.71,2.49,2.49,0,0,0,1.92-.78,3.19,3.19,0,0,0,.72-2.26V239Z"/><path d="M552.75,243.73h-7a3.07,3.07,0,0,0,.85,2.26,2.81,2.81,0,0,0,2,.75,2.87,2.87,0,0,0,1.77-.54,2.22,2.22,0,0,0,.87-1.43h1.55a3.66,3.66,0,0,1-2.14,2.75,4.72,4.72,0,0,1-2,.4,4.56,4.56,0,0,1-2.24-.54,3.83,3.83,0,0,1-1.53-1.56,5.49,5.49,0,0,1,0-4.79,3.8,3.8,0,0,1,1.53-1.57,4.56,4.56,0,0,1,2.24-.54,4.44,4.44,0,0,1,2.23.54,3.73,3.73,0,0,1,1.46,1.46,4,4,0,0,1,.5,2A4.58,4.58,0,0,1,552.75,243.73ZM551,241.4a2.28,2.28,0,0,0-1-1,3.09,3.09,0,0,0-1.39-.32,2.88,2.88,0,0,0-2,.74,3,3,0,0,0-.88,2.19h5.61A2.94,2.94,0,0,0,551,241.4Z"/><path d="M560.48,239.56a3.22,3.22,0,0,1,1.24,1.71V236h1.46v11.84h-1.46v-2.24a3.22,3.22,0,0,1-1.24,1.71,3.57,3.57,0,0,1-2.16.64,4,4,0,0,1-2.08-.54,3.76,3.76,0,0,1-1.44-1.56,5.88,5.88,0,0,1,0-4.79,3.72,3.72,0,0,1,1.44-1.57,4,4,0,0,1,2.08-.54A3.57,3.57,0,0,1,560.48,239.56Zm-3.9,1.51a3.84,3.84,0,0,0,0,4.72,2.82,2.82,0,0,0,2.15.85,3,3,0,0,0,1.55-.4,2.79,2.79,0,0,0,1.06-1.12,3.54,3.54,0,0,0,.38-1.69,3.58,3.58,0,0,0-.38-1.7,2.76,2.76,0,0,0-1.06-1.13,3.08,3.08,0,0,0-1.55-.39A2.83,2.83,0,0,0,556.58,241.07Z"/><path d="M573.52,243.73h-7a3.12,3.12,0,0,0,.86,2.26,3.06,3.06,0,0,0,3.74.21,2.14,2.14,0,0,0,.87-1.43h1.56a3.7,3.7,0,0,1-.72,1.63,3.55,3.55,0,0,1-1.43,1.12,4.67,4.67,0,0,1-2,.4,4.56,4.56,0,0,1-2.24-.54,3.83,3.83,0,0,1-1.53-1.56,5.49,5.49,0,0,1,0-4.79,3.8,3.8,0,0,1,1.53-1.57,4.56,4.56,0,0,1,2.24-.54,4.44,4.44,0,0,1,2.23.54,3.73,3.73,0,0,1,1.46,1.46,4.13,4.13,0,0,1,.5,2A4.58,4.58,0,0,1,573.52,243.73Zm-1.73-2.33a2.33,2.33,0,0,0-1-1,3.12,3.12,0,0,0-1.39-.32,2.93,2.93,0,0,0-2,.74,3.07,3.07,0,0,0-.88,2.19h5.62A3,3,0,0,0,571.79,241.4Z"/><path d="M587.45,243.73h-7a3.12,3.12,0,0,0,.85,2.26,2.81,2.81,0,0,0,2,.75,2.87,2.87,0,0,0,1.77-.54,2.22,2.22,0,0,0,.87-1.43h1.55a3.57,3.57,0,0,1-.71,1.63,3.62,3.62,0,0,1-1.43,1.12,4.72,4.72,0,0,1-2,.4,4.58,4.58,0,0,1-2.24-.54,3.75,3.75,0,0,1-1.52-1.56,5.4,5.4,0,0,1,0-4.79,3.72,3.72,0,0,1,1.52-1.57,4.58,4.58,0,0,1,2.24-.54,4.48,4.48,0,0,1,2.24.54,3.7,3.7,0,0,1,1.45,1.46,4,4,0,0,1,.51,2A3.72,3.72,0,0,1,587.45,243.73Zm-1.73-2.33a2.31,2.31,0,0,0-1-1,3.13,3.13,0,0,0-1.4-.32,2.88,2.88,0,0,0-2,.74,3,3,0,0,0-.88,2.19H586A2.86,2.86,0,0,0,585.72,241.4Z"/><path d="M594.48,247.81l-2.29-3.36-2.07,3.36h-1.61l2.88-4.53-2.9-4.25h1.67l2.22,3.26,2-3.26H596l-2.87,4.41,3,4.37Z"/><path d="M601.69,246.53v1.28H600.6a2.76,2.76,0,0,1-2-.64,2.86,2.86,0,0,1-.67-2.14v-4.74h-1.31V239h1.31v-2.19h1.47V239h2.28v1.26H599.4v4.77a1.64,1.64,0,0,0,.32,1.16,1.47,1.47,0,0,0,1.08.31Z"/><path d="M611.48,243.73h-7a3.08,3.08,0,0,0,.86,2.26,2.77,2.77,0,0,0,2,.75,2.85,2.85,0,0,0,1.77-.54,2.18,2.18,0,0,0,.87-1.43h1.55a3.57,3.57,0,0,1-.71,1.63,3.62,3.62,0,0,1-1.43,1.12,4.7,4.7,0,0,1-2,.4,4.53,4.53,0,0,1-2.24-.54,3.77,3.77,0,0,1-1.53-1.56,5.49,5.49,0,0,1,0-4.79,3.74,3.74,0,0,1,1.53-1.57,4.53,4.53,0,0,1,2.24-.54,4.46,4.46,0,0,1,2.23.54,3.7,3.7,0,0,1,1.45,1.46,4,4,0,0,1,.51,2A3.72,3.72,0,0,1,611.48,243.73Zm-1.72-2.33a2.38,2.38,0,0,0-1-1,3.12,3.12,0,0,0-1.39-.32,2.91,2.91,0,0,0-2,.74,3,3,0,0,0-.88,2.19h5.62A3,3,0,0,0,609.76,241.4Z"/><path d="M620.56,239.87a4,4,0,0,1,.94,2.84v5.1H620v-5a2.8,2.8,0,0,0-.67-2,2.39,2.39,0,0,0-1.82-.7,2.48,2.48,0,0,0-1.92.77,3.22,3.22,0,0,0-.72,2.27v4.65h-1.46V239h1.46v2.08a3,3,0,0,1,1.19-1.65,3.49,3.49,0,0,1,2-.58A3.28,3.28,0,0,1,620.56,239.87Z"/><path d="M629.51,239.56a3.32,3.32,0,0,1,1.24,1.71V236h1.45v11.84h-1.45v-2.24a3.32,3.32,0,0,1-1.24,1.71,3.6,3.6,0,0,1-2.17.64,4,4,0,0,1-2.08-.54,3.67,3.67,0,0,1-1.43-1.56,5.78,5.78,0,0,1,0-4.79,3.64,3.64,0,0,1,1.43-1.57,4,4,0,0,1,2.08-.54A3.6,3.6,0,0,1,629.51,239.56Zm-3.91,1.51a3.84,3.84,0,0,0,0,4.72,2.82,2.82,0,0,0,2.15.85,3,3,0,0,0,1.55-.4,2.73,2.73,0,0,0,1.06-1.12,3.54,3.54,0,0,0,.39-1.69,3.58,3.58,0,0,0-.39-1.7,2.7,2.7,0,0,0-1.06-1.13,3.05,3.05,0,0,0-1.55-.39A2.83,2.83,0,0,0,625.6,241.07Z"/><path d="M642.54,243.73h-7a3.07,3.07,0,0,0,.85,2.26,2.81,2.81,0,0,0,2,.75,2.87,2.87,0,0,0,1.77-.54,2.22,2.22,0,0,0,.87-1.43h1.55a3.66,3.66,0,0,1-2.14,2.75,4.72,4.72,0,0,1-2,.4,4.56,4.56,0,0,1-2.24-.54,3.83,3.83,0,0,1-1.53-1.56,5.49,5.49,0,0,1,0-4.79,3.8,3.8,0,0,1,1.53-1.57,4.56,4.56,0,0,1,2.24-.54,4.44,4.44,0,0,1,2.23.54,3.73,3.73,0,0,1,1.46,1.46,4,4,0,0,1,.5,2A4.58,4.58,0,0,1,642.54,243.73Zm-1.73-2.33a2.28,2.28,0,0,0-1-1,3.09,3.09,0,0,0-1.39-.32,2.88,2.88,0,0,0-2,.74,3,3,0,0,0-.88,2.19h5.61A2.94,2.94,0,0,0,640.81,241.4Z"/><path d="M647.23,239.39a3.69,3.69,0,0,1,2-.51v1.59h-.45a3.1,3.1,0,0,0-2,.63,2.51,2.51,0,0,0-.79,2.09v4.62h-1.45V239H646v1.77A3.22,3.22,0,0,1,647.23,239.39Z"/><path d="M655.79,239.69a3.25,3.25,0,0,1,1.1,2.09H655.5a2,2,0,0,0-.65-1.29,2.14,2.14,0,0,0-1.48-.5,1.82,1.82,0,0,0-1.22.37,1.25,1.25,0,0,0-.44,1,1.09,1.09,0,0,0,.29.78,2,2,0,0,0,.74.44c.29.1.7.21,1.21.33a11.05,11.05,0,0,1,1.57.46,2.49,2.49,0,0,1,1,.74,2.11,2.11,0,0,1,.42,1.38,2.16,2.16,0,0,1-.81,1.74,3.24,3.24,0,0,1-2.15.67,4.14,4.14,0,0,1-2.56-.75,3,3,0,0,1-1.17-2.09h1.41a1.86,1.86,0,0,0,.7,1.29,2.51,2.51,0,0,0,1.62.5,1.7,1.7,0,0,0,1.18-.39,1.28,1.28,0,0,0,.42-1,1.1,1.1,0,0,0-.3-.82,2.05,2.05,0,0,0-.75-.46,10.59,10.59,0,0,0-1.24-.34,12,12,0,0,1-1.56-.45,2.42,2.42,0,0,1-1-.71,2,2,0,0,1-.41-1.32,2.21,2.21,0,0,1,.82-1.78,3.31,3.31,0,0,1,2.22-.68A3.5,3.5,0,0,1,655.79,239.69Z"/><path d="M666.94,243.73h-7a3.07,3.07,0,0,0,.85,2.26,2.81,2.81,0,0,0,2,.75,2.87,2.87,0,0,0,1.77-.54,2.22,2.22,0,0,0,.87-1.43h1.55a3.66,3.66,0,0,1-2.14,2.75,4.72,4.72,0,0,1-2,.4,4.56,4.56,0,0,1-2.24-.54,3.83,3.83,0,0,1-1.53-1.56,5.49,5.49,0,0,1,0-4.79,3.8,3.8,0,0,1,1.53-1.57,4.56,4.56,0,0,1,2.24-.54,4.41,4.41,0,0,1,2.23.54,3.73,3.73,0,0,1,1.46,1.46,4,4,0,0,1,.5,2A4.58,4.58,0,0,1,666.94,243.73Zm-1.73-2.33a2.28,2.28,0,0,0-1-1,3.09,3.09,0,0,0-1.39-.32,2.88,2.88,0,0,0-2,.74,3,3,0,0,0-.88,2.19h5.61A2.94,2.94,0,0,0,665.21,241.4Z"/><path d="M678.63,239.56a3.32,3.32,0,0,1,1.24,1.71V239h1.45v8.78h-1.45v-2.24a3.32,3.32,0,0,1-1.24,1.71,3.6,3.6,0,0,1-2.17.64,4,4,0,0,1-2.08-.54,3.67,3.67,0,0,1-1.43-1.56,5.78,5.78,0,0,1,0-4.79,3.64,3.64,0,0,1,1.43-1.57,4,4,0,0,1,2.08-.54A3.6,3.6,0,0,1,678.63,239.56Zm-3.91,1.51a3.88,3.88,0,0,0,0,4.72,2.83,2.83,0,0,0,2.16.85,3,3,0,0,0,1.54-.4,2.73,2.73,0,0,0,1.06-1.12,3.54,3.54,0,0,0,.39-1.69,3.58,3.58,0,0,0-.39-1.7,2.7,2.7,0,0,0-1.06-1.13,3,3,0,0,0-1.54-.39A2.84,2.84,0,0,0,674.72,241.07Z"/><path d="M693.84,239.46a3.83,3.83,0,0,1,1.57,1.57,5.32,5.32,0,0,1,0,4.79,3.87,3.87,0,0,1-1.57,1.56,5,5,0,0,1-4.52,0,3.89,3.89,0,0,1-1.58-1.56,5.32,5.32,0,0,1,0-4.79,3.85,3.85,0,0,1,1.58-1.57,5,5,0,0,1,4.52,0Zm-3.71,1.09a2.59,2.59,0,0,0-1.07,1.08,4.11,4.11,0,0,0,0,3.58,2.59,2.59,0,0,0,1.07,1.08,3.18,3.18,0,0,0,2.9,0,2.59,2.59,0,0,0,1.07-1.08,4.11,4.11,0,0,0,0-3.58,2.59,2.59,0,0,0-1.07-1.08,3.18,3.18,0,0,0-2.9,0Z"/><path d="M702.08,246.53v1.28H701a2.77,2.77,0,0,1-2-.64,2.9,2.9,0,0,1-.66-2.14v-4.74H697V239h1.32v-2.19h1.47V239h2.27v1.26h-2.27v4.77a1.65,1.65,0,0,0,.31,1.16,1.5,1.5,0,0,0,1.08.31Z"/><path d="M706.57,239.39a3.75,3.75,0,0,1,2-.51v1.59h-.45a3.15,3.15,0,0,0-2,.63,2.54,2.54,0,0,0-.78,2.09v4.62h-1.46V239h1.46v1.77A3.26,3.26,0,0,1,706.57,239.39Z"/><path d="M716.24,239.46a3.83,3.83,0,0,1,1.57,1.57,5.32,5.32,0,0,1,0,4.79,3.87,3.87,0,0,1-1.57,1.56,5,5,0,0,1-4.52,0,3.89,3.89,0,0,1-1.58-1.56,5.23,5.23,0,0,1,0-4.79,3.85,3.85,0,0,1,1.58-1.57,5,5,0,0,1,4.52,0Zm-3.71,1.09a2.59,2.59,0,0,0-1.07,1.08,4.11,4.11,0,0,0,0,3.58,2.59,2.59,0,0,0,1.07,1.08,3.18,3.18,0,0,0,2.9,0,2.59,2.59,0,0,0,1.07-1.08,4.11,4.11,0,0,0,0-3.58,2.59,2.59,0,0,0-1.07-1.08,3.18,3.18,0,0,0-2.9,0Z"/><path d="M725.43,239.69a3.24,3.24,0,0,1,1.09,2.09h-1.39a2,2,0,0,0-.65-1.29A2.12,2.12,0,0,0,723,240a1.82,1.82,0,0,0-1.22.37,1.28,1.28,0,0,0-.44,1,1.06,1.06,0,0,0,.3.78,1.9,1.9,0,0,0,.73.44c.3.1.7.21,1.21.33a11.24,11.24,0,0,1,1.58.46,2.4,2.4,0,0,1,1,.74,2.11,2.11,0,0,1,.42,1.38,2.18,2.18,0,0,1-.8,1.74,3.26,3.26,0,0,1-2.16.67,4.16,4.16,0,0,1-2.56-.75,3,3,0,0,1-1.16-2.09h1.4a1.86,1.86,0,0,0,.7,1.29,2.51,2.51,0,0,0,1.62.5,1.66,1.66,0,0,0,1.18-.39,1.28,1.28,0,0,0,.42-1,1.1,1.1,0,0,0-.3-.82,1.9,1.9,0,0,0-.75-.46,10.92,10.92,0,0,0-1.23-.34,12,12,0,0,1-1.56-.45,2.52,2.52,0,0,1-1-.71,2,2,0,0,1-.4-1.32,2.2,2.2,0,0,1,.81-1.78,3.36,3.36,0,0,1,2.23-.68A3.52,3.52,0,0,1,725.43,239.69Z"/><path d="M738.76,239.46a3.89,3.89,0,0,1,1.57,1.57,5.4,5.4,0,0,1,0,4.79,3.93,3.93,0,0,1-1.57,1.56,5,5,0,0,1-4.53,0,4,4,0,0,1-1.58-1.56,5.32,5.32,0,0,1,0-4.79,3.91,3.91,0,0,1,1.58-1.57,5,5,0,0,1,4.53,0ZM735,240.55a2.65,2.65,0,0,0-1.07,1.08,4.11,4.11,0,0,0,0,3.58,2.65,2.65,0,0,0,1.07,1.08,3,3,0,0,0,1.45.35,3,3,0,0,0,1.45-.35,2.59,2.59,0,0,0,1.07-1.08,4.11,4.11,0,0,0,0-3.58,2.59,2.59,0,0,0-1.07-1.08,3,3,0,0,0-1.45-.35A3,3,0,0,0,735,240.55Zm4.08-4.08-3.41,1.87v-1l3.41-2Z"/><path d="M745.52,239.39a3.69,3.69,0,0,1,2-.51v1.59h-.45a3.1,3.1,0,0,0-2,.63,2.51,2.51,0,0,0-.79,2.09v4.62H742.8V239h1.45v1.77A3.22,3.22,0,0,1,745.52,239.39Z"/><path d="M754.71,239.56a3.32,3.32,0,0,1,1.24,1.71V239h1.45V248a4.48,4.48,0,0,1-.51,2.16,3.7,3.7,0,0,1-1.44,1.47,4.32,4.32,0,0,1-2.16.53,4.62,4.62,0,0,1-2.89-.86A3.75,3.75,0,0,1,749,249h1.44a2.51,2.51,0,0,0,1,1.38,3.07,3.07,0,0,0,1.83.51,2.7,2.7,0,0,0,2-.76A2.84,2.84,0,0,0,756,248v-2.39a3.32,3.32,0,0,1-1.24,1.71,3.6,3.6,0,0,1-2.17.64,4,4,0,0,1-2.08-.54,3.73,3.73,0,0,1-1.43-1.56,5.78,5.78,0,0,1,0-4.79,3.7,3.7,0,0,1,1.43-1.57,4,4,0,0,1,2.08-.54A3.6,3.6,0,0,1,754.71,239.56Zm-3.91,1.51a3.88,3.88,0,0,0,0,4.72,2.83,2.83,0,0,0,2.16.85,3,3,0,0,0,1.54-.4,2.73,2.73,0,0,0,1.06-1.12,3.54,3.54,0,0,0,.39-1.69,3.58,3.58,0,0,0-.39-1.7,2.7,2.7,0,0,0-1.06-1.13,3,3,0,0,0-1.54-.39A2.84,2.84,0,0,0,750.8,241.07Z"/><path d="M765.49,239.56a3.27,3.27,0,0,1,1.24,1.71V239h1.46v8.78h-1.46v-2.24a3.27,3.27,0,0,1-1.24,1.71,3.58,3.58,0,0,1-2.17.64,4,4,0,0,1-2.07-.54,3.76,3.76,0,0,1-1.44-1.56,5.78,5.78,0,0,1,0-4.79,3.72,3.72,0,0,1,1.44-1.57,4,4,0,0,1,2.07-.54A3.58,3.58,0,0,1,765.49,239.56Zm-3.9,1.51a3.84,3.84,0,0,0,0,4.72,2.81,2.81,0,0,0,2.15.85,2.92,2.92,0,0,0,1.54-.4,2.75,2.75,0,0,0,1.07-1.12,3.66,3.66,0,0,0,.38-1.69,3.7,3.7,0,0,0-.38-1.7,2.72,2.72,0,0,0-1.07-1.13,3,3,0,0,0-1.54-.39A2.82,2.82,0,0,0,761.59,241.07Z"/><path d="M777.61,239.87a3.93,3.93,0,0,1,.95,2.84v5.1H777.1v-5a2.8,2.8,0,0,0-.67-2,2.41,2.41,0,0,0-1.83-.7,2.49,2.49,0,0,0-1.92.77,3.27,3.27,0,0,0-.72,2.27v4.65h-1.45V239H772v2.08a3,3,0,0,1,1.2-1.65,3.48,3.48,0,0,1,2-.58A3.26,3.26,0,0,1,777.61,239.87Z"/><path d="M787,239.46a3.83,3.83,0,0,1,1.57,1.57,5.32,5.32,0,0,1,0,4.79,3.87,3.87,0,0,1-1.57,1.56,5,5,0,0,1-4.52,0,4,4,0,0,1-1.58-1.56,5.32,5.32,0,0,1,0-4.79,3.91,3.91,0,0,1,1.58-1.57,5,5,0,0,1,4.52,0Zm-3.71,1.09a2.59,2.59,0,0,0-1.07,1.08,4.11,4.11,0,0,0,0,3.58,2.59,2.59,0,0,0,1.07,1.08,3.18,3.18,0,0,0,2.9,0,2.59,2.59,0,0,0,1.07-1.08,4.11,4.11,0,0,0,0-3.58,2.59,2.59,0,0,0-1.07-1.08,3.18,3.18,0,0,0-2.9,0Z"/><path d="M796.23,239.69a3.29,3.29,0,0,1,1.1,2.09h-1.4a2,2,0,0,0-.64-1.29,2.16,2.16,0,0,0-1.49-.5,1.82,1.82,0,0,0-1.22.37,1.28,1.28,0,0,0-.44,1,1.06,1.06,0,0,0,.3.78,1.9,1.9,0,0,0,.73.44c.3.1.7.21,1.21.33a11.24,11.24,0,0,1,1.58.46,2.4,2.4,0,0,1,1,.74,2.11,2.11,0,0,1,.43,1.38,2.16,2.16,0,0,1-.81,1.74,3.25,3.25,0,0,1-2.15.67,4.17,4.17,0,0,1-2.57-.75,3,3,0,0,1-1.16-2.09h1.4a1.86,1.86,0,0,0,.7,1.29,2.52,2.52,0,0,0,1.63.5,1.65,1.65,0,0,0,1.17-.39,1.28,1.28,0,0,0,.42-1,1.1,1.1,0,0,0-.3-.82,1.9,1.9,0,0,0-.75-.46,10.92,10.92,0,0,0-1.23-.34,12,12,0,0,1-1.56-.45,2.42,2.42,0,0,1-1-.71,2,2,0,0,1-.41-1.32,2.2,2.2,0,0,1,.81-1.78,3.36,3.36,0,0,1,2.23-.68A3.52,3.52,0,0,1,796.23,239.69Z"/><path d="M800.43,246.1v1.71h-1.76V246.1Z"/></g></g></svg>