<?xml version="1.0" encoding="UTF-8"?>
<svg xmlns="http://www.w3.org/2000/svg" viewBox="0 0 342.86 542.39">
  <defs>
    <style>
      .cls-1 {
        fill: #d16c59;
      }

      .cls-2 {
        fill: #2c364e;
      }

      .cls-3 {
        fill: #5f2c01;
      }

      .cls-4, .cls-5, .cls-6, .cls-7 {
        mix-blend-mode: multiply;
      }

      .cls-4, .cls-8 {
        fill: #c7c9c0;
      }

      .cls-9 {
        fill: #723701;
      }

      .cls-5 {
        fill: #086a7d;
      }

      .cls-5, .cls-6, .cls-7 {
        opacity: .5;
      }

      .cls-10 {
        fill: #979899;
      }

      .cls-11 {
        fill: #fff;
      }

      .cls-12 {
        fill: #f9f2e4;
      }

      .cls-13 {
        fill: #f9f8f7;
      }

      .cls-14 {
        fill: #ad7a5a;
      }

      .cls-15 {
        fill: #bf8a89;
      }

      .cls-16 {
        fill: #b88372;
      }

      .cls-17 {
        fill: #e8d8d9;
      }

      .cls-18 {
        fill: #eaba94;
      }

      .cls-19 {
        fill: #ebb88f;
      }

      .cls-20, .cls-21 {
        isolation: isolate;
      }

      .cls-22 {
        fill: #f1d7c8;
      }

      .cls-23 {
        fill: #b9babc;
      }

      .cls-24 {
        fill: #3f1908;
      }

      .cls-25 {
        fill: #e09a72;
      }

      .cls-26 {
        fill: #8d5b46;
      }

      .cls-6 {
        fill: #153246;
      }

      .cls-27 {
        fill: #2a4c64;
      }

      .cls-28 {
        fill: #602e03;
      }

      .cls-21 {
        opacity: .35;
      }

      .cls-21, .cls-29 {
        fill: #e1e1e1;
      }

      .cls-30 {
        stroke: #c6c6c6;
      }

      .cls-30, .cls-31 {
        stroke-width: .69px;
      }

      .cls-30, .cls-31, .cls-32 {
        fill: none;
        stroke-miterlimit: 10;
      }

      .cls-31 {
        stroke: #000;
      }

      .cls-33 {
        fill: #c1a295;
      }

      .cls-34 {
        fill: #4f291d;
      }

      .cls-35 {
        fill: #612a01;
      }

      .cls-36 {
        fill: #b37e80;
      }

      .cls-7 {
        fill: #cc8a79;
      }

      .cls-32 {
        stroke: #d9d9db;
        stroke-linecap: round;
        stroke-width: 2.78px;
      }

      .cls-37 {
        fill: #e1ab7f;
      }

      .cls-38 {
        fill: #754b39;
      }

      .cls-39 {
        fill: #bf7a5f;
      }

      .cls-40 {
        fill: #5c3a2a;
      }

      .cls-41 {
        fill: #702b21;
      }

      .cls-42 {
        fill: #d36b5a;
      }

      .cls-43 {
        fill: #8b4b3d;
      }

      .cls-44 {
        fill: #f9ba9b;
      }

      .cls-45 {
        fill: #855954;
      }

      .cls-46 {
        fill: #adadad;
      }

      .cls-47 {
        fill: #f9f8f5;
      }

      .cls-48 {
        fill: #70150a;
      }

      .cls-49 {
        fill: #f3d4bd;
      }

      .cls-50 {
        fill: #050303;
      }

      .cls-51 {
        fill: #d4c0f2;
      }

      .cls-52 {
        fill: #6f1507;
      }

      .cls-53 {
        fill: #6f1408;
      }

      .cls-54 {
        fill: #f1e7ff;
      }

      .cls-55 {
        fill: #ae7557;
      }

      .cls-56 {
        fill: #6f3227;
      }

      .cls-57 {
        fill: #d48c5f;
      }

      .cls-58 {
        fill: #622d02;
      }

      .cls-59 {
        fill: #c6c6c6;
      }

      .cls-60 {
        fill: #e5ad82;
      }

      .cls-61 {
        fill: #d9996e;
      }

      .cls-62 {
        fill: #f8e0c6;
      }
    </style>
  </defs>
  <g class="cls-20">
    <g id="recuerda_secciones" data-name="recuerda secciones">
      <g id="cromoblastomicosis">
        <g>
          <ellipse class="cls-21" cx="171.43" cy="524.96" rx="103.86" ry="14.26"/>
          <path class="cls-11" d="m242.76,197.31c-2.09-29.54-20.92-68.62-20.92-68.62-1.91-3.73-15.84-5.07-15.84-5.07l-6.8,6.34s-.5,40.21,10.29,38.86c.41,0,3.52,7.49,6.3,14.76,1.77,4.62,1.89,13.01,2.63,15.45.21.7.33,1.24.38,1.55l2.56,73.49,21.28.7s.49-72.22.12-77.45Z"/>
          <path class="cls-27" d="m132.7,469.23c-1.77,9.69-4.62,25.23-4.64,25.53,0,.31.43,7.2.67,10.91l5.58-5.45,24.46,1.05,3.33,6.12.33.72.7-11.32s-1.08-9.52-2.03-18.4l-2.34-110.24-.07-3.2-1.79-82.81h23.41l-1.77,82.81-.02.91-2.39,112.53c-.96,8.88-2.04,18.4-2.04,18.4l.72,11.32.33-.72,3.33-6.12,24.44-1.05,5.58,5.45c.24-3.71.69-10.6.67-10.91-.02-.29-2.85-15.84-4.62-25.53l1.34-101.78.07-4.79,1.13-86.08.15-11.54c.31-.89.58-2.03.82-3.33,1.07-5.96,1.27-15.46,1.29-21.52,0-3.38-.05-5.7-.05-5.7h-81.4s-.03,2.32-.03,5.7c.02,6.06.21,15.56,1.29,21.52.22,1.31.52,2.44.82,3.33l.15,11.54,1.19,90.87.05,3.86,1.31,97.91Z"/>
          <path class="cls-6" d="m127.89,240.19c.02,6.06.21,15.56,1.29,21.52.22,1.31.52,2.44.82,3.33l.15,11.54,1.19,90.87.05,3.86,27.38-3.18-.07-3.2-1.79-82.81h23.41l-1.77,82.81-.02.91,27.43-3.2,1.13-86.08.15-11.54c.31-.89.58-2.03.82-3.33,1.07-5.96,1.27-15.46,1.29-21.52,0-3.38-.05-5.7-.05-5.7h-81.4s-.03,2.32-.03,5.7Z"/>
          <rect class="cls-10" x="146.16" y="258.83" width="45.06" height="95.9"/>
          <path class="cls-23" d="m146.16,258.83v27.26c12.88,6.29,32.01,11.22,45.06,14.13v-41.38h-45.06Z"/>
          <path class="cls-11" d="m92.52,208.64l23.14-3.57c.39-4.5.69-7.61.81-8.55.05-.31.17-.84.38-1.55.74-2.44,2.39-6.96,4.16-11.58,2.78-7.27,5.89-14.76,6.3-14.76,10.79,1.36,10.29-38.85,10.29-38.85l-6.8-6.34s-13.93,1.34-15.84,5.07c0,0-22.61,48.59-26.14,70.98-1.43,9,1.13,8.88,3.71,9.16Z"/>
          <path class="cls-8" d="m125.16,159.64c-.72-3.55-1.57-8.23-2.08-13.97-.51-5.74-.68-12.54-.03-20.33,0,0,4.61-.31,11.25-3.47,6.64-3.16,15.32-9.19,23.44-9.66h21.9c8.13.47,16.8,6.5,23.44,9.66,6.64,3.16,11.25,3.47,11.25,3.47.65,7.79.48,14.59-.03,20.33-.51,5.74-1.36,10.42-2.08,13.97-.29,4.45-.65,10.43-.91,16.34-.26,5.91-.41,11.76-.3,15.95.17,6.23.6,19.72.98,31.65.38,11.93.73,22.31.73,22.31,0,0-5.5.48-13.02.99-7.53.51-17.09,1.04-25.21,1.13h0v.02h-11.61v-.02c-8.12-.09-17.68-.62-25.21-1.13-7.53-.51-13.02-.99-13.02-.99,0,0,.34-10.38.73-22.31.38-11.93.81-25.42.98-31.65.12-4.19-.04-10.04-.3-15.95-.26-5.91-.62-11.89-.91-16.34Z"/>
          <line class="cls-32" x1="122.35" y1="254.12" x2="140.16" y2="254.12"/>
          <g>
            <g>
              <polygon class="cls-24" points="200.84 498.37 211.57 508.82 221.45 524.13 221.45 531 171.92 531 171.92 515.54 178.22 498.65 200.84 498.37"/>
              <path class="cls-26" d="m172.12,522.74h38.97c.8,0,1.45.65,1.45,1.45v5.9c0,.8-.65,1.45-1.45,1.45h-38.97c-.8,0-1.45-.65-1.45-1.45v-5.9c0-.8.65-1.45,1.45-1.45Z" transform="translate(383.21 1054.28) rotate(180)"/>
              <path class="cls-40" d="m207.59,503.99s.37-1.31-1.37-3.1c-.85-.88-10.52-1.11-13.04.57-2.04,1.36.28,4.42.28,4.42l14.13-1.88Z"/>
              <path class="cls-38" d="m209.61,506.49s.41-1.31-1.5-3.1c-.93-.88-11.51-1.11-14.26.58-2.23,1.36.3,4.42.3,4.42l15.46-1.89Z"/>
              <path class="cls-26" d="m211.7,509.23s.42-1.21-1.53-3.15c-1.07-1.07-12.51-1.12-15.57.47-2.47,1.28.19,4.42.19,4.42l16.91-1.74Z"/>
              <path class="cls-34" d="m223.31,524.13h-4.08s-35.62-.2-35.43,0c.2.2,1.45-11.35,1.45-11.35l7.75-4.11,17.67-.97,7.37,6.14,5.27,10.28Z"/>
              <rect class="cls-14" x="182.48" y="522.74" width="41.87" height="8.8" rx="1.45" ry="1.45" transform="translate(406.83 1054.28) rotate(180)"/>
              <path class="cls-26" d="m205.35,510.43c-.41,1.02,1.22,2.64,3.65,3.63,2.43.99,4.73.97,5.15-.05.41-1.02-1.22-2.64-3.65-3.63-2.43-.99-4.73-.97-5.15.05Z"/>
            </g>
            <g>
              <polygon class="cls-24" points="136.42 498.37 125.69 508.82 115.81 524.13 115.81 531 165.34 531 165.34 515.54 159.04 498.65 136.42 498.37"/>
              <rect class="cls-26" x="124.72" y="522.74" width="41.87" height="8.8" rx="1.45" ry="1.45"/>
              <path class="cls-40" d="m129.67,503.99s-.37-1.31,1.37-3.1c.85-.88,10.52-1.11,13.04.57,2.04,1.36-.28,4.42-.28,4.42l-14.13-1.88Z"/>
              <path class="cls-38" d="m127.65,506.49s-.41-1.31,1.5-3.1c.93-.88,11.51-1.11,14.26.58,2.23,1.36-.3,4.42-.3,4.42l-15.46-1.89Z"/>
              <path class="cls-26" d="m125.56,509.23s-.42-1.21,1.53-3.15c1.07-1.07,12.51-1.12,15.57.47,2.47,1.28-.19,4.42-.19,4.42l-16.91-1.74Z"/>
              <path class="cls-34" d="m113.95,524.13h4.08s35.62-.2,35.43,0c-.2.2-1.45-11.35-1.45-11.35l-7.75-4.11-17.67-.97-7.37,6.14-5.27,10.28Z"/>
              <path class="cls-14" d="m114.36,522.74h38.97c.8,0,1.45.65,1.45,1.45v5.9c0,.8-.65,1.45-1.45,1.45h-38.97c-.8,0-1.45-.65-1.45-1.45v-5.9c0-.8.65-1.45,1.45-1.45Z"/>
              <path class="cls-26" d="m131.91,510.43c.41,1.02-1.22,2.64-3.65,3.63-2.43.99-4.73.97-5.15-.05-.41-1.02,1.22-2.64,3.65-3.63,2.43-.99,4.73-.97,5.15.05Z"/>
            </g>
          </g>
          <polygon class="cls-7" points="122.99 244.74 127.53 247.43 142.92 241.72 137.64 237.36 122.99 244.74"/>
          <polygon class="cls-8" points="154.23 107.27 147.4 120.4 168.96 186.72 188.59 120.71 183.06 107.05 169.87 114.6 154.23 107.27"/>
          <polygon class="cls-8" points="154.23 107.27 147.4 120.4 168.96 186.72 188.59 120.71 183.06 107.05 169.87 114.6 154.23 107.27"/>
          <polygon class="cls-46" points="156.37 129.58 168.7 123.42 180.76 130.16 169.13 115.33 156.37 129.58"/>
          <polygon class="cls-2" points="158.53 240.2 162.54 249.6 168.69 263.47 174.85 249.6 178.86 240.2 172.81 134.33 172.55 129.67 171.99 127.88 165.4 127.88 164.84 129.67 164.64 133.15 158.53 240.2"/>
          <path class="cls-5" d="m164.64,133.15c2.44.84,5.98,1.1,8.17,1.18l-.26-4.66-.56-1.79h-6.59l-.56,1.79-.2,3.48Z"/>
          <path class="cls-2" d="m167.14,117.55c0,.16.96-1.07.96-1.07l1.03-1.16s1.27,1.78,1.27,1.62l5.7,6.91-3.34,7.71h-8.12l-3.34-7.71,5.84-6.31Z"/>
          <path class="cls-11" d="m117.49,357.52h44.93c1.65-1.9,4.24-5.48,5.4-10.42.18-.8.33-1.6.45-2.47h.85c.11.84.25,1.63.42,2.4,1.14,4.98,3.75,8.6,5.41,10.49h44.93s.39-97.4-6.6-122.25c0,0,1-19.58,1.87-42.29.2-4.76.36-9.66.52-14.54.85-24.81,1.27-49.26-.04-53.5,0,0-3.56-1.67-8.47-3.68-.88-.36-1.79-.74-2.74-1.1-2.32-.94-4.84-1.86-7.35-2.69-1.7-.88-3.53-1.81-5.19-2.6-.77-.38-1.51-.73-2.16-1.02-.74-.35-1.38-.61-1.93-.81-.82-.31-2.01-.53-3.35-.7.4,1.35,1.31,3.98,2.36,7.58,1.55,5.29,3.34,12.59,4.03,20.61.73,8-4.35,22.1-9.61,34.2-1.34,3.08-2.82,6.06-4.28,8.75-3.06,5.69-6,10.19-7.4,12.24-.14.21-.28.39-.38.54-.31.43-.46.66-.46.66,0,0-.33-.45-.88-1.26-.96-1.41-2.64-3.95-4.58-7.21-2.25-3.8-4.84-8.58-7.09-13.72-5.26-12.1-10.34-26.21-9.61-34.2.71-8.02,2.5-15.32,4.03-20.61,1.05-3.6,1.95-6.22,2.37-7.58-1.35.17-2.54.39-3.36.7-1.97.73-5.9,2.68-9.28,4.42-2.51.84-5.02,1.76-7.35,2.69-.94.36-1.86.74-2.72,1.1-4.91,2.01-8.46,3.68-8.46,3.68-1.77,5.64-.45,46.97.82,77.39.01.26.03.52.03.77.28,6.85.56,13.12.8,18.25.1,2.12.2,4.05.27,5.75h0c.25,5.12.4,8.18.4,8.18-6.99,24.85-6.6,122.25-6.6,122.25Z"/>
          <path class="cls-8" d="m167.82,195.65v151.43c.19-.79.34-1.6.45-2.46h.86c.1.82.24,1.63.41,2.39v-151.31c-.14.21-.27.39-.38.55-.31.43-.46.65-.46.65,0,0-.33-.45-.88-1.25Z"/>
          <path class="cls-8" d="m172.81,208.93c0,1.34,1.09,2.43,2.43,2.43s2.43-1.09,2.43-2.43-1.09-2.43-2.43-2.43-2.43,1.09-2.43,2.43Z"/>
          <path class="cls-8" d="m172.81,226.68c0,1.34,1.09,2.43,2.43,2.43s2.43-1.09,2.43-2.43-1.09-2.43-2.43-2.43-2.43,1.09-2.43,2.43Z"/>
          <path class="cls-8" d="m172.81,244.43c0,1.34,1.09,2.43,2.43,2.43s2.43-1.09,2.43-2.43-1.09-2.43-2.43-2.43-2.43,1.09-2.43,2.43Z"/>
          <path class="cls-8" d="m172.81,262.18c0,1.34,1.09,2.43,2.43,2.43s2.43-1.09,2.43-2.43-1.09-2.43-2.43-2.43-2.43,1.09-2.43,2.43Z"/>
          <path class="cls-8" d="m172.81,279.93c0,1.34,1.09,2.43,2.43,2.43s2.43-1.09,2.43-2.43-1.09-2.43-2.43-2.43-2.43,1.09-2.43,2.43Z"/>
          <path class="cls-8" d="m172.81,297.68c0,1.34,1.09,2.43,2.43,2.43s2.43-1.09,2.43-2.43-1.09-2.43-2.43-2.43-2.43,1.09-2.43,2.43Z"/>
          <rect class="cls-8" x="187.16" y="248.72" width="22.17" height="1.72" transform="translate(396.5 499.16) rotate(180)"/>
          <path class="cls-8" d="m122.63,203.09c.28,6.85.56,13.12.8,18.25.1,2.12.2,4.05.27,5.75h0s15.53,22.54,15.53,22.54h16.56c-1.21-3.31-6.8-7.67-9.95-9.07-3.13-1.4-5.58-4.35-5.58-4.35l4.02-2.44-21.64-30.67Z"/>
          <polygon class="cls-18" points="122.99 244.74 127.53 247.43 129.72 248.73 151.24 248.73 150.02 246.66 143.41 242.13 142.92 241.72 137.64 237.36 122.99 244.74"/>
          <path class="cls-11" d="m113.57,197.04l28.61,38.92-22.33,13.31s-30.7-38.12-31.4-44.03c-.7-5.91,6.28-20.68,6.28-20.68l18.84,12.47Z"/>
          <rect class="cls-8" x="125.78" y="248.72" width="31.06" height="1.72" transform="translate(282.63 499.16) rotate(180)"/>
          <g>
            <path class="cls-4" d="m169.29,196.25c20.78-8.21,34.58-29.41,34.58-29.41l-8.45-4.87,10.74-4.87s-2.44-15.03-6.44-26.76c-2.4-7.01-5.57-12.33-7.71-15.49-.77-.38-1.51-.72-2.16-1.01-.74-.34-1.39-.62-1.92-.81-.82-.31-2.01-.53-3.35-.7.4,1.36,1.31,3.99,2.35,7.58,1.55,5.29,3.33,12.59,4.04,20.61.72,8-4.36,22.11-9.62,34.2-4.47,10.29-10.39,19.14-12.06,21.54Z"/>
            <path class="cls-4" d="m168.09,196.25c-20.78-8.21-34.58-29.41-34.58-29.41l8.45-4.87-10.74-4.87s2.44-15.03,6.44-26.76c2.4-7.01,5.57-12.33,7.71-15.49.77-.38,1.51-.72,2.16-1.01.74-.34,1.39-.62,1.92-.81.82-.31,2.01-.53,3.35-.7-.4,1.36-1.31,3.99-2.35,7.58-1.55,5.29-3.33,12.59-4.04,20.61-.72,8,4.36,22.11,9.62,34.2,4.47,10.29,10.39,19.14,12.06,21.54Z"/>
          </g>
          <g>
            <path class="cls-11" d="m168.7,196.91c14.69-8.79,31.26-30.92,31.26-30.92l-8.38-4.95,12.02-6.01s.21-2.13-3.23-18.04c-2.22-10.27-7.33-18.59-10.65-23.16-.74-.34-1.39-.62-1.92-.81-.82-.31-2.01-.53-3.35-.7.4,1.36,1.31,3.99,2.35,7.58,1.55,5.29,3.33,12.59,4.04,20.61.72,8-4.36,22.11-9.62,34.2-5.26,12.09-12.52,22.19-12.52,22.19Z"/>
            <path class="cls-11" d="m168.7,196.91c-14.69-8.79-31.26-30.92-31.26-30.92l8.38-4.95-12.02-6.01s-.21-2.13,3.23-18.04c2.22-10.27,7.33-18.59,10.65-23.16.74-.34,1.39-.62,1.92-.81.82-.31,2.01-.53,3.35-.7-.4,1.36-1.31,3.99-2.35,7.58-1.55,5.29-3.33,12.59-4.04,20.61-.72,8,4.36,22.11,9.62,34.2,5.26,12.09,12.52,22.19,12.52,22.19Z"/>
            <g>
              <ellipse class="cls-21" cx="171.43" cy="524.96" rx="103.86" ry="14.26"/>
              <path class="cls-11" d="m242.76,197.31c-2.09-29.54-20.92-68.62-20.92-68.62-1.91-3.73-15.84-5.07-15.84-5.07l-6.8,6.34s-.5,40.21,10.29,38.86c.41,0,3.52,7.49,6.3,14.76,1.77,4.62,1.89,13.01,2.63,15.45.21.7.33,1.24.38,1.55l2.56,73.49,21.28.7s.49-72.22.12-77.45Z"/>
              <path class="cls-27" d="m132.7,469.23c-1.77,9.69-4.62,25.23-4.64,25.53,0,.31.43,7.2.67,10.91l5.58-5.45,24.46,1.05,3.33,6.12.33.72.7-11.32s-1.08-9.52-2.03-18.4l-2.34-110.24-.07-3.2-1.79-82.81h23.41l-1.77,82.81-.02.91-2.39,112.53c-.96,8.88-2.04,18.4-2.04,18.4l.72,11.32.33-.72,3.33-6.12,24.44-1.05,5.58,5.45c.24-3.71.69-10.6.67-10.91-.02-.29-2.85-15.84-4.62-25.53l1.34-101.78.07-4.79,1.13-86.08.15-11.54c.31-.89.58-2.03.82-3.33,1.07-5.96,1.27-15.46,1.29-21.52,0-3.38-.05-5.7-.05-5.7h-81.4s-.03,2.32-.03,5.7c.02,6.06.21,15.56,1.29,21.52.22,1.31.52,2.44.82,3.33l.15,11.54,1.19,90.87.05,3.86,1.31,97.91Z"/>
              <path class="cls-6" d="m127.89,240.19c.02,6.06.21,15.56,1.29,21.52.22,1.31.52,2.44.82,3.33l.15,11.54,1.19,90.87.05,3.86,27.38-3.18-.07-3.2-1.79-82.81h23.41l-1.77,82.81-.02.91,27.43-3.2,1.13-86.08.15-11.54c.31-.89.58-2.03.82-3.33,1.07-5.96,1.27-15.46,1.29-21.52,0-3.38-.05-5.7-.05-5.7h-81.4s-.03,2.32-.03,5.7Z"/>
              <rect class="cls-10" x="146.16" y="258.83" width="45.06" height="95.9"/>
              <path class="cls-23" d="m146.16,258.83v27.26c12.88,6.29,32.01,11.22,45.06,14.13v-41.38h-45.06Z"/>
              <path class="cls-11" d="m92.52,208.64l23.14-3.57c.39-4.5.69-7.61.81-8.55.05-.31.17-.84.38-1.55.74-2.44,2.39-6.96,4.16-11.58,2.78-7.27,5.89-14.76,6.3-14.76,10.79,1.36,10.29-38.85,10.29-38.85l-6.8-6.34s-13.93,1.34-15.84,5.07c0,0-22.61,48.59-26.14,70.98-1.43,9,1.13,8.88,3.71,9.16Z"/>
              <path class="cls-54" d="m125.16,159.64c-.72-3.55-1.57-8.23-2.08-13.97-.51-5.74-.68-12.54-.03-20.33,0,0,4.61-.31,11.25-3.47,6.64-3.16,15.32-9.19,23.44-9.66h21.9c8.13.47,16.8,6.5,23.44,9.66,6.64,3.16,11.25,3.47,11.25,3.47.65,7.79.48,14.59-.03,20.33-.51,5.74-1.36,10.42-2.08,13.97-.29,4.45-.65,10.43-.91,16.34-.26,5.91-.41,11.76-.3,15.95.17,6.23.6,19.72.98,31.65.38,11.93.73,22.31.73,22.31,0,0-5.5.48-13.02.99-7.53.51-17.09,1.04-25.21,1.13h0v.02h-11.61v-.02c-8.12-.09-17.68-.62-25.21-1.13-7.53-.51-13.02-.99-13.02-.99,0,0,.34-10.38.73-22.31.38-11.93.81-25.42.98-31.65.12-4.19-.04-10.04-.3-15.95-.26-5.91-.62-11.89-.91-16.34Z"/>
              <line class="cls-32" x1="122.35" y1="254.12" x2="140.16" y2="254.12"/>
              <g>
                <g>
                  <polygon class="cls-24" points="200.84 498.37 211.57 508.82 221.45 524.13 221.45 531 171.92 531 171.92 515.54 178.22 498.65 200.84 498.37"/>
                  <path class="cls-26" d="m172.12,522.74h38.97c.8,0,1.45.65,1.45,1.45v5.9c0,.8-.65,1.45-1.45,1.45h-38.97c-.8,0-1.45-.65-1.45-1.45v-5.9c0-.8.65-1.45,1.45-1.45Z" transform="translate(383.21 1054.28) rotate(180)"/>
                  <path class="cls-40" d="m207.59,503.99s.37-1.31-1.37-3.1c-.85-.88-10.52-1.11-13.04.57-2.04,1.36.28,4.42.28,4.42l14.13-1.88Z"/>
                  <path class="cls-38" d="m209.61,506.49s.41-1.31-1.5-3.1c-.93-.88-11.51-1.11-14.26.58-2.23,1.36.3,4.42.3,4.42l15.46-1.89Z"/>
                  <path class="cls-26" d="m211.7,509.23s.42-1.21-1.53-3.15c-1.07-1.07-12.51-1.12-15.57.47-2.47,1.28.19,4.42.19,4.42l16.91-1.74Z"/>
                  <path class="cls-34" d="m223.31,524.13h-4.08s-35.62-.2-35.43,0c.2.2,1.45-11.35,1.45-11.35l7.75-4.11,17.67-.97,7.37,6.14,5.27,10.28Z"/>
                  <rect class="cls-14" x="182.48" y="522.74" width="41.87" height="8.8" rx="1.45" ry="1.45" transform="translate(406.83 1054.28) rotate(180)"/>
                  <path class="cls-26" d="m205.35,510.43c-.41,1.02,1.22,2.64,3.65,3.63,2.43.99,4.73.97,5.15-.05.41-1.02-1.22-2.64-3.65-3.63-2.43-.99-4.73-.97-5.15.05Z"/>
                </g>
                <g>
                  <polygon class="cls-24" points="136.42 498.37 125.69 508.82 115.81 524.13 115.81 531 165.34 531 165.34 515.54 159.04 498.65 136.42 498.37"/>
                  <rect class="cls-26" x="124.72" y="522.74" width="41.87" height="8.8" rx="1.45" ry="1.45"/>
                  <path class="cls-40" d="m129.67,503.99s-.37-1.31,1.37-3.1c.85-.88,10.52-1.11,13.04.57,2.04,1.36-.28,4.42-.28,4.42l-14.13-1.88Z"/>
                  <path class="cls-38" d="m127.65,506.49s-.41-1.31,1.5-3.1c.93-.88,11.51-1.11,14.26.58,2.23,1.36-.3,4.42-.3,4.42l-15.46-1.89Z"/>
                  <path class="cls-26" d="m125.56,509.23s-.42-1.21,1.53-3.15c1.07-1.07,12.51-1.12,15.57.47,2.47,1.28-.19,4.42-.19,4.42l-16.91-1.74Z"/>
                  <path class="cls-34" d="m113.95,524.13h4.08s35.62-.2,35.43,0c-.2.2-1.45-11.35-1.45-11.35l-7.75-4.11-17.67-.97-7.37,6.14-5.27,10.28Z"/>
                  <path class="cls-14" d="m114.36,522.74h38.97c.8,0,1.45.65,1.45,1.45v5.9c0,.8-.65,1.45-1.45,1.45h-38.97c-.8,0-1.45-.65-1.45-1.45v-5.9c0-.8.65-1.45,1.45-1.45Z"/>
                  <path class="cls-26" d="m131.91,510.43c.41,1.02-1.22,2.64-3.65,3.63-2.43.99-4.73.97-5.15-.05-.41-1.02,1.22-2.64,3.65-3.63,2.43-.99,4.73-.97,5.15.05Z"/>
                </g>
              </g>
              <polygon class="cls-7" points="122.99 244.74 127.53 247.43 142.92 241.72 137.64 237.36 122.99 244.74"/>
              <polygon class="cls-8" points="154.23 107.27 147.4 120.4 168.96 186.72 188.59 120.71 183.06 107.05 169.87 114.6 154.23 107.27"/>
              <polygon class="cls-54" points="154.23 107.27 147.4 120.4 168.96 186.72 188.59 120.71 183.06 107.05 169.87 114.6 154.23 107.27"/>
              <polygon class="cls-51" points="156.37 129.58 168.7 123.42 180.76 130.16 169.13 115.33 156.37 129.58"/>
              <polygon class="cls-2" points="158.53 240.2 162.54 249.6 168.69 263.47 174.85 249.6 178.86 240.2 172.81 134.33 172.55 129.67 171.99 127.88 165.4 127.88 164.84 129.67 164.64 133.15 158.53 240.2"/>
              <path class="cls-5" d="m164.64,133.15c2.44.84,5.98,1.1,8.17,1.18l-.26-4.66-.56-1.79h-6.59l-.56,1.79-.2,3.48Z"/>
              <path class="cls-2" d="m167.14,117.55c0,.16.96-1.07.96-1.07l1.03-1.16s1.27,1.78,1.27,1.62l5.7,6.91-3.34,7.71h-8.12l-3.34-7.71,5.84-6.31Z"/>
              <path class="cls-11" d="m117.49,357.52h44.93c1.65-1.9,4.24-5.48,5.4-10.42.18-.8.33-1.6.45-2.47h.85c.11.84.25,1.63.42,2.4,1.14,4.98,3.75,8.6,5.41,10.49h44.93s.39-97.4-6.6-122.25c0,0,1-19.58,1.87-42.29.2-4.76.36-9.66.52-14.54.85-24.81,1.27-49.26-.04-53.5,0,0-3.56-1.67-8.47-3.68-.88-.36-1.79-.74-2.74-1.1-2.32-.94-4.84-1.86-7.35-2.69-1.7-.88-3.53-1.81-5.19-2.6-.77-.38-1.51-.73-2.16-1.02-.74-.35-1.38-.61-1.93-.81-.82-.31-2.01-.53-3.35-.7.4,1.35,1.31,3.98,2.36,7.58,1.55,5.29,3.34,12.59,4.03,20.61.73,8-4.35,22.1-9.61,34.2-1.34,3.08-2.82,6.06-4.28,8.75-3.06,5.69-6,10.19-7.4,12.24-.14.21-.28.39-.38.54-.31.43-.46.66-.46.66,0,0-.33-.45-.88-1.26-.96-1.41-2.64-3.95-4.58-7.21-2.25-3.8-4.84-8.58-7.09-13.72-5.26-12.1-10.34-26.21-9.61-34.2.71-8.02,2.5-15.32,4.03-20.61,1.05-3.6,1.95-6.22,2.37-7.58-1.35.17-2.54.39-3.36.7-1.97.73-5.9,2.68-9.28,4.42-2.51.84-5.02,1.76-7.35,2.69-.94.36-1.86.74-2.72,1.1-4.91,2.01-8.46,3.68-8.46,3.68-1.77,5.64-.45,46.97.82,77.39.01.26.03.52.03.77.28,6.85.56,13.12.8,18.25.1,2.12.2,4.05.27,5.75h0c.25,5.12.4,8.18.4,8.18-6.99,24.85-6.6,122.25-6.6,122.25Z"/>
              <path class="cls-8" d="m167.82,195.65v151.43c.19-.79.34-1.6.45-2.46h.86c.1.82.24,1.63.41,2.39v-151.31c-.14.21-.27.39-.38.55-.31.43-.46.65-.46.65,0,0-.33-.45-.88-1.25Z"/>
              <path class="cls-8" d="m172.81,208.93c0,1.34,1.09,2.43,2.43,2.43s2.43-1.09,2.43-2.43-1.09-2.43-2.43-2.43-2.43,1.09-2.43,2.43Z"/>
              <path class="cls-8" d="m172.81,226.68c0,1.34,1.09,2.43,2.43,2.43s2.43-1.09,2.43-2.43-1.09-2.43-2.43-2.43-2.43,1.09-2.43,2.43Z"/>
              <path class="cls-8" d="m172.81,244.43c0,1.34,1.09,2.43,2.43,2.43s2.43-1.09,2.43-2.43-1.09-2.43-2.43-2.43-2.43,1.09-2.43,2.43Z"/>
              <path class="cls-8" d="m172.81,262.18c0,1.34,1.09,2.43,2.43,2.43s2.43-1.09,2.43-2.43-1.09-2.43-2.43-2.43-2.43,1.09-2.43,2.43Z"/>
              <path class="cls-8" d="m172.81,279.93c0,1.34,1.09,2.43,2.43,2.43s2.43-1.09,2.43-2.43-1.09-2.43-2.43-2.43-2.43,1.09-2.43,2.43Z"/>
              <path class="cls-8" d="m172.81,297.68c0,1.34,1.09,2.43,2.43,2.43s2.43-1.09,2.43-2.43-1.09-2.43-2.43-2.43-2.43,1.09-2.43,2.43Z"/>
              <rect class="cls-8" x="187.16" y="248.72" width="22.17" height="1.72" transform="translate(396.5 499.16) rotate(180)"/>
              <path class="cls-8" d="m122.63,203.09c.28,6.85.56,13.12.8,18.25.1,2.12.2,4.05.27,5.75h0s15.53,22.54,15.53,22.54h16.56c-1.21-3.31-6.8-7.67-9.95-9.07-3.13-1.4-5.58-4.35-5.58-4.35l4.02-2.44-21.64-30.67Z"/>
              <polygon class="cls-18" points="122.99 244.74 127.53 247.43 129.72 248.73 151.24 248.73 150.02 246.66 143.41 242.13 142.92 241.72 137.64 237.36 122.99 244.74"/>
              <path class="cls-11" d="m113.57,197.04l28.61,38.92-22.33,13.31s-30.7-38.12-31.4-44.03c-.7-5.91,6.28-20.68,6.28-20.68l18.84,12.47Z"/>
              <rect class="cls-8" x="125.78" y="248.72" width="31.06" height="1.72" transform="translate(282.63 499.16) rotate(180)"/>
              <g>
                <path class="cls-4" d="m169.29,196.25c20.78-8.21,34.58-29.41,34.58-29.41l-8.45-4.87,10.74-4.87s-2.44-15.03-6.44-26.76c-2.4-7.01-5.57-12.33-7.71-15.49-.77-.38-1.51-.72-2.16-1.01-.74-.34-1.39-.62-1.92-.81-.82-.31-2.01-.53-3.35-.7.4,1.36,1.31,3.99,2.35,7.58,1.55,5.29,3.33,12.59,4.04,20.61.72,8-4.36,22.11-9.62,34.2-4.47,10.29-10.39,19.14-12.06,21.54Z"/>
                <path class="cls-4" d="m168.09,196.25c-20.78-8.21-34.58-29.41-34.58-29.41l8.45-4.87-10.74-4.87s2.44-15.03,6.44-26.76c2.4-7.01,5.57-12.33,7.71-15.49.77-.38,1.51-.72,2.16-1.01.74-.34,1.39-.62,1.92-.81.82-.31,2.01-.53,3.35-.7-.4,1.36-1.31,3.99-2.35,7.58-1.55,5.29-3.33,12.59-4.04,20.61-.72,8,4.36,22.11,9.62,34.2,4.47,10.29,10.39,19.14,12.06,21.54Z"/>
              </g>
              <g>
                <path class="cls-11" d="m168.7,196.91c14.69-8.79,31.26-30.92,31.26-30.92l-8.38-4.95,12.02-6.01s.21-2.13-3.23-18.04c-2.22-10.27-7.33-18.59-10.65-23.16-.74-.34-1.39-.62-1.92-.81-.82-.31-2.01-.53-3.35-.7.4,1.36,1.31,3.99,2.35,7.58,1.55,5.29,3.33,12.59,4.04,20.61.72,8-4.36,22.11-9.62,34.2-5.26,12.09-12.52,22.19-12.52,22.19Z"/>
                <path class="cls-11" d="m168.7,196.91c-14.69-8.79-31.26-30.92-31.26-30.92l8.38-4.95-12.02-6.01s-.21-2.13,3.23-18.04c2.22-10.27,7.33-18.59,10.65-23.16.74-.34,1.39-.62,1.92-.81.82-.31,2.01-.53,3.35-.7-.4,1.36-1.31,3.99-2.35,7.58-1.55,5.29-3.33,12.59-4.04,20.61-.72,8,4.36,22.11,9.62,34.2,5.26,12.09,12.52,22.19,12.52,22.19Z"/>
              </g>
              <g>
                <ellipse class="cls-29" cx="142.09" cy="149.83" rx="6.56" ry="6.92" transform="translate(-29.45 34.88) rotate(-12.69)"/>
                <ellipse class="cls-59" cx="140.65" cy="149.51" rx="5.25" ry="5.61" transform="translate(-29.97 35.39) rotate(-12.97)"/>
                <polygon class="cls-59" points="137.68 140.4 138.95 140.08 140.08 144.55 138.81 144.88 137.68 140.4"/>
                <path class="cls-30" d="m188.75,149.81l-1.49,26.24s-.29,6.88,4.33,9.1"/>
                <path class="cls-30" d="m204.73,148.29l3.76,26.88s.88,7.05-3.95,9.6"/>
                <path class="cls-31" d="m138.48,140.88s.15-25.9,13.95-32.15c10.93-4.95,24.85-4.69,34.29,4.04,3.68,3.41,6.24,7.89,7.56,12.76.99,3.67,2.28,9.05,2.4,12.73"/>
                <path class="cls-31" d="m188.68,150.85s-3.39-13.43,7.58-12.83c-.03-.04,8.32-2.73,8.79,10.69"/>
                <path class="cls-50" d="m203.38,183.37c-.55.11-1.13.2-1.6.52s-.79.95-.54,1.47c.16.34.52.54.89.6s.74,0,1.11-.06c.64-.11,1.28-.23,1.88-.47s1.16-.62,1.53-1.16c.06-.09.12-.19.13-.29.06-.45-.45-1.37-.91-1.37-.35,0-.88.34-1.22.44-.41.13-.83.24-1.26.33Z"/>
                <path class="cls-50" d="m189.99,185.05c.26.25.53.51.83.71.75.48,1.67.58,2.56.61.4.01.81.02,1.18-.11s.73-.41.84-.79c.18-.62-.33-1.25-.92-1.49-1.09-.43-2.27-.17-3.38-.63-1.12-.47-2.05.79-1.12,1.7Z"/>
              </g>
              <g>
                <path class="cls-18" d="m239.64,314.05c-.66,7.17-2.33,10.24-3.67,10.83-.27.11-.52.14-.75.07-.66,1.38-2.57,2.51-3.99,2.41-.33-.03-.63-.11-.89-.29-.1.14-.2.27-.29.38-.88,1.02-1.27,1.13-2.19,1.28-1.14.21-2.12-.18-2.75-.99-.52-.7-.8-1.69-.74-2.87-.73.52-1.44.71-2.05.5-2.46-.85-1.98-5.47-1.98-5.47,0,0,.21-4.49,1.12-9.53.88-4.73-.56-12.66-.7-13.27,0,.6-1.97,7.69-5.18,10.56-3.27,2.93-5.78,1.16-4.93-1.44.85-2.6,1.14-7.49,2-10.63.88-3.13,1.77-4.77,4.1-7.51,2.36-2.72,4.97-4.79,6.99-9.15.32-.7.6-1.59.82-2.6.17-.68.31-1.41.42-2.16l14.58.49c-.06,1.52-.13,3.1-.2,4.66-.11,2.01-.24,4-.4,5.87.56,9.66,1.19,23.18.68,28.86Z"/>
                <path class="cls-57" d="m239.56,274.66c-.06,1.52-.13,3.1-.2,4.66-4.74-.84-11.08-2.18-14.81-2.99.17-.68.31-1.41.42-2.16l14.58.49Z"/>
                <path class="cls-57" d="m228.24,309.43c-.37,3.77-2.45,14.79-3.13,18.3-.52-.69-.81-1.68-.74-2.87,0,0,2.63-11.91,3.13-15.73.46-3.58.09-10.14.05-10.92.12.7,1.11,6.96.69,11.22Z"/>
                <path class="cls-57" d="m233.29,313.71c-.25,2.69-1.21,8.66-2.06,13.66-.34-.03-.63-.11-.89-.29-.1.14-.2.26-.3.36.82-4.24,2.15-11.18,2.49-14.06.51-4.02.14-11.36.11-12.16.12.79,1.09,7.76.65,12.49Z"/>
                <path class="cls-57" d="m237.96,314.14c-.13,3-1.32,8.09-1.99,10.74-.26.11-.52.13-.74.07,0,0,2-9.44,2.11-10.89.11-1.45-.31-11.59-.31-11.59,0,0,1.1,7.49.92,11.67Z"/>
              </g>
              <polygon class="cls-18" points="159.75 97.82 157.78 111.67 169.58 114.97 178.76 116.29 180.07 99.8 159.75 97.82"/>
              <g>
                <path class="cls-19" d="m146.84,58.24c-.05-1-.1-1.99-.15-2.99-.05-1.05,0-2.18-.54-3.12-1.51-2.6-4.74-1.83-6.54-.04-1.79,1.77-1.8,3.97-1.28,6.28.49,2.18,1.68,3.56,3.85,4.19,1.7.5,3.57-.6,4.03-2.3,0-.03,0-.06.02-.1.41-.55.66-1.22.63-1.93Z"/>
                <path class="cls-37" d="m145.25,55.79c-.03-.58-.02-1.22-.23-1.76-.13-.33-.33-.59-.69-.69-.02,0-.03,0-.05,0,.04-.36.07-.73.08-1.09,0-.33,0-.69-.18-.99-.22-.35-.55-.53-.93-.65-.56-.17-1.19-.22-1.75-.05-.48.15-.9.43-1.3.73-.18.13-.31.26-.4.47-.08.2-.12.44-.05.64.13.42.46.66.88.71,0,0-.02,0-.03,0,.12.02.24.04.36.08,0,0,0,0,0,0,.03.02.06.04.09.06,0,0,0,0,0,0,.04.04.07.08.11.12.08.09.16.19.24.28.02.03.05.06.07.09.01.02.03.04.04.06.07.1.13.19.19.3.02.03.03.06.04.08-.33.2-.64.43-.91.71-.67.73-1.03,1.73-.94,2.73.19,2.07,1.77,3.53,3.7,4.05.49.13,1.1-.16,1.21-.69.24-1.16.39-2.34.43-3.52.02-.56.02-1.12,0-1.67Z"/>
                <path class="cls-19" d="m192.13,58.24c.05-1,.1-1.99.15-2.99.05-1.05,0-2.18.54-3.12,1.51-2.6,4.74-1.83,6.54-.04,1.79,1.77,1.8,3.97,1.28,6.28-.49,2.18-1.68,3.56-3.85,4.19-1.7.5-3.57-.6-4.03-2.3,0-.03,0-.06-.02-.1-.41-.55-.66-1.22-.63-1.93Z"/>
                <path class="cls-37" d="m193.71,55.79c.03-.58.02-1.22.23-1.76.13-.33.33-.59.69-.69.02,0,.03,0,.05,0-.04-.36-.07-.73-.08-1.09,0-.33,0-.69.18-.99.22-.35.55-.53.93-.65.56-.17,1.19-.22,1.75-.05.48.15.9.43,1.3.73.18.13.31.26.4.47.08.2.12.44.05.64-.13.42-.46.66-.88.71,0,0,.02,0,.03,0-.12.02-.24.04-.36.08,0,0,0,0,0,0-.03.02-.06.04-.09.06,0,0,0,0,0,0-.04.04-.07.08-.11.12-.08.09-.16.19-.24.28-.02.03-.05.06-.07.09-.01.02-.03.04-.04.06-.07.1-.13.19-.19.3-.02.03-.03.06-.04.08.33.2.64.43.91.71.67.73,1.03,1.73.94,2.73-.19,2.07-1.77,3.53-3.7,4.05-.49.13-1.1-.16-1.21-.69-.24-1.16-.39-2.34-.43-3.52-.02-.56-.02-1.12,0-1.67Z"/>
              </g>
              <g>
                <g>
                  <path class="cls-60" d="m170.01,77.28l-.33,26.72c21.63-3.3,24.26-16.49,24.26-16.49l.98-57.72-24.58,2.31-.33,32.65v12.53Z"/>
                  <path class="cls-18" d="m144.77,28.79l-.66,58.05s4.59,13.85,26.22,17.15v-27.71l2.62-.66-1.97-11.87-.66-31.66-25.57-3.3Z"/>
                </g>
                <path class="cls-25" d="m153.62,33.74c3.64-.62,6.76,1.58,10.24,1.97,4.94.52,10.4.65,15.38-.14,3.33-.95,6.92-1.78,10.37-2.05.72-.04,1.71-.35,2.43.28.86,1.03.94,2.27,1.1,3.52.02.28-.2.53-.48.55-.27.02-.5-.18-.54-.44-.12-.82-.38-1.61-.73-2.34-.19-.33-.09-.32-.41-.34-3.81.47-7.67,1.5-11.34,2.63-5.35.96-10.63.85-16.07.18-3.65-.5-6.64-2.34-9.94-3.81h0Z"/>
                <path class="cls-61" d="m165.38,75.58c.22-.09.32.07.48.14,2.1,1.4,4.59.97,6.86.29.03-.01.07.03.04.06-1.85,2.09-5,1.18-7.09-.03-.13-.12-.35-.15-.34-.4,0-.03.02-.05.04-.06h0Z"/>
                <path class="cls-57" d="m159.87,101.29c3.32.79,6.48,2.5,9.84,2.9,3.11-.67,6.18-1.66,9.12-2.9.07-.03.13.08.06.12-2.84,1.61-5.99,2.92-9.22,3.48-3.54-.46-6.58-2.26-9.84-3.48-.07-.02-.05-.14.04-.12h0Z"/>
                <path class="cls-57" d="m169.78,98.92c.15.03.31.05.46,0,.08-.03.15-.08.22-.13.17-.12.34-.25.52-.37.4-.28.81-.59,1.02-1.03-.06-.1-.2-.11-.32-.1-.61.03-1.22.05-1.83.08-.44.02-1.27-.11-1.65.12-.83.49,1.15,1.35,1.59,1.44Z"/>
              </g>
              <path class="cls-3" d="m152.8,47.81c2.12-1.67,4.31-4.58,7.38-4.1.72.1,1.44.11,2.12.39.22.11.5.22.57.72.02.12-.06.2-.14.26-.34.3-.51.29-.73.29-1.44-.11-2.93-.61-4.31.02-1.35.63-3.38,1.92-4.72,2.65-.15.09-.31-.13-.17-.24h0Z"/>
              <path class="cls-3" d="m185.58,48.05l-2.4-1.38c-1.08-.58-2.24-1.46-3.48-1.58-1.01-.11-2.13.22-3.15.28-.22.02-.5-.05-.8-.35-.06-.05-.09-.13-.08-.21.15-.77.73-.77,1.27-.92.99-.16,1.93-.34,2.96-.15,1.5.23,2.73,1.33,3.74,2.24,0,0,2.09,1.81,2.09,1.81.13.11-.02.34-.17.24h0Z"/>
              <path class="cls-28" d="m160.27,51.7c.7.4,1.14,1.14,1.45,1.89.37.91.59,1.93.37,2.89-.08.35-.24.7-.54.88-.21.12-.47.15-.71.16-1,.07-2,.08-3,.05-.16,0-.33-.01-.49-.07-.57-.21-.72-.92-.8-1.52-.03-.28-.06-.55-.1-.83-.02-.15-.03-.32.07-.43.07-.08.19-.1.3-.12.35-.05.71-.08,1.04-.2s.65-.35.78-.68c.26-.71-.71-1.41-.37-1.95s1.54-.33,1.99-.07Z"/>
              <path class="cls-28" d="m179.94,51.7c.7.4,1.14,1.14,1.45,1.89.37.91.59,1.93.37,2.89-.08.35-.24.7-.54.88-.21.12-.47.15-.71.16-1,.07-2,.08-3,.05-.16,0-.33-.01-.49-.07-.57-.21-.72-.92-.8-1.52-.03-.28-.06-.55-.1-.83-.02-.15-.03-.32.07-.43.07-.08.19-.1.3-.12.35-.05.71-.08,1.04-.2s.65-.35.78-.68c.26-.71-.71-1.41-.37-1.95s1.54-.33,1.99-.07Z"/>
              <g>
                <path class="cls-58" d="m141.99,43.05c-.25-2.34-.51-4.68-.76-7.01-.52-4.83-.97-10.04,1.46-14.23.29-.51.63-1,.81-1.56.2-.63.18-1.31.2-1.97.1-3.73,1.73-7.96,4.35-10.6,2.62-2.64,3.74-4.36,6.79-4.52.38-.02.77,0,1.11.16.59.28.89.93,1.2,1.51,2.36,4.34,6.33,7,11.22,7.47,4.89.47,11.05-.89,15.94-.36,1.23.13,2.45.35,3.62.76,1.73.6,3.29,1.61,4.79,2.67,1.06.74,2.11,1.52,2.94,2.51,1.24,1.49.79,3.04.9,4.98.51,8.95,1.31,19.13-1.76,27.73-.35-5.12-.03-10.91-.38-16.03-.03-.39-.06-.8-.26-1.13-.59-.96-2.02-.64-3.08-.27-2.63.92-6.05,1.46-8.84,1.59-2.17.1-4.34.61-6.51.7-5.33.22-9.33.6-15.89-.32-1.68-.24-3.14-1.28-4.74-1.84-2.46-.86-5.11-1.15-7.7-.84-.23.03-.46.06-.66.19-.35.22-.47.67-.56,1.07-.57,2.53-1.15,5.73-1.58,8.3-.37,2.24.35,6.6-.5,8.56-1.51-1.1-1.93-5.75-2.13-7.51Z"/>
                <path class="cls-35" d="m152.74,29.28c-.95-.36-1.92-.73-2.77-1.29-2.13-1.38-3.4-3.82-3.93-6.31-.53-2.49-.41-5.07-.28-7.61-1.79,1.45-2.44,3.92-2.45,6.23,0,.94.08,1.89.42,2.76.38.99,1.05,1.83,1.71,2.65,2.11,2.63,4.43,5.4,7.67,6.28.69.19,3.57.6,3.69-.57s-3.31-1.86-4.05-2.15Z"/>
                <path class="cls-9" d="m152.16,18.53c.36,5.09,2.37,10.49,6.77,13.02-1.69-.56-3.37-1.16-5.03-1.8-2.31-.89-4.67-1.91-6.31-3.77-1.3-1.47-2.05-3.37-2.45-5.3-.77-3.67-.33-7.65,1.52-10.9.75-1.32,7.68-8.41,8-4.46.14,1.71-1.68,4.35-2.05,6.13-.49,2.32-.61,4.72-.45,7.08Z"/>
              </g>
              <g>
                <path class="cls-48" d="m160.45,88.79c-.34-.55-.75-1.07-1-1.68-.39-.93-.48-1.9-.32-2.89.09-.56.41-.99,1.01-1.13.08-.05.17-.01.2.05.13.28.36.53.26.89-.09.3-.1.63-.38.85-.09.07-.03.21-.06.31-.06.26-.18.32-.41.2.13.11.5.2.67.17.09-.02.18-.05.28-.04.26.02.49-.02.71-.2.15-.13.32-.08.45.07.25.27.52.51.85.67.15.07.3.12.47.09.19-.03.35.02.5.13.11.08.24.13.36.18.26.1.27.25.06.43-.36.31-.57.7-.5,1.19,0,.07.03.14,0,.2-.16.31.01.59.06.88.01.09.04.16.16.16.17.01.2.13.19.27-.01.13-.02.26-.09.37-.12.18-.06.27.12.34-.04-.33.02-.4.36-.41.15,0,.31,0,.45.06.09.04.16.1.15.21-.01.11-.1.13-.18.14-.13,0-.19.05-.16.19.03.12-.02.23-.12.35.16-.02.3-.05.36.13.04.1.17.15.26.14.24-.04.49.02.71-.12.2-.13.28-.09.28.14,0,.13.07.25.03.37-.15.2-.37.27-.59.36-.14.02-.22-.06-.28-.17-.05-.09-.11-.12-.18-.04-.2.24-.48.26-.76.29-.15.01-.18.05-.14.2.05.17-.03.24-.21.18-.33-.13-.58-.37-.86-.56-.33-.17-.64-.36-.8-.71-.07-.07-.13-.13-.2-.2-.08-.05-.2-.06-.18-.2-.44-.49-.88-.98-1.26-1.52-.18-.05-.22-.2-.26-.35Z"/>
                <path class="cls-48" d="m166.13,91.51c-.01-.14-.21-.25-.06-.43.04-.05-.03-.11-.1-.05-.05.04-.09.08-.13.12-.03.03-.04.11-.08.08-.2-.11-.36-.05-.55.04-.13.06-.44-.21-.46-.37-.06.03-.12.06-.18.09-.07.03-.14,0-.19-.05-.06-.08.02-.12.07-.16.11-.07.17-.14.09-.29-.09-.16.02-.29.21-.27.07,0,.15.05.18-.04.03-.1-.06-.12-.13-.15-.2-.07-.41-.05-.61-.03-.13,0-.14.16-.04.3.03.05.15.06.08.15-.05.06-.13,0-.19-.02-.11-.05-.2-.12-.3-.19-.08-.05-.07-.12-.01-.17.15-.11.15-.27.17-.43.02-.13.11-.34-.18-.2-.08.04-.13-.02-.14-.09-.02-.23-.04-.47-.18-.67-.04-.07,0-.13.04-.19.1-.13.09-.26.06-.41-.06-.27-.04-.51.15-.73.03-.03.05-.07.06-.11.04-.22.16-.36.37-.44.06-.02.1-.06.1-.13,0-.06-.04-.1-.1-.1-.23-.03-.41-.16-.58-.3-.08-.06-.17-.06-.27-.04-.18.04-.36.01-.54-.08-.35-.18-.65-.43-.92-.7-.15-.15-.3-.16-.45,0-.13.15-.26.2-.44.14-.04-.01-.09-.01-.13,0-.34.11-.66.03-.99-.05-.1-.02-.18-.04-.19-.16,0-.07,0-.14.08-.17.11-.04.15.04.19.11.06.11.12.08.16,0,.03-.06.08-.14.06-.19-.07-.23.05-.38.22-.5.23-.16.09-.44.2-.64.08-.16.09-.34-.07-.49-.05-.05-.06-.14-.08-.21-.03-.11-.07-.21-.2-.23.14-.08.3-.08.46-.11.17-.02.35-.03.52,0,.03,0,.06,0,.09.01.15.05.26.13.26.3.02.02.03.04.05.06.21.07.25.29.37.43.02.03.02.07.02.11.01.29.42.73.78.82.11.03.23.06.35.06.2.05.38.12.48.31,0,.22.05.43.05.65,0,.19.12.27.27.31.16.04.32.04.43-.12.11-.15.17-.33.27-.48.12-.07.23.02.35.02.31.11.66.14.92.37,0,.22-.1.42-.18.62-.05.12-.18.2-.31.17-.21-.05-.41,0-.61.03-.1.02-.26-.04-.25.13,0,.15.1.27.25.32.05.02.1.01.15.02.43.03.87.04,1.29.11.61.1,1.13.36,1.35.99.05.15-.03.25-.19.24-.08,0-.15-.09-.26-.02.34.21.67.4,1.07.38.21-.01.38,0,.39.26,0,.11.11.11.18.15.27.13.39.32.35.58-.05.28-.28.31-.51.38-.35.11-.69.11-1.04.05-.17-.03-.36,0-.53.04-.09.02-.17.07-.17.16,0,.11.1.05.15.07.16.07.19.24.04.37-.09.08-.17.14-.1.27-.12.22-.48.39-.74.35Z"/>
                <path class="cls-12" d="m163.48,85.1c-.14-.11-.3-.18-.46-.25-.34-.11-.62-.32-.89-.55-.14-.12-.25-.24-.29-.42,0-.02,0-.05-.01-.07-.1-.2-.19-.41-.18-.64,0-.1.04-.17.13-.23.14-.05.28-.1.41-.15.7,0,1.4,0,2.1.06.1.35.16.71.15,1.08,0,.23.06.42.22.59.29.3.43.64.19,1.04-.1-.03-.2-.05-.31-.08-.06.04-.13.05-.19.03-.25-.08-.5-.15-.74-.26-.06-.03-.12-.07-.13-.14Z"/>
                <path class="cls-48" d="m164.01,92.33c.19,0,.19-.08.1-.22-.15-.23-.14-.23.12-.24.33-.02.66,0,.88-.33.09-.13.21-.08.25.07.03.11.06.21.2.21.04.09-.04.14-.09.18-.22.13-.38.32-.52.53-.06.09-.13.18-.25.2-.07,0-.13-.03-.16-.09-.18-.1-.35-.2-.53-.3Z"/>
                <path class="cls-49" d="m161.78,82.94c-.2.25.06.48.02.73,0,.04.02.1.03.14-.14-.12-.2-.3-.31-.45.1-.13.05-.36.26-.42Z"/>
                <path class="cls-16" d="m161.47,83.3c-.07-.12-.15-.23-.26-.3.03,0,.07.01.1.01.22,0,.28.1.16.29Z"/>
                <path class="cls-55" d="m161.12,82.99c-.17,0-.35,0-.52,0,.17-.07.35-.07.52,0Z"/>
                <path class="cls-52" d="m178.66,90.16c-.67.82-1.46,1.53-2.34,2.14-.22.13-.44.26-.67.39-.32.14-.6.06-.84-.16-.57-.53-1.25-.9-1.94-1.25-1-.51-2.08-.62-3.17-.68-.09,0-.17.04-.25.05-.11.02-.21.03-.32.02-.11-.03-.26-.04-.26-.19,0-.16.12-.21.25-.25.49-.13.9-.41,1.35-.62.23-.11.49-.16.71-.27.06-.03.16-.02.11-.12-.07-.18.06-.28.14-.42.02-.01-.04-.02-.01,0,.01,0,0,.01,0,.02-.31.16-.64.15-.97.13-.09,0-.18-.02-.27.04-.17.11-.3.02-.29-.13.02-.32-.03-.64-.05-.96.1-.11.22-.2.16-.38-.04-.13.07-.21.19-.26.15-.06.3-.05.45-.03.16.03.31.01.45-.05.16-.08.31-.11.49-.04.15.06.26-.04.37-.12.21-.15.41-.2.62,0,.03.02.06.05.09.04.28-.11.63-.05.85-.31.14-.17.27-.15.41-.02.1.1.17.12.29,0,.11-.12.28-.14.43-.09.24.08.48.08.73.06.22-.02.29.09.17.27-.11.18-.25.31-.49.3-.24,0-.3.11-.25.35.06.25.11.49.27.7.02.02.03.05.02.07-.12.31.14.43.31.6.23.23.33.56.62.76.48.33.97.53,1.57.37.3-.08.26.15.26.34.18-.05.31-.15.45-.24.11-.08.23-.15.37-.03Z"/>
                <path class="cls-42" d="m169.11,90.56c.12,0,.23,0,.35,0,.08-.04.18-.06.22.03.06.11-.03.17-.12.22-.06.03-.12.07-.17.11-.05.04-.15.06-.1.15.05.09.14.11.22.06.32-.23.67-.16,1.01-.1.33.06.46.32.31.62-.03.07-.08.13-.08.21-.01.33-.03.35-.37.35-.18,0-.28.04-.22.21.4-.11.79-.16,1.15.04.15.08.29.12.46.09.14-.03.31-.09.39.08.08.18.14.4,0,.58-.13.17-.3.32-.47.46-.16.13-.41-.06-.5.02-.15.13-.25.21-.44.13-.08-.03-.15-.04-.17.07-.06.26-.27.32-.49.33-.19,0-.38,0-.56.08-.78,0-1.56-.04-2.32-.25-.62-.18-1.22-.41-1.77-.76-.29-.16-.45-.48-.77-.61.28-.3.48-.66.87-.86.19-.1.38-.21.57-.31.24-.11.48-.23.73-.34.04-.12.14-.16.25-.2.45-.15.9-.29,1.36-.4.22-.05.43.02.65-.01Z"/>
                <path class="cls-1" d="m169.56,94.3c.08-.19.21-.25.41-.17.14.05.27,0,.4-.05.1-.04.17-.08.15-.22-.03-.18.08-.24.25-.16.16.08.33.23.31-.13,0-.11.12-.08.2-.03.25.16.32.15.51-.09.04-.05.09-.1.15-.14.24-.19.3-.38.19-.65-.02-.06-.06-.09-.11-.07-.32.1-.61.13-.85-.16-.35.09-.79-.22-1.08.22.02-.11.05-.2-.01-.3-.08-.14.02-.26.19-.26.07,0,.13.02.2.03.24.01.25,0,.2-.24-.02-.1,0-.18.08-.25.11-.09.12-.21.07-.34-.06-.14-.16-.18-.3-.19-.13,0-.27-.07-.4-.06-.18,0-.36,0-.52.16-.12.12-.44-.01-.48-.18,0-.04,0-.07.04-.08.15-.03.24-.15.36-.22.05-.03.16,0,.14-.11-.02-.08-.11-.05-.18-.06.29-.1.59-.07.88-.04.46.04.93.09,1.38.21,1.12.31,2.13.84,3.01,1.59.28.24.56.39.93.36-.18.15-.37.29-.53.47-.24.26-.54.4-.87.5-.72.22-1.44.46-2.19.56-.03,0-.06.03-.09.04-.01.02-.03.02-.05,0-.69.03-1.37.12-2.06.09-.1,0-.21.02-.3-.04Z"/>
                <path class="cls-53" d="m178.66,90.16c-.3-.04-.44.26-.69.33-.08.02-.15.14-.22.08-.09-.06-.03-.17,0-.25.03-.06.04-.12,0-.16-.07-.06-.14-.01-.18.03-.09.09-.18.1-.3.04-.03-.02-.09-.03-.12-.02-.42.19-.72-.15-1.02-.3-.22-.11-.48-.29-.6-.61-.07-.2-.21-.44-.51-.49-.13-.02-.11-.17-.05-.27.07-.12.07-.21-.04-.31-.13-.11-.17-.27-.18-.43-.01-.12.02-.26-.15-.31-.02,0-.04-.08-.04-.08.13-.1.25-.27.39-.29.38-.05.38-.02.58-.35-.04-.08-.1-.03-.15-.02-.23.02-.45.05-.68-.03-.3-.11-.45-.04-.58.27-.06-.05-.13-.1-.19-.16-.16-.15-.32-.3-.4.07-.01.05-.07.08-.12.07-.22-.02-.41.06-.61.15-.1.05-.23.08-.31-.06-.11-.19-.27-.16-.41-.05-.11.08-.22.15-.35.21-.04.02-.1.05-.12.03-.21-.22-.39-.04-.59.02-.15.04-.29.07-.45.02-.13-.04-.27-.01-.4.03-.22.07-.08.22-.09.34-.01.14-.11.18-.21.23-.05.02-.06-.01-.08-.05,0-.28-.14-.44-.37-.44-.48-.14-.97-.14-1.46-.13-.16,0-.29-.06-.33-.22-.04-.16-.25-.22-.19-.46.06-.22.18-.32.34-.42.2-.07.41-.04.61,0,.2.06.4.03.61.04.03,0,.05,0,.08.02.11.12.22.18.38.06.09-.06.21-.03.32-.03.6-.03,1.21.06,1.8-.06.16-.02.31-.01.47-.02.24.05.47.04.7-.03.69-.07,1.38-.16,2.04-.39.29-.06.55-.21.84-.22.32.06.62-.09.94-.1.07,0,.15-.03.22-.02.23.11.24.31.13.49-.16.26-.34.5-.65.64.15.25.33.45.66.38.36-.07.69.1,1.03.13.27.03.5.62.36.88-.11.2-.1.41-.07.61.02.13.09.26.26.27.15,0,.2-.12.22-.24.06-.29.24-.52.32-.79.02-.08.09-.17.16-.14.31.12.69.1.9.42.02.03.03.06.03.09-.03.28-.2.46-.41.62-.14.17-.28.34-.42.51-.16.05-.21.17-.24.32-.14.18-.29.36-.43.54Z"/>
                <path class="cls-52" d="m180.11,88.19c-.15-.2-.32-.36-.61-.32-.04,0-.09,0-.11-.03-.2-.25-.18-.09-.26.09-.13.3-.24.6-.35.9-.05.12-.2.14-.31.1-.17-.06-.28-.2-.29-.38,0-.24-.08-.5.14-.71.15-.15-.06-.25-.09-.38-.04-.2-.17-.32-.45-.36-.38-.05-.76-.08-1.15-.09-.11,0-.17-.08-.21-.17-.05-.09-.1-.17-.21-.21-.05-.02-.14-.02-.11-.11.02-.06.07-.1.13-.1.37-.05.48-.38.67-.62.09-.11.01-.24-.07-.34.22-.14.45-.23.71-.21.51.02.96-.36.98-.86.02-.36.08-.67.52-.74.11-.02.19-.11.28-.17.1-.07.21-.11.33-.03.05.02.09.05.14.07.14,0,.16.11.21.2.2.25.42.5.61.77.14.18.21.4.22.63.12.26.04.54.1.8,0,.15.02.3-.12.41h0c.02.11,0,.22-.08.31-.06.16-.11.33-.13.5.06.15.01.27-.13.36-.06.09-.1.19-.12.29-.05.15.01.38-.25.41Z"/>
                <path class="cls-41" d="m179.66,83.44c-.13,0-.23.05-.32.14-.12.12-.27.2-.44.22-.15.02-.23.09-.23.27,0,.19-.02.38-.05.57-.03.23-.23.37-.39.5-.2.15-.44.3-.73.19-.08-.03-.15,0-.22.04-.14.08-.29.1-.44.09-.39.11-.78.16-1.19.14.11-.24.37-.21.56-.32.3-.07.56-.25.86-.31.31-.02.57-.15.83-.29.15-.08.17-.24.25-.37.16-.24.27-.52.48-.73.07-.04.11-.09.16-.16.2-.29.32-.32.65-.2.07.06.14.13.21.19Z"/>
                <path class="cls-52" d="m179.1,89.62c-.08-.3-.07-.31.24-.32-.06.12-.14.23-.24.32Z"/>
                <path class="cls-39" d="m180.89,85.21c-.02.24.04.48-.05.71,0-.27,0-.54,0-.81.02.03.04.07.05.1Z"/>
                <path class="cls-44" d="m180.01,83.71c-.07-.07-.14-.13-.21-.2.16-.05.18-.03.21.2Z"/>
                <path class="cls-47" d="m176.23,85.37c-.19.08-.39.16-.58.24-.28.04-.53.19-.81.21-.1-.19-.14-.37-.02-.57.1-.18-.09-.53-.36-.6-.22-.05-.41-.17-.64-.21-.2-.03-.38-.18-.47-.39-.01-.03,0,0,0-.02-.03-.07-.72-.29-.79-.24-.16.12-.29.08-.38-.08-.05-.08-.12-.14-.21-.09-.12.07,0,.14.03.21.02.04.05.07.06.11.04.11.08.22-.04.29-.11.07-.21.01-.3-.07-.04-.04-.07-.1-.12-.13-.08-.05-.17-.05-.25,0-.08.04-.03.1-.01.16.03.14-.05.19-.16.21-.12.02-.22.08-.3.17-.22.25-.6.42-.93.45.09.14.06.27-.05.39-.2.24-.5.34-.74.52-.11.08-.25.02-.37-.03-.13-.05-.24-.07-.36.03-.09.08-.21.08-.31.03-.3-.16-.55-.12-.77.14-.04.04-.09.08-.15.1-.45.04-.87-.09-1.3-.21-.05-.01-.08-.06-.11-.1-.31-.1-.62-.21-.92-.31-.03-.06-.07-.13-.04-.19.21-.37-.06-.59-.26-.82-.14-.15-.23-.3-.21-.51.02-.29-.01-.58-.09-.87-.03-.11.01-.21.04-.32,1.5,0,3,0,4.5,0,.38.04.76.02,1.15.02.35,0,.71,0,1.06.02.87,0,1.74.02,2.61,0,1.19-.02,2.38.07,3.58.11.33,0,.67.02.98.14.27.27.14.59.11.89,0,.07-.04.14-.09.2-.34.2-.63.48-.96.68-.24.14-.54.21-.81.34-.07.03-.14.06-.2.11Z"/>
                <path class="cls-62" d="m178.12,84.26c.13-.37.14-.74.05-1.11.09,0,.19,0,.27.02.2.08.25.24.19.44-.06.29-.25.51-.42.75-.04.06-.08.11-.16.06-.05-.08,0-.12.06-.16Z"/>
                <path class="cls-22" d="m171,82.89c-.67,0-1.34,0-2.01,0-.07,0-.14,0-.19-.04.39,0,.79,0,1.18,0,.07-.05.14-.05.2,0,.27.03.55-.04.82.05Z"/>
                <path class="cls-48" d="m163.55,89.67c.1.02.12.1.12.17,0,.09-.06.14-.15.12-.09-.01-.22-.03-.21-.14.01-.11.17-.08.24-.15Z"/>
                <path class="cls-48" d="m163.1,90.23c.07,0,.1.05.11.11,0,.06,0,.12-.07.14-.07.02-.11-.03-.12-.09-.01-.07,0-.13.08-.16Z"/>
                <path class="cls-48" d="m165.78,85.87c.48.08.94.23,1.43.25.2-.04.42-.13.56.11-.02.04-.03.09-.06.11-.08.04-.17.04-.12.2.03.11-.15.27.1.32,0,0,.01.01.01.02-.01.35.22.3.46.3.44,0,.88-.02,1.3.16.13.16.31.29.36.5.02.02.03.03.05.05,0,.13,0,.25.13.33.1.05.08.15.02.22-.14.17-.1.34-.01.54.13-.16.29-.16.48-.12.28.05.56-.03.84-.07.08-.01.07-.08.08-.14,0-.05,0-.14.09-.11.07.02.08.1.03.15-.09.1-.04.25-.15.34-.09.06-.06.13.03.17.18.1.07.17-.04.19-.4.08-.75.3-1.15.4-.03,0-.07.02-.09.04-.28.34-.7.34-1.07.49-.07.03-.14.06-.14.13,0,.12.11.1.19.12-.44.11-.9.14-1.32.3-.31.11-.62.21-.93.31-.11-.01-.18-.08-.18-.18,0-.1.11-.09.17-.12.11-.04.19-.1.14-.22-.06-.15-.15-.04-.23,0-.04.02-.09.06-.14.01-.04-.04-.02-.09,0-.14.07-.18.14-.34.4-.34.31,0,.62-.1.92.07.02.01.06.03.07.02.23-.18.51-.14.77-.22.13-.05.2-.15.18-.3-.02-.15-.03-.31-.2-.37-.09-.03-.18-.06-.26-.09-.07-.03-.14-.08-.1-.17.08-.19,0-.2-.18-.19-.32.01-.66.05-.91-.23-.05-.06-.13-.04-.19-.04-.09,0-.17-.02-.19-.13-.01-.09.02-.17.09-.23.09-.07.13.02.19.06.07.04.15.13.22.05.11-.13-.1-.13-.1-.18-.01-.17-.11-.3-.19-.44-.05-.08-.09-.13-.18-.16-.36-.11-.68-.28-1.08-.31-.39-.02-.78-.03-1.17-.08-.17-.02-.42-.37-.38-.53.03-.1.12-.13.2-.12.27.05.53-.17.82-.02.15.08.29-.14.27-.23-.05-.22.12-.31.18-.46Z"/>
                <path class="cls-48" d="m163.48,85.1c.35.12.71.25,1.06.37,0,.46-.28.73-.68.69-.24-.03-.4-.21-.4-.44,0-.12-.04-.25-.04-.37,0-.09-.02-.19.06-.26Z"/>
                <path class="cls-56" d="m161.84,83.88c.32.41.77.67,1.18.97-.53.01-.86-.29-1.14-.68-.06-.09-.05-.19-.04-.29Z"/>
                <path class="cls-48" d="m166.77,88.08c-.11-.03-.24-.07-.21-.24.03-.17.19-.1.29-.12.12-.02.18.09.17.2,0,.13-.11.18-.25.16Z"/>
                <path class="cls-48" d="m161.12,85.01c-.17.02-.23-.09-.24-.24,0-.1.08-.16.17-.19.04-.01.28.27.28.32,0,.07-.07.11-.21.11Z"/>
                <path class="cls-48" d="m161.83,84.44c0,.1-.07.15-.15.15-.12,0-.2-.07-.2-.21,0-.08.03-.17.12-.16.13,0,.2.11.23.22Z"/>
                <path class="cls-48" d="m171.21,88.14c-.07,0-.13-.02-.14-.09,0-.07.06-.09.12-.1.07,0,.11.03.12.1,0,.08-.06.08-.1.09Z"/>
                <path class="cls-42" d="m171.19,92.13c-.07-.01-.16.02-.16-.07,0-.07.07-.12.14-.12.08,0,.14.04.15.11.01.12-.1.05-.13.08Z"/>
                <path class="cls-13" d="m167.77,86.23c-.17-.14-.4.02-.56-.11.31-.42.46-.46.93-.24.1.04.18.06.24-.05.1-.15.23-.13.36-.06.22.12.39.15.57-.09.1-.13.33-.13.46-.29.22-.25.22-.31-.1-.41,0-.06.05-.07.09-.06.34.09.58-.17.88-.22.03,0,.06-.04.07-.06.12-.23.29-.37.59-.33-.05-.15-.25-.26-.04-.38.15-.08.4,0,.49.15.05.09.12.16.22.12.12-.05.03-.15,0-.22-.01-.05-.05-.09-.08-.12-.09-.07-.14-.15-.09-.26.05-.11.15-.08.25-.09.12,0,.2.03.2.16,0,.07.05.12.13.13.06,0,.14-.01.15-.07.03-.31.21-.09.25-.05.12.15.25.19.44.14.08-.02.22-.01.21.17,0,.17.37.44.54.4.11-.03.2-.03.26.09.02.05.06.08.12.07.32-.04.44.21.57.41.07.11.19.29-.05.39-.07.03-.05.11-.01.16.07.11.03.21,0,.31-.46.23-.97.29-1.47.35-.19.02-.38.04-.57.06-.24.04-.49-.02-.73.03-.15,0-.3.01-.45.02-.63.04-1.26,0-1.89.02-.12,0-.23-.01-.35.04-.1.04-.2,0-.28-.05-.02,0-.03-.01-.05-.01-.22-.04-.45-.03-.67,0-.2-.05-.4-.05-.61-.03Z"/>
                <path class="cls-52" d="m169.82,87.84c-.15-.15-.36-.25-.36-.5.14-.06.3-.18.27.12,0,.02.03.06.06.07.19.09.14.2.03.31Z"/>
                <path class="cls-43" d="m169.72,86.28c.63,0,1.27,0,1.9,0-.14.07-.3.04-.45.04-.48,0-.96,0-1.44,0-.02,0-.03-.01-.02-.02,0-.01,0-.02.02-.02Z"/>
                <path class="cls-52" d="m177.92,90.05c.06-.09.1-.16.16-.23.04-.05.11-.08.18-.04.06.04.06.09.06.15,0,.08-.05.12-.13.12-.08,0-.16,0-.27,0Z"/>
                <path class="cls-48" d="m169.72,86.28s0,.03,0,.04c-.12,0-.22,0-.32.09-.14.11-.24,0-.3-.13.2,0,.41,0,.61,0Z"/>
                <path class="cls-36" d="m172.07,86.26c.24-.06.48-.05.73-.03-.24.07-.48.05-.73.03Z"/>
                <path class="cls-15" d="m168.38,86.26c.23-.09.45-.03.67,0-.22,0-.45,0-.67,0Z"/>
                <path class="cls-52" d="m176.25,88.36c.06,0,.09.02.1.07,0,.04-.03.05-.06.05-.04,0-.09,0-.08-.06,0-.02.03-.05.05-.06Z"/>
                <path class="cls-17" d="m178.12,84.26c-.02.05-.03.1-.05.16.02.05,0,.09-.02.14-.18.2-.44.27-.67.4-.1.03-.19.08-.3.1-.29.1-.57.21-.86.31.24-.21.49-.4.82-.45.21-.03.35-.17.45-.3.17-.21.38-.3.62-.36Z"/>
                <path class="cls-45" d="m178.01,84.5s.04-.06.06-.09c.05-.02.1-.04.15-.06-.06.37-.38.48-.67.61-.14.06-.31.09-.47.09.09-.05.18-.1.27-.15.25-.08.49-.19.66-.41Z"/>
                <path class="cls-48" d="m169.18,89.48s-.05-.03-.05-.06c-.01-.04,0-.08.05-.09.04,0,.06.02.06.05,0,.04,0,.08-.07.1Z"/>
                <path class="cls-47" d="m171.43,84.6c-.1.06-.17.08-.24.01,0,0,0-.05.02-.06.08-.07.15-.03.22.05Z"/>
                <path class="cls-33" d="m178.01,84.5c-.08.22-.4.41-.66.41.22-.14.44-.27.66-.41Z"/>
              </g>
              <polygon class="cls-54" points="183.16 107.05 169.97 114.6 154.33 107.27 147.5 120.4 156.47 129.58 169.23 115.33 180.86 130.16 188.69 120.71 183.16 107.05"/>
            </g>
          </g>
          <g>
            <ellipse class="cls-29" cx="142.09" cy="149.83" rx="6.56" ry="6.92" transform="translate(-29.45 34.88) rotate(-12.69)"/>
            <ellipse class="cls-59" cx="140.65" cy="149.51" rx="5.25" ry="5.61" transform="translate(-29.97 35.39) rotate(-12.97)"/>
            <polygon class="cls-59" points="137.68 140.4 138.95 140.08 140.08 144.55 138.81 144.88 137.68 140.4"/>
            <path class="cls-30" d="m188.75,149.81l-1.49,26.24s-.29,6.88,4.33,9.1"/>
            <path class="cls-30" d="m204.73,148.29l3.76,26.88s.88,7.05-3.95,9.6"/>
            <path class="cls-31" d="m138.48,140.88s.15-25.9,13.95-32.15c10.93-4.95,24.85-4.69,34.29,4.04,3.68,3.41,6.24,7.89,7.56,12.76.99,3.67,2.28,9.05,2.4,12.73"/>
            <path class="cls-31" d="m188.68,150.85s-3.39-13.43,7.58-12.83c-.03-.04,8.32-2.73,8.79,10.69"/>
            <path class="cls-50" d="m203.38,183.37c-.55.11-1.13.2-1.6.52s-.79.95-.54,1.47c.16.34.52.54.89.6s.74,0,1.11-.06c.64-.11,1.28-.23,1.88-.47s1.16-.62,1.53-1.16c.06-.09.12-.19.13-.29.06-.45-.45-1.37-.91-1.37-.35,0-.88.34-1.22.44-.41.13-.83.24-1.26.33Z"/>
            <path class="cls-50" d="m189.99,185.05c.26.25.53.51.83.71.75.48,1.67.58,2.56.61.4.01.81.02,1.18-.11s.73-.41.84-.79c.18-.62-.33-1.25-.92-1.49-1.09-.43-2.27-.17-3.38-.63-1.12-.47-2.05.79-1.12,1.7Z"/>
          </g>
          <g>
            <path class="cls-18" d="m239.64,314.05c-.66,7.17-2.33,10.24-3.67,10.83-.27.11-.52.14-.75.07-.66,1.38-2.57,2.51-3.99,2.41-.33-.03-.63-.11-.89-.29-.1.14-.2.27-.29.38-.88,1.02-1.27,1.13-2.19,1.28-1.14.21-2.12-.18-2.75-.99-.52-.7-.8-1.69-.74-2.87-.73.52-1.44.71-2.05.5-2.46-.85-1.98-5.47-1.98-5.47,0,0,.21-4.49,1.12-9.53.88-4.73-.56-12.66-.7-13.27,0,.6-1.97,7.69-5.18,10.56-3.27,2.93-5.78,1.16-4.93-1.44.85-2.6,1.14-7.49,2-10.63.88-3.13,1.77-4.77,4.1-7.51,2.36-2.72,4.97-4.79,6.99-9.15.32-.7.6-1.59.82-2.6.17-.68.31-1.41.42-2.16l14.58.49c-.06,1.52-.13,3.1-.2,4.66-.11,2.01-.24,4-.4,5.87.56,9.66,1.19,23.18.68,28.86Z"/>
            <path class="cls-57" d="m239.56,274.66c-.06,1.52-.13,3.1-.2,4.66-4.74-.84-11.08-2.18-14.81-2.99.17-.68.31-1.41.42-2.16l14.58.49Z"/>
            <path class="cls-57" d="m228.24,309.43c-.37,3.77-2.45,14.79-3.13,18.3-.52-.69-.81-1.68-.74-2.87,0,0,2.63-11.91,3.13-15.73.46-3.58.09-10.14.05-10.92.12.7,1.11,6.96.69,11.22Z"/>
            <path class="cls-57" d="m233.29,313.71c-.25,2.69-1.21,8.66-2.06,13.66-.34-.03-.63-.11-.89-.29-.1.14-.2.26-.3.36.82-4.24,2.15-11.18,2.49-14.06.51-4.02.14-11.36.11-12.16.12.79,1.09,7.76.65,12.49Z"/>
            <path class="cls-57" d="m237.96,314.14c-.13,3-1.32,8.09-1.99,10.74-.26.11-.52.13-.74.07,0,0,2-9.44,2.11-10.89.11-1.45-.31-11.59-.31-11.59,0,0,1.1,7.49.92,11.67Z"/>
          </g>
          <polygon class="cls-18" points="159.75 97.82 157.78 111.67 169.58 114.97 178.76 116.29 180.07 99.8 159.75 97.82"/>
          <g>
            <path class="cls-19" d="m146.84,58.24c-.05-1-.1-1.99-.15-2.99-.05-1.05,0-2.18-.54-3.12-1.51-2.6-4.74-1.83-6.54-.04-1.79,1.77-1.8,3.97-1.28,6.28.49,2.18,1.68,3.56,3.85,4.19,1.7.5,3.57-.6,4.03-2.3,0-.03,0-.06.02-.1.41-.55.66-1.22.63-1.93Z"/>
            <path class="cls-37" d="m145.25,55.79c-.03-.58-.02-1.22-.23-1.76-.13-.33-.33-.59-.69-.69-.02,0-.03,0-.05,0,.04-.36.07-.73.08-1.09,0-.33,0-.69-.18-.99-.22-.35-.55-.53-.93-.65-.56-.17-1.19-.22-1.75-.05-.48.15-.9.43-1.3.73-.18.13-.31.26-.4.47-.08.2-.12.44-.05.64.13.42.46.66.88.71,0,0-.02,0-.03,0,.12.02.24.04.36.08,0,0,0,0,0,0,.03.02.06.04.09.06,0,0,0,0,0,0,.04.04.07.08.11.12.08.09.16.19.24.28.02.03.05.06.07.09.01.02.03.04.04.06.07.1.13.19.19.3.02.03.03.06.04.08-.33.2-.64.43-.91.71-.67.73-1.03,1.73-.94,2.73.19,2.07,1.77,3.53,3.7,4.05.49.13,1.1-.16,1.21-.69.24-1.16.39-2.34.43-3.52.02-.56.02-1.12,0-1.67Z"/>
            <path class="cls-19" d="m192.13,58.24c.05-1,.1-1.99.15-2.99.05-1.05,0-2.18.54-3.12,1.51-2.6,4.74-1.83,6.54-.04,1.79,1.77,1.8,3.97,1.28,6.28-.49,2.18-1.68,3.56-3.85,4.19-1.7.5-3.57-.6-4.03-2.3,0-.03,0-.06-.02-.1-.41-.55-.66-1.22-.63-1.93Z"/>
            <path class="cls-37" d="m193.71,55.79c.03-.58.02-1.22.23-1.76.13-.33.33-.59.69-.69.02,0,.03,0,.05,0-.04-.36-.07-.73-.08-1.09,0-.33,0-.69.18-.99.22-.35.55-.53.93-.65.56-.17,1.19-.22,1.75-.05.48.15.9.43,1.3.73.18.13.31.26.4.47.08.2.12.44.05.64-.13.42-.46.66-.88.71,0,0,.02,0,.03,0-.12.02-.24.04-.36.08,0,0,0,0,0,0-.03.02-.06.04-.09.06,0,0,0,0,0,0-.04.04-.07.08-.11.12-.08.09-.16.19-.24.28-.02.03-.05.06-.07.09-.01.02-.03.04-.04.06-.07.1-.13.19-.19.3-.02.03-.03.06-.04.08.33.2.64.43.91.71.67.73,1.03,1.73.94,2.73-.19,2.07-1.77,3.53-3.7,4.05-.49.13-1.1-.16-1.21-.69-.24-1.16-.39-2.34-.43-3.52-.02-.56-.02-1.12,0-1.67Z"/>
          </g>
          <g>
            <g>
              <path class="cls-60" d="m170.01,77.28l-.33,26.72c21.63-3.3,24.26-16.49,24.26-16.49l.98-57.72-24.58,2.31-.33,32.65v12.53Z"/>
              <path class="cls-18" d="m144.77,28.79l-.66,58.05s4.59,13.85,26.22,17.15v-27.71l2.62-.66-1.97-11.87-.66-31.66-25.57-3.3Z"/>
            </g>
            <path class="cls-25" d="m153.62,33.74c3.64-.62,6.76,1.58,10.24,1.97,4.94.52,10.4.65,15.38-.14,3.33-.95,6.92-1.78,10.37-2.05.72-.04,1.71-.35,2.43.28.86,1.03.94,2.27,1.1,3.52.02.28-.2.53-.48.55-.27.02-.5-.18-.54-.44-.12-.82-.38-1.61-.73-2.34-.19-.33-.09-.32-.41-.34-3.81.47-7.67,1.5-11.34,2.63-5.35.96-10.63.85-16.07.18-3.65-.5-6.64-2.34-9.94-3.81h0Z"/>
            <path class="cls-61" d="m165.38,75.58c.22-.09.32.07.48.14,2.1,1.4,4.59.97,6.86.29.03-.01.07.03.04.06-1.85,2.09-5,1.18-7.09-.03-.13-.12-.35-.15-.34-.4,0-.03.02-.05.04-.06h0Z"/>
            <path class="cls-57" d="m159.87,101.29c3.32.79,6.48,2.5,9.84,2.9,3.11-.67,6.18-1.66,9.12-2.9.07-.03.13.08.06.12-2.84,1.61-5.99,2.92-9.22,3.48-3.54-.46-6.58-2.26-9.84-3.48-.07-.02-.05-.14.04-.12h0Z"/>
            <path class="cls-57" d="m169.78,98.92c.15.03.31.05.46,0,.08-.03.15-.08.22-.13.17-.12.34-.25.52-.37.4-.28.81-.59,1.02-1.03-.06-.1-.2-.11-.32-.1-.61.03-1.22.05-1.83.08-.44.02-1.27-.11-1.65.12-.83.49,1.15,1.35,1.59,1.44Z"/>
          </g>
          <path class="cls-3" d="m152.8,47.81c2.12-1.67,4.31-4.58,7.38-4.1.72.1,1.44.11,2.12.39.22.11.5.22.57.72.02.12-.06.2-.14.26-.34.3-.51.29-.73.29-1.44-.11-2.93-.61-4.31.02-1.35.63-3.38,1.92-4.72,2.65-.15.09-.31-.13-.17-.24h0Z"/>
          <path class="cls-3" d="m185.58,48.05l-2.4-1.38c-1.08-.58-2.24-1.46-3.48-1.58-1.01-.11-2.13.22-3.15.28-.22.02-.5-.05-.8-.35-.06-.05-.09-.13-.08-.21.15-.77.73-.77,1.27-.92.99-.16,1.93-.34,2.96-.15,1.5.23,2.73,1.33,3.74,2.24,0,0,2.09,1.81,2.09,1.81.13.11-.02.34-.17.24h0Z"/>
          <path class="cls-28" d="m160.27,51.7c.7.4,1.14,1.14,1.45,1.89.37.91.59,1.93.37,2.89-.08.35-.24.7-.54.88-.21.12-.47.15-.71.16-1,.07-2,.08-3,.05-.16,0-.33-.01-.49-.07-.57-.21-.72-.92-.8-1.52-.03-.28-.06-.55-.1-.83-.02-.15-.03-.32.07-.43.07-.08.19-.1.3-.12.35-.05.71-.08,1.04-.2s.65-.35.78-.68c.26-.71-.71-1.41-.37-1.95s1.54-.33,1.99-.07Z"/>
          <path class="cls-28" d="m179.94,51.7c.7.4,1.14,1.14,1.45,1.89.37.91.59,1.93.37,2.89-.08.35-.24.7-.54.88-.21.12-.47.15-.71.16-1,.07-2,.08-3,.05-.16,0-.33-.01-.49-.07-.57-.21-.72-.92-.8-1.52-.03-.28-.06-.55-.1-.83-.02-.15-.03-.32.07-.43.07-.08.19-.1.3-.12.35-.05.71-.08,1.04-.2s.65-.35.78-.68c.26-.71-.71-1.41-.37-1.95s1.54-.33,1.99-.07Z"/>
          <g>
            <path class="cls-58" d="m141.99,43.05c-.25-2.34-.51-4.68-.76-7.01-.52-4.83-.97-10.04,1.46-14.23.29-.51.63-1,.81-1.56.2-.63.18-1.31.2-1.97.1-3.73,1.73-7.96,4.35-10.6,2.62-2.64,3.74-4.36,6.79-4.52.38-.02.77,0,1.11.16.59.28.89.93,1.2,1.51,2.36,4.34,6.33,7,11.22,7.47,4.89.47,11.05-.89,15.94-.36,1.23.13,2.45.35,3.62.76,1.73.6,3.29,1.61,4.79,2.67,1.06.74,2.11,1.52,2.94,2.51,1.24,1.49.79,3.04.9,4.98.51,8.95,1.31,19.13-1.76,27.73-.35-5.12-.03-10.91-.38-16.03-.03-.39-.06-.8-.26-1.13-.59-.96-2.02-.64-3.08-.27-2.63.92-6.05,1.46-8.84,1.59-2.17.1-4.34.61-6.51.7-5.33.22-9.33.6-15.89-.32-1.68-.24-3.14-1.28-4.74-1.84-2.46-.86-5.11-1.15-7.7-.84-.23.03-.46.06-.66.19-.35.22-.47.67-.56,1.07-.57,2.53-1.15,5.73-1.58,8.3-.37,2.24.35,6.6-.5,8.56-1.51-1.1-1.93-5.75-2.13-7.51Z"/>
            <path class="cls-35" d="m152.74,29.28c-.95-.36-1.92-.73-2.77-1.29-2.13-1.38-3.4-3.82-3.93-6.31-.53-2.49-.41-5.07-.28-7.61-1.79,1.45-2.44,3.92-2.45,6.23,0,.94.08,1.89.42,2.76.38.99,1.05,1.83,1.71,2.65,2.11,2.63,4.43,5.4,7.67,6.28.69.19,3.57.6,3.69-.57s-3.31-1.86-4.05-2.15Z"/>
            <path class="cls-9" d="m152.16,18.53c.36,5.09,2.37,10.49,6.77,13.02-1.69-.56-3.37-1.16-5.03-1.8-2.31-.89-4.67-1.91-6.31-3.77-1.3-1.47-2.05-3.37-2.45-5.3-.77-3.67-.33-7.65,1.52-10.9.75-1.32,7.68-8.41,8-4.46.14,1.71-1.68,4.35-2.05,6.13-.49,2.32-.61,4.72-.45,7.08Z"/>
          </g>
          <g>
            <path class="cls-48" d="m160.45,88.79c-.34-.55-.75-1.07-1-1.68-.39-.93-.48-1.9-.32-2.89.09-.56.41-.99,1.01-1.13.08-.05.17-.01.2.05.13.28.36.53.26.89-.09.3-.1.63-.38.85-.09.07-.03.21-.06.31-.06.26-.18.32-.41.2.13.11.5.2.67.17.09-.02.18-.05.28-.04.26.02.49-.02.71-.2.15-.13.32-.08.45.07.25.27.52.51.85.67.15.07.3.12.47.09.19-.03.35.02.5.13.11.08.24.13.36.18.26.1.27.25.06.43-.36.31-.57.7-.5,1.19,0,.07.03.14,0,.2-.16.31.01.59.06.88.01.09.04.16.16.16.17.01.2.13.19.27-.01.13-.02.26-.09.37-.12.18-.06.27.12.34-.04-.33.02-.4.36-.41.15,0,.31,0,.45.06.09.04.16.1.15.21-.01.11-.1.13-.18.14-.13,0-.19.05-.16.19.03.12-.02.23-.12.35.16-.02.3-.05.36.13.04.1.17.15.26.14.24-.04.49.02.71-.12.2-.13.28-.09.28.14,0,.13.07.25.03.37-.15.2-.37.27-.59.36-.14.02-.22-.06-.28-.17-.05-.09-.11-.12-.18-.04-.2.24-.48.26-.76.29-.15.01-.18.05-.14.2.05.17-.03.24-.21.18-.33-.13-.58-.37-.86-.56-.33-.17-.64-.36-.8-.71-.07-.07-.13-.13-.2-.2-.08-.05-.2-.06-.18-.2-.44-.49-.88-.98-1.26-1.52-.18-.05-.22-.2-.26-.35Z"/>
            <path class="cls-48" d="m166.13,91.51c-.01-.14-.21-.25-.06-.43.04-.05-.03-.11-.1-.05-.05.04-.09.08-.13.12-.03.03-.04.11-.08.08-.2-.11-.36-.05-.55.04-.13.06-.44-.21-.46-.37-.06.03-.12.06-.18.09-.07.03-.14,0-.19-.05-.06-.08.02-.12.07-.16.11-.07.17-.14.09-.29-.09-.16.02-.29.21-.27.07,0,.15.05.18-.04.03-.1-.06-.12-.13-.15-.2-.07-.41-.05-.61-.03-.13,0-.14.16-.04.3.03.05.15.06.08.15-.05.06-.13,0-.19-.02-.11-.05-.2-.12-.3-.19-.08-.05-.07-.12-.01-.17.15-.11.15-.27.17-.43.02-.13.11-.34-.18-.2-.08.04-.13-.02-.14-.09-.02-.23-.04-.47-.18-.67-.04-.07,0-.13.04-.19.1-.13.09-.26.06-.41-.06-.27-.04-.51.15-.73.03-.03.05-.07.06-.11.04-.22.16-.36.37-.44.06-.02.1-.06.1-.13,0-.06-.04-.1-.1-.1-.23-.03-.41-.16-.58-.3-.08-.06-.17-.06-.27-.04-.18.04-.36.01-.54-.08-.35-.18-.65-.43-.92-.7-.15-.15-.3-.16-.45,0-.13.15-.26.2-.44.14-.04-.01-.09-.01-.13,0-.34.11-.66.03-.99-.05-.1-.02-.18-.04-.19-.16,0-.07,0-.14.08-.17.11-.04.15.04.19.11.06.11.12.08.16,0,.03-.06.08-.14.06-.19-.07-.23.05-.38.22-.5.23-.16.09-.44.2-.64.08-.16.09-.34-.07-.49-.05-.05-.06-.14-.08-.21-.03-.11-.07-.21-.2-.23.14-.08.3-.08.46-.11.17-.02.35-.03.52,0,.03,0,.06,0,.09.01.15.05.26.13.26.3.02.02.03.04.05.06.21.07.25.29.37.43.02.03.02.07.02.11.01.29.42.73.78.82.11.03.23.06.35.06.2.05.38.12.48.31,0,.22.05.43.05.65,0,.19.12.27.27.31.16.04.32.04.43-.12.11-.15.17-.33.27-.48.12-.07.23.02.35.02.31.11.66.14.92.37,0,.22-.1.42-.18.62-.05.12-.18.2-.31.17-.21-.05-.41,0-.61.03-.1.02-.26-.04-.25.13,0,.15.1.27.25.32.05.02.1.01.15.02.43.03.87.04,1.29.11.61.1,1.13.36,1.35.99.05.15-.03.25-.19.24-.08,0-.15-.09-.26-.02.34.21.67.4,1.07.38.21-.01.38,0,.39.26,0,.11.11.11.18.15.27.13.39.32.35.58-.05.28-.28.31-.51.38-.35.11-.69.11-1.04.05-.17-.03-.36,0-.53.04-.09.02-.17.07-.17.16,0,.11.1.05.15.07.16.07.19.24.04.37-.09.08-.17.14-.1.27-.12.22-.48.39-.74.35Z"/>
            <path class="cls-12" d="m163.48,85.1c-.14-.11-.3-.18-.46-.25-.34-.11-.62-.32-.89-.55-.14-.12-.25-.24-.29-.42,0-.02,0-.05-.01-.07-.1-.2-.19-.41-.18-.64,0-.1.04-.17.13-.23.14-.05.28-.1.41-.15.7,0,1.4,0,2.1.06.1.35.16.71.15,1.08,0,.23.06.42.22.59.29.3.43.64.19,1.04-.1-.03-.2-.05-.31-.08-.06.04-.13.05-.19.03-.25-.08-.5-.15-.74-.26-.06-.03-.12-.07-.13-.14Z"/>
            <path class="cls-48" d="m164.01,92.33c.19,0,.19-.08.1-.22-.15-.23-.14-.23.12-.24.33-.02.66,0,.88-.33.09-.13.21-.08.25.07.03.11.06.21.2.21.04.09-.04.14-.09.18-.22.13-.38.32-.52.53-.06.09-.13.18-.25.2-.07,0-.13-.03-.16-.09-.18-.1-.35-.2-.53-.3Z"/>
            <path class="cls-49" d="m161.78,82.94c-.2.25.06.48.02.73,0,.04.02.1.03.14-.14-.12-.2-.3-.31-.45.1-.13.05-.36.26-.42Z"/>
            <path class="cls-16" d="m161.47,83.3c-.07-.12-.15-.23-.26-.3.03,0,.07.01.1.01.22,0,.28.1.16.29Z"/>
            <path class="cls-55" d="m161.12,82.99c-.17,0-.35,0-.52,0,.17-.07.35-.07.52,0Z"/>
            <path class="cls-52" d="m178.66,90.16c-.67.82-1.46,1.53-2.34,2.14-.22.13-.44.26-.67.39-.32.14-.6.06-.84-.16-.57-.53-1.25-.9-1.94-1.25-1-.51-2.08-.62-3.17-.68-.09,0-.17.04-.25.05-.11.02-.21.03-.32.02-.11-.03-.26-.04-.26-.19,0-.16.12-.21.25-.25.49-.13.9-.41,1.35-.62.23-.11.49-.16.71-.27.06-.03.16-.02.11-.12-.07-.18.06-.28.14-.42.02-.01-.04-.02-.01,0,.01,0,0,.01,0,.02-.31.16-.64.15-.97.13-.09,0-.18-.02-.27.04-.17.11-.3.02-.29-.13.02-.32-.03-.64-.05-.96.1-.11.22-.2.16-.38-.04-.13.07-.21.19-.26.15-.06.3-.05.45-.03.16.03.31.01.45-.05.16-.08.31-.11.49-.04.15.06.26-.04.37-.12.21-.15.41-.2.62,0,.03.02.06.05.09.04.28-.11.63-.05.85-.31.14-.17.27-.15.41-.02.1.1.17.12.29,0,.11-.12.28-.14.43-.09.24.08.48.08.73.06.22-.02.29.09.17.27-.11.18-.25.31-.49.3-.24,0-.3.11-.25.35.06.25.11.49.27.7.02.02.03.05.02.07-.12.31.14.43.31.6.23.23.33.56.62.76.48.33.97.53,1.57.37.3-.08.26.15.26.34.18-.05.31-.15.45-.24.11-.08.23-.15.37-.03Z"/>
            <path class="cls-42" d="m169.11,90.56c.12,0,.23,0,.35,0,.08-.04.18-.06.22.03.06.11-.03.17-.12.22-.06.03-.12.07-.17.11-.05.04-.15.06-.1.15.05.09.14.11.22.06.32-.23.67-.16,1.01-.1.33.06.46.32.31.62-.03.07-.08.13-.08.21-.01.33-.03.35-.37.35-.18,0-.28.04-.22.21.4-.11.79-.16,1.15.04.15.08.29.12.46.09.14-.03.31-.09.39.08.08.18.14.4,0,.58-.13.17-.3.32-.47.46-.16.13-.41-.06-.5.02-.15.13-.25.21-.44.13-.08-.03-.15-.04-.17.07-.06.26-.27.32-.49.33-.19,0-.38,0-.56.08-.78,0-1.56-.04-2.32-.25-.62-.18-1.22-.41-1.77-.76-.29-.16-.45-.48-.77-.61.28-.3.48-.66.87-.86.19-.1.38-.21.57-.31.24-.11.48-.23.73-.34.04-.12.14-.16.25-.2.45-.15.9-.29,1.36-.4.22-.05.43.02.65-.01Z"/>
            <path class="cls-1" d="m169.56,94.3c.08-.19.21-.25.41-.17.14.05.27,0,.4-.05.1-.04.17-.08.15-.22-.03-.18.08-.24.25-.16.16.08.33.23.31-.13,0-.11.12-.08.2-.03.25.16.32.15.51-.09.04-.05.09-.1.15-.14.24-.19.3-.38.19-.65-.02-.06-.06-.09-.11-.07-.32.1-.61.13-.85-.16-.35.09-.79-.22-1.08.22.02-.11.05-.2-.01-.3-.08-.14.02-.26.19-.26.07,0,.13.02.2.03.24.01.25,0,.2-.24-.02-.1,0-.18.08-.25.11-.09.12-.21.07-.34-.06-.14-.16-.18-.3-.19-.13,0-.27-.07-.4-.06-.18,0-.36,0-.52.16-.12.12-.44-.01-.48-.18,0-.04,0-.07.04-.08.15-.03.24-.15.36-.22.05-.03.16,0,.14-.11-.02-.08-.11-.05-.18-.06.29-.1.59-.07.88-.04.46.04.93.09,1.38.21,1.12.31,2.13.84,3.01,1.59.28.24.56.39.93.36-.18.15-.37.29-.53.47-.24.26-.54.4-.87.5-.72.22-1.44.46-2.19.56-.03,0-.06.03-.09.04-.01.02-.03.02-.05,0-.69.03-1.37.12-2.06.09-.1,0-.21.02-.3-.04Z"/>
            <path class="cls-53" d="m178.66,90.16c-.3-.04-.44.26-.69.33-.08.02-.15.14-.22.08-.09-.06-.03-.17,0-.25.03-.06.04-.12,0-.16-.07-.06-.14-.01-.18.03-.09.09-.18.1-.3.04-.03-.02-.09-.03-.12-.02-.42.19-.72-.15-1.02-.3-.22-.11-.48-.29-.6-.61-.07-.2-.21-.44-.51-.49-.13-.02-.11-.17-.05-.27.07-.12.07-.21-.04-.31-.13-.11-.17-.27-.18-.43-.01-.12.02-.26-.15-.31-.02,0-.04-.08-.04-.08.13-.1.25-.27.39-.29.38-.05.38-.02.58-.35-.04-.08-.1-.03-.15-.02-.23.02-.45.05-.68-.03-.3-.11-.45-.04-.58.27-.06-.05-.13-.1-.19-.16-.16-.15-.32-.3-.4.07-.01.05-.07.08-.12.07-.22-.02-.41.06-.61.15-.1.05-.23.08-.31-.06-.11-.19-.27-.16-.41-.05-.11.08-.22.15-.35.21-.04.02-.1.05-.12.03-.21-.22-.39-.04-.59.02-.15.04-.29.07-.45.02-.13-.04-.27-.01-.4.03-.22.07-.08.22-.09.34-.01.14-.11.18-.21.23-.05.02-.06-.01-.08-.05,0-.28-.14-.44-.37-.44-.48-.14-.97-.14-1.46-.13-.16,0-.29-.06-.33-.22-.04-.16-.25-.22-.19-.46.06-.22.18-.32.34-.42.2-.07.41-.04.61,0,.2.06.4.03.61.04.03,0,.05,0,.08.02.11.12.22.18.38.06.09-.06.21-.03.32-.03.6-.03,1.21.06,1.8-.06.16-.02.31-.01.47-.02.24.05.47.04.7-.03.69-.07,1.38-.16,2.04-.39.29-.06.55-.21.84-.22.32.06.62-.09.94-.1.07,0,.15-.03.22-.02.23.11.24.31.13.49-.16.26-.34.5-.65.64.15.25.33.45.66.38.36-.07.69.1,1.03.13.27.03.5.62.36.88-.11.2-.1.41-.07.61.02.13.09.26.26.27.15,0,.2-.12.22-.24.06-.29.24-.52.32-.79.02-.08.09-.17.16-.14.31.12.69.1.9.42.02.03.03.06.03.09-.03.28-.2.46-.41.62-.14.17-.28.34-.42.51-.16.05-.21.17-.24.32-.14.18-.29.36-.43.54Z"/>
            <path class="cls-52" d="m180.11,88.19c-.15-.2-.32-.36-.61-.32-.04,0-.09,0-.11-.03-.2-.25-.18-.09-.26.09-.13.3-.24.6-.35.9-.05.12-.2.14-.31.1-.17-.06-.28-.2-.29-.38,0-.24-.08-.5.14-.71.15-.15-.06-.25-.09-.38-.04-.2-.17-.32-.45-.36-.38-.05-.76-.08-1.15-.09-.11,0-.17-.08-.21-.17-.05-.09-.1-.17-.21-.21-.05-.02-.14-.02-.11-.11.02-.06.07-.1.13-.1.37-.05.48-.38.67-.62.09-.11.01-.24-.07-.34.22-.14.45-.23.71-.21.51.02.96-.36.98-.86.02-.36.08-.67.52-.74.11-.02.19-.11.28-.17.1-.07.21-.11.33-.03.05.02.09.05.14.07.14,0,.16.11.21.2.2.25.42.5.61.77.14.18.21.4.22.63.12.26.04.54.1.8,0,.15.02.3-.12.41h0c.02.11,0,.22-.08.31-.06.16-.11.33-.13.5.06.15.01.27-.13.36-.06.09-.1.19-.12.29-.05.15.01.38-.25.41Z"/>
            <path class="cls-41" d="m179.66,83.44c-.13,0-.23.05-.32.14-.12.12-.27.2-.44.22-.15.02-.23.09-.23.27,0,.19-.02.38-.05.57-.03.23-.23.37-.39.5-.2.15-.44.3-.73.19-.08-.03-.15,0-.22.04-.14.08-.29.1-.44.09-.39.11-.78.16-1.19.14.11-.24.37-.21.56-.32.3-.07.56-.25.86-.31.31-.02.57-.15.83-.29.15-.08.17-.24.25-.37.16-.24.27-.52.48-.73.07-.04.11-.09.16-.16.2-.29.32-.32.65-.2.07.06.14.13.21.19Z"/>
            <path class="cls-52" d="m179.1,89.62c-.08-.3-.07-.31.24-.32-.06.12-.14.23-.24.32Z"/>
            <path class="cls-39" d="m180.89,85.21c-.02.24.04.48-.05.71,0-.27,0-.54,0-.81.02.03.04.07.05.1Z"/>
            <path class="cls-44" d="m180.01,83.71c-.07-.07-.14-.13-.21-.2.16-.05.18-.03.21.2Z"/>
            <path class="cls-47" d="m176.23,85.37c-.19.08-.39.16-.58.24-.28.04-.53.19-.81.21-.1-.19-.14-.37-.02-.57.1-.18-.09-.53-.36-.6-.22-.05-.41-.17-.64-.21-.2-.03-.38-.18-.47-.39-.01-.03,0,0,0-.02-.03-.07-.72-.29-.79-.24-.16.12-.29.08-.38-.08-.05-.08-.12-.14-.21-.09-.12.07,0,.14.03.21.02.04.05.07.06.11.04.11.08.22-.04.29-.11.07-.21.01-.3-.07-.04-.04-.07-.1-.12-.13-.08-.05-.17-.05-.25,0-.08.04-.03.1-.01.16.03.14-.05.19-.16.21-.12.02-.22.08-.3.17-.22.25-.6.42-.93.45.09.14.06.27-.05.39-.2.24-.5.34-.74.52-.11.08-.25.02-.37-.03-.13-.05-.24-.07-.36.03-.09.08-.21.08-.31.03-.3-.16-.55-.12-.77.14-.04.04-.09.08-.15.1-.45.04-.87-.09-1.3-.21-.05-.01-.08-.06-.11-.1-.31-.1-.62-.21-.92-.31-.03-.06-.07-.13-.04-.19.21-.37-.06-.59-.26-.82-.14-.15-.23-.3-.21-.51.02-.29-.01-.58-.09-.87-.03-.11.01-.21.04-.32,1.5,0,3,0,4.5,0,.38.04.76.02,1.15.02.35,0,.71,0,1.06.02.87,0,1.74.02,2.61,0,1.19-.02,2.38.07,3.58.11.33,0,.67.02.98.14.27.27.14.59.11.89,0,.07-.04.14-.09.2-.34.2-.63.48-.96.68-.24.14-.54.21-.81.34-.07.03-.14.06-.2.11Z"/>
            <path class="cls-62" d="m178.12,84.26c.13-.37.14-.74.05-1.11.09,0,.19,0,.27.02.2.08.25.24.19.44-.06.29-.25.51-.42.75-.04.06-.08.11-.16.06-.05-.08,0-.12.06-.16Z"/>
            <path class="cls-22" d="m171,82.89c-.67,0-1.34,0-2.01,0-.07,0-.14,0-.19-.04.39,0,.79,0,1.18,0,.07-.05.14-.05.2,0,.27.03.55-.04.82.05Z"/>
            <path class="cls-48" d="m163.55,89.67c.1.02.12.1.12.17,0,.09-.06.14-.15.12-.09-.01-.22-.03-.21-.14.01-.11.17-.08.24-.15Z"/>
            <path class="cls-48" d="m163.1,90.23c.07,0,.1.05.11.11,0,.06,0,.12-.07.14-.07.02-.11-.03-.12-.09-.01-.07,0-.13.08-.16Z"/>
            <path class="cls-48" d="m165.78,85.87c.48.08.94.23,1.43.25.2-.04.42-.13.56.11-.02.04-.03.09-.06.11-.08.04-.17.04-.12.2.03.11-.15.27.1.32,0,0,.01.01.01.02-.01.35.22.3.46.3.44,0,.88-.02,1.3.16.13.16.31.29.36.5.02.02.03.03.05.05,0,.13,0,.25.13.33.1.05.08.15.02.22-.14.17-.1.34-.01.54.13-.16.29-.16.48-.12.28.05.56-.03.84-.07.08-.01.07-.08.08-.14,0-.05,0-.14.09-.11.07.02.08.1.03.15-.09.1-.04.25-.15.34-.09.06-.06.13.03.17.18.1.07.17-.04.19-.4.08-.75.3-1.15.4-.03,0-.07.02-.09.04-.28.34-.7.34-1.07.49-.07.03-.14.06-.14.13,0,.12.11.1.19.12-.44.11-.9.14-1.32.3-.31.11-.62.21-.93.31-.11-.01-.18-.08-.18-.18,0-.1.11-.09.17-.12.11-.04.19-.1.14-.22-.06-.15-.15-.04-.23,0-.04.02-.09.06-.14.01-.04-.04-.02-.09,0-.14.07-.18.14-.34.4-.34.31,0,.62-.1.92.07.02.01.06.03.07.02.23-.18.51-.14.77-.22.13-.05.2-.15.18-.3-.02-.15-.03-.31-.2-.37-.09-.03-.18-.06-.26-.09-.07-.03-.14-.08-.1-.17.08-.19,0-.2-.18-.19-.32.01-.66.05-.91-.23-.05-.06-.13-.04-.19-.04-.09,0-.17-.02-.19-.13-.01-.09.02-.17.09-.23.09-.07.13.02.19.06.07.04.15.13.22.05.11-.13-.1-.13-.1-.18-.01-.17-.11-.3-.19-.44-.05-.08-.09-.13-.18-.16-.36-.11-.68-.28-1.08-.31-.39-.02-.78-.03-1.17-.08-.17-.02-.42-.37-.38-.53.03-.1.12-.13.2-.12.27.05.53-.17.82-.02.15.08.29-.14.27-.23-.05-.22.12-.31.18-.46Z"/>
            <path class="cls-48" d="m163.48,85.1c.35.12.71.25,1.06.37,0,.46-.28.73-.68.69-.24-.03-.4-.21-.4-.44,0-.12-.04-.25-.04-.37,0-.09-.02-.19.06-.26Z"/>
            <path class="cls-56" d="m161.84,83.88c.32.41.77.67,1.18.97-.53.01-.86-.29-1.14-.68-.06-.09-.05-.19-.04-.29Z"/>
            <path class="cls-48" d="m166.77,88.08c-.11-.03-.24-.07-.21-.24.03-.17.19-.1.29-.12.12-.02.18.09.17.2,0,.13-.11.18-.25.16Z"/>
            <path class="cls-48" d="m161.12,85.01c-.17.02-.23-.09-.24-.24,0-.1.08-.16.17-.19.04-.01.28.27.28.32,0,.07-.07.11-.21.11Z"/>
            <path class="cls-48" d="m161.83,84.44c0,.1-.07.15-.15.15-.12,0-.2-.07-.2-.21,0-.08.03-.17.12-.16.13,0,.2.11.23.22Z"/>
            <path class="cls-48" d="m171.21,88.14c-.07,0-.13-.02-.14-.09,0-.07.06-.09.12-.1.07,0,.11.03.12.1,0,.08-.06.08-.1.09Z"/>
            <path class="cls-42" d="m171.19,92.13c-.07-.01-.16.02-.16-.07,0-.07.07-.12.14-.12.08,0,.14.04.15.11.01.12-.1.05-.13.08Z"/>
            <path class="cls-13" d="m167.77,86.23c-.17-.14-.4.02-.56-.11.31-.42.46-.46.93-.24.1.04.18.06.24-.05.1-.15.23-.13.36-.06.22.12.39.15.57-.09.1-.13.33-.13.46-.29.22-.25.22-.31-.1-.41,0-.06.05-.07.09-.06.34.09.58-.17.88-.22.03,0,.06-.04.07-.06.12-.23.29-.37.59-.33-.05-.15-.25-.26-.04-.38.15-.08.4,0,.49.15.05.09.12.16.22.12.12-.05.03-.15,0-.22-.01-.05-.05-.09-.08-.12-.09-.07-.14-.15-.09-.26.05-.11.15-.08.25-.09.12,0,.2.03.2.16,0,.07.05.12.13.13.06,0,.14-.01.15-.07.03-.31.21-.09.25-.05.12.15.25.19.44.14.08-.02.22-.01.21.17,0,.17.37.44.54.4.11-.03.2-.03.26.09.02.05.06.08.12.07.32-.04.44.21.57.41.07.11.19.29-.05.39-.07.03-.05.11-.01.16.07.11.03.21,0,.31-.46.23-.97.29-1.47.35-.19.02-.38.04-.57.06-.24.04-.49-.02-.73.03-.15,0-.3.01-.45.02-.63.04-1.26,0-1.89.02-.12,0-.23-.01-.35.04-.1.04-.2,0-.28-.05-.02,0-.03-.01-.05-.01-.22-.04-.45-.03-.67,0-.2-.05-.4-.05-.61-.03Z"/>
            <path class="cls-52" d="m169.82,87.84c-.15-.15-.36-.25-.36-.5.14-.06.3-.18.27.12,0,.02.03.06.06.07.19.09.14.2.03.31Z"/>
            <path class="cls-43" d="m169.72,86.28c.63,0,1.27,0,1.9,0-.14.07-.3.04-.45.04-.48,0-.96,0-1.44,0-.02,0-.03-.01-.02-.02,0-.01,0-.02.02-.02Z"/>
            <path class="cls-52" d="m177.92,90.05c.06-.09.1-.16.16-.23.04-.05.11-.08.18-.04.06.04.06.09.06.15,0,.08-.05.12-.13.12-.08,0-.16,0-.27,0Z"/>
            <path class="cls-48" d="m169.72,86.28s0,.03,0,.04c-.12,0-.22,0-.32.09-.14.11-.24,0-.3-.13.2,0,.41,0,.61,0Z"/>
            <path class="cls-36" d="m172.07,86.26c.24-.06.48-.05.73-.03-.24.07-.48.05-.73.03Z"/>
            <path class="cls-15" d="m168.38,86.26c.23-.09.45-.03.67,0-.22,0-.45,0-.67,0Z"/>
            <path class="cls-52" d="m176.25,88.36c.06,0,.09.02.1.07,0,.04-.03.05-.06.05-.04,0-.09,0-.08-.06,0-.02.03-.05.05-.06Z"/>
            <path class="cls-17" d="m178.12,84.26c-.02.05-.03.1-.05.16.02.05,0,.09-.02.14-.18.2-.44.27-.67.4-.1.03-.19.08-.3.1-.29.1-.57.21-.86.31.24-.21.49-.4.82-.45.21-.03.35-.17.45-.3.17-.21.38-.3.62-.36Z"/>
            <path class="cls-45" d="m178.01,84.5s.04-.06.06-.09c.05-.02.1-.04.15-.06-.06.37-.38.48-.67.61-.14.06-.31.09-.47.09.09-.05.18-.1.27-.15.25-.08.49-.19.66-.41Z"/>
            <path class="cls-48" d="m169.18,89.48s-.05-.03-.05-.06c-.01-.04,0-.08.05-.09.04,0,.06.02.06.05,0,.04,0,.08-.07.1Z"/>
            <path class="cls-47" d="m171.43,84.6c-.1.06-.17.08-.24.01,0,0,0-.05.02-.06.08-.07.15-.03.22.05Z"/>
            <path class="cls-33" d="m178.01,84.5c-.08.22-.4.41-.66.41.22-.14.44-.27.66-.41Z"/>
          </g>
          <polygon class="cls-54" points="183.16 107.05 169.97 114.6 154.33 107.27 147.5 120.4 156.47 129.58 169.23 115.33 180.86 130.16 188.69 120.71 183.16 107.05"/>
        </g>
      </g>
    </g>
  </g>
</svg>