<?xml version="1.0" encoding="UTF-8"?>
<svg id="secciones_banner" data-name="secciones banner" xmlns="http://www.w3.org/2000/svg" viewBox="0 0 342.86 542.39">
  <defs>
    <style>
      .cls-1 {
        fill: #e33e47;
      }

      .cls-2 {
        fill: #f3e3e1;
      }

      .cls-3 {
        fill: #dd414c;
      }

      .cls-4 {
        fill: #fd6c76;
      }

      .cls-5 {
        fill: #e44d51;
      }

      .cls-6 {
        fill: #d83c47;
      }

      .cls-7 {
        fill: #e1284a;
      }

      .cls-8 {
        fill: #473117;
      }

      .cls-9 {
        fill: #db4651;
      }

      .cls-10 {
        fill: #df3d4a;
      }

      .cls-11 {
        fill: #db534b;
      }

      .cls-12 {
        fill: #ed4d56;
      }

      .cls-13 {
        fill: #fff;
      }

      .cls-14 {
        fill: #34220e;
      }

      .cls-15 {
        fill: #ecaeb7;
      }

      .cls-16 {
        fill: #ea555a;
      }

      .cls-17 {
        fill: #fdfdf7;
      }

      .cls-18 {
        fill: #bf362d;
      }

      .cls-19 {
        fill: #e9294e;
      }

      .cls-20 {
        fill: #dc474d;
      }

      .cls-21 {
        fill: #fdcdc9;
      }

      .cls-22 {
        fill: #c73a48;
      }

      .cls-23 {
        fill: #de454c;
      }

      .cls-24 {
        fill: #db3f4b;
      }

      .cls-25 {
        fill: #ffdfeb;
      }

      .cls-26 {
        fill: #e5e5e5;
        isolation: isolate;
        opacity: .35;
      }

      .cls-27 {
        fill: #e14f53;
      }

      .cls-28 {
        fill: #d6333a;
      }

      .cls-29 {
        fill: #f5b284;
      }

      .cls-30 {
        fill: #d6354a;
      }

      .cls-31 {
        fill: #db434b;
      }

      .cls-32 {
        fill: #f44b54;
      }

      .cls-33 {
        fill: #d53a45;
      }

      .cls-34 {
        fill: #ffd9db;
      }

      .cls-35 {
        fill: #e2464a;
      }

      .cls-36 {
        fill: #d34b41;
      }

      .cls-37, .cls-38 {
        fill: #e2e2e2;
      }

      .cls-39 {
        fill: #dd4150;
      }

      .cls-40 {
        fill: #fdfaf7;
      }

      .cls-41 {
        fill: #bc4430;
      }

      .cls-42 {
        fill: #d84b3e;
      }

      .cls-43 {
        fill: #d16260;
      }

      .cls-44 {
        fill: #ef8286;
      }

      .cls-45 {
        fill: #fde8e5;
      }

      .cls-46 {
        fill: #df394d;
      }

      .cls-47 {
        fill: #de3e48;
      }

      .cls-48 {
        fill: #b9d4f6;
      }

      .cls-49, .cls-50 {
        fill: #211b1b;
      }

      .cls-51 {
        fill: #df3e4c;
      }

      .cls-52 {
        fill: #e3464c;
      }

      .cls-53 {
        fill: #f76978;
      }

      .cls-54 {
        stroke: #c7c7c7;
        stroke-miterlimit: 10;
        stroke-width: .86px;
      }

      .cls-54, .cls-55 {
        fill: none;
      }

      .cls-56 {
        fill: #df5361;
      }

      .cls-57 {
        fill: #fbfcf5;
      }

      .cls-58 {
        fill: #e03f49;
      }

      .cls-59 {
        fill: #e73d46;
      }

      .cls-60 {
        fill: #e47a60;
      }

      .cls-61 {
        fill: #de2e4b;
      }

      .cls-62 {
        fill: #fde8e0;
      }

      .cls-63 {
        fill: #fce9e1;
      }

      .cls-64 {
        fill: #f57d6e;
      }

      .cls-65 {
        fill: #ec5055;
      }

      .cls-66 {
        fill: #ffd8d3;
      }

      .cls-67 {
        fill: #ee4e5a;
      }

      .cls-68 {
        fill: #e23a48;
      }

      .cls-69 {
        fill: #fafbf3;
      }

      .cls-70 {
        fill: #f87d6a;
      }

      .cls-71 {
        fill: #dd394a;
      }

      .cls-72 {
        fill: #fdefe7;
      }

      .cls-73 {
        fill: #c63b40;
      }

      .cls-74 {
        fill: #d3384a;
      }

      .cls-75 {
        fill: #ff8597;
      }

      .cls-76 {
        fill: #cc2d32;
      }

      .cls-77 {
        fill: #ffdbdd;
      }

      .cls-78 {
        fill: #e74c56;
      }

      .cls-79 {
        fill: #f6f7f9;
      }

      .cls-80 {
        fill: #074959;
      }

      .cls-81 {
        opacity: .05;
      }

      .cls-82 {
        fill: #e93249;
      }

      .cls-83 {
        fill: #e73845;
      }

      .cls-84 {
        fill: #de424d;
      }

      .cls-85 {
        fill: #f38672;
      }

      .cls-86 {
        fill: #e2404c;
      }

      .cls-87 {
        fill: #fd737e;
      }

      .cls-88 {
        fill: #d74350;
      }

      .cls-89 {
        fill: #fde1db;
      }

      .cls-90 {
        fill: #fdebec;
      }

      .cls-55 {
        stroke: #000;
        stroke-width: 1.28px;
      }

      .cls-55, .cls-50 {
        stroke-linecap: round;
        stroke-linejoin: round;
      }

      .cls-91 {
        fill: #fbf8fb;
      }

      .cls-92 {
        fill: #dc4650;
      }

      .cls-93 {
        fill: #c7c7c7;
      }

      .cls-94 {
        opacity: .07;
      }

      .cls-95 {
        fill: #f49fa8;
      }

      .cls-96 {
        fill: #df3e4d;
      }

      .cls-97 {
        fill: #fdc6c3;
      }

      .cls-38 {
        opacity: .42;
      }

      .cls-98 {
        fill: #603813;
      }

      .cls-99 {
        fill: #caa183;
      }

      .cls-100 {
        fill: #e44355;
      }

      .cls-50 {
        stroke: #211b1b;
        stroke-width: 1.67px;
      }

      .cls-101 {
        fill: #e06a5a;
      }

      .cls-102 {
        fill: #fccac7;
      }

      .cls-103 {
        fill: #e36148;
      }

      .cls-104 {
        fill: #eb6e54;
      }

      .cls-105 {
        fill: #dd3e48;
      }

      .cls-106 {
        fill: #da444f;
      }

      .cls-107 {
        fill: #cf3748;
      }

      .cls-108 {
        fill: #f26577;
      }

      .cls-109 {
        fill: #e43a4c;
      }

      .cls-110 {
        fill: #fcdadf;
      }

      .cls-111 {
        fill: #d15944;
      }

      .cls-112 {
        fill: #ffd3d3;
      }

      .cls-113 {
        fill: #c34d3a;
      }

      .cls-114 {
        fill: #dc2f49;
      }

      .cls-115 {
        fill: #fd9ebc;
      }

      .cls-116 {
        fill: #da4150;
      }

      .cls-117 {
        fill: #fbfaf2;
      }

      .cls-118 {
        fill: #e2585a;
      }

      .cls-119 {
        fill: #fdd4d8;
      }

      .cls-120 {
        fill: #ef8b75;
      }

      .cls-121 {
        fill: #e03247;
      }

      .cls-122 {
        fill: #d84748;
      }

      .cls-123 {
        fill: #de3f4d;
      }

      .cls-124 {
        fill: #de3f48;
      }

      .cls-125 {
        fill: #e6454f;
      }

      .cls-126 {
        fill: #e15b49;
      }

      .cls-127 {
        fill: #e04255;
      }

      .cls-128 {
        fill: #fdf9f8;
      }

      .cls-129 {
        fill: #fcf9f7;
      }

      .cls-130 {
        fill: #e63a4c;
      }

      .cls-131 {
        fill: #d7453e;
      }

      .cls-132 {
        fill: #dd4449;
      }

      .cls-133 {
        fill: #ff8ba4;
      }

      .cls-134 {
        fill: #e93b48;
      }

      .cls-135 {
        fill: #db5657;
      }

      .cls-136 {
        fill: #ecc3a5;
      }

      .cls-137 {
        fill: #da4251;
      }

      .cls-138 {
        fill: #fbfbfc;
      }

      .cls-139 {
        fill: #c04940;
      }

      .cls-140 {
        fill: #fdfaf6;
      }

      .cls-141 {
        fill: #fdb6bb;
      }

      .cls-142 {
        fill: #fdc4db;
      }

      .cls-143 {
        fill: #c23630;
      }

      .cls-144 {
        fill: #dc8590;
      }

      .cls-145 {
        fill: #ca9675;
      }

      .cls-146 {
        fill: #fdd1d7;
      }

      .cls-147 {
        fill: #da5158;
      }

      .cls-148 {
        fill: #fdf0eb;
      }

      .cls-149 {
        fill: #ef343c;
      }

      .cls-150 {
        fill: #d83949;
      }

      .cls-151 {
        fill: #f9fdf7;
      }

      .cls-152 {
        fill: #d84655;
      }

      .cls-153 {
        fill: #cd3544;
      }

      .cls-154 {
        fill: #d04036;
      }

      .cls-155 {
        fill: #da3d48;
      }

      .cls-156 {
        fill: #fc97ac;
      }

      .cls-157 {
        fill: #e26a6c;
      }

      .cls-158 {
        fill: #ffd5e7;
      }

      .cls-159 {
        fill: #ed9c75;
      }

      .cls-160 {
        fill: #e92e39;
      }

      .cls-161 {
        fill: #f9bab5;
      }

      .cls-162 {
        fill: #e94e5b;
      }

      .cls-163 {
        fill: #fdfbf2;
      }

      .cls-164 {
        fill: #f75458;
      }

      .cls-165 {
        fill: #c73e4d;
      }

      .cls-166 {
        fill: #c8312f;
      }

      .cls-167 {
        fill: #d9454e;
      }

      .cls-168 {
        fill: #ea7f68;
      }

      .cls-169 {
        fill: #df4148;
      }

      .cls-170 {
        fill: #d83f43;
      }

      .cls-171 {
        fill: #db626e;
      }

      .cls-172 {
        fill: #dd424f;
      }

      .cls-173 {
        fill: #fff6f0;
      }

      .cls-174 {
        fill: #e1413f;
      }

      .cls-175 {
        fill: #d34d3e;
      }

      .cls-176 {
        fill: #c7392f;
      }

      .cls-177 {
        fill: #e6717b;
      }

      .cls-178 {
        fill: #fdf5f2;
      }

      .cls-179 {
        fill: #da3a4a;
      }

      .cls-180 {
        fill: #db3c45;
      }

      .cls-181 {
        fill: #e43d41;
      }

      .cls-182 {
        fill: #fcfaf9;
      }

      .cls-183 {
        fill: #ffb2cf;
      }

      .cls-184 {
        fill: #d05b41;
      }

      .cls-185 {
        fill: #ee444e;
      }

      .cls-186 {
        fill: #e8394a;
      }

      .cls-187 {
        fill: #de2b47;
      }

      .cls-188 {
        fill: #df3e48;
      }

      .cls-189 {
        fill: #e15260;
      }

      .cls-190 {
        fill: #ff997e;
      }

      .cls-191 {
        fill: #d93f4e;
      }

      .cls-192 {
        fill: #dc3737;
      }

      .cls-193 {
        fill: #db424e;
      }

      .cls-194 {
        fill: #fdd0d1;
      }

      .cls-195 {
        fill: #dc3140;
      }

      .cls-196 {
        fill: #e43b4e;
      }

      .cls-197 {
        fill: #f9706b;
      }

      .cls-198 {
        fill: #f86369;
      }

      .cls-199 {
        fill: #fdb3ac;
      }

      .cls-200 {
        fill: #dc8484;
      }

      .cls-201 {
        fill: #e33c49;
      }

      .cls-202 {
        fill: #c0282f;
      }

      .cls-203 {
        fill: #e44f5d;
      }

      .cls-204 {
        fill: #f39e79;
      }

      .cls-205 {
        fill: #e63a48;
      }

      .cls-206 {
        fill: #050303;
      }

      .cls-207 {
        fill: #e34c55;
      }

      .cls-208 {
        fill: #eeb78e;
      }

      .cls-209 {
        fill: #d34351;
      }

      .cls-210 {
        fill: #ee5e65;
      }

      .cls-211 {
        fill: #fd8d9c;
      }

      .cls-212 {
        fill: #fcc1c9;
      }

      .cls-213 {
        fill: #f87f76;
      }

      .cls-214 {
        fill: #df3a4d;
      }

      .cls-215 {
        fill: #e2353e;
      }

      .cls-216 {
        fill: #cf3946;
      }

      .cls-217 {
        fill: #ec6b65;
      }

      .cls-218 {
        fill: #e4314c;
      }

      .cls-219 {
        fill: #f29a95;
      }

      .cls-220 {
        fill: #e77779;
      }

      .cls-221 {
        fill: #fba7b0;
      }

      .cls-222 {
        fill: #f15f70;
      }

      .cls-223 {
        fill: #e23a50;
      }

      .cls-224 {
        fill: #d13c46;
      }

      .cls-225 {
        fill: #de4756;
      }

      .cls-226 {
        fill: #fdefe8;
      }

      .cls-227 {
        fill: #e33c45;
      }

      .cls-228 {
        fill: #e4b796;
      }

      .cls-229 {
        fill: #fdd5d7;
      }

      .cls-230 {
        fill: #fcd3d4;
      }

      .cls-231 {
        fill: #eb4e44;
      }

      .cls-232 {
        fill: #fdf9fa;
      }

      .cls-233 {
        fill: #cf3e4c;
      }

      .cls-234 {
        fill: #db3f45;
      }

      .cls-235 {
        fill: #d87673;
      }

      .cls-236 {
        fill: #e83748;
      }

      .cls-237 {
        fill: #ed767c;
      }

      .cls-238 {
        fill: #e23d4e;
      }

      .cls-239 {
        fill: #e76e5a;
      }

      .cls-240 {
        fill: #e3324a;
      }

      .cls-241 {
        fill: #fdf7f8;
      }

      .cls-242 {
        fill: #df4e41;
      }

      .cls-243 {
        fill: #f55961;
      }

      .cls-244 {
        fill: #d6414d;
      }

      .cls-245 {
        fill: #e85f69;
      }

      .cls-246 {
        fill: #db3f4c;
      }

      .cls-247 {
        fill: #ea6c6d;
      }

      .cls-248 {
        fill: #d43d3e;
      }

      .cls-249 {
        fill: #df404d;
      }

      .cls-250 {
        fill: #e24847;
      }

      .cls-251 {
        fill: #e14147;
      }

      .cls-252 {
        fill: #fdf8f3;
      }

      .cls-253 {
        fill: #e03f4c;
      }

      .cls-254 {
        fill: #e14252;
      }

      .cls-255 {
        fill: #e6323a;
      }

      .cls-256 {
        fill: #e23a4e;
      }

      .cls-257 {
        fill: #df3f4d;
      }

      .cls-258 {
        fill: #d6434e;
      }

      .cls-259 {
        fill: #faf0e0;
      }

      .cls-260 {
        fill: #dc414d;
      }

      .cls-261 {
        fill: #f8a780;
      }

      .cls-262 {
        fill: #e03e47;
      }

      .cls-263 {
        fill: #e43b4a;
      }

      .cls-264 {
        fill: #d9394b;
      }

      .cls-265 {
        fill: #f0cfd1;
      }

      .cls-266 {
        fill: #db4455;
      }

      .cls-267 {
        fill: #dc393c;
      }

      .cls-268 {
        fill: #de3346;
      }

      .cls-269 {
        fill: #dc454d;
      }

      .cls-270 {
        fill: #e33c50;
      }

      .cls-271 {
        fill: #ec3a4a;
      }

      .cls-272 {
        fill: #c52f3c;
      }

      .cls-273 {
        fill: #bc3d3b;
      }

      .cls-274 {
        fill: #fd7b88;
      }
    </style>
  </defs>
  <ellipse class="cls-26" cx="173.07" cy="528.17" rx="167.07" ry="13.22"/>
  <g>
    <g>
      <g>
        <path class="cls-136" d="m191.57,523.95c-1.83,0-3.63-.48-5.23-1.38l-3.5-1.98c-2.66-1.51-4.64-3.94-5.57-6.85l-.71-2.22c-1.1-3.44-1.1-7.03,0-10.4,2.03-6.24,3.56-12.67,4.53-19.12,1.89-12.57,1.3-22.65.96-26.4-.79-8.7-2.5-15.04-3.23-17.74l-.13-.5c-3.83-14.4-3.7-36.79.37-66.54.01-.11.1-.18.21-.18,0,0,34.08.18,34.08.18.11,0,.2.08.21.19,2.78,21.88,1.48,42.41-3.87,61.02-1.46,5.09-3.14,9.76-4.76,14.28-4.2,11.72-7.82,21.84-5.47,33.08.08.38.2.9.34,1.54.92,4.14,2.83,12.74,4.3,24.65.14,1.17.27,2.28.39,3.31.41,3.73-.88,7.4-3.55,10.07l-1.88,1.88c-2,2-4.67,3.11-7.5,3.11Z"/>
        <path class="cls-228" d="m179.29,370.86c20.03.11,14.06.08,34.08.18,3.49,27.43-.03,47.61-3.86,60.93-5.28,18.36-13.5,31.84-10.23,47.46.58,2.77,2.93,12.36,4.64,26.17.14,1.17.27,2.27.39,3.31.4,3.66-.89,7.29-3.49,9.9-.63.63-1.26,1.26-1.88,1.88-2,2-4.66,3.04-7.35,3.04-1.75,0-3.52-.44-5.12-1.35l-3.5-1.98c-2.6-1.48-4.56-3.88-5.47-6.73l-.71-2.22c-1.07-3.34-1.09-6.94,0-10.27,2.41-7.38,3.75-13.93,4.54-19.15,2.04-13.56,1.19-23.95.96-26.45-.85-9.34-2.77-16.04-3.37-18.28-2.82-10.63-4.66-29.65.38-66.46m0-.43c-.21,0-.39.16-.42.37-4.08,29.78-4.2,52.19-.37,66.62l.13.5c.73,2.7,2.43,9.02,3.22,17.71.34,3.74.93,13.8-.96,26.35-.97,6.44-2.49,12.86-4.52,19.08-1.11,3.41-1.11,7.05,0,10.53l.71,2.22c.95,2.96,2.96,5.44,5.67,6.97l3.5,1.98c1.62.92,3.47,1.41,5.33,1.41,2.89,0,5.61-1.13,7.66-3.17l.99-.99.9-.9c2.71-2.72,4.03-6.45,3.61-10.25-.11-1.04-.24-2.14-.39-3.31-1.47-11.9-3.39-20.52-4.31-24.66-.14-.64-.26-1.16-.34-1.55-2.34-11.18,1.28-21.28,5.46-32.97,1.62-4.52,3.3-9.2,4.76-14.29,5.36-18.63,6.66-39.19,3.87-61.1-.03-.21-.21-.37-.42-.37h-1.62s-22.68-.13-22.68-.13l-9.78-.05h0Z"/>
      </g>
      <g>
        <path class="cls-136" d="m155.39,522.74c-2.84,0-5.5-1.1-7.5-3.11l-1.88-1.88c-2.67-2.67-3.96-6.34-3.55-10.07.11-1.04.24-2.14.39-3.31,1.47-11.9,3.38-20.5,4.3-24.64.14-.64.26-1.16.34-1.55,1.96-9.36-1.01-17.59-4.46-27.12-2.26-6.27-4.61-12.75-5.78-20.27-1.69-10.83-2.88-30.24,1.05-61.17.01-.11.1-.19.21-.19,4.25-.02,7.25-.03,9.55-.03,3.12,0,4.91.02,6.71.03,1.8.02,3.6.03,6.74.03,2.28,0,5.28,0,9.49-.03h0c.11,0,.2.08.21.18,3.58,26.17,2.47,50.47-3.31,72.25-.52,1.96-1.42,9.56-2.4,20.32l-.05.57c-.23,2.35-.51,5.28.42,18.06.34,4.66,1.74,10.55,4.53,19.1,1.1,3.37,1.1,6.96,0,10.4l-.71,2.22c-.93,2.91-2.91,5.34-5.57,6.85l-3.5,1.98c-1.59.9-3.4,1.38-5.23,1.38Z"/>
        <path class="cls-228" d="m148.02,369.61c6.25,0,7.2.06,13.45.06,2.29,0,5.29,0,9.53-.03,5.04,36.81-.49,61.54-3.31,72.16-.59,2.23-1.55,11.02-2.4,20.36-.23,2.5-.65,4.83.37,18.66.39,5.26,2.13,11.77,4.54,19.15,1.09,3.33,1.06,6.93,0,10.27l-.71,2.22c-.91,2.85-2.87,5.25-5.47,6.73l-3.5,1.98c-1.6.91-3.37,1.35-5.12,1.35-2.69,0-5.35-1.04-7.35-3.04l-1.88-1.88c-2.6-2.6-3.89-6.24-3.49-9.9.11-1.03.24-2.14.39-3.31,1.71-13.82,4.06-23.41,4.64-26.17,3.27-15.62-7.29-28.59-10.23-47.46-2.09-13.4-2.44-33.68,1.05-61.11,4.23-.02,7.23-.03,9.51-.03m0-.43c-2.29,0-5.29,0-9.52.03-.21,0-.4.16-.42.37-3.94,30.95-2.75,50.38-1.05,61.23,1.18,7.54,3.52,14.03,5.79,20.31,3.43,9.5,6.39,17.7,4.45,27-.08.39-.2.9-.34,1.55-.92,4.14-2.83,12.75-4.31,24.66-.14,1.17-.27,2.28-.39,3.31-.42,3.8.9,7.53,3.61,10.25l1.88,1.88c2.04,2.04,4.76,3.17,7.66,3.17,1.86,0,3.71-.49,5.33-1.41l3.5-1.98c2.71-1.53,4.72-4.01,5.67-6.97l.71-2.22c1.11-3.48,1.12-7.12,0-10.53-2.78-8.53-4.18-14.4-4.52-19.05-.94-12.76-.65-15.68-.42-18.03l.05-.57c.98-10.75,1.87-18.34,2.39-20.29,5.79-21.8,6.91-46.13,3.32-72.33-.03-.21-.21-.37-.42-.37h0c-4.23.02-7.24.03-9.52.03-3.12,0-4.92-.02-6.72-.03-1.8-.02-3.6-.03-6.73-.03h0Z"/>
      </g>
    </g>
    <path class="cls-98" d="m211.08,22.56c9.23,14.24,12.16,35.49,5.6,51.94-4.1,10.29-12.81,18.13-23.57,20.76-5.98,1.46-12.4,1.82-18.6,1.84-.61,0-1.23.02-1.84.06-18.54.97-30.6-8.06-36.98-25.25-.28-.76-.6-1.51-.94-2.24-7.73-16.9-.2-35.22,10.42-49.6,4.93-6.67,12.11-11.39,20.23-13.08,16.66-3.46,35.73,1.48,45.67,15.57Z"/>
    <path class="cls-14" d="m199.39,42.65c4.17,3.31,7,8.03,7.95,13.27,8.94,31.6-23.87,48.55-46.21,37.81-16.64-5.32-20.62-42.86-.04-51.68,6.65-3.67,19.72-12.98,38.3.6Z"/>
    <path class="cls-136" d="m195.23,30.59c4.07,5.84,5.21,13.17,6.09,20.23,1.55,8.94,1.09,18.62-5.19,25.73-3.49,5.15-8.72,8.3-13.79,11.7-3.83,3.02-8.56,3.35-12.54.42-10.95-5.45-15.47-16.27-18.38-27.75-3.33-9.05-1.07-19.21,5.77-25.99,5.1-4.99,21.16-17.28,28.09-12.81,3.7,2.54,7.31,4.71,9.93,8.47Z"/>
    <path class="cls-136" d="m204.36,46.06c3.08.93,3.43,5.48.78,7.16-1.2.63-2.34,1.35-3.43,2.16-1.14-1.99-1.49-5.98-1.41-8.36.3-1.96,2.24-1.51,4.05-.96Z"/>
    <path class="cls-136" d="m148.35,45.58c-3.6,2.33-3.1,7.3.3,9.55.73.9,1.31,2.25,2.47,2.24v-6.33c.54-3.13,1.95-6.09-2.76-5.46Z"/>
    <path class="cls-259" d="m204.15,53.89c2.21.92,1.08,5.5-1.45,5-1.87.02-3.21-7.1,1.45-5Z"/>
    <path class="cls-151" d="m151.26,52.4c.76.42.66,6.65-1.15,5.11-2.91-.84-2.41-6.15,1.15-5.11Z"/>
    <path class="cls-8" d="m185.22,36.38c2.97.33,7.92,3.26,7.64,6.48-2.09-3.68-6.89-4.75-10.82-5.18-1.76-2.05,2.03-1.54,3.18-1.31Z"/>
    <path class="cls-8" d="m165.71,36.36c-2.97.33-7.92,3.25-7.65,6.47,2.09-3.68,6.9-4.74,10.83-5.16,1.76-2.05-2.03-1.54-3.18-1.31Z"/>
    <path class="cls-80" d="m187.71,44.85c1.61,2.26.59,6.69-2.76,6.13-3.74-1.35-1.12-9.95,2.76-6.13Z"/>
    <path class="cls-80" d="m166.35,44.8c1,1.41,1.07,4.01-.26,5.23-6.02,4.07-5.25-9.8.26-5.23Z"/>
    <path class="cls-208" d="m154.03,58.42c-.09,3.46,7.8,3.46,7.71,0,.09-3.46-7.8-3.46-7.71,0Z"/>
    <path class="cls-208" d="m190.82,58.45c-.09,3.46,7.8,3.46,7.71,0,.09-3.46-7.8-3.46-7.71,0Z"/>
    <path class="cls-99" d="m178.68,61.38c-.52,1.25-1.74,2.08-3.1,2.1-1.33,0-2.6-.57-3.47-1.57-.25-.27-.24-.7.04-.95.21-.2.52-.23.78-.1.14.07-.14-.04,0,0l.12.04.27.08c.11.03.22.05.33.07h.15s.15,0,.05,0c.48.06.97.09,1.46.09.72,0,1.43-.03,2.14-.04.37.04.64.36.6.73-.03.32-.28.57-.6.6-.76,0-1.52.05-2.28.04-1.01.04-2.02-.14-2.97-.51l.81-1.05c.09.1.18.2.28.29l.15.13.1.08h0c.21.15.43.28.66.4l.09.04h0l.21.08c.12.04.24.08.36.1l.18.04c.14.03-.09,0,.07,0,.12,0,.25,0,.37,0,.41,0,.81-.1,1.15-.32.05-.03.1-.06.15-.1-.1.08.04-.04.06-.05.09-.08.18-.18.27-.27h0l.06-.08.11-.18c.08-.14.15-.28.21-.42.19-.32.6-.42.91-.24.31.19.42.6.24.91l.02.05Z"/>
    <path class="cls-145" d="m173.79,77.93c.42.33.88.62,1.36.84.31.13.65.19.99.19.09,0,.19,0,.28,0-.07,0,0,0,0,0l.16-.04c.2-.04.4-.1.59-.18.47-.18.92-.39,1.37-.63l.34,1.25-4.42.19c-.37.03-.7-.24-.73-.61-.03-.37.24-.7.61-.73.04,0,.08,0,.13,0l4.42-.19c.37.01.66.33.65.7,0,.22-.13.42-.31.54-.95.57-2.01.93-3.11,1.04-1.12-.05-2.19-.47-3.04-1.19-.32-.19-.43-.59-.24-.91s.59-.43.91-.24h0l.05-.05Z"/>
    <path class="cls-98" d="m177.02,26.81c-8.26,3.56-18.21,5.92-24.02,13.28-1.19,1.9-1.12,5-3.23,6.05-8.74-5.86-2.36-17.71,6.39-19.7,7.72-3.95,16.23-7.7,24.96-7.95,5.7,1.21-2.3,7.45-4.09,8.32Z"/>
    <path class="cls-98" d="m200.52,41.8c-1.38-2.74-3.38-5.13-5.83-6.97-4.5-4.16-6.74-10.73-12.2-13.5,1.23-3.36,7.87-.84,10.09.6,2.88,3,8.64,15.88,7.94,19.87Z"/>
    <path class="cls-49" d="m164.86,210.26c-1-.4-1.7,1.79-1.46,5.15,1.53,56.82,1.16,114.01.79,171.06,9.51.94,19.03,1.06,28.55.34-.01-49.43.12-98.88-.04-148.3-.06-19.8-.63-27.92-6.99-28.17-6.95-.27-13.9-.07-20.85-.08Z"/>
    <polygon class="cls-94" points="141.56 140.36 142.15 148.66 136.86 159.85 141.56 140.36"/>
    <path class="cls-48" d="m160.16,123.16c1.89,29.59,10.79,59.38,12.07,89,3.61.24,7.5-.2,10-.07.24-15.3,1.35-30.31,1.64-45.61.59-14.79,8.94-30.93,8.93-45.69-6.34,1.28-26.17,2.91-32.64,2.35Z"/>
    <path class="cls-79" d="m181.43,249.67c.18,1.7.6,4.64.6,4.64l.05,172.07h35.29c22.51-67.33,4.64-173.29,4.64-173.29-2.72-9.57-6.9-20.04-11.29-28.86-3.76-7.77-11.51-10.35-7.48-19.76,1.79-5.93,2.34-10.17,4.76-16.01.89-2.22.92-7.48,3.01-8.97,7.48-6.95,5.61-15.25,6.5-24.85,24.41,40.5,41,24.68-1.8,60.15-7.25,4.94,8.55,5.23,11.84,21.74,15.28-11.34,31.44-22.96,41.1-39.76,10.04-15.25-17.43-34.72-24.92-47.23-4.76-6.41-8.75-13.41-13.66-19.71-4.93-6.31-10.99-12.04-18.49-14.83-4.07-1.5-8.73-2.25-11.69-5.46-4.29-6.46-14.19-6.56-14.19-6.56,0,0,2.37,3.56,4.74,5.93.75.75,4.68,2.59,4.74,4.16.17,3.66-4.16,16.62-4.16,16.62,0,0-10.49,30.23-8.93,49.85,1.02,22.23-.53,47.94-.65,70.12Z"/>
    <path class="cls-79" d="m169.57,254.32l-6.21,168.21h-36.47c-14.75-169.43,16.98-194.63,25.3-205.01,2.42-2.35,7.8-3.73,5.41-8.05-3.08-14.38-22.97-38.77-19.49-50.08-.32.45-.61.77-.88.94-23.49,36.93-39.63,22.7,2.14,57.32,7.24,4.95-8.55,5.23-11.84,21.74-15.28-11.34-31.45-22.96-41.1-39.76-10.03-15.24,17.44-34.71,24.91-47.22,4.76-6.41,8.75-13.41,13.66-19.71,4.8-6.15,10.68-11.74,17.91-14.6.49-.3.98-.44,1.48-.42,3.4-.05,7.31-1.09,9.11-4,1.4-5.12,4.88-7.13,4.88-7.13,0,0,7.47-4.34,9.5-2.95,2.31,1.57-7.18,7.03-8.31,11.85-1.07,4.56.58,9.5.58,9.5l10.06,46.29s6.71,39.91-.64,83.08Z"/>
    <path class="cls-37" d="m191.74,157.91c-2,9.59,11.85,12.55,13.95,2.98,2-9.59-11.85-12.55-13.95-2.98Z"/>
    <path class="cls-93" d="m205.84,160.2c1.75-7.67-9.62-10.1-11.16-2.39-1.75,7.67,9.62,10.1,11.16,2.39Z"/>
    <polygon class="cls-93" points="203.12 148.45 202.27 147.52 200.68 153.03 202.07 153.33 203.12 148.45"/>
    <path class="cls-94" d="m215.14,142.78l10.67,23.74c-5.31-9.19-10.59-9.76-10.67-23.74Z"/>
    <path class="cls-94" d="m138.74,149.51l-10.68,23.74c5.31-9.19,10.6-9.76,10.68-23.74Z"/>
    <path class="cls-81" d="m208.82,186.63c-2.12,3.78-4.54,14.6-7.33,24.24-13.2,3.26-27.71,3.43-41.16,1.29-1.46-.34-2.5-.59-2.41-2.38-2.4-10.09-10.82-22.56-13.23-28.49,5.2-.01,9.86.61,15.06.6,5.17-.38,10.97-1.75,16.14-1.9,11.28.77,23.92,5.23,34.49-.44-.23.56-.19,3.81-1.55,7.07Z"/>
    <path class="cls-38" d="m200.51,112.51s4.74,9.5,8.89,14.25l-10.68,1.18,7.71,6.53-8.91,12.46s-9.5,9.49-11.88,17.2l-3.57,9.49s.6-16.61,8.33-41.53c4.5-14.51,4.54-19.91,2.39-21.95-1.55-1.47-2.91-2.23-4.15-2.97l-1.78-2.37s9.49,0,13.64,7.72Z"/>
    <path class="cls-38" d="m151.6,111.93s-4.66,9.54-8.77,14.32l10.69,1.09-7.65,6.6,9.02,12.38s9.58,9.41,12.03,17.1l3.65,9.46s-.75-16.61-8.69-41.46c-4.63-14.47-4.71-19.87-2.58-21.93,1.53-1.48,2.89-2.25,4.13-3.01l1.76-2.39s-9.49.09-13.58,7.84Z"/>
    <path d="m201.61,150.65c-.08-.55.23-1.29.39-1.81,0,0,.53-1.77.53-1.77,4.03-13.7,6.09-36.66-12.31-39.91-9.58-1.99-19.75-2.05-29.25.37-2.36.65-4.66,1.51-6.74,2.73-6.95,3.75-9.36,15.1-9.39,22.47.14,1.21.23,2.53.22,3.78,0,.35-.29.64-.65.64-.35,0-.64-.29-.64-.65.02-1.23-.05-2.4-.19-3.66-.16-3.83.76-7.53,1.67-11.22,3.12-12.11,11.39-15.09,22.8-16.56,4.98-.56,10-.57,14.97-.1,4.99.59,10.09,1.21,14.52,3.86,11.06,7.7,9.61,23.35,7.03,34.93-.39,1.77-.95,3.68-1.47,5.43-.21.51-.3,1.33-.78,1.72-.25.23-.68.07-.72-.26h0Z"/>
    <path class="cls-54" d="m156.6,147.03l-3.39,30.63s-1.01,8.01-6.81,9.67"/>
    <path class="cls-54" d="m136.8,151.02l14.69,28.14s3.95,7.32,10.06,6.91"/>
    <path class="cls-55" d="m156.6,149.03s.01-16.24-12.37-12.38c.03-.05-10.3-.69-6.97,14.69"/>
    <path class="cls-206" d="m163.65,185.31c1.12-.16,3.03.06,2.88,1.55-1.02,1.88-4.65,1.43-6.17.31-.58-.42-.18-1.82.39-2.01.92-.03,1.95.28,2.9.15Z"/>
    <path class="cls-206" d="m147.82,188.16c-.91,1.71-4.17,3.55-5.78,1.94-.77-2.41,2.77-2.4,4.1-3.47,1.09-.81,2.44.29,1.68,1.53Z"/>
    <path class="cls-13" d="m200.51,110.73s4.15,10.68,8.3,15.43l-9.49.84,7.12,6.87-8.91,11.27s-9.5,9.49-11.88,17.2l-3.57,9.49s.6-16.61,8.33-41.53c4.5-14.51,2.76-18.72.61-20.77-1.55-1.47-2.91-2.23-4.15-2.97l-1.18-3.56s10.68,0,14.83,7.72Z"/>
    <path class="cls-13" d="m151.58,110.15s-4.05,10.72-8.16,15.5l9.5.76-7.06,6.93,9,11.19s9.58,9.41,12.03,17.1l3.65,9.46s-.75-16.61-8.69-41.46c-4.63-14.47-1.1-16.56.69-18.94,1.28-1.7,2.38-3.56,2.97-4.75l1.78-3.56s-11.62,0-15.71,7.75Z"/>
    <path class="cls-136" d="m161.94,110.7c-4.16,5.34-2.24,8.25-1.79,13.05,6.47.51,32.64-1.76,32.64-1.76,0,0,1.36-4.58.6-8.31-.22-1.1-1.13-2.74-1.76-3.78-.41-.68-1-1.24-1.73-1.58-.12-.06-.17-.07-.07.02-10.68-8.91-.92-25.14-6.77-24.83-2.04-.1-12.62-.14-14.76-.08.64,9.26.06,19.91-6.36,27.26Z"/>
    <path class="cls-145" d="m184.33,87.33c-2.08,2.06-4.61,3.93-7.57,4.36s-5.76-.84-8-2.78c-.65-.56.3-1.5.94-.94,1.98,1.72,4.45,2.86,7.12,2.38,2.66-.48,4.75-2.14,6.57-3.95.26-.26.68-.26.94,0s.26.68,0,.94h0Z"/>
    <g>
      <g>
        <path class="cls-136" d="m219.86,242.22c-.15-.02-.26-.03-.36-.03h-.16c-.12,0-.24,0-.42-.03-.19-.03-.37-.18-.54-.33-.08-.07-.18-.15-.24-.18-.33-.16-.98-.87-1.14-1.08-.32-.42-.4-.67-.51-.99-.05-.15-.1-.32-.19-.53-.04-.09-.08-.19-.13-.22-.05-.03-.13-.03-.22-.03-1.05,0-2.06-.64-2.61-1.62-.45-.8-.59-1.79-.41-2.82-1.03-.26-2.16-.58-3.02-1.34-.78-.69-1.26-1.94-.88-2.95-.05,0-.1,0-.14,0-.49,0-1-.17-1.46-.48-.58-.4-1-.96-1.39-1.5-.26-.36-.51-.76-.54-1.22-.03-.47-.06-.99.21-1.66.69-1.72,5.43-5.94,7.84-7.94.5-.41,1.13-.93,1.87-1.15.47-.14.96-.15,1.38-.15h.21c.42,0,.9,0,1.34.16.47.16.91.48,1.33.96.42.49.68,1,.77,1.51.05.27.04.55-.02.8.38-.18.82-.28,1.28-.28.91,0,1.79.38,2.36,1.02.96,1.08,1.14,2.79.47,4.2.04,0,.08,0,.11,0,1.27,0,2.49.75,3.03,1.86.57,1.15.36,2.64-.45,3.63.75.16,1.56.55,1.88,1.43.24.66.08,1.85-.13,2.42-.14.39-.8,1.58-1.09,1.93-2.23,2.71-3.93,4.31-6.5,6.12-.18.13-.36.25-.58.31l-.19.06c-.22.07-.48.15-.69.15,0,0-.08,0-.1,0Z"/>
        <path class="cls-228" d="m216.81,216.19c.07,0,.14,0,.2,0,.43,0,.87,0,1.28.14.49.16.9.51,1.23.9.35.41.63.88.72,1.41.08.5-.03,1.04-.36,1.42-.02.02-.04.04-.06.06.02-.02.04-.04.06-.06.48-.49,1.15-.72,1.83-.72.82,0,1.66.33,2.2.95,1.03,1.15,1.05,2.99.25,4.31.16-.03.33-.04.49-.04,1.16,0,2.32.69,2.84,1.74.59,1.2.29,2.77-.69,3.67.91.12,1.8.5,2.11,1.36.21.58.08,1.69-.13,2.27-.14.38-.79,1.55-1.05,1.87-2.07,2.52-3.77,4.19-6.46,6.08-.16.11-.33.22-.52.27-.2.05-.58.2-.82.2-.02,0-.05,0-.07,0-.16-.02-.28-.03-.38-.03-.06,0-.11,0-.16,0-.11,0-.22,0-.38-.03-.22-.03-.52-.4-.72-.49-.26-.13-.88-.78-1.06-1.01-.44-.58-.39-.8-.68-1.48-.05-.12-.11-.26-.22-.32-.11-.06-.24-.06-.36-.06-.99,0-1.91-.65-2.39-1.51-.48-.86-.56-1.91-.35-2.87-1.11-.28-2.27-.58-3.13-1.34s-1.28-2.14-.62-3.08c-.18.06-.36.09-.54.09-.47,0-.94-.18-1.33-.45-.54-.38-.95-.91-1.33-1.45-.24-.33-.48-.7-.5-1.11-.02-.39-.08-.89.2-1.57.61-1.53,4.86-5.44,7.77-7.85.54-.45,1.11-.91,1.79-1.11.43-.13.88-.14,1.33-.14m0-.43c-.44,0-.95.01-1.45.16-.79.23-1.43.76-1.94,1.19-2.42,2.01-7.19,6.27-7.9,8.02-.29.72-.26,1.26-.23,1.66v.09c.03.52.3.94.58,1.33.39.56.83,1.13,1.44,1.55.44.3.94.49,1.43.52-.25,1.03.25,2.19,1.03,2.89.84.75,1.95,1.09,2.92,1.34-.14,1,.02,1.97.46,2.77.58,1.04,1.66,1.72,2.76,1.73.08,0,.14,0,.16,0h0s.01.07.03.11c.09.21.14.37.19.52.11.33.2.61.54,1.05.15.2.83.95,1.21,1.14.03.02.13.1.19.15.19.16.4.34.65.38.19.03.32.03.45.03h.09s.08,0,.08,0c.09,0,.19,0,.32.02.04,0,.08,0,.13,0,.24,0,.52-.09.75-.16.07-.02.13-.04.18-.05.25-.07.46-.2.65-.34,2.59-1.81,4.3-3.42,6.54-6.16.3-.37.97-1.58,1.12-1.99.22-.61.39-1.84.13-2.56-.26-.7-.86-1.21-1.72-1.48.7-1.04.84-2.47.28-3.59-.55-1.12-1.75-1.89-3.02-1.97.54-1.43.32-3.07-.63-4.13-.61-.68-1.55-1.09-2.52-1.09-.36,0-.7.05-1.02.16,0-.17,0-.33-.03-.5-.09-.55-.37-1.09-.81-1.62-.44-.51-.91-.86-1.42-1.03-.48-.16-.97-.16-1.41-.17h-.21Z"/>
      </g>
      <path class="cls-228" d="m224.22,232.23c-1.8,2.37-5.19,5.05-7.38,7.1-.43.4-1.02-.28-.56-.65,2.4-1.79,5.83-4.58,7.94-6.45h0Z"/>
      <path class="cls-228" d="m220.54,227.49c-2.49,2.35-4.82,4.88-7.4,7.19-.42.38-1-.3-.55-.65,2.66-2.13,5.12-4.54,7.74-6.77.15-.13.37.1.21.24h0Z"/>
      <path class="cls-228" d="m216.41,223.44c-2.53,2.16-4.94,4.46-7.07,7.03-.15.18-.42.21-.6.06-.21-.16-.21-.49-.01-.66,1.25-1.11,2.41-2.31,3.67-3.42,1.25-1.11,2.55-2.17,3.84-3.22.13-.11.32.1.18.21h0Z"/>
    </g>
    <g>
      <g>
        <path class="cls-136" d="m134.9,244.07c-.2,0-.44-.06-.64-.1l-.19-.04c-.22-.04-.41-.15-.6-.26-2.69-1.61-4.5-3.08-6.93-5.63-.29-.3-1.04-1.44-1.22-1.84-.25-.55-.5-1.72-.3-2.4.26-.9,1.04-1.34,1.77-1.56-.89-.92-1.2-2.39-.72-3.58.48-1.19,1.71-2.03,3-2.08-.77-1.36-.71-3.08.17-4.22.57-.74,1.53-1.19,2.52-1.19.38,0,.74.07,1.07.2-.07-.25-.1-.52-.08-.8.05-.51.27-1.04.65-1.56.38-.51.8-.86,1.25-1.05.44-.18.91-.22,1.33-.25.27-.02.54-.04.82-.04.29,0,.55.02.78.08.76.17,1.42.63,1.95,1.01,2.55,1.82,7.58,5.69,8.39,7.35.32.65.32,1.17.33,1.55.01.56-.21.97-.45,1.35-.34.57-.73,1.16-1.27,1.6-.47.38-1.03.59-1.56.59.46.98.07,2.25-.66,3-.8.83-1.91,1.22-2.92,1.56.26,1.01.19,2.01-.2,2.84-.47,1.01-1.43,1.72-2.45,1.8-.12,0-.21.02-.25.05-.05.04-.09.14-.12.23-.07.22-.12.39-.15.54-.08.33-.15.58-.44,1.03-.14.22-.74.97-1.06,1.16-.05.03-.14.12-.22.2-.16.16-.33.33-.52.37-.21.05-.36.06-.5.07-.12,0-.24.02-.43.06-.05.01-.1.02-.16.02Z"/>
        <path class="cls-228" d="m136.8,217.85c.25,0,.5.02.74.07.69.15,1.29.57,1.87.98,3.09,2.2,7.6,5.79,8.32,7.27.32.66.3,1.16.31,1.55,0,.41-.2.79-.42,1.14-.34.56-.71,1.13-1.23,1.54-.4.33-.92.55-1.43.55-.14,0-.28-.02-.41-.05.72.89.4,2.29-.4,3.12-.8.82-1.93,1.21-3.02,1.57.28.95.28,2-.14,2.89-.42.89-1.29,1.6-2.27,1.68-.12.01-.26.01-.36.09-.11.08-.15.21-.2.34-.23.69-.17.91-.57,1.52-.16.25-.73.94-.99,1.09-.19.11-.46.5-.68.54-.4.09-.53.03-.92.12-.03,0-.07.01-.12.01-.24,0-.59-.11-.78-.14-.19-.04-.37-.14-.53-.24-2.82-1.69-4.64-3.23-6.88-5.59-.28-.29-1.02-1.42-1.18-1.78-.25-.56-.46-1.66-.29-2.26.25-.88,1.11-1.32,2.01-1.51-1.05-.83-1.46-2.38-.96-3.61.47-1.15,1.68-1.95,2.92-1.95.09,0,.19,0,.28.01-.89-1.26-1-3.1-.06-4.32.55-.71,1.46-1.11,2.35-1.11.61,0,1.21.19,1.66.59.02.02.04.04.06.06-.02-.02-.04-.04-.06-.06-.36-.35-.51-.89-.46-1.39.05-.53.3-1.03.61-1.46.3-.41.69-.79,1.16-.98.4-.17.84-.2,1.26-.24.26-.02.53-.04.8-.04m0-.43c-.28,0-.56.02-.83.04-.44.03-.93.07-1.4.27-.49.21-.94.58-1.34,1.13-.41.56-.64,1.12-.7,1.67-.02.17-.01.34,0,.51-.25-.06-.51-.1-.78-.1-1.05,0-2.08.49-2.69,1.28-.87,1.13-.98,2.79-.33,4.17-1.25.17-2.39,1.02-2.87,2.19-.47,1.16-.23,2.58.54,3.56-.84.33-1.41.88-1.61,1.6-.21.74.05,1.95.31,2.55.18.4.94,1.56,1.26,1.9,2.44,2.56,4.26,4.04,6.97,5.66.21.13.42.24.68.29.05,0,.11.02.18.04.21.05.46.11.68.11.08,0,.14,0,.21-.02.17-.04.27-.04.4-.05.14,0,.3-.02.53-.07.25-.06.45-.25.62-.43.06-.06.15-.14.18-.16.36-.21.99-1.01,1.13-1.22.31-.47.38-.76.46-1.09.04-.15.08-.31.15-.53.02-.05.04-.12.05-.14,0,0,.01.01.03.01.02,0,.04,0,.06,0,1.13-.09,2.16-.85,2.67-1.93.38-.82.47-1.8.26-2.79.95-.32,2.03-.74,2.82-1.55.73-.75,1.14-1.95.81-2.96.48-.07.96-.28,1.39-.62.58-.46.97-1.07,1.32-1.65.25-.41.49-.85.48-1.37v-.09c0-.4-.01-.94-.35-1.64-.83-1.7-5.9-5.6-8.46-7.43-.55-.39-1.22-.87-2.02-1.05-.25-.05-.52-.08-.83-.08h0Z"/>
      </g>
      <path class="cls-228" d="m130.01,234.38c2.27,1.91,5.85,4.23,8.35,5.89.48.33-.05,1.06-.51.69-2.28-1.89-6.1-4.36-7.84-6.58h0Z"/>
      <path class="cls-228" d="m133.5,229.17c2.77,2.04,5.4,4.26,8.21,6.19.46.31-.03,1.03-.48.71-2.76-2.11-5.26-4.47-7.92-6.64-.16-.12.03-.38.2-.25h0Z"/>
      <path class="cls-228" d="m137.3,224.86c2.77,1.86,5.38,3.98,7.97,6.08.48.37-.14,1.08-.57.64-2.31-2.4-4.87-4.52-7.56-6.5-.14-.1.02-.33.16-.22h0Z"/>
    </g>
    <g>
      <path class="cls-24" d="m181.95,67.88c.21.04.41.06.62.1.43.05.86.08,1.29.16,0,.11,0,.22.04.33.09.28.09.54-.17.74-.04.04-.08.06-.13.08-.11.06-.24,0-.35.05-.08.02-.15.05-.24.05-.18,0-.35.05-.53.11-.11.02-.21.02-.31-.04-.15-.15-.25-.32-.25-.54,0-.13-.07-.24-.12-.36-.12-.26-.06-.52.14-.69h0Z"/>
      <path class="cls-47" d="m183.7,69.16s-.05-.1,0-.11c.24-.09.16-.26.12-.42-.02-.12-.05-.23-.07-.35-.02-.09,0-.15.11-.14.32.04.63.08.93.21-.03.18-.19.27-.29.4-.07.09-.14.19-.19.29-.05.06-.14.05-.19.09-.03.02-.06.04-.09.05-.06.01-.12.02-.18.03-.05,0-.1,0-.13-.05h0Z"/>
      <path class="cls-160" d="m186.12,69.06s-.1.08-.15.11c-.11.06-.21.02-.27-.07-.14-.21-.44-.32-.35-.65.17,0,.34,0,.51-.01.05-.04.11-.02.17-.02.32.02.41.19.25.49-.05.05-.11.09-.16.14h0Z"/>
      <path class="cls-255" d="m185.34,68.46c.16.28.33.55.62.72-.14.11-.28.21-.41.31-.08.02-.12-.03-.13-.08-.02-.2-.15-.28-.32-.35-.21-.3-.19-.46.02-.65.08-.02.15,0,.21.05h0Z"/>
      <path class="cls-215" d="m185.14,68.41c-.1.21-.07.41,0,.61-.05.08-.12.1-.21.09-.11-.01-.22.03-.31-.06-.11-.42.01-.63.36-.65.05,0,.1,0,.15.01h0Z"/>
      <path class="cls-227" d="m184.99,68.4c-.19.06-.29.2-.32.41,0,.07-.04.15-.05.22-.02.02-.04.03-.05.04-.08-.02-.15,0-.22.01-.04,0-.06-.02-.08-.05.03-.33.31-.47.52-.66.07.01.15-.02.21.05h0Z"/>
      <path class="cls-149" d="m186.28,68.92c.04-.35-.05-.45-.42-.47.15-.1.31-.02.46-.05q.26-.03.22.22c-.06.12-.14.24-.26.31h0Z"/>
      <path class="cls-231" d="m186.54,68.61c.01-.15-.06-.23-.22-.22.04-.05.1-.05.16-.05.06-.03.11-.03.17,0,.04.06.02.11-.01.16-.04.04-.06.07-.1.11Z"/>
      <path class="cls-29" d="m186.8,68.35c.08.03.12.08.06.15-.04.05-.06-.02-.08-.05-.03-.04-.02-.07.01-.1Z"/>
      <path class="cls-60" d="m186.8,68.35s0,.06-.01.1c-.02,0-.04,0-.05,0-.04-.02-.06-.06-.1-.09-.05,0-.11,0-.16,0,.11-.06.22-.06.32,0h0Z"/>
      <path class="cls-103" d="m186.64,68.35c.05,0,.09.04.1.09-.03.02-.06.04-.09.06v-.16h0Z"/>
      <path class="cls-41" d="m165.51,68.65c-.06-.08-.14-.17-.2-.25-.02-.06.02-.11.05-.15.02-.02.04-.02.07-.01.29,0,.5.19.75.28,0,.17-.17.28-.15.46-.02.03-.06.05-.09.06h-.11c-.06-.02-.1-.07-.16-.09-.11-.06-.1-.19-.15-.28h-.01Z"/>
      <path class="cls-159" d="m165.41,68.26s-.03,0-.05,0c.11-.11.24-.03.35-.05.02.02.03.04.05.06-.12.03-.24.02-.35,0h0Z"/>
      <path class="cls-263" d="m177.82,67.26h.05c.1,0,.2,0,.31,0,.24-.06.49-.06.73,0,.06,0,.14,0,.2,0,.43.12.86.25,1.29.36.06.12.19.25.02.38-.08.01-.15-.03-.21-.08-.41-.27-.79-.26-1.19,0-.19.13-.41.18-.63.2-.25.02-.5.02-.75,0-.22-.02-.45-.06-.61-.23-.2-.21-.5-.23-.72-.41.02-.09.09-.12.17-.13.36-.04.72-.12,1.08-.17.09-.01.19-.01.26.06h0Z"/>
      <path class="cls-250" d="m178.91,67.26h-.73c.04-.06.11-.04.16-.06.14-.03.27-.03.41,0,.06.01.12,0,.16.06Z"/>
      <path class="cls-261" d="m178.75,67.21h-.41c.14-.06.27-.06.41,0Z"/>
      <path class="cls-10" d="m181.95,67.88c-.09.28-.11.53.04.83.11.21.11.49.22.71-.12.18-.55.31-.83.25-.14-.12-.12-.3-.17-.45-.11-.31-.14-.65-.27-.95.13-.16.28-.31.39-.48.21-.02.42.04.62.09h0Z"/>
      <path class="cls-68" d="m181.32,67.79c.01.26-.06.44-.36.45-.02.02-.04.04-.06.05-.2-.02-.43,0-.45-.3,0-.12-.13-.23-.05-.36.31.05.62.11.92.16h0Z"/>
      <path class="cls-117" d="m181.38,69.62c.28-.08.56-.09.82-.21.09.02.18,0,.26-.04.09.03.18.01.28.01.18,0,.25.09.18.26-.09.08-.19.05-.29.05-.15,0-.29.01-.43.05-.12.04-.14.08-.14.2.01.31-.09.45-.38.55-.12.04-.23.11-.34.17-.18.11-.35.21-.58.14-.11-.18-.24-.22-.47-.16-.38.1-.59-.08-.61-.43.06-.16.33-.14.33-.36.43-.23.88-.33,1.36-.22h0Z"/>
      <path class="cls-89" d="m183.23,69.27c.11-.09.24-.02.36-.05.28.1.29.27.02.5-.14.11-.27.22-.33.38-.05.05-.1.08-.17.04-.18-.32-.02-.59.13-.87h0Z"/>
      <path class="cls-66" d="m183.54,69.69c.21-.14.21-.29.05-.46.02-.05.07-.05.11-.06l.11-.04c.11.03.25,0,.26.18-.01.11-.07.2-.15.28-.09.05-.15.15-.27.15-.04,0-.08-.02-.1-.05h0Z"/>
      <path class="cls-62" d="m183.23,69.27c0,.08.07.16.02.22-.18.19-.12.43-.12.65-.01,0-.02.01-.04.02-.03-.01-.05-.02-.06-.05-.08-.16-.09-.33-.06-.51-.02-.11-.04-.21.06-.29.05-.08.14-.03.21-.05h0Z"/>
      <path class="cls-148" d="m183.03,69.32v.32s-.05.03-.08.02l-.02-.02c-.06-.26-.31-.16-.46-.25.19-.02.38-.05.56-.06h0Z"/>
      <path class="cls-192" d="m185.29,69.84s-.06.04-.09.06c-.2.09-.33,0-.42-.16-.12-.22-.05-.54.16-.71h.21c.33,0,.32,0,.36.33,0,.05.04.09.05.14-.08.12-.21.21-.26.35Z"/>
      <path class="cls-213" d="m184.26,69.01s.07,0,.1.01c.02.02.03.05.03.08-.02.1-.09.14-.18.14-.09-.02-.14-.08-.16-.16.06-.06.14-.04.21-.05h0Z"/>
      <path class="cls-199" d="m184.05,69.06c.05.04.11.08.16.11.02.02.02.05,0,.08-.04.06-.1.08-.17.05-.04-.05-.05-.12-.06-.18l.05-.05h.01Z"/>
      <path class="cls-102" d="m184,69.11c.05.04.06.11.06.16,0,.04-.01.06-.05.05,0-.14-.13-.15-.21-.21.06,0,.13-.01.2-.01h0Z"/>
      <path class="cls-267" d="m184.93,69.02c-.02.1-.05.19-.07.29-.08.37-.02.46.34.58-.05.07-.07.16-.15.21-.16.12-.33.08-.42-.08-.13-.22-.22-.46-.27-.71-.02-.08.02-.15.06-.22.02-.08.06-.14.16-.09h.36,0Z"/>
      <path class="cls-32" d="m184.57,69.01c-.06.01-.09.05-.1.11-.05.03-.08,0-.1-.05,0-.02,0-.04,0-.06.06-.11.14-.12.21,0h0Z"/>
      <path class="cls-83" d="m174.78,67.46c.15.03.31.09.46.05.15-.04.3-.01.45-.01.06.05.05.1,0,.15-.35.02-.69.06-1.03.08-.22.02-.42.1-.58.24-.15.12-.31.21-.5.22-.32-.09-.66-.11-.99-.09-.3-.11-.56.07-.83.13-.09-.02-.21.02-.28-.09-.04-.25.15-.29.32-.33.19-.05.39-.05.5-.25.02-.04.05-.06.07-.09.48-.1.97-.13,1.46-.08.32.03.63.11.96.08h0Z"/>
      <path class="cls-181" d="m170.05,67.89s.07-.04.11-.06c.04,0,.06,0,.1,0,.22.12.45.06.66-.02.18-.06.35-.11.54-.13.25-.02.51,0,.74-.14.05-.03.12-.03.16.02-.07.25-.3.26-.49.3-.16.04-.29.09-.39.21-.02.07-.04.14-.11.15-.33.05-.66.11-.99.02-.16-.05-.33-.15-.33-.37h0Z"/>
      <path class="cls-174" d="m172.36,67.57c-.31.15-.63.24-.98.22-.25-.02-.44.2-.71.21-.18,0-.32-.01-.42-.16.39-.08.78-.15,1.16-.24.11-.02.22-.02.32-.04.19-.04.38-.06.57-.09.02,0,.04,0,.05-.01v.11h0Z"/>
      <path class="cls-242" d="m172.31,67.48c-.18.09-.38.11-.57.09.18-.09.37-.11.57-.09Z"/>
      <path class="cls-19" d="m168.75,68.29c.08-.07.16-.11.26-.14.02,0,.05.02.08.01.16-.01.33-.03.41.16.07.18.04.35-.11.48-.02.02-.04.04-.06.05-.1.02-.2.05-.28.12-.02.01-.05.02-.08.02-.19-.05-.39-.08-.48-.3-.02-.21.11-.32.26-.42h0Z"/>
      <path class="cls-236" d="m169.53,68.03l.11-.04c.06.03.12.05.19.07.44.11.51.19.58.65-.02.09-.07.16-.15.2-.16,0-.32.04-.46-.05-.05-.04-.08-.09-.08-.15-.02-.29-.23-.45-.43-.61.09-.01.18,0,.25-.07h0Z"/>
      <path class="cls-82" d="m169.27,68.1c.46.17.51.24.51.71-.15.14-.31.15-.46,0,.02-.05.05-.09.07-.14.11-.26.02-.42-.26-.48-.04,0-.08-.02-.12-.04.09-.02.17-.04.26-.05Z"/>
      <path class="cls-218" d="m168.45,68.3s.04,0,.05-.01h.25c-.07.14-.14.28-.21.42-.06.09-.14.1-.24.08-.14-.02-.29-.05-.35-.21,0-.02,0-.05,0-.08.09-.15.3-.02.39-.16.03-.02.06-.03.09-.05h0Z"/>
      <path class="cls-113" d="m165.41,68.26h.35c.04.05.11.04.16.05.1.06.22.1.31.18.01.02.02.05,0,.07-.02.02-.04.02-.06,0-.3,0-.49-.26-.77-.3h0Z"/>
      <path class="cls-184" d="m166.23,68.5c-.12-.04-.25-.06-.31-.2.08-.02.14.01.21.04.02.02.04.04.06.05.02.05.08.02.11.06,0,.02,0,.04,0,.06-.02.01-.04.01-.06,0h0Z"/>
      <path class="cls-18" d="m166.17,68.55h.05c.05-.02.1-.01.15.02.16.25-.08.31-.21.42-.04.02-.08.02-.11,0l-.03-.03c-.16-.28-.16-.29.15-.41h0Z"/>
      <path class="cls-175" d="m166.13,69.17c-.07-.07-.14-.14-.21-.21h.11s.12.04.14.11c0,.04,0,.07-.04.1h0Z"/>
      <path class="cls-109" d="m175.66,67.63s.04-.06.05-.09c.1-.06.21-.04.31-.02.1,0,.21,0,.31,0,.33-.08.55.13.77.3.14.11.27.16.43.18.43.06.85.06,1.27-.07.04-.01.09-.02.12-.05.26-.31.62-.26.95-.25.24,0,.4.21.58.35.12.16.29.21.46.26,0,.16-.11.18-.23.19-.15-.02-.28-.06-.41-.13-.17-.09-.33-.07-.45.1-.07.1-.16.18-.26.25-.25.16-.44.39-.6.64-.06.02-.13.02-.17-.02-.22-.28-.52-.16-.78-.11-.28.05-.53.06-.81.02-.26-.04-.53.05-.79.18-.09.04-.18.1-.27.14-.06,0-.11.03-.16.04-.48,0-.96-.02-1.43-.03-.08,0-.18.01-.24-.06-.04-.12.06-.17.13-.17.21,0,.4-.12.61-.06.11.03.22,0,.33-.04.14-.06.28-.06.43-.03.16.04.31.06.38-.14.06-.18-.02-.47-.17-.54-.34-.15-.46-.45-.54-.78.05-.05.1-.09.18-.04h-.01Z"/>
      <path class="cls-238" d="m180.65,68.35c.1,0,.19-.02.26-.11h.05c.31.41.32.91.41,1.38-.38.06-.75.12-1.13.19-.07.01-.14.05-.21.08-.08.11-.19.12-.32.08-.23-.21-.21-.37.04-.54.26-.18.55-.18.86-.17-.31-.59-.3-.75.03-.92h0Z"/>
      <path class="cls-69" d="m179.73,70.2c.15.37.21.41.58.36.07-.01.14-.02.17-.09.03-.05.02-.14.11-.12.08.02.09.1.11.16.02.08.04.16.06.25.13.21.25.43.43.62.01.06,0,.11-.04.15-.19.15-.41.28-.66.3-.1-.01-.19-.03-.28-.08-.09-.11-.21-.18-.36-.21-.39-.11-.49-.46-.6-.79-.07-.21.04-.36.19-.49.08-.08.17-.15.29-.05h0Z"/>
      <path class="cls-163" d="m181.18,71.39c-.28-.06-.41-.26-.42-.62.21-.03.41-.09.58-.23.07-.06.15-.11.25-.13.35-.08.4-.16.35-.51-.01-.08-.02-.16-.04-.26h1.02c.05.06.09.12.07.2-.08.09-.17.06-.26.04-.08-.02-.17-.04-.25,0-.06.03-.15.07-.13.16.02.08.09.1.16.11.1.01.21-.04.3.02.09.12-.05.19-.06.29,0,.02-.02.05-.02.07-.02.03-.04.06-.07.08-.12.11-.28.17-.41.28-.13.11-.27.21-.43.26-.13.06-.22.18-.36.22-.09.03-.19.09-.28,0h0Z"/>
      <path class="cls-57" d="m179.73,70.2c-.33.12-.44.34-.32.65.11.31.25.58.62.64.11.02.17.11.22.2-.22.15-.43.24-.66,0-.08-.08-.18-.09-.29-.08-.13.01-.24-.03-.32-.14-.25-.31-.32-1.13-.14-1.48.02-.03.04-.05.06-.08.27-.09.55-.17.82,0,.1-.05.21-.05.31-.04.07.16.1.31-.17.26-.05,0-.09.02-.14.04h0Z"/>
      <path class="cls-112" d="m183.54,69.69h.11s.02.04.02.07c-.02.07-.08.12-.12.18-.04.05-.08.09-.14.12s-.12.04-.18-.01c.02-.19.19-.25.31-.36h0Z"/>
      <path class="cls-207" d="m183.24,70.05s.1-.04.15-.06c.09.2-.02.27-.19.3-.06-.02-.1-.06-.05-.13v-.02c.05,0,.08-.05.11-.09h0Z"/>
      <path class="cls-23" d="m183.49,69.89l.16-.15c.12-.02.15-.12.21-.21.05-.06.11-.13.16-.19l.05-.05s.1-.04.15-.06c.11.32-.15.69-.53.75-.08,0-.15,0-.2-.08h0Z"/>
      <path class="cls-135" d="m183.85,69.52c-.02.12,0,.27-.21.21,0-.02,0-.03,0-.05.06-.05.13-.11.2-.16h0Z"/>
      <path class="cls-117" d="m182.67,70.46c0-.12.11-.17.15-.26-.03-.15.05-.26.15-.36-.02-.07-.04-.14-.05-.21h.1c.02.17.04.35.05.52-.05.21-.19.32-.41.31h0Z"/>
      <path class="cls-5" d="m182.67,70.46c.14-.11.28-.21.41-.31h.05l.05.09c-.04.2-.21.36-.39.36-.06,0-.15,0-.13-.11v-.04h0Z"/>
      <path class="cls-262" d="m183.7,69.89c.34-.09.41-.4.51-.68,0-.02,0-.03.01-.05.07,0,.12-.04.15-.1.04.02.06.03.1.05-.08.16.04.29.08.43.02.06.07.12.08.18.02.27.19.36.42.36-.01.07-.05.12-.11.15-.14.18-.36.19-.55.26-.29.11-.55.05-.81-.11-.18-.24-.15-.34.12-.52h0Z"/>
      <path class="cls-86" d="m183.59,70.36c.15-.03.26.11.41.1.12,0,.25.01.36-.05.12.05.26.09.26.26-.27.33-.61.59-.93.88-.23.04-.3-.18-.43-.29-.12-.29.05-.75.32-.9h0Z"/>
      <path class="cls-260" d="m183.33,71.23c.18.04.22.24.36.31-.09.1-.18.2-.26.31-.05.04-.1.07-.15.11-.09.03-.17.04-.24-.04-.07-.25-.26-.48-.16-.77.17-.09.32-.02.46.08h0Z"/>
      <path class="cls-251" d="m184.63,70.67c-.11-.06-.19-.15-.26-.26.19-.05.38-.1.57-.15-.05.18-.22.26-.31.41h0Z"/>
      <path class="cls-120" d="m176.02,67.51c-.11,0-.21.01-.31.02-.15,0-.31-.01-.46-.02.26-.07.52-.07.78,0h0Z"/>
      <path class="cls-271" d="m172.57,67.98c.35,0,.7-.03,1.03.11.06.05.14.05.22.04.28-.03.43.14.38.42-.03.14-.07.28-.12.42-.33.42-.45.45-.89.17-.14-.09-.29-.15-.45-.16-.16,0-.3-.06-.45-.12-.16-.06-.34-.14-.33-.34.01-.22.18-.34.36-.43.08-.04.19-.04.26-.09h0Z"/>
      <path class="cls-186" d="m174.01,68.97c0-.14.01-.26.06-.39.09-.24.01-.35-.24-.38-.09-.01-.19,0-.24-.11.12.01.22-.02.29-.12.28-.32.68-.38,1.06-.39.23,0,.48-.08.7.04-.05.02-.11.04-.15.05-.11.45-.31.85-.49,1.26-.13.29-.32.38-.61.33-.07-.18-.29-.16-.4-.3h0Z"/>
      <path class="cls-134" d="m174.01,68.97c.06,0,.13.01.2.01.27-.01.28,0,.16.25,0,.01-.01.02-.02.04-.22.06-.44.09-.64.19-.11.02-.21.01-.32,0-.02,0-.05,0-.08-.01-.19-.09-.38-.18-.6-.15-.16.02-.29-.12-.45-.16-.31-.1-.67-.09-.91-.38-.12-.33-.05-.46.38-.61.25-.18.54-.16.82-.15-.14.15-.33.22-.47.39-.11.13-.12.22.04.3.19.09.38.19.61.19s.41.13.59.24c.28.16.28.17.52-.05.05-.04.09-.07.16-.08h0Z"/>
      <path class="cls-59" d="m171.75,68.14c-.14.17-.46.24-.31.56-.12.16-.31.18-.48.16-.21-.02-.41-.08-.6-.16-.05-.08-.09-.16-.12-.25-.04-.16-.13-.28-.32-.26-.15.01-.24-.07-.29-.2.14-.04.28-.07.41-.11.29.34.66.36,1.06.26.13-.03.28.08.38-.06.08.07.17.05.26.05h0Z"/>
      <path class="cls-7" d="m168.29,68.71h.26c.13.14.33.13.46.26.14-.02.28-.06.43,0,.11.12.2.24.06.39.05,0,.1-.04.16-.03.09.01.17.03.21.12.04.09-.05.13-.09.19-.1.14-.28.1-.39.21-.19.04-.38,0-.56-.04-.06-.01-.11-.04-.13-.1,0-.04,0-.08.03-.11.11-.06.15-.13.01-.21-.04-.02-.06-.06-.11-.06-.26-.02-.36-.21-.43-.42,0-.09.04-.15.11-.19h0Z"/>
      <path class="cls-240" d="m169.42,69.02c-.14-.02-.28.04-.41-.05h0c.08-.06.18-.09.26-.15h.52c.15,0,.32-.03.46.05.05.06.04.12,0,.18-.28.12-.55.14-.82-.03h-.01Z"/>
      <path class="cls-7" d="m169.27,68.81c-.04.12-.14.17-.26.15.04-.14.15-.15.26-.15Z"/>
      <path class="cls-201" d="m170.25,69.02v-.15c.04-.05.07-.11.11-.15.09-.05.19-.09.27-.04.27.17.54.05.81.04.26.21.58.25.88.36.04.05.03.09,0,.13-.1.09-.21.09-.33.05-.45-.14-.91-.14-1.37-.15-.11,0-.22.02-.32-.04-.01-.01-.02-.02-.03-.04h0Z"/>
      <path class="cls-104" d="m166.28,68.45s-.06-.04-.1-.06c.19,0,.38,0,.56.01.02.03.01.05-.01.08-.06.05-.14.04-.21.05-.09,0-.18,0-.25-.08h.01Z"/>
      <path class="cls-64" d="m166.74,68.44v-.04h.15c.14.02.28-.04.41.04,0,.01-.01.02-.02.04-.13.09-.27.04-.41.05-.03,0-.05,0-.08-.02-.02-.01-.04-.04-.05-.06h0Z"/>
      <path class="cls-190" d="m167.83,68.34c.11-.08.24-.04.36-.05.01.03.01.05-.01.08-.04.03-.08.04-.12.05-.09,0-.18.02-.24-.08Z"/>
      <path class="cls-217" d="m167.83,68.34c.09,0,.17,0,.26,0-.06.15-.18.12-.29.08-.02-.02-.03-.05-.01-.08h.05,0Z"/>
      <path class="cls-197" d="m168.18,68.34s0-.03,0-.05h.26l-.05.05c-.07.05-.14.06-.21,0Z"/>
      <path class="cls-268" d="m166.8,68.46h.05c.14.04.29.01.43.02.11,0,.2-.06.31-.06.02,0,.05-.01.08-.01.11.04.24-.03.32.1v.05c.02.06,0,.1-.05.14-.17.13-.15.24.04.32.05.1.11.19.07.31-.02.04-.04.08-.08.1-.04.02-.08.02-.12.02-.04-.01-.08-.03-.11-.06-.02-.02-.03-.04-.04-.06-.15-.14-.32-.2-.52-.22-.03.01-.06.03-.08.05-.04.04-.07.06-.12.05-.08-.02-.12-.08-.11-.17.03-.15.18-.19.26-.31-.11-.09-.3-.02-.34-.2,0-.02.01-.05.03-.06h0Z"/>
      <path class="cls-114" d="m167.93,69.02h-.2s-.11,0-.13-.05c-.03-.07.02-.11.06-.15.11-.09.17-.22.32-.26.11.05.21.11.31.15-.02.07-.04.14-.05.21-.03.21-.09.22-.31.11Z"/>
      <path class="cls-51" d="m167.98,68.5c-.11-.06-.24-.05-.36-.05.01-.12.09-.06.15-.05.11,0,.22.03.31-.04.04,0,.06,0,.1-.01.07,0,.14,0,.21,0-.07.24-.26.12-.41.15h0Z"/>
      <path class="cls-214" d="m168.18,71.9s-.1-.08-.15-.11c-.08-.21-.3-.33-.36-.55-.07-.21-.04-.42.1-.58.12-.13.2-.26.26-.42.15-.05.22.04.29.15.05.16-.02.31-.06.45-.08.22,0,.32.2.39.16.06.35.09.47.25.03.08,0,.15-.05.21-.11.14-.25.26-.31.45-.02.06-.09.09-.17.07-.04-.01-.06-.04-.08-.08.01-.11-.02-.18-.14-.22h0Z"/>
      <path class="cls-155" d="m168.03,70.25c.1.18.1.32-.12.4-.08.03-.14.09-.13.17.01.15-.07.28-.11.41-.05-.04-.09-.08-.14-.11-.04-.02-.04-.06-.06-.09.06-.21-.16-.37-.11-.58.24-.04.4-.18.51-.38.04-.02.07-.02.11-.01.05.02.08.06.09.12,0,.02-.01.05-.04.06h0Z"/>
      <path class="cls-131" d="m166.8,68.46v.04c-.05.08-.12.14-.21.16-.05.01-.11.01-.15,0-.04-.02-.07-.04-.11-.06l-.11-.05v-.05h.05c.08-.06.18.01.26-.05.07,0,.14,0,.21,0,.02,0,.04.01.05.01h0Z"/>
      <path class="cls-126" d="m166.54,68.45c-.08.07-.17.05-.26.05v-.05h.26Z"/>
      <path class="cls-122" d="m167.51,71.03c-.17-.12-.2-.35-.36-.47-.02-.04-.04-.07-.05-.1-.05-.05-.13-.07-.12-.16.02-.05.06-.07.12-.07.11.04.19.11.25.2,0,.01,0,.02,0,.04.11.18.28.33.15.57h0Z"/>
      <path class="cls-239" d="m166.59,69.79c-.08-.16-.27-.25-.35-.42.15-.09.21.05.3.11.06.09.18.16.15.3-.01.02-.02.05-.05.06l-.05-.05h0Z"/>
      <path class="cls-204" d="m166.9,70.25h.06s.06.01.06.05c.03.05.06.11.08.16-.11-.02-.18-.09-.2-.21h0Z"/>
      <path class="cls-166" d="m166.33,68.61h.1s.1.09.12.16c.04.2.12.39.06.6-.11.12-.19.02-.28-.03-.02-.01-.04-.03-.06-.05-.04-.11-.11-.21-.16-.32.04-.07.06-.13.15-.16.11-.04.11-.11.06-.2h.01Z"/>
      <path class="cls-176" d="m166.13,68.97c.14.06.21.16.21.31-.04.02-.07,0-.09-.02-.04-.06-.07-.12-.11-.18-.04-.04-.07-.07-.1-.11h.11,0Z"/>
      <path class="cls-154" d="m166.13,69.07c.07.04.12.09.15.15-.02.04-.04.07-.09.05h-.01s-.04-.06-.05-.1v-.11h0Z"/>
      <path class="cls-58" d="m171.38,74.98c-.61-.39-1.1-.92-1.65-1.38-.4-.19-.69-.48-.88-.88v-.05s-.04-.06-.01-.09c.16-.19.66-.31.89-.21.12.05.24.09.37.09.51-.04.78.31,1.05.65.32.17.32.19.29.56-.02.33-.06.66.05.98.04.12.01.25-.12.33h0Z"/>
      <path class="cls-269" d="m178.24,75.72l-.11.05h-.15c-.06.11-.15.14-.27.16-.32.06-.65.06-.97.04h-.15c-.1-.04-.21-.01-.31-.02-.02,0-.05,0-.08-.02-.12-.09-.14-.23-.16-.36-.04-.24-.09-.46-.37-.54-.05-.01-.08-.06-.09-.12,0-.03.02-.05.05-.06.06-.03.13-.05.19-.08.07-.03.14,0,.21,0,.25-.05.51-.1.77-.06.19-.04.38-.02.58.02.02,0,.05.01.08.02.26.08.53.08.79,0,.08-.02.16-.06.25-.02.05.03.07.07.09.12.01.05,0,.12-.03.15-.25.19-.32.45-.32.75v-.02Z"/>
      <path class="cls-180" d="m174.99,75.97c-.33.05-.65-.06-.98-.05-.06-.07-.16-.05-.24-.1-.18-.35-.06-.68.33-.91.11-.06.22-.14.35-.16.15-.02.29-.02.43.03.06.04.15.05.2.11.1.37.11.74-.09,1.09h0Z"/>
      <path class="cls-234" d="m174.43,74.83c-.48.21-.63.46-.62.98-.02.04-.07.02-.1.04-.29-.07-.61-.04-.88-.21.08-.22.14-.45.21-.67.09-.27.33-.38.6-.42.05,0,.1.03.14.06.09.13.24.08.36.08h.12c.09,0,.17.01.18.13h0Z"/>
      <path class="cls-249" d="m170.09,72.57c-.16.02-.3-.04-.43-.11-.07-.04-.15-.11-.24-.06-.18.11-.38.19-.57.28-.16-.12-.24-.31-.41-.42-.05-.02-.08-.04-.05-.1.02,0,.07-.02.07-.02.01-.31.3-.42.44-.65.03-.03.06-.04.11-.02.05.02.08.07.09.12.02.33.24.42.52.43.04,0,.08,0,.12.02.21.08.44.09.61.25.06.24-.15.22-.26.28h0Z"/>
      <path class="cls-188" d="m173.65,74.63c-.35.11-.59.29-.58.7,0,.15-.09.27-.24.32-.17-.05-.35-.1-.52-.15-.07-.08-.2-.06-.26-.15.08-.29.29-.45.55-.56.11-.04.2-.08.27-.18.18-.24.42-.27.69-.15.05.04.11.08.09.17h0Z"/>
      <path class="cls-105" d="m174.99,75.97c.02-.36.04-.71.05-1.07.09-.12.22-.08.34-.06.38.35.43.81.12,1.1-.15.03-.31-.02-.46.03h-.05Z"/>
      <path class="cls-11" d="m175.04,75.97c.15-.08.31-.03.46-.04.14-.12.28-.15.44-.04.03.02.04.05.02.09h-.92,0Z"/>
      <path class="cls-249" d="m168.34,72.1s-.04-.03-.06-.04c-.04-.05-.06-.1-.1-.15.15-.02.22.04.16.19h0Z"/>
      <path class="cls-36" d="m173.7,75.86s.06-.03.1-.04c.08,0,.18-.01.21.1-.1-.02-.21-.04-.31-.05h0Z"/>
      <path class="cls-168" d="m176.28,75.92c.11,0,.22-.04.31.04h-.32s-.03-.03,0-.04h0Z"/>
      <path class="cls-101" d="m176.28,75.92v.04h-.31v-.04c.08-.09.17-.08.25,0,.02,0,.04,0,.05,0h0Z"/>
      <path class="cls-132" d="m178.9,75.6c-.19.04-.38.08-.56.12h-.1c-.07-.13-.05-.28-.14-.41-.06-.08.02-.12.08-.14.18-.06.28-.18.36-.33.06-.16.19-.13.32-.11.05.02.09.06.08.11-.02.16.08.25.19.35.06.21-.14.28-.22.41h0Z"/>
      <path class="cls-196" d="m179.73,69.94c-.28.02-.55.05-.82.07-.06.06-.14.09-.22.06-.22-.15-.09-.28.03-.39.12-.11.24-.22.24-.4.02-.23.12-.39.32-.53.16-.11.35-.21.45-.39.14-.24.35-.28.59-.15.11.06.21.12.33.15-.24.36-.22.5.08.76.08.07.09.14.06.23s-.11.1-.19.08c-.27-.08-.51-.02-.75.11-.22.12-.25.22-.11.41h0Z"/>
      <path class="cls-130" d="m174.37,69.22c.28.04.4-.09.55-.35.15-.26.12-.59.37-.81.11-.09,0-.33.21-.4.09.14.24.23.26.43.01.08.11.16.21.21.1.04.25.01.28.15.05.2.12.4.04.61-.08.23-.27.25-.46.19-.16-.05-.31-.05-.46.04-.23.12-.49-.05-.73.04-.1.04-.22.04-.33.06-.12.12-.26.09-.41.07-.05-.15.07-.16.16-.17.1-.01.2,0,.29-.05h.01Z"/>
      <path class="cls-256" d="m178.96,69.27c.19.16.06.27-.06.38-.11.09-.28.14-.25.33-.01.03-.04.05-.06.06-.12.04-.24.02-.35.01-.07-.03-.14-.07-.18-.14-.15-.37-.48-.35-.79-.36-.36-.02-.74.02-1.09-.12.2-.14.4-.26.65-.32.22-.05.41-.06.62,0,.14.05.31.02.45-.05.24-.11.49-.02.73-.11.08-.03.12.05.14.12.04.09.09.16.18.2h0Z"/>
      <path class="cls-46" d="m176.18,69.43c.42-.07.84.06,1.26,0,.19-.02.38.08.56.15.19.08.08.32.24.4-.04.08-.12.08-.19.09-.11.02-.22.05-.33.08-.12.01-.24,0-.35,0-.11,0-.21.02-.31-.04-.07-.05-.1-.14-.14-.21-.04-.14-.12-.22-.28-.18-.2.04-.36-.06-.54-.12-.06-.02-.11-.08-.08-.16h.16Z"/>
      <path class="cls-71" d="m176.02,69.43c.17.13.36.22.58.19.21-.04.32.05.39.22-.18.15-.37.06-.55,0-.29-.09-.58-.18-.89-.09-.7-.04-1.39-.12-2.09-.17-.13-.02-.32.06-.35-.16.06-.11.15-.07.23-.04h0c.12.05.25.02.37.02.07-.02.14-.03.2.04.14-.04.27-.06.41-.05.09.07.19.05.29.05h1.4Z"/>
      <path class="cls-129" d="m178.6,70.01s.04-.01.05-.02c.09,0,.17.01.26.02-.15.45-.05.88.1,1.31.05.15.11.24.29.19.06-.02.17-.03.19,0,.21.25.49.19.76.18.09.02.18.04.26.05.02.07-.01.12-.06.15-.31.18-.59.41-.96.45-.04,0-.08-.01-.12-.03-.15-.17-.39-.25-.52-.45-.05-.09-.12-.14-.22-.18-.26-.13-.54-.14-.8-.22-.28-.09-.39-.34-.44-.62-.04-.25.09-.43.31-.55.17-.09.33-.21.52-.28.14-.02.26.02.4-.02h0Z"/>
      <path class="cls-258" d="m179.48,72.26c.38-.09.69-.33,1.03-.52.21-.09.41-.18.61-.26.24.11.29.2.26.48-.2.26-.46.39-.79.37-.08,0-.15,0-.21.05-.32.28-.71.43-1.12.54-.31.08-.51-.08-.5-.42.13-.2.36-.15.54-.22.05-.02.12,0,.17-.03h0Z"/>
      <path class="cls-116" d="m181.32,71.95c.04-.21-.16-.31-.21-.47.02-.03.04-.06.06-.09.24-.04.4-.22.62-.3.12.15.24.29.39.41.21.18.11.42.02.63-.36.28-.79.19-.88-.18h0Z"/>
      <path class="cls-191" d="m182.15,72.11c0-.07,0-.14.01-.21q.05-.31-.24-.42c-.21-.08-.11-.26-.14-.4.14-.09.28-.17.41-.26.14,0,.26-.11.41-.05.14.1.28.2.25.41.12.22.24.45.21.72-.11.29-.56.51-.91.43-.08-.07-.08-.15-.02-.23h0Z"/>
      <path class="cls-96" d="m182.88,71.18c-.08-.12-.22-.2-.26-.36-.08-.09-.05-.18,0-.26l.05-.05c.14.12.21-.03.31-.08.08-.04.14-.11.21-.17.1-.06.19-.14.2-.26l.1-.1h.21c-.06.15-.23.28-.11.46-.09.19-.18.39-.26.58-.05.1-.05.2,0,.29-.16,0-.31,0-.46-.05h0Z"/>
      <path class="cls-17" d="m182.98,69.84c0,.14-.02.28-.15.36-.1.02-.2.06-.3.06-.14,0-.26-.04-.31-.18-.05-.15.06-.23.18-.3.21-.12.39,0,.59.05h0Z"/>
      <path class="cls-266" d="m182.61,70.56v.26c-.14.02-.27.1-.41.01.14-.09.27-.18.41-.27h0Z"/>
      <path class="cls-170" d="m181.79,73.7c-.24.18-.48.35-.72.52-.43-.32-1.05-.17-1.24.31-.09.22-.06.29.19.35.08.02.15.03.19.11,0,.11-.08.13-.16.15-.11.02-.21.07-.32.07-.33-.05-.46-.35-.34-.66.19-.49.56-.73,1.02-.86.32-.09.52-.34.81-.47.19.01.36-.11.56-.04.11.04.25.04.26.2-.08.11-.17.21-.25.31h0Z"/>
      <path class="cls-31" d="m182.05,73.39c-.26-.15-.54-.11-.82-.1-.02.02-.04.02-.06,0-.02-.17.11-.21.22-.27.21-.11.38-.25.45-.48.11-.1.16-.29.37-.24.31-.1.62-.21.88-.41.07.02.14.04.21.05-.42.48-.83.96-1.25,1.43h0Z"/>
      <path class="cls-1" d="m173.34,69.38c-.07,0-.15,0-.21.05-.19.21-.41.05-.62.04-.11-.07-.29-.1-.21-.3v-.11c.11,0,.19.05.29.09.05.02.13.07.16.05.26-.15.39.08.58.16h0Z"/>
      <path class="cls-186" d="m173.91,69.43h-.21s-.04-.04,0-.05c.2-.14.43-.17.67-.15-.06.07-.15.1-.25.1-.09,0-.17.02-.22.11Z"/>
      <path class="cls-1" d="m173.7,69.38v.05c-.12-.01-.25.04-.36-.05h.36Z"/>
      <path class="cls-61" d="m169.42,69.02h.82s.04.04.05.06c.03.23-.16.38-.22.57-.13.04-.16.17-.25.25-.13.08-.26.05-.39,0-.04-.03-.06-.06-.07-.11.12-.12.33-.13.42-.29-.02-.06-.07-.06-.11-.06-.14,0-.26.01-.2-.2.02-.06-.04-.14-.06-.21h0Z"/>
      <path class="cls-187" d="m167.93,69.02c.11-.02.25.06.31-.11.11.28.39.29.6.43.08.05.22.08.18.21-.04.14-.17.07-.26.08-.23-.18-.53-.16-.77-.31-.02-.11-.04-.21-.05-.31h0Z"/>
      <path class="cls-121" d="m167.98,69.32c.29.02.59.02.77.31-.02.02-.04.04-.05.06-.03.03-.06.04-.11.03-.12-.12-.29-.09-.43-.16-.06-.03-.14-.05-.21-.08-.03-.03-.05-.06-.03-.1l.05-.05h0Z"/>
      <path class="cls-25" d="m169.37,69.78s.04.04.05.06c0,.01-.02.02-.02.04-.2.06-.4.1-.61.04-.03,0-.05-.02-.08-.04-.08-.11.04-.11.09-.14.19-.03.38.09.57.04h0Z"/>
      <path class="cls-158" d="m168.81,69.75s-.07.06-.11.09c-.09.12-.2.11-.32.06-.13-.15.01-.16.11-.2.02,0,.05-.01.07-.02h.04s.07,0,.11.01c.02.05.06.04.11.05h0Z"/>
      <path class="cls-179" d="m170.25,69.07v-.05c.61,0,1.23-.05,1.83.15.07.02.15,0,.23.01,0,.14.14.14.21.21-.09.14-.24.11-.37.13-.36-.11-.72-.2-1.1-.18-.16.01-.32-.04-.47-.1-.1-.08-.25-.05-.33-.16h0Z"/>
      <path class="cls-85" d="m167.77,68.4c-.05,0-.11,0-.15.05h0c-.09.04-.17.05-.26,0,.11-.18.28-.07.42-.09v.04h0Z"/>
      <path class="cls-51" d="m167.36,68.44h.26c-.09.08-.21.05-.31.05-.04-.02-.04-.04,0-.04v-.02h.05Z"/>
      <path class="cls-78" d="m167.31,68.45v.04c-.15-.01-.32.04-.46-.05h.46Z"/>
      <path class="cls-195" d="m166.59,68.6c.03-.12.12-.1.21-.11.09.12.22.05.33.07.06.01.14,0,.16.08.02.08-.04.12-.1.16-.1.06-.2.14-.3.2-.25,0-.38-.18-.31-.41h0Z"/>
      <path class="cls-28" d="m166.59,68.6c.02.2.15.32.31.41,0,.07.04.12.1.15.17.09.26.23.29.42,0,.03-.02.05-.04.06-.05.02-.1.01-.15-.02-.14-.17-.25-.36-.44-.49-.12-.08-.14-.25-.18-.38-.05-.04-.05-.1-.05-.15h.16Z"/>
      <path class="cls-87" d="m167.93,69.38l.05.05s.15.01.11.12c-.09.09-.19.02-.29.01-.11,0-.21,0-.25.14-.03.03-.06.05-.1.05-.08-.01-.12-.06-.13-.14-.01-.07-.03-.14.02-.21.12-.1.28-.05.41-.06.03,0,.05,0,.08.02.04,0,.06,0,.1,0h0Z"/>
      <path class="cls-205" d="m167.1,69.02c.21-.04.57.1.67.26-.08.05-.16.02-.24.02-.02,0-.05-.01-.06-.02-.07-.04-.14-.09-.21-.12-.07-.02-.14-.05-.16-.14h0Z"/>
      <path class="cls-35" d="m167.26,69.58c-.09-.14-.21-.25-.26-.41l.05-.11c.06.01.09.07.14.1.02.02.03.04.05.05.1.1.1.22.05.34-.01,0-.02.02-.03.02h0Z"/>
      <path class="cls-164" d="m167.83,69.37s-.04,0-.05,0c-.13.06-.26-.02-.39,0-.03,0-.05-.01-.08-.02-.02-.02-.03-.05-.03-.07.01-.04.04-.07.08-.09.05,0,.11,0,.15.03h0c.08.05.18.04.26.1.02.02.04.03.05.05h0Z"/>
      <path class="cls-65" d="m167.11,69.22s-.05-.09-.05-.15l.05-.05c.07.02.14.04.21.05.02.02.02.04.02.06-.05.09-.16.02-.22.09h0Z"/>
      <path class="cls-185" d="m167.77,69.32c-.1,0-.19-.02-.26-.1.09,0,.18,0,.26.05v.05h0Z"/>
      <path class="cls-223" d="m169.01,71.49h-.11c-.2-.07-.41-.14-.61-.21-.2-.08-.25-.2-.16-.41.06-.15.05-.32.15-.46.08-.09.17-.02.26-.01.06.03.1.09.13.15.09.17.23.28.44.26.04.02.07.04.11.06.02.02.04.04.05.07.07.34.01.46-.27.55h0Z"/>
      <path class="cls-127" d="m168.55,70.46c-.09-.02-.17-.04-.26-.05-.09-.05-.17-.11-.26-.15v-.05c.06-.08.14-.04.22-.02.12.04.23.11.31.21,0,.02,0,.05-.01.07h0Z"/>
      <path class="cls-6" d="m167.88,70.09c-.04.35-.21.46-.52.36h0c-.04-.14.12-.16.15-.26.08-.08.18-.12.28-.18.05,0,.11,0,.09.08h0Z"/>
      <path class="cls-108" d="m167.88,70.09s-.06-.04-.1-.05c-.02-.02-.03-.04-.04-.06,0-.02.01-.05.03-.06.02-.01.04-.02.06-.02s.05,0,.07.01c.06.03.11.07.11.14,0,.02-.02.05-.04.06-.04,0-.07-.01-.11-.02h0Z"/>
      <path class="cls-203" d="m168.24,70.25c-.07-.02-.14-.04-.21-.05-.02-.03-.04-.06-.05-.09v-.02s.06-.04.11-.04c.08.02.15.05.18.13,0,.02,0,.05-.02.07h0Z"/>
      <path class="cls-73" d="m167.01,70.3s-.04-.04-.06-.05v-.05c.01-.13-.15-.26,0-.39.1-.04.18,0,.24.08.06.12.08.24-.02.36-.02.02-.05.03-.09.01-.03.02-.06.03-.09.05h0Z"/>
      <path class="cls-224" d="m167.1,70.25h.05c.14-.13.28-.15.41,0-.04.09-.14.14-.21.21-.12-.02-.19-.11-.26-.21h0Z"/>
      <path class="cls-42" d="m166.19,69.27s.06-.03.09-.05c.02.02.04.04.05.05h0c.07.1.27.08.26.27-.04.02-.07.02-.11-.01-.09-.04-.14-.15-.25-.16l-.05-.11h0Z"/>
      <path class="cls-111" d="m166.49,69.54h.11c.07-.02.11.01.15.06.03.08.02.15-.05.2-.02,0-.04,0-.05-.01,0-.11-.11-.16-.15-.25h0Z"/>
      <path class="cls-273" d="m166.95,69.84c.05.12.08.24.01.35-.06-.09-.17-.15-.21-.25.02-.11-.07-.22,0-.33.04-.02.08-.02.12-.01.09.06.16.12.09.24h0Z"/>
      <path class="cls-139" d="m166.74,69.64c.01.1.09.2,0,.31-.02-.05-.04-.1-.06-.15v-.21s.02,0,.04,0c.02.01.03.04.02.06h0Z"/>
      <path class="cls-76" d="m166.49,68.76c.09.28.41.36.53.61.04.08.09.14.14.21-.02.02-.04.03-.06.04-.14,0-.21-.2-.37-.14h-.07s-.09-.04-.06-.1c-.07-.2-.07-.41-.11-.62h0Z"/>
      <path class="cls-154" d="m166.59,69.38s.07.04.1.05c.05.05.05.1,0,.15h0s-.07-.04-.1-.05c-.06-.11-.21-.14-.26-.26.09.04.17.07.26.1h0Z"/>
      <path class="cls-253" d="m173.54,74.53c-.27-.11-.48-.04-.62.21-.03.05-.08.12-.12.12-.36,0-.48.36-.75.49-.25-.07-.46-.23-.67-.38.11-.3-.14-.58-.06-.88.04-.14-.02-.32.02-.46.08-.27-.02-.4-.27-.45-.02-.08.04-.13.09-.12.27,0,.52-.18.8-.08.16.05.25.01.23-.18-.01-.1.01-.19.11-.24.18-.06.33-.01.47.1.09.11.11.24.07.36-.05.19-.14.36-.16.56-.01.11-.1.18-.24.11.2.06.38.15.53.28.09.08.1.24.25.27.05.04.11.05.17.05.09.03.16.09.16.19,0,.01-.01.02-.02.04h.01Z"/>
      <path class="cls-123" d="m172.32,72.62c-.06.06-.05.12-.02.19.04.09.09.18,0,.25-.08.06-.19.11-.29.06-.32-.15-.62.05-.93.07-.15-.1-.22-.27-.34-.4-.19-.2-.39-.24-.64-.22.09-.08.2-.14.26-.26.03-.05.08-.06.14-.07.25.03.39.22.56.38.26.25.36.25.62,0,.08-.08.15-.16.25-.21.17-.01.35-.02.4.21h0Z"/>
      <path class="cls-3" d="m176.22,75.92h-.72c.13-.36.12-.71-.11-1.03.07-.07.14-.07.21,0,.06.02.12.05.19.06.18.04.28.15.31.33.04.21.08.42.12.63h0Z"/>
      <path class="cls-229" d="m176.85,74.78c-.28.02-.55.04-.82.05-.14-.25-.14-.51.04-.75.15-.1.32-.08.48-.1.38.09.52.43.31.79h0Z"/>
      <path class="cls-34" d="m176.07,74.13c-.02.24-.04.47-.05.71-.07,0-.14,0-.21.01-.14-.02-.28.02-.41-.03-.08-.07-.09-.18-.15-.26-.12-.17-.12-.34.05-.49.11-.05.22-.02.34-.03h.29s.08.02.11.05c0,.01.01.02.02.04h0Z"/>
      <path class="cls-194" d="m176.85,74.78c0-.18-.06-.36-.05-.55.02-.19-.19-.06-.26-.15.05-.1.15-.11.24-.12.12,0,.24.04.36.05.09.02.16.09.24.14.28.21.29.38.04.64h-.56,0Z"/>
      <path class="cls-21" d="m177.41,74.78c.19-.33,0-.53-.26-.71.11-.13.25-.07.38-.08.55.13.55.15.25.62-.01.02-.02.05-.04.06-.05.09-.14.12-.24.11h-.04s-.04,0-.05,0h0Z"/>
      <path class="cls-125" d="m178.9,74.78c-.12,0-.25-.01-.36.05-.02-.04-.04-.07-.05-.1.01-.05.04-.09.09-.11.14-.02.21-.09.19-.25-.01-.07-.04-.16.06-.2.35.05.48.29.31.59-.08.06-.16.09-.25.01Z"/>
      <path class="cls-27" d="m178.6,74.68l-.11.05c-.34.12-.68.21-1.03.05h0c.2-.08.42-.06.62-.11.05-.02.08-.06.12-.09.04-.04.08-.06.14-.06.04,0,.08,0,.11.01.06.04.13.08.15.16h0Z"/>
      <path class="cls-146" d="m175.4,74.78c.14.02.29-.04.41.05-.04.06-.09.04-.15.04-.16-.05-.33,0-.5-.02-.08,0-.17.04-.24-.04.15-.21.31-.18.48-.04h0Z"/>
      <path class="cls-157" d="m174.94,74.83c.24.05.49-.05.72.06-.02,0-.04,0-.06,0h-.56c-.07,0-.14,0-.21-.01.01-.08.05-.08.11-.05h0Z"/>
      <path class="cls-77" d="m174.94,74.83s-.09,0-.11.05c-.13-.08-.27-.03-.41-.05-.05-.08-.14-.03-.21-.05-.09-.08-.25-.08-.31-.22-.03-.12.01-.21.12-.25.09-.04.14-.12.21-.18.33-.13.68-.09,1.02-.04.01.01.02.02.04.03-.05.15-.06.29.08.41.09.07.07.16.02.25-.15.02-.31-.04-.46.04h0Z"/>
      <path class="cls-119" d="m173.96,74.58c.12.03.23.06.26.2h-.09c-.05-.04-.12,0-.18-.04-.04-.04-.04-.09-.01-.14.01,0,.02-.02.03-.02h0Z"/>
      <path class="cls-167" d="m173.96,74.73c.05.02.12-.01.16.06-.13-.02-.31.16-.37-.1,0,0,.01-.01.02-.02.02-.01.04-.01.05-.02.03,0,.05.01.08.03.02.02.04.04.06.05h0Z"/>
      <path class="cls-92" d="m173.65,74.63s-.07-.07-.11-.1h0c.06-.07.14-.07.21-.02.05.06.05.11,0,.17h0s-.06-.03-.1-.05h0Z"/>
      <path class="cls-254" d="m169.01,71.49c.16-.15.25-.34.21-.56.09-.08.18-.03.21.05.1.25.34.35.52.52.06.13.11.26.07.42-.04.14-.14.21-.28.21-.1,0-.2.02-.31,0-.33-.08-.41-.18-.42-.62h0Z"/>
      <path class="cls-39" d="m169.74,72.11c.29-.15.17-.39.15-.62.02-.05.06-.08.12-.09.19,0,.28.17.41.28.1.21.33.39.09.64h-.15c-.23,0-.42-.11-.62-.21h0Z"/>
      <path class="cls-52" d="m178.9,75.6c.04-.15.12-.28.21-.41.18-.15.32-.04.48.06,0,.16-.14.11-.22.14h0c-.06.11-.15.12-.25.12-.07.03-.14.06-.21.08h0Z"/>
      <path class="cls-169" d="m179.57,75.3c-.15-.06-.31-.09-.46-.09-.3-.04-.32-.09-.21-.41.07-.02.14-.04.21-.05.03-.03.06-.04.1-.02.11.07.14.19.21.29.08.12.17.18.31.18.02.02.02.04.02.06-.02.05-.06.08-.11.08-.02,0-.05-.02-.06-.04h0Z"/>
      <path class="cls-2" d="m178.6,70.01c-.13.08-.28.03-.41.05-.04.03-.09.05-.14.02-.02-.01-.02-.02-.02-.04,0-.02,0-.02,0-.02.07,0,.14-.01.21-.02.12,0,.24.01.36.02Z"/>
      <path class="cls-241" d="m178.9,71.85c.16.13.38.19.46.41-.33.11-.66.19-1,.14-.04,0-.07-.02-.1-.02-.53.12-.85-.21-1.16-.56-.11-.14-.25-.24-.39-.32-.03-.02-.08-.02-.09-.05-.14-.35-.49-.4-.77-.56-.02-.02-.04-.04-.05-.06-.33-.39-.27-.64.21-.81.04-.02.09-.02.13-.04.31-.06.61-.14.91.05.11,0,.21.01.31.02.13.14.06.24-.06.35-.26.23-.26.3-.04.56.13.15.26.29.17.52-.05.14.08.09.15.1.35.05.69.07,1.04.11.12.02.21.07.28.15h0Z"/>
      <path class="cls-128" d="m178.9,71.85c-.5-.1-1.01-.13-1.52-.14-.05,0-.11.02-.14-.03-.04-.06-.01-.13.03-.16.19-.18.08-.3-.06-.45-.36-.38-.35-.46.08-.79.09-.06.06-.15.06-.24.12,0,.24,0,.35-.01.11-.04.21-.04.31,0,.05,0,.11,0,.16,0-.1.16-.25.25-.41.33-.32.16-.38.34-.22.66.14.28.31.39.62.36.02,0,.04-.01.05-.01.16,0,.62.29.68.45h.01Z"/>
      <path class="cls-264" d="m177.05,70.04c-.31.03-.62-.03-.93.05-.07-.07-.13-.15-.22-.2-.06-.07-.15-.1-.24-.13-.06-.02-.13-.04-.11-.13.5-.07.96.14,1.45.21.02.06.04.13.05.2h0Z"/>
      <path class="cls-265" d="m178.03,70.04h-.31c.09-.08.21-.04.32-.04v.04h0Z"/>
      <path class="cls-150" d="m175.55,69.64c.12.1.32.05.41.21-.02.05-.06.09-.12.09-.41.01-.82.06-1.23-.03-.21-.28-.51-.16-.77-.19-.15-.06-.38.04-.41-.23.39.05.78.1,1.17.08.31-.01.62.11.94.08h0Z"/>
      <path class="cls-33" d="m173.44,69.48c.09.18.29.05.41.15-.05.08-.12.08-.21.08-.36,0-.71.01-1.06.03-.13,0-.25-.01-.33-.13-.05-.05-.08-.11-.04-.18.1-.05.21-.05.31-.05.21,0,.41.08.62.05.09.09.2.08.31.05h0Z"/>
      <path class="cls-91" d="m175.92,70.82c.13.09.25.18.43.1.11-.05.18.06.17.16-.01.18.08.26.23.32.28.12.45.37.65.58.21.22.44.31.76.31.4,0,.8-.05,1.2-.02h.11c-.2.15-.45.17-.68.26-.05.08-.11.16-.21.18-.68.18-1.35.39-2.05.4-.08,0-.15,0-.23-.02.02-.23-.18-.38-.24-.57-.08-.25-.05-.51-.07-.76.04-.15.07-.29.16-.42,0,0,0,0,0,0-.01,0-.02.02-.04.02-.25.03-.5.07-.62-.23.04-.31.13-.38.41-.32h0Z"/>
      <path class="cls-193" d="m176.28,73.03c.66.03,1.28-.16,1.9-.32.21-.05.42-.12.62-.18.17.36.18.34.55.26.29-.06.53-.24.79-.35.05-.02.1-.05.12-.09.08-.16.18-.23.36-.12.09.06.2-.01.29-.06.14-.06.27-.15.41-.22.22.31.52.25.82.15.02.07.04.14.05.21-.11.09-.21.17-.31.26-.44-.31-.85-.11-1.25.1-.3.15-.61.26-.93.34-.14.03-.26.09-.36.18-.06.05-.15.05-.21.09-.12.06-.21.14-.16.3.03.1.03.21-.05.29-.04.02-.09.02-.12,0-.28-.24-.53-.12-.78.06-.06.05-.12.13-.21.14-.06,0-.13,0-.19,0-.24-.04-.34-.15-.39-.41-.09-.43-.67-.49-.99-.33-.06.03-.1.09-.17.11-.28-.04-.34-.1-.33-.35.05-.06.12-.06.19-.06.09,0,.18-.04.28-.02.03,0,.05.02.06.04v-.02Z"/>
      <path class="cls-248" d="m180.2,75c-.18-.02-.4.08-.51-.15-.1-.21.04-.4.14-.57.14-.23.78-.43,1.04-.35.15.05.19.16.19.3-.18.26-.48.41-.68.65-.06.06-.09.15-.2.11h0Z"/>
      <path class="cls-70" d="m179.63,75.31c-.06.06-.13.08-.21.1-.02,0-.04,0-.05-.01.06-.06.14-.08.21-.11.02,0,.04.01.05.01h0Z"/>
      <path class="cls-124" d="m179.73,75.2c-.31-.03-.52-.22-.52-.46,0-.32.15-.61.27-.9.12-.31.76-.61,1.1-.57.19.12.4-.12.59.02h.05c-.36.35-.81.55-1.28.72-.17.06-.27.17-.31.35-.02.08-.05.14-.11.2-.21.22-.11.51.19.59.01.01.02.02.01.04,0,.01-.01.02-.01.02h0Z"/>
      <path class="cls-20" d="m179.73,75.2v-.05c.11-.02.21-.04.31-.05-.05.04-.11.07-.16.11-.05.01-.11.02-.15.04v-.04Z"/>
      <path class="cls-84" d="m181.17,73.29c-.1.04-.21.07-.3.12-.11.05-.19.01-.26-.06-.3-.15-.59-.33-.95-.14-.11.06-.25.06-.34-.07.06-.11.16-.16.27-.18.46-.09.87-.32,1.29-.53.26-.14.54-.12.82-.12.16,0,.16.15.2.25.02.33-.26.42-.48.56-.08.05-.19.06-.25.16h0Z"/>
      <path class="cls-72" d="m169.43,69.84h.41s.07-.04.12-.04c.08.02.17.02.22.1.04.09.02.16-.06.21-.11.03-.22.06-.17.22.02.15-.05.3-.02.45,0,.06-.02.12-.06.16-.07.06-.15.07-.24.02-.17-.12-.3-.32-.55-.25-.02,0-.05-.02-.06-.04-.05-.08-.06-.18-.08-.26-.07-.25.06-.45.32-.48.06-.01.11-.02.15-.07h0s.01-.03.01-.03Z"/>
      <path class="cls-30" d="m170.25,69.07c.12.01.25-.04.36.05-.03.22-.09.41-.31.53-.08.05-.15.07-.24.02,0-.01-.02-.02-.02-.03-.06-.24.16-.37.21-.56h0Z"/>
      <path class="cls-30" d="m169.94,69.85s-.06-.01-.1-.01c-.01-.15.06-.21.21-.2h0c.08.13.02.19-.11.21h0Z"/>
      <path class="cls-270" d="m168.18,69.48c.13.09.34,0,.41.2v.02c-.06.05-.15.04-.22.04-.06,0-.11-.02-.15-.05-.04-.02-.06-.06-.07-.09,0-.04,0-.08.04-.11h0Z"/>
      <path class="cls-67" d="m168.18,69.48v.09c-.06.03-.08,0-.1-.05-.04-.04-.07-.06-.11-.1.08,0,.14.02.21.05h0Z"/>
      <path class="cls-226" d="m169.42,69.85c.02.09.06.19-.11.17-.21-.02-.31.11-.28.33.01.1.02.2.04.3-.17.04-.26-.08-.35-.19-.01-.02-.01-.05-.01-.08.05-.18-.12-.38.06-.55.22,0,.44,0,.66,0h0Z"/>
      <path class="cls-45" d="m168.75,69.84c-.01.19.12.38,0,.56-.08.02-.14-.01-.2-.06-.05-.08-.11-.16-.19-.22-.07-.08-.2-.14-.11-.29.02-.02.05-.02.07,0h.42Z"/>
      <path class="cls-142" d="m168.34,69.84h-.05c-.08.08.04.19-.05.26-.06.02-.11-.02-.15-.06-.04-.07-.04-.14-.01-.22.04-.06.09-.12.17-.14.11.03.24,0,.35.04l-.26.11h0Z"/>
      <path class="cls-183" d="m168.6,69.74h-.36c0-.1.05-.08.11-.05.08,0,.17.01.25.01v.04h0Z"/>
      <path class="cls-74" d="m169.94,69.85c.05-.06.12-.12.11-.21.23-.02.4-.11.42-.37,0-.09.06-.13.15-.15.13.04.26.1.39.09.42-.02.81.12,1.2.21l.05.11c-.01.15-.12.13-.22.12-.4-.21-.82-.07-1.22-.07-.24,0-.39.19-.55.33-.04.01-.08,0-.11-.02-.06-.03-.16.03-.21-.05h0Z"/>
      <path class="cls-272" d="m167.1,69.58h.05s.06.04.1.05c.06.02.09.07.1.13-.02.12-.06.19-.2.13-.07-.02-.14-.04-.21-.05,0-.08-.06-.14-.11-.21,0-.01.02-.02.02-.03.07-.06.16.04.24-.02h0Z"/>
      <path class="cls-88" d="m167.31,69.74s-.04-.07-.05-.1v-.05h0s.03-.02.05-.02c.02.02.03.05.05.07.04.04.07.06.11.1.01,0,.02,0,.04,0,.1.04.25.06.15.23-.22.07-.28-.08-.35-.24h0Z"/>
      <path class="cls-274" d="m167.52,69.69c-.07-.14.02-.21.26-.21.05.12.12.23.03.36-.02.02-.04.02-.07.02-.08-.06-.16-.09-.22-.18h0Z"/>
      <path class="cls-75" d="m167.77,69.84c.02-.12-.07-.24,0-.36.11.02.21.04.31.05.04.02.07.03.1.05l.05.05-.05.05s-.05.02-.07.02c-.21-.05-.18.18-.29.24h-.05s-.04-.06,0-.09h0Z"/>
      <path class="cls-198" d="m167.36,69.32c.14.02.28.04.41.05-.13.09-.28.03-.41.05-.03-.04-.03-.07,0-.1Z"/>
      <path class="cls-53" d="m167.52,69.69c.11,0,.19.04.21.15-.11.02-.18-.06-.26-.1h0l.05-.05h0Z"/>
      <path class="cls-210" d="m167.36,69.32v.31l-.05-.05c-.04-.09-.04-.17,0-.26h.05Z"/>
      <path class="cls-185" d="m167.31,69.12v-.05c.07.05.14.1.21.15h-.15s-.08-.05-.05-.1h0Z"/>
      <path class="cls-210" d="m167.31,69.12s.04.06.05.1l-.05.05c-.07.03-.11-.02-.16-.05h-.05c.03-.12.12-.1.21-.1h0Z"/>
      <path class="cls-16" d="m167.16,69.22c.05.02.11.04.16.05v.31h-.05c.02-.14-.05-.25-.11-.36h0Z"/>
      <path class="cls-225" d="m169.99,71.44l-.11.05c-.22-.08-.42-.17-.48-.42-.02-.09-.1-.14-.19-.15h-.05c-.02-.08.02-.13.09-.16.17-.04.26.1.38.17l.05.05c.04.09.09.16.21.14.05.01.09.04.12.08.01.02.02.04.02.06,0,.06-.03.11-.05.16h0Z"/>
      <path class="cls-100" d="m168.55,70.46v-.05c.06-.04.12,0,.16.03.09.1.2.18.31.26.06.04.14.08.09.18-.33.06-.45-.18-.56-.41h0Z"/>
      <path class="cls-152" d="m169.11,70.87c-.13-.15-.31-.24-.41-.41.02-.02.04-.02.06,0,.1.06.2.14.31.2.02,0,.04.01.05.02.09.01.18.02.16.15-.04.04-.07.07-.11.11l-.05-.05h0Z"/>
      <path class="cls-56" d="m168.76,70.46s-.04,0-.06,0c-.05-.02-.1-.04-.15-.05-.11-.05-.21-.11-.31-.16v-.05c.06-.08.14-.04.21-.02.06.02.1.07.15.11.05.04.11.08.16.11,0,.02,0,.03,0,.05h0Z"/>
      <path class="cls-153" d="m167.31,69.74c.12.08.21.19.36.21.05,0,.08.02.1.05v.04c.02.16-.14.15-.21.21h-.41v-.36c.09-.01.14-.06.15-.15h.01Z"/>
      <path class="cls-133" d="m167.83,69.94q.03-.39.31-.3c.05.19-.06.26-.22.3-.01,0-.02,0-.04.01-.02,0-.03,0-.05-.01Z"/>
      <path class="cls-245" d="m167.77,70s-.07-.04-.1-.05c-.07-.07-.14-.14-.21-.21.09.04.18.06.26.1h.05s0,.06,0,.09v.06h0Z"/>
      <path class="cls-211" d="m168.08,70.11s-.07-.01-.11-.02c-.01-.06-.06-.1-.11-.15h0c.15-.09.21-.02.23.12,0,.01-.01.02-.02.04h0Z"/>
      <path class="cls-237" d="m168.45,70.25c-.07-.02-.14-.03-.21-.05-.05-.03-.1-.06-.15-.09v-.02s.03-.04.05-.05c.04.02.07.03.1.05.06-.04.12-.01.17.03.04.04.06.07.04.13Z"/>
      <path class="cls-143" d="m166.69,69.58v-.15h0c.15,0,.19.08.15.21h-.1l-.05-.05h0Z"/>
      <path class="cls-202" d="m166.85,69.64c-.05-.07-.11-.14-.15-.21.22-.18.29.05.41.15-.05.17-.17.05-.26.05h0Z"/>
      <path class="cls-182" d="m175.55,71.13c.08.13.21.16.35.15.09,0,.18,0,.27.05.1.17-.04.28-.11.41-.22.02-.41-.11-.61-.17-.38-.12-.56-.03-.65.35-.11.46-.27.59-.75.66-.21.03-.42.08-.63.04-.16-.03-.2.14-.31.2-.14.06-.26.03-.35-.09-.15-.04-.29-.13-.46-.11-.12-.09-.28-.11-.42-.16-.32.02-.62-.16-.73-.46,0-.06.02-.11.06-.14.25-.17.49-.29.75-.01.08.08.17.05.25-.03.23-.22.52-.33.81-.43.19-.06.41-.11.43-.38,0-.08.09-.1.15-.12.38-.12.46-.22.47-.59,0-.09,0-.19.09-.25.12-.08.24-.05.36-.02.03,0,.05,0,.08.01.03,0,.05.02.07.04.06.06.07.15.09.23.04.21.11.39.35.47.17.06.32.18.41.36h0Z"/>
      <path class="cls-172" d="m173.39,74.37h-.21c-.23-.41-.21-.82.02-1.21.07-.12.15-.25.28-.33.12-.05.24-.03.35.04.17.15.25.34.24.57-.01.2.02.39.11.57.03.06.04.13.02.2-.03.05-.08.08-.14.09-.06.01-.12.05-.19.05-.16.04-.32-.04-.48.03h0Z"/>
      <path class="cls-123" d="m173.5,72.89c-.04.19-.22.3-.28.48-.11.33-.07.66-.03,1-.19-.19-.33-.44-.59-.53-.15-.05-.27-.1-.28-.27,0-.06-.04-.16.05-.18.09-.02.08.08.11.14.01.04.03.08.08.12-.03-.33.25-.58.22-.91.12.02.24.04.36.05.15-.06.28-.06.36.11h0Z"/>
      <path class="cls-162" d="m173.39,74.37c-.05-.12,0-.17.11-.14.12.03.24.04.36.04.02.02.02.04.02.06s-.01.04-.03.06c-.03.05-.04.11-.11.13h-.2c-.04-.06-.09-.12-.16-.15h0Z"/>
      <path class="cls-246" d="m171.22,72.01c.16.25.45.3.68.45-.05.19-.21.31-.36.41-.16.1-.32.09-.46-.06-.18-.18-.35-.37-.57-.5.08-.24-.12-.41-.15-.62.02-.07.08-.1.15-.12.1-.02.17.05.25.08.14.05.24.16.37.21.06.02.08.09.11.14h-.01Z"/>
      <path class="cls-244" d="m176.07,73.4c.05-.19.17-.26.36-.26.29,0,.58-.02.8.24.07.08.14.16.12.26-.03.21.07.32.26.36-.02.02-.05.04-.08.03-.25.01-.5-.02-.75.02-.08,0-.17.01-.25.01-.15.08-.31.02-.46.05v-.02c-.18-.24-.12-.48,0-.71h0Z"/>
      <path class="cls-106" d="m176.07,73.4c.07.24-.04.48,0,.71h-.11c-.11-.04-.21,0-.32-.02-.06,0-.14,0-.2-.01-.03-.02-.06-.05-.06-.08,0-.25-.05-.46-.24-.66-.12-.13.04-.26.18-.32.15.01.31-.06.43.08.04.16.18.24.31.3h0Z"/>
      <path class="cls-43" d="m175.45,74.06c.07,0,.14,0,.21,0,.02.01.02.02.02.03,0,0-.01.01-.02.01-.12,0-.24.01-.36.02v-.02c.03-.11.09-.08.16-.05h0Z"/>
      <path class="cls-235" d="m175.66,74.11v-.04c.11,0,.21-.03.31.04h-.31,0Z"/>
      <path class="cls-200" d="m176.79,74.06c.25-.09.52-.03.77-.04l.02.02s0,.02-.01.03h-.42c-.12,0-.24,0-.36-.01h0Z"/>
      <path class="cls-97" d="m177.67,74.68c.01-.09.06-.17.12-.25.18-.22.15-.27-.12-.32-.03,0-.06-.02-.09-.04v-.02c.13-.01.26-.04.4-.02.25.17.33.38.22.58-.01.02-.03.04-.05.05-.02.01-.05.02-.07.02-.08-.02-.15-.02-.22.02-.03.01-.06.01-.09.02-.02,0-.04,0-.06-.01,0,0-.01-.02-.02-.02h0Z"/>
      <path class="cls-118" d="m178.19,74.74c-.24.11-.48.03-.73.05.07-.04.14-.07.21-.11v.02c.17,0,.35-.1.51.04h0Z"/>
      <path class="cls-257" d="m179.31,73.14c.19,0,.36-.01.53-.13.17-.11.62.1.75.33-.4-.05-.65.26-.95.42-.09.05-.11.16-.14.27-.05.26-.18.48-.31.7h-.11c.07-.28.01-.38-.31-.52-.04.03-.06.02-.1,0,0-.16.11-.26.2-.36,0-.07,0-.14-.01-.21-.07-.38.02-.49.42-.52h.01Z"/>
      <path class="cls-12" d="m178.7,74.22h.1c.1.31.06.4-.21.46-.07,0-.12-.04-.15-.11,0-.01.01-.02.01-.03.12-.07.21-.16.22-.31l.02-.02Z"/>
      <path class="cls-141" d="m178.13,74.63c.13-.22-.04-.36-.16-.51,0-.08.05-.09.1-.09.19.03.24.22.36.32.1.08-.02.17-.1.24l-.1.06s-.08.02-.11-.02h0Z"/>
      <path class="cls-221" d="m178.34,74.57c.06-.12.11-.22-.09-.29-.07-.02-.12-.14-.17-.21.05-.09.13-.08.21-.05.02,0,.05.02.07.03.05.04.09.08.14.13.03.04.06.08.06.14.01.08,0,.15-.06.21-.02.02-.04.03-.06.05h0s-.07,0-.11,0h0Z"/>
      <path class="cls-247" d="m178.13,74.63s.07.01.11.02c-.02.03-.04.06-.05.09-.17-.02-.35.04-.52-.04.02,0,.04,0,.05-.01.12-.05.24-.05.36-.05.02,0,.04,0,.05-.01h0Z"/>
      <path class="cls-9" d="m175.45,74.06c-.05.02-.1.03-.15.05-.13.09-.28.05-.42.06-.21.02-.42-.05-.62.05-.04.04-.07.04-.1,0-.18-.26-.22-.54-.21-.85.01-.16-.05-.3-.15-.42.08-.12.2-.09.31-.07.38.08.77-.02,1.13.15.02.02.05.04.06.08-.09.11-.19.21.03.3.16.07.19.23.16.39-.01.09-.03.19-.04.28h0Z"/>
      <path class="cls-119" d="m174.17,74.21h.1c-.04.18-.33.14-.31.36h0c-.14-.02-.13-.11-.08-.21.03-.06.1-.09.14-.15.05,0,.1-.01.15-.02h0Z"/>
      <path class="cls-212" d="m174.01,74.23c-.01.12-.18.21-.05.35v.15h-.1c-.08-.14-.08-.27,0-.41,0-.02,0-.03,0-.05.05-.02.1-.03.15-.05Z"/>
      <path class="cls-95" d="m173.85,74.32c0,.14,0,.27,0,.41-.02-.01-.04-.02-.06-.04-.03-.12-.05-.24,0-.36.01,0,.03,0,.04,0h0Z"/>
      <path class="cls-177" d="m173.81,74.33c0,.12,0,.24,0,.36-.02,0-.03,0-.05,0,0-.05,0-.1-.01-.15.01-.07-.01-.15.06-.2h0Z"/>
      <path class="cls-209" d="m170.51,71.64c-.05.02-.11.04-.16.05-.14-.05-.21-.22-.36-.26-.05-.05-.05-.11,0-.16.26-.02.46.11.52.36h0Z"/>
      <path class="cls-232" d="m175.55,71.13c-.11,0-.18-.05-.25-.12-.05-.05-.11-.13-.18-.14-.44-.09-.45-.42-.45-.76.08-.11.2-.08.31-.08.13,0,.25-.03.38-.05.06,0,.12,0,.19,0,.15.03.3.03.44.09.01.01.02.02.03.04-.41.18-.44.28-.1.72-.22-.02-.28.16-.36.31h-.01Z"/>
      <path class="cls-233" d="m175.55,70.09h-.15c-.26-.03-.52-.03-.78,0h-.05c-.06-.06-.15-.1-.23-.15-.06-.05-.15-.1-.05-.19.12-.05.22,0,.33.05.25.11.5.04.75.05.19.01.39,0,.59,0,.15.02.16.14.15.25-.04,0-.07,0-.11.01h0c-.16-.04-.32-.04-.48,0h.01Z"/>
      <path class="cls-216" d="m174.63,69.79h-.36c-.07.11-.17.11-.28.09-.26.07-.52-.15-.78-.04-.24.11-.55,0-.74.26-.11.06-.22.06-.34,0-.14-.15-.19-.32-.13-.53.09,0,.18.02.26-.05.11.09.23.11.36.11h1.69c.13,0,.25.04.32.15h0Z"/>
      <path class="cls-138" d="m175.24,73.08l-1.43-.14c-.11.01-.2-.09-.31-.05-.12-.02-.25-.05-.36-.11-.01-.24.09-.33.33-.26.29.08.58-.02.85-.08.31-.06.38-.38.42-.66.04-.26.41-.46.65-.34.22.11.51.11.69.32.12.24.03.51.1.75.03.11.07.19.18.22.08.02.16.03.17.13.01.14-.12.09-.18.14-.02.01-.04.03-.06.05-.02,0-.04.01-.05.02-.09.04-.18.01-.26.02-.24.01-.48-.02-.72.02h0Z"/>
      <path class="cls-241" d="m176.26,71.19c.06.02.12.04.11.09-.01.06-.08.04-.12.04-.03,0-.09.04-.07-.05.01-.06.04-.09.09-.09h0Z"/>
      <path class="cls-137" d="m178.34,74.12s-.04,0-.05-.01c-.13-.16-.32,0-.46-.1.14-.15.24-.31.47-.37.27-.07.47-.02.61.22.02.17,0,.31-.21.36h0s-.06.04-.09.04c-.02,0-.05-.02-.06-.03-.05-.06-.12-.11-.21-.11h0Z"/>
      <path class="cls-171" d="m177.82,74.01c.15.04.34-.09.46.1-.07-.02-.14-.06-.21-.04-.04,0-.08,0-.11.04-.13-.07-.28-.04-.41-.06v-.04s.04,0,.05-.01h.21Z"/>
      <path class="cls-44" d="m175.24,73.08c.24-.09.49-.03.73-.04.02.01.03.02.02.02,0,0-.02.01-.02.01-.07,0-.14.01-.21.02h-.46s-.04,0-.06-.01h0Z"/>
      <path class="cls-220" d="m175.96,73.08v-.04h.26c-.08.06-.17.04-.26.04Z"/>
      <path class="cls-178" d="m170.51,71.64c-.15-.15-.34-.25-.52-.36,0-.01,0-.03,0-.04-.02-.12-.22-.15-.15-.32v-.15c.07-.15.15-.31.26-.43.14-.16.3-.25.51-.15.02.03.04.06.02.09-.24.37.02.65.18.93.1.17.09.31-.09.52-.08,0-.11-.11-.2-.09h0Z"/>
      <path class="cls-173" d="m170.61,70.2c-.22.04-.42.08-.52.32-.04.1-.16.16-.25.24v-.52c.04-.11.11-.16.21-.21.08-.01.11-.07.11-.15.04,0,.07-.01.1-.02.15-.07.29-.06.41.06.05.1.09.19-.05.26h0Z"/>
      <path class="cls-63" d="m169.28,70.82c-.04-.06-.14-.06-.16-.15.09-.11.2-.12.31-.01l.21.21s.04.07,0,.11c-.14,0-.22-.15-.35-.16h0Z"/>
      <path class="cls-90" d="m169.63,70.98v-.11c.07.02.14.04.21.05.06.1.18.18.15.32-.04-.02-.07-.04-.1-.05-.14.02-.21-.05-.25-.17v-.04h0Z"/>
      <path class="cls-226" d="m170.04,70.05c-.05.09-.12.15-.21.21-.06-.19.06-.21.21-.21Z"/>
      <path class="cls-115" d="m168.19,69.64s.04,0,.05,0l.11.05s-.07.04-.11.06c-.04.04-.07.07-.1.11-.06-.09.01-.14.05-.2h0Z"/>
      <path class="cls-110" d="m168.39,70.16c-.05-.02-.1-.05-.15-.07,0-.09-.02-.18.05-.25-.02.13.11.17.15.26,0,.04-.02.05-.05.06h0Z"/>
      <path class="cls-230" d="m168.39,70.16s.04-.04.05-.06c.08.05.14.1.16.2-.06.02-.1-.02-.15-.05-.02-.03-.04-.06-.06-.09h0Z"/>
      <path class="cls-156" d="m168.19,69.64c-.02.06-.04.14-.05.2v.2s-.04.03-.05.05c-.02-.12-.1-.14-.2-.15.06-.12.24-.14.25-.31h.05Z"/>
      <path class="cls-107" d="m170.61,69.99c-.1-.11-.26.01-.36-.11.05-.29.29-.37.52-.41.26-.04.54-.03.81-.05.16-.01.31.04.42.15.08.14.15.28.11.45-.02.05-.06.07-.11.08-.32.09-.63-.02-.94-.02-.08,0-.15-.02-.23,0-.09,0-.15-.05-.21-.1h0Z"/>
      <path class="cls-147" d="m169.63,71.02l.25.17c-.18.09-.25,0-.25-.17Z"/>
      <path class="cls-40" d="m172,70.05s.07-.01.11-.02h.36c.19-.15.42-.09.63-.09.22.16.43.13.65.01.07-.02.14,0,.21.01.09.01.17.04.21.14.05.14,0,.29.08.42.01.02,0,.05,0,.08-.04.11-.46.39-.58.38-.14,0-.16.04-.07.14.06.06.04.11-.02.14-.15.08-.28.16-.43.21-.32.11-.63.2-.86.48-.08.1-.25.12-.32.01-.21-.28-.42-.21-.66-.06-.11-.17.04-.26.14-.33.28-.19.29-.53.47-.77.04-.05.02-.13-.01-.19-.1-.22-.05-.4.13-.55h0Z"/>
      <path class="cls-140" d="m172,70.05c0,.21-.2.42.04.61.01.01.01.06,0,.07-.21.26-.19.65-.5.86-.11.08-.23.16-.25.31-.02.04-.04.07-.05.11-.05-.02-.1-.04-.15-.06-.12-.15-.04-.28.06-.38.33-.3.24-.66-.15-.96-.23-.18-.16-.38-.17-.59.4-.05.79.06,1.18.05h0Z"/>
      <path class="cls-165" d="m174.17,70.11c-.06-.03-.16.03-.21-.05-.07-.09-.08-.18,0-.26h.31c.13.08.32.08.31.3-.14,0-.28.01-.41.02h0Z"/>
      <path class="cls-144" d="m174.62,70.09c.26-.07.52-.07.78,0-.24,0-.48.01-.72.02-.02,0-.04-.01-.05-.02h0Z"/>
      <path class="cls-252" d="m170.82,70.01c.08.11.21.19.09.35-.06.09.06.09.11.13.38.25.63.78.23,1.11-.11.09-.2.19-.18.35-.14-.04-.25-.12-.36-.21,0-.05-.01-.11,0-.15.08-.16.04-.24-.08-.39-.14-.17-.19-.43-.27-.66-.06-.17.19-.19.24-.33.04-.07.04-.14,0-.21.07,0,.14.01.21.02Z"/>
      <path class="cls-219" d="m178.08,74.64c-.11.08-.24.04-.36.05l.11-.05c.08-.04.17-.03.25-.01h0s0,.02,0,.02Z"/>
      <path class="cls-161" d="m178.08,74.62c-.08,0-.17,0-.25.01.08-.06.17-.06.25-.01Z"/>
      <path class="cls-243" d="m178.6,74.22h.1c.06.26.01.33-.26.36,0-.02,0-.03.01-.05.11-.06.12-.15.11-.26,0-.02.02-.04.04-.05Z"/>
      <path class="cls-4" d="m178.6,74.27c.08.16.04.25-.15.26.02-.07.04-.14.05-.22.02-.04.04-.08.09-.05h0Z"/>
      <path class="cls-189" d="m178.34,74.12c.11-.09.18-.02.26.05-.04.05-.09.06-.15.05-.04-.04-.07-.06-.11-.1h0Z"/>
      <path class="cls-222" d="m178.44,74.22s.09-.05.15-.05v.1s-.06.03-.09.05c-.02-.03-.04-.06-.06-.09h0Z"/>
      <path class="cls-15" d="m175.55,70.09c.16-.07.32-.08.48,0h-.48Z"/>
      <path class="cls-22" d="m173.96,69.79v.26h-.21c-.21.04-.41.08-.62,0-.22,0-.45-.01-.67-.02.02-.1.08-.19.18-.19.24,0,.44-.11.66-.15.23-.04.42.15.65.09h0Z"/>
      <path class="cls-140" d="m173.13,70.05h.62c-.21.09-.41.18-.62,0Z"/>
    </g>
    <path class="cls-50" d="m189.97,518.01c7.79,0,12.83-5.64,13.55-15.57.04.96.45,6.62.44,7.7-.01,9.87-5.67,17.6-9.78,21.93-2.26,2.38-6.08,2.26-8.23-.22-4.14-4.79-9.99-13.52-9.99-24.55,0-.99.56-5.09.6-6.05.72,9.93,5.6,16.77,13.4,16.77Z"/>
    <path class="cls-50" d="m156.74,517.25c7.79,0,12.83-5.64,13.55-15.57.04.96.45,6.62.44,7.7-.01,9.87-5.67,17.6-9.78,21.93-2.26,2.38-6.08,2.26-8.23-.22-4.14-4.79-9.99-13.52-9.99-24.55,0-.99.56-5.09.6-6.05.72,9.93,5.6,16.77,13.4,16.77Z"/>
  </g>
</svg>