<?xml version="1.0" encoding="UTF-8"?>
<svg id="Capa_2" data-name="Capa 2" xmlns="http://www.w3.org/2000/svg" viewBox="0 0 285.57 99.38">
  <defs>
    <style>
      .cls-1 {
        fill: #73b8ae;
      }

      .cls-2 {
        fill: #4d4d4d;
      }
    </style>
  </defs>
  <g id="Presidencia">
    <g>
      <g>
        <path class="cls-2" d="m166.4,55.24c.82-.5,1.72-.75,2.7-.75,1.48,0,2.81.48,4,1.44,1.19.96,1.78,2.16,1.78,3.62,0,.71-.18,1.44-.55,2.18l-16.23,34.02c-.53,1.12-1.33,1.99-2.4,2.59-1.07.6-2.21.9-3.44.9s-2.38-.3-3.44-.9c-1.07-.6-1.87-1.47-2.4-2.59l-16.23-34.02c-.33-.66-.49-1.39-.49-2.18,0-1.41.61-2.61,1.84-3.59,1.23-.98,2.6-1.47,4.12-1.47.98,0,1.89.25,2.74.75.84.5,1.48,1.25,1.94,2.25l12.11,26.59,12.05-26.59c.45-1,1.09-1.75,1.91-2.25Z"/>
        <path class="cls-2" d="m180.26,97.71c-1-1.02-1.51-2.41-1.51-4.16v-33.44c0-1.71.5-3.07,1.51-4.09,1-1.02,2.37-1.53,4.09-1.53s3.15.51,4.18,1.53c1.02,1.02,1.54,2.39,1.54,4.09v33.44c0,1.75-.51,3.14-1.54,4.16-1.03,1.02-2.42,1.53-4.18,1.53s-3.08-.51-4.09-1.53Z"/>
        <path class="cls-2" d="m198.97,97.85c-.9-.93-1.35-2.26-1.35-4v-33.96c0-1.73.45-3.07,1.35-4,.9-.93,2.19-1.4,3.87-1.4h12.42c4.79,0,8.92.9,12.38,2.7,3.46,1.8,6.12,4.37,7.96,7.71,1.84,3.34,2.77,7.32,2.77,11.93s-.91,8.66-2.74,12.03c-1.82,3.36-4.47,5.94-7.93,7.71-3.46,1.78-7.61,2.67-12.45,2.67h-12.42c-1.68,0-2.97-.47-3.87-1.4Zm15.49-8c4.22,0,7.39-1.07,9.5-3.21,2.11-2.14,3.17-5.41,3.17-9.81s-1.06-7.66-3.17-9.78c-2.11-2.12-5.28-3.17-9.5-3.17h-5.53v25.96h5.53Z"/>
        <path class="cls-2" d="m285.57,94.29c0,1.38-.54,2.55-1.63,3.51-1.09.96-2.33,1.44-3.72,1.44-.94,0-1.8-.25-2.58-.75-.78-.5-1.39-1.25-1.84-2.26l-2.77-6.33h-19.91l-2.83,6.33c-.45,1-1.08,1.76-1.87,2.26-.8.5-1.67.75-2.61.75-1.39,0-2.65-.48-3.78-1.44-1.13-.96-1.69-2.13-1.69-3.51,0-.75.18-1.52.55-2.32l16.23-33.97c.53-1.13,1.32-1.99,2.37-2.6,1.04-.61,2.2-.91,3.47-.91s2.38.3,3.44.91c1.06.61,1.86,1.47,2.4,2.6l16.23,33.97c.37.79.55,1.57.55,2.32Zm-16.35-13.04l-6.15-13.98-6.15,13.98h12.29Z"/>
        <path class="cls-2" d="m135.07,21.23c-1.65-.92-2.94-2.23-3.84-3.93-.91-1.71-1.36-3.71-1.36-6s.45-4.26,1.36-5.97c.91-1.71,2.19-3.02,3.84-3.93,1.66-.92,3.59-1.37,5.79-1.37,2.64,0,4.97.7,6.96,2.09.35.25.61.52.77.81.16.29.23.67.23,1.12,0,.64-.18,1.19-.55,1.64s-.81.67-1.33.67c-.31,0-.59-.05-.84-.14s-.54-.24-.87-.45c-.73-.44-1.42-.75-2.06-.94-.65-.19-1.31-.28-2-.28-1.85,0-3.23.56-4.14,1.67-.91,1.11-1.36,2.81-1.36,5.08s.45,3.99,1.36,5.1c.91,1.11,2.28,1.67,4.14,1.67.62,0,1.23-.1,1.81-.3.58-.2,1.33-.5,2.25-.92.44-.23.76-.38.97-.47.21-.08.46-.13.75-.13.52,0,.96.22,1.33.67s.55.99.55,1.64c0,.44-.08.81-.23,1.11-.16.3-.41.58-.77.83-2,1.4-4.32,2.09-6.96,2.09-2.21,0-4.14-.46-5.79-1.37Z"/>
        <path class="cls-2" d="m154.15,21.22c-1.66-.93-2.93-2.24-3.83-3.93-.9-1.7-1.34-3.69-1.34-5.98s.45-4.28,1.34-5.98c.89-1.7,2.17-3,3.83-3.92,1.65-.92,3.61-1.37,5.85-1.37s4.2.46,5.86,1.37c1.65.92,2.92,2.22,3.81,3.92.88,1.7,1.33,3.69,1.33,5.98s-.45,4.28-1.34,5.98c-.9,1.7-2.17,3.01-3.83,3.93-1.66.93-3.6,1.39-5.82,1.39s-4.2-.46-5.85-1.39Zm9.76-4.78c.94-1.18,1.41-2.89,1.41-5.14s-.47-3.96-1.42-5.12c-.95-1.17-2.24-1.75-3.89-1.75s-2.97.58-3.9,1.73c-.94,1.15-1.4,2.87-1.4,5.14s.47,3.99,1.4,5.15c.94,1.17,2.24,1.75,3.9,1.75s2.97-.59,3.9-1.76Z"/>
        <path class="cls-2" d="m173.53,21.91c-.46-.47-.69-1.15-.69-2.04V2.89c0-.87.25-1.56.76-2.08.51-.52,1.2-.78,2.08-.78s1.6.26,2.12.78c.52.52.78,1.21.78,2.08v14.98h7.18c1.81,0,2.72.8,2.72,2.38,0,.81-.22,1.4-.67,1.78-.45.38-1.13.57-2.05.57h-10.27c-.85,0-1.51-.23-1.97-.7Z"/>
        <path class="cls-2" d="m192.47,21.22c-1.66-.93-2.93-2.24-3.83-3.93-.9-1.7-1.34-3.69-1.34-5.98s.45-4.28,1.34-5.98c.89-1.7,2.17-3,3.83-3.92,1.65-.92,3.61-1.37,5.85-1.37s4.2.46,5.86,1.37c1.65.92,2.92,2.22,3.81,3.92.88,1.7,1.33,3.69,1.33,5.98s-.45,4.28-1.34,5.98c-.9,1.7-2.17,3.01-3.83,3.93-1.66.93-3.6,1.39-5.82,1.39s-4.2-.46-5.85-1.39Zm9.76-4.78c.94-1.18,1.41-2.89,1.41-5.14s-.47-3.96-1.42-5.12c-.95-1.17-2.24-1.75-3.89-1.75s-2.97.58-3.9,1.73c-.94,1.15-1.4,2.87-1.4,5.14s.47,3.99,1.4,5.15c.94,1.17,2.24,1.75,3.9,1.75s2.97-.59,3.9-1.76Z"/>
        <path class="cls-2" d="m232.64.82c.5.53.75,1.21.75,2.05v17.16c0,.8-.23,1.43-.69,1.89-.46.46-1.06.69-1.81.69s-1.33-.23-1.8-.69c-.47-.46-.7-1.09-.7-1.89v-9.27l-3.56,6.62c-.35.67-.73,1.15-1.12,1.44-.4.28-.86.43-1.4.43s-1.01-.14-1.41-.43c-.4-.28-.77-.76-1.12-1.44l-3.53-6.43v9.08c0,.78-.23,1.4-.7,1.88-.47.47-1.08.71-1.83.71s-1.33-.23-1.8-.69c-.47-.46-.7-1.09-.7-1.89V2.87c0-.84.25-1.53.77-2.05.51-.52,1.16-.79,1.95-.79.56,0,1.07.16,1.53.49.46.33.84.79,1.16,1.4l5.75,10.91,5.71-10.91c.65-1.26,1.52-1.89,2.62-1.89.79,0,1.44.26,1.94.79Z"/>
        <path class="cls-2" d="m253.63,12.91c.69.95,1.03,2.12,1.03,3.51,0,1.24-.32,2.32-.95,3.25-.64.93-1.54,1.65-2.72,2.17s-2.56.77-4.14.77h-8.31c-.85,0-1.51-.24-1.97-.71s-.69-1.14-.69-2.02V2.73c0-.88.23-1.55.69-2.02s1.11-.71,1.97-.71h7.99c2.31,0,4.15.53,5.51,1.59,1.36,1.06,2.05,2.48,2.05,4.28,0,1.16-.3,2.18-.91,3.06s-1.45,1.53-2.53,1.94c1.29.41,2.28,1.09,2.97,2.04Zm-12.15-4.02h4.09c1.08,0,1.87-.17,2.37-.51.5-.34.75-.89.75-1.64,0-.79-.25-1.37-.75-1.73-.5-.36-1.29-.54-2.37-.54h-4.09v4.43Zm7.1,8.71c.49-.37.73-.99.73-1.84s-.24-1.47-.73-1.84c-.49-.37-1.31-.56-2.45-.56h-4.65v4.81h4.65c1.14,0,1.96-.19,2.45-.56Z"/>
        <path class="cls-2" d="m256.8,21.84c-.51-.52-.76-1.22-.76-2.1V2.84c0-.86.25-1.55.76-2.07.51-.52,1.2-.77,2.08-.77s1.6.26,2.12.77c.52.52.78,1.2.78,2.07v16.89c0,.88-.26,1.58-.78,2.1-.52.52-1.23.77-2.12.77s-1.57-.26-2.08-.77Z"/>
        <path class="cls-2" d="m285.57,20.11c0,.7-.28,1.29-.83,1.77-.55.49-1.18.73-1.89.73-.48,0-.92-.13-1.31-.38-.4-.25-.71-.63-.94-1.14l-1.4-3.2h-10.12l-1.44,3.2c-.23.51-.55.89-.95,1.14-.41.25-.85.38-1.33.38-.71,0-1.35-.24-1.92-.73-.57-.49-.86-1.08-.86-1.77,0-.38.09-.77.28-1.17l8.24-17.16c.27-.57.67-1.01,1.2-1.32.53-.31,1.12-.46,1.76-.46s1.21.15,1.75.46c.54.31.95.75,1.22,1.32l8.24,17.16c.19.4.28.79.28,1.17Zm-8.31-6.59l-3.12-7.06-3.12,7.06h6.25Z"/>
        <path class="cls-2" d="m130.44,46.32c-.15-.16-.23-.37-.23-.63v-12.87c0-.25.08-.44.24-.59.16-.15.37-.23.62-.23h4.85c1.52,0,2.69.37,3.53,1.11.84.74,1.26,1.78,1.26,3.14s-.42,2.4-1.27,3.16c-.85.75-2.02,1.13-3.52,1.13h-4.04v5.16c0,.26-.08.47-.23.63-.15.16-.36.24-.61.24s-.46-.08-.61-.24Zm5.33-7.18c2.2,0,3.3-.96,3.3-2.89s-1.1-2.85-3.3-2.85h-3.87v5.74h3.87Z"/>
        <path class="cls-2" d="m145.32,45.67c-.99-.59-1.75-1.43-2.28-2.52-.53-1.09-.8-2.37-.8-3.86s.26-2.79.79-3.89c.53-1.1,1.28-1.94,2.27-2.52.99-.59,2.16-.88,3.51-.88s2.52.29,3.51.88c.99.59,1.75,1.43,2.27,2.52.53,1.1.79,2.39.79,3.87s-.27,2.77-.8,3.87c-.53,1.1-1.29,1.94-2.28,2.53-.99.59-2.15.89-3.49.89s-2.5-.3-3.49-.89Zm7.07-2.05c.85-1.02,1.28-2.47,1.28-4.35s-.42-3.33-1.27-4.34c-.85-1.01-2.04-1.51-3.58-1.51s-2.72.51-3.57,1.52c-.85,1.02-1.28,2.46-1.28,4.33s.43,3.32,1.28,4.34c.85,1.02,2.04,1.53,3.57,1.53s2.72-.51,3.57-1.53Z"/>
        <path class="cls-2" d="m160.73,46.32c-.16-.16-.24-.37-.24-.63v-12.26h-4.4c-.25,0-.44-.06-.57-.18s-.2-.3-.2-.53.07-.41.2-.53.33-.18.57-.18h10.51c.25,0,.44.06.57.18s.21.3.21.53-.07.41-.21.53-.33.18-.57.18h-4.4v12.26c0,.26-.08.47-.23.63-.15.16-.35.24-.61.24s-.47-.08-.62-.24Z"/>
        <path class="cls-2" d="m168.98,46.33c-.16-.15-.24-.35-.24-.6v-12.9c0-.25.08-.45.24-.6.16-.15.37-.23.62-.23h7.66c.25,0,.44.06.57.19.14.12.2.3.2.52s-.07.39-.2.52c-.14.12-.33.19-.57.19h-6.86v5.06h6.45c.25,0,.44.06.57.19.14.12.2.3.2.52s-.07.39-.2.52c-.14.12-.33.19-.57.19h-6.45v5.28h6.86c.25,0,.44.06.57.17.14.12.2.29.2.53,0,.22-.07.39-.2.52-.14.12-.33.19-.57.19h-7.66c-.26,0-.47-.08-.62-.23Z"/>
        <path class="cls-2" d="m191.52,32.24c.14.16.2.36.2.62v12.84c0,.26-.07.46-.21.62-.14.16-.35.23-.6.23s-.48-.11-.68-.35l-8.5-11.29v10.79c0,.26-.07.46-.22.62-.14.16-.34.23-.58.23s-.44-.08-.57-.23c-.14-.16-.21-.36-.21-.62v-12.84c0-.26.07-.46.22-.62.14-.16.35-.23.6-.23.27,0,.5.11.7.35l8.48,11.29v-10.79c0-.26.07-.46.22-.62.14-.16.34-.23.58-.23s.44.08.57.23Z"/>
        <path class="cls-2" d="m197.36,45.68c-1-.59-1.77-1.43-2.3-2.52-.54-1.1-.81-2.39-.81-3.89s.27-2.77.81-3.87c.54-1.1,1.31-1.94,2.3-2.52,1-.59,2.18-.88,3.54-.88.91,0,1.78.14,2.59.43.81.29,1.52.7,2.12,1.24.22.2.33.44.33.71,0,.19-.05.35-.16.49-.11.14-.24.21-.39.21-.16,0-.36-.07-.59-.22-.7-.54-1.33-.92-1.89-1.13-.57-.21-1.22-.32-1.96-.32-1.58,0-2.8.51-3.66,1.52-.85,1.02-1.28,2.46-1.28,4.33s.43,3.33,1.28,4.35c.85,1.02,2.07,1.53,3.66,1.53.72,0,1.37-.11,1.95-.32.57-.21,1.21-.59,1.9-1.13.23-.15.43-.22.59-.22.15,0,.28.07.39.2.11.13.16.3.16.5,0,.27-.11.51-.33.71-.6.54-1.31.95-2.12,1.24-.81.29-1.68.43-2.59.43-1.37,0-2.55-.29-3.54-.88Z"/>
        <path class="cls-2" d="m208.36,46.32c-.15-.16-.23-.36-.23-.62v-12.84c0-.26.08-.46.23-.62.15-.16.35-.23.61-.23s.46.08.61.23c.15.16.23.36.23.62v12.84c0,.26-.08.46-.23.62-.15.16-.36.23-.61.23s-.46-.08-.61-.23Z"/>
        <path class="cls-2" d="m225.38,45.85c0,.2-.08.37-.24.51s-.34.2-.56.2c-.34,0-.58-.16-.72-.49l-1.45-3.29h-7.72l-1.47,3.29c-.14.32-.38.49-.72.49-.22,0-.41-.07-.57-.21-.16-.14-.25-.31-.25-.52,0-.11.03-.22.08-.33l5.86-12.92c.08-.19.2-.33.37-.43.16-.1.34-.14.53-.14.21,0,.39.05.55.15.16.1.29.24.37.42l5.86,12.92c.05.11.08.22.08.35Zm-3.58-4.45l-3.26-7.3-3.24,7.3h6.49Z"/>
        <path class="cls-2" d="m232.25,46.34c-.16-.15-.24-.35-.24-.6v-12.9c0-.25.08-.45.24-.6.16-.15.37-.23.62-.23h3.99c2.31,0,4.09.63,5.36,1.89,1.26,1.26,1.89,3.05,1.89,5.38s-.63,4.12-1.9,5.39c-1.27,1.27-3.05,1.9-5.35,1.9h-3.99c-.26,0-.47-.08-.62-.23Zm4.52-1.22c3.74,0,5.61-1.95,5.61-5.84s-1.87-5.82-5.61-5.82h-3.07v11.66h3.07Z"/>
        <path class="cls-2" d="m246.87,46.34c-.16-.15-.24-.35-.24-.6v-12.9c0-.25.08-.45.24-.6.16-.15.37-.23.62-.23h7.66c.25,0,.44.06.57.19.14.12.2.3.2.52s-.07.39-.2.52c-.14.12-.33.19-.57.19h-6.86v5.06h6.45c.25,0,.44.06.57.19.14.12.2.3.2.52s-.07.39-.2.52c-.14.12-.33.19-.57.19h-6.45v5.29h6.86c.25,0,.44.06.57.17.14.12.2.29.2.53,0,.22-.07.39-.2.52-.14.12-.33.19-.57.19h-7.66c-.26,0-.47-.08-.62-.23Z"/>
        <path class="cls-2" d="m263.05,46.35c-.16-.14-.24-.33-.24-.56v-12.92c0-.26.08-.47.23-.63.15-.16.35-.24.61-.24s.46.08.61.24c.15.16.23.37.23.63v12.26h6.62c.25,0,.44.06.57.18s.2.3.2.53-.07.41-.2.53c-.14.12-.33.18-.57.18h-7.48c-.23,0-.43-.07-.58-.22Z"/>
        <path class="cls-2" d="m285.57,45.85c0,.2-.08.37-.24.51s-.34.2-.56.2c-.34,0-.58-.16-.72-.49l-1.45-3.29h-7.72l-1.47,3.29c-.14.32-.38.49-.72.49-.22,0-.41-.07-.57-.21-.16-.14-.25-.31-.25-.52,0-.11.03-.22.08-.33l5.86-12.92c.08-.19.2-.33.37-.43.16-.1.34-.14.53-.14.21,0,.39.05.55.15.16.1.29.24.37.42l5.86,12.92c.05.11.08.22.08.35Zm-3.58-4.45l-3.26-7.3-3.24,7.3h6.49Z"/>
      </g>
      <g>
        <path class="cls-1" d="m72.48,49.55c-1.08,15.37,11.59,25.59,24.42,32.86.96.54,2.15-.15,2.15-1.25v-6.06c0-.85-.52-1.61-1.32-1.92-8.63-3.27-14.94-11.99-14.47-20.88.44-8.33,6.39-16.32,14.62-19.32.71-.26,1.17-.94,1.17-1.69v-5.41c0-.88-.98-1.41-1.71-.91-4.29,2.91-8.88,5.44-13.22,8.3-5.93,3.91-11.13,9.08-11.63,16.28Z"/>
        <path class="cls-1" d="m51.46,43.39c-2.47,4.28-4.05,9.25-3.52,14.17.51,4.71,3.14,9.06,6.2,12.71,6.67,7.95,15.4,14.72,24.28,20.33,5.11,3.23,10.45,6.1,15.98,8.6.05.02.34.1.58.15.18.04.36.05.54.03l1.28-.13c1.25,0,2.26-1.01,2.26-2.26h0c0-.95-.54-1.82-1.39-2.25l-.05-.02c-8.14-4.14-16.21-8.77-22.78-15.01-11.31-10.73-17.68-27.66-9.93-41.96,6.69-12.35,21.67-16.22,31.54-25.49.11-.1.22-.2.32-.29,1.48-1.21,2.29-3.07,2.29-4.98V1.38c0-.76-.61-1.37-1.37-1.37h0c-.66,0-1.29.22-1.8.63-7.25,5.82-14.32,11.83-21.2,18.05-8.25,7.46-17.67,15.1-23.21,24.69Z"/>
        <path class="cls-1" d="m42.13,72.05c-6.97-10.68-6.36-23.06-.12-33.91,7.66-13.32,21.42-23.97,32.36-33.6,1.3-1.15,2.57-2.08,3.91-3.1.61-.47.28-1.42-.47-1.42H15.6C6.98,0,0,6.99,0,15.61v68.04c0,8.62,6.98,15.6,15.6,15.6h54.12c.78,0,1.1-1.02.44-1.45-.6-.4-1.2-.81-1.8-1.22-9.75-6.74-19.81-14.69-26.23-24.52Z"/>
        <path class="cls-1" d="m94.18,52.12c.02-.1.05-.2.06-.3.02-.17.02-.15-.06.3Z"/>
        <path class="cls-1" d="m94.23,54.22c-.02-.11-.05-.21-.06-.32.06.42.07.45.06.32Z"/>
        <circle class="cls-1" cx="99.99" cy="52.27" r="7.51"/>
      </g>
    </g>
  </g>
</svg>