<?xml version="1.0" encoding="UTF-8"?>
<svg id="Capa_2" data-name="Capa 2" xmlns="http://www.w3.org/2000/svg" xmlns:xlink="http://www.w3.org/1999/xlink" viewBox="0 0 2599.45 791.83">
  <defs>
    <style>
      .cls-1, .cls-2, .cls-3, .cls-4, .cls-5, .cls-6, .cls-7, .cls-8, .cls-9, .cls-10 {
        stroke: #fff;
      }

      .cls-1, .cls-3, .cls-4, .cls-6, .cls-7, .cls-8 {
        stroke-linejoin: round;
      }

      .cls-1, .cls-3, .cls-4, .cls-6, .cls-7, .cls-8, .cls-9 {
        stroke-linecap: round;
      }

      .cls-1, .cls-4, .cls-10 {
        fill: #fff;
      }

      .cls-1, .cls-5, .cls-6, .cls-7, .cls-9 {
        stroke-width: 2px;
      }

      .cls-2, .cls-3, .cls-5, .cls-7, .cls-11, .cls-9 {
        fill: none;
      }

      .cls-2, .cls-5, .cls-9, .cls-10 {
        stroke-miterlimit: 10;
      }

      .cls-12 {
        fill: url(#motivo_espororicosis);
       opacity: 0.1;
      }

      .cls-6, .cls-8 {
        fill: #302541;
      }
    </style>
    <pattern id="motivo_espororicosis" data-name="motivo espororicosis" x="0" y="0" width="756.13" height="457.37" patternTransform="translate(-4689.53 -2413.95)" patternUnits="userSpaceOnUse" viewBox="0 0 756.13 457.37">
      <g>
        <rect class="cls-11" width="756.13" height="457.37"/>
        <path class="cls-4" d="m148.1,65.61c-1.07-.58-2.16-1.18-3-2.06-1.37-1.44-1.91-3.47-2.26-5.43-.21-1.21-.37-2.47-.1-3.67s1.07-2.35,2.24-2.74c.93-.31,1.96-.11,2.85.28,1.31.58,2.44,1.57,3.18,2.8.5.84.83,1.77,1.09,2.71.63,2.25,1.49,5.67.87,8-.76,2.86-3,1.13-4.89.11Z"/>
        <path class="cls-4" d="m159.13,54.53c-1.32,1.03-1.67,2.86-1.76,4.53-.1,1.73,0,3.46.26,5.17.2,1.27.59,2.65,1.67,3.34.3.19.65.32,1,.28.29-.03.55-.17.8-.31,2.45-1.39,4.87-3.25,5.71-5.93,1.35-4.29-3.04-10.7-7.66-7.07Z"/>
        <path class="cls-4" d="m176.39,61.51c.68-.32,1.39-.64,2.15-.63.93.01,1.77.53,2.56,1.03,1.4.9,2.85,1.84,3.74,3.24s1.07,3.41-.05,4.64c-.98,1.08-2.59,1.26-4.05,1.36-1.81.13-3.67.25-5.42-.21-1.99-.53-5.45-2.26-5.56-4.7-.12-2.73,4.67-3.81,6.64-4.73Z"/>
        <path class="cls-4" d="m128.36,69.56c-1.33.09-2.83.38-3.55,1.5-.49.77-.5,1.75-.39,2.66.22,1.93.93,3.96,2.54,5.05,1.02.69,2.27.92,3.49,1.1,3.01.43,11.75.92,8.82-4.35-2.33-4.18-6.23-6.27-10.92-5.96Z"/>
        <path class="cls-4" d="m148.91,91c-.04.53-.01,1.06-.13,1.57-.19.79-.7,1.49-.83,2.29-.28,1.71,1.2,3.17,2.63,4.17,1.03.72,2.18,1.4,3.44,1.37.18,0,.38-.03.53-.14.17-.13.24-.33.3-.53.24-.72.47-1.46.38-2.21-.14-1.16-1.04-2.07-1.81-2.95s-1.51-2-1.25-3.15c.18-.78.79-1.38,1.28-2.02,1.29-1.7.49-3.19-1.51-2.66-1.8.48-2.9,2.51-3.02,4.25Z"/>
        <path class="cls-4" d="m160.49,91.05c2.26,1.32,4.96,1.71,7.58,1.65,1.21-.03,2.56-.21,3.31-1.17.92-1.18.39-3.04-.77-3.97-2.31-1.85-6.97-1.28-9.76-1.14-3.11.15-2.79,3.2-.35,4.63Z"/>
        <path class="cls-4" d="m154.71,71.47c1.75-.37,3.11,1.65,4.87,1.97,1.95.35,3.6-1.43,5.51-1.95,1.64-.45,3.42.09,4.86.99.96.6,1.83,1.4,2.3,2.43.53,1.18.45,2.62-.21,3.73s-1.88,1.87-3.17,1.98c-1.43.12-2.82-.52-4.25-.57-2.38-.08-4.68,1.45-7.01.96-2.28-.49-3.61-2.67-4.55-4.61-.78-1.61-.57-4.46,1.64-4.93Z"/>
        <path class="cls-4" d="m138.27,17.3c1.68-.09,3.51-.05,4.82,1,1.11.89,1.61,2.33,1.97,3.71.44,1.66.71,3.56-.22,5.01-1.06,1.64-3.22,2.08-5.16,2.37-1.26.19-2.59.37-3.76-.12-1.61-.67-2.8-3.16-4.54-2.99-3.54.35-8.55,5.87-1.42-2.47.61-.71,1.29-.91,1.81-1.5.73-.81.87-1.46,1.48-2.33,1.31-1.9,2.61-2.54,5.03-2.67Z"/>
        <path class="cls-7" d="m84.64,10.33c4.89-2.05,10.69.17,15.71-1.53,2.72-.92,5.18-2.98,8.06-2.84,3.54.17,6.02,3.63,7.16,6.99,1.14,3.36,1.56,7.06,3.62,9.95,2.43,3.42,6.81,5.16,8.93,8.78,2,3.42,1.55,7.7,2.58,11.52,1.39,5.12,5.38,9.17,7.1,14.19,1.31,3.83,1.29,8.18,3.54,11.55,1.47,2.2,3.85,3.84,4.72,6.34.87,2.5.05,5.24.18,7.88s2.15,5.7,4.72,5.08"/>
        <path class="cls-7" d="m138.5,77.98c4.38-1.67,9.72,1.39,13.83-.86"/>
        <path class="cls-4" d="m104.69,21.23c-.03,1.33.21,2.79,1.2,3.68.65.58,1.53.84,2.39.97,5.22.8,10.28-4.34,7.03-9.42-3.46-5.4-10.51-.23-10.62,4.76Z"/>
        <path class="cls-4" d="m79.91,14.91c-1.52-.09-3.05-.36-4.38-1.1s-2.42-2-2.67-3.5c-.1-.58-.06-1.2.24-1.7.56-.92,1.85-1.14,2.89-.84s1.9,1,2.82,1.57c1.26.79,7.6,1.75,7.96,2.82.79,2.36-5.67,2.81-6.85,2.74Z"/>
        <path class="cls-7" d="m150.04,98.45c-7.98,7.64-23.43,9.42-34.14,12.14-12.26,3.12-23.23,10.96-35.83,12.12"/>
        <path class="cls-7" d="m153.51,101.28c3.16,2.52,2.56,7.61,4.91,10.9,1.7,2.37,4.65,3.42,7.16,4.9,6.34,3.74,10.23,10.57,12.85,17.46,2.62,6.88,4.3,14.16,7.7,20.69,2.78,5.33,7.81,10.66,4.3,16.44-3.06,5.04-9.15,10.68-13.74,14.34-4.92,3.92-10.64,6.71-16.44,9.16-41.32,17.42-89.47,17.94-131.16,1.43-3.64-1.44-7.27-3.02-11.11-3.79-4.02-.81-8.38-.67-12,1.27"/>
        <path class="cls-7" d="m229.22,89.84c-.14,11.87.37,27.44.23,39.31-.05,3.78-.09,7.58-.82,11.28-.94,4.76-3,9.41-2.62,14.24.12,1.51.42,3.2-.52,4.39-.61.77-1.59,1.11-2.52,1.41-9.16,2.97-21.39,5.44-30.75,7.68"/>
        <path class="cls-7" d="m41.47,115.01c-1.55,3.08-3.13,6.24-3.58,9.66-.31,2.41-.06,4.88-.62,7.24-.62,2.56-2.15,4.79-3.17,7.21-2.02,4.8-1.94,10.19-1.82,15.39"/>
        <path class="cls-7" d="m330.04,80.31c-2.45,11.06-4.52,22.9-.49,33.49,1.89,4.98,5.14,10.03,3.85,15.19-1.07,4.28-5.17,8.36-3.37,12.39"/>
        <path class="cls-7" d="m494.31,41.64c-1.55-.34-.46,9.43-.07,10.97,2.32,9.33,3.41,18.96,3.23,28.57-.1,5.51-.62,11.05.01,16.52,1.17,10.25,6.31,20.39,3.92,30.42"/>
        <path class="cls-7" d="m558.97,137.99c2.41-6,7.49-10.44,12.4-14.64,2.8-2.39,5.6-4.79,8.4-7.18,8.21-7.02,16.5-14.1,25.96-19.33,2.94-1.62,13.95-2.8,15.97-.12"/>
        <path class="cls-7" d="m374.6,168.11c.85,6.09-4.33,11.14-6.82,16.76-3.74,8.4-1.44,18.45-4.7,27.04-2.74,7.23-9,12.43-13.82,18.48-4.82,6.05-8.3,14.63-4.51,21.37"/>
        <path class="cls-7" d="m392.75,148.37c9.68-2.04,21.69,4.29,31.53,3.3,9.21-.93,17.28-6.26,25.63-10.26,15.6-7.48,32.9-10.51,49.95-13.46"/>
        <path class="cls-7" d="m635.46,146.65c-12.3.53-26.35,2.07-38.65,2.6-6.54.28-13.18.56-19.56-.96-9.84-2.34-18.33-8.77-28.17-11.15-13.45-3.26-34.53-1.95-46.17-9.43"/>
        <path class="cls-7" d="m606.44,6.89c4.03,10.97,8.1,22.15,8.74,33.83.41,7.55-.63,15.15.16,22.66.56,5.33,2.03,10.52,3.5,15.68,3.68,12.97,7.37,25.93,11.05,38.9,1.43,5.03,2.86,10.4,1.31,15.39-1.11,3.59-3.65,6.53-5.62,9.73-11.8,19.13-5.71,51.92-9.04,74.15"/>
        <path class="cls-7" d="m227.55,155.08c13.36-4.11,27.03-7.21,40.86-9.25,20.23-2.99,40.72-3.73,61.16-4.46,9.28-.33,18.72-.65,27.69,1.75"/>
        <path class="cls-7" d="m617.44,39.24c7.22-6.33,18.81-6.37,25.04-13.68,4.48-5.27,4.42-7.55,11.01-3.98,4.74,2.56,10.24,4.26,14.08,8.22,1.81,1.87,3.12,4.14,4.56,6.3,2.92,4.36,6.44,8.32,10.44,11.73,7.87,6.7,17.64,11.37,23.83,19.64"/>
        <path class="cls-7" d="m667.26,4.8c-2.53-.28-5.13-.56-7.57.15s-4.7,2.69-4.93,5.23c-.12,1.32.27,2.79-.52,3.86-.87,1.19-2.73,1.16-3.8,2.17-.52.49-.81,1.2-1.32,1.71s-2.87,3.61-3.34,3.07"/>
        <path class="cls-7" d="m709.71,101.41c-7.31-1.32-14.74-1.92-22.16-1.8-2.39.04-4.8.16-7.13.7-2.27.53-4.42,1.44-6.57,2.33-13.55,5.55-27.61,9.87-41.94,12.88"/>
        <path class="cls-7" d="m530.46,237.88c4.6,1.09,12.31,2.18,16.91,3.26,7.6,1.8,15.3,3.6,23.12,3.44,5.34-.11,10.72-1.14,15.97-.18,2.86.52,5.58,1.62,8.36,2.48,7.82,2.42,11.93,2.74,19.99,1.33"/>
        <path class="cls-7" d="m619.97,255.09c1.64,9.19.49,24.61,2.25,33.78.92,4.8,2.66,9.39,4.39,13.96,1.78,4.69,3.64,12.99,5.42,17.68"/>
        <path class="cls-7" d="m698.69,303.91c-8.89,1.92-17.52,5-25.61,9.14-5.39,2.75-10.54,5.98-16.11,8.34s-11.69,3.86-17.67,2.92"/>
        <path class="cls-7" d="m637.19,336c2.8,5.19,3.84,16.24,3.88,22.13.03,5.26-1.08,10.49-.85,15.75.5,11.23,7,21.16,12.54,30.95,5.54,9.79,10.44,21.15,7.45,31.99"/>
        <path class="cls-7" d="m702.6,432.4c-3.67-2.8-10.7-7.57-15.02-9.21s-9.2-2.16-13.56-.63c-3.5,1.23-6.69,3.76-10.4,3.7"/>
        <path class="cls-7" d="m616.53,323.95c-12.94-.95-23.55.73-36.33,2.96-5.64.98-11.24,2.27-16.95,2.74-5,.41-10.03.19-15.04.48-6.36.37-12.75,1.55-19.06.68-4.08-.57-8.01-1.98-12.07-2.67-8.98-1.53-18.64.44-27.02-3.15-4.44-1.91-8.12-5.24-12.41-7.48-7.77-4.06-16.92-4.27-25.69-4.24-7.52.02-15.03.15-22.55.38-6.2.19-12.63.51-18.12,3.39"/>
        <path class="cls-7" d="m534.36,331.06c1.84,3.06,2.21,6.95.99,10.3-.31.84-.71,1.68-.73,2.57s-1.61,5.71-.72,5.84"/>
        <path class="cls-7" d="m325.62,337.72c-11.18,5.31-27.97,8.7-40.35,8.79-.18,5.93,6.13,10.02,7.75,15.73,1.49,5.26-1.23,10.68-2.21,16.06-.51,2.82-.53,5.71-.86,8.56-.28,2.43-.78,4.83-1.3,7.23-3.38,15.51-7.75,30.81-13.08,45.76"/>
        <path class="cls-7" d="m112.24,298.6c13.41,2.61,24.76,11.49,37.78,15.62,12.96,4.11,27.1,3.38,39.97,7.77,5.04,1.71,9.78,4.18,14.78,6.01,6.41,2.35,13.16,3.63,19.88,4.89,11.06,2.09,22.11,4.17,33.17,6.26,8.26,1.56,20.69,3.42,28.2,7.18"/>
        <path class="cls-7" d="m94.1,299.91c-19.06-.05-37.82-4.37-56.38-8.67-9.74-2.25-19.49-4.51-29.23-6.76"/>
        <path class="cls-7" d="m31.26,213.31c-3.84,23.66,3.95,52.91-1.72,76.21"/>
        <path class="cls-7" d="m65.92,217.47c-9.23,13.8-13.06,30.82-12.35,47.41.71,16.59,5.75,32.79,13,47.73,2.42,4.99,5.14,10,5.79,15.51,1.38,11.69-6.65,22.18-9.95,33.48-4.85,16.63.68,35.05-4.59,51.55-1.88,5.9-5.07,12.46-2.04,17.86"/>
        <path class="cls-7" d="m64.25,334.93c3.15-.78,6.45.02,9.65.58s6.71.8,9.48-.89c1.22-.75,2.21-1.82,3.36-2.67,4.19-3.06,11.65-3.36,16.81-2.84"/>
        <path class="cls-7" d="m34.18,362.68c4.15-2.53,11.93,4.45,14.47-3.6,1.91-6.07,9.42-1.36,15.33,1.02"/>
        <path class="cls-7" d="m104.47,328.95c3.87,1.05,7.11,4.16,8.33,7.97.8,2.52.9,5.51,2.92,7.21"/>
        <path class="cls-7" d="m110.44,299.85c7.95,5.77,24.62,26.42,26.38,36.08.54,2.96.75,6.03,1.97,8.78,1.31,2.95,3.66,5.28,5.77,7.72,5.84,6.77,10,14.81,14.1,22.75,3.96,7.66,7.98,15.53,9.05,24.09.66,5.3.16,10.69.9,15.97,1.63,11.61,10.25,22.83,21.02,27.48"/>
        <path class="cls-7" d="m177.58,370.43c-4.6-.21-14.34,1.93-18.94,1.72"/>
        <path class="cls-7" d="m162.08,194.85c1.98-.25,5.4,2.51,6.48,4.18s1.49,3.68,1.85,5.64c.73,4,1.31,8.32-.52,11.95-.61,1.2-1.47,2.3-1.78,3.62s.17,2.97,1.47,3.36"/>
        <path class="cls-7" d="m192.32,321.21c.7-5.63,4.71-10.73,10.03-12.73,2.44-.92,5.67-1.86,5.82-4.46"/>
        <path class="cls-4" d="m23.62,108.92c-2.22-.06-4.49-.42-6.4-1.55s-3.39-3.16-3.42-5.38c-.01-.84.2-1.71.74-2.36.98-1.18,2.74-1.33,4.26-1.15,2.38.27,4.86,1.21,6.17,3.22.73,1.13,1.03,2.5,1.78,3.61.92,1.36,2.72,1.77,3.56,2.95-1.22,1.23-5.02.71-6.69.67Z"/>
        <path class="cls-4" d="m18.25,116.02c-1.38,1.14-2.08,3.3-1.03,4.75.5.7,1.31,1.11,2.13,1.37,2.92.93,6.32.09,8.48-2.08.9-.91,1.6-2.01,2.57-2.85.66-.57,2.31-1.13,2.62-2.02.46-1.38-.67-1.47-1.9-1.65-3.61-.51-10.01.13-12.86,2.48Z"/>
        <path class="cls-10" d="m24.69,94.8c-1.87-1.85-3.44-4.09-4.12-6.63-.32-1.19-.45-2.41-.54-3.64-.02-.24-.04-.49.04-.72.08-.26.28-.48.5-.65,1.16-.94,2.88-.92,4.23-.3s2.39,1.77,3.29,2.96c1.8,2.39,4.7,7.21,3.63,10.37-1.38,4.1-5.33.27-7.02-1.4Z"/>
        <path class="cls-10" d="m36.66,80.79c-.1-1.32-.07-2.67.39-3.91s1.39-2.35,2.65-2.76c2.09-.67,4.27.76,5.77,2.36,1.34,1.42,2.48,3.1,2.94,5s.13,4.06-1.17,5.52c-1.56,1.76-4.45,2.59-4.82,4.91-.34,2.1,1.75,4.03,1.39,6.12-.84.52-2.01.09-2.63-.69s-.82-1.79-1-2.77c-.87-4.69-3.18-9.03-3.53-13.79Z"/>
        <path class="cls-4" d="m50.87,87.63c.19-.28.38-.56.67-.73.32-.19.71-.21,1.08-.22,2.35-.06,4.97.13,6.59,1.83.61.63,1.02,1.43,1.4,2.22.5,1.05.97,2.15,1.08,3.31s-.17,2.41-1,3.24c-.82.82-2.02,1.1-3.15,1.35-2.49.53-7.79,2.62-9.64-.25-1.94-3.02,1.3-8.29,2.96-10.75Z"/>
        <path class="cls-1" d="m63.3,120.41c.17-.37.2-.78.03-1.26-.45-1.2-3.27-2.14-4.34-2.57-3.13-1.26-6.47-1.73-9.82-1.88-.96-.03-2,0-2.78.57-.86.64-1.17,1.82-1.02,2.88s.69,2.02,1.26,2.92c.62.99,1.32,1.96,2.29,2.61,1.23.83,2.76,1.05,4.23,1.25,1.16.16,2.36.31,3.51.08,2.67-.55,4.17-2.99,6.58-3.99,2.06-.86,5.34-.78,7.33.16,1.13.53,2.07,1.43,3.22,1.92,1.27.54,2.7.53,4.08.51"/>
        <path class="cls-4" d="m74.78,111.44c.02-1.54.4-3.08.13-4.59-.29-1.56-1.24-2.9-2.2-4.15-.6-.78-1.34-1.63-2.33-1.66-1.13-.04-2,1.03-2.41,2.08-.97,2.49-.52,5.28-.04,7.91.5,2.8,1.28,5.98,3.81,7.26,2.05,1.04,2.32,3.79,5.28,3.36,1.52-.22,2.84-1.54,3.24-3.01.49-1.8-.15-2.4-1.71-2.91-2.39-.79-3.79-1.32-3.76-4.29Z"/>
        <path class="cls-4" d="m69.99,118.25c-1.53.19-6.12-4.65-7.07-5.88s-1.25-2.89-.92-4.4c.43-1.96,1.85-3.89,1.2-5.78-.06-.17-.14-.35-.29-.45-.18-.12-.4-.12-.62-.12-2.17.05-4.42.12-6.39,1.04-1.34.62-2.49,1.62-3.3,2.86-.41.63-.73,1.33-.81,2.07-.22,2.21,1.76,4,3.69,5.1,2.34,1.34,4.89,2.27,7.42,3.2,2.08.76,4.16,1.53,6.25,2.29"/>
        <path class="cls-4" d="m64.83,121.69c-.83.34-14.82,6.09-15.65,6.43-.53.21-1.07.44-1.47.84-.96.96-.8,2.54-.41,3.84.34,1.12.87,2.28,1.91,2.82.77.4,1.68.38,2.54.31,2.58-.21,5.14-.78,7.56-1.69.84-.32,1.71-.7,2.25-1.42.62-.81.72-1.9.79-2.92l.27-3.83c.07-1.04.01-2.95.69-3.73"/>
        <path class="cls-4" d="m78.6,125.13c-2.22.05-8.45,2.59-9.71,4.42-.21.3-.4.63-.7.84-.41.3-.95.33-1.46.37-1.47.12-3.07.48-3.95,1.67-.81,1.09-.78,2.58-.72,3.94.05,1.05.1,2.11.15,3.16.02.42.04.84.19,1.23.44,1.18,1.91,1.7,3.14,1.44s2.24-1.11,3.13-1.99,1.73-1.85,2.83-2.45c1.04-.57,2.31-.82,3.08-1.73.74-.86.82-2.11.71-3.24s-.39-2.27-.23-3.39c.23-1.58,1.37-2.99,2.86-3.54"/>
        <path class="cls-4" d="m64.83,144.07c-.19-.13-5.42-5.09-5.65-5.02-2.17.66-4.43,1.64-5.64,3.56-.97,1.54-1.1,3.56-.45,5.26s2.07,3.07,3.74,3.79c.9.39,1.88.6,2.86.71,1.53.18,3.14.12,4.5-.6,1.41-.74,2.43-2.18,2.65-3.76s-.88-2.83-2.02-3.94"/>
        <path class="cls-4" d="m75.16,138.9c-1.46,1.67-4.99,6.84-5.98,8.83-.29.58-.57,1.18-.71,1.82-.22.98-.12,2.01.1,2.99.41,1.86,1.3,3.68,2.82,4.83s3.75,1.45,5.34.4c1.78-1.17,2.27-3.51,2.59-5.61.45-3,.7-6.47-1.4-8.66-.72-.75-1.65-1.27-2.34-2.04s-1.1-1.97-.53-2.84"/>
        <path class="cls-7" d="m39.29,112.82l-3.88-7.59c-1.15-2.24-2.29-4.49-3.14-6.86"/>
        <path class="cls-7" d="m38.74,90.28c-2.01-.54-4.33.85-4.78,2.88"/>
        <path class="cls-7" d="m42.37,113.49c.41.53,1.1.77,1.77.88.87.14,1.82.1,2.54-.4.98-.68,1.27-2.02,1.21-3.22s-.38-2.38-.3-3.57c.03-.37.1-.76.3-1.07.41-.63,1.23-.85,1.79-1.36.6-.53.87-1.4.68-2.18-2.28-1.51-4.82-3.07-7.1-4.58-1.99-1.32-4.14-2.87-4.67-5.2"/>
        <path class="cls-4" d="m9.99,182.99c-.66-.02-1.34-.05-1.94-.32-.92-.41-1.52-1.33-2.41-1.79-.35-.18-.74-.3-1.02-.57-.25-.24-.38-.58-.49-.9-.56-1.7-.76-3.51-.57-5.29.02-.15.04-.31.15-.41.12-.12.31-.13.48-.13,2.36,0,4.73-.01,7.09-.02.46,0,.94,0,1.33.24,1.36.82,3.53,5.5,3.41,7.17-.19,2.88-3.96,2.02-6.04,2.02Z"/>
        <path class="cls-4" d="m6.37,166.35c-.67-1.43-.71-3.06-.71-4.63,0-1.52.07-3.2,1.12-4.3.85-.89,2.17-1.18,3.4-1.14,2.7.1,5.14,1.56,7.38,3.06,1.28.85,2.61,1.81,3.23,3.22.63,1.45.39,3.15-.21,4.61-.63,1.51-1.74,3.77-2.92,4.92-1.42,1.37-2.06.77-3.67-.13-2.68-1.5-6.22-2.63-7.62-5.61Z"/>
        <path class="cls-4" d="m31.45,156.44c1.05-3.25-1.76-8.06-3.45-10.79-.34-.55-.71-1.13-1.29-1.4-.46-.22-.99-.22-1.5-.22-.84,0-1.69.01-2.5.19-2.38.53-4.27,2.61-4.82,4.98-1.15,4.99,3.35,10.63,8.51,10.42,2.61-.11,4.36-1.93,6.65-2.86,3.05-1.24,6.85-1.35,10.1-1.33.93,0,1.89.05,2.73.47.87.43,1.51,1.24,1.89,2.13,1.08,2.55.05,5.66-1.97,7.57s-4.81,2.79-7.56,3.13c-2.38.29-4.9.2-7.04-.89s-3.81-3.35-3.64-5.74c.07-.99-.68-1.4-.45-2.37"/>
        <path class="cls-4" d="m20.94,175.15c.33,1.03,1.07,1.86,1.57,2.82s.72,2.21.04,3.05c1.1,1.1,3.23.84,4.03-.5.28-.47.41-1.02.67-1.5s.73-.92,1.27-.89c.59.03,1.01.58,1.33,1.08.68,1.03,1.35,2.07,2.03,3.1.38.58.81,1.19,1.46,1.4.99.31,2.01-.45,2.62-1.3,1.58-2.23,1.68-5.41.24-7.73-1.6-2.58-6.31-5.7-9.36-6s-7.22,3.18-5.9,6.47Z"/>
        <path class="cls-4" d="m44.36,169.44c-1.74,1.4-1.03,4.2,1.17,4.59,2.82.5,5.8.08,8.32-1.28.63-.34,1.24-.74,1.75-1.24,1.14-1.13,1.69-2.71,2.21-4.22.07-.22.15-.45.11-.67-.09-.48-.64-.7-1.11-.82-2.18-.57-4.44-.82-6.69-.72-.66.03-1.26.34-1.72.81-1.22,1.24-2.62,2.43-4.03,3.56Z"/>
        <path class="cls-4" d="m41,183.93c.18.56.76.87,1.33,1.02s1.17.21,1.66.51c.64.39,1,1.13,1.11,1.87s-.01,1.5-.13,2.24c1.19.44,2.57.73,3.68.12,1.46-.79,1.8-2.72,1.79-4.38-.02-6.68-11.16-6.81-9.45-1.38Z"/>
        <path class="cls-9" d="m25.44,185.01c.15,1.57.24,3.34-.82,4.5-1.15,1.25-3.26,1.33-4.25,2.71"/>
        <path class="cls-7" d="m32.98,198.29c-4.67,2.82-12.75,13.58-12.67,19.04.03,2.33.4,5.13-1.44,6.57-.72.56-1.67.8-2.29,1.46-.7.75-.81,1.85-.88,2.86-.41,6.22-.35,12.47.2,18.68.2,2.32.46,4.75-.38,6.92-.61,1.56-1.73,2.85-2.74,4.19-1.48,1.98-2.75,4.18-3.37,6.57-1.33,5.07.27,10.53-.93,15.63-.15.66-.36,1.33-.23,1.99s.73,1.29,1.39,1.18"/>
        <path class="cls-7" d="m55.86,432.61l.81.18c.42,1.42-.38,2.88-1.02,4.21-.36.75-.67,1.57-.53,2.39s.89,1.59,1.71,1.44"/>
        <path class="cls-4" d="m56.95,437.23c-.11.4.52.62.87.41s.56-.61.91-.83c.51-.33,1.2-.18,1.71.14s.91.79,1.38,1.18c2.14,1.74,5.53,1.21,7.55-.67s2.87-4.73,3-7.48c.08-1.58-.16-3.38-1.44-4.31-.78-.57-1.79-.69-2.75-.76-1.29-.1-2.6-.15-3.84.18s-2.44,1.09-3,2.24c-.63,1.29-.41,2.82-.79,4.2-.41,1.47-1.46,2.66-2.49,3.8"/>
        <path class="cls-4" d="m64.47,396.88c-.47,2.41-.73,4.93-.09,7.31s2.35,4.58,4.72,5.23c2.23.61,4.75-.3,6.24-2.08s1.97-4.29,1.46-6.55c-.44-1.93-1.52-3.61-2.72-5.16-1.09-1.41-2.36-3.54-3.78-4.6-.67-.5-.9-.6-1.47-.2-.13.09-.33.84-.59,1.07-.3.26-.92.26-1.28.47-1.58.9-2.17,2.85-2.49,4.52Z"/>
        <path class="cls-1" d="m113.77,342.95c-.47.86-.93,1.71-1.3,2.61-.96,2.31-1.26,4.94-.53,7.33s2.58,4.48,4.97,5.21c2.67.82,5.76-.22,7.53-2.38s2.21-5.28,1.25-7.9c-.31-.84-.75-1.64-1.4-2.25-.69-.64-1.57-1.04-2.44-1.41-2.18-.93-4.39-1.79-6.62-2.58"/>
        <path class="cls-4" d="m101.65,283.15c-1.74-.5-3.53-.89-5.11-1.76-2.53-1.39-4.4-4.24-4.01-7.1.32-2.32,2.03-4.26,4.05-5.45,3.36-1.98,7.73-2.13,11.21-.37,3.48,1.75,5.97,5.35,6.39,9.22.25,2.36.52,9.06-2.43,9.42-2.62.31-7.42-3.18-10.1-3.95Z"/>
        <path class="cls-4" d="m116.47,281.78c-.33-3.25-1.08-13.3.55-16.14,1.27-2.2,3.55-3.68,5.96-4.47,1.21-.4,2.49-.65,3.75-.44,2.96.5,4.9,3.36,6.1,6.12.62,1.42,1.14,2.92,1.23,4.46.24,3.84-2.3,7.51-5.71,9.3-3.4,1.79-7.5,1.89-11.24,1.03"/>
        <path class="cls-4" d="m110.44,298.13c.24-1.29-3.11-4.51-4.27-5.13-3.35-1.78-6.7-3.56-10.05-5.35-.97-.52-1.94-1.03-2.95-1.49-1.93-.87-4.76-1.2-5.66.72-.65,1.4.29,3.03,1.44,4.06,1.54,1.37,3.49,2.21,5.07,3.54s2.8,3.46,2.13,5.41c-.83,2.41-4.21,3.68-4.12,6.22.05,1.53,1.73,2.78,3.21,2.39-2.64.81-4.83,3.29-4.84,6.05,0,2.77,2.6,5.4,5.33,5.01,1.92-.27,3.47-1.85,4.22-3.64s.85-3.78.88-5.72c-1.48-.01-2.96-.02-4.43-.03"/>
        <path class="cls-4" d="m105.28,305.01c-1.59,3.32-.38,11.59-.71,15.26-.07.73-.1,1.51.23,2.17.52,1.08,1.8,1.53,2.96,1.84,1.89.5,4.03.84,5.7-.18.78-.47,1.37-1.2,1.86-1.96.87-1.35,1.49-2.92,1.39-4.52-.17-2.83-7.58-5.58-9.71-7.45"/>
        <path class="cls-4" d="m114.81,293.77c1.26,1.24,3.7.84,4.49-.74.31-.62.38-1.32.45-2.01.12-1.26.24-2.54.01-3.78-1.58-8.9-9.85,2.01-5.02,6.59"/>
        <path class="cls-1" d="m129.38,318.79c2.12.03,7.95.17,9.87-.73,1.48-.69,3.37-1.6,4.56-.48.51.48.69,1.21.88,1.89.86,2.98,2.51,5.72,4.74,7.88,1.14,1.1,2.47,2.06,4,2.44s3.31.07,4.4-1.08c1.78-1.87,1.07-5.03-.47-7.09-.59-.79-1.31-1.52-2.22-1.9-.8-.33-1.69-.37-2.55-.4-2.65-.09-5.3-.19-7.95-.28"/>
        <path class="cls-4" d="m167.27,359.84c-.05-.44-.11-.88-.16-1.32-.15-1.25-.3-2.51-.07-3.75s.91-2.45,2.03-3.01c1.32-.67,3.09-.22,3.93,1,.57.83.7,1.88.76,2.88.06.93.06,1.87.02,2.8-.02.45-.05.92-.26,1.32-.21.4-.57.7-.93.98-2.39,1.82-4.83,3.2-5.32-.89Z"/>
        <path class="cls-4" d="m177.13,352.99c-.06-1.82.08-3.75,1.15-5.22s3.36-2.16,4.76-.99c.94.79,1.19,2.11,1.33,3.33.3,2.64.13,5.69-2.29,7.33-3.16,2.13-4.86-1.73-4.95-4.45Z"/>
        <path class="cls-4" d="m175.42,370.02c-1.14-.88-1.42-2.5-1.29-3.94.02-.25.06-.5.21-.7.23-.29.63-.36,1-.38,2.55-.17,5.36.56,7.52-.81,2.08-1.32,2.88-4.24,5.16-5.19,1.41-.59,3.02-.25,4.47.23,2.23.73,4.46,1.82,5.82,3.73.26.36.48.76.54,1.19.12.94-.56,1.79-1.26,2.42-3.24,2.92-7.03,3.38-11.19,3.21-3.3-.13-8.06,2.46-10.96.23Z"/>
        <path class="cls-4" d="m208.65,363.09c2.98,1.14,4.92,4.52,4.41,7.67-.1.59-.27,1.18-.59,1.69-.61.97-1.7,1.57-2.82,1.83s-2.28.22-3.43.19c-.83-.03-1.71-.06-2.44-.47-.5-.28-.89-.71-1.24-1.16-1.53-2-3.15-5.88-1.77-8.35s5.63-2.26,7.89-1.39Z"/>
        <path class="cls-4" d="m193.79,380.13c-.32.3-.78.38-1.21.46-2.65.47-10.88-2.78-6.13-5.49,1.76-1.01,4.29-.92,5.92.29,1.11.83,2.83,3.45,1.42,4.74Z"/>
        <path class="cls-4" d="m176.84,386.6c0,.87.05,1.77.46,2.53.34.62.89,1.1,1.43,1.56.66.56,1.37,1.15,2.22,1.29.9.15,1.83-.25,2.5-.86s1.12-1.44,1.5-2.27c1.45-3.25-.23-7.12-3.74-8.25-3.95-1.28-4.35,3.16-4.37,6.01Z"/>
        <path class="cls-7" d="m180.08,378.76c.79-.71,1.09-1.86.93-2.91s-1.45-2.71-2.22-3.45c.9-.69,3.96,2.28,4.57,2.94"/>
        <path class="cls-10" d="m190.49,443.59c-.32-1.58-1.4-7.5,0-8.28.75-.42,1.68-.29,2.52-.14.84.14,1.69.29,2.53.43.17.03.33.06.49.13.23.11.39.31.53.52,1.13,1.73.43,4.2-1.13,5.55s-3.74,1.75-5.8,1.69"/>
        <path class="cls-10" d="m191.99,281.53c-1.18.25-2.21.97-3.05,1.83-.88.9-1.64,2.14-1.31,3.36.23.87.97,1.51,1.67,2.08,2.54,2.04,8.73,3.85,9.46-1.28.27-1.91-1.47-2.6-2.58-3.79-1.28-1.37-1.98-2.68-4.19-2.21Z"/>
        <path class="cls-10" d="m208.57,282.05c-.38-.05-.76.04-1.14.04-.89-.02-1.67-.6-2.37-1.14-.88-.69-1.77-1.38-2.65-2.07-.4-.31-.86-.64-1.37-.58-.33.04-.62.25-.88.47-.92.8-1.63,1.86-1.87,3.06-.45,2.2,2.32,7.07,4.82,6.96,2.14-.09,7.63-6.44,5.47-6.73Z"/>
        <path class="cls-10" d="m210.17,271.69c.15-1.66,1.42-3.21,3.07-3.5,1.6-.28,3.15.58,4.54,1.4,1.11.65,2.3,1.41,2.7,2.63.18.55.17,1.15.17,1.73,0,.66-.02,1.31-.03,1.97,0,.3,0,.61-.11.89-.31.91-1.43,1.25-2.39,1.27-3.22.04-8.28-2.65-7.95-6.39Z"/>
        <path class="cls-10" d="m202.98,299.68c-.12.38-.36.72-.52,1.08-.51,1.14-.14,2.61.84,3.38s2.49.77,3.48,0c.4-.31.71-.73,1.01-1.14.56-.78,1.09-1.58,1.6-2.4.39-.63.77-1.33.67-2.06-.08-.59-.47-1.09-.86-1.54-1.21-1.42-4.09-5.47-6.26-4.52-2.92,1.26.68,5.14.05,7.21Z"/>
        <path class="cls-10" d="m207.7,304.15c-.44,2.71-.98,10.19.36,12.6.52.94,1.2,1.84,2.15,2.31.73.36,1.56.46,2.37.54,1.85.2,3.91.34,5.38-.8.82-.63,1.33-1.59,1.65-2.57.66-1.99.63-4.2-.07-6.17-.23-.65-.55-1.29-1.05-1.77-.41-.38-.92-.64-1.42-.88-2.64-1.3-5.29-2.6-7.93-3.9"/>
        <path class="cls-10" d="m217.83,304.21c.03.25.07.5.2.71.09.13.21.23.33.33.79.67,1.58,1.34,2.37,2,.71.6,1.43,1.2,2.28,1.55,1.78.73,3.94.19,5.36-1.11s2.15-3.24,2.23-5.17c.02-.41,0-.83-.14-1.22-.16-.41-.46-.76-.79-1.06-2.17-2.01-5.85-2.79-8.73-2.14-2.69.61-3.38,3.49-3.12,6.09Z"/>
        <path class="cls-10" d="m254.92,277.83c-1.31,2.01-1.76,4.44-2.04,6.82-.2,1.79-.31,3.68.48,5.3,1.11,2.28,3.68,3.42,6.08,4.25,2.28.79,4.64,1.48,7.05,1.38,2.41-.1,4.89-1.13,6.21-3.14.89-1.35,1.18-3.02,1.17-4.63-.03-3.43-1.42-6.83-3.79-9.3-3.86-4.02-11.54-6.23-15.17-.68Z"/>
        <path class="cls-10" d="m277.3,242.51c-.08,1.64.06,3.4,1.05,4.71,1.65,2.18,4.85,2.23,7.58,2.08,1.82-.1,3.77-.25,5.18-1.4,1.81-1.47,2.15-4.05,2.36-6.37.14-1.54.26-3.19-.51-4.54-.53-.92-1.41-1.58-2.26-2.21-7.21-5.32-12.96-1.03-13.41,7.73Z"/>
        <path class="cls-4" d="m285.16,398.83c-1.72-1.72-5.62-.87-6.89-.35-1.88.77-3.98,1.78-4.53,3.74-.15.51-.17,1.05-.18,1.58-.06,2.32.14,4.93,1.89,6.46,2,1.75,5.31,1.18,7.25-.64s2.81-4.5,3.29-7.12c.15-.8.27-1.63.1-2.43s-.68-1.57-1.45-1.84"/>
        <path class="cls-4" d="m289.98,409.65c1.9,2.63,3.98,5.4,7.03,6.54,1.73.65,3.62.7,5.46.71,1.65.01,3.41-.02,4.78-.95.9-.61,1.53-1.54,2.04-2.5.92-1.75,1.49-3.7,1.45-5.68-.01-.78-.13-1.58-.54-2.24-.33-.53-.83-.93-1.34-1.3-2.29-1.64-5.01-2.75-7.83-2.8s-5.7,1.05-7.52,3.19c-.71.84-3.84,4.27-4.91,4.51"/>
        <path class="cls-4" d="m292.05,383.34c-5.64,2.43-4.23,13.63,2.89,10.67,1.64-.68,3.31-1.18,5.08-1.38,1-.11,2.18-.4,2.51-1.35.29-.82-.24-1.7-.88-2.29-1.05-.96-2.42-1.47-3.72-2.03-2.16-.94-4.24-2.07-6.19-3.39"/>
        <path class="cls-4" d="m311.55,390.87c1.4-.02,2.81-.05,4.21-.07.94-.02,1.88-.03,2.8.15,3.72.75,6.1,4.61,6.56,8.37.11.86.13,1.74-.08,2.58-.43,1.69-1.83,3.02-3.44,3.7s-3.41.76-5.14.61c-3.67-.31-7.56-1.94-9.17-5.25-.48-.99-.73-2.08-1.16-3.1-.4-.96-.96-1.89-1.09-2.92-.39-3.11,4.25-4.04,6.5-4.07Z"/>
        <path class="cls-4" d="m327.02,338.23c-1.68-.38-3.31-1.3-4.14-2.81-.5-.91-.68-1.95-.85-2.98-.23-1.38-.32-3.1.86-3.86.52-.33,1.16-.38,1.78-.42,1.32-.08,2.71-.15,3.89.44,1.4.7,2.08,2.1,2.88,3.36.73,1.15,2.76,2.65,3.16,3.79,1.26,3.61-5.81,2.87-7.58,2.48Z"/>
        <path class="cls-4" d="m335.67,327.59c-.93-.65-1.88-1.37-2.35-2.4-.23-.51-.33-1.07-.4-1.63-.15-1.16-.21-2.33-.17-3.49.01-.34.03-.68.19-.99.21-.41.63-.67,1.05-.86,1.7-.76,3.65-.75,5.48-.4,1.99.39,4.05,1.31,4.99,3.11.66,1.27.65,2.81.34,4.21s-.91,2.72-1.4,4.07c-.37,1.04-.48,2.09-.03,3.11-2.67-.9-5.37-3.11-7.69-4.74Z"/>
        <path class="cls-4" d="m349.13,330.13l-.97-5.43c-.1-.58-.21-1.18-.52-1.68-.28-.46-.71-.82-1.05-1.25-.8-1.01-1.01-2.36-1.12-3.64-.09-.95-.1-2.02.51-2.75.61-.73,1.68-.91,2.63-.84,2.07.15,4.05,1.24,5.28,2.91.65.89,1.1,1.97,1.02,3.07-.1,1.25-.89,2.38-1.9,3.11s-2.24,1.13-3.47,1.38"/>
        <path class="cls-4" d="m353.49,325.45c.57-2.19,2.07-4.26,4.24-4.89.52-.15,1.06-.21,1.59-.11.57.11,1.1.4,1.59.71,1.11.7,2.15,1.54,2.86,2.64s1.04,2.49.66,3.74c-.51,1.71-2.18,2.79-3.81,3.51-1.52.67-5.51,2.52-6.94,1.14-1.27-1.23-.57-5.28-.2-6.73Z"/>
        <path class="cls-4" d="m349.25,336.5c-.42,1.02-1.11,1.91-1.79,2.78-.53.69-1.07,1.38-1.6,2.06-.15.19-.3.38-.5.5-.25.14-.55.16-.83.16-1.44,0-2.89-.35-4.09-1.14s-2.13-2.04-2.38-3.45c-.06-.35-.06-.75.2-.99.12-.11.28-.17.44-.22,2.01-.69,4.02-1.38,6.04-2.07,2.38-.82,6.12-1.54,4.52,2.37Z"/>
        <path class="cls-4" d="m331.47,347.34c-1.54.93-3.1,1.88-4.35,3.19s-2.16,3.02-2.13,4.82c.02.95.34,1.94,1.07,2.54.69.57,1.64.71,2.53.83,1.16.15,2.34.31,3.48.06,2.5-.55,4.16-2.85,5.6-4.97s3.12-4.41,5.63-4.92c-.42-.96-1.71-1.05-2.76-1.09-3.48-.14-5.93-2.36-9.07-.45Z"/>
        <path class="cls-4" d="m345.47,349.3c-2.47,2.27-3.94,5.58-3.98,8.93,0,.73.05,1.47.27,2.17.66,2.15,2.89,3.68,5.14,3.6,2.25-.08,4.33-1.74,4.99-3.89.34-1.1.33-2.28.15-3.42-.34-2.2-1.32-4.3-2.78-5.98-.94-1.09-2.09-2.01-2.82-3.25-.94-1.58-1.11-3.48-1.25-5.32"/>
        <path class="cls-4" d="m351.45,340.6c-.16.7-.32,1.4-.48,2.1-.04.18-.08.38.01.54.07.13.21.2.34.27,1.45.75,2.9,1.5,4.35,2.24.83.43,1.67.86,2.57,1.12.85.24,1.75.32,2.63.24,6.3-.61,4.38-6.7.45-9.12-3.2-1.96-8.93-1.46-9.86,2.61Z"/>
        <path class="cls-4" d="m357.32,360.53c.97,1.65,2.84,2.93,4.73,2.6.39-.07.77-.2,1.08-.45.31-.25.52-.59.73-.92.7-1.13,1.42-2.3,1.56-3.62.14-1.27-.27-2.53-.78-3.71-.4-.93-.91-1.89-1.79-2.4-1.84-1.05-5.86-1.98-6.88.38s.34,6.12,1.34,8.12Z"/>
        <path class="cls-4" d="m394.47,309.69c1-1.35,1.36-3.05,1.7-4.69.31-1.49.59-3.14-.14-4.47-.73-1.34-2.3-1.99-3.8-2.28-1.94-.38-4.05-.29-5.77.68s-2.93,2.99-2.57,4.93c.26,1.41,1.26,2.56,2.28,3.56,2.33,2.27,5.47,6.08,8.3,2.26Z"/>
        <path class="cls-4" d="m381.22,321.7c.96-.42,1.9-.74,2.72-.74,3.6-.02,2.15,3.85,1.16,6.17-.89,2.1-1.31,4.39-1.22,6.67.04.85.14,1.75-.21,2.53-.34.78-1.06,1.32-1.78,1.79-2.3,1.53-5,2.81-7.74,2.42-8.74-1.24-9.39-13.3-1.43-16.03,1.46-.5,3.04-.7,4.53-1.11,1.17-.32,2.59-1.11,3.96-1.71Z"/>
        <path class="cls-4" d="m377.72,311.52c-1.59-.98-3.58-.95-5.44-.89-.69.02-1.41.06-2.01.4-1.21.7-1.41,2.34-1.43,3.73-.03,1.9.15,4.07,1.67,5.21.88.66,2.03.82,3.13.88,1.34.07,2.75,0,3.92-.65,2.84-1.59,2.9-6.99.16-8.68Z"/>
        <path class="cls-4" d="m390.15,325.33c-.31.85-.41,1.75-.63,2.63-.5,1.92-1.6,3.62-2.39,5.44s-1.28,3.94-.5,5.76c.72,1.68,2.47,2.8,4.29,2.98s3.66-.53,5.05-1.7c2.2-1.86,3.32-4.91,2.83-7.75-.49-2.88-2.41-5.12-3.81-7.58-.38-.66-1.17-3.12-1.99-3.18-1.05-.07-2.55,2.64-2.83,3.41Z"/>
        <path class="cls-2" d="m397.25,317.27c-.21-2,1.34-3.85,3.18-4.66s3.93-.8,5.94-.78c2.51.03,4.52,3.48,7.03,3.51"/>
        <path class="cls-4" d="m414.09,318.06c.41,2.51-1.18,5.04-3.35,6.37s-4.81,1.65-7.36,1.62c-2.09-.02-4.23-.27-6.1-1.21-.51-.26-1.01-.58-1.31-1.07-.32-.53-.19-1.21-.37-1.81-2.46-7.91,11.44-16.45,16.95-4.04"/>
        <path class="cls-4" d="m429.76,304.15c1.92-.31,3.33-3.56,2.66-5.38s-2.56-2.97-4.47-3.36c-1.19-.24-2.53-.2-3.47.57-1.07.87-1.29,2.38-1.44,3.75-.04.39-.08.82.12,1.16.17.29.48.47.78.61,1.54.74,4.15,2.94,5.83,2.64"/>
        <path class="cls-4" d="m438.3,295.17c.12-.95.35-1.98,1.12-2.54.64-.46,1.5-.46,2.29-.45.89.02,1.79.04,2.68.06.25,0,.5.01.71.14.26.16.38.47.47.77.8,2.67-.17,8.23-3.3,9.32-4.04,1.4-4.3-4.74-3.97-7.3Z"/>
        <path class="cls-3" d="m431.48,304.15c.75-.42,3.71.54,4.21,1.25,1.07,1.52-.45,4.2,1.09,5.26"/>
        <path class="cls-4" d="m455.18,326c-2.03-2.63-2.83-6.23.95-6.92,2.02-.37,6.3-.41,7.86,1.25,4.06,4.34-4.96,10.68-8.81,5.66Z"/>
        <path class="cls-4" d="m475.55,299.72c.06.1.12.19.19.28.3.4.67.76,1.11,1,.96.52,2.16.44,3.16,0s1.82-1.21,2.53-2.03c2.03-2.35.36-6.4-2.6-7.15-4.08-1.03-6.28,4.9-4.39,7.9Z"/>
        <path class="cls-4" d="m481.07,304.43c-2.19-1.18-5.28-.13-6.29,2.14-.1.23-.19.48-.14.72.06.34.34.58.61.79,1.08.81,2.31,1.41,3.61,1.76.61.16,1.35.24,1.81-.2.28-.27.38-.68.47-1.07.16-.71.32-1.41.48-2.12.09-.41.18-.86.01-1.25s-.72-.63-1.03-.35"/>
        <path class="cls-4" d="m464.19,314.48c.84-.67.86-4.6.44-5.59s-1.3-1.72-2.22-2.28-1.92-.99-2.8-1.62c-2.58-1.82-3.85-5.2-3.44-8.33.05-.35.11-.7.28-1.01.49-.92,1.75-1.2,2.73-.85s1.72,1.16,2.31,2.01c.92,1.32,1.62,2.82,1.81,4.42s-.18,3.29-1.19,4.55"/>
        <path class="cls-4" d="m467.33,300.32c.56-.65,1.12-1.29,1.67-1.94.54-.63,1.09-1.27,1.42-2.03.42-.97.43-2.06.45-3.12.02-1.38,0-2.88-.87-3.96-.64-.8-1.67-1.24-2.7-1.25s-2.03.4-2.83,1.03c-.72.57-1.31,1.33-1.6,2.2-.52,1.56-.08,3.27.52,4.8.59,1.52.98,3.04,1.47,4.57s1.67.61,2.47-.31Z"/>
        <path class="cls-4" d="m513.19,353.44c.91-1.72,1.37-3.64,1.8-5.53.29-1.25.57-2.53.43-3.8s-.8-2.56-1.95-3.13c-1.2-.59-2.63-.29-3.92.06-2.65.72-5.48,1.79-6.82,4.19-.93,1.67-.95,3.67-.94,5.58,0,2.44,1.02,6.01,3.7,6.81,3.16.94,6.32-1.56,7.69-4.17Z"/>
        <path class="cls-4" d="m509.25,362.57c-1.56.79-2.57,2.5-2.67,4.25s.64,3.49,1.85,4.76c.41.43.87.81,1.41,1.05.62.28,1.31.37,1.99.37,1.81,0,3.63-.6,5.07-1.69.47-.36.92-.78,1.2-1.3.46-.86.44-1.88.41-2.85-.03-1.01-.12-2.15-.89-2.82-2.15-1.86-5.64-3.15-8.36-1.77Z"/>
        <path class="cls-4" d="m528.1,355.28c-.16.12-.3.23-.43.34-1.45,1.19-6.98,3.84-8.7,2.11-.96-.44-1.66-1.38-1.82-2.42-.27-1.77,1.03-3.49,2.63-4.29s3.46-.89,5.25-.96c2.97-.12,5.94-.25,8.9-.37.2,0-2.56,3.13-2.81,3.35-.95.83-1.87,1.47-2.32,2.69-.84,2.3-1.13,6.19,2,6.17,1.61,0,3.23-.02,4.84-.03.75,0,1.53-.02,2.17-.42.5-.31.84-.82,1.16-1.32.48-.75.97-1.54,1.02-2.43.09-1.49-1.44-2.46-2.05-3.82-1.46-3.25-5.95-.83-6.62-1.53"/>
        <path class="cls-4" d="m555.7,350.87c1.05-1.16,1.62-2.71,1.79-4.27.02-.21.03-.43-.08-.6-.1-.15-.28-.22-.45-.29-2.61-.95-8.57-.18-8.85,3.49-.31,4.06,5.6,3.86,7.59,1.66Z"/>
        <path class="cls-4" d="m532.95,369.34c-.3.24-.6.5-.74.86-.09.21-.11.45-.13.68-.14,1.56-.18,3.13-.14,4.69.01.54.07,1.14.47,1.48.25.21.59.29.91.33,2.99.39,6.11-1.73,6.84-4.65.19-.78.23-1.63-.12-2.35-.21-.44-.55-.8-.89-1.16-.77-.82-1.83-2.54-2.93-2.43-.88.09-2.58,1.98-3.27,2.55Z"/>
        <path class="cls-4" d="m547.06,374.83c1.27.65,2.91.11,3.87-.95s1.35-2.51,1.53-3.93c.36-2.96-3.6-9.02-6.9-6.01-2.41,2.2-1.28,9.47,1.51,10.89Z"/>
        <path class="cls-4" d="m563.06,364.8c.37.54.7,1.13,1.19,1.57,1.06.96,2.62,1.05,4.05,1.08,1.14.02,2.41,0,3.22-.81,1.36-1.34,1.3-5.22.27-6.74s-4.11-2.7-5.98-2.73c-1.71-.03-5.87.98-6.79,2.56-1.01,1.74,2.93,3.46,4.04,5.07Z"/>
        <path class="cls-4" d="m548.29,386.78c.83.38,1.77.7,2.64.43,1.49-.45,2-2.25,2.28-3.78.5-2.74-3.34-4.98-5.8-3.81-3.58,1.71-1.96,5.91.88,7.15Z"/>
        <path class="cls-4" d="m528.22,386.73c-.35.68-.37,1.48-.39,2.25-.02.75-.02,1.54.31,2.21.37.74,1.1,1.23,1.82,1.63,2.68,1.5,5.75,2.3,8.83,2.31.84,0,1.73-.07,2.45-.51,3.76-2.31-.54-7.41-3.02-8.74-2.4-1.29-8.49-2.08-9.99.85Z"/>
        <path class="cls-4" d="m601.85,341.22c.11.59.31,1.18.7,1.63.31.35.74.59,1.17.79,5.93,2.64,13.74-4.87,10.05-10.84-4.02-6.49-12.95,2.97-11.92,8.42Z"/>
        <path class="cls-1" d="m616.53,344.61c-.78-.03-5.36.06-6.03.44-2.11,1.21-2.12,4.21-1.86,6.63.05.47.1.95.34,1.35.47.81,1.49,1.08,2.4,1.28,2.61.57,5.71,1.02,7.64-.83,1.36-1.3,1.66-3.32,1.88-5.18.05-.44.09-.92-.15-1.29-.42-.64-1.35-.57-2.09-.77-1.59-.43-2.39-2.4-1.98-3.99s1.71-2.82,3.11-3.69,2.96-1.47,4.34-2.36"/>
        <path class="cls-4" d="m650.33,339.97c1.69,2.12,2.51,4.87,2.51,7.58,0,1.35-.23,2.76-1.04,3.83-.8,1.05-2.07,1.65-3.36,1.89s-2.62.16-3.93.09c-.41-.02-.85-.06-1.19-.29-.31-.21-.49-.56-.65-.9-.7-1.5-1.13-3.1-1.56-4.7-.59-2.23-1.25-4.45-1.78-6.69-.32-1.34-.48-2.54.71-3.47,3.18-2.49,8.15-.03,10.31,2.67Z"/>
        <path class="cls-4" d="m638.28,313.94c.03,1.23.21,2.67,1.27,3.29.38.22.81.3,1.25.36,5.3.68,10.87-2.38,13.13-7.22.35-.75.63-1.56.55-2.38-.23-2.43-2.97-4.01-4.88-5.03-2.03-1.09-3.43-1.28-5.64-.46-4.94,1.84-5.8,6.72-5.68,11.45Z"/>
        <path class="cls-4" d="m620.64,308.79c.03-1.99-.06-4.24-1.55-5.56-1.22-1.07-3.02-1.17-4.62-.92-1.64.26-3.27.83-4.54,1.91-1.27,1.08-2.12,2.71-2.01,4.37.08,1.22.67,2.35,1.38,3.34.53.74,1.16,1.43,1.97,1.85.83.42,1.79.51,2.69.78,1.53.46,4.96,3.34,6.25,1.56,1.11-1.54.4-5.54.42-7.33Z"/>
        <path class="cls-4" d="m614.44,317.02c-1.15.27-2.12,1.21-2.43,2.36-.06.22-.09.46,0,.67.11.24.36.39.58.52,2.07,1.25,3.51,3.49,3.79,5.89.14,1.2.02,2.49.57,3.57,1.09,2.13,4.32,2.56,5.21,4.79.26.64.28,1.35.51,2,.51,1.42,2.01,2.3,3.51,2.47s3-.26,4.41-.8c.62-.24,1.29-.5,1.94-.35.39.1.73.34,1.09.51,1.4.69,3.24.32,4.28-.86,1.07-1.22,1.19-3,1.03-4.61s-.54-3.24-.29-4.84c.26-1.66,1.21-3.25,1-4.92-.3-2.42-2.8-3.88-5.12-4.63-2.31-.75-4.91-1.29-6.44-3.18-.34-.42-.61-.89-1.01-1.24-1.27-1.11-3.24-.62-4.78.07"/>
        <path class="cls-4" d="m651.54,436.96c-.39.81-.78,1.61-1.17,2.42-.65,1.34-1.31,2.91-.71,4.28.33.76,1.03,1.36,1.14,2.18.17,1.26-1.13,2.43-.81,3.66.15.56.6.98,1.06,1.34,1.15.89,2.45,1.59,3.83,2.06,1.52.52,3.26.73,4.68-.02,1.48-.78,2.28-2.44,2.72-4.05,1.1-4.08-.24-7.86-2.51-11.28-1.84-2.76-6.52-4.14-8.24-.58Z"/>
        <path class="cls-4" d="m676.08,441.72c-.24.77-.49,1.56-.43,2.37.08,1.03.64,1.95,1.3,2.74,1.25,1.5,3.01,2.71,4.96,2.72,1.83,0,3.55-1.08,4.65-2.55s1.67-3.27,2.02-5.07c.84-4.34-2.61-5.18-6.1-6.2-4.11-1.2-4.98,3.14-6.4,5.99Z"/>
        <path class="cls-4" d="m646.69,437.01l-4-2.52c-1.09-.68-2.28-1.39-3.56-1.27-1.07.1-1.99.77-2.84,1.44-.8.63-1.62,1.33-2,2.28-.8,1.97.51,4.23.06,6.31-.29,1.32-1.29,2.56-.98,3.88.16.68.65,1.23,1.21,1.65,2.32,1.72,5.68,1.21,8.19-.23,1-.58,1.94-1.31,2.52-2.31,1.06-1.82.72-4.1.62-6.2-.02-.36-.02-.74.09-1.08.23-.72.95-1.2,1.69-1.37s1.51-.08,2.26.01"/>
        <path class="cls-4" d="m701.2,436.32c-.32,1.05-.63,2.09-.95,3.14-.23.77-.47,1.56-.45,2.36.03,1.81,1.37,3.41,2.99,4.22s3.49.97,5.3.99c.93.01,1.88-.02,2.74-.35,1.52-.6,2.53-2.05,3.28-3.5,1.7-3.27,2.62-7.11,1.69-10.68-.17-.65-.43-1.33-1-1.69-.4-.25-.89-.29-1.37-.33-2.32-.19-6.07-1.26-8.29-.32s-3.31,4.05-3.95,6.16Z"/>
        <path class="cls-4" d="m703.36,411.68c.52-.39.9-.96,1.45-1.3,1.13-.69,2.68-.2,3.58.77s1.28,2.3,1.6,3.58c.23.93.47,1.92,1.18,2.56.58.53,1.4.73,1.97,1.27,2.95,2.79-2.13,6.33-4.36,7.17-2.49.94-5.55,1.34-8.15.61-5.15-1.45-7.1-7.72-5.97-12.57,1.06-4.55,5.88-.02,8.7-2.1Z"/>
        <path class="cls-4" d="m710.11,395.56c1.52.09,3.13.46,4.17,1.57,3.22,3.43,2.51,13.36-3.77,9.88-3.78-2.1-7.25-11.86-.41-11.45Z"/>
        <path class="cls-4" d="m732.72,409.16c5.35.26,12.31-2.07,16.34-5.6.37-.33.74-.68,1-1.1.31-.53.43-1.15.5-1.76.45-4.23-1.55-8.64-5.05-11.08-1.74-1.22-3.97-1.96-6.01-1.37-1.87.54-3.28,2.09-4.35,3.72-1.96,2.97-3.51,6.79-3.26,10.4s.79,6.19-2.63,8.48c-1.33.9-2.86,1.46-4.36,2.02-2.06.77-4.53,2.66-5.84.34-1.17-2.09-1.2-5.56-1.2-7.88.14-3.16,1.44-6.43,4.09-8.16.58-.38,1.24-.68,1.93-.73,1.38-.08,2.65.89,3.32,2.1s.87,2.61,1.05,3.98c.94-.39,2.07-.13,2.86.52"/>
        <path class="cls-4" d="m718.48,428.74c1.8-1.4,4-2.29,6.28-2.54,1.36-.15,2.87-.02,3.87.91,1.07,1,1.25,2.6,1.37,4.05.24,2.92.47,5.85.71,8.77.04.47.06.97-.21,1.35-.3.42-.87.54-1.38.6-3.03.34-6.18-.44-8.7-2.15-.55-.37-1.08-.8-1.42-1.37-.71-1.17-3.49-6.83-.04-10.28"/>
        <path class="cls-4" d="m713.79,428.09c.23-1.66,0-6.89,4.07-9.13,1.46-.81,3.16-1.13,4.83-1.04.2.01.41.03.56.16.12.09.19.23.24.37.91,2.24-.4,4.84-2.25,6.39s-5.42,1.94-7.45,3.25"/>
        <path class="cls-4" d="m732.72,434.98c-3.93-1.39-1.11-9.32,4.89-7.89,1.39.33,3.03.38,3.73,1.62.82,1.46-.03,3.33-1.23,4.51-1.67,1.65-4.04,2.57-6.39,2.49-.31-.01-.7-.11-.75-.41"/>
        <path class="cls-4" d="m741.33,426.37c-3.73,3.67-19.62-2.15-16.02-8.69.85-1.54,1.41-3.31,2.88-4.29,1.55-1.03,3.49-1.26,5.36-1.35.14,0,.29,0,.41.06.12.07.19.21.24.35.43,1.16-.05,2.46-.68,3.52s-1.45,2.04-1.79,3.23c1.48,0,2.97.01,4.45.02.9,0,1.83.02,2.62.44.93.49,1.51,1.49,1.75,2.51s.19,2.09.13,3.14"/>
        <path class="cls-4" d="m741.42,365.37c-.92.26-1.7.85-2.45,1.43-1.08.82-2.17,1.66-2.93,2.79-.59.87-.94,1.89-1.15,2.92-.86,4.28,1.01,8.99,4.58,11.51,2.72,1.92,6.73,2.45,9.3.31.95-.79,1.62-1.87,2.16-2.98,1.89-3.95,2.36-9.3.64-13.42-1.47-3.53-6.93-3.48-10.14-2.56Z"/>
        <path class="cls-4" d="m699.15,303.29c1.16.2,4.54,2.86,5.36,3.7.29.29.55.63.64,1.03.1.49-.07,1-.32,1.44-1.3,2.34-4.24,3.21-6.01,5.22-1.65,1.88-2.1,4.64-1.47,7.06s2.2,4.52,4.12,6.13c.46.38.98.76,1.57.8.7.05,1.34-.37,1.92-.76,1.32-.91,2.75-1.96,3.11-3.53.23-1-.02-2.05-.34-3.03-1.34-4.14-1.85-7.74-2.56-12.03"/>
        <path class="cls-4" d="m711.74,333.53c.67,1.01,1.74,1.83,2.94,1.89,1.29.06,2.49-.77,3.27-1.8,1.09-1.43,1.57-3.32,1.29-5.09-.41-2.59-2.21-4.61-3.26-6.93-.69-1.53-.81-5.66-2.88-2.95-1.32,1.73-1.8,5.66-2.2,7.81-.44,2.37-.56,4.97.84,7.07Z"/>
        <path class="cls-4" d="m720.98,328.09c-.03.46-.04.93.14,1.35.2.47.6.81.98,1.13,1.49,1.24,3.01,2.51,4.83,3.18s4.01.66,5.54-.53c1.8-1.4,2.19-3.92,2.44-6.19.19-1.67.23-3.69-1.15-4.67-.83-.59-1.94-.59-2.96-.56-1.36.04-2.8.23-4.15.11-1.03-.09-2.59-1.25-3.42-1.19-1.92.14-2.16,5.7-2.26,7.37Z"/>
        <path class="cls-4" d="m738.89,325.16c1.46,1.8,4.16,2.37,6.32,1.52s3.7-2.95,4.11-5.23c.11-.61.15-1.25,0-1.86-.14-.55-.43-1.05-.76-1.52-1.35-1.93-3.34-3.39-5.57-4.14-1.61-.54-5.48-1.4-6.89-.08s-.21,3.46.29,4.82c.77,2.1,1.07,4.71,2.5,6.49Z"/>
        <path class="cls-4" d="m683.64,301.58c-1.99-.21-4-.99-5.28-2.53-1.11-1.33-1.56-3.08-1.92-4.77-.11-.52-.22-1.08-.04-1.59.17-.48.56-.84.97-1.13,2.22-1.56,5.15-1.56,7.86-1.5,1.82.04,3.81.15,5.15,1.38,1.5,1.38,3.14,5.97,2.28,7.98-1.1,2.58-6.72,2.38-9.02,2.14Z"/>
        <path class="cls-4" d="m688.06,285.04c-.71-1.36-1.19-2.91-.97-4.42.28-1.91,1.73-3.61,3.58-4.17,1.29-.39,2.84-.2,3.78.77.5.51.79,1.19,1.02,1.87.73,2.06,1.05,4.21,1.04,6.39,0,.99.58,4.65-.29,5.4-2.25,1.92-7.32-4.23-8.16-5.83Z"/>
        <path class="cls-4" d="m698.59,287.35c.01-1.43.45-2.9,1.43-3.94s2.56-1.57,3.91-1.1c1.71.6,2.58,2.53,2.83,4.33.41,2.95-1.34,5.53-4.26,6.38-3.26.94-3.93-3.13-3.91-5.67Z"/>
        <path class="cls-4" d="m713.41,279.83c1.48-1.16,3.64-.86,5.37-.11.74.32,1.47.73,1.95,1.38,2.49,3.37.68,11.75-4.63,10.38-4.28-1.11-6.25-8.84-2.69-11.65Z"/>
        <path class="cls-4" d="m722.1,297.32c-.42-1.17-.86-2.4-.7-3.64s1.1-2.47,2.34-2.51c1.04-.03,2.23.7,3.02.03.53-.45.49-1.25.62-1.93.35-1.95,2.28-3.31,4.24-3.59,4.02-.56,7.99,3.15,7.98,7.21,0,1.11-.3,2.29-1.14,3.02-1.37,1.18-3.46.67-5.22,1.06-2.06.46-3.86,2.22-5.95,1.93-1-.14-1.88-.75-2.88-.92-1.25-.21-2.52.29-3.63.91-4.06,2.25-7.15,6.17-8.39,10.64.37-1.8,1.79-3.33,3.31-4.37s3.32-1.6,5.12-1.95c.88-.17,1.78-.29,2.68-.24,1.46.08,2.86.6,4.15,1.29.91.48,1.79,1.08,2.35,1.94,1.05,1.63.67,3.78-.03,5.58-.57,1.49-1.39,2.98-2.72,3.86-1.16.76-2.6.99-3.99.97-4.1-.05-11.39-4.81-13.77-8.16"/>
        <path class="cls-7" d="m706.41,309.49c.42.19.85-.22,1.09-.61.68-1.13.91-2.47,1.12-3.77.25-1.58.43-3.38-.6-4.6-.83-.99-2.24-1.32-3.11-2.27-1.12-1.23-1.02-3.11-.85-4.76"/>
        <path class="cls-4" d="m706.04,282.64c.69-2.81,1.15-8.17-.52-10.53-.28-.4-.59-.78-.74-1.25-.16-.5-.11-1.05-.06-1.58.16-1.66.28-3.38-.3-4.95s-2.05-2.92-3.71-2.82c-1.21.07-2.26.87-3.09,1.76-.48.51-.93,1.07-1.27,1.69-1.39,2.52-.87,5.74.58,8.22,1.45,2.48,3.69,4.38,5.89,6.23"/>
        <path class="cls-4" d="m708.27,260.21c-.06-.96-.06-2.03.6-2.74.63-.68,1.65-.79,2.57-.83,1.05-.05,2.11-.09,3.16-.11.73-.01,1.47-.01,2.16.21.69.23,1.3.67,1.84,1.15,1.19,1.06,2.16,2.41,2.57,3.96,1.03,3.95-3.39,8.19-7.2,8.62-4.82.54-5.51-6.96-5.7-10.26Z"/>
        <path class="cls-4" d="m724.11,283.5c-2.96,1.25-8.71-7.24-6.85-9.62.64-.83.88-2.03,1.9-2.3.45-.12.93-.09,1.4-.17,1.19-.2,2.12-1.08,3.11-1.77.42-.29.88-.55,1.38-.57.99-.04,1.76.86,2.19,1.76.65,1.38.87,2.92.96,4.44.06.93.08,1.89-.23,2.78-.45,1.33-1.6,2.68-.98,3.94.18.36.49.65.69,1s.24.86-.07,1.12c-.15.13-.36.17-.56.2-.91.14-1.84.17-2.76.1"/>
        <path class="cls-4" d="m646.36,228.65c-.57.08-1.19.18-1.6.59-.9.9-.09,2.49.99,3.19s2.43,1.07,3.14,2.13c1.04,1.58.02,3.76-1.44,4.98-3.56,2.96-9.6,2.14-12.23-1.67s-1.26-9.75,2.77-12.03c.51-.29,1.07-.53,1.49-.94.71-.68.95-1.69,1.16-2.65.53-2.41,1.05-4.82,1.58-7.23.63-2.9,1.78-6.34,4.68-6.97,1.56-.34,3.17.31,4.48,1.22,2.05,1.43,3.61,3.55,4.36,5.93.71,2.25.77,4.81,2.25,6.64,2.08,2.57,5.89,2.56,9.19,2.74,3.01.16,6.15.71,8.54,2.56,2.39,1.85,3.73,5.31,2.37,8-.91,1.79-2.9,2.93-4.91,2.96s-3.97-.98-5.24-2.54c-.88-1.08-1.44-2.38-2.25-3.5-4.59-6.38-12.87-4.27-19.33-3.39Z"/>
        <path class="cls-4" d="m635.28,215.25c.3-1.09.49-2.5-.46-3.11-.68-.44-1.6-.18-2.33.16-3.21,1.5-9.44,7.32-5.06,10.63,5.53,4.19,6.88-4.18,7.86-7.68Z"/>
        <path class="cls-4" d="m618.58,214.11c-.06-.47-.13-.96-.32-1.4-.57-1.33-2.24-1.98-3.65-1.67s-2.57,1.4-3.28,2.67c-.88,1.57-1.14,3.63-.13,5.11.4.59.97,1.05,1.56,1.46,1.32.91,2.79,1.6,4.33,2.04.21.06.44.12.65.05,2.63-.86,1.07-6.52.83-8.26Z"/>
        <path class="cls-4" d="m610.05,221.19c-.16-.58-.36-1.2-.86-1.54-.34-.23-.76-.28-1.17-.31-3.58-.22-7.22,1.59-9.21,4.58-.44.66-.81,1.42-.69,2.2.14.9.91,1.57,1.66,2.09,2.62,1.81,7.59,4.04,10.88,3.11,2.23-.63,1.95-.82,1.37-3.17s-1.33-4.65-1.99-6.97Z"/>
        <path class="cls-4" d="m604.22,237.02c-1.04.48-2.02,1.16-2.66,2.11s-.91,2.2-.5,3.27c.72,1.89,3.07,2.5,5.09,2.59.96.05,1.96.03,2.86-.32,1.43-.57,2.44-1.96,2.78-3.46,1.25-5.5-3.55-6.06-7.57-4.18Z"/>
        <path class="cls-4" d="m617.18,244.54c-.73,1.29-1.13,2.77-2.08,3.91-1.23,1.47-3.42,2.53-3.35,4.45.03.86.56,1.62,1.1,2.29.99,1.23,2.31,2.47,3.89,2.34,1.09-.1,2.03-.88,2.6-1.81s.83-2.02,1.09-3.09c.46-1.92.92-3.86.94-5.83.04-3.38-1.73-6.59-4.19-2.24Z"/>
        <path class="cls-4" d="m624.4,256.19c0,.84.06,1.76.61,2.4.32.37.77.6,1.21.79,1.45.62,3.03.95,4.61.95.65,0,1.33-.06,1.9-.38,2.24-1.26,1.14-5.08,3-6.85,1.27-1.21,3.41-.94,4.82-1.99,1.1-.82,1.53-2.32,1.32-3.68s-.98-2.56-1.9-3.57c-.78-.86-1.7-1.62-2.76-2.08-3.27-1.43-8.05.32-10.51,2.78-2.66,2.66-2.34,8.18-2.32,11.65Z"/>
        <path class="cls-7" d="m618.79,224.31c1.19,1.2,1.63,3.09,1.09,4.69"/>
        <path class="cls-7" d="m625.12,224.12c-.07-.29-.51-.34-.74-.14s-.29.52-.33.81c-.14.99-.19,2-.14,3"/>
        <path class="cls-4" d="m618.01,238.37c.07.59.2,1.23.63,1.64.26.25.61.4.95.53.26.1.53.21.79.31,1.66.64,3.52-.36,3.91-2.09.21-.92.4-1.84.59-2.77.5-2.45,1.01-4.89,1.51-7.34.12-.6-5.99.86-6.73,1.5-2,1.72-1.93,5.84-1.64,8.22Z"/>
        <path class="cls-4" d="m528.96,244.16c.72,1.16,2.13,1.68,3.13,2.6,2.16,1.98,1.85,5.99-.59,7.61-.53.35-1.14.61-1.59,1.05-1.21,1.19-.91,3.16-.74,4.85.23,2.43-.09,5.07-1.67,6.94s-4.67,2.56-6.51.96c-1.05-.92-1.5-2.34-1.74-3.71-.34-1.99-.29-4.18.89-5.82.69-.95,1.69-1.62,2.51-2.47,1.8-1.85,2.63-4.5,2.69-7.09s-.6-5.14-1.42-7.59c-.45-1.34-.96-2.7-.87-4.11.18-2.79,4.53-6.37,7.08-3.84,2.8,2.78-3.3,7.18-1.18,10.61Z"/>
        <path class="cls-4" d="m509.73,242.39c-2.35,1.15-4.14,3.25-5.37,5.56-.39.72-.75,1.5-1.39,2.01-.42.33-.94.54-1.31.93-1.08,1.15-.23,3.07.92,4.15,1.89,1.79,4.53,2.76,7.13,2.63s5.12-1.36,6.83-3.33c.99-1.14,1.7-2.5,2.39-3.84.51-.99,1.03-1.98,1.54-2.97,3.87-7.44-6.09-7.42-10.73-5.14Z"/>
        <path class="cls-4" d="m500.87,242.35c-2.08.52-4.29.66-6.34.03s-3.9-2.08-4.67-4.08-.27-4.51,1.41-5.82c.62-.48,1.35-.79,2.08-1.06,3.02-1.13,6.37-1.74,9.47-.85,2.54.74,6.41,3.66,5.94,6.76s-5.47,4.42-7.89,5.02Z"/>
        <path class="cls-4" d="m508.51,223.14c0-.66.02-1.34.26-1.96.26-.66.73-1.21,1.2-1.74.89-1.02,1.91-2.1,3.25-2.28,1.09-.14,2.25.42,2.8,1.38s.48,2.23-.18,3.12c-.41.54-1.04.99-1.1,1.67-.06.6.36,1.14.81,1.53,2.26,1.96,4.31,2.52,4.48,5.9.1,1.9-.39,5.2-2.58,5.86-5.74,1.73-8.92-9.8-8.95-13.49Z"/>
        <path class="cls-4" d="m519.52,220.85c-.02-.96.31-1.92.09-2.85-.14-.58-.48-1.09-.71-1.65-.52-1.22-.52-2.58-.51-3.9,0-.47.01-.96.22-1.38.4-.81,1.39-1.13,2.29-1.16,2.37-.08,4.58,1.25,6.33,2.84.9.82,1.76,1.79,2.01,2.98.42,1.97-.93,4.05-.34,5.98.27.89.93,1.63,1.1,2.54.67,3.48-2.23,5.52-5.01,3.8-2.14-1.33-5.48-4.5-5.48-7.21Z"/>
        <path class="cls-4" d="m534.45,219.94c-.01-.56-.03-1.12-.17-1.65-.42-1.59-1.87-2.68-2.67-4.11-.93-1.67-.94-3.68-.93-5.59,0-.63.02-1.31.38-1.83.62-.9,1.95-.92,2.99-.63,2.18.61,4.05,2.22,4.97,4.29s.89,4.53-.1,6.57c-.23.48-.52.97-.51,1.5.03.95.97,1.56,1.69,2.19,2.78,2.46,2.84,8.92-1.59,9.71-5.31.95-4-7.49-4.07-10.44Z"/>
        <path class="cls-4" d="m358.28,410.72c-1.03.09-2.08.23-3.01.66-1.22.57-2.17,1.6-2.91,2.72-2.93,4.45-2.81,10.52-.34,15.25s7.01,8.16,11.99,10.05c2.12.8,4.39,1.35,6.64,1.06,3.71-.48,6.83-3.25,8.56-6.57,9.25-17.78-5.21-24.53-20.93-23.17Z"/>
        <path class="cls-4" d="m636.25,146.09c-2.81,3.54-1.92,8.69-.41,12.94,1.44,4.04,3.68,8.26,7.67,9.83,3.12,1.23,6.81.59,9.78,2.15,2.48,1.3,4,3.89,5.13,6.45,1.13,2.56,2.05,5.29,3.87,7.43s4.86,3.55,7.46,2.5c2.97-1.2,3.99-4.85,4.26-8.04.08-.96.12-1.96-.28-2.84-.4-.87-1.18-1.5-1.95-2.07-4.06-3.03-8.83-5.82-10.81-10.73-1.86-4.62-1.61-9.79-4.22-14.24-3.6-6.16-15.47-9.73-20.5-3.38Z"/>
        <path class="cls-1" d="m576.97,150.38c.54,2.25.94,5-.78,6.55-.54.48-1.23.77-1.81,1.21-1.15.86-1.81,2.23-2.21,3.61-.93,3.19-.62,6.82,1.24,9.57s5.4,4.41,8.63,3.66c2.25-4.28,3.15-9.26,2.56-14.06-.05-.43-.14-.9-.46-1.19-.33-.29-.8-.31-1.23-.35-2.59-.23-5.08-1.46-6.84-3.37"/>
        <path class="cls-1" d="m568.52,145.98l-3.88,5.28c-.33.45-.69.92-1.2,1.16-.51.23-1.1.19-1.65.25-2.81.29-4.73,3.1-5.37,5.86-.53,2.3-.24,5.16,1.78,6.38,1.97,1.2,4.7.14,6.02-1.75s1.5-4.34,1.38-6.64c-.08-1.47-.85-3.4-2.29-3.11"/>
        <path class="cls-1" d="m552.96,138.52c-2.89-.48-5.81,2.19-5.75,5.11s2.94,5.43,5.86,5.24c2.74-.17,5.01-2.3,6.38-4.69.31-.55.6-1.14.59-1.77-.01-1.03-.83-1.9-1.78-2.3s-2-.42-3.03-.44"/>
        <path class="cls-1" d="m522.39,152.33c.12.57.3,1.14.68,1.59.86,1.02,2.42,1.05,3.72.77,5.26-1.14,9.33-6.36,9.16-11.74-.1-3.18-7.72-2.93-9.65-1.56-3.08,2.18-4.66,7.43-3.91,10.94Z"/>
        <path class="cls-1" d="m614.81,62.3c-6.12-2.24-15.11-5.78-21.23-8.01-2.32-.85-4.66-1.71-6.73-3.05-3.12-2.02-5.56-5.09-8.98-6.55-1.6-.68-3.37-.99-4.8-1.97-2.82-1.92-3.48-5.71-4.31-9.02-.74-2.99-1.85-5.98-3.92-8.27-2.07-2.29-5.24-3.75-8.26-3.12-3.09.65-5.43,3.38-6.36,6.39s-.68,6.26-.11,9.37c.47,2.58,1.48,5.5,3.96,6.36,1.33.46,2.79.21,4.16-.11,4.21-.98,8.29-2.53,12.1-4.58"/>
        <path class="cls-10" d="m557.23,61.96c.7,1.66,1.81,3.24,3.43,4.02,1.24.59,2.65.67,4.01.74,2.7.14,5.76.15,7.67-1.78,1.42-1.44,1.8-3.61,1.77-5.62-.01-.91-.1-1.83-.43-2.67-1.31-3.27-8.21-9.66-11.89-8.7-5.59,1.46-6.38,9.67-4.56,14.01Z"/>
        <path class="cls-10" d="m587.27,51.97c-1.48-.59-5,2.58-5.53,4.07-.73,2.04-1.3,4.17-1.22,6.33s.9,4.37,2.57,5.75c2.14,1.78,5.16,1.89,7.94,1.91,2.1.02,4.36-.02,6.04-1.28,1.58-1.19,2.26-3.21,2.85-5.1.12-.39.25-.8.16-1.2-.1-.47-.46-.84-.81-1.17-1.45-1.39-1.94-4.48-3.39-5.88"/>
        <path class="cls-10" d="m586.76,21.79c-1.86,2.51-2.48,5.71-2.82,8.81-.21,1.91-.28,4.02.89,5.56.49.64,1.16,1.12,1.88,1.49,2.9,1.45,6.6.85,9.15-1.17s3.96-5.26,4.12-8.5c.09-1.82-.2-3.69-1.1-5.27-2.8-4.91-8.66-5.58-12.12-.92Z"/>
        <path class="cls-5" d="m595.87,19.27c3.65-1.86,10.02-7.96,10.33-12.05"/>
        <path class="cls-7" d="m595.87,19.27c-3.87.13-12.07-4.14-15.64-5.63-3.77-1.57-7.15-4.88-11.2-4.41-2.52.3-4.68,2.06-7.19,2.37-5.24.65-9.22-4.95-14.42-5.88"/>
        <path class="cls-4" d="m506.3,52.61c1.92.86,4.38,1.26,5.97-.12.54-.48.92-1.12,1.24-1.77.54-1.1.94-2.29.94-3.51s-.47-2.48-1.43-3.24c-.48-.38-1.05-.61-1.63-.8-2.23-.7-8.23-.93-9.27,1.97-.34.96.58,3.4.95,4.34.62,1.56,1.72,2.44,3.23,3.11Z"/>
        <path class="cls-4" d="m499.05,28.13c-.39-.43-.95-.67-1.52-.82-1.98-.53-4.21,0-5.73,1.39-1.3,1.18-2.04,2.87-2.37,4.59-.6,3.16.13,6.55,1.99,9.17.07.1.15.21.27.24.14.04.28-.03.41-.1,2.72-1.43,4.71-3.29,6.39-5.87,1.26-1.94,2.3-6.7.56-8.6Z"/>
        <path class="cls-4" d="m488.29,37.34c3.51-.48,8.45-13.73,3.23-15.04-.39-.1-.76-.25-1.16-.28-1.58-.15-3.37-.24-4.56.82-.66.59-1.02,1.45-1.32,2.28-1.19,3.24-1.96,7.02-.24,10.02.58,1.01,2.88,2.06,4.04,2.2"/>
        <path class="cls-4" d="m481.4,25.29c-.68-1.23-1.11-2.84-2.51-2.77-.55.03-1.06.3-1.5.64-2.15,1.63-2.78,4.59-2.86,7.29-.04,1.44-.04,2.95.58,4.25,5.24,11.03,9.3,3,6.29-9.41"/>
        <path class="cls-4" d="m479.68,40.78c1.93-4.42-5.86-12.17-9.84-7.76-.18.2-.55,0-.78.12-.29.15-.47.46-.61.76-1.24,2.71-.26,6.26,2.21,7.94.72.49,1.54.83,2.38,1.1,1.23.4,2.54.66,3.82.48s2.19-1.52,2.83-2.65"/>
        <path class="cls-4" d="m477.96,45.95c.56-4.79-11.85-12.84-13.76-5.77-.4,1.49-1.6,2.94-.9,4.32.43.84,1.3,1.34,2.12,1.8,2.95,1.65,5.99,3.34,9.35,3.71.87.1,1.87.05,2.46-.59.98-1.06.39-2.07.72-3.48"/>
        <path class="cls-4" d="m477.96,51.11c-1.46-.45-7.36.64-8.85,1-1.58.39-2.83,1.67-3.52,3.14s-.87,3.13-.92,4.76c-.06,1.89.11,3.91,1.23,5.44,1.72,2.34,5.35,2.69,7.87,1.24s3.99-4.29,4.48-7.16.14-5.8-.21-8.69c2.83-.71,10.86-.46,13.69.27"/>
        <path class="cls-4" d="m476.24,23.57c-5.16-3.44-8.8-1.36-10.22.09s-2.06,3.9-1.05,5.65c2.66,4.59,7.53,2.6,9.55,2.86"/>
        <path class="cls-4" d="m484.84,21.85c.32,2.46-11.84.05-12.31-6.1-.06-.79-.06-1.6.18-2.35.34-1.06,1.21-1.9,2.21-2.4s2.13-.67,3.25-.71c2.28-.08,4.64.41,6.53,1.7s3.26,3.43,3.32,5.71c.03.93-.18,1.91-.8,2.62-.48.55-1.15.88-1.8,1.2"/>
        <path class="cls-4" d="m492.4,13.02c-.04-1.03,0-2.09.38-3.06.78-2,2.94-3.27,5.09-3.33,2.24-.07,4.43,1.03,5.93,2.69,1.5,1.66,2.35,3.85,2.65,6.07.19,1.4.18,2.85-.29,4.18s-1.44,2.52-2.75,3.04c-1.56.62-3.31.23-4.99.2-.71,0-1.47.09-2.16.33-1.02.37-2.12-.35-2.31-1.42-.51-2.91-1.44-5.65-1.55-8.7Z"/>
        <path class="cls-4" d="m506.66,18.33c.75-2.04,2.64-3.46,4.59-4.4,2.27-1.1,4.77-1.73,7.29-1.84,1.18-.05,2.46.05,3.35.82.69.59,1.02,1.49,1.27,2.36.49,1.71.73,3.48.72,5.26,0,.35-.02.71-.18,1.02-.33.63-1.13.84-1.84.88-3.56.2-6.9-1.07-8.52,3.03-1.07,2.7-1.35,5.73-4.71,6.39-2.25.44-4.45-.58-4.93-2.9-.41-2,.45-3.48,1.31-5.12.95-1.8.96-3.62,1.66-5.5Z"/>
        <path class="cls-4" d="m514.11,25.29c1.41,2.49,2.94,5.18,1.54,7.67,1.29.03,2.58.06,3.87.09.24,0,.49.02.7.14.26.16.37.47.45.76.52,1.93.05,4.09-1.22,5.64s-3.3,2.42-5.3,2.28c-2.5-.17-4.76-1.82-7.26-1.78-1.61.02-3.36.71-4.74-.12-1.03-.62-1.46-1.91-1.54-3.11,0-.01,0-.02,0-.04-.13-2.25,1.52-4.28,3.74-4.68.04,0,.08-.01.12-.02"/>
        <path class="cls-4" d="m521.85,33.68c.79-.6,1.74-1.01,2.74-1.05,1.73-.07,3.36,1,4.34,2.42s1.41,3.15,1.66,4.86c.2,1.37.27,2.86-.41,4.07-.46.82-1.23,1.43-2.03,1.94-2.29,1.48-5.12,1.91-7.7,1.04-5.97-2.03-3.13-14.45,2.26-13.06"/>
        <path class="cls-4" d="m421.1,88.55c.86-2.76-1.17-5.76-3.8-6.97s-5.65-1.08-8.53-.86c-.86.07-1.77.16-2.44.71-.84.69-1.02,1.89-1.15,2.98-.54,4.77-.72,10.46,3.14,13.37,1.44,1.08,3.31,1.5,5.1,1.3,6.36-.71,8.47-7.58,6.11-12.27"/>
        <path class="cls-4" d="m418.49,123.97c-.83,1.76-.81,3.79-.78,5.74.03,1.55.09,3.19.96,4.47,1.45,2.13,4.45,2.35,7.02,2.37,1.99.01,4.18-.05,5.64-1.39,1.08-.98,1.53-2.46,1.83-3.88.87-4.2,1.76-9.77-2.74-11.71-3.79-1.63-10.22.74-11.94,4.4Z"/>
        <path class="cls-4" d="m372.18,119.11c-.95-.84-2.33-.86-3.61-.8-.08,0-.16,0-.24.01-.56.03-1.13.07-1.63.31-.43.21-.73.64-.89,1.09-3.99,10.6,12.62,4.86,6.38-.62Z"/>
        <path class="cls-4" d="m380.26,124c.38-.03.79-.05,1.12.13.34.18.55.54.71.9.66,1.5.66,3.2.64,4.84-.05,4.99-7.22,4.25-9.57,1.18-3.74-4.9,3.61-6.76,7.09-7.05Z"/>
        <path class="cls-4" d="m386.95,128.34c1.53-1.73,3.85-3.29,6.08-1.86,1.05.68,1.68,1.85,1.89,3.08.28,1.65.37,4.01-.98,5.36-.74.75-1.83,1.09-2.79,1.41-1.35.45-2.81.54-4.16.1-5.03-1.62-2.28-5.59-.05-8.09Z"/>
        <path class="cls-4" d="m377.36,148.57c-.46,1.5-1.86,2.6-3.39,2.97s-3.16.09-4.62-.49c-1.1-.44-2.21-1.12-2.65-2.22-.47-1.16-.14-2.62-.94-3.58-.19-.23-.45-.44-.52-.73-.1-.46.31-.85.55-1.26.56-.94.25-2.17.63-3.2.63-1.72,2.81-2.2,4.64-2.33,1.27-.09,2.72-.07,3.59.86,1.01,1.08.78,2.89,1.69,4.05.36-.24.91-.11,1,.31.26,1.3.41,4.34.02,5.61Z"/>
        <path class="cls-4" d="m368.65,136.32c.71-.95-.01-4.41-.59-5.44s-1.55-1.79-2.55-2.42c-1.78-1.13-3.73-1.98-5.78-2.5-.98-.25-2-.4-2.98-.19-2.33.49-3.87,3.02-3.71,5.4.09,1.33.63,2.63,1.5,3.63,1.2,1.37,2.95,2.14,4.74,2.48s3.62.27,5.43.21"/>
        <path class="cls-4" d="m391.9,140.57c.91.88,1.07,2.26,1.13,3.52.02.4.03.81,0,1.22-.04.78-.21,1.53-.69,2.13-.61.77-1.61,1.12-2.57,1.32-12.81,2.79-2.9-13.05,2.12-8.19Z"/>
        <path class="cls-4" d="m387,164.03c.41.59.85,1.18,1.46,1.56s1.42.52,2.04.16c2.73-4.12,2.22-10.37-3.26-11.05-6.17-.77-2.08,6.55-.24,9.32Z"/>
        <path class="cls-4" d="m371.17,161.04c.3,2.32,1.83,4.3,3.49,5.94.31.31.65.62,1.08.73.81.2,1.6-.43,2.08-1.12.77-1.1,1.14-2.44,1.35-3.77.42-2.62-.08-7.85-3.81-7.95-2.68-.07-4.49,3.9-4.2,6.17Z"/>
        <path class="cls-4" d="m356.03,170.87c.49,1.45,2.02,2.77,3.54,2.64,4.41-.36,7.46-8.62,2.28-10.2-4.62-1.41-7.11,3.74-5.82,7.56Z"/>
        <path class="cls-4" d="m355.65,157.06c-.25,1.05-.04,2.39.95,2.8.37.15.78.14,1.17.12,1.97-.09,4.26-.54,5.12-2.32.31-.64.38-1.37.43-2.07.46-6.16-6.76-2.33-7.68,1.47Z"/>
        <path class="cls-4" d="m353.54,148.59c-.59-.03-1.21-.06-1.72-.36-.96-.57-1.18-1.86-1.16-2.98,0-.69.07-1.4.42-2,.81-1.41,2.87-1.58,4.36-.92s2.62,1.91,3.91,2.9c1.41,1.08,3.73,1.57,1.63,3-1.61,1.11-5.59.45-7.43.37Z"/>
        <path class="cls-1" d="m245.67,151.44c.1,2.04.07,4.1-.1,6.14-.06.69-.16,1.45-.66,1.92-.48.46-1.19.53-1.85.63-3.16.48-6.21,2.05-8.2,4.56s-2.84,5.96-1.94,9.03c.62,2.12,2.41,4.18,4.62,4.05.93-.06,1.79-.49,2.62-.93,1.81-.95,3.64-1.96,5.02-3.47,3.22-3.53,3.07-9.61-.33-12.97"/>
        <path class="cls-4" d="m249.17,180.87c1.12,1.37,3.21,1.62,4.61,2.29,2.12,1.02,4.65,1.1,6.57-.27,6.9-4.92.68-13.4-5.41-14.34-6.07-.94-9.42,7.82-5.77,12.32Z"/>
        <path class="cls-4" d="m213.46,95.34c-2.58-.76-5.17-3.16-4.45-5.76.13-.47.4-.94.84-1.16.33-.16.71-.16,1.07-.15,2.68.07,11.08.11,11.83,4.05s-6.77,3.76-9.29,3.01Z"/>
        <path class="cls-4" d="m211.14,76.93c-2.69-1.53-5.65-2.5-8.74-2.69-1.45-.09-3.28.05-3.83,1.4-.42,1.05.22,2.33-.28,3.35-.21.42-.6.78-.62,1.25-.01.61.6,1.01,1.14,1.29,1.08.56,2.16,1.12,3.25,1.69,1.83.95,4,1.92,5.87,1.04,2.27-1.06,2.64-4.08,2.69-6.59"/>
        <path class="cls-4" d="m214.3,73.74c-1.67-1.61-2.96-3.61-3.74-5.79-.23-.64-.42-1.34-.25-2,.22-.83.95-1.41,1.69-1.83,1.74-.99,3.79-1.44,5.79-1.26.42.04.86.11,1.22.35.67.45.83,1.35.93,2.15.24,1.84,1.45,5.19.11,6.74-1.46,1.7-4.1.13-5.51,2.71-.64,1.17-1.28,2.34-1.92,3.51-.68,1.26-1.31,2.97-.29,3.97,1.41,1.37,4.22-.39,5.6,1.01.36.37.52.88.72,1.35,1.43,3.46,5.35,5.7,9.06,5.18.47-.07.98-.2,1.23-.6.17-.27.18-.61.19-.93.03-1.18.03-2.44-.65-3.41-1.04-1.5-3.34-1.77-4.23-3.36-.86-1.54.03-3.47-.27-5.2-.36-2.08-2.72-3.57-4.75-3"/>
        <path class="cls-4" d="m231,53.78c1.41-.92,3.25-1.38,4.8-.72,6.37,2.73,6.49,18.83-1.88,19.7-10.27,1.06-9.27-14.83-2.91-18.98Z"/>
        <path class="cls-4" d="m256.95,90.2c1.46-.93,2.58-2.4,3.03-4.08,1.71-6.34-3.91-7.16-8.57-5.51-4.54,1.61-8.3,2.64-12.93,3.54-3.59.7-6.32,2.76-6.53,6.82,8.03,1.76,15.58-.29,23.52.08,5.59.26,10.26,8.87,5.61,13.47-.75.74-1.73,1.22-2.73,1.58-2.65.98-5.78,1.27-8.21-.19-3.62-2.16-13.19-10.03,4.02-15.2"/>
        <path class="cls-4" d="m254.18,80.37c.55-1.84.16-5.34.08-7.25-.03-.65-.1-1.33-.47-1.87-.73-1.06-2.24-1.13-3.52-1.06-1.63.09-3.31.26-4.73,1.06-4.41,2.45-3.41,14.29-8.57,14.29"/>
        <path class="cls-4" d="m97.53,159.56c-2.57-1.12-3.83.93-5.65,3.07s-2.03,5.48-.51,7.83c2.21,3.4,6.96,4.04,10.97,3.46.52-.07,1.04-.17,1.51-.41.69-.36,1.18-1.02,1.55-1.71,2.65-5-1.57-12.11-7.22-12.19"/>
        <path class="cls-4" d="m323.03,193.99c-4.61-2.18-6.09.89-8.72,5.26-1.78,2.97-2.39,6.43-2.34,9.93.04,2.84,1.88,5.35,4.61,6.14l3.24.94c1.41.41,3.11.76,4.21-.22.54-.48.8-1.18,1.05-1.86,1.18-3.24,2.38-6.56,2.42-10.01.04-3.45-1.28-7.11-4.18-8.98"/>
        <path class="cls-4" d="m331.29,243.5c-.26,2.71.17,5.53,1.49,7.92,1.33,2.4,3.56,4.29,6.15,5.21.85.3,1.84.48,2.61,0,.73-.45,1.02-1.35,1.24-2.18.88-3.19,1.69-6.56.93-9.78-1.66-7.01-11.53-10.53-12.42-1.17Z"/>
        <path class="cls-4" d="m320.82,247.66c-2.3,1.18-4.18,3.03-5.9,4.96-.82.93-1.66,1.95-1.8,3.19-.3,2.54,2.38,4.44,4.87,5.02.93.22,1.91.35,2.85.14,1.53-.34,2.73-1.51,3.83-2.63,2.25-2.28,7.55-6.42,5.39-10.06-1.78-3.01-6.72-1.92-9.24-.62Z"/>
        <path class="cls-4" d="m331.9,277.55c.25,1.87,1.61,3.43,3.16,4.51s3.32,1.8,4.95,2.77c.4.24.8.5,1.05.9.3.48.33,1.07.29,1.63-.2,3.33-2.41,6.46-5.47,7.78s-6.86.75-9.41-1.4c-.74-.62-1.42-1.48-1.35-2.44.04-.52.28-.99.44-1.48.53-1.73-.11-3.65.39-5.39,1.5-5.24,7.68-7.94,9.39-13.3,1.51-4.74-1.04-11.7-5.66-14.18-3.32-1.78-5.65.23-6.61,3.57-.74,2.55,1.29,2.35-1.49,4.07-1.5.93-3.79.44-5.42,1.34-2.68,1.48-3.39,5-3.37,8.07,0,.57.03,1.17.3,1.68.37.69,1.13,1.06,1.84,1.39,3.48,1.62,7.47,3.26,11.01,1.78,1.4-.58,2.56-1.6,3.7-2.6.95-.83,1.96-1.6,2.9-2.38,1.52-1.27,6.08-2.1,6.51-4.03.38-1.69-.8-3.31-1.04-5.03-.18-1.29.18-2.58.54-3.83,1.44-5.01,3.47-5.69,7.09-3.41,1.56.98,2.11,1.77,4.01,2.46,2.57.94,5.12.64,7.2,2.82,1.36,1.43,1.97,3.4,2.52,5.3.29,1,.58,2.01.54,3.05-.13,2.95-2.8,5.04-4.33,7.56-.82,1.36-1.34,2.92-2.33,4.16s-2.72,2.13-4.18,1.5c-1.14-.5-1.74-1.72-2.24-2.85l-2.14-4.79c-.29-.65-2.12.69-2.67,1.13s-.85,1.13-1.29,1.68c-.9,1.12-2.47,1.66-3.87,1.32s-4.64-1.93-4.93-3.34Z"/>
        <path class="cls-4" d="m337.67,294.69c1.33,1.24,5.44,4.33,6.09,6.03.56,1.44.95,3.13,2.27,3.92.54.32,1.17.44,1.79.56,2.51.46,5.22.83,7.5-.31,2.79-1.4,4.09-4.65,4.68-7.71.44-2.29.6-4.63.5-6.95-.04-.94-.14-1.9-.57-2.73-1.3-2.51-16.24-7.43-21.4,8.06"/>
        <path class="cls-4" d="m364.35,268c-10.33-3.44-16.54-18.15-2.98-14.85,1.9.46,4.03-.08,5.71.93,2.68,1.61,3.56,5,4.22,8.06.12.56.24,1.14.1,1.7-.16.65-.64,1.16-1.14,1.6-1.73,1.53-3.86,2.59-6.12,3.04"/>
        <path class="cls-4" d="m365.53,267.82c.09-.11.22-.17.36-.15,3.26.46,6.55,1.62,8.79,4.02s3.17,6.43,1.37,9.27c-.45.7-1.03,1.31-1.65,1.87-1,.91-2.73,2.27-3.84,3.03-1.4.97-2.93,1.88-4.63,2.05s-3.61-.57-4.31-2.14c-.84-1.89.06-4.66-1.7-5.75-.45-.28-1-.37-1.53-.44-1.37-.19-2.76-.33-4.14-.43-.17-.35-.03-.76.21-1.07s.57-.53.89-.74c1.68-1.08,3.39-2.27,4.36-4.02.37-.66.62-1.38.96-2.05s.8-1.32,1.46-1.69c.53-.3,1.16-.39,1.72-.62.61-.24,1.24-.64,1.67-1.14Z"/>
        <path class="cls-4" d="m377.14,270.37c1.36.78,3.29.36,4.19-.92.4-.56.6-1.23.8-1.88.78-2.61,1.57-5.21,2.35-7.82.15-.49.29-1.03.04-1.48-.18-.32-.52-.52-.84-.69-11.77-5.94-17.59,4.64-7.29,12.14"/>
        <path class="cls-4" d="m318.73,39.58c-.28-1.63-.51-3.31-.24-4.95s1.11-3.25,2.54-4.1c2.26-1.34,5.24-.38,7.32,1.22,3.2,2.47,5.24,6.47,5.07,10.51-.16,3.94-2.87,9.35-7.55,8.73-5.03-.67-6.44-7.37-7.14-11.42Z"/>
        <path class="cls-4" d="m335.38,48.72c1.41-2.79,4.03-5.05,7.11-5.59.25-.04.51-.08.75.02.29.12.47.41.61.68.57,1.05,1.03,2.17,1.35,3.32.29,1.06.47,2.17.35,3.26-.28,2.49-2.15,4.58-4.34,5.79-1.84,1.02-5.89,3.04-7.2.87-1.15-1.91.49-6.6,1.38-8.35Z"/>
        <path class="cls-4" d="m344.85,57.08c.94-.39,1.23-1.55,1.66-2.47.83-1.74,2.65-2.97,4.58-3.08s3.88.91,4.89,2.56c.82,1.33,1.02,2.93,1.16,4.49.02.26.04.54-.08.78-.17.33-.55.48-.89.59-2.26.76-4.58,1.32-6.93,1.69"/>
        <path class="cls-4" d="m345.05,60.07c1.09,1.29.27,3.39,1.1,4.86.23.4.57.73.81,1.13,3.13,5.01-8.08,9.14-10.42,3.35-1.64-4.05,4.34-14.28,8.5-9.34Z"/>
        <path class="cls-4" d="m354.11,72.26c1.83.15,3.46,1.25,4.68,2.62,1.28,1.44,2.22,3.42,1.67,5.27-.58,1.95-2.7,3.14-4.73,3.2-2.76.08-8.81-2.06-9.35-5.19-.62-3.59,4.86-6.13,7.72-5.89Z"/>
        <path class="cls-4" d="m339.66,81.66c-1.3-.66-2.81-.89-4.25-.66-.22.04-.45.09-.59.26-.09.12-.13.27-.15.43-.28,2.16,1.46,3.99,3.06,5.47,1.54,1.42,3.48,2.96,5.5,2.42.64-.17,1.21-.54,1.76-.91.66-.44,1.36-.95,1.57-1.71.34-1.23-.74-2.37-1.78-3.11-1.81-1.28-3.84-2.26-5.97-2.89"/>
        <path class="cls-4" d="m298.06,85.65c-.49-.36-.98-.75-1.25-1.29-.24-.5-.27-1.07-.29-1.62-.06-1.66.04-3.65,1.47-4.49.52-.31,1.15-.4,1.75-.45,1.46-.13,2.96-.09,4.35.38,2.7.92,9.25,5.07,7.29,8.62-2.64,4.76-10.39,1.02-13.33-1.14Z"/>
        <path class="cls-4" d="m308.21,76.19c-.5-.77-.89-1.65-.86-2.56.04-1.16.76-2.22.79-3.38.05-1.93-1.77-3.51-1.76-5.44,0-.41.1-.84.35-1.16.36-.45.95-.63,1.51-.76,1.93-.46,3.93-.67,5.92-.62.97.02,1.98.12,2.83.59.66.36,1.18.93,1.64,1.52,1.09,1.38,1.96,3.07,1.82,4.83-.07.85-.37,1.66-.61,2.48-.74,2.43.06,8.15-2.79,9.22s-7.41-2.54-8.83-4.71Z"/>
        <path class="cls-4" d="m317.77,50.36c-.33-.4-.72-.77-1.19-1-.46-.23-.97-.31-1.47-.36-1.73-.17-3.5.05-5.13.64-1.1.4-2.19,1.01-2.79,2.01-.63,1.06-.6,2.37-.55,3.6.02.52.05,1.06.24,1.55,1.04,2.56,7.7,4.41,10.1,3.16,3.31-1.72,2.85-7.14.78-9.6Z"/>
        <path class="cls-4" d="m328.32,79.49c-2.37.14-4.76.06-7.12-.24,1.52-.06,3.05-.13,4.57-.19.95-.04,1.92-.08,2.82-.39,2.2-.75,3.57-2.89,4.77-4.88.24-.39.48-.8.53-1.26.05-.5-.13-.99-.27-1.47-.43-1.42-.55-2.92-.36-4.39.12-.91.36-1.82.25-2.73-.14-1.14-.82-2.14-1.48-3.08-1.38-1.98-2.87-4.05-5.07-5.04s-5.32-.37-6.2,1.88c-.7,1.8.23,3.77,1.03,5.52s1.47,3.92.37,5.5c-.34.48-.81.85-1.18,1.31-1.21,1.5-1.13,3.63-.93,5.55.07.66.15,1.36.55,1.9s1.19.85,1.75.48"/>
        <path class="cls-4" d="m710.95,54.13c-.41.64-1.19.92-1.93,1.07-2.72.55-5.67-.13-7.87-1.83-1.03-.8-1.92-1.85-2.24-3.11s.04-2.74,1.09-3.51c.47-.34,1.03-.52,1.59-.7,1.43-.45,2.97-.9,4.4-.48,1.65.48,2.79,2.06,3.23,3.72s3.05,3.56,2.84,5.26"/>
        <path class="cls-4" d="m719.94,47.08c.32-.02.67-.01.9.2.24.22.28.59.3.92.17,3.32-2.9,13.29-8.12,8.65-4.17-3.71,3.43-9.55,6.92-9.78Z"/>
        <path class="cls-4" d="m729.58,63.98c.47.05.97.17,1.31.5.52.5.54,1.31.52,2.03-.03,1.16-.05,2.32-.08,3.49-.01.44-.03.9-.27,1.27-.39.6-1.2.72-1.91.79-3.85.38-7.69.83-11.53,1.35-3.15.43-6.26-1-7.93-3.7l-1.77-2.85c-2.44-3.93.42-3.47,2.97-4.46,1.52-.59,3.74-2.54,5.29-2.72,2.85-.33,3.07,1.92,5.09,3.22,2.74,1.77,5.23.74,8.3,1.09Z"/>
        <path class="cls-4" d="m706.9,76.93c.35.85-1.56,1.88-1.52,2.8.02.57-.03,1.19-.4,1.64-.51.62-1.41.69-2.21.71-1.59.04-3.37,0-4.46-1.15-.52-.55-.79-1.27-1.06-1.98-.26-.7-.52-1.39-.78-2.09-.6-1.59-1.08-3.67.23-4.75.7-.58,1.7-.64,2.58-.41s1.67.69,2.48,1.07c2.03.96,4.28,1.45,6.53,1.43-1.28.64-.11,2.1-1.38,2.74"/>
        <path class="cls-10" d="m707.68,86.22c.8,1.46,2.76,1.7,4.43,1.78,1.26.05,2.52.11,3.79.16,1.74.08,3.65.1,5.01-.98,1.77-1.4,1.86-4,1.81-6.25-.02-.96-.06-1.98-.59-2.79-.4-.61-1.03-1.02-1.68-1.33-2.47-1.18-7.49-2.05-10.1-.66s-3.95,7.73-2.66,10.08Z"/>
        <path class="cls-4" d="m723.09,79.62c1.35-.96,2.97-1.53,4.63-1.61.33-.02.67,0,.94.18.32.21.45.61.55.97.46,1.61.79,3.26,1,4.93.04.34.08.7-.04,1.02-.12.33-.36.63-.67.81-4.15,2.31-10.65-2.32-7.11-5.54"/>
        <path class="cls-10" d="m698.83,83.72c-.45-.02-.91-.01-1.32.18-.34.17-.61.46-.84.76-.77.98-1.34,2.18-1.29,3.42.05,1.25.73,2.4,1.63,3.28s1.99,1.5,3.09,2.1c1.07.59,2.19,1.18,3.4,1.3s2.57-.35,3.15-1.42c.31-.56.37-1.22.43-1.86.47-5.17-3.3-7.51-8.25-7.75Z"/>
        <path class="cls-10" d="m711.74,105.32c5.44-1.3,2.96-10.15-1.96-9.65-5.6.57-3.55,10.96,1.96,9.65Z"/>
        <path class="cls-4" d="m731.48,83.08l1.23-.08c.84-.06,1.72-.11,2.47.27.79.4,1.29,1.22,1.52,2.08s.2,1.75.17,2.64c0,.27-.02.56-.15.8-.15.27-.42.44-.69.58-2.64,1.27-5.99-.32-8.63.96-.58.28-1.14.71-1.79.7-1,0-1.68-.99-2.17-1.86-.39-.69-.79-1.48-.58-2.25"/>
        <path class="cls-4" d="m737.32,90.11c.22-.26.68-.16.89.12s.24.64.26.98c.03.59.07,1.19.1,1.78.06.98.11,2.01-.28,2.91-.83,1.91-3.3,2.53-5.37,2.26s-4.03-1.17-6.11-1.28c-1.06-.06-2.14.09-3.16-.21-.79-.23-1.47-.71-2.14-1.18-2.09-1.46-2.54-8.23-.82-9.95"/>
        <path class="cls-4" d="m733.91,103.44c2.24.08,4.36,1.58,5.19,3.65.53,1.33.56,2.8.54,4.24,0,.75-.06,1.59-.61,2.11-.38.36-.92.48-1.43.56-1.35.22-10.04-2.64-4.88-9.53"/>
        <path class="cls-4" d="m708.62,106.2c.48-13.46,23.74-16.52,23.97.37.03,2.09.58,4.38-.66,6.06-.74,1-1.89,1.6-3.04,2.07-3.82,1.57-8.2,2.08-12.11.74-3.91-1.34-7.22-4.72-7.84-8.8"/>
        <path class="cls-4" d="m731.25,116.49c1.35,1.62,1.49,3.9,1.57,6.01.05,1.32,0,2.85-1.05,3.65-.68.52-1.6.56-2.46.58-.82.02-1.67.04-2.43-.28-1.16-.48-1.87-1.64-2.51-2.73-.73-1.26-3.71-8.94,6.62-7.21"/>
        <path class="cls-4" d="m717.36,118.63c.45,3.17.19,6.43-.75,9.48-.14.44-.31.9-.67,1.2-.44.36-1.06.37-1.63.37-1.13,0-2.25,0-3.38,0-.51,0-1.04,0-1.5-.23-.71-.34-1.09-1.12-1.4-1.85-1.09-2.53-2.11-5.17-2.21-7.93-.33-8.98,9.28-7.63,11.41-1.42"/>
        <path class="cls-4" d="m703.16,112.41c-.12.71-.12,1.44-.27,2.15-.31,1.47-1.25,2.8-2.53,3.57s-2.9.99-4.34.58c-.6-.17-1.19-.46-1.65-.88-.95-.86-1.31-2.19-1.48-3.46-.12-.9-.17-1.8-.15-2.71.01-.58.06-1.18.36-1.69.33-.57.93-.93,1.52-1.24,2.45-1.26,5.75-2.31,8.55-1.99,4.04.46.39,3.23,0,5.65Z"/>
        <path class="cls-8" d="m111.24,299.53c-1.15.05-2.32.1-3.42.48s-2.11,1.13-2.52,2.21c-.39,1.01-.2,2.15-.4,3.22-.28,1.51-4.21,5.06-5.65,5.61"/>
        <path class="cls-8" d="m114.75,293.83c-1.29-.1-4.26-.02-5.53.2"/>
        <path class="cls-6" d="m106.13,292.72c-.09-1.13-.17-2.29.08-3.4s.89-2.18,1.91-2.69"/>
      </g>
    </pattern>
  </defs>
  <g id="webinar_secciones" data-name="webinar secciones">
    <g id="esporotricosis">
      <rect class="cls-12" width="2599.45" height="791.83"/>
    </g>
  </g>
</svg>