<?xml version="1.0" encoding="UTF-8"?>
<svg id="Capa_2" data-name="Capa 2" xmlns="http://www.w3.org/2000/svg" xmlns:xlink="http://www.w3.org/1999/xlink" viewBox="0 0 2612.37 792.83">
  <defs>
    <style>
  .cls-1 {
    fill: url(#CANDIDA_AURIS_2);
    stroke: url(#CANDIDA_AURIS_2-2);
  }

  .cls-1, .cls-2, .cls-3 {
    stroke-miterlimit: 10;
    opacity: 0.2;
  }

  .cls-2, .cls-3, .cls-4 {
    stroke: #fff;
  }

  .cls-2, .cls-3, .cls-4, .cls-5 {
    fill: none;
  }

  .cls-3, .cls-4 {
    stroke-width: 2px;
  }

  .cls-4 {
    stroke-linecap: round;
    stroke-linejoin: round;
  }
</style>
    <pattern id="CANDIDA_AURIS_2" data-name="CANDIDA AURIS 2" x="0" y="0" width="922.61" height="591.2" patternTransform="translate(-932.04 -736.27)" patternUnits="userSpaceOnUse" viewBox="0 0 922.61 591.2">
      <g>
        <rect class="cls-5" width="922.61" height="591.2"/>
        <g>
          <path class="cls-4" d="m-36.06,547.54c-1.86-2.82-1.34-6.71.4-9.61,1.74-2.9,4.48-5.04,7.16-7.1,2.51-1.94,5.08-3.9,8.06-5,2.13-.78,4.41-1.09,6.68-1.16,13.56-.41,27.12,8.73,30.94,21.74.67,2.29,1.06,4.67.94,7.05-.13,2.74-.94,5.41-1.98,7.96-3.13,7.65-8.76,14.56-16.39,17.74-7.63,3.18-17.3,1.95-22.92-4.11"/>
          <g>
            <path class="cls-2" d="m-12.5,482.74c-4.14,0-8.69-1.23-13.15-3.55-14.49-7.5-23.57-23.22-22.6-39.12.02-.37.25-.7.6-.85.13-.06.27-.08.4-.08.23,0,.45.08.63.22,1.27,1.03,2.59,1.96,3.83,2.82,2.76,1.89,5.86,2.89,8.98,2.89,3.5,0,6.66-1.28,8.89-3.6,2.35-2.45,3.51-5.89,3.35-9.95-.2-5.12-2.98-10.39-7.62-14.45-1.14-.97-2.11-1.67-3.06-2.21-.31-.18-.51-.51-.51-.87,0-.36.2-.7.51-.87,3.61-2.02,7.57-3.08,11.44-3.08.44,0,.87.01,1.31.04,5.58.36,10.68,2.82,15.37,5.43,3.21,1.79,7.35,4.26,10.99,7.52,12.11,10.88,15.36,29.39,7.41,42.15-2.56,4.14-6.3,7.89-11.75,11.81-2.9,2.07-6.41,4.31-10.5,5.26-1.44.33-2.95.5-4.5.5Z"/>
            <path class="cls-2" d="m-20.81,411.03c-3.83,0-7.6,1.08-10.96,2.95,1.16.65,2.22,1.47,3.23,2.33,4.41,3.86,7.73,9.31,7.96,15.16.37,9.38-5.99,14.58-13.24,14.58-3.17,0-6.52-.99-9.54-3.07-1.33-.92-2.64-1.85-3.89-2.87-.93,15.24,7.91,30.84,22.07,38.17,3.91,2.03,8.31,3.44,12.69,3.44,1.43,0,2.87-.15,4.28-.48,3.7-.86,7.03-2.88,10.14-5.1,4.44-3.19,8.6-6.88,11.48-11.52,7.96-12.75,3.95-30.83-7.23-40.88-3.26-2.93-6.99-5.27-10.8-7.39-4.68-2.6-9.63-4.96-14.94-5.3-.42-.03-.83-.04-1.24-.04m0-2c.45,0,.91.01,1.37.04,5.78.37,11,2.89,15.79,5.55,3.25,1.81,7.45,4.32,11.17,7.65,12.46,11.19,15.79,30.26,7.59,43.42-2.64,4.26-6.46,8.1-12.02,12.1-2.8,2-6.57,4.43-10.85,5.42-1.51.35-3.11.53-4.73.53-4.3,0-9.01-1.27-13.61-3.66-14.83-7.68-24.13-23.78-23.15-40.07.05-.75.51-1.41,1.19-1.71.26-.11.53-.17.8-.17.45,0,.9.15,1.26.45,1.26,1.02,2.61,1.98,3.76,2.77,2.6,1.78,5.51,2.72,8.41,2.72,3.23,0,6.13-1.17,8.17-3.29,2.16-2.25,3.22-5.43,3.07-9.21-.19-4.85-2.85-9.86-7.26-13.72-1.1-.94-2.02-1.61-2.91-2.11-.63-.36-1.02-1.02-1.02-1.75s.39-1.39,1.03-1.74c3.76-2.1,7.89-3.21,11.93-3.21h0Z"/>
          </g>
          <g>
            <path class="cls-2" d="m75.31,468.68c-7.45,0-14.39-3.71-17.7-9.45-1.52-2.64-2.45-5.86-2.85-9.84-1.35-13.53,4.89-28.07,15.91-37.04,3.67-2.99,7.73-4.5,12.09-4.5,6.22,0,13.12,3.1,20.51,9.21,3.72,3.08,5.77,6.13,6.25,9.32.42,2.77-.32,5.44-1.19,8.16-2.16,6.76-5.05,14.57-10.04,21.18-5.33,7.05-12.3,11.57-19.64,12.71-1.09.17-2.22.26-3.35.26Z"/>
            <path class="cls-2" d="m82.76,408.85c-3.88,0-7.75,1.25-11.46,4.27-10.55,8.59-16.91,22.53-15.55,36.17.33,3.28,1.07,6.58,2.72,9.44,3.33,5.78,10.12,8.95,16.83,8.95,1.07,0,2.14-.08,3.19-.24,7.65-1.19,14.33-6.15,18.99-12.32,4.66-6.17,7.53-13.51,9.88-20.88.8-2.5,1.55-5.11,1.16-7.71-.54-3.55-3.14-6.42-5.9-8.7-6.09-5.04-13-8.98-19.87-8.98m0-2c6.46,0,13.58,3.18,21.15,9.44,3.92,3.24,6.08,6.49,6.61,9.94.46,2.98-.36,5.89-1.23,8.62-2.19,6.84-5.11,14.75-10.19,21.47-5.48,7.26-12.69,11.91-20.28,13.09-1.14.18-2.32.27-3.5.27-7.8,0-15.08-3.91-18.57-9.95-1.59-2.76-2.57-6.11-2.98-10.24-1.41-14.07,4.83-28.6,16.27-37.92,3.85-3.13,8.13-4.72,12.72-4.72h0Z"/>
          </g>
          <g>
            <path class="cls-2" d="m63.57,585.59c-7.52,0-14.6-3.13-18.94-8.38-5.62-6.81-6.05-17.26-.99-23.8,3.09-3.99,7.51-6.11,11.79-8.16l.57-.27c1.59-.76,3.37-1.95,5.09-3.11,2.31-1.55,4.71-3.15,6.89-3.91,1.07-.38,2.21-.57,3.39-.57,6.56,0,13.54,5.93,16.49,11.66,3.64,7.05,3.31,16.19-.83,23.28-4.02,6.87-11.3,11.72-19.49,12.96-1.3.2-2.64.3-3.98.3h0Z"/>
            <path class="cls-2" d="m71.38,538.39c-1.04,0-2.06.16-3.06.51-3.66,1.28-8.11,5.16-11.87,6.97-4.4,2.12-8.93,4.17-12.01,8.14-4.98,6.43-4.21,16.29.97,22.55,4.36,5.28,11.29,8.02,18.17,8.02,1.28,0,2.57-.1,3.83-.29,7.68-1.17,14.85-5.77,18.78-12.48,3.92-6.71,4.37-15.42.81-22.32-2.7-5.24-9.32-11.12-15.6-11.12m0-2c6.94,0,14.29,6.2,17.38,12.2,3.79,7.35,3.46,16.87-.86,24.25-4.17,7.13-11.72,12.16-20.2,13.44-1.35.21-2.74.31-4.13.31-7.82,0-15.19-3.27-19.71-8.75-6-7.27-6.44-18.04-1.01-25.05,3.23-4.17,7.76-6.35,12.15-8.45l.57-.27c1.52-.73,3.28-1.9,4.97-3.04,2.36-1.58,4.81-3.22,7.11-4.02,1.18-.41,2.43-.62,3.72-.62h0Z"/>
          </g>
          <g>
            <path class="cls-2" d="m81.18,539.95c-2.51,0-5.19-.81-8.22-2.46-4.17-2.29-7.27-5.13-9.19-8.45-2.33-4.01-2.8-8.69-1.24-12.5,2.35-5.74,10.11-10.41,17.3-10.41,3.91,0,7.09,1.38,9.21,3.98,2.78,3.42,5.17,7.14,7.13,11.08.88,1.77,1.67,3.69,1.51,5.7-.26,3.31-2.81,5.64-5.39,7.74-2.57,2.09-5.76,4.69-9.63,5.22-.48.06-.98.1-1.48.1h0Z"/>
            <path class="cls-2" d="m79.83,507.13c-6.61,0-14.13,4.31-16.38,9.79-1.53,3.73-.85,8.13,1.17,11.62s5.27,6.13,8.81,8.07c2.39,1.31,5.05,2.34,7.74,2.34.45,0,.89-.03,1.34-.09,3.49-.47,6.41-2.78,9.14-5,2.3-1.87,4.79-4.08,5.02-7.04.14-1.81-.6-3.56-1.41-5.18-1.92-3.88-4.28-7.54-7.01-10.9-2.06-2.54-5.13-3.61-8.43-3.61m0-2c4.22,0,7.67,1.51,9.99,4.35,2.82,3.47,5.26,7.26,7.25,11.27.94,1.9,1.79,3.97,1.61,6.23-.29,3.7-3.12,6.3-5.76,8.44-2.67,2.17-5.98,4.87-10.13,5.43-.53.07-1.07.11-1.61.11-2.68,0-5.52-.85-8.7-2.59-4.33-2.38-7.56-5.34-9.58-8.82-2.49-4.28-2.97-9.28-1.3-13.38,2.49-6.08,10.66-11.03,18.23-11.03h0Z"/>
          </g>
          <path class="cls-3" d="m143.56,437.19c.41-.62,1.09-1.66,1.03-2.99-.06-1.32-.82-2.29-1.28-2.88l-2.87-3.67-2.95-3.77c-1.08-1.39-2.9-3.71-5.69-4.07-.25-.03-.5-.05-.75-.05-2.11,0-4.18,1.13-6.34,3.45-3.31,3.57-5.5,7.36-6.52,11.27-.34,1.31-.51,2.59-.55,3.83-5.53,1.16-11.13,4.52-15.85,9.61-3.72,4.01-5.82,8.69-5.92,13.19-.1,4.76,1.95,9.19,4.18,13.28,2.97,5.44,6.86,11.31,13.19,13.58,1.74.62,3.59.94,5.51.94,5.02,0,10.44-2.13,15.25-5.99,2.22-1.79,3.93-3.57,5.23-5.47,3.03-4.42,4.28-10.34,3.43-16.24-.72-5.03-2.87-10.07-6.38-15-.03-.04-.06-.08-.09-.12,3.14-2.5,5.37-5.89,7.34-8.91Z"/>
          <g>
            <path class="cls-2" d="m116.55,523.73c-2.55,0-5.16-.48-7.57-1.38-4.96-1.86-9.54-5.63-12.91-10.62-.88-1.31-1.83-2.89-2.13-4.74-.43-2.63.49-5.51,2.74-8.57,3.69-5.03,10.5-10.45,16.73-10.45,1.08,0,2.12.16,3.1.48,7.49,2.44,12.85,10.84,14.84,18.09.56,2.04,1.21,5.1.34,8-.83,2.77-2.97,5.23-6.03,6.92-2.68,1.48-5.83,2.26-9.11,2.26h0Z"/>
            <path class="cls-2" d="m113.4,488.97c-6.08,0-12.65,5.57-15.93,10.04-1.67,2.27-3.01,5.04-2.56,7.82.26,1.58,1.07,3.01,1.97,4.34,3.06,4.52,7.33,8.32,12.44,10.24,2.29.86,4.76,1.32,7.21,1.32,3.01,0,6-.68,8.63-2.14,2.52-1.39,4.73-3.57,5.56-6.33.72-2.42.32-5.02-.35-7.45-1.9-6.92-6.95-15.05-14.18-17.4-.91-.3-1.85-.43-2.8-.43m0-2c1.19,0,2.33.18,3.42.53,8.38,2.73,13.58,11.82,15.49,18.78.59,2.16,1.27,5.4.33,8.55-.9,3.02-3.21,5.69-6.5,7.51-2.82,1.56-6.14,2.39-9.6,2.39-2.66,0-5.4-.5-7.92-1.45-5.15-1.94-9.91-5.84-13.39-10.99-.95-1.4-1.96-3.1-2.29-5.14-.47-2.9.51-6.04,2.92-9.33,3.83-5.23,10.96-10.85,17.54-10.85h0Z"/>
          </g>
          <g>
            <path class="cls-2" d="m106.38,585.1c-.28,0-.56-.01-.84-.04-1.28-.13-2.62-.6-3.98-1.4-2.59-1.51-4.55-3.74-5.52-6.29-1.08-2.84-.86-5.99.58-8.43,2.65-4.48,6.81-7.15,11.13-7.15,4.9,0,8.83,3.35,10.51,8.95.96,3.2.98,7.56-1.82,10.19-.94.89-2.09,1.46-3.11,1.97-1.95.98-4.37,2.19-6.96,2.19h0Z"/>
            <path class="cls-2" d="m107.76,562.78c-3.74,0-7.68,2.28-10.27,6.66-1.33,2.25-1.44,5.12-.51,7.57.93,2.44,2.83,4.46,5.09,5.78,1.1.64,2.31,1.14,3.58,1.27.25.03.49.04.73.04,2.27,0,4.46-1.06,6.51-2.09,1.02-.51,2.05-1.03,2.88-1.81,2.38-2.24,2.48-6.05,1.54-9.18-1.66-5.56-5.49-8.24-9.55-8.24m0-2c5.29,0,9.68,3.7,11.47,9.67,1.04,3.49,1.04,8.26-2.09,11.21-1.05.99-2.27,1.6-3.35,2.14-2.04,1.02-4.59,2.3-7.41,2.3-.32,0-.63-.02-.94-.05-1.42-.15-2.89-.66-4.38-1.53-2.79-1.62-4.9-4.04-5.95-6.79-1.19-3.12-.94-6.6.66-9.3,2.83-4.79,7.32-7.64,11.99-7.64h0Z"/>
          </g>
          <g>
            <path class="cls-2" d="m108.19,560.09c-1.35,0-2.66-.21-3.9-.62-4.33-1.43-7.99-5.27-9.56-10.03-1.52-4.6-.59-10.37,2.3-14.37,2.15-2.97,5.19-4.61,8.57-4.61.33,0,.67.01,1.01.05,4.89.44,8.99,2.86,11.53,6.81,2.7,4.19,3.24,9.46,1.48,14.46-.56,1.59-1.24,2.9-2.08,3.98-2.1,2.71-5.59,4.32-9.35,4.32Z"/>
            <path class="cls-2" d="m105.6,531.47c-8.31,0-12.25,10.61-9.92,17.66,1.4,4.25,4.67,7.98,8.92,9.39,1.15.38,2.37.57,3.59.57,3.28,0,6.56-1.35,8.56-3.93.86-1.1,1.47-2.38,1.93-3.7,3.23-9.22-2.04-19.03-12.16-19.95-.31-.03-.62-.04-.92-.04m0-2c.36,0,.73.02,1.1.05,5.21.47,9.57,3.05,12.28,7.27,2.86,4.45,3.44,10.04,1.59,15.33-.59,1.7-1.33,3.09-2.24,4.27-2.29,2.95-6.08,4.71-10.14,4.71-1.45,0-2.87-.23-4.22-.67-4.62-1.53-8.53-5.62-10.19-10.66-1.61-4.89-.63-11.02,2.44-15.27,2.34-3.24,5.67-5.02,9.38-5.02h0Z"/>
          </g>
          <path class="cls-4" d="m116.39,523.21c.5,4.69,2.28,9.25,5.11,13.03.89,1.19,1.91,2.33,3.18,3.09,3.29,1.97,7.71,1.04,10.77-1.28.86-.65,1.65-1.4,2.25-2.3,2.05-3.03,1.66-7.05.96-10.64-.35-1.79-.75-3.57-1.21-5.33-.36-1.37-.76-2.76-1.55-3.94s-2.04-2.13-3.45-2.22"/>
          <g>
            <path class="cls-2" d="m150.35,498.27c-1.47-.07-2.76-.71-3.9-1.27-6.08-2.99-9.23-9.36-7.84-15.84,1.01-4.74,7.66-10.14,12.48-10.14.11,0,.22,0,.32,0,1.2.06,2.28.51,3.21.93,3.36,1.51,5.74,3.13,7.48,5.12,2.27,2.59,3.33,5.9,2.84,8.83-.77,4.62-4.91,7.67-8.73,10.16-1.43.93-3.38,2.2-5.57,2.2,0,0-.19,0-.29,0Z"/>
            <path class="cls-2" d="m151.08,472.03c-4.4,0-10.6,5.14-11.5,9.35-1.33,6.21,1.9,12.07,7.31,14.73,1.11.55,2.27,1.11,3.51,1.17.08,0,.16,0,.24,0,1.82,0,3.49-1.04,5.02-2.04,3.63-2.37,7.58-5.22,8.29-9.49.48-2.86-.7-5.83-2.61-8.01-1.91-2.19-4.49-3.68-7.13-4.87-.91-.41-1.85-.79-2.85-.84-.09,0-.18,0-.27,0m0-2c.13,0,.25,0,.37,0,1.36.07,2.56.56,3.57,1.01,3.5,1.57,5.98,3.28,7.82,5.38,2.46,2.82,3.61,6.43,3.08,9.65-.83,5.02-5.17,8.22-9.17,10.83-1.53,1-3.63,2.37-6.11,2.37-.11,0-.22,0-.34,0-1.67-.08-3.13-.8-4.29-1.37-6.39-3.15-9.84-10.12-8.38-16.95,1.11-5.21,8.16-10.93,13.46-10.93h0Z"/>
          </g>
          <g>
            <path class="cls-2" d="m163.66,608.75c-2.06,0-3.99-.26-5.74-.77-4.85-1.42-9.24-4.95-13.43-10.77-5.11-7.1-8.1-14.77-8.65-22.18-.48-6.45,1.31-20.84,9.9-24.18,1.54-.6,3.39-.9,5.52-.9,8.66,0,20.4,5.02,25.97,8.58,9.55,6.11,17.45,18.72,14.05,31.01-2.68,9.71-12.15,17.31-23.56,18.92-1.41.2-2.77.3-4.05.3h0Z"/>
            <path class="cls-2" d="m151.25,550.94c-1.91,0-3.67.25-5.16.83-7.61,2.96-9.8,16.02-9.26,23.18.58,7.83,3.88,15.3,8.47,21.67,3.29,4.57,7.5,8.81,12.9,10.39,1.77.52,3.61.73,5.46.73,1.31,0,2.62-.11,3.91-.29,10.17-1.44,19.99-8.29,22.73-18.2,3.13-11.31-3.74-23.58-13.62-29.9-5.46-3.49-16.99-8.42-25.43-8.42m0-2c8.86,0,20.84,5.11,26.51,8.73,9.86,6.31,18,19.37,14.47,32.12-2.79,10.09-12.59,17.98-24.38,19.64-1.46.21-2.87.31-4.19.31-2.16,0-4.18-.27-6.03-.82-5.07-1.49-9.64-5.13-13.96-11.15-5.21-7.25-8.27-15.1-8.84-22.69-.59-7.92,1.75-21.77,10.53-25.19,1.65-.64,3.63-.97,5.88-.97h0Z"/>
          </g>
        </g>
        <g>
          <g>
            <path class="cls-2" d="m872.47,543.8c-1.04,0-2.08-.15-3.08-.3-.64-.09-1.25-.18-1.79-.22-2.22-.14-3.64-.8-4.61-2.14-.53-.74-.93-1.68-1.29-3.06-1.62-6.17-.82-12.9,2.2-18.46,2.34-4.33,5.73-7.33,9.54-8.45.99-.29,2.04-.44,3.11-.44,3.8,0,7.16,1.81,8.77,4.73.84,1.52,1.27,3.39,1.31,5.73.06,3.09-.52,6.23-1.68,9.09-1.69,4.18-4.79,8.61-8.51,12.17-.95.91-2.25,1.35-3.98,1.35Z"/>
            <path class="cls-2" d="m876.56,511.73c-.96,0-1.92.13-2.83.4-3.93,1.16-6.99,4.36-8.94,7.97-2.89,5.35-3.65,11.85-2.11,17.74.3,1.15.65,2.05,1.14,2.72.78,1.08,1.93,1.6,3.86,1.73,1.4.09,3.17.51,4.8.51,1.25,0,2.42-.25,3.29-1.07,3.37-3.22,6.53-7.49,8.28-11.82,1.11-2.75,1.66-5.73,1.6-8.7-.04-1.82-.31-3.67-1.19-5.26-1.52-2.76-4.72-4.21-7.9-4.21m0-2c4.16,0,7.86,2.01,9.65,5.24.92,1.66,1.39,3.69,1.44,6.19.06,3.22-.54,6.5-1.75,9.49-1.74,4.31-4.93,8.87-8.75,12.52-1.15,1.1-2.68,1.63-4.67,1.63-1.11,0-2.23-.16-3.22-.31-.62-.09-1.21-.18-1.71-.21-1.58-.1-3.85-.48-5.35-2.55-.61-.84-1.06-1.89-1.45-3.39-1.68-6.41-.85-13.41,2.28-19.19,2.47-4.57,6.07-7.74,10.14-8.94,1.09-.32,2.23-.48,3.39-.48h0Z"/>
          </g>
          <path class="cls-4" d="m886.55,547.54c-1.86-2.82-1.34-6.71.4-9.61,1.74-2.9,4.48-5.04,7.16-7.1,2.51-1.94,5.08-3.9,8.06-5,2.13-.78,4.41-1.09,6.68-1.16,13.56-.41,27.12,8.73,30.94,21.74.67,2.29,1.06,4.67.94,7.05-.13,2.74-.94,5.41-1.98,7.96-3.13,7.65-8.76,14.56-16.39,17.74s-17.3,1.95-22.92-4.11"/>
          <path class="cls-4" d="m823.34,568.93c-4.56-.24-8.86-3.22-10.7-7.4-1.83-4.18-1.11-9.36,1.79-12.88,1.37-1.66,3.16-2.94,5.01-4.05,2.47-1.49,5.3-2.75,8.14-2.26,1.5.26,2.87,1,4.1,1.88,3.21,2.3,7.5,7.44,6.2,11.17"/>
          <g>
            <path class="cls-2" d="m794.98,568.02c-2.24,0-4.36-.52-6.11-1.51-1.55-.87-3.01-2.2-4.46-4.06-.97-1.24-2.1-2.92-2.25-4.92-.22-2.99,1.74-5.45,3.68-7.47,1.47-1.53,3.11-3.1,5.12-4.21,1.68-.93,3.45-1.42,5.14-1.42.57,0,1.13.06,1.67.17,3.05.63,5.32,2.92,7.33,5.3,1.29,1.53,2.72,3.33,3.51,5.47.85,2.32.79,4.44-.2,6.29-1.78,3.35-6.22,5.05-9.62,5.89-1.27.31-2.55.47-3.8.47Z"/>
            <path class="cls-2" d="m796.1,545.43c-1.61,0-3.23.51-4.65,1.3-1.85,1.03-3.42,2.5-4.89,4.03-1.79,1.86-3.59,4.12-3.4,6.7.12,1.63,1.04,3.09,2.04,4.38,1.17,1.49,2.52,2.88,4.16,3.8,1.71.96,3.65,1.38,5.62,1.38,1.2,0,2.4-.16,3.56-.44,5.4-1.32,11.51-4.38,9.12-10.86-.71-1.94-2.01-3.6-3.33-5.17-1.84-2.18-3.97-4.39-6.76-4.97-.48-.1-.97-.15-1.47-.15m0-2c.64,0,1.27.06,1.87.19,3.34.69,5.77,3.12,7.89,5.64,1.34,1.59,2.84,3.48,3.68,5.77.96,2.6.87,4.99-.26,7.11-1.96,3.68-6.67,5.51-10.27,6.39-1.35.33-2.7.5-4.04.5-2.42,0-4.7-.57-6.6-1.64-1.67-.94-3.22-2.35-4.76-4.32-1.06-1.35-2.29-3.2-2.46-5.46-.25-3.4,1.98-6.19,3.96-8.24,1.53-1.58,3.23-3.21,5.36-4.39,1.83-1.01,3.77-1.55,5.62-1.55h0Z"/>
          </g>
          <g>
            <path class="cls-2" d="m804.22,543.92c-1.75,0-3.39-.58-4.63-1.08-4.04-1.65-7.23-4.06-9.22-6.98-2.43-3.56-3.03-7.99-1.59-11.54.6-1.49,1.59-2.94,3.1-4.56,1.66-1.78,3.26-3.07,4.92-3.93,1.83-.95,3.93-1.45,6.07-1.45,2.79,0,5.52.85,7.7,2.39,3.95,2.79,6.15,7.88,5.48,12.67-.6,4.31-5.59,14.25-11.53,14.48-.1,0-.2,0-.3,0Z"/>
            <path class="cls-2" d="m802.87,515.38c-1.94,0-3.88.44-5.61,1.34-1.77.92-3.29,2.26-4.65,3.72-1.18,1.27-2.26,2.66-2.91,4.26-1.4,3.44-.61,7.53,1.49,10.6,2.09,3.07,5.33,5.22,8.77,6.62,1.36.55,2.79,1.01,4.25,1.01.09,0,.18,0,.26,0,5.04-.19,9.96-9.2,10.58-13.62.62-4.43-1.41-9.13-5.06-11.71-2.06-1.46-4.59-2.21-7.12-2.21m0-2c2.99,0,5.93.91,8.28,2.57,4.24,3,6.61,8.48,5.89,13.62-.72,5.13-6.14,15.09-12.48,15.34-.11,0-.23,0-.34,0-1.93,0-3.69-.62-5.01-1.15-4.23-1.72-7.57-4.26-9.67-7.34-2.61-3.84-3.26-8.62-1.69-12.48.86-2.1,2.29-3.78,3.3-4.87,1.74-1.87,3.43-3.22,5.19-4.13,1.97-1.02,4.23-1.56,6.53-1.56h0Z"/>
          </g>
          <g>
            <path class="cls-2" d="m862.35,489.84c-2.98,0-5.95-2.23-8.5-4.32-3.79-3.1-5.75-6.91-5.4-10.43.31-3.01,2.18-5.48,3.9-7.55,1.71-2.06,3.62-4.17,6-5.62,1.9-1.17,4.04-1.81,6.02-1.81.81,0,1.6.11,2.36.31,2.2.61,3.96,2.07,5.26,3.27,1.24,1.15,2.99,2.94,3.95,5.24,1.6,3.87.73,8.76-2.28,12.77-1.8,2.4-6.25,7.17-10.15,8.02-.37.08-.76.12-1.15.12Z"/>
            <path class="cls-2" d="m864.38,461.11c-1.92,0-3.85.65-5.5,1.66-2.25,1.38-4.06,3.37-5.75,5.41-1.71,2.06-3.4,4.35-3.68,7.02-.38,3.73,2.13,7.18,5.03,9.55,1.98,1.62,5.06,4.09,7.86,4.09.32,0,.63-.03.94-.1,3.39-.74,7.58-5,9.56-7.65,2.51-3.34,3.76-7.92,2.16-11.78-.79-1.9-2.19-3.49-3.7-4.89-1.41-1.31-2.99-2.52-4.84-3.04-.68-.19-1.38-.28-2.09-.28m0-2c.9,0,1.79.12,2.62.35,2.4.67,4.29,2.22,5.67,3.5,1.31,1.21,3.16,3.11,4.19,5.59,1.74,4.19.81,9.46-2.41,13.75-2.02,2.69-6.55,7.48-10.73,8.4-.44.1-.9.15-1.36.15-3.31,0-6.45-2.35-9.13-4.54-4.05-3.32-6.15-7.44-5.76-11.3.34-3.28,2.31-5.9,4.13-8.09,1.77-2.13,3.74-4.3,6.24-5.83,2.09-1.28,4.35-1.96,6.54-1.96h0Z"/>
          </g>
          <g>
            <path class="cls-2" d="m758.24,559.68c-2.16,0-4.28-.29-6.32-.85-2.56-.71-4.93-1.79-7.11-2.85-1.71-.83-3.51-1.76-5.05-3.09-1.7-1.47-2.98-3.36-4.1-5.18-1.5-2.43-3.36-5.68-4.37-9.31-1.04-3.74-1.02-7.36.05-10.48.8-2.33,2.23-4.56,4.37-6.81,2.43-2.56,5.33-4.64,8.63-6.2,4.21-1.99,8.69-2.57,13.02-3.13,1.06-.14,2.12-.27,3.18-.43.61-.09,1.24-.13,1.9-.13,4.87,0,10.38,2.48,13.39,6.02,2.08,2.46,3.14,5.59,3.97,8.34,1.52,5.05,2.84,10.95,1.11,16.4-.74,2.32-1.98,4.4-3.09,6.17-1.07,1.7-2.26,3.49-3.72,5.05-3.86,4.12-9.64,6.48-15.86,6.48h0Z"/>
            <path class="cls-2" d="m762.45,512.22c-.6,0-1.18.04-1.75.12-5.43.8-10.87,1.08-15.92,3.47-3.11,1.47-5.96,3.5-8.33,5.99-1.78,1.87-3.31,4.01-4.15,6.45-1.09,3.16-.93,6.66-.03,9.88.9,3.22,2.49,6.21,4.25,9.05,1.11,1.79,2.31,3.57,3.91,4.95,1.43,1.24,3.13,2.12,4.83,2.94,2.24,1.09,4.53,2.12,6.94,2.79,1.96.54,4.01.81,6.05.81,5.65,0,11.29-2.06,15.13-6.16,1.39-1.48,2.53-3.18,3.61-4.9,1.18-1.88,2.31-3.82,2.99-5.94,1.63-5.11.43-10.67-1.12-15.81-.85-2.84-1.86-5.72-3.77-7.98-2.81-3.31-8.07-5.67-12.63-5.67m0-2c5.15,0,10.97,2.62,14.16,6.38,2.21,2.6,3.31,5.85,4.16,8.69,1.57,5.2,2.92,11.29,1.11,16.99-.77,2.43-2.06,4.58-3.2,6.4-1.09,1.74-2.32,3.58-3.84,5.21-4.05,4.32-10.1,6.79-16.59,6.79-2.25,0-4.46-.3-6.59-.89-2.64-.73-5.06-1.83-7.28-2.92-1.77-.86-3.63-1.82-5.26-3.23-1.8-1.56-3.13-3.52-4.3-5.41-1.54-2.48-3.44-5.82-4.48-9.57-1.09-3.93-1.07-7.76.07-11.07.85-2.48,2.35-4.82,4.59-7.18,2.52-2.65,5.52-4.81,8.92-6.42,4.35-2.06,8.91-2.65,13.32-3.21,1.05-.14,2.11-.27,3.17-.43.65-.1,1.34-.15,2.04-.15h0Z"/>
          </g>
          <g>
            <path class="cls-2" d="m776.82,515.63c-3.58,0-8.16-.38-11.84-3.38-3.2-2.61-6.23-6.32-7.72-9.46-1.75-3.7-1.96-7.95-.54-11.38,1.33-3.22,4.12-5.97,7.85-7.75,3.44-1.64,7.22-2.28,10.47-2.69,1.12-.14,2.32-.27,3.55-.27,1.33,0,2.49.16,3.55.48,2.44.74,4.44,2.38,6.07,3.9,5.18,4.81,8.06,9.79,8.56,14.81.18,1.8,0,3.27-.58,4.51-.54,1.17-1.43,2.11-2.22,2.9-1.97,1.96-4.1,3.78-6.34,5.42-1.09.79-2.28,1.6-3.62,2.1-1.87.69-3.89.75-5.67.8-.51.01-1.01.02-1.52.02Z"/>
            <path class="cls-2" d="m778.58,481.7c-1.14,0-2.29.12-3.42.26-3.49.44-7,1.09-10.17,2.6-3.17,1.51-6.01,3.98-7.35,7.22-1.39,3.36-1.04,7.29.52,10.57,1.54,3.24,4.64,6.82,7.45,9.11,3.22,2.62,7.23,3.16,11.21,3.16.5,0,1,0,1.5-.02,1.81-.05,3.65-.11,5.34-.74,1.23-.46,2.33-1.2,3.38-1.97,2.21-1.61,4.29-3.39,6.22-5.32.78-.78,1.56-1.61,2.02-2.61.57-1.23.62-2.64.49-3.99-.56-5.56-4.15-10.38-8.25-14.18-1.67-1.55-3.5-3.02-5.68-3.67-1.06-.32-2.16-.43-3.26-.43m0-2c1.43,0,2.68.17,3.84.52,2.64.8,4.75,2.53,6.46,4.12,5.36,4.98,8.35,10.18,8.88,15.45.2,1.98-.02,3.63-.66,5.03-.61,1.32-1.57,2.34-2.43,3.19-2,1.99-4.17,3.85-6.45,5.51-1.15.84-2.41,1.68-3.86,2.23-2.02.75-4.13.81-5.99.86-.52.01-1.03.02-1.55.02-3.75,0-8.55-.41-12.47-3.61-3.31-2.69-6.44-6.54-7.99-9.8-1.9-4.01-2.11-8.45-.56-12.19,1.43-3.45,4.39-6.38,8.34-8.26,3.57-1.7,7.45-2.36,10.78-2.78,1.15-.15,2.39-.28,3.67-.28h0Z"/>
          </g>
          <path class="cls-4" d="m815.45,505.93c-7.57-2.46-13.86-8.59-16.51-16.1-1.23-3.49.01-7.36-2.44-10.14-2.82-3.2-5.18-6.97-5.61-11.3-.57-5.71,2.64-11.61,7.74-14.23s11.77-1.79,16.08,2.01c3.72,3.29,5.53,8.02,8.46,11.92,2.57,3.43,7.18,4.53,10.36,7.32,4.15,3.64,7.33,8.57,8.09,14.03.76,5.46-1.18,11.42-5.55,14.78"/>
          <g>
            <path class="cls-2" d="m910.11,482.74c-4.14,0-8.69-1.23-13.15-3.55-14.49-7.5-23.57-23.22-22.6-39.12.02-.37.25-.7.6-.85.13-.06.27-.08.4-.08.23,0,.45.08.63.22,1.27,1.03,2.59,1.96,3.83,2.82,2.76,1.89,5.86,2.89,8.98,2.89,3.5,0,6.66-1.28,8.89-3.6,2.35-2.45,3.51-5.89,3.35-9.95-.2-5.12-2.98-10.39-7.62-14.45-1.14-.97-2.11-1.67-3.06-2.21-.31-.18-.51-.51-.51-.87,0-.36.2-.7.51-.87,3.61-2.02,7.57-3.08,11.44-3.08.44,0,.87.01,1.31.04,5.58.36,10.68,2.82,15.37,5.43,3.21,1.79,7.35,4.26,10.99,7.52,12.11,10.88,15.36,29.39,7.41,42.15-2.56,4.14-6.3,7.89-11.75,11.81-2.9,2.07-6.41,4.31-10.5,5.26-1.44.33-2.95.5-4.5.5Z"/>
            <path class="cls-2" d="m901.79,411.03c-3.83,0-7.6,1.08-10.96,2.95,1.16.65,2.22,1.47,3.23,2.33,4.41,3.86,7.73,9.31,7.96,15.16.37,9.38-5.99,14.58-13.24,14.58-3.17,0-6.52-.99-9.54-3.07-1.33-.92-2.64-1.85-3.89-2.87-.93,15.24,7.91,30.84,22.07,38.17,3.91,2.03,8.31,3.44,12.69,3.44,1.43,0,2.87-.15,4.28-.48,3.7-.86,7.03-2.88,10.14-5.1,4.44-3.19,8.6-6.88,11.48-11.52,7.96-12.75,3.95-30.83-7.23-40.88-3.26-2.93-6.99-5.27-10.8-7.39-4.68-2.6-9.63-4.96-14.94-5.3-.42-.03-.83-.04-1.24-.04m0-2c.45,0,.91.01,1.37.04,5.78.37,11,2.89,15.79,5.55,3.25,1.81,7.45,4.32,11.17,7.65,12.46,11.19,15.79,30.26,7.59,43.42-2.64,4.26-6.46,8.1-12.02,12.1-2.8,2-6.57,4.43-10.85,5.42-1.51.35-3.11.53-4.73.53-4.3,0-9.01-1.27-13.61-3.66-14.83-7.68-24.13-23.78-23.15-40.07.05-.75.51-1.41,1.19-1.71.26-.11.53-.17.8-.17.45,0,.9.15,1.26.45,1.26,1.02,2.61,1.98,3.76,2.77,2.6,1.78,5.51,2.72,8.41,2.72,3.23,0,6.13-1.17,8.17-3.29,2.16-2.25,3.22-5.43,3.07-9.21-.19-4.85-2.85-9.86-7.26-13.72-1.1-.94-2.02-1.61-2.91-2.11-.63-.36-1.02-1.02-1.02-1.75s.39-1.39,1.03-1.74c3.76-2.1,7.89-3.21,11.93-3.21h0Z"/>
          </g>
          <path class="cls-3" d="m865.95,419.48c1.57-5.02-.96-10.01-3.46-14.28-.8-1.37-2.3-3.93-5.09-4.33-.24-.03-.48-.05-.73-.05-1.37,0-2.6.55-3.52,1.03-4.69,2.44-8.98,8.43-11.08,14.38l-7.18.26c2.72-7.46,2.78-15.61.16-22.39-2.13-5.52-6.03-10.26-9.16-14.07-1.58-1.92-3.36-4.09-5.73-5.68-2.66-1.79-5.95-2.74-9.51-2.74-1.97,0-3.96.29-5.9.86-4.3,1.26-6.83,3.92-9.28,6.48-1.15,1.21-2.34,2.46-3.73,3.57-7.03,5.65-11.61,9.53-15.91,15.75-2.54,3.67-2.53,8.75-2.53,13.22,0,.73,0,1.44,0,2.11-.05,2.71.7,5.31,1.4,7.52,2.02,6.38,5.6,15.4,13.47,19.99,3.33,1.94,7.31,2.96,11.52,2.96,2.18,0,4.39-.27,6.55-.81,1.46-.36,2.91-.85,4.36-1.45.09,5.84,2.56,12.1,7.24,18.08,1.64,2.09,3.61,4.46,6.26,6.09,3.84,2.36,8.52,2.75,12.27,3.07,1.35.11,2.87.24,4.38.24,1.59,0,2.98-.14,4.27-.43,3.79-.86,6.93-3.09,9.5-5.16,2.39-1.92,5.08-4.32,6.81-7.54,3.22-5.97,2.29-13.27,1.62-18.59-.37-2.94-3.11-7.04-5.09-9.67,3.52-1.95,6.87-4.46,8.11-8.41Z"/>
          <g>
            <path class="cls-2" d="m888.79,447.06c-3.52,0-7.01-1.12-10.11-3.24-1.28-.88-2.64-1.84-3.96-2.92-2.64-2.11-4.51-4.11-5.89-6.29-2.81-4.39-3.32-9.56-1.34-13.48.85-1.7,2.19-3.28,4.21-4.96,4.03-3.34,8.44-5.17,12.42-5.17.87,0,1.74.09,2.57.26,1.56.32,3.13.95,4.65,1.88,1.04.58,2.11,1.36,3.36,2.42,5.06,4.43,8.09,10.21,8.31,15.88.18,4.61-1.17,8.56-3.91,11.41-2.61,2.72-6.28,4.21-10.33,4.21Z"/>
            <path class="cls-2" d="m884.13,412c-4.25,0-8.45,2.18-11.78,4.94-1.58,1.32-3.05,2.82-3.96,4.64-1.98,3.92-1.07,8.81,1.29,12.5,1.48,2.35,3.48,4.3,5.67,6.04,1.25,1.01,2.56,1.95,3.89,2.87,3.03,2.07,6.37,3.07,9.54,3.07,7.26,0,13.61-5.2,13.24-14.58-.23-5.86-3.55-11.3-7.96-15.16-1.01-.86-2.07-1.68-3.23-2.33-1.34-.82-2.78-1.44-4.33-1.75-.79-.16-1.58-.24-2.37-.24m0-2c.94,0,1.87.09,2.77.28,1.67.34,3.33,1.01,4.94,1.99,1.11.63,2.23,1.44,3.53,2.55,5.26,4.6,8.41,10.65,8.65,16.59.19,4.89-1.25,9.09-4.19,12.14-2.8,2.91-6.73,4.52-11.05,4.52-3.72,0-7.41-1.18-10.68-3.42-1.22-.84-2.65-1.85-4-2.95-2.74-2.18-4.68-4.26-6.11-6.53-3-4.69-3.53-10.24-1.39-14.47.92-1.83,2.33-3.51,4.47-5.29,4.2-3.49,8.84-5.4,13.06-5.4h0Z"/>
          </g>
          <path class="cls-4" d="m827.23,621.29c-6.12-6.55-10.07-15.09-11.09-23.97-1.02-8.88.91-18.04,5.4-25.7,4.3-7.33,10.74-13.12,17.33-18.46,4.58-3.71,9.34-7.3,14.69-9.79,5.35-2.49,11.39-3.84,17.24-2.87,7.25,1.2,13.52,5.76,18.99,10.72,2.01,1.82,3.96,3.72,5.56,5.9,5.45,7.42,6.28,17.56,3.63,26.32-2.65,8.75-8.4,16.25-15.04,22.5-8.77,8.25-19.28,14.65-30.65,18.66"/>
          <g>
            <path class="cls-2" d="m828.47,527.2c-4.41,0-8.69-2.28-11.16-5.94-2.24-3.32-3.04-7.72-2.26-12.39.43-2.58,1.29-4.47,2.61-5.77,1.87-1.84,4.53-2.39,6.67-2.82,1.12-.23,2.4-.49,3.67-.49.33,0,.65.02.98.05,3.06.35,5.49,2.36,7.46,4.28,2.26,2.2,4.9,5.22,5.25,9.05.41,4.43-2.39,8.23-4.81,10.63-2.21,2.19-5.19,3.4-8.4,3.4Z"/>
            <path class="cls-2" d="m828,500.78c-1.16,0-2.33.23-3.47.47-2.21.45-4.56.97-6.16,2.56-1.38,1.36-2,3.31-2.32,5.23-.67,3.99-.17,8.31,2.1,11.67,2.38,3.52,6.39,5.5,10.33,5.5,2.79,0,5.56-.99,7.7-3.11,2.65-2.63,4.86-6.12,4.52-9.83-.3-3.32-2.57-6.1-4.96-8.43-1.94-1.88-4.19-3.69-6.87-4-.29-.03-.58-.05-.87-.05m0-2c.37,0,.74.02,1.09.06,3.38.38,6.07,2.63,8.05,4.55,2.2,2.14,5.17,5.47,5.55,9.68.44,4.82-2.53,8.88-5.11,11.43-2.4,2.38-5.63,3.69-9.11,3.69-4.74,0-9.34-2.44-11.99-6.38-2.38-3.53-3.24-8.19-2.41-13.12.47-2.8,1.42-4.86,2.89-6.32,2.08-2.05,5.02-2.65,7.17-3.09,1.17-.24,2.49-.51,3.87-.51h0Z"/>
          </g>
        </g>
        <g>
          <g>
            <path class="cls-2" d="m-13.16,155.94c-1.47,0-3.06-.4-4.86-1.23-3.6-1.65-6.43-4.11-8.2-7.12-1.99-3.39-2.48-7.44-1.3-10.85.5-1.45,1.32-2.89,2.45-4.28,2.82-3.48,8.07-7,13.47-7h.22c5.83.11,8.8,6.41,10.05,10.16,1.51,4.53,1.07,9.38-1.2,12.97-.84,1.34-1.95,2.59-3.61,4.05-1.5,1.32-3.52,2.89-5.96,3.23-.35.05-.71.07-1.07.07h0Z"/>
            <path class="cls-2" d="m-11.6,126.46c-4.75,0-9.8,3.05-12.69,6.63-.97,1.2-1.78,2.53-2.28,3.98-1.13,3.28-.54,7.03,1.22,10.02,1.76,2.99,4.6,5.27,7.75,6.71,1.4.64,2.92,1.14,4.45,1.14.31,0,.62-.02.93-.06,2.08-.29,3.87-1.6,5.44-2.99,1.29-1.14,2.51-2.38,3.43-3.83,2.23-3.55,2.42-8.15,1.09-12.12-1.45-4.34-4.33-9.38-9.12-9.47-.07,0-.14,0-.21,0m0-2h.24c4.78.09,8.68,3.94,10.98,10.84,1.61,4.81,1.12,9.98-1.3,13.82-.9,1.42-2.07,2.74-3.79,4.27-1.6,1.42-3.79,3.09-6.49,3.47-.39.06-.8.08-1.21.08-1.62,0-3.34-.43-5.28-1.32-3.78-1.74-6.77-4.34-8.64-7.52-2.14-3.64-2.65-8.01-1.38-11.69.54-1.56,1.42-3.1,2.62-4.58,2.97-3.67,8.52-7.37,14.25-7.37h0Z"/>
          </g>
          <g>
            <path class="cls-2" d="m40.59,51.44c-7.93,0-16.41-4.01-22.67-10.72-2.89-3.09-4.69-6.28-5.36-9.47-1.46-6.95,2.49-14.73,9.59-18.94,4.79-2.83,10.8-4.21,18.39-4.21.97,0,1.94.02,2.9.06,2.79.11,5.74.39,8.35,1.61,2.06.96,3.98,2.55,5.69,4.7,6.57,8.24,6.41,21.02-.35,29.1-4.31,5.15-10.03,7.87-16.54,7.87Z"/>
            <path class="cls-2" d="m40.54,9.1c-6.24,0-12.55.92-17.88,4.07-6.15,3.64-10.59,10.88-9.12,17.87.72,3.42,2.73,6.44,5.11,8.99,5.73,6.14,13.97,10.41,21.94,10.41,5.74,0,11.34-2.21,15.78-7.51,6.45-7.7,6.6-19.98.34-27.84-1.45-1.82-3.23-3.43-5.34-4.42-2.47-1.16-5.25-1.41-7.97-1.52-.95-.04-1.9-.06-2.86-.06m0-2c.94,0,1.93.02,2.94.06,2.9.12,5.96.41,8.74,1.71,2.2,1.03,4.24,2.71,6.05,4.99,6.85,8.6,6.69,21.94-.37,30.37-4.51,5.38-10.49,8.22-17.31,8.22-8.2,0-16.95-4.13-23.41-11.04-3.01-3.23-4.9-6.57-5.6-9.95-1.54-7.36,2.59-15.58,10.06-20,4.95-2.93,11.13-4.35,18.9-4.35h0Z"/>
          </g>
          <path class="cls-4" d="m-3.85,106.24c1.89-1.49,3.79-2.98,5.68-4.46,2.99-2.35,6.49-4.83,10.23-4.17,3.23.57,5.56,3.33,7.59,5.9,1.14,1.44,2.27,2.88,3.41,4.32.84,1.07,1.69,2.15,2.2,3.41,1,2.51.48,5.43-.84,7.78-1.32,2.35-3.35,4.22-5.47,5.9-3.53,2.8-7.87,5.29-12.31,4.53-4.42-.76-7.63-4.5-10.44-7.99-1.1-1.36-2.2-2.73-3.3-4.09"/>
          <g>
            <path class="cls-2" d="m163.66,17.55c-2.06,0-3.99-.26-5.74-.77-4.85-1.42-9.24-4.95-13.43-10.77-5.11-7.1-8.1-14.77-8.65-22.18-.48-6.45,1.31-20.84,9.9-24.18,1.54-.6,3.39-.9,5.52-.9,8.66,0,20.4,5.02,25.97,8.58,9.55,6.11,17.45,18.72,14.05,31.01-2.68,9.71-12.15,17.31-23.56,18.92-1.41.2-2.77.3-4.05.3h0Z"/>
            <path class="cls-2" d="m151.25-40.26c-1.91,0-3.67.25-5.16.83-7.61,2.96-9.8,16.02-9.26,23.18.58,7.83,3.88,15.3,8.47,21.67,3.29,4.57,7.5,8.81,12.9,10.39,1.77.52,3.61.73,5.46.73,1.31,0,2.62-.11,3.91-.29,10.17-1.44,19.99-8.29,22.73-18.2,3.13-11.31-3.74-23.58-13.62-29.9-5.46-3.49-16.99-8.42-25.43-8.42m0-2c8.86,0,20.84,5.11,26.51,8.73,9.86,6.31,18,19.37,14.47,32.12-2.79,10.09-12.59,17.98-24.38,19.64-1.46.21-2.87.31-4.19.31-2.16,0-4.18-.27-6.03-.82-5.07-1.49-9.64-5.13-13.96-11.15-5.21-7.25-8.27-15.1-8.84-22.69-.59-7.92,1.75-21.77,10.53-25.19,1.65-.64,3.63-.97,5.88-.97h0Z"/>
          </g>
          <path class="cls-4" d="m-26.2,95.72c-3.93-4.98-6.92-10.71-8.76-16.84-.62-2.05-1.11-4.16-1.08-6.33.09-8.25,8.28-15.51,16.66-16.24,8.39-.73,16.26,4.01,20.84,10.64,4.63,6.7,6.18,16.25,1.42,23.41-2.95,4.44-7.77,7.27-11.97,10.6"/>
        </g>
        <g>
          <g>
            <path class="cls-2" d="m331.22,434.72c-1.74,0-3.46-.22-4.77-.4-8.25-1.18-14.77-3.51-19.93-7.1-10.2-7.1-14.63-22.12-10.1-34.19,2.45-6.52,9.34-10.1,19.41-10.1,4.63,0,9.62.8,13.7,2.18,3.15,1.07,5.7,2.34,7.8,3.89,3.17,2.33,5.55,5.45,7.86,8.46,3.84,5.01,7.27,10,7.06,15.8-.17,4.78-2.85,8.88-5.15,11.93-3.97,5.23-7.79,8.12-12.03,9.12-1.18.28-2.44.41-3.84.41h0Z"/>
            <path class="cls-2" d="m315.83,383.93c-7.89,0-15.81,2.35-18.47,9.46-4.32,11.5-.22,26.08,9.74,33.01,5.71,3.98,12.61,5.94,19.5,6.93,1.53.22,3.08.39,4.62.39,1.22,0,2.43-.11,3.61-.39,4.78-1.12,8.5-4.84,11.46-8.75,2.54-3.34,4.8-7.16,4.95-11.36.2-5.66-3.41-10.66-6.85-15.16-2.29-2.99-4.62-6.02-7.66-8.26-2.27-1.67-4.86-2.84-7.53-3.75-3.61-1.23-8.49-2.13-13.38-2.13m0-2c4.73,0,9.85.82,14.03,2.24,3.24,1.1,5.88,2.42,8.07,4.03,3.28,2.42,5.71,5.59,8.06,8.65,3.95,5.16,7.48,10.31,7.26,16.44-.18,5.11-3.15,9.58-5.36,12.5-2.59,3.41-6.71,8.11-12.6,9.49-1.26.3-2.59.44-4.07.44-1.8,0-3.57-.22-4.91-.41-8.41-1.21-15.07-3.58-20.36-7.27-10.55-7.35-15.15-22.88-10.47-35.36,2.6-6.93,9.83-10.75,20.35-10.75h0Z"/>
          </g>
          <g>
            <path class="cls-2" d="m411.17,248.2c-1.04,0-2.08-.15-3.08-.3-.64-.09-1.25-.18-1.79-.22-2.22-.14-3.64-.8-4.61-2.14-.53-.74-.93-1.68-1.29-3.06-1.62-6.17-.82-12.9,2.2-18.46,2.34-4.33,5.73-7.33,9.54-8.45.99-.29,2.04-.44,3.11-.44,3.8,0,7.16,1.81,8.77,4.73.84,1.52,1.27,3.39,1.31,5.73.06,3.09-.52,6.23-1.68,9.09-1.69,4.18-4.79,8.61-8.51,12.17-.95.91-2.25,1.35-3.98,1.35Z"/>
            <path class="cls-2" d="m415.25,216.13c-.96,0-1.92.13-2.83.4-3.93,1.16-6.99,4.36-8.94,7.97-2.89,5.35-3.65,11.85-2.11,17.74.3,1.15.65,2.05,1.14,2.72.78,1.08,1.93,1.6,3.86,1.73,1.4.09,3.17.51,4.8.51,1.25,0,2.42-.25,3.29-1.07,3.37-3.22,6.53-7.49,8.28-11.82,1.11-2.75,1.66-5.73,1.6-8.7-.04-1.82-.31-3.67-1.19-5.26-1.52-2.76-4.72-4.21-7.9-4.21m0-2c4.16,0,7.86,2.01,9.65,5.24.92,1.66,1.39,3.69,1.44,6.19.06,3.22-.54,6.5-1.75,9.49-1.74,4.31-4.93,8.87-8.75,12.52-1.15,1.1-2.68,1.63-4.67,1.63-1.11,0-2.23-.16-3.22-.31-.62-.09-1.21-.18-1.71-.21-1.58-.1-3.85-.48-5.35-2.55-.61-.84-1.06-1.89-1.45-3.39-1.68-6.41-.85-13.41,2.28-19.19,2.47-4.57,6.07-7.74,10.14-8.94,1.09-.32,2.23-.48,3.39-.48h0Z"/>
          </g>
          <g>
            <path class="cls-2" d="m430.81,349.62c-3.96,0-7.81-2.46-9.35-5.99-1.8-4.12-.98-10.38,1.97-14.88,2.14-3.27,5.04-5.07,8.17-5.07,1.45,0,2.94.39,4.41,1.14,2.31,1.19,5.45,3.35,7.24,6.89,1.67,3.31,1.69,7.18.04,10.1-1.15,2.04-3.02,3.53-4.71,4.72-1.6,1.13-3.53,2.35-5.71,2.85-.67.15-1.36.23-2.06.23h0Z"/>
            <path class="cls-2" d="m431.6,324.69c-7.62,0-12.08,12.03-9.22,18.54,1.42,3.24,4.93,5.39,8.44,5.39.62,0,1.23-.07,1.84-.2,1.96-.45,3.71-1.53,5.36-2.69,1.71-1.21,3.39-2.57,4.41-4.39,1.56-2.77,1.37-6.32-.06-9.15-1.43-2.84-3.97-5-6.8-6.45-1.39-.71-2.72-1.03-3.96-1.03m0-2c1.61,0,3.25.42,4.87,1.25,2.44,1.26,5.76,3.55,7.67,7.33,1.82,3.6,1.83,7.83.02,11.04-1.24,2.21-3.23,3.79-5,5.04-1.68,1.19-3.71,2.48-6.07,3.01-.74.17-1.51.25-2.28.25-4.35,0-8.57-2.71-10.27-6.59-1.93-4.41-1.07-11.06,2.05-15.83,2.33-3.56,5.53-5.52,9.01-5.52h0Z"/>
          </g>
          <g>
            <path class="cls-2" d="m448.15,451.54c-1.47,0-3.06-.4-4.86-1.23-3.6-1.65-6.43-4.11-8.2-7.12-1.99-3.39-2.48-7.44-1.3-10.85.5-1.45,1.32-2.89,2.45-4.28,2.82-3.48,8.07-7,13.47-7h.22c5.83.11,8.8,6.41,10.05,10.16,1.51,4.53,1.07,9.38-1.2,12.97-.84,1.34-1.95,2.59-3.61,4.05-1.5,1.32-3.52,2.89-5.96,3.23-.35.05-.71.07-1.07.07h0Z"/>
            <path class="cls-2" d="m449.71,422.06c-4.75,0-9.8,3.05-12.69,6.63-.97,1.2-1.78,2.53-2.28,3.98-1.13,3.28-.54,7.03,1.22,10.02,1.76,2.99,4.6,5.27,7.75,6.71,1.4.64,2.92,1.14,4.45,1.14.31,0,.62-.02.93-.06,2.08-.29,3.87-1.6,5.44-2.99,1.29-1.14,2.51-2.38,3.43-3.83,2.23-3.55,2.42-8.15,1.09-12.12-1.45-4.34-4.33-9.38-9.12-9.47-.07,0-.14,0-.21,0m0-2h.24c4.78.09,8.68,3.94,10.98,10.84,1.61,4.81,1.12,9.98-1.3,13.82-.9,1.42-2.07,2.74-3.79,4.27-1.6,1.42-3.79,3.09-6.49,3.47-.39.06-.8.08-1.21.08-1.62,0-3.34-.43-5.28-1.32-3.78-1.74-6.77-4.34-8.64-7.52-2.14-3.64-2.65-8.01-1.38-11.69.54-1.56,1.42-3.1,2.62-4.58,2.97-3.67,8.52-7.37,14.25-7.37h0Z"/>
          </g>
          <path class="cls-4" d="m373.28,480.13c-3.83-.5-7.43-2.6-9.73-5.7-1.62-2.17-2.65-4.82-4.7-6.57-2.64-2.25-6.35-2.55-9.78-3.1-3.42-.55-7.19-1.75-8.74-4.86-1.9-3.82.68-8.5,4.13-11,3.45-2.5,7.7-3.68,11.25-6.05,3.09-2.07,5.53-4.95,8.22-7.51,10.45-9.92,26.34-14.95,39.78-9.76,6.08,2.35,11.39,6.66,14.92,12.14,3.27,5.06,5.02,11.18,4.38,17.17-.64,5.99-3.8,11.77-8.81,15.12"/>
          <g>
            <path class="cls-2" d="m501.9,347.04c-7.93,0-16.41-4.01-22.67-10.72-2.89-3.09-4.69-6.28-5.36-9.47-1.46-6.95,2.49-14.73,9.59-18.94,4.79-2.83,10.8-4.21,18.39-4.21.97,0,1.94.02,2.9.06,2.79.11,5.74.39,8.35,1.61,2.06.96,3.98,2.55,5.69,4.7,6.57,8.24,6.41,21.02-.35,29.1-4.31,5.15-10.03,7.87-16.54,7.87Z"/>
            <path class="cls-2" d="m501.85,304.69c-6.24,0-12.55.92-17.88,4.07-6.15,3.64-10.59,10.88-9.12,17.87.72,3.42,2.73,6.44,5.11,8.99,5.73,6.14,13.97,10.41,21.94,10.41,5.74,0,11.34-2.21,15.78-7.51,6.45-7.7,6.6-19.98.34-27.84-1.45-1.82-3.23-3.43-5.34-4.42-2.47-1.16-5.25-1.41-7.97-1.52-.95-.04-1.9-.06-2.86-.06m0-2c.94,0,1.93.02,2.94.06,2.9.12,5.96.41,8.74,1.71,2.2,1.03,4.24,2.71,6.05,4.99,6.85,8.6,6.69,21.94-.37,30.37-4.51,5.38-10.49,8.22-17.31,8.22-8.2,0-16.95-4.13-23.41-11.04-3.01-3.23-4.9-6.57-5.6-9.95-1.54-7.36,2.59-15.58,10.06-20,4.95-2.93,11.13-4.35,18.9-4.35h0Z"/>
          </g>
          <path class="cls-4" d="m457.45,401.84c1.89-1.49,3.79-2.98,5.68-4.46,2.99-2.35,6.49-4.83,10.23-4.17,3.23.57,5.56,3.33,7.59,5.9,1.14,1.44,2.27,2.88,3.41,4.32.84,1.07,1.69,2.15,2.2,3.41,1,2.51.48,5.43-.84,7.78-1.32,2.35-3.35,4.22-5.47,5.9-3.53,2.8-7.87,5.29-12.31,4.53-4.42-.76-7.63-4.5-10.44-7.99-1.1-1.36-2.2-2.73-3.3-4.09"/>
          <path class="cls-4" d="m427.97,374.85c-1.5,1.43-3.55,2.1-5.56,2.59-3.06.74-6.31,1.15-9.34.26s-5.75-3.34-6.17-6.46c-.09-.65-.07-1.33.16-1.95.25-.68.74-1.23,1.22-1.76,1.56-1.71,3.22-3.32,4.97-4.83.85-.73,1.75-1.46,2.83-1.78.69-.2,1.42-.23,2.14-.19,3.12.19,6.14,1.71,8.15,4.1"/>
          <path class="cls-4" d="m425.24,251.94c-1.86-2.82-1.34-6.71.4-9.61,1.74-2.9,4.48-5.04,7.16-7.1,2.51-1.94,5.08-3.9,8.06-5,2.13-.78,4.41-1.09,6.68-1.16,13.56-.41,27.12,8.73,30.94,21.74.67,2.29,1.06,4.67.94,7.05-.13,2.74-.94,5.41-1.98,7.96-3.13,7.65-8.76,14.56-16.39,17.74-7.63,3.18-17.3,1.95-22.92-4.11"/>
          <path class="cls-4" d="m362.04,273.33c-4.56-.24-8.86-3.22-10.7-7.4s-1.11-9.36,1.79-12.88c1.37-1.66,3.16-2.94,5.01-4.05,2.47-1.49,5.3-2.75,8.14-2.26,1.5.26,2.87,1,4.1,1.88,3.21,2.3,7.5,7.44,6.2,11.17"/>
          <g>
            <path class="cls-2" d="m333.68,272.42c-2.24,0-4.36-.52-6.11-1.51-1.55-.87-3.01-2.2-4.46-4.06-.97-1.24-2.1-2.92-2.25-4.92-.22-2.99,1.74-5.45,3.68-7.47,1.47-1.53,3.11-3.1,5.12-4.21,1.68-.93,3.45-1.42,5.14-1.42.57,0,1.13.06,1.67.17,3.05.63,5.32,2.92,7.33,5.3,1.29,1.53,2.72,3.33,3.51,5.47.85,2.32.79,4.44-.2,6.29-1.78,3.35-6.22,5.05-9.62,5.89-1.27.31-2.55.47-3.8.47Z"/>
            <path class="cls-2" d="m334.8,249.83c-1.61,0-3.23.51-4.65,1.3-1.85,1.03-3.42,2.5-4.89,4.03-1.79,1.86-3.59,4.12-3.4,6.7.12,1.63,1.04,3.09,2.04,4.38,1.17,1.49,2.52,2.88,4.16,3.8,1.71.96,3.65,1.38,5.62,1.38,1.2,0,2.4-.16,3.56-.44,5.4-1.32,11.51-4.38,9.12-10.86-.71-1.94-2.01-3.6-3.33-5.17-1.84-2.18-3.97-4.39-6.76-4.97-.48-.1-.97-.15-1.47-.15m0-2c.64,0,1.27.06,1.87.19,3.34.69,5.77,3.12,7.89,5.64,1.34,1.59,2.84,3.48,3.68,5.77.96,2.6.87,4.99-.26,7.11-1.96,3.68-6.67,5.51-10.27,6.39-1.35.33-2.7.5-4.04.5-2.42,0-4.7-.57-6.6-1.64-1.67-.94-3.22-2.35-4.76-4.32-1.06-1.35-2.29-3.2-2.46-5.46-.25-3.4,1.98-6.19,3.96-8.24,1.53-1.58,3.23-3.21,5.36-4.39,1.83-1.01,3.77-1.55,5.62-1.55h0Z"/>
          </g>
          <g>
            <path class="cls-2" d="m342.91,248.32c-1.75,0-3.39-.58-4.63-1.08-4.04-1.65-7.23-4.06-9.22-6.98-2.43-3.56-3.03-7.99-1.59-11.54.6-1.49,1.59-2.94,3.1-4.56,1.66-1.78,3.26-3.07,4.92-3.93,1.83-.95,3.93-1.45,6.07-1.45,2.79,0,5.52.85,7.7,2.39,3.95,2.79,6.15,7.88,5.48,12.67-.6,4.31-5.59,14.25-11.53,14.48-.1,0-.2,0-.3,0Z"/>
            <path class="cls-2" d="m341.57,219.78c-1.94,0-3.88.44-5.61,1.34-1.77.92-3.29,2.26-4.65,3.72-1.18,1.27-2.26,2.66-2.91,4.26-1.4,3.44-.61,7.53,1.49,10.6,2.09,3.07,5.33,5.22,8.77,6.62,1.36.55,2.79,1.01,4.25,1.01.09,0,.18,0,.26,0,5.04-.19,9.96-9.2,10.58-13.62.62-4.43-1.41-9.13-5.06-11.71-2.06-1.46-4.59-2.21-7.12-2.21m0-2c2.99,0,5.93.91,8.28,2.57,4.24,3,6.61,8.48,5.89,13.62-.72,5.13-6.14,15.09-12.48,15.34-.11,0-.23,0-.34,0-1.93,0-3.69-.62-5.01-1.15-4.23-1.72-7.57-4.26-9.67-7.34-2.61-3.84-3.26-8.62-1.69-12.48.86-2.1,2.29-3.78,3.3-4.87,1.74-1.87,3.43-3.22,5.19-4.13,1.97-1.02,4.23-1.56,6.53-1.56h0Z"/>
          </g>
          <g>
            <path class="cls-2" d="m401.05,194.24c-2.98,0-5.95-2.23-8.5-4.32-3.79-3.1-5.75-6.91-5.4-10.43.31-3.01,2.18-5.48,3.9-7.55,1.71-2.06,3.62-4.17,6-5.62,1.9-1.17,4.04-1.81,6.02-1.81.81,0,1.6.11,2.36.31,2.2.61,3.96,2.07,5.26,3.27,1.24,1.15,2.99,2.94,3.95,5.24,1.6,3.87.73,8.76-2.28,12.77-1.8,2.4-6.25,7.17-10.15,8.02-.37.08-.76.12-1.15.12Z"/>
            <path class="cls-2" d="m403.08,165.51c-1.92,0-3.85.65-5.5,1.66-2.25,1.38-4.06,3.37-5.75,5.41-1.71,2.06-3.4,4.35-3.68,7.02-.38,3.73,2.13,7.18,5.03,9.55,1.98,1.62,5.06,4.09,7.86,4.09.32,0,.63-.03.94-.1,3.39-.74,7.58-5,9.56-7.65,2.51-3.34,3.76-7.92,2.16-11.78-.79-1.9-2.19-3.49-3.7-4.89-1.41-1.31-2.99-2.52-4.84-3.04-.68-.19-1.38-.28-2.09-.28m0-2c.9,0,1.79.12,2.62.35,2.4.67,4.29,2.22,5.67,3.5,1.31,1.21,3.16,3.11,4.19,5.59,1.74,4.19.81,9.46-2.41,13.75-2.02,2.69-6.55,7.48-10.73,8.4-.44.1-.9.15-1.36.15-3.31,0-6.45-2.35-9.13-4.54-4.05-3.32-6.15-7.44-5.76-11.3.34-3.28,2.31-5.9,4.13-8.09,1.77-2.13,3.74-4.3,6.24-5.83,2.09-1.28,4.35-1.96,6.54-1.96h0Z"/>
          </g>
          <g>
            <path class="cls-2" d="m296.94,264.08c-2.16,0-4.28-.29-6.32-.85-2.56-.71-4.93-1.79-7.11-2.85-1.71-.83-3.51-1.76-5.05-3.09-1.7-1.47-2.98-3.36-4.1-5.18-1.5-2.43-3.36-5.68-4.37-9.31-1.04-3.74-1.02-7.36.05-10.48.8-2.33,2.23-4.56,4.37-6.81,2.43-2.56,5.33-4.64,8.63-6.2,4.21-1.99,8.69-2.57,13.02-3.13,1.06-.14,2.12-.27,3.18-.43.61-.09,1.24-.13,1.9-.13,4.87,0,10.38,2.48,13.39,6.02,2.08,2.46,3.14,5.59,3.97,8.34,1.52,5.05,2.84,10.95,1.11,16.4-.74,2.32-1.98,4.4-3.09,6.17-1.07,1.7-2.26,3.49-3.72,5.05-3.86,4.12-9.64,6.48-15.86,6.48h0Z"/>
            <path class="cls-2" d="m301.14,216.62c-.6,0-1.18.04-1.75.12-5.43.8-10.87,1.08-15.92,3.47-3.11,1.47-5.96,3.5-8.33,5.99-1.78,1.87-3.31,4.01-4.15,6.45-1.09,3.16-.93,6.66-.03,9.88.9,3.22,2.49,6.21,4.25,9.05,1.11,1.79,2.31,3.57,3.91,4.95,1.43,1.24,3.13,2.12,4.83,2.94,2.24,1.09,4.53,2.12,6.94,2.79,1.96.54,4.01.81,6.05.81,5.65,0,11.29-2.06,15.13-6.16,1.39-1.48,2.53-3.18,3.61-4.9,1.18-1.88,2.31-3.82,2.99-5.94,1.63-5.11.43-10.67-1.12-15.81-.85-2.84-1.86-5.72-3.77-7.98-2.81-3.31-8.07-5.67-12.63-5.67m0-2c5.15,0,10.97,2.62,14.16,6.38,2.21,2.6,3.31,5.85,4.16,8.69,1.57,5.2,2.92,11.29,1.11,16.99-.77,2.43-2.06,4.58-3.2,6.4-1.09,1.74-2.32,3.58-3.84,5.21-4.05,4.32-10.1,6.79-16.59,6.79-2.25,0-4.46-.3-6.59-.89-2.64-.73-5.06-1.83-7.28-2.92-1.77-.86-3.63-1.82-5.26-3.23-1.8-1.56-3.13-3.52-4.3-5.41-1.54-2.48-3.44-5.82-4.48-9.57-1.09-3.93-1.07-7.76.07-11.07.85-2.48,2.35-4.82,4.59-7.18,2.52-2.65,5.52-4.81,8.92-6.42,4.35-2.06,8.91-2.65,13.32-3.21,1.05-.14,2.11-.27,3.17-.43.65-.1,1.34-.15,2.04-.15h0Z"/>
          </g>
          <g>
            <path class="cls-2" d="m315.51,220.03c-3.58,0-8.16-.38-11.84-3.38-3.2-2.61-6.23-6.32-7.72-9.46-1.75-3.7-1.96-7.95-.54-11.38,1.33-3.22,4.12-5.97,7.85-7.75,3.44-1.64,7.22-2.28,10.47-2.69,1.12-.14,2.32-.27,3.55-.27,1.33,0,2.49.16,3.55.48,2.44.74,4.44,2.38,6.07,3.9,5.18,4.81,8.06,9.79,8.56,14.81.18,1.8,0,3.27-.58,4.51-.54,1.17-1.43,2.11-2.22,2.9-1.97,1.96-4.1,3.78-6.34,5.42-1.09.79-2.28,1.6-3.62,2.1-1.87.69-3.89.75-5.67.8-.51.01-1.01.02-1.52.02Z"/>
            <path class="cls-2" d="m317.28,186.11c-1.14,0-2.29.12-3.42.26-3.49.44-7,1.09-10.17,2.6-3.17,1.51-6.01,3.98-7.35,7.22-1.39,3.36-1.04,7.29.52,10.57,1.54,3.24,4.64,6.82,7.45,9.11,3.22,2.62,7.23,3.16,11.21,3.16.5,0,1,0,1.5-.02,1.81-.05,3.65-.11,5.34-.74,1.23-.46,2.33-1.2,3.38-1.97,2.21-1.61,4.29-3.39,6.22-5.32.78-.78,1.56-1.61,2.02-2.61.57-1.23.62-2.64.49-3.99-.56-5.56-4.15-10.38-8.25-14.18-1.67-1.55-3.5-3.02-5.68-3.67-1.06-.32-2.16-.43-3.26-.43m0-2c1.43,0,2.68.17,3.84.52,2.64.8,4.75,2.53,6.46,4.12,5.36,4.98,8.35,10.18,8.88,15.45.2,1.98-.02,3.63-.66,5.03-.61,1.32-1.57,2.34-2.43,3.19-2,1.99-4.17,3.85-6.45,5.51-1.15.84-2.41,1.68-3.86,2.23-2.02.75-4.13.81-5.99.86-.52.01-1.03.02-1.55.02-3.75,0-8.55-.41-12.47-3.61-3.31-2.69-6.44-6.54-7.99-9.8-1.9-4.01-2.11-8.45-.56-12.19,1.43-3.45,4.39-6.38,8.34-8.26,3.57-1.7,7.45-2.36,10.78-2.78,1.15-.15,2.39-.28,3.67-.28h0Z"/>
          </g>
          <path class="cls-4" d="m354.14,210.33c-7.57-2.46-13.86-8.59-16.51-16.1-1.23-3.49.01-7.36-2.44-10.14-2.82-3.2-5.18-6.97-5.61-11.3-.57-5.71,2.64-11.61,7.74-14.23s11.77-1.79,16.08,2.01c3.72,3.29,5.53,8.02,8.46,11.92,2.57,3.43,7.18,4.53,10.36,7.32,4.15,3.64,7.33,8.57,8.09,14.03.76,5.46-1.18,11.42-5.55,14.78"/>
          <g>
            <path class="cls-2" d="m448.81,187.14c-4.14,0-8.69-1.23-13.15-3.55-14.49-7.5-23.57-23.22-22.6-39.12.02-.37.25-.7.6-.85.13-.06.27-.08.4-.08.23,0,.45.08.63.22,1.27,1.03,2.59,1.96,3.83,2.82,2.76,1.89,5.86,2.89,8.98,2.89,3.5,0,6.66-1.28,8.89-3.6,2.35-2.45,3.51-5.89,3.35-9.95-.2-5.12-2.98-10.39-7.62-14.45-1.14-.97-2.11-1.67-3.06-2.21-.31-.18-.51-.51-.51-.87,0-.36.2-.7.51-.87,3.61-2.02,7.57-3.08,11.44-3.08.44,0,.87.01,1.31.04,5.58.36,10.68,2.82,15.37,5.43,3.21,1.79,7.35,4.26,10.99,7.52,12.11,10.88,15.36,29.39,7.41,42.15-2.56,4.14-6.3,7.89-11.75,11.81-2.9,2.07-6.41,4.31-10.5,5.26-1.44.33-2.95.5-4.5.5Z"/>
            <path class="cls-2" d="m440.49,115.44c-3.83,0-7.6,1.08-10.96,2.95,1.16.65,2.22,1.47,3.23,2.33,4.41,3.86,7.73,9.31,7.96,15.16.37,9.38-5.99,14.58-13.24,14.58-3.17,0-6.52-.99-9.54-3.07-1.33-.92-2.64-1.85-3.89-2.87-.93,15.24,7.91,30.84,22.07,38.17,3.91,2.03,8.31,3.44,12.69,3.44,1.43,0,2.87-.15,4.28-.48,3.7-.86,7.03-2.88,10.14-5.1,4.44-3.19,8.6-6.88,11.48-11.52,7.96-12.75,3.95-30.83-7.23-40.88-3.26-2.93-6.99-5.27-10.8-7.39-4.68-2.6-9.63-4.96-14.94-5.3-.42-.03-.83-.04-1.24-.04m0-2c.45,0,.91.01,1.37.04,5.78.37,11,2.89,15.79,5.55,3.25,1.81,7.45,4.32,11.17,7.65,12.46,11.19,15.79,30.26,7.59,43.42-2.64,4.26-6.46,8.1-12.02,12.1-2.8,2-6.57,4.43-10.85,5.42-1.51.35-3.11.53-4.73.53-4.3,0-9.01-1.27-13.61-3.66-14.83-7.68-24.13-23.78-23.15-40.07.05-.75.51-1.41,1.19-1.71.26-.11.53-.17.8-.17.45,0,.9.15,1.26.45,1.26,1.02,2.61,1.98,3.76,2.77,2.6,1.78,5.51,2.72,8.41,2.72,3.23,0,6.13-1.17,8.17-3.29,2.16-2.25,3.22-5.43,3.07-9.21-.19-4.85-2.85-9.86-7.26-13.72-1.1-.94-2.02-1.61-2.91-2.11-.63-.36-1.02-1.02-1.02-1.75s.39-1.39,1.03-1.74c3.76-2.1,7.89-3.21,11.93-3.21h0Z"/>
          </g>
          <path class="cls-3" d="m404.64,123.88c1.57-5.02-.96-10.01-3.46-14.28-.8-1.37-2.3-3.93-5.09-4.33-.24-.03-.48-.05-.73-.05-1.37,0-2.6.55-3.52,1.03-4.69,2.44-8.98,8.43-11.08,14.38l-7.18.26c2.72-7.46,2.78-15.61.16-22.39-2.13-5.52-6.03-10.26-9.16-14.07-1.58-1.92-3.36-4.09-5.73-5.68-2.66-1.79-5.95-2.74-9.51-2.74-1.97,0-3.96.29-5.9.86-4.3,1.26-6.83,3.92-9.28,6.48-1.15,1.21-2.34,2.46-3.73,3.57-7.03,5.65-11.61,9.53-15.91,15.75-2.54,3.67-2.53,8.75-2.53,13.22,0,.73,0,1.44,0,2.11-.05,2.71.7,5.31,1.4,7.52,2.02,6.38,5.6,15.4,13.47,19.99,3.33,1.94,7.31,2.96,11.52,2.96,2.18,0,4.39-.27,6.55-.81,1.46-.36,2.91-.85,4.36-1.45.09,5.84,2.56,12.1,7.24,18.08,1.64,2.09,3.61,4.46,6.26,6.09,3.84,2.36,8.52,2.75,12.27,3.07,1.35.11,2.87.24,4.38.24,1.59,0,2.98-.14,4.27-.43,3.79-.86,6.93-3.09,9.5-5.16,2.39-1.92,5.08-4.32,6.81-7.54,3.22-5.97,2.29-13.27,1.62-18.59-.37-2.94-3.11-7.04-5.09-9.67,3.52-1.95,6.87-4.46,8.11-8.41Z"/>
          <g>
            <path class="cls-2" d="m427.49,151.46c-3.52,0-7.01-1.12-10.11-3.24-1.28-.88-2.64-1.84-3.96-2.92-2.64-2.11-4.51-4.11-5.89-6.29-2.81-4.39-3.32-9.56-1.34-13.48.85-1.7,2.19-3.28,4.21-4.96,4.03-3.34,8.44-5.17,12.42-5.17.87,0,1.74.09,2.57.26,1.56.32,3.13.95,4.65,1.88,1.04.58,2.11,1.36,3.36,2.42,5.06,4.43,8.09,10.21,8.31,15.88.18,4.61-1.17,8.56-3.91,11.41-2.61,2.72-6.28,4.21-10.33,4.21Z"/>
            <path class="cls-2" d="m422.83,116.4c-4.25,0-8.45,2.18-11.78,4.94-1.58,1.32-3.05,2.82-3.96,4.64-1.98,3.92-1.07,8.81,1.29,12.5,1.48,2.35,3.48,4.3,5.67,6.04,1.25,1.01,2.56,1.95,3.89,2.87,3.03,2.07,6.37,3.07,9.54,3.07,7.26,0,13.61-5.2,13.24-14.58-.23-5.86-3.55-11.3-7.96-15.16-1.01-.86-2.07-1.68-3.23-2.33-1.34-.82-2.78-1.44-4.33-1.75-.79-.16-1.58-.24-2.37-.24m0-2c.94,0,1.87.09,2.77.28,1.67.34,3.33,1.01,4.94,1.99,1.11.63,2.23,1.44,3.53,2.55,5.26,4.6,8.41,10.65,8.65,16.59.19,4.89-1.25,9.09-4.19,12.14-2.8,2.91-6.73,4.52-11.05,4.52-3.72,0-7.41-1.18-10.68-3.42-1.22-.84-2.65-1.85-4-2.95-2.74-2.18-4.68-4.26-6.11-6.53-3-4.69-3.53-10.24-1.39-14.47.92-1.83,2.33-3.51,4.47-5.29,4.2-3.49,8.84-5.4,13.06-5.4h0Z"/>
          </g>
          <g>
            <path class="cls-2" d="m536.62,173.08c-7.45,0-14.39-3.71-17.7-9.45-1.52-2.64-2.45-5.86-2.85-9.84-1.35-13.53,4.89-28.07,15.91-37.04,3.67-2.99,7.73-4.5,12.09-4.5,6.22,0,13.12,3.1,20.51,9.21,3.72,3.08,5.77,6.13,6.25,9.32.42,2.77-.32,5.44-1.19,8.16-2.16,6.76-5.05,14.57-10.04,21.18-5.33,7.05-12.3,11.57-19.64,12.71-1.09.17-2.22.26-3.35.26Z"/>
            <path class="cls-2" d="m544.07,113.25c-3.88,0-7.75,1.25-11.46,4.27-10.55,8.59-16.91,22.53-15.55,36.17.33,3.28,1.07,6.58,2.72,9.44,3.33,5.78,10.12,8.95,16.83,8.95,1.07,0,2.14-.08,3.19-.24,7.65-1.19,14.33-6.15,18.99-12.32,4.66-6.17,7.53-13.51,9.88-20.88.8-2.5,1.55-5.11,1.16-7.71-.54-3.55-3.14-6.42-5.9-8.7-6.09-5.04-13-8.98-19.87-8.98m0-2c6.46,0,13.58,3.18,21.15,9.44,3.92,3.24,6.08,6.49,6.61,9.94.46,2.98-.36,5.89-1.23,8.62-2.19,6.84-5.11,14.75-10.19,21.47-5.48,7.26-12.69,11.91-20.28,13.09-1.14.18-2.32.27-3.5.27-7.8,0-15.08-3.91-18.57-9.95-1.59-2.76-2.57-6.11-2.98-10.24-1.41-14.07,4.83-28.6,16.27-37.92,3.85-3.13,8.13-4.72,12.72-4.72h0Z"/>
          </g>
          <g>
            <path class="cls-2" d="m524.87,289.99c-7.52,0-14.6-3.13-18.94-8.38-5.62-6.81-6.05-17.26-.99-23.8,3.09-3.99,7.51-6.11,11.79-8.16l.57-.27c1.59-.76,3.37-1.95,5.09-3.11,2.31-1.55,4.71-3.15,6.89-3.91,1.07-.38,2.21-.57,3.39-.57,6.56,0,13.54,5.93,16.49,11.66,3.64,7.05,3.31,16.19-.83,23.28-4.02,6.87-11.3,11.72-19.49,12.96-1.3.2-2.64.3-3.98.3h0Z"/>
            <path class="cls-2" d="m532.68,242.79c-1.04,0-2.06.16-3.06.51-3.66,1.28-8.11,5.16-11.87,6.97-4.4,2.12-8.93,4.17-12.01,8.14-4.98,6.43-4.21,16.29.97,22.55,4.36,5.28,11.29,8.02,18.17,8.02,1.28,0,2.57-.1,3.83-.29,7.68-1.17,14.85-5.77,18.78-12.48,3.92-6.71,4.37-15.42.81-22.32-2.7-5.24-9.32-11.12-15.6-11.12m0-2c6.94,0,14.29,6.2,17.38,12.2,3.79,7.35,3.46,16.87-.86,24.25-4.17,7.13-11.72,12.16-20.2,13.44-1.35.21-2.74.31-4.13.31-7.82,0-15.19-3.27-19.71-8.75-6-7.27-6.44-18.04-1.01-25.05,3.23-4.17,7.76-6.35,12.15-8.45l.57-.27c1.52-.73,3.28-1.9,4.97-3.04,2.36-1.58,4.81-3.22,7.11-4.02,1.18-.41,2.43-.62,3.72-.62h0Z"/>
          </g>
          <g>
            <path class="cls-2" d="m542.48,244.35c-2.51,0-5.19-.81-8.22-2.46-4.17-2.29-7.27-5.13-9.19-8.45-2.33-4.01-2.8-8.69-1.24-12.5,2.35-5.74,10.11-10.41,17.3-10.41,3.91,0,7.09,1.38,9.21,3.98,2.78,3.42,5.17,7.14,7.13,11.08.88,1.77,1.67,3.69,1.51,5.7-.26,3.31-2.81,5.64-5.39,7.74-2.57,2.09-5.76,4.69-9.63,5.22-.48.06-.98.1-1.48.1h0Z"/>
            <path class="cls-2" d="m541.13,211.53c-6.61,0-14.13,4.31-16.38,9.79-1.53,3.73-.85,8.13,1.17,11.62s5.27,6.13,8.81,8.07c2.39,1.31,5.05,2.34,7.74,2.34.45,0,.89-.03,1.34-.09,3.49-.47,6.41-2.78,9.14-5,2.3-1.87,4.79-4.08,5.02-7.04.14-1.81-.6-3.56-1.41-5.18-1.92-3.88-4.28-7.54-7.01-10.9-2.06-2.54-5.13-3.61-8.43-3.61m0-2c4.22,0,7.67,1.51,9.99,4.35,2.82,3.47,5.26,7.26,7.25,11.27.94,1.9,1.79,3.97,1.61,6.23-.29,3.7-3.12,6.3-5.76,8.44-2.67,2.17-5.98,4.87-10.13,5.43-.53.07-1.07.11-1.61.11-2.68,0-5.52-.85-8.7-2.59-4.33-2.38-7.56-5.34-9.58-8.82-2.49-4.28-2.97-9.28-1.3-13.38,2.49-6.08,10.66-11.03,18.23-11.03h0Z"/>
          </g>
          <path class="cls-3" d="m604.87,141.6c.41-.62,1.09-1.66,1.03-2.99-.06-1.32-.82-2.29-1.28-2.88l-2.87-3.67-2.95-3.77c-1.08-1.39-2.9-3.71-5.69-4.07-.25-.03-.5-.05-.75-.05-2.11,0-4.18,1.13-6.34,3.45-3.31,3.57-5.5,7.36-6.52,11.27-.34,1.31-.51,2.59-.55,3.83-5.53,1.16-11.13,4.52-15.85,9.61-3.72,4.01-5.82,8.69-5.92,13.19-.1,4.76,1.95,9.19,4.18,13.28,2.97,5.44,6.86,11.31,13.19,13.58,1.74.62,3.59.94,5.51.94,5.02,0,10.44-2.13,15.25-5.99,2.22-1.79,3.93-3.57,5.23-5.47,3.03-4.42,4.28-10.34,3.43-16.24-.72-5.03-2.87-10.07-6.38-15-.03-.04-.06-.08-.09-.12,3.14-2.5,5.37-5.89,7.34-8.91Z"/>
          <g>
            <path class="cls-2" d="m577.85,228.13c-2.55,0-5.16-.48-7.57-1.38-4.96-1.86-9.54-5.63-12.91-10.62-.88-1.31-1.83-2.89-2.13-4.74-.43-2.63.49-5.51,2.74-8.57,3.69-5.03,10.5-10.45,16.73-10.45,1.08,0,2.12.16,3.1.48,7.49,2.44,12.85,10.84,14.84,18.09.56,2.04,1.21,5.1.34,8-.83,2.77-2.97,5.23-6.03,6.92-2.68,1.48-5.83,2.26-9.11,2.26h0Z"/>
            <path class="cls-2" d="m574.71,193.37c-6.08,0-12.65,5.57-15.93,10.04-1.67,2.27-3.01,5.04-2.56,7.82.26,1.58,1.07,3.01,1.97,4.34,3.06,4.52,7.33,8.32,12.44,10.24,2.29.86,4.76,1.32,7.21,1.32,3.01,0,6-.68,8.63-2.14,2.52-1.39,4.73-3.57,5.56-6.33.72-2.42.32-5.02-.35-7.45-1.9-6.92-6.95-15.05-14.18-17.4-.91-.3-1.85-.43-2.8-.43m0-2c1.19,0,2.33.18,3.42.53,8.38,2.73,13.58,11.82,15.49,18.78.59,2.16,1.27,5.4.33,8.55-.9,3.02-3.21,5.69-6.5,7.51-2.82,1.56-6.14,2.39-9.6,2.39-2.66,0-5.4-.5-7.92-1.45-5.15-1.94-9.91-5.84-13.39-10.99-.95-1.4-1.96-3.1-2.29-5.14-.47-2.9.51-6.04,2.92-9.33,3.83-5.23,10.96-10.85,17.54-10.85h0Z"/>
          </g>
          <g>
            <path class="cls-2" d="m567.68,289.5c-.28,0-.56-.01-.84-.04-1.28-.13-2.62-.6-3.98-1.4-2.59-1.51-4.55-3.74-5.52-6.29-1.08-2.84-.86-5.99.58-8.43,2.65-4.48,6.81-7.15,11.13-7.15,4.9,0,8.83,3.35,10.51,8.95.96,3.2.98,7.56-1.82,10.19-.94.89-2.09,1.46-3.11,1.97-1.95.98-4.37,2.19-6.96,2.19h0Z"/>
            <path class="cls-2" d="m569.07,267.18c-3.74,0-7.68,2.28-10.27,6.66-1.33,2.25-1.44,5.12-.51,7.57.93,2.44,2.83,4.46,5.09,5.78,1.1.64,2.31,1.14,3.58,1.27.25.03.49.04.73.04,2.27,0,4.46-1.06,6.51-2.09,1.02-.51,2.05-1.03,2.88-1.81,2.38-2.24,2.48-6.05,1.54-9.18-1.66-5.56-5.49-8.24-9.55-8.24m0-2c5.29,0,9.68,3.7,11.47,9.67,1.04,3.49,1.04,8.26-2.09,11.21-1.05.99-2.27,1.6-3.35,2.14-2.04,1.02-4.59,2.3-7.41,2.3-.32,0-.63-.02-.94-.05-1.42-.15-2.89-.66-4.38-1.53-2.79-1.62-4.9-4.04-5.95-6.79-1.19-3.12-.94-6.6.66-9.3,2.83-4.79,7.32-7.64,11.99-7.64h0Z"/>
          </g>
          <g>
            <path class="cls-2" d="m569.49,264.49c-1.35,0-2.66-.21-3.9-.62-4.33-1.43-7.99-5.27-9.56-10.03-1.52-4.6-.59-10.37,2.3-14.37,2.15-2.97,5.19-4.61,8.57-4.61.33,0,.67.01,1.01.05,4.89.44,8.99,2.86,11.53,6.81,2.7,4.19,3.24,9.46,1.48,14.46-.56,1.59-1.24,2.9-2.08,3.98-2.1,2.71-5.59,4.32-9.35,4.32Z"/>
            <path class="cls-2" d="m566.9,235.87c-8.31,0-12.25,10.61-9.92,17.66,1.4,4.25,4.67,7.98,8.92,9.39,1.15.38,2.37.57,3.59.57,3.28,0,6.56-1.35,8.56-3.93.86-1.1,1.47-2.38,1.93-3.7,3.23-9.22-2.04-19.03-12.16-19.95-.31-.03-.62-.04-.92-.04m0-2c.36,0,.73.02,1.1.05,5.21.47,9.57,3.05,12.28,7.27,2.86,4.45,3.44,10.04,1.59,15.33-.59,1.7-1.33,3.09-2.24,4.27-2.29,2.95-6.08,4.71-10.14,4.71-1.45,0-2.87-.23-4.22-.67-4.62-1.53-8.53-5.62-10.19-10.66-1.61-4.89-.63-11.02,2.44-15.27,2.34-3.24,5.67-5.02,9.38-5.02h0Z"/>
          </g>
          <path class="cls-4" d="m577.69,227.61c.5,4.69,2.28,9.25,5.11,13.03.89,1.19,1.91,2.33,3.18,3.09,3.29,1.97,7.71,1.04,10.77-1.28.86-.65,1.65-1.4,2.25-2.3,2.05-3.03,1.66-7.05.96-10.64-.35-1.79-.75-3.57-1.21-5.33-.36-1.37-.76-2.76-1.55-3.94s-2.04-2.13-3.45-2.22"/>
          <g>
            <path class="cls-2" d="m611.65,202.68c-1.47-.07-2.76-.71-3.9-1.27-6.08-2.99-9.23-9.36-7.84-15.84,1.01-4.74,7.66-10.14,12.48-10.14.11,0,.22,0,.32,0,1.2.06,2.28.51,3.21.93,3.36,1.51,5.74,3.13,7.48,5.12,2.27,2.59,3.33,5.9,2.84,8.83-.77,4.62-4.91,7.67-8.73,10.16-1.43.93-3.38,2.2-5.57,2.2,0,0-.19,0-.29,0Z"/>
            <path class="cls-2" d="m612.39,176.43c-4.4,0-10.6,5.14-11.5,9.35-1.33,6.21,1.9,12.07,7.31,14.73,1.11.55,2.27,1.11,3.51,1.17.08,0,.16,0,.24,0,1.82,0,3.49-1.04,5.02-2.04,3.63-2.37,7.58-5.22,8.29-9.49.48-2.86-.7-5.83-2.61-8.01-1.91-2.19-4.49-3.68-7.13-4.87-.91-.41-1.85-.79-2.85-.84-.09,0-.18,0-.27,0m0-2c.13,0,.25,0,.37,0,1.36.07,2.56.56,3.57,1.01,3.5,1.57,5.98,3.28,7.82,5.38,2.46,2.82,3.61,6.43,3.08,9.65-.83,5.02-5.17,8.22-9.17,10.83-1.53,1-3.63,2.37-6.11,2.37-.11,0-.22,0-.34,0-1.67-.08-3.13-.8-4.29-1.37-6.39-3.15-9.84-10.12-8.38-16.95,1.11-5.21,8.16-10.93,13.46-10.93h0Z"/>
          </g>
          <g>
            <path class="cls-2" d="m624.97,313.15c-2.06,0-3.99-.26-5.74-.77-4.85-1.42-9.24-4.95-13.43-10.77-5.11-7.1-8.1-14.77-8.65-22.18-.48-6.45,1.31-20.84,9.9-24.18,1.54-.6,3.39-.9,5.52-.9,8.66,0,20.4,5.02,25.97,8.58,9.55,6.11,17.45,18.72,14.05,31.01-2.68,9.71-12.15,17.31-23.56,18.92-1.41.2-2.77.3-4.05.3h0Z"/>
            <path class="cls-2" d="m612.56,255.34c-1.91,0-3.67.25-5.16.83-7.61,2.96-9.8,16.02-9.26,23.18.58,7.83,3.88,15.3,8.47,21.67,3.29,4.57,7.5,8.81,12.9,10.39,1.77.52,3.61.73,5.46.73,1.31,0,2.62-.11,3.91-.29,10.17-1.44,19.99-8.29,22.73-18.2,3.13-11.31-3.74-23.58-13.62-29.9-5.46-3.49-16.99-8.42-25.43-8.42m0-2c8.86,0,20.84,5.11,26.51,8.73,9.86,6.31,18,19.37,14.47,32.12-2.79,10.09-12.59,17.98-24.38,19.64-1.46.21-2.87.31-4.19.31-2.16,0-4.18-.27-6.03-.82-5.07-1.49-9.64-5.13-13.96-11.15-5.21-7.25-8.27-15.1-8.84-22.69-.59-7.92,1.75-21.77,10.53-25.19,1.65-.64,3.63-.97,5.88-.97h0Z"/>
          </g>
          <path class="cls-4" d="m365.93,325.69c-6.12-6.55-10.07-15.09-11.09-23.97-1.02-8.88.91-18.04,5.4-25.7,4.3-7.33,10.74-13.12,17.33-18.46,4.58-3.71,9.34-7.3,14.69-9.79,5.35-2.49,11.39-3.84,17.24-2.87,7.25,1.2,13.52,5.76,18.99,10.72,2.01,1.82,3.96,3.72,5.56,5.9,5.45,7.42,6.28,17.56,3.63,26.32-2.65,8.75-8.4,16.25-15.04,22.5-8.77,8.25-19.28,14.65-30.65,18.66"/>
          <path class="cls-4" d="m357.3,336.8c2.17-6.46,7.22-11.9,13.5-14.55,1.54-.65,3.16-1.14,4.83-1.27,2.42-.2,4.85.37,7.14,1.2,6.24,2.27,11.73,6.69,15,12.46,3.27,5.78,4.2,12.9,2.21,19.23-1.91,6.06-6.58,11.29-12.57,13.41-4.58,1.62-9.72,1.4-14.28-.28-4.56-1.68-8.54-4.75-11.6-8.52-2.25-2.77-4.68-6.57-4.98-10.24-.22-2.69,1.98-4.58,1.25-7.42-.51-1.99-1.84-4.97-3.66-6.12-4.77-2.99-11.51.84-12.34,6.07-.62,3.94,2.03,8.13,5.85,9.25,1.15.34,2.39.42,3.54.09,1.12-.32,2.08-1.02,3.01-1.72.62-.47,2.16-1.61,2.68-2.14"/>
          <g>
            <path class="cls-2" d="m393.55,514.7c-.79,0-1.58-.05-2.33-.15-6.9-.93-13.23-6.54-16.11-14.29-2.65-7.12-2.37-14.98-1.74-21.73.93-10.09,5.19-16.26,12.66-18.34,2.2-.61,4.51-.92,6.88-.92,5.3,0,10.7,1.57,15.2,4.41,7.86,4.97,13.74,13.86,16.13,24.38.42,1.85.8,4.04.41,6.18-.82,4.57-4.6,7.65-8.4,10.42-6.19,4.51-11.87,8.34-18.64,9.64-1.39.27-2.76.4-4.05.4h0Z"/>
            <path class="cls-2" d="m392.9,460.26c-2.23,0-4.46.29-6.61.88-8.24,2.29-11.19,9.49-11.93,17.47-.66,7.15-.82,14.56,1.69,21.29,2.5,6.73,8.19,12.69,15.3,13.65.73.1,1.46.14,2.2.14,1.29,0,2.59-.14,3.86-.39,6.79-1.3,12.65-5.4,18.24-9.47,3.5-2.54,7.24-5.53,8-9.78.34-1.92.03-3.89-.4-5.78-2.15-9.5-7.46-18.55-15.69-23.75-4.32-2.73-9.51-4.26-14.66-4.26m0-2c5.49,0,11.07,1.62,15.73,4.57,8.09,5.11,14.13,14.23,16.57,25,.44,1.95.84,4.26.42,6.58-.88,4.93-5,8.29-8.8,11.05-6.29,4.58-12.07,8.48-19.04,9.81-1.46.28-2.88.42-4.24.42-.84,0-1.67-.05-2.46-.16-7.27-.98-13.9-6.84-16.91-14.93-2.71-7.31-2.43-15.31-1.8-22.17.97-10.55,5.47-17.01,13.38-19.21,2.28-.63,4.69-.96,7.14-.96h0Z"/>
          </g>
          <path class="cls-4" d="m435.1,391.32c-3.93-4.98-6.92-10.71-8.76-16.84-.62-2.05-1.11-4.16-1.08-6.33.09-8.25,8.28-15.51,16.66-16.24,8.39-.73,16.26,4.01,20.84,10.64,4.63,6.7,6.18,16.25,1.42,23.41-2.95,4.44-7.77,7.27-11.97,10.6"/>
          <g>
            <path class="cls-2" d="m437.16,425.56c-2.4,0-4.58-.57-6.48-1.69-2.59-1.53-4.48-3.99-6.13-6.42-2.26-3.31-4.65-7.31-5.31-11.84-.72-4.94,1.03-9.76,4.44-12.28,2.38-1.75,5.61-2.61,9.86-2.61,2.61,0,5.28.32,7.23.56,5.93.72,11.4,3.73,15,8.26,1.77,2.22,2.58,4.28,2.48,6.28-.09,1.72-.86,3.25-1.65,4.68-2.21,4.02-5.37,9.04-10.16,12.19-2.81,1.85-6.11,2.87-9.28,2.87h0Z"/>
            <path class="cls-2" d="m433.54,391.72c-3.36,0-6.72.54-9.26,2.41-3.39,2.5-4.65,7.16-4.04,11.33.6,4.17,2.77,7.94,5.15,11.42,1.6,2.34,3.37,4.68,5.81,6.12,1.82,1.07,3.88,1.56,5.97,1.56,3.05,0,6.17-1.02,8.73-2.71,4.33-2.85,7.33-7.3,9.83-11.84.73-1.33,1.45-2.73,1.53-4.25.11-2.06-.98-3.99-2.26-5.6-3.49-4.39-8.79-7.22-14.34-7.89-2.17-.26-4.64-.55-7.11-.55m0-2c2.67,0,5.38.33,7.35.57,6.19.75,11.9,3.89,15.66,8.63,1.93,2.42,2.81,4.7,2.69,6.95-.1,1.93-.93,3.58-1.77,5.11-2.27,4.12-5.51,9.27-10.48,12.54-2.97,1.96-6.46,3.03-9.83,3.03-2.54,0-4.96-.63-6.99-1.83-2.76-1.63-4.73-4.19-6.45-6.71-2.32-3.41-4.79-7.53-5.47-12.26-.77-5.31,1.13-10.5,4.84-13.23,2.56-1.89,5.98-2.8,10.45-2.8h0Z"/>
          </g>
          <g>
            <path class="cls-2" d="m367.17,231.6c-4.41,0-8.69-2.28-11.16-5.94-2.24-3.32-3.04-7.72-2.26-12.39.43-2.58,1.29-4.47,2.61-5.77,1.87-1.84,4.53-2.39,6.67-2.82,1.12-.23,2.4-.49,3.67-.49.33,0,.65.02.98.05,3.06.35,5.49,2.36,7.46,4.28,2.26,2.2,4.9,5.22,5.25,9.05.41,4.43-2.39,8.23-4.81,10.63-2.21,2.19-5.19,3.4-8.4,3.4Z"/>
            <path class="cls-2" d="m366.7,205.18c-1.16,0-2.33.23-3.47.47-2.21.45-4.56.97-6.16,2.56-1.38,1.36-2,3.31-2.32,5.23-.67,3.99-.17,8.31,2.1,11.67,2.38,3.52,6.39,5.5,10.33,5.5,2.79,0,5.56-.99,7.7-3.11,2.65-2.63,4.86-6.12,4.52-9.83-.3-3.32-2.57-6.1-4.96-8.43-1.94-1.88-4.19-3.69-6.87-4-.29-.03-.58-.05-.87-.05m0-2c.37,0,.74.02,1.09.06,3.38.38,6.07,2.63,8.05,4.55,2.2,2.14,5.17,5.47,5.55,9.68.44,4.82-2.53,8.88-5.11,11.43-2.4,2.38-5.63,3.69-9.11,3.69-4.74,0-9.34-2.44-11.99-6.38-2.38-3.53-3.24-8.19-2.41-13.12.47-2.8,1.42-4.86,2.89-6.32,2.08-2.05,5.02-2.65,7.17-3.09,1.17-.24,2.49-.51,3.87-.51h0Z"/>
          </g>
        </g>
        <g>
          <g>
            <path class="cls-2" d="m792.52,139.12c-1.74,0-3.46-.22-4.77-.4-8.25-1.18-14.77-3.51-19.93-7.1-10.2-7.1-14.63-22.12-10.1-34.19,2.45-6.52,9.34-10.1,19.41-10.1,4.63,0,9.62.8,13.7,2.18,3.15,1.07,5.7,2.34,7.8,3.89,3.17,2.33,5.55,5.45,7.86,8.46,3.84,5.01,7.27,10,7.06,15.8-.17,4.78-2.85,8.88-5.15,11.93-3.97,5.23-7.79,8.12-12.03,9.12-1.18.28-2.44.41-3.84.41h0Z"/>
            <path class="cls-2" d="m777.13,88.33c-7.89,0-15.81,2.35-18.47,9.46-4.32,11.5-.22,26.08,9.74,33.01,5.71,3.98,12.61,5.94,19.5,6.93,1.53.22,3.08.39,4.62.39,1.22,0,2.43-.11,3.61-.39,4.78-1.12,8.5-4.84,11.46-8.75,2.54-3.34,4.8-7.16,4.95-11.36.2-5.66-3.41-10.66-6.85-15.16-2.29-2.99-4.62-6.02-7.66-8.26-2.27-1.67-4.86-2.84-7.53-3.75-3.61-1.23-8.49-2.13-13.38-2.13m0-2c4.73,0,9.85.82,14.03,2.24,3.24,1.1,5.88,2.42,8.07,4.03,3.28,2.42,5.71,5.59,8.06,8.65,3.95,5.16,7.48,10.31,7.26,16.44-.18,5.11-3.15,9.58-5.36,12.5-2.59,3.41-6.71,8.11-12.6,9.49-1.26.3-2.59.44-4.07.44-1.8,0-3.57-.22-4.91-.41-8.41-1.21-15.07-3.58-20.36-7.27-10.55-7.35-15.15-22.88-10.47-35.36,2.6-6.93,9.83-10.75,20.35-10.75h0Z"/>
          </g>
          <g>
            <path class="cls-2" d="m892.11,54.03c-3.96,0-7.81-2.46-9.35-5.99-1.8-4.12-.98-10.38,1.97-14.88,2.14-3.27,5.04-5.07,8.17-5.07,1.45,0,2.94.39,4.41,1.14,2.31,1.19,5.45,3.35,7.24,6.89,1.67,3.31,1.69,7.18.04,10.1-1.15,2.04-3.02,3.53-4.71,4.72-1.6,1.13-3.53,2.35-5.71,2.85-.67.15-1.36.23-2.06.23h0Z"/>
            <path class="cls-2" d="m892.9,29.09c-7.62,0-12.08,12.03-9.22,18.54,1.42,3.24,4.93,5.39,8.44,5.39.62,0,1.23-.07,1.84-.2,1.96-.45,3.71-1.53,5.36-2.69,1.71-1.21,3.39-2.57,4.41-4.39,1.56-2.77,1.37-6.32-.06-9.15-1.43-2.84-3.97-5-6.8-6.45-1.39-.71-2.72-1.03-3.96-1.03m0-2c1.61,0,3.25.42,4.87,1.25,2.44,1.26,5.76,3.55,7.67,7.33,1.82,3.6,1.83,7.83.02,11.04-1.24,2.21-3.23,3.79-5,5.04-1.68,1.19-3.71,2.48-6.07,3.01-.74.17-1.51.25-2.28.25-4.35,0-8.57-2.71-10.27-6.59-1.93-4.41-1.07-11.06,2.05-15.83,2.33-3.56,5.53-5.52,9.01-5.52h0Z"/>
          </g>
          <g>
            <path class="cls-2" d="m909.45,155.94c-1.47,0-3.06-.4-4.86-1.23-3.6-1.65-6.43-4.11-8.2-7.12-1.99-3.39-2.48-7.44-1.3-10.85.5-1.45,1.32-2.89,2.45-4.28,2.82-3.48,8.07-7,13.47-7h.22c5.83.11,8.8,6.41,10.05,10.16,1.51,4.53,1.07,9.38-1.2,12.97-.84,1.34-1.95,2.59-3.61,4.05-1.5,1.32-3.52,2.89-5.96,3.23-.35.05-.71.07-1.07.07h0Z"/>
            <path class="cls-2" d="m911.01,126.46c-4.75,0-9.8,3.05-12.69,6.63-.97,1.2-1.78,2.53-2.28,3.98-1.13,3.28-.54,7.03,1.22,10.02,1.76,2.99,4.6,5.27,7.75,6.71,1.4.64,2.92,1.14,4.45,1.14.31,0,.62-.02.93-.06,2.08-.29,3.87-1.6,5.44-2.99,1.29-1.14,2.51-2.38,3.43-3.83,2.23-3.55,2.42-8.15,1.09-12.12-1.45-4.34-4.33-9.38-9.12-9.47-.07,0-.14,0-.21,0m0-2h.24c4.78.09,8.68,3.94,10.98,10.84,1.61,4.81,1.12,9.98-1.3,13.82-.9,1.42-2.07,2.74-3.79,4.27-1.6,1.42-3.79,3.09-6.49,3.47-.39.06-.8.08-1.21.08-1.62,0-3.34-.43-5.28-1.32-3.78-1.74-6.77-4.34-8.64-7.52-2.14-3.64-2.65-8.01-1.38-11.69.54-1.56,1.42-3.1,2.62-4.58,2.97-3.67,8.52-7.37,14.25-7.37h0Z"/>
          </g>
          <path class="cls-4" d="m834.58,184.53c-3.83-.5-7.43-2.6-9.73-5.7-1.62-2.17-2.65-4.82-4.7-6.57-2.64-2.25-6.35-2.55-9.78-3.1-3.42-.55-7.19-1.75-8.74-4.86-1.9-3.82.68-8.5,4.13-11,3.45-2.5,7.7-3.68,11.25-6.05,3.09-2.07,5.53-4.95,8.22-7.51,10.45-9.92,26.34-14.95,39.78-9.76,6.08,2.35,11.39,6.66,14.92,12.14,3.27,5.06,5.02,11.18,4.38,17.17-.64,5.99-3.8,11.77-8.81,15.12"/>
          <path class="cls-4" d="m918.75,106.24c1.89-1.49,3.79-2.98,5.68-4.46,2.99-2.35,6.49-4.83,10.23-4.17,3.23.57,5.56,3.33,7.59,5.9,1.14,1.44,2.27,2.88,3.41,4.32.84,1.07,1.69,2.15,2.2,3.41,1,2.51.48,5.43-.84,7.78-1.32,2.35-3.35,4.22-5.47,5.9-3.53,2.8-7.87,5.29-12.31,4.53-4.42-.76-7.63-4.5-10.44-7.99-1.1-1.36-2.2-2.73-3.3-4.09"/>
          <path class="cls-4" d="m889.27,79.25c-1.5,1.43-3.55,2.1-5.56,2.59-3.06.74-6.31,1.15-9.34.26-3.02-.89-5.75-3.34-6.17-6.46-.09-.65-.07-1.33.16-1.95.25-.68.74-1.23,1.22-1.76,1.56-1.71,3.22-3.32,4.97-4.83.85-.73,1.75-1.46,2.83-1.78.69-.2,1.42-.23,2.14-.19,3.12.19,6.14,1.71,8.15,4.1"/>
          <path class="cls-4" d="m827.23,30.09c-6.12-6.55-10.07-15.09-11.09-23.97-1.02-8.88.91-18.04,5.4-25.7,4.3-7.33,10.74-13.12,17.33-18.46,4.58-3.71,9.34-7.3,14.69-9.79,5.35-2.49,11.39-3.84,17.24-2.87,7.25,1.2,13.52,5.76,18.99,10.72,2.01,1.82,3.96,3.72,5.56,5.9,5.45,7.42,6.28,17.56,3.63,26.32-2.65,8.75-8.4,16.25-15.04,22.5-8.77,8.25-19.28,14.65-30.65,18.66"/>
          <path class="cls-4" d="m818.6,41.21c2.17-6.46,7.22-11.9,13.5-14.55,1.54-.65,3.16-1.14,4.83-1.27,2.42-.2,4.85.37,7.14,1.2,6.24,2.27,11.73,6.69,15,12.46,3.27,5.78,4.2,12.9,2.21,19.23-1.91,6.06-6.58,11.29-12.57,13.41-4.58,1.62-9.72,1.4-14.28-.28-4.56-1.68-8.54-4.75-11.6-8.52-2.25-2.77-4.68-6.57-4.98-10.24-.22-2.69,1.98-4.58,1.25-7.42-.51-1.99-1.84-4.97-3.66-6.12-4.77-2.99-11.51.84-12.34,6.07-.62,3.94,2.03,8.13,5.85,9.25,1.15.34,2.39.42,3.54.09,1.12-.32,2.08-1.02,3.01-1.72.62-.47,2.16-1.61,2.68-2.14"/>
          <g>
            <path class="cls-2" d="m854.85,219.1c-.79,0-1.58-.05-2.33-.15-6.9-.93-13.23-6.54-16.11-14.29-2.65-7.12-2.37-14.98-1.74-21.73.93-10.09,5.19-16.26,12.66-18.34,2.2-.61,4.51-.92,6.88-.92,5.3,0,10.7,1.57,15.2,4.41,7.86,4.97,13.74,13.86,16.13,24.38.42,1.85.8,4.04.41,6.18-.82,4.57-4.6,7.65-8.4,10.42-6.19,4.51-11.87,8.34-18.64,9.64-1.39.27-2.76.4-4.05.4h0Z"/>
            <path class="cls-2" d="m854.2,164.66c-2.23,0-4.46.29-6.61.88-8.24,2.29-11.19,9.49-11.93,17.47-.66,7.15-.82,14.56,1.69,21.29,2.5,6.73,8.19,12.69,15.3,13.65.73.1,1.46.14,2.2.14,1.29,0,2.59-.14,3.86-.39,6.79-1.3,12.65-5.4,18.24-9.47,3.5-2.54,7.24-5.53,8-9.78.34-1.92.03-3.89-.4-5.78-2.15-9.5-7.46-18.55-15.69-23.75-4.32-2.73-9.51-4.26-14.66-4.26m0-2c5.49,0,11.07,1.62,15.73,4.57,8.09,5.11,14.13,14.23,16.57,25,.44,1.95.84,4.26.42,6.58-.88,4.93-5,8.29-8.8,11.05-6.29,4.58-12.07,8.48-19.04,9.81-1.46.28-2.88.42-4.24.42-.84,0-1.67-.05-2.46-.16-7.27-.98-13.9-6.84-16.91-14.93-2.71-7.31-2.43-15.31-1.8-22.17.97-10.55,5.47-17.01,13.38-19.21,2.28-.63,4.69-.96,7.14-.96h0Z"/>
          </g>
          <path class="cls-4" d="m896.4,95.72c-3.93-4.98-6.92-10.71-8.76-16.84-.62-2.05-1.11-4.16-1.08-6.33.09-8.25,8.28-15.51,16.66-16.24,8.39-.73,16.26,4.01,20.84,10.64,4.63,6.7,6.18,16.25,1.42,23.41-2.95,4.44-7.77,7.27-11.97,10.6"/>
          <g>
            <path class="cls-2" d="m898.46,129.97c-2.4,0-4.58-.57-6.48-1.69-2.59-1.53-4.48-3.99-6.13-6.42-2.26-3.31-4.65-7.31-5.31-11.84-.72-4.94,1.03-9.76,4.44-12.28,2.38-1.75,5.61-2.61,9.86-2.61,2.61,0,5.28.32,7.23.56,5.93.72,11.4,3.73,15,8.26,1.77,2.22,2.58,4.28,2.48,6.28-.09,1.72-.86,3.25-1.65,4.68-2.21,4.02-5.37,9.04-10.16,12.19-2.81,1.85-6.11,2.87-9.28,2.87h0Z"/>
            <path class="cls-2" d="m894.84,96.13c-3.36,0-6.72.54-9.26,2.41-3.39,2.5-4.65,7.16-4.04,11.33.6,4.17,2.77,7.94,5.15,11.42,1.6,2.34,3.37,4.68,5.81,6.12,1.82,1.07,3.88,1.56,5.97,1.56,3.05,0,6.17-1.02,8.73-2.71,4.33-2.85,7.33-7.3,9.83-11.84.73-1.33,1.45-2.73,1.53-4.25.11-2.06-.98-3.99-2.26-5.6-3.49-4.39-8.79-7.22-14.34-7.89-2.17-.26-4.64-.55-7.11-.55m0-2c2.67,0,5.38.33,7.35.57,6.19.75,11.9,3.89,15.66,8.63,1.93,2.42,2.81,4.7,2.69,6.95-.1,1.93-.93,3.58-1.77,5.11-2.27,4.12-5.51,9.27-10.48,12.54-2.97,1.96-6.46,3.03-9.83,3.03-2.54,0-4.96-.63-6.99-1.83-2.76-1.63-4.73-4.19-6.45-6.71-2.32-3.41-4.79-7.53-5.47-12.26-.77-5.31,1.13-10.5,4.84-13.23,2.56-1.89,5.98-2.8,10.45-2.8h0Z"/>
          </g>
        </g>
      </g>
    </pattern>
    <pattern id="CANDIDA_AURIS_2-2" data-name="CANDIDA AURIS 2" patternTransform="translate(-1001.16 52.25)" xlink:href="#CANDIDA_AURIS_2"/>
  </defs>
  <g id="secciones_banner" data-name="secciones banner">
    <g id="CANDIDA_AURIS" data-name="CANDIDA AURIS">
      <rect class="cls-1" x=".5" y=".5" width="2611.37" height="791.83"/>
    </g>
  </g>
</svg>